M48
; DRILL file {KiCad 5.1.4+dfsg1-1} date Sat Jan 11 23:11:24 2020
; FORMAT={-:-/ absolute / inch / decimal}
; #@! TF.CreationDate,2020-01-11T23:11:24+01:00
; #@! TF.GenerationSoftware,Kicad,Pcbnew,5.1.4+dfsg1-1
; #@! TF.FileFunction,Plated,1,2,PTH
FMAT,2
INCH
T1C0.0157
T2C0.0300
T3C0.0315
T4C0.0394
T5C0.0520
%
G90
G05
T1
X3.6Y-5.15
X3.72Y-4.92
X4.1Y-4.3
X4.1Y-4.45
T2
X2.15Y-4.3922
X2.15Y-4.4922
X2.15Y-4.6
X2.15Y-4.7
X2.15Y-4.7922
X2.15Y-4.9
X2.15Y-5.0
X2.15Y-5.1
X2.15Y-5.2
X2.15Y-5.3
X2.15Y-5.4
X2.15Y-5.5
X2.15Y-5.6
X2.15Y-5.7
X2.15Y-5.7922
X3.15Y-4.4
X3.15Y-4.5
X3.15Y-4.6
X3.15Y-4.7
X3.15Y-4.8
X3.15Y-4.9
X3.15Y-5.0
X3.15Y-5.1
X3.15Y-5.2
X3.15Y-5.3
X3.15Y-5.4
X3.15Y-5.5
X3.15Y-5.6
X3.15Y-5.7
X3.15Y-5.8
X4.35Y-5.2
X4.35Y-5.3
X4.35Y-5.4
X4.35Y-5.5
X4.35Y-5.6
X4.35Y-5.7
X4.35Y-5.8
X4.35Y-5.9
X4.85Y-5.2
X4.85Y-5.3
X4.85Y-5.4
X4.85Y-5.5
X4.85Y-5.6
X4.85Y-5.7
X4.85Y-5.8
X4.85Y-5.9
X4.35Y-4.2
X4.35Y-4.3
X4.35Y-4.4
X4.35Y-4.5
X4.35Y-4.6
X4.35Y-4.7
X4.35Y-4.8
X4.35Y-4.9
X4.85Y-4.2
X4.85Y-4.3
X4.85Y-4.4
X4.85Y-4.5
X4.85Y-4.6
X4.85Y-4.7
X4.85Y-4.8
X4.85Y-4.9
T3
X5.3Y-5.8
X5.3984Y-5.8
X3.4Y-5.85
X3.4984Y-5.85
X5.3Y-4.25
X5.3984Y-4.25
T4
X3.9Y-5.5
X3.9Y-5.6
X3.9Y-5.7
X3.9Y-5.8
X3.763Y-4.4687
X3.863Y-4.4687
X3.963Y-4.4687
X3.763Y-4.6498
X3.863Y-4.6498
X3.963Y-4.6498
X5.1Y-5.4
X5.1Y-5.5
X5.1Y-5.6
X5.1Y-5.7
X5.1Y-4.4
X5.1Y-4.5
X5.1Y-4.6
X5.1Y-4.7
X3.763Y-4.2876
X3.863Y-4.2876
X3.963Y-4.2876
X3.4Y-4.2
X3.4Y-4.3
X3.4Y-4.4
X3.4Y-4.5
X3.4Y-4.6
X3.4Y-4.7
X3.4Y-4.8
X3.4Y-4.9
X3.4Y-5.0
X3.4Y-5.1
X3.4Y-5.2
X3.4Y-5.3
X4.05Y-5.5
X4.05Y-5.6
X4.05Y-5.7
X4.05Y-5.8
X3.75Y-5.5
X3.75Y-5.6
X3.75Y-5.7
X3.75Y-5.8
T5
X5.55Y-5.0031
X5.55Y-5.2
T0
M30
