<?xml version="1.0" encoding="UTF-8" standalone="no"?>
<!-- Created with Inkscape (http://www.inkscape.org/) -->

<svg
   xmlns:dc="http://purl.org/dc/elements/1.1/"
   xmlns:cc="http://creativecommons.org/ns#"
   xmlns:rdf="http://www.w3.org/1999/02/22-rdf-syntax-ns#"
   xmlns:svg="http://www.w3.org/2000/svg"
   xmlns="http://www.w3.org/2000/svg"
   xmlns:sodipodi="http://sodipodi.sourceforge.net/DTD/sodipodi-0.dtd"
   xmlns:inkscape="http://www.inkscape.org/namespaces/inkscape"
   id="svg2"
   version="1.1"
   inkscape:version="0.91 r13725"
   width="708.60052"
   height="274.64441"
   viewBox="0 0 708.60053 274.64441"
   sodipodi:docname="ksbg-logo.svg">
  <metadata
     id="metadata8">
    <rdf:RDF>
      <cc:Work
         rdf:about="">
        <dc:format>image/svg+xml</dc:format>
        <dc:type
           rdf:resource="http://purl.org/dc/dcmitype/StillImage" />
        <dc:title></dc:title>
      </cc:Work>
    </rdf:RDF>
  </metadata>
  <defs
     id="defs6" />
  <sodipodi:namedview
     pagecolor="#ffffff"
     bordercolor="#666666"
     borderopacity="1"
     objecttolerance="10"
     gridtolerance="10"
     guidetolerance="10"
     inkscape:pageopacity="0"
     inkscape:pageshadow="2"
     inkscape:window-width="1920"
     inkscape:window-height="1028"
     id="namedview4"
     showgrid="false"
     fit-margin-top="0"
     fit-margin-left="0"
     fit-margin-right="0"
     fit-margin-bottom="0"
     inkscape:zoom="1.9362123"
     inkscape:cx="370.14335"
     inkscape:cy="120.42272"
     inkscape:window-x="-4"
     inkscape:window-y="0"
     inkscape:window-maximized="1"
     inkscape:current-layer="svg2" />
  <path
     style="fill:#000000"
     d="m 117.3,274.2819 c -5.86921,-1.29692 -9.22292,-6.00313 -9.76669,-13.70544 -0.50656,-7.17531 2.7193,-13.56146 7.89269,-15.62495 2.49001,-0.99319 7.55798,-0.99319 10.04799,0 5.14208,2.051 8.34013,8.24989 7.91674,15.34528 -0.29398,4.92668 -1.39416,7.97065 -3.85331,10.66136 -2.84217,3.10979 -7.49129,4.37251 -12.23742,3.32375 z m 5.71105,-2.46222 c 2.47715,-0.69506 4.37808,-2.26598 5.6982,-4.70899 1.35854,-2.51411 1.89219,-4.74508 1.88103,-7.8639 -0.0263,-7.35196 -3.75845,-12.31096 -9.54028,-12.67643 -6.28619,-0.39735 -10.63607,4.78683 -10.64644,12.6884 -0.009,6.78456 2.98082,11.52516 8.01678,12.71162 1.71805,0.40476 2.72936,0.37157 4.59071,-0.1507 z m 50.53895,2.66784 c -0.495,-0.0656 -1.60875,-0.31919 -2.475,-0.56343 l -1.575,-0.44406 0,-1.29162 c 0,-0.71039 0.0712,-1.36284 0.15827,-1.44989 0.087,-0.0871 0.66381,0.0918 1.2817,0.39756 2.62556,1.29903 6.50136,1.41299 8.76581,0.25776 2.21881,-1.13195 3.56596,-3.69046 3.14333,-5.96982 -0.28998,-1.56391 -2.42087,-3.44684 -6.31169,-5.57723 -5.85149,-3.20393 -7.85732,-5.94149 -7.03662,-9.60359 0.65729,-2.93294 2.50839,-4.73812 5.85687,-5.71155 1.93966,-0.56387 6.34638,-0.47848 8.11812,0.15731 0.86249,0.30951 0.91342,0.4083 0.74491,1.44503 -0.20382,1.25393 -0.12888,1.23372 -2.56392,0.69135 -5.26801,-1.17337 -9.45939,0.90312 -9.45566,4.6845 0.002,2.2586 1.34528,3.58968 6.29309,6.23695 3.45066,1.84624 6.07485,4.17525 6.77751,6.01514 0.64622,1.69209 0.45838,4.61546 -0.40439,6.29368 -1.74741,3.39898 -6.13898,5.11873 -11.31733,4.43191 z m 22.49999,0.0192 c -0.495,-0.0762 -1.60875,-0.33843 -2.475,-0.58267 -1.40748,-0.39683 -1.57456,-0.53091 -1.5709,-1.26068 0.002,-0.44914 0.0843,-1.1157 0.18228,-1.48125 l 0.17818,-0.66463 1.12617,0.57453 c 1.84983,0.94371 4.76996,1.35571 6.76673,0.9547 2.44734,-0.4915 3.67901,-1.35471 4.52484,-3.1712 1.70626,-3.66436 0.59163,-5.45662 -5.5823,-8.97608 -5.8243,-3.32016 -7.2,-4.90654 -7.2,-8.30268 0,-2.97339 1.59075,-5.25162 4.65,-6.65963 1.28067,-0.58942 1.98254,-0.68949 4.8,-0.68434 1.89711,0.003 3.76913,0.16976 4.40352,0.39117 1.05603,0.36858 1.09616,0.43286 0.93254,1.49398 -0.094,0.60985 -0.20016,1.14586 -0.23582,1.19113 -0.0357,0.0453 -0.85493,-0.12348 -1.82057,-0.375 -5.44575,-1.41844 -10.02967,0.63489 -10.02967,4.49269 0,2.25824 1.19632,3.51839 5.58743,5.88557 4.31619,2.32679 6.18929,3.82406 7.1197,5.69115 0.88988,1.78575 1.04546,3.99878 0.42804,6.08847 -0.51064,1.72829 -2.96136,4.13172 -4.88771,4.79339 -1.52743,0.52464 -5.27445,0.85135 -6.89746,0.60139 z m 29.85,-0.13038 c -2.55238,-0.44979 -5.6607,-2.06864 -7.43722,-3.87341 -2.70789,-2.75094 -3.96278,-6.2679 -3.96278,-11.10617 0,-4.8974 1.12063,-8.00539 3.95769,-10.97638 3.11917,-3.26642 6.68753,-4.51331 12.09231,-4.22542 1.815,0.0967 3.82104,0.32707 4.45787,0.51197 1.08373,0.31466 1.14615,0.39473 0.975,1.25051 -0.10058,0.50287 -0.18287,1.09396 -0.18287,1.31351 0,0.31916 -0.25563,0.30241 -1.275,-0.0835 -1.93933,-0.73422 -7.70139,-0.71649 -9.71188,0.0299 -3.22704,1.19802 -5.52029,3.5657 -6.80811,7.02909 -0.90584,2.43613 -0.90584,7.86458 0,10.30071 1.29674,3.48739 3.32176,5.58681 6.65155,6.89594 1.39864,0.54989 2.26792,0.66299 4.99344,0.64974 2.21752,-0.0108 3.739,-0.17242 4.63829,-0.49275 0.73606,-0.26219 1.36527,-0.44894 1.39824,-0.415 0.033,0.034 0.1528,0.55879 0.26628,1.16632 l 0.20631,1.1046 -1.60456,0.48007 c -1.99984,0.59833 -6.46789,0.82565 -8.65456,0.44031 z m 56.55,-0.11381 c -0.825,-0.21075 -1.87497,-0.53484 -2.33328,-0.7202 -1.39223,-0.56309 -3.70678,-2.96691 -4.45945,-4.63145 -0.6971,-1.54164 -0.70854,-1.72698 -0.79577,-12.88913 l -0.0885,-11.32499 1.3635,0 1.3635,0 0,10.30232 c 0,11.18116 0.10296,12.0653 1.66802,14.32368 1.1866,1.71227 3.61621,2.82704 6.13198,2.81353 1.0725,-0.006 2.4739,-0.19081 3.11421,-0.41121 1.64439,-0.56601 3.2942,-2.1682 4.12493,-4.00583 0.69877,-1.54575 0.71243,-1.75487 0.80317,-12.29749 l 0.0923,-10.725 1.34943,0 1.34943,0 -0.10275,11.175 c -0.11586,12.60005 -0.15129,12.82782 -2.39125,15.37256 -2.51097,2.85261 -7.04759,4.07631 -11.18948,3.01822 z m 191.93091,0.13693 c -3.45222,-0.73284 -6.11595,-2.87773 -7.30317,-5.88065 -0.68058,-1.72141 -0.70386,-2.08716 -0.81462,-12.79706 l -0.114,-11.025 1.52544,0 1.52544,0 0,10.59656 c 0,11.62765 0.0809,12.27301 1.79958,14.35807 1.36164,1.65192 3.31212,2.45431 6.00042,2.46848 2.68668,0.0142 4.60161,-0.77145 5.99199,-2.45825 1.72809,-2.09645 1.80801,-2.73161 1.80801,-14.36829 l 0,-10.59656 1.52274,0 1.52274,0 -0.10785,11.025 c -0.10518,10.75388 -0.12522,11.06883 -0.8157,12.80727 -0.94083,2.36876 -2.94951,4.37304 -5.24241,5.23092 -1.97001,0.73708 -5.41644,1.03906 -7.29861,0.63952 z m 57.66908,-0.004 c -3.45089,-0.62552 -5.9207,-1.89951 -8.00747,-4.13045 -1.72077,-1.83963 -2.51415,-3.37001 -3.261,-6.29013 -1.08051,-4.22475 -0.47847,-9.7032 1.42281,-12.9475 2.00373,-3.41914 5.61126,-5.93883 9.54566,-6.66723 2.27979,-0.42207 7.57659,-0.15329 9.70821,0.49264 1.56201,0.47333 1.60293,0.51362 1.425,1.40334 -0.10077,0.50381 -0.18321,1.09142 -0.18321,1.30581 0,0.29037 -0.43998,0.2258 -1.725,-0.25315 -1.41732,-0.52827 -2.39385,-0.64461 -5.475,-0.65229 -3.59475,-0.009 -3.83268,0.0298 -5.74757,0.93705 -1.09869,0.52053 -2.54904,1.51463 -3.22299,2.20911 -4.68543,4.82801 -4.68579,14.46754 0,19.1526 2.51871,2.51871 6.63782,3.68747 10.97864,3.1151 1.28847,-0.16989 2.71389,-0.45503 3.16764,-0.63363 l 0.825,-0.32474 0,-5.25742 0,-5.25743 -3.45,0 -3.45,0 0,-1.2 0,-1.2 4.80525,0 4.80522,0 -0.0802,7.425 -0.0802,7.425 -2.38206,0.67724 c -2.69388,0.76589 -7.31577,1.08838 -9.61794,0.67108 z m 31.65,-0.039 c -3.89529,-0.63864 -8.01771,-3.59485 -9.70371,-6.9586 -2.24727,-4.48345 -2.3091,-11.08889 -0.14688,-15.68881 0.92901,-1.97641 3.79161,-4.93362 5.70378,-5.89233 3.91494,-1.96284 9.77745,-2.28816 14.49903,-0.80459 0.85209,0.26773 0.89625,0.35856 0.79479,1.63424 -0.0591,0.74291 -0.12759,1.35068 -0.15222,1.3506 -0.0246,-8e-5 -0.78729,-0.29603 -1.69479,-0.65767 -1.37871,-0.54941 -2.26902,-0.66037 -5.41491,-0.67485 l -3.76491,-0.0173 -2.29389,1.13338 c -2.54439,1.25715 -4.00638,2.7189 -5.15628,5.15544 -2.69595,5.71238 -1.17507,13.80812 3.18768,16.9685 2.31273,1.67532 4.22907,2.20566 7.89231,2.18414 1.9515,-0.0115 3.85167,-0.19263 4.65,-0.44335 l 1.35,-0.42396 0.0819,-5.31208 0.0819,-5.31207 -3.4569,0 -3.45693,0 0,-1.2 0,-1.2 4.8,0 4.8,0 0,7.31743 0,7.31742 -1.20396,0.48173 c -2.88663,1.155 -7.90866,1.61452 -11.39604,1.04276 z M 0,259.39679 l 0,-14.7 1.5,0 1.5,0 0,6.52244 0,6.52245 6.5275015,-6.52245 6.5275045,-6.52244 1.9475,0.008 1.94749,0.008 -1.2,1.09233 c -0.66,0.60078 -3.87876,3.7224 -7.15281,6.93693 l -5.952814,5.8446 7.750655,7.75495 7.750649,7.75493 -1.94784,-0.004 -1.947839,-0.004 -7.049996,-7.31641 -7.050001,-7.3164 -0.08024,7.32004 -0.08024,7.32003 -1.494759,0 -1.494759,0 0,-14.7 z m 24.012686,14.475 c 0.007,-0.12375 2.675011,-6.705 5.92896,-14.625 l 5.916281,-14.4 1.75726,0 1.75725,0 5.77627,14.55 5.77626,14.55 -1.35433,0.0932 c -0.74489,0.0512 -1.45159,-0.0163 -1.57045,-0.15 -0.11886,-0.13373 -0.86617,-1.8969 -1.6607,-3.91815 l -1.44459,-3.675 -7.56494,0 -7.56494,0 -1.56502,3.9 -1.56501,3.9 -1.3175,0 c -0.72462,0 -1.31178,-0.10125 -1.3048,-0.225 z m 19.787311,-10.17664 c 0,-0.30607 -6.06738,-15.8152 -6.28828,-16.07379 -0.14453,-0.16919 -4.25928,9.83384 -6.47895,15.75043 -0.18378,0.48988 0.23668,0.525 6.28514,0.525 3.56515,0 6.48209,-0.0907 6.48209,-0.20164 z m 12.3,-4.29836 0,-14.7 1.92461,0 1.92461,0 7.45039,12.88364 7.45039,12.88365 0.0782,-12.88365 0.0782,-12.88364 1.49681,0 1.49682,0 0,14.7 0,14.7 -2.025,-0.0128 -2.025,-0.0128 -7.35,-12.74052 -7.35,-12.7405 -0.0782,12.75335 -0.0782,12.75335 -1.49678,0 -1.49678,0 0,-14.7 z m 35.7,1.2 0,-13.5 -4.35,0 -4.35,0 0,-1.2 0,-1.2 10.2,0 10.200003,0 0,1.2 0,1.2 -4.500004,0 -4.499999,0 0,13.5 0,13.5 -1.35,0 -1.35,0 0,-13.5 z m 48.600003,-1.2 0,-14.7 1.88343,0 1.88343,0 7.49157,12.96298 7.49157,12.96297 0.0782,-12.96297 0.0782,-12.96298 1.34681,0 1.34682,0 0,14.7 0,14.7 -1.87786,0 -1.87785,0 -7.30196,-12.60072 c -4.01608,-6.9304 -7.42354,-12.67586 -7.57215,-12.76771 -0.15863,-0.098 -0.27018,5.10451 -0.27018,12.60072 l 0,12.76771 -1.35,0 -1.35,0 0,-14.7 z m 104.99999,0 0,-14.7 1.35,0 1.35,0 0,6.45 0,6.45 7.65,0 7.65,0 0,-6.45 0,-6.45 1.35,0 1.35,0 0,14.7 0,14.7 -1.34447,0 -1.34447,0 -0.0805,-6.975 -0.0805,-6.975 -7.5,0 -7.5,0 -0.0805,6.975 -0.0805,6.975 -1.34447,0 -1.34447,0 0,-14.7 z m 58.8,0 0,-14.7 1.5,0 1.5,0 0,13.5 0,13.5 5.85,0 5.85,0 0,1.2 0,1.2 -7.35,0 -7.35,0 0,-14.7 z m 20.7,0 0,-14.7 7.2,0 7.2,0 0,1.2 0,1.2 -5.85,0 -5.85,0 0,5.25 0,5.25 5.55,0 5.55,0 0,1.2 0,1.2 -5.55,0 -5.55,0 0,5.85 0,5.85 6,0 6,0 0,1.2 0,1.2 -7.35,0 -7.35,0 0,-14.7 z m 31.1982,14.475 c 0,-0.12375 2.66526,-6.73814 5.925,-14.69865 l 5.9268,-14.47365 1.70166,-0.001 1.70163,-0.001 5.61534,14.17499 c 3.08841,7.79625 5.74011,14.41861 5.89266,14.71635 0.25266,0.49322 0.13659,0.53323 -1.30542,0.45 l -1.58274,-0.0914 -1.51158,-3.82693 -1.51155,-3.82693 -7.61034,0.0769 -7.61034,0.0769 -1.51611,3.825 -1.51611,3.825 -1.29855,0 c -0.71421,0 -1.29936,-0.10125 -1.30035,-0.225 z m 19.8018,-10.10828 c 0,-0.20176 -6.28008,-16.1468 -6.41118,-16.2779 -0.11271,-0.1127 -6.48882,15.81283 -6.48882,16.20702 0,0.11229 2.9025,0.20416 6.45,0.20416 3.5475,0 6.45,-0.06 6.45,-0.13328 z m 12.9,-4.36672 0,-14.7 2.19432,0 2.19435,0 5.35476,12.90092 c 2.9451,7.0955 5.43153,12.82413 5.52534,12.73029 0.0938,-0.0938 2.54412,-5.86549 5.44506,-12.82591 l 5.27442,-12.6553 2.15589,-0.0881 2.15586,-0.0881 0,14.71314 0,14.71314 -1.49688,0 -1.49688,0 -0.0781,-13.22381 -0.0781,-13.22382 -4.3302,10.74882 c -2.38161,5.91184 -4.79136,11.86256 -5.355,13.22381 l -1.0248,2.475 -1.245,-0.003 -1.245,-0.003 -5.37384,-12.97153 c -2.95563,-7.13434 -5.48688,-13.09978 -5.625,-13.25653 -0.13815,-0.15675 -0.25116,5.682 -0.25116,12.975 l 0,13.26 -1.35,0 -1.35,0 0,-14.7 z m 52.5,0 0,-14.7 4.90233,0 c 3.38856,0 5.34288,0.1326 6.3291,0.4294 3.50643,1.05528 5.02152,3.10615 5.02152,6.79731 0,3.11972 -0.84135,4.62649 -3.26055,5.83945 l -1.82724,0.91615 1.47348,0.52334 c 3.3138,1.17696 4.63116,3.39306 4.39917,7.40052 -0.11943,2.06283 -0.26907,2.60004 -1.02312,3.67294 -1.94775,2.77131 -5.1756,3.8072 -11.88969,3.81568 l -4.125,0.005 0,-14.7 z m 11.28417,11.23226 c 2.16408,-1.08123 3.10341,-2.5193 3.11088,-4.76254 0.008,-2.36469 -0.90141,-3.88193 -2.91774,-4.86843 -1.47312,-0.72072 -2.11857,-0.83783 -5.22894,-0.94873 l -3.54837,-0.12651 0,5.92472 0,5.92473 3.40917,-0.13049 c 3.02646,-0.11585 3.60738,-0.22953 5.175,-1.01275 z m -0.57768,-13.97483 c 1.84749,-0.95052 2.78169,-2.50431 2.78856,-4.63807 0.006,-1.94772 -0.8649,-3.32435 -2.68605,-4.24436 -1.13961,-0.57572 -1.81215,-0.675 -4.57257,-0.675 l -3.23643,0 0,5.28932 0,5.28933 3.13149,-0.13927 c 2.56671,-0.11416 3.39183,-0.27322 4.575,-0.88195 z m 44.19351,2.74257 0,-14.7 5.04555,0 c 5.99877,0 7.60908,0.35462 9.30318,2.04873 1.32795,1.32796 1.85304,2.88812 1.84632,5.48608 -0.008,3.14881 -1.94913,5.63656 -5.0091,6.42004 l -1.43595,0.36767 1.08039,0.4548 c 0.59424,0.25014 1.35342,0.84132 1.68711,1.31374 0.50397,0.71347 2.46537,4.99759 5.50956,12.03394 l 0.55161,1.275 -1.57269,0 -1.57269,0 -2.19381,-5.175 c -3.52764,-8.32132 -3.74532,-8.56561 -7.88556,-8.84939 l -2.35392,-0.16135 0,7.09287 0,7.09287 -1.5,0 -1.5,0 0,-14.7 z m 9.63093,-2.25583 c 3.32076,-1.1315 4.72995,-4.36897 3.28605,-7.54927 -0.8685,-1.91295 -1.86567,-2.30287 -6.24198,-2.44078 l -3.675,-0.11581 0,5.28084 0,5.28085 2.64657,0 c 1.58058,0 3.18537,-0.1836 3.98436,-0.45583 z m 79.46906,2.23246 0,-14.72338 5.625,0.0984 c 5.98569,0.10468 6.66372,0.25417 8.42919,1.85846 1.63203,1.48302 2.52999,4.90068 1.89339,7.20622 -0.65037,2.35547 -2.8212,4.44519 -5.05257,4.8638 -1.06872,0.20049 -1.37034,0.71989 -0.41808,0.71989 1.18011,0 2.27622,1.72535 4.88169,7.68407 1.43472,3.28126 2.70087,6.20984 2.81361,6.50795 0.18405,0.48658 0.043,0.5326 -1.37937,0.45 l -1.58439,-0.092 -2.37315,-5.5465 c -2.36475,-5.5268 -3.32379,-7.20862 -4.45623,-7.81469 -0.32808,-0.17559 -1.74009,-0.39995 -3.13779,-0.49859 l -2.5413,-0.17934 0,7.09456 0,7.09456 -1.35,0 -1.35,0 0,-14.72337 z m 9.03528,-2.08144 c 2.73963,-0.76099 4.25217,-2.64616 4.22859,-5.27035 -0.0189,-2.1194 -0.75075,-3.38382 -2.45931,-4.24984 -1.1472,-0.58149 -1.80084,-0.675 -4.71813,-0.675 l -3.38643,0 0,5.25 0,5.25 2.625,-0.002 c 1.44375,-9e-4 3.11337,-0.13733 3.71028,-0.30313 z m 14.19261,12.97981 c 0.86871,-2.10375 3.58263,-8.71875 6.03096,-14.7 l 4.45152,-10.875 1.69644,0 1.69644,0 5.74839,14.48247 c 3.16158,7.96537 5.74836,14.58037 5.74836,14.7 0,0.11964 -0.64125,0.21646 -1.425,0.21514 l -1.425,-0.002 -1.51302,-3.82261 -1.51302,-3.82261 -7.62396,0 -7.62396,0 -1.51302,3.82261 -1.51302,3.82261 -1.40079,0.002 -1.40079,0.002 1.57947,-3.825 z m 18.23178,-6.53466 c 0.0878,-0.0878 -1.26387,-3.80314 -3.00372,-8.25628 -1.73988,-4.45314 -3.25188,-7.99254 -3.36003,-7.86534 -0.24141,0.28395 -6.3075,15.74222 -6.30075,16.05628 0.005,0.25196 12.41385,0.31598 12.6645,0.0653 z m 12.84033,-4.30572 0,-14.73462 4.89555,0 c 5.94279,0 7.41924,0.34639 9.33306,2.18958 1.4196,1.36723 1.96803,2.76348 1.96803,5.01042 0,3.04924 -1.34865,5.25014 -3.78798,6.18173 l -1.36338,0.52069 1.49859,0.55902 c 4.81164,1.79491 6.14283,8.20296 2.48259,11.95059 -2.20491,2.25753 -3.90906,2.75519 -10.00146,2.9207 l -5.025,0.13651 0,-14.73462 z m 10.566,11.52306 c 2.55057,-0.91494 4.0761,-3.48793 3.64956,-6.15543 -0.28347,-1.77281 -1.24851,-3.04426 -2.95104,-3.88801 -1.25637,-0.62266 -2.02875,-0.75517 -5.02455,-0.86198 l -3.53997,-0.12621 0,5.92551 0,5.92551 3.225,-0.15573 c 1.8864,-0.0911 3.81273,-0.36655 4.641,-0.66366 z m -0.1812,-14.28168 c 0.80538,-0.3993 1.75266,-1.16152 2.10504,-1.69382 1.89519,-2.86286 0.60945,-6.6986 -2.53845,-7.57292 -0.60576,-0.16825 -2.48514,-0.30667 -4.17639,-0.30758 l -3.075,-0.002 0,5.28932 0,5.28933 3.11022,-0.13833 c 2.50101,-0.11123 3.39708,-0.28053 4.57458,-0.86432 z m 14.8152,2.724 0,-14.7 7.2,0 7.2,0 0,1.2 0,1.2 -5.85,0 -5.85,0 0,5.25 0,5.25 5.55,0 5.55,0 0,1.2 0,1.2 -5.55,0 -5.55,0 0,5.85 0,5.85 6,0 6,0 0,1.2 0,1.2 -7.35,0 -7.35,0 0,-14.7 z m 21.9,0 0,-14.7 1.92048,0 1.92048,0 7.45452,12.9006 7.45452,12.9006 0.0782,-12.9006 0.0782,-12.9006 1.49682,0 1.49682,0 0,14.7 0,14.7 -2.025,-0.0112 -2.025,-0.0112 -7.35,-12.72615 -7.35,-12.72615 -0.0782,12.73733 -0.0782,12.73731 -1.49676,0 -1.49679,0 0,-14.7 z M 180.42293,229.67186 c 1.15407,-15.05342 0.56634,-34.85513 -1.49514,-50.37507 -1.28169,-9.64915 -1.98356,-12.58762 -3.15662,-13.21543 -0.73153,-0.3915 -2.60294,0.5724 -7.2783,3.74877 -1.95641,1.32917 -4.07531,2.76612 -4.70866,3.19323 -1.17263,0.7908 -7.37342,2.5947 -13.48421,3.92278 -2.64014,0.57378 -4.02405,0.6831 -8.55,0.67534 -8.28025,-0.0142 -12.54608,-0.7206 -16.725,-2.76965 l -2.325,-1.14002 0,3.84249 0,3.84249 -61.350003,0 -61.349997,0 0.0069,-60.22499 0.0069,-60.225001 30.029099,-13.05 c 16.51601,-7.1775 30.384151,-13.15943 30.818091,-13.29318 0.65917,-0.20318 4.170339,1.234 21.338989,8.7344 l 20.550001,8.97758 1.33552,-1.29887 c 0.73454,-0.71438 1.26417,-1.37024 1.17695,-1.45746 -0.0872,-0.0872 -7.910701,-3.53155 -17.38552,-7.65408 l -17.226951,-7.49549 26.652831,-0.006 26.65282,-0.006 3.49717,-2.78743 c 7.6604,-6.10574 12.63121,-9.61823 22.24718,-15.720346 4.54023,-2.881149 12.15355,-6.6963848 20.25,-10.1478108 8.33217,-3.551916 12.47755,-5.03362204 15.5717,-5.56588804 5.06912,-0.87200798 12.67418,1.50825904 21.67366,6.78352704 4.37196,2.562729 12.43388,8.0408108 15.85463,10.7732358 3.52128,2.812722 13.42769,12.453942 15.35064,14.939712 l 1.33443,1.725 120.52635,0 120.52632,0 0.88113,-0.93967 c 3.05532,-3.25834 24.37704,-14.930988 35.36148,-19.358768 8.21472,-3.311322 13.07535,-3.603035 20.56964,-1.234499 3.01599,0.953182 11.94873,4.232079 19.2,7.047645 7.19064,2.792022 17.40579,8.090562 24.83301,12.880732 l 2.48301,1.60141 27.33606,0.0766 27.33606,0.0766 -17.81907,7.70653 c -9.80049,4.23859 -18.4689,7.98372 -19.26312,8.3225 l -1.44402,0.61597 0.99402,1.19709 c 0.54672,0.6584 1.12047,1.19953 1.275,1.2025 0.1545,0.003 10.24845,-4.32397 22.431,-9.61543 12.18252,-5.29147 22.3332,-9.57772 22.55709,-9.525 0.22386,0.0527 14.05611,6.03584 30.73827,13.29584 l 30.33126,13.2 0.006,60.225001 0.006,60.22499 -61.35,0 -61.35,0 0,-3.9 0,-3.9 -13.44771,0 -13.44774,0 -1.66482,1.275 c -0.91563,0.70125 -2.62524,2.11456 -3.79914,3.14068 -1.17387,1.02613 -2.57448,2.09699 -3.11247,2.3797 -1.5819,0.83131 -5.43498,0.87129 -10.21035,0.10593 -4.68153,-0.75031 -9.0494,-0.75928 -9.50654,-0.0195 -0.45069,0.72935 -0.70395,5.36566 -0.5172,9.46822 0.0977,2.145 0.5841,6.735 1.08099,10.2 0.76709,5.34913 1.52498,12.60196 1.52498,14.59356 0,0.51993 -0.32967,0.55617 -5.02499,0.55234 -2.76375,-0.002 -5.32875,-0.0855 -5.7,-0.18499 l -0.675,-0.18089 0,-16.31501 0,-16.31501 -1.28697,0 c -2.86932,0 -6.92775,1.56161 -11.48574,4.41951 -2.7939,1.7518 -5.92986,3.38049 -6.50895,3.38049 -0.21933,0 -0.7077,-0.64125 -1.08525,-1.425 -1.15566,-2.39905 -5.56398,-9.67492 -7.5432,-12.45 l -1.87221,-2.625 -41.20884,0 -41.20884,0 0,3.9 0,3.9 -54.9,0 -54.9,0 0,-3.9 0,-3.9 -26.51726,0 -26.51727,0 -1.87183,3.225 c -1.02951,1.77375 -1.89258,3.25209 -1.91794,3.2852 -0.0254,0.0331 -1.66151,-0.45582 -3.6359,-1.08651 -5.90149,-1.88515 -8.64243,-2.27369 -16.03977,-2.27369 -7.19874,0 -9.12055,0.27918 -14.7,2.1354 -7.03708,2.34117 -12.61318,6.47642 -15.74414,11.67589 l -0.96454,1.60177 -0.27066,8.79347 c -0.33423,10.85892 -0.34461,18.93119 -0.0312,24.27971 0.22215,3.79156 0.20051,4.09776 -0.3,4.24597 -0.29669,0.0879 -2.56443,0.70183 -5.03943,1.36439 -2.475,0.66257 -4.75731,1.30566 -5.07182,1.4291 -0.54668,0.21456 -0.5623,0.10021 -0.35524,-2.60063 z m 326.05413,-45.84514 c 3.97911,-2.08819 7.69152,-3.5909 11.62293,-4.70472 1.5675,-0.4441 2.90193,-0.85211 2.96538,-0.90671 0.26463,-0.22765 -0.82263,-2.26058 -2.76624,-5.17229 -2.48841,-3.72788 -7.40016,-8.88687 -14.93523,-15.68705 -6.15096,-5.55104 -11.76273,-11.49057 -12.24921,-12.96459 -0.23289,-0.70571 -0.23988,-1.25229 -0.0234,-1.82201 l 0.30945,-0.81387 2.90184,2.64566 c 8.65773,7.89333 22.05528,20.90306 24.3,23.59659 0.75924,0.91101 1.12482,1.1235 1.8,1.04614 0.82029,-0.094 0.85503,-0.16875 1.09071,-2.34708 0.13386,-1.2375 0.18012,-6.03 0.10275,-10.65 -0.15174,-9.06318 -0.5775,-12.92436 -2.28657,-20.73725 -1.79079,-8.18642 -5.92827,-20.87823 -10.15896,-31.16274 -4.24194,-10.311941 -5.42151,-14.448461 -4.94949,-17.357131 l 0.18243,-1.12405 1.17591,1.74059 c 2.87619,4.25732 5.25054,9.8378 9.48408,22.290591 3.27342,9.62871 4.48068,12.77551 6.41013,16.70838 1.99113,4.05863 2.6463,4.91918 2.6463,3.47593 0,-5.30991 2.05353,-32.937701 3.01656,-40.584311 0.54225,-4.30538 2.0295,-13.21663 2.24526,-13.45288 0.0517,-0.0566 0.30639,0.30796 0.56607,0.8101 0.77541,1.49948 0.51087,7.52609 -1.02243,23.29278 -1.36872,14.074581 -2.1552,28.678321 -1.59807,29.673851 0.61248,1.09445 7.2095,-8.13808 16.05854,-22.47385 8.72499,-14.134801 10.06482,-15.901941 13.67865,-18.041061 l 1.29459,-0.76631 -0.77232,1.52413 c -1.45764,2.8765 -3.87243,6.79519 -9.17136,14.883241 -10.57338,16.13876 -14.25693,23.20678 -16.92234,32.47092 -1.99874,6.94709 -2.42015,10.33656 -2.42174,19.47916 0,4.48254 0.10353,8.25498 0.23178,8.3832 0.29076,0.29063 3.47105,-2.81018 6.34181,-6.18329 1.19364,-1.4025 4.43757,-5.52 7.20873,-9.15 7.73937,-10.13795 8.6472,-11.11713 11.9742,-12.91546 l 2.05794,-1.11238 -2.83479,3.71393 c -1.55913,2.04265 -4.49751,6.14391 -6.52971,9.11391 -4.14672,6.06027 -6.0972,8.59071 -10.63326,13.79503 -1.72338,1.97727 -3.75426,4.62201 -4.51305,5.8772 -1.45883,2.41322 -2.83814,5.90339 -2.84873,7.20837 -0.006,0.76808 0.0357,0.78351 2.61866,0.96258 1.44375,0.10009 4.0425,0.46892 5.775,0.81962 1.83531,0.37152 4.40208,0.6504 6.15,0.66823 4.31973,0.0441 5.09373,-0.35336 12.45,-6.39254 5.04615,-4.14268 22.21206,-16.45988 30.74226,-22.05876 5.57058,-3.65631 13.44252,-8.36512 17.11809,-10.23967 l 2.80086,-1.42845 1.04679,-3.15581 c 1.82331,-5.49684 4.09092,-15.18267 5.2965,-22.62334 0.94926,-5.85867 1.46913,-11.25877 1.81269,-18.829121 0.35658,-7.85706 0.1326,-11.36835 -0.93513,-14.65938 -2.52135,-7.77138 -12.96819,-22.3651 -22.97871,-32.10011 -12.7575,-12.40638 -28.46787,-21.83629 -46.00119,-27.611529 -6.9948,-2.303988 -11.59359,-3.316514 -15.93128,-3.507616 l -3.47913,-0.153276 -6.27087,2.170686 c -12.86967,4.454885 -21.4407,8.196675 -28.70895,12.533255 -3.08352,1.83978 -4.7718,3.12914 -8.0943,6.18173 -4.81236,4.42144 -6.3867,5.49828 -12.81762,8.76722 -4.16685,2.11808 -4.90335,2.61367 -7.08849,4.76968 -9.86217,9.73081 -16.23006,31.79133 -17.84067,61.806011 -0.37383,6.96676 -0.21765,18.99208 0.32535,25.05 0.52773,5.88744 -0.18954,4.98367 6.08574,7.66843 20.51322,8.77622 30.5397,14.79169 39.21807,23.52919 4.97427,5.00817 8.75619,10.37441 11.14944,15.82021 0.52746,1.20019 1.00302,2.18216 1.05684,2.18216 0.0538,0 1.61568,-0.79653 3.47079,-1.77007 z m -308.51885,-4.67349 c 11.43354,-7.39631 28.33624,-9.19666 40.63807,-4.32846 2.25282,0.89151 2.36257,0.90645 2.75538,0.37526 0.65594,-0.88706 7.44861,-14.62485 9.1109,-18.4263 12.9627,-29.64401 16.42528,-54.24491 10.7008,-76.026931 C 253.1764,50.355909 232.2108,24.377549 204.44754,10.470545 199.23521,7.8596192 197.4137,7.0819962 192.30329,5.2860342 l -4.0467,-1.422141 -4.3533,1.501097 C 161.02275,13.254624 139.40835,25.541449 120,41.691199 c -15.6094,12.98861 -18.87768,19.63263 -20.547434,41.77034 -1.604219,21.268921 -0.40123,39.563461 3.495414,53.156461 2.9348,10.23773 9.68508,23.02997 15.34573,29.08122 3.03669,3.24624 8.72634,6.36638 14.50724,7.95559 3.21084,0.88269 12.72949,0.97695 16.49684,0.16337 7.64264,-1.65049 14.81637,-5.27718 19.94941,-10.08547 l 2.20111,-2.06184 -1.00863,-2.51204 c -2.36659,-5.8941 -7.12524,-13.86288 -11.53243,-19.31204 -5.68329,-7.02695 -13.02532,-14.03484 -18.51827,-17.67546 -2.06856,-1.371 -4.21518,-2.94689 -4.77027,-3.50197 -1.15687,-1.15687 -2.10251,-3.05136 -2.11213,-4.23141 l -0.007,-0.80884 1.64375,0.56553 c 5.17275,1.77969 10.4836,5.28913 15.80251,10.44241 4.12922,4.00062 12.04076,13.2924 15.20868,17.86197 1.04772,1.51128 2.31767,3.18107 2.82211,3.71066 0.94077,0.98766 3.96424,2.74583 4.24283,2.46724 0.0855,-0.0855 -0.31689,-3.65977 -0.89422,-7.9428 -2.0592,-15.27666 -10.32641,-82.024581 -10.32579,-83.368451 2.2e-4,-0.47686 1.7772,1.39197 2.68525,2.82405 1.21399,1.91458 1.98425,4.6854 2.55119,9.17727 0.26933,2.13389 0.74747,5.70231 1.06254,7.92981 0.31506,2.2275 1.26144,10.26 2.10306,17.85 1.60625,14.485591 2.28653,19.652381 3.33769,25.350001 1.08396,5.87541 0.97571,6.30192 2.20806,-8.7 3.36012,-40.904361 3.4085,-41.377871 4.62792,-45.295871 0.65113,-2.09209 1.75414,-4.06157 2.84587,-5.08142 l 0.77856,-0.7273 0,4.78242 c 0,6.36338 -0.3817,11.98137 -1.80198,26.52217 -1.58774,16.255171 -1.74915,18.333961 -1.97999,25.500001 -0.35173,10.91888 1.09011,26.34086 3.37976,36.14999 0.42366,1.815 0.86717,3.40545 0.98558,3.53433 0.25889,0.28178 1.5716,-6.4161 2.3978,-12.23433 1.22436,-8.62218 2.04696,-18.68194 3.01737,-36.89999 0.66286,-12.444261 1.64406,-26.245741 2.12936,-29.951421 0.50215,-3.83433 1.29258,-5.96657 2.67473,-7.21527 0.65951,-0.59582 1.3547,-1.08331 1.54488,-1.08331 0.51344,0 0.15964,6.79277 -1.07036,20.55 -1.18602,13.265521 -1.67776,21.049801 -1.67578,26.527921 0.002,4.69363 0.32561,10.52208 0.58475,10.52208 0.10695,0 2.80943,-6.58125 6.00553,-14.625 3.19609,-8.04375 7.11867,-17.797501 8.71684,-21.675001 1.59817,-3.8775 3.35415,-8.24759 3.90217,-9.71131 1.13813,-3.03985 2.65932,-5.50899 4.45092,-7.22458 l 1.23842,-1.18588 0.0291,1.03588 c 0.0967,3.44556 -0.24955,4.84732 -2.39538,9.69798 -0.81214,1.83585 -2.38137,5.83541 -3.48718,8.88791 -2.98738,8.246491 -5.11952,13.457531 -9.16494,22.399461 -9.69719,21.43454 -10.63051,25.71165 -11.37992,52.15053 -0.16837,5.94 -0.39159,12.285 -0.49605,14.1 l -0.18993,3.3 2.07276,-1.98615 c 1.14001,-1.09238 3.06142,-2.62571 4.2698,-3.40741 z m -158.037534,-5.70644 4.809331,-6.45 6.134999,0 6.134991,0 0,-11.4 0,-11.4 4.35,0 4.349999,0 0,11.4 0,11.4 6.075,0.0153 6.075001,0.0153 4.67299,6.35972 4.672989,6.35973 17.002014,0.0775 17.00201,0.0775 0,-3.54989 0,-3.54989 -2.94217,-2.97759 c -2.78503,-2.81856 -7.76646,-8.80806 -9.99144,-12.01337 l -1.01639,-1.4642 -0.0923,1.275 -0.0922,1.275 -4.33275,0 -4.332754,0 0,-7.35 0,-7.35 0.899999,0 c 0.495,0 0.900005,-0.12727 0.900005,-0.28283 0,-0.15556 -0.365525,-1.26896 -0.812264,-2.47421 -0.446749,-1.20525 -1.30029,-3.87923 -1.896759,-5.94216 l -1.08448,-3.75079 -47.37825,0 -47.378247,0 -0.07679,24.07499 -0.07679,24.075 16.807456,0 16.807451,0 4.80934,-6.45 z m -24.020679,-21.9 0,-7.35 4.35,0 4.35,0 0,7.35 0,7.35 -4.35,0 -4.35,0 0,-7.35 z m 20.399999,0 0,-7.35 4.35,0 4.350001,0 0,7.35 0,7.35 -4.350001,0 -4.35,0 0,-7.35 z m 41.1,0 0,-7.35 4.5,0 4.5,0 0,7.35 0,7.35 -4.5,0 -4.5,0 0,-7.35 z m 7.75,28.10702 c -0.055,-0.13364 -1.917689,-2.69982 -4.139309,-5.70262 l -4.03931,-5.45963 -15.76069,0.0776 -15.76069,0.0776 -3.83508,5.1 c -2.1093,2.805 -3.9703,5.33625 -4.13556,5.625 -0.28509,0.49814 0.92962,0.525 23.73509,0.525 13.21955,0 23.99055,-0.10934 23.93555,-0.24298 z m 233.517104,-15.15587 0.0829,-15.39886 0.90792,-1.46821 c 0.56259,-0.90973 1.46655,-1.81357 2.37648,-2.37614 1.32042,-0.81635 1.7154,-0.90794 3.9156,-0.90794 2.2002,0 2.59518,0.0916 3.9156,0.90794 0.90993,0.56257 1.81389,1.46641 2.37648,2.37614 l 0.90792,1.46821 0.0829,15.39886 0.0829,15.39885 6.74211,0 6.74211,0 0,-14.74019 c 0,-10.43005 0.10317,-15.08452 0.3528,-15.91775 0.46152,-1.54036 2.45925,-3.78519 3.98559,-4.47851 4.1172,-1.87021 9.39357,0.75334 10.33398,5.13832 0.21078,0.98278 0.32763,6.60511 0.32763,15.7629 l 0,14.23523 6.58956,0 6.58953,0 0.0855,-15.225 c 0.0845,-15.06403 0.0925,-15.23814 0.75009,-16.46776 0.83088,-1.55358 2.85906,-3.31598 4.26573,-3.70676 3.66123,-1.01707 7.39059,0.5012 9.10497,3.70676 0.65751,1.22944 0.66558,1.40605 0.75252,16.46776 l 0.0879,15.225 8.8371,0 8.83713,0 0,-24.15 0,-24.14999 -53.4,0 -53.4,0 0,24.14999 0,24.15 8.84211,0 8.84211,0 0.0829,-15.39885 z m 307.0994,8.89038 4.68348,-6.35847 6.225,-0.0165 6.225,-0.0165 0,-11.4 0,-11.4 4.35,0 4.35,0 0,11.39379 0,11.39379 6.05226,0.0812 6.05226,0.0812 4.67274,6.35972 4.67274,6.35973 17.02677,0.0153 17.0268,0.0153 -0.0768,-24.075 -0.0768,-24.075 -47.23215,0 -47.23212,0 -0.49338,1.66194 c -0.63489,2.13864 -2.46225,5.6123 -3.72753,7.08564 -0.54432,0.63383 -1.88295,1.62492 -2.97471,2.20242 -1.09179,0.5775 -1.98618,1.15125 -1.98759,1.275 0,0.12375 1.61748,0.225 3.59748,0.225 l 3.6,0 0,7.35 0,7.35 -4.5,0 -4.5,0 0,-7.05994 0,-7.05993 -4.425,2.31056 c -2.43375,1.27082 -5.60562,3.06404 -7.04856,3.98494 l -2.62359,1.67437 0,13.57749 0,13.5775 16.84152,-0.0775 16.84152,-0.0775 4.68348,-6.35848 z m -3.56652,-21.84153 0,-7.35 4.35,0 4.35,0 0,7.35 0,7.35 -4.35,0 -4.35,0 0,-7.35 z m 41.1,0 0,-7.35 4.35,0 4.35,0 0,7.35 0,7.35 -4.35,0 -4.35,0 0,-7.35 z m 21,0 0,-7.35 4.35,0 4.35,0 0,7.35 0,7.35 -4.35,0 -4.35,0 0,-7.35 z m -13.48242,27.825 c -0.16695,-0.28875 -2.02794,-2.82 -4.13556,-5.625 l -3.83202,-5.1 -15.76521,-0.0776 -15.76524,-0.0776 -4.03476,5.45569 c -2.21913,3.00063 -4.07979,5.56681 -4.13478,5.70262 -0.055,0.13581 10.716,0.24693 23.93556,0.24693 22.80663,0 24.02001,-0.0268 23.73201,-0.525 z m -371.49046,-27.45 -0.0771,-20.17499 -17.76869,-0.0774 -17.76868,-0.0774 -0.14305,0.67738 c -0.2088,0.98878 -2.52076,10.45895 -2.74705,11.25237 -0.14289,0.50103 -0.0675,0.675 0.29248,0.675 0.43346,0 0.48499,0.781 0.48499,7.35 l 0,7.35 -3.41872,0 -3.41873,0 -0.90326,1.425 c -1.26239,1.99156 -6.35929,11.23303 -6.35929,11.53037 0,0.13455 11.67845,0.24463 25.95211,0.24463 l 25.95212,0 -0.0771,-20.175 z m -26.92711,-0.375 0,-7.35 4.35,0 4.35,0 0,7.35 0,7.35 -4.35,0 -4.35,0 0,-7.35 z m 217.53894,20.02278 c -0.15519,-0.28998 -1.34118,-1.61443 -2.63556,-2.94323 -2.87997,-2.9566 -8.24976,-6.99663 -13.45338,-10.1218 -3.7284,-2.23919 -15.27153,-8.1731 -17.22099,-8.85268 l -0.92901,-0.32385 0,4.78439 0,4.78439 -4.35,0 -4.35,0 0,-6.45742 c 0,-6.4396 -0.003,-6.45814 -0.68178,-6.71664 -1.06914,-0.40649 -2.62464,-2.13402 -3.3999,-3.77594 -0.83703,-1.77272 -1.5474,-4.82492 -1.85025,-7.94999 l -0.21807,-2.25 -15.75,0 -15.75,0 -0.0771,20.17499 -0.0771,20.175 40.51266,0 c 38.55573,0 40.49904,-0.0255 40.23051,-0.52722 z m -62.43894,-20.02278 0,-7.35 4.35,0 4.35,0 0,7.35 0,7.35 -4.35,0 -4.35,0 0,-7.35 z m 158.39999,11.5323 c 0,-7.13385 -0.0783,-8.97083 -0.375,-8.7933 -0.20625,0.12342 -2.3325,1.7334 -4.725,3.57773 -2.3925,1.84432 -5.44017,4.08006 -6.77256,4.9683 -3.88578,2.59039 -12.40809,8.79433 -12.4182,9.03997 -0.005,0.12375 5.45826,0.225 12.14076,0.225 l 12.15,0 0,-9.0177 z M 95.999996,129.79356 c 0,-0.33177 -0.19562,-1.85052 -0.43472,-3.375 -0.75981,-4.84455 -1.09596,-11.74038 -1.04783,-21.49538 l 0.0468,-9.476381 -46.4571,0 -46.457098,0 -0.07788,17.100001 c -0.04284,9.405 -0.01332,17.26875 0.06559,17.475 0.113934,0.29779 9.84187,0.375 47.252887,0.375 46.99348,0 47.10941,-0.001 47.10941,-0.60324 z m -80.099999,-16.94676 0,-7.35 4.35,0 4.35,0 0,7.35 0,7.35 -4.35,0 -4.35,0 0,-7.35 z m 20.399999,0 0,-7.35 4.35,0 4.350001,0 0,7.35 0,7.35 -4.350001,0 -4.35,0 0,-7.35 z m 20.7,0 0,-7.35 4.35,0 4.35,0 0,7.35 0,7.35 -4.35,0 -4.35,0 0,-7.35 z m 20.4,0 0,-7.35 4.5,0 4.5,0 0,7.35 0,7.35 -4.5,0 -4.5,0 0,-7.35 z m 221.849994,0 0,-17.400001 -16.35,-0.0775 -16.35,-0.0775 -0.0149,7.577541 c -0.0156,7.94374 -0.39675,12.62172 -1.80281,22.12754 -0.4027,2.7225 -0.73221,5.05233 -0.73224,5.17739 -2e-5,0.12507 7.9312,0.19257 17.62495,0.15 l 17.62501,-0.0774 0,-17.4 z m -26.85,0 0,-7.35 4.35,0 4.35,0 0,7.35 0,7.35 -4.35,0 -4.35,0 0,-7.35 z m 135.3,0 0,-17.550001 -53.4,0 -53.4,0 0,17.550001 0,17.55 53.4,0 53.4,0 0,-17.55 z m -86.1,0 0,-7.35 4.35,0 4.35,0 0,7.35 0,7.35 -4.35,0 -4.35,0 0,-7.35 z m 28.2,0 0,-7.35 4.5,0 4.5,0 0,7.35 0,7.35 -4.5,0 -4.5,0 0,-7.35 z m 28.2,0 0,-7.35 4.5,0 4.5,0 0,7.35 0,7.35 -4.5,0 -4.5,0 0,-7.35 z m 62.73054,12.9 c -0.0386,-3.0159 0.2931,-8.72611 1.0059,-17.31406 0.58494,-7.04773 1.06356,-12.887611 1.06356,-12.977521 0,-0.0899 -7.52625,-0.12857 -16.725,-0.0859 l -16.725,0.0775 -0.0779,17.100011 c -0.0428,9.405 -0.0129,17.26995 0.0666,17.47767 0.11412,0.29829 3.435,0.36135 15.79701,0.3 l 15.6525,-0.0777 -0.0577,-4.5 z m -13.53054,-12.9 0,-7.35 4.5,0 4.5,0 0,7.35 0,7.35 -4.5,0 -4.5,0 0,-7.35 z m 279.74999,0 0,-17.400001 -44.31123,-0.076 -44.3112,-0.076 -0.16119,0.97599 c -0.0886,0.53679 -0.82545,6.917001 -1.63734,14.178231 -1.34733,12.04998 -1.56699,13.4823 -2.51664,16.41096 -0.57228,1.76479 -0.96624,3.28295 -0.87552,3.37369 0.0908,0.0907 21.23583,0.1308 46.98906,0.089 l 46.82406,-0.0759 0,-17.4 z m -84.75,0 0,-7.35 4.35,0 4.35,0 0,7.35 0,7.35 -4.35,0 -4.35,0 0,-7.35 z m 20.7,0 0,-7.35 4.35,0 4.35,0 0,7.35 0,7.35 -4.35,0 -4.35,0 0,-7.35 z m 20.4,0 0,-7.35 4.35,0 4.35,0 0,7.35 0,7.35 -4.35,0 -4.35,0 0,-7.35 z m 21,0 0,-7.35 4.35,0 4.35,0 0,7.35 0,7.35 -4.35,0 -4.35,0 0,-7.35 z M 94.908366,92.221799 c 0.0859,-1.03125 0.300911,-4.14201 0.47788,-6.91281 0.4028,-6.30664 1.28123,-13.23721 2.35587,-18.58719 l 0.82858,-4.125 -48.53535,0 -48.535346,0 0,15.55 c 0,8.5525 0.09,15.64 0.2,15.75 0.11,0.11 21.091756,0.2 46.626116,0.2 l 46.42612,0 0.15613,-1.875 z m -79.008369,-14.475 0,-7.35 4.35,0 4.35,0 0,7.35 0,7.35 -4.35,0 -4.35,0 0,-7.35 z m 20.399999,0 0,-7.35 4.35,0 4.350001,0 0,7.35 0,7.35 -4.350001,0 -4.35,0 0,-7.35 z m 20.7,0 0,-7.35 4.35,0 4.35,0 0,7.35 0,7.35 -4.35,0 -4.35,0 0,-7.35 z m 20.4,0 0,-7.35 4.5,0 4.5,0 0,7.35 0,7.35 -4.5,0 -4.5,0 0,-7.35 z m 221.927534,-0.375 0.0775,-16.575 -20.55254,0 c -11.30389,0 -20.55254,0.0555 -20.55254,0.12342 0,0.0679 0.48222,1.24913 1.0716,2.625 2.08127,4.85863 4.327,11.64931 4.77091,14.42638 0.24398,1.52636 0.78846,5.6102 1.20994,9.0752 0.42149,3.465 0.82582,6.4699 0.89852,6.67756 0.10449,0.2985 3.57349,0.36133 16.5656,0.3 l 16.43343,-0.0776 0.0775,-16.575 z m -26.92754,0.375 0,-7.35 4.35,0 4.35,0 0,7.35 0,7.35 -4.35,0 -4.35,0 0,-7.35 z m 135.3,-0.3 c 0,-9.1575 -0.0699,-16.65 -0.1554,-16.65 -0.0855,0 -12.11007,-3.38372 -26.7213,-7.51938 l -26.5659,-7.51938 -26.51052,7.51938 c -14.58081,4.13566 -26.58621,7.51938 -26.6787,7.51938 -0.0925,0 -0.16818,7.4925 -0.16818,16.65 l 0,16.65 53.4,0 53.4,0 0,-16.65 z m -86.1,0.3 0,-7.35 4.35,0 4.35,0 0,7.35 0,7.35 -4.35,0 -4.35,0 0,-7.35 z m 28.2,0 0,-7.35 4.5,0 4.5,0 0,7.35 0,7.35 -4.5,0 -4.5,0 0,-7.35 z m 28.2,0 0,-7.35 4.5,0 4.5,0 0,7.35 0,7.35 -4.5,0 -4.5,0 0,-7.35 z m 65.38944,15.76972 c 0.17082,-0.31915 0.31056,-0.89695 0.31056,-1.284 0,-0.95286 6.56127,-30.20282 6.92925,-30.89039 0.2808,-0.52467 -0.49824,-0.54533 -20.56869,-0.54533 l -20.86056,0 0,16.45 c 0,9.0475 0.09,16.54 0.20001,16.65 0.10998,0.11 7.73274,0.2 16.93944,0.2 16.24275,0 16.74864,-0.0172 17.04999,-0.58028 z m -16.18944,-15.76972 0,-7.35 4.5,0 4.5,0 0,7.35 0,7.35 -4.5,0 -4.5,0 0,-7.35 z m 279.82766,0.525 0.0777,-15.675 -48.76323,0 -48.76323,0 0.35784,0.675 c 0.19683,0.37125 0.67461,1.17944 1.06179,1.79598 0.38718,0.61653 1.97565,3.65632 3.52995,6.75509 2.34861,4.68239 2.90466,6.06401 3.29178,8.17902 0.76182,4.16253 1.08654,8.63978 0.81558,11.24491 -0.13731,1.32 -0.19329,2.5017 -0.12441,2.62599 0.0689,0.1243 19.99572,0.1918 44.28192,0.15 l 44.15667,-0.076 0.0777,-15.675 z m -84.82767,-0.525 0,-7.35 4.35,0 4.35,0 0,7.35 0,7.35 -4.35,0 -4.35,0 0,-7.35 z m 20.7,0 0,-7.35 4.35,0 4.35,0 0,7.35 0,7.35 -4.35,0 -4.35,0 0,-7.35 z m 20.4,0 0,-7.35 4.35,0 4.35,0 0,7.35 0,7.35 -4.35,0 -4.35,0 0,-7.35 z m 21,0 0,-7.35 4.35,0 4.35,0 0,7.35 0,7.35 -4.35,0 -4.35,0 0,-7.35 z"
     id="path4138"
     inkscape:connector-curvature="0" />
</svg>
