  0
SECTION
  2
HEADER
  9
$ACADVER
  1
AC1009
  9
$FILLMODE
 70
 0
  9
$SPLFRAME
 70
 1
  9
$EXTMIN
 10
0
 20
0
 30
0.0
  9
$EXTMAX
 10
41.6667
 20
41.6667
 30
0.0
  0
ENDSEC
  0
SECTION
  2
TABLES
  0
TABLE
  2
LAYER
 70
1
  0
LAYER
  2
0
 70
     0
 62
     7
  6
CONTINUOUS
  0
ENDTAB
  0
ENDSEC
  0
SECTION
  2
ENTITIES
  0
POLYLINE
  8
0
 62
     1
 66
     1
 10
0
 20
0
 30
0.0
 70
     1
 40
0
 41
0
  0
VERTEX
  8
0
 10
3.63672
 20
1.97217
 30
0.0
 40
0
 41
0
  0
VERTEX
  8
0
 10
3.63569
 20
1.97032
 30
0.0
 40
0
 41
0
  0
VERTEX
  8
0
 10
3.62771
 20
1.96392
 30
0.0
 40
0
 41
0
  0
VERTEX
  8
0
 10
3.61768
 20
1.96235
 30
0.0
 40
0
 41
0
  0
VERTEX
  8
0
 10
3.61567
 20
1.96283
 30
0.0
 40
0
 41
0
  0
VERTEX
  8
0
 10
3.61501
 20
1.96306
 30
0.0
 40
0
 41
0
  0
VERTEX
  8
0
 10
3.60449
 20
1.96875
 30
0.0
 40
0
 41
0
  0
VERTEX
  8
0
 10
3.57568
 20
1.98486
 30
0.0
 40
0
 41
0
  0
VERTEX
  8
0
 10
3.53071
 20
2.01031
 30
0.0
 40
0
 41
0
  0
VERTEX
  8
0
 10
3.48589
 20
2.03581
 30
0.0
 40
0
 41
0
  0
VERTEX
  8
0
 10
3.47103
 20
2.04432
 30
0.0
 40
0
 41
0
  0
VERTEX
  8
0
 10
3.33035
 20
2.12472
 30
0.0
 40
0
 41
0
  0
VERTEX
  8
0
 10
3.22282
 20
2.12472
 30
0.0
 40
0
 41
0
  0
VERTEX
  8
0
 10
3.22282
 20
2.11529
 30
0.0
 40
0
 41
0
  0
VERTEX
  8
0
 10
3.22282
 20
2.11111
 30
0.0
 40
0
 41
0
  0
VERTEX
  8
0
 10
3.22049
 20
2.09842
 30
0.0
 40
0
 41
0
  0
VERTEX
  8
0
 10
3.21414
 20
2.09093
 30
0.0
 40
0
 41
0
  0
VERTEX
  8
0
 10
3.21212
 20
2.0899
 30
0.0
 40
0
 41
0
  0
VERTEX
  8
0
 10
3.20969
 20
2.08871
 30
0.0
 40
0
 41
0
  0
VERTEX
  8
0
 10
3.1976
 20
2.08876
 30
0.0
 40
0
 41
0
  0
VERTEX
  8
0
 10
3.18778
 20
2.09603
 30
0.0
 40
0
 41
0
  0
VERTEX
  8
0
 10
3.18658
 20
2.09842
 30
0.0
 40
0
 41
0
  0
VERTEX
  8
0
 10
3.18619
 20
2.09918
 30
0.0
 40
0
 41
0
  0
VERTEX
  8
0
 10
3.18571
 20
2.10161
 30
0.0
 40
0
 41
0
  0
VERTEX
  8
0
 10
3.18522
 20
2.11079
 30
0.0
 40
0
 41
0
  0
VERTEX
  8
0
 10
3.18506
 20
2.13206
 30
0.0
 40
0
 41
0
  0
VERTEX
  8
0
 10
3.18506
 20
2.16151
 30
0.0
 40
0
 41
0
  0
VERTEX
  8
0
 10
3.18506
 20
2.17128
 30
0.0
 40
0
 41
0
  0
VERTEX
  8
0
 10
3.18506
 20
2.18115
 30
0.0
 40
0
 41
0
  0
VERTEX
  8
0
 10
3.18506
 20
2.21061
 30
0.0
 40
0
 41
0
  0
VERTEX
  8
0
 10
3.18522
 20
2.23182
 30
0.0
 40
0
 41
0
  0
VERTEX
  8
0
 10
3.18571
 20
2.24104
 30
0.0
 40
0
 41
0
  0
VERTEX
  8
0
 10
3.18619
 20
2.24349
 30
0.0
 40
0
 41
0
  0
VERTEX
  8
0
 10
3.18658
 20
2.24419
 30
0.0
 40
0
 41
0
  0
VERTEX
  8
0
 10
3.18778
 20
2.24664
 30
0.0
 40
0
 41
0
  0
VERTEX
  8
0
 10
3.1976
 20
2.25385
 30
0.0
 40
0
 41
0
  0
VERTEX
  8
0
 10
3.20969
 20
2.2539
 30
0.0
 40
0
 41
0
  0
VERTEX
  8
0
 10
3.21212
 20
2.25271
 30
0.0
 40
0
 41
0
  0
VERTEX
  8
0
 10
3.21414
 20
2.25174
 30
0.0
 40
0
 41
0
  0
VERTEX
  8
0
 10
3.22049
 20
2.24425
 30
0.0
 40
0
 41
0
  0
VERTEX
  8
0
 10
3.22282
 20
2.23156
 30
0.0
 40
0
 41
0
  0
VERTEX
  8
0
 10
3.22282
 20
2.22732
 30
0.0
 40
0
 41
0
  0
VERTEX
  8
0
 10
3.22282
 20
2.21783
 30
0.0
 40
0
 41
0
  0
VERTEX
  8
0
 10
3.33035
 20
2.21783
 30
0.0
 40
0
 41
0
  0
VERTEX
  8
0
 10
3.47103
 20
2.29829
 30
0.0
 40
0
 41
0
  0
VERTEX
  8
0
 10
3.48589
 20
2.30681
 30
0.0
 40
0
 41
0
  0
VERTEX
  8
0
 10
3.53071
 20
2.33236
 30
0.0
 40
0
 41
0
  0
VERTEX
  8
0
 10
3.57568
 20
2.35781
 30
0.0
 40
0
 41
0
  0
VERTEX
  8
0
 10
3.60449
 20
2.37386
 30
0.0
 40
0
 41
0
  0
VERTEX
  8
0
 10
3.61501
 20
2.37956
 30
0.0
 40
0
 41
0
  0
VERTEX
  8
0
 10
3.61567
 20
2.37972
 30
0.0
 40
0
 41
0
  0
VERTEX
  8
0
 10
3.61768
 20
2.38026
 30
0.0
 40
0
 41
0
  0
VERTEX
  8
0
 10
3.62771
 20
2.37875
 30
0.0
 40
0
 41
0
  0
VERTEX
  8
0
 10
3.63569
 20
2.37235
 30
0.0
 40
0
 41
0
  0
VERTEX
  8
0
 10
3.63672
 20
2.37044
 30
0.0
 40
0
 41
0
  0
VERTEX
  8
0
 10
3.63857
 20
2.36692
 30
0.0
 40
0
 41
0
  0
VERTEX
  8
0
 10
3.63857
 20
1.97569
 30
0.0
 40
0
 41
0
  0
VERTEX
  8
0
 10
3.63672
 20
1.97217
 30
0.0
 40
0
 41
0
  0
SEQEND
 8
0
  0
POLYLINE
  8
0
 62
     1
 66
     1
 10
0
 20
0
 30
0.0
 70
     1
 40
0
 41
0
  0
VERTEX
  8
0
 10
3.62489
 20
2.3629
 30
0.0
 40
0
 41
0
  0
VERTEX
  8
0
 10
3.62462
 20
2.36361
 30
0.0
 40
0
 41
0
  0
VERTEX
  8
0
 10
3.61925
 20
2.36681
 30
0.0
 40
0
 41
0
  0
VERTEX
  8
0
 10
3.61876
 20
2.3666
 30
0.0
 40
0
 41
0
  0
VERTEX
  8
0
 10
3.61854
 20
2.36654
 30
0.0
 40
0
 41
0
  0
VERTEX
  8
0
 10
3.60704
 20
2.36003
 30
0.0
 40
0
 41
0
  0
VERTEX
  8
0
 10
3.57617
 20
2.34244
 30
0.0
 40
0
 41
0
  0
VERTEX
  8
0
 10
3.53082
 20
2.31662
 30
0.0
 40
0
 41
0
  0
VERTEX
  8
0
 10
3.48947
 20
2.29297
 30
0.0
 40
0
 41
0
  0
VERTEX
  8
0
 10
3.47575
 20
2.2851
 30
0.0
 40
0
 41
0
  0
VERTEX
  8
0
 10
3.33415
 20
2.20421
 30
0.0
 40
0
 41
0
  0
VERTEX
  8
0
 10
3.20915
 20
2.20421
 30
0.0
 40
0
 41
0
  0
VERTEX
  8
0
 10
3.20915
 20
2.22054
 30
0.0
 40
0
 41
0
  0
VERTEX
  8
0
 10
3.20915
 20
2.22412
 30
0.0
 40
0
 41
0
  0
VERTEX
  8
0
 10
3.20888
 20
2.23481
 30
0.0
 40
0
 41
0
  0
VERTEX
  8
0
 10
3.20785
 20
2.23856
 30
0.0
 40
0
 41
0
  0
VERTEX
  8
0
 10
3.20747
 20
2.23904
 30
0.0
 40
0
 41
0
  0
VERTEX
  8
0
 10
3.20692
 20
2.23969
 30
0.0
 40
0
 41
0
  0
VERTEX
  8
0
 10
3.20036
 20
2.24001
 30
0.0
 40
0
 41
0
  0
VERTEX
  8
0
 10
3.19988
 20
2.23942
 30
0.0
 40
0
 41
0
  0
VERTEX
  8
0
 10
3.19949
 20
2.23904
 30
0.0
 40
0
 41
0
  0
VERTEX
  8
0
 10
3.19894
 20
2.23714
 30
0.0
 40
0
 41
0
  0
VERTEX
  8
0
 10
3.19851
 20
2.22885
 30
0.0
 40
0
 41
0
  0
VERTEX
  8
0
 10
3.19829
 20
2.20882
 30
0.0
 40
0
 41
0
  0
VERTEX
  8
0
 10
3.19829
 20
2.18067
 30
0.0
 40
0
 41
0
  0
VERTEX
  8
0
 10
3.19829
 20
2.17128
 30
0.0
 40
0
 41
0
  0
VERTEX
  8
0
 10
3.19829
 20
2.16194
 30
0.0
 40
0
 41
0
  0
VERTEX
  8
0
 10
3.19829
 20
2.13385
 30
0.0
 40
0
 41
0
  0
VERTEX
  8
0
 10
3.19851
 20
2.11376
 30
0.0
 40
0
 41
0
  0
VERTEX
  8
0
 10
3.19894
 20
2.10547
 30
0.0
 40
0
 41
0
  0
VERTEX
  8
0
 10
3.19949
 20
2.10357
 30
0.0
 40
0
 41
0
  0
VERTEX
  8
0
 10
3.19988
 20
2.10314
 30
0.0
 40
0
 41
0
  0
VERTEX
  8
0
 10
3.20036
 20
2.1026
 30
0.0
 40
0
 41
0
  0
VERTEX
  8
0
 10
3.20692
 20
2.10292
 30
0.0
 40
0
 41
0
  0
VERTEX
  8
0
 10
3.20747
 20
2.10357
 30
0.0
 40
0
 41
0
  0
VERTEX
  8
0
 10
3.20785
 20
2.10411
 30
0.0
 40
0
 41
0
  0
VERTEX
  8
0
 10
3.20888
 20
2.10786
 30
0.0
 40
0
 41
0
  0
VERTEX
  8
0
 10
3.20915
 20
2.11854
 30
0.0
 40
0
 41
0
  0
VERTEX
  8
0
 10
3.20915
 20
2.12207
 30
0.0
 40
0
 41
0
  0
VERTEX
  8
0
 10
3.20915
 20
2.1384
 30
0.0
 40
0
 41
0
  0
VERTEX
  8
0
 10
3.33415
 20
2.1384
 30
0.0
 40
0
 41
0
  0
VERTEX
  8
0
 10
3.47575
 20
2.05746
 30
0.0
 40
0
 41
0
  0
VERTEX
  8
0
 10
3.48947
 20
2.04964
 30
0.0
 40
0
 41
0
  0
VERTEX
  8
0
 10
3.53082
 20
2.02604
 30
0.0
 40
0
 41
0
  0
VERTEX
  8
0
 10
3.57617
 20
2.00022
 30
0.0
 40
0
 41
0
  0
VERTEX
  8
0
 10
3.60704
 20
1.98264
 30
0.0
 40
0
 41
0
  0
VERTEX
  8
0
 10
3.61854
 20
1.97613
 30
0.0
 40
0
 41
0
  0
VERTEX
  8
0
 10
3.61876
 20
1.97601
 30
0.0
 40
0
 41
0
  0
VERTEX
  8
0
 10
3.61925
 20
1.97586
 30
0.0
 40
0
 41
0
  0
VERTEX
  8
0
 10
3.62462
 20
1.97879
 30
0.0
 40
0
 41
0
  0
VERTEX
  8
0
 10
3.62483
 20
1.97939
 30
0.0
 40
0
 41
0
  0
VERTEX
  8
0
 10
3.62511
 20
1.98014
 30
0.0
 40
0
 41
0
  0
VERTEX
  8
0
 10
3.62517
 20
1.99664
 30
0.0
 40
0
 41
0
  0
VERTEX
  8
0
 10
3.62543
 20
2.04015
 30
0.0
 40
0
 41
0
  0
VERTEX
  8
0
 10
3.6256
 20
2.10124
 30
0.0
 40
0
 41
0
  0
VERTEX
  8
0
 10
3.62565
 20
2.17111
 30
0.0
 40
0
 41
0
  0
VERTEX
  8
0
 10
3.6256
 20
2.241
 30
0.0
 40
0
 41
0
  0
VERTEX
  8
0
 10
3.62549
 20
2.30208
 30
0.0
 40
0
 41
0
  0
VERTEX
  8
0
 10
3.62522
 20
2.34565
 30
0.0
 40
0
 41
0
  0
VERTEX
  8
0
 10
3.62517
 20
2.36214
 30
0.0
 40
0
 41
0
  0
VERTEX
  8
0
 10
3.62489
 20
2.3629
 30
0.0
 40
0
 41
0
  0
SEQEND
 8
0
  0
POLYLINE
  8
0
 62
     1
 66
     1
 10
0
 20
0
 30
0.0
 70
     1
 40
0
 41
0
  0
VERTEX
  8
0
 10
3.61621
 20
2.15722
 30
0.0
 40
0
 41
0
  0
VERTEX
  8
0
 10
3.61578
 20
2.15636
 30
0.0
 40
0
 41
0
  0
VERTEX
  8
0
 10
3.60753
 20
2.14854
 30
0.0
 40
0
 41
0
  0
VERTEX
  8
0
 10
3.60682
 20
2.14833
 30
0.0
 40
0
 41
0
  0
VERTEX
  8
0
 10
3.60487
 20
2.14785
 30
0.0
 40
0
 41
0
  0
VERTEX
  8
0
 10
3.60487
 20
2.01238
 30
0.0
 40
0
 41
0
  0
VERTEX
  8
0
 10
3.59521
 20
2.01238
 30
0.0
 40
0
 41
0
  0
VERTEX
  8
0
 10
3.59521
 20
2.14785
 30
0.0
 40
0
 41
0
  0
VERTEX
  8
0
 10
3.59321
 20
2.14833
 30
0.0
 40
0
 41
0
  0
VERTEX
  8
0
 10
3.59244
 20
2.14854
 30
0.0
 40
0
 41
0
  0
VERTEX
  8
0
 10
3.58425
 20
2.15636
 30
0.0
 40
0
 41
0
  0
VERTEX
  8
0
 10
3.58388
 20
2.15722
 30
0.0
 40
0
 41
0
  0
VERTEX
  8
0
 10
3.58365
 20
2.15771
 30
0.0
 40
0
 41
0
  0
VERTEX
  8
0
 10
3.58242
 20
2.16308
 30
0.0
 40
0
 41
0
  0
VERTEX
  8
0
 10
3.58242
 20
2.16488
 30
0.0
 40
0
 41
0
  0
VERTEX
  8
0
 10
3.58242
 20
2.16683
 30
0.0
 40
0
 41
0
  0
VERTEX
  8
0
 10
3.58365
 20
2.1721
 30
0.0
 40
0
 41
0
  0
VERTEX
  8
0
 10
3.58388
 20
2.17253
 30
0.0
 40
0
 41
0
  0
VERTEX
  8
0
 10
3.58425
 20
2.17344
 30
0.0
 40
0
 41
0
  0
VERTEX
  8
0
 10
3.59244
 20
2.18126
 30
0.0
 40
0
 41
0
  0
VERTEX
  8
0
 10
3.59321
 20
2.18143
 30
0.0
 40
0
 41
0
  0
VERTEX
  8
0
 10
3.59521
 20
2.18192
 30
0.0
 40
0
 41
0
  0
VERTEX
  8
0
 10
3.59521
 20
2.31976
 30
0.0
 40
0
 41
0
  0
VERTEX
  8
0
 10
3.60487
 20
2.31976
 30
0.0
 40
0
 41
0
  0
VERTEX
  8
0
 10
3.60487
 20
2.18192
 30
0.0
 40
0
 41
0
  0
VERTEX
  8
0
 10
3.60682
 20
2.18143
 30
0.0
 40
0
 41
0
  0
VERTEX
  8
0
 10
3.60753
 20
2.18126
 30
0.0
 40
0
 41
0
  0
VERTEX
  8
0
 10
3.61578
 20
2.17344
 30
0.0
 40
0
 41
0
  0
VERTEX
  8
0
 10
3.61621
 20
2.17253
 30
0.0
 40
0
 41
0
  0
VERTEX
  8
0
 10
3.61637
 20
2.1721
 30
0.0
 40
0
 41
0
  0
VERTEX
  8
0
 10
3.61768
 20
2.16672
 30
0.0
 40
0
 41
0
  0
VERTEX
  8
0
 10
3.61768
 20
2.16488
 30
0.0
 40
0
 41
0
  0
VERTEX
  8
0
 10
3.61768
 20
2.16297
 30
0.0
 40
0
 41
0
  0
VERTEX
  8
0
 10
3.61637
 20
2.15771
 30
0.0
 40
0
 41
0
  0
VERTEX
  8
0
 10
3.61621
 20
2.15722
 30
0.0
 40
0
 41
0
  0
SEQEND
 8
0
  0
POLYLINE
  8
0
 62
     1
 66
     1
 10
0
 20
0
 30
0.0
 70
     1
 40
0
 41
0
  0
VERTEX
  8
0
 10
3.60688
 20
2.16775
 30
0.0
 40
0
 41
0
  0
VERTEX
  8
0
 10
3.60622
 20
2.16932
 30
0.0
 40
0
 41
0
  0
VERTEX
  8
0
 10
3.59999
 20
2.17242
 30
0.0
 40
0
 41
0
  0
VERTEX
  8
0
 10
3.59381
 20
2.16928
 30
0.0
 40
0
 41
0
  0
VERTEX
  8
0
 10
3.59315
 20
2.16769
 30
0.0
 40
0
 41
0
  0
VERTEX
  8
0
 10
3.59289
 20
2.1671
 30
0.0
 40
0
 41
0
  0
VERTEX
  8
0
 10
3.59289
 20
2.16271
 30
0.0
 40
0
 41
0
  0
VERTEX
  8
0
 10
3.59315
 20
2.16206
 30
0.0
 40
0
 41
0
  0
VERTEX
  8
0
 10
3.59353
 20
2.16108
 30
0.0
 40
0
 41
0
  0
VERTEX
  8
0
 10
3.60183
 20
2.15767
 30
0.0
 40
0
 41
0
  0
VERTEX
  8
0
 10
3.60286
 20
2.15804
 30
0.0
 40
0
 41
0
  0
VERTEX
  8
0
 10
3.60331
 20
2.15826
 30
0.0
 40
0
 41
0
  0
VERTEX
  8
0
 10
3.60667
 20
2.1614
 30
0.0
 40
0
 41
0
  0
VERTEX
  8
0
 10
3.60688
 20
2.16183
 30
0.0
 40
0
 41
0
  0
VERTEX
  8
0
 10
3.60721
 20
2.16265
 30
0.0
 40
0
 41
0
  0
VERTEX
  8
0
 10
3.60721
 20
2.16694
 30
0.0
 40
0
 41
0
  0
VERTEX
  8
0
 10
3.60688
 20
2.16775
 30
0.0
 40
0
 41
0
  0
SEQEND
 8
0
  0
POLYLINE
  8
0
 62
     1
 66
     1
 10
0
 20
0
 30
0.0
 70
     1
 40
0
 41
0
  0
VERTEX
  8
0
 10
3.57607
 20
2.24154
 30
0.0
 40
0
 41
0
  0
VERTEX
  8
0
 10
3.57563
 20
2.24061
 30
0.0
 40
0
 41
0
  0
VERTEX
  8
0
 10
3.56743
 20
2.23286
 30
0.0
 40
0
 41
0
  0
VERTEX
  8
0
 10
3.56674
 20
2.23264
 30
0.0
 40
0
 41
0
  0
VERTEX
  8
0
 10
3.56472
 20
2.23215
 30
0.0
 40
0
 41
0
  0
VERTEX
  8
0
 10
3.56472
 20
2.03483
 30
0.0
 40
0
 41
0
  0
VERTEX
  8
0
 10
3.55507
 20
2.03483
 30
0.0
 40
0
 41
0
  0
VERTEX
  8
0
 10
3.55507
 20
2.23215
 30
0.0
 40
0
 41
0
  0
VERTEX
  8
0
 10
3.55311
 20
2.23264
 30
0.0
 40
0
 41
0
  0
VERTEX
  8
0
 10
3.55236
 20
2.23286
 30
0.0
 40
0
 41
0
  0
VERTEX
  8
0
 10
3.54411
 20
2.24061
 30
0.0
 40
0
 41
0
  0
VERTEX
  8
0
 10
3.54372
 20
2.24154
 30
0.0
 40
0
 41
0
  0
VERTEX
  8
0
 10
3.54351
 20
2.24203
 30
0.0
 40
0
 41
0
  0
VERTEX
  8
0
 10
3.54226
 20
2.2474
 30
0.0
 40
0
 41
0
  0
VERTEX
  8
0
 10
3.54226
 20
2.24914
 30
0.0
 40
0
 41
0
  0
VERTEX
  8
0
 10
3.54226
 20
2.25108
 30
0.0
 40
0
 41
0
  0
VERTEX
  8
0
 10
3.54351
 20
2.25635
 30
0.0
 40
0
 41
0
  0
VERTEX
  8
0
 10
3.54372
 20
2.25678
 30
0.0
 40
0
 41
0
  0
VERTEX
  8
0
 10
3.54411
 20
2.25771
 30
0.0
 40
0
 41
0
  0
VERTEX
  8
0
 10
3.55236
 20
2.26551
 30
0.0
 40
0
 41
0
  0
VERTEX
  8
0
 10
3.55311
 20
2.26568
 30
0.0
 40
0
 41
0
  0
VERTEX
  8
0
 10
3.55507
 20
2.26617
 30
0.0
 40
0
 41
0
  0
VERTEX
  8
0
 10
3.55507
 20
2.29812
 30
0.0
 40
0
 41
0
  0
VERTEX
  8
0
 10
3.56472
 20
2.29812
 30
0.0
 40
0
 41
0
  0
VERTEX
  8
0
 10
3.56472
 20
2.26617
 30
0.0
 40
0
 41
0
  0
VERTEX
  8
0
 10
3.56674
 20
2.26568
 30
0.0
 40
0
 41
0
  0
VERTEX
  8
0
 10
3.56743
 20
2.26551
 30
0.0
 40
0
 41
0
  0
VERTEX
  8
0
 10
3.57563
 20
2.25771
 30
0.0
 40
0
 41
0
  0
VERTEX
  8
0
 10
3.57607
 20
2.25678
 30
0.0
 40
0
 41
0
  0
VERTEX
  8
0
 10
3.57628
 20
2.25635
 30
0.0
 40
0
 41
0
  0
VERTEX
  8
0
 10
3.57753
 20
2.25097
 30
0.0
 40
0
 41
0
  0
VERTEX
  8
0
 10
3.57753
 20
2.24914
 30
0.0
 40
0
 41
0
  0
VERTEX
  8
0
 10
3.57753
 20
2.24724
 30
0.0
 40
0
 41
0
  0
VERTEX
  8
0
 10
3.57628
 20
2.24203
 30
0.0
 40
0
 41
0
  0
VERTEX
  8
0
 10
3.57607
 20
2.24154
 30
0.0
 40
0
 41
0
  0
SEQEND
 8
0
  0
POLYLINE
  8
0
 62
     1
 66
     1
 10
0
 20
0
 30
0.0
 70
     1
 40
0
 41
0
  0
VERTEX
  8
0
 10
3.56674
 20
2.25201
 30
0.0
 40
0
 41
0
  0
VERTEX
  8
0
 10
3.56608
 20
2.25358
 30
0.0
 40
0
 41
0
  0
VERTEX
  8
0
 10
3.5599
 20
2.25667
 30
0.0
 40
0
 41
0
  0
VERTEX
  8
0
 10
3.55365
 20
2.25358
 30
0.0
 40
0
 41
0
  0
VERTEX
  8
0
 10
3.55306
 20
2.25201
 30
0.0
 40
0
 41
0
  0
VERTEX
  8
0
 10
3.55279
 20
2.25142
 30
0.0
 40
0
 41
0
  0
VERTEX
  8
0
 10
3.55279
 20
2.24696
 30
0.0
 40
0
 41
0
  0
VERTEX
  8
0
 10
3.55306
 20
2.24631
 30
0.0
 40
0
 41
0
  0
VERTEX
  8
0
 10
3.55344
 20
2.24533
 30
0.0
 40
0
 41
0
  0
VERTEX
  8
0
 10
3.56168
 20
2.24192
 30
0.0
 40
0
 41
0
  0
VERTEX
  8
0
 10
3.56272
 20
2.24229
 30
0.0
 40
0
 41
0
  0
VERTEX
  8
0
 10
3.56315
 20
2.24251
 30
0.0
 40
0
 41
0
  0
VERTEX
  8
0
 10
3.56651
 20
2.24571
 30
0.0
 40
0
 41
0
  0
VERTEX
  8
0
 10
3.56674
 20
2.2461
 30
0.0
 40
0
 41
0
  0
VERTEX
  8
0
 10
3.56706
 20
2.24696
 30
0.0
 40
0
 41
0
  0
VERTEX
  8
0
 10
3.56711
 20
2.25119
 30
0.0
 40
0
 41
0
  0
VERTEX
  8
0
 10
3.56679
 20
2.25201
 30
0.0
 40
0
 41
0
  0
VERTEX
  8
0
 10
3.56674
 20
2.25201
 30
0.0
 40
0
 41
0
  0
SEQEND
 8
0
  0
POLYLINE
  8
0
 62
     1
 66
     1
 10
0
 20
0
 30
0.0
 70
     1
 40
0
 41
0
  0
VERTEX
  8
0
 10
3.53993
 20
2.19581
 30
0.0
 40
0
 41
0
  0
VERTEX
  8
0
 10
3.5395
 20
2.19488
 30
0.0
 40
0
 41
0
  0
VERTEX
  8
0
 10
3.53131
 20
2.18713
 30
0.0
 40
0
 41
0
  0
VERTEX
  8
0
 10
3.5306
 20
2.1869
 30
0.0
 40
0
 41
0
  0
VERTEX
  8
0
 10
3.5286
 20
2.18636
 30
0.0
 40
0
 41
0
  0
VERTEX
  8
0
 10
3.5286
 20
2.05653
 30
0.0
 40
0
 41
0
  0
VERTEX
  8
0
 10
3.51899
 20
2.05653
 30
0.0
 40
0
 41
0
  0
VERTEX
  8
0
 10
3.51899
 20
2.18636
 30
0.0
 40
0
 41
0
  0
VERTEX
  8
0
 10
3.51699
 20
2.1869
 30
0.0
 40
0
 41
0
  0
VERTEX
  8
0
 10
3.51622
 20
2.18713
 30
0.0
 40
0
 41
0
  0
VERTEX
  8
0
 10
3.50803
 20
2.19488
 30
0.0
 40
0
 41
0
  0
VERTEX
  8
0
 10
3.50765
 20
2.19581
 30
0.0
 40
0
 41
0
  0
VERTEX
  8
0
 10
3.50743
 20
2.19629
 30
0.0
 40
0
 41
0
  0
VERTEX
  8
0
 10
3.50618
 20
2.20167
 30
0.0
 40
0
 41
0
  0
VERTEX
  8
0
 10
3.50618
 20
2.2034
 30
0.0
 40
0
 41
0
  0
VERTEX
  8
0
 10
3.50618
 20
2.20535
 30
0.0
 40
0
 41
0
  0
VERTEX
  8
0
 10
3.50743
 20
2.21061
 30
0.0
 40
0
 41
0
  0
VERTEX
  8
0
 10
3.50765
 20
2.21104
 30
0.0
 40
0
 41
0
  0
VERTEX
  8
0
 10
3.50803
 20
2.21197
 30
0.0
 40
0
 41
0
  0
VERTEX
  8
0
 10
3.51622
 20
2.21978
 30
0.0
 40
0
 41
0
  0
VERTEX
  8
0
 10
3.51699
 20
2.21994
 30
0.0
 40
0
 41
0
  0
VERTEX
  8
0
 10
3.51899
 20
2.22043
 30
0.0
 40
0
 41
0
  0
VERTEX
  8
0
 10
3.51899
 20
2.27968
 30
0.0
 40
0
 41
0
  0
VERTEX
  8
0
 10
3.5286
 20
2.27968
 30
0.0
 40
0
 41
0
  0
VERTEX
  8
0
 10
3.5286
 20
2.22043
 30
0.0
 40
0
 41
0
  0
VERTEX
  8
0
 10
3.5306
 20
2.21994
 30
0.0
 40
0
 41
0
  0
VERTEX
  8
0
 10
3.53131
 20
2.21978
 30
0.0
 40
0
 41
0
  0
VERTEX
  8
0
 10
3.5395
 20
2.21197
 30
0.0
 40
0
 41
0
  0
VERTEX
  8
0
 10
3.53993
 20
2.21104
 30
0.0
 40
0
 41
0
  0
VERTEX
  8
0
 10
3.54015
 20
2.21061
 30
0.0
 40
0
 41
0
  0
VERTEX
  8
0
 10
3.54139
 20
2.20524
 30
0.0
 40
0
 41
0
  0
VERTEX
  8
0
 10
3.54139
 20
2.2034
 30
0.0
 40
0
 41
0
  0
VERTEX
  8
0
 10
3.54139
 20
2.2015
 30
0.0
 40
0
 41
0
  0
VERTEX
  8
0
 10
3.54015
 20
2.19629
 30
0.0
 40
0
 41
0
  0
VERTEX
  8
0
 10
3.53993
 20
2.19581
 30
0.0
 40
0
 41
0
  0
SEQEND
 8
0
  0
POLYLINE
  8
0
 62
     1
 66
     1
 10
0
 20
0
 30
0.0
 70
     1
 40
0
 41
0
  0
VERTEX
  8
0
 10
3.53065
 20
2.20628
 30
0.0
 40
0
 41
0
  0
VERTEX
  8
0
 10
3.53
 20
2.20785
 30
0.0
 40
0
 41
0
  0
VERTEX
  8
0
 10
3.52376
 20
2.21094
 30
0.0
 40
0
 41
0
  0
VERTEX
  8
0
 10
3.51758
 20
2.20785
 30
0.0
 40
0
 41
0
  0
VERTEX
  8
0
 10
3.51693
 20
2.20628
 30
0.0
 40
0
 41
0
  0
VERTEX
  8
0
 10
3.51665
 20
2.20568
 30
0.0
 40
0
 41
0
  0
VERTEX
  8
0
 10
3.51665
 20
2.20122
 30
0.0
 40
0
 41
0
  0
VERTEX
  8
0
 10
3.51693
 20
2.20057
 30
0.0
 40
0
 41
0
  0
VERTEX
  8
0
 10
3.51731
 20
2.1996
 30
0.0
 40
0
 41
0
  0
VERTEX
  8
0
 10
3.52561
 20
2.19618
 30
0.0
 40
0
 41
0
  0
VERTEX
  8
0
 10
3.52664
 20
2.19656
 30
0.0
 40
0
 41
0
  0
VERTEX
  8
0
 10
3.52707
 20
2.19678
 30
0.0
 40
0
 41
0
  0
VERTEX
  8
0
 10
3.53039
 20
2.19997
 30
0.0
 40
0
 41
0
  0
VERTEX
  8
0
 10
3.5306
 20
2.20036
 30
0.0
 40
0
 41
0
  0
VERTEX
  8
0
 10
3.53093
 20
2.20117
 30
0.0
 40
0
 41
0
  0
VERTEX
  8
0
 10
3.53097
 20
2.20546
 30
0.0
 40
0
 41
0
  0
VERTEX
  8
0
 10
3.53065
 20
2.20628
 30
0.0
 40
0
 41
0
  0
SEQEND
 8
0
  0
POLYLINE
  8
0
 62
     1
 66
     1
 10
0
 20
0
 30
0.0
 70
     1
 40
0
 41
0
  0
VERTEX
  8
0
 10
3.46039
 20
2.22265
 30
0.0
 40
0
 41
0
  0
VERTEX
  8
0
 10
3.44353
 20
2.22265
 30
0.0
 40
0
 41
0
  0
VERTEX
  8
0
 10
3.44353
 20
2.21463
 30
0.0
 40
0
 41
0
  0
VERTEX
  8
0
 10
3.43386
 20
2.21463
 30
0.0
 40
0
 41
0
  0
VERTEX
  8
0
 10
3.43386
 20
2.23232
 30
0.0
 40
0
 41
0
  0
VERTEX
  8
0
 10
3.47721
 20
2.23232
 30
0.0
 40
0
 41
0
  0
VERTEX
  8
0
 10
3.47721
 20
2.22265
 30
0.0
 40
0
 41
0
  0
VERTEX
  8
0
 10
3.46039
 20
2.22265
 30
0.0
 40
0
 41
0
  0
SEQEND
 8
0
  0
POLYLINE
  8
0
 62
     1
 66
     1
 10
0
 20
0
 30
0.0
 70
     1
 40
0
 41
0
  0
VERTEX
  8
0
 10
3.3986
 20
2.13758
 30
0.0
 40
0
 41
0
  0
VERTEX
  8
0
 10
3.3769
 20
2.13758
 30
0.0
 40
0
 41
0
  0
VERTEX
  8
0
 10
3.3769
 20
2.16004
 30
0.0
 40
0
 41
0
  0
VERTEX
  8
0
 10
3.42025
 20
2.16004
 30
0.0
 40
0
 41
0
  0
VERTEX
  8
0
 10
3.42025
 20
2.13758
 30
0.0
 40
0
 41
0
  0
VERTEX
  8
0
 10
3.3986
 20
2.13758
 30
0.0
 40
0
 41
0
  0
SEQEND
 8
0
  0
POLYLINE
  8
0
 62
     1
 66
     1
 10
0
 20
0
 30
0.0
 70
     1
 40
0
 41
0
  0
VERTEX
  8
0
 10
3.3986
 20
2.15044
 30
0.0
 40
0
 41
0
  0
VERTEX
  8
0
 10
3.396
 20
2.15044
 30
0.0
 40
0
 41
0
  0
VERTEX
  8
0
 10
3.38824
 20
2.15022
 30
0.0
 40
0
 41
0
  0
VERTEX
  8
0
 10
3.38656
 20
2.14919
 30
0.0
 40
0
 41
0
  0
VERTEX
  8
0
 10
3.38656
 20
2.14882
 30
0.0
 40
0
 41
0
  0
VERTEX
  8
0
 10
3.38656
 20
2.14849
 30
0.0
 40
0
 41
0
  0
VERTEX
  8
0
 10
3.38824
 20
2.14746
 30
0.0
 40
0
 41
0
  0
VERTEX
  8
0
 10
3.396
 20
2.14725
 30
0.0
 40
0
 41
0
  0
VERTEX
  8
0
 10
3.3986
 20
2.14725
 30
0.0
 40
0
 41
0
  0
VERTEX
  8
0
 10
3.40115
 20
2.14725
 30
0.0
 40
0
 41
0
  0
VERTEX
  8
0
 10
3.4089
 20
2.14746
 30
0.0
 40
0
 41
0
  0
VERTEX
  8
0
 10
3.4106
 20
2.14849
 30
0.0
 40
0
 41
0
  0
VERTEX
  8
0
 10
3.4106
 20
2.14882
 30
0.0
 40
0
 41
0
  0
VERTEX
  8
0
 10
3.4106
 20
2.14919
 30
0.0
 40
0
 41
0
  0
VERTEX
  8
0
 10
3.4089
 20
2.15022
 30
0.0
 40
0
 41
0
  0
VERTEX
  8
0
 10
3.40115
 20
2.15044
 30
0.0
 40
0
 41
0
  0
VERTEX
  8
0
 10
3.3986
 20
2.15044
 30
0.0
 40
0
 41
0
  0
SEQEND
 8
0
  0
POLYLINE
  8
0
 62
     1
 66
     1
 10
0
 20
0
 30
0.0
 70
     1
 40
0
 41
0
  0
VERTEX
  8
0
 10
3.32954
 20
2.18576
 30
0.0
 40
0
 41
0
  0
VERTEX
  8
0
 10
3.31272
 20
2.18576
 30
0.0
 40
0
 41
0
  0
VERTEX
  8
0
 10
3.31272
 20
2.17774
 30
0.0
 40
0
 41
0
  0
VERTEX
  8
0
 10
3.30306
 20
2.17774
 30
0.0
 40
0
 41
0
  0
VERTEX
  8
0
 10
3.30306
 20
2.19536
 30
0.0
 40
0
 41
0
  0
VERTEX
  8
0
 10
3.3464
 20
2.19536
 30
0.0
 40
0
 41
0
  0
VERTEX
  8
0
 10
3.3464
 20
2.18576
 30
0.0
 40
0
 41
0
  0
VERTEX
  8
0
 10
3.32954
 20
2.18576
 30
0.0
 40
0
 41
0
  0
SEQEND
 8
0
  0
POLYLINE
  8
0
 62
     1
 66
     1
 10
0
 20
0
 30
0.0
 70
     1
 40
0
 41
0
  0
VERTEX
  8
0
 10
3.14899
 20
2.1729
 30
0.0
 40
0
 41
0
  0
VERTEX
  8
0
 10
3.12728
 20
2.1729
 30
0.0
 40
0
 41
0
  0
VERTEX
  8
0
 10
3.12728
 20
2.19536
 30
0.0
 40
0
 41
0
  0
VERTEX
  8
0
 10
3.17063
 20
2.19536
 30
0.0
 40
0
 41
0
  0
VERTEX
  8
0
 10
3.17063
 20
2.1729
 30
0.0
 40
0
 41
0
  0
VERTEX
  8
0
 10
3.14899
 20
2.1729
 30
0.0
 40
0
 41
0
  0
SEQEND
 8
0
  0
POLYLINE
  8
0
 62
     1
 66
     1
 10
0
 20
0
 30
0.0
 70
     1
 40
0
 41
0
  0
VERTEX
  8
0
 10
3.14899
 20
2.18576
 30
0.0
 40
0
 41
0
  0
VERTEX
  8
0
 10
3.14638
 20
2.18576
 30
0.0
 40
0
 41
0
  0
VERTEX
  8
0
 10
3.13861
 20
2.18554
 30
0.0
 40
0
 41
0
  0
VERTEX
  8
0
 10
3.13693
 20
2.18451
 30
0.0
 40
0
 41
0
  0
VERTEX
  8
0
 10
3.13693
 20
2.18414
 30
0.0
 40
0
 41
0
  0
VERTEX
  8
0
 10
3.13693
 20
2.18381
 30
0.0
 40
0
 41
0
  0
VERTEX
  8
0
 10
3.13861
 20
2.18278
 30
0.0
 40
0
 41
0
  0
VERTEX
  8
0
 10
3.14638
 20
2.18257
 30
0.0
 40
0
 41
0
  0
VERTEX
  8
0
 10
3.14899
 20
2.18257
 30
0.0
 40
0
 41
0
  0
VERTEX
  8
0
 10
3.15153
 20
2.18257
 30
0.0
 40
0
 41
0
  0
VERTEX
  8
0
 10
3.15929
 20
2.18278
 30
0.0
 40
0
 41
0
  0
VERTEX
  8
0
 10
3.16097
 20
2.18381
 30
0.0
 40
0
 41
0
  0
VERTEX
  8
0
 10
3.16097
 20
2.18414
 30
0.0
 40
0
 41
0
  0
VERTEX
  8
0
 10
3.16097
 20
2.18451
 30
0.0
 40
0
 41
0
  0
VERTEX
  8
0
 10
3.15929
 20
2.18554
 30
0.0
 40
0
 41
0
  0
VERTEX
  8
0
 10
3.15153
 20
2.18576
 30
0.0
 40
0
 41
0
  0
VERTEX
  8
0
 10
3.14899
 20
2.18576
 30
0.0
 40
0
 41
0
  0
SEQEND
 8
0
  0
POLYLINE
  8
0
 62
     1
 66
     1
 10
0
 20
0
 30
0.0
 70
     1
 40
0
 41
0
  0
VERTEX
  8
0
 10
3.08957
 20
2.08942
 30
0.0
 40
0
 41
0
  0
VERTEX
  8
0
 10
3.07269
 20
2.08942
 30
0.0
 40
0
 41
0
  0
VERTEX
  8
0
 10
3.07269
 20
2.08137
 30
0.0
 40
0
 41
0
  0
VERTEX
  8
0
 10
3.0631
 20
2.08137
 30
0.0
 40
0
 41
0
  0
VERTEX
  8
0
 10
3.0631
 20
2.09907
 30
0.0
 40
0
 41
0
  0
VERTEX
  8
0
 10
3.10639
 20
2.09907
 30
0.0
 40
0
 41
0
  0
VERTEX
  8
0
 10
3.10639
 20
2.08942
 30
0.0
 40
0
 41
0
  0
VERTEX
  8
0
 10
3.08957
 20
2.08942
 30
0.0
 40
0
 41
0
  0
SEQEND
 8
0
  0
POLYLINE
  8
0
 62
     1
 66
     1
 10
0
 20
0
 30
0.0
 70
     1
 40
0
 41
0
  0
VERTEX
  8
0
 10
3.03657
 20
2.14399
 30
0.0
 40
0
 41
0
  0
VERTEX
  8
0
 10
3.01492
 20
2.14399
 30
0.0
 40
0
 41
0
  0
VERTEX
  8
0
 10
3.01492
 20
2.1665
 30
0.0
 40
0
 41
0
  0
VERTEX
  8
0
 10
3.05826
 20
2.1665
 30
0.0
 40
0
 41
0
  0
VERTEX
  8
0
 10
3.05826
 20
2.14399
 30
0.0
 40
0
 41
0
  0
VERTEX
  8
0
 10
3.03657
 20
2.14399
 30
0.0
 40
0
 41
0
  0
SEQEND
 8
0
  0
POLYLINE
  8
0
 62
     1
 66
     1
 10
0
 20
0
 30
0.0
 70
     1
 40
0
 41
0
  0
VERTEX
  8
0
 10
3.03657
 20
2.15685
 30
0.0
 40
0
 41
0
  0
VERTEX
  8
0
 10
3.03396
 20
2.15685
 30
0.0
 40
0
 41
0
  0
VERTEX
  8
0
 10
3.02621
 20
2.15662
 30
0.0
 40
0
 41
0
  0
VERTEX
  8
0
 10
3.02453
 20
2.15565
 30
0.0
 40
0
 41
0
  0
VERTEX
  8
0
 10
3.02453
 20
2.15528
 30
0.0
 40
0
 41
0
  0
VERTEX
  8
0
 10
3.02453
 20
2.15494
 30
0.0
 40
0
 41
0
  0
VERTEX
  8
0
 10
3.02621
 20
2.15392
 30
0.0
 40
0
 41
0
  0
VERTEX
  8
0
 10
3.03396
 20
2.15365
 30
0.0
 40
0
 41
0
  0
VERTEX
  8
0
 10
3.03657
 20
2.15365
 30
0.0
 40
0
 41
0
  0
VERTEX
  8
0
 10
3.03911
 20
2.15365
 30
0.0
 40
0
 41
0
  0
VERTEX
  8
0
 10
3.04688
 20
2.15392
 30
0.0
 40
0
 41
0
  0
VERTEX
  8
0
 10
3.04861
 20
2.15494
 30
0.0
 40
0
 41
0
  0
VERTEX
  8
0
 10
3.04861
 20
2.15528
 30
0.0
 40
0
 41
0
  0
VERTEX
  8
0
 10
3.04861
 20
2.15565
 30
0.0
 40
0
 41
0
  0
VERTEX
  8
0
 10
3.04688
 20
2.15662
 30
0.0
 40
0
 41
0
  0
VERTEX
  8
0
 10
3.03911
 20
2.15685
 30
0.0
 40
0
 41
0
  0
VERTEX
  8
0
 10
3.03657
 20
2.15685
 30
0.0
 40
0
 41
0
  0
SEQEND
 8
0
  0
POLYLINE
  8
0
 62
     1
 66
     1
 10
0
 20
0
 30
0.0
 70
     1
 40
0
 41
0
  0
VERTEX
  8
0
 10
2.97721
 20
2.20503
 30
0.0
 40
0
 41
0
  0
VERTEX
  8
0
 10
2.96035
 20
2.20503
 30
0.0
 40
0
 41
0
  0
VERTEX
  8
0
 10
2.96035
 20
2.197
 30
0.0
 40
0
 41
0
  0
VERTEX
  8
0
 10
2.95068
 20
2.197
 30
0.0
 40
0
 41
0
  0
VERTEX
  8
0
 10
2.95068
 20
2.21463
 30
0.0
 40
0
 41
0
  0
VERTEX
  8
0
 10
2.99403
 20
2.21463
 30
0.0
 40
0
 41
0
  0
VERTEX
  8
0
 10
2.99403
 20
2.20503
 30
0.0
 40
0
 41
0
  0
VERTEX
  8
0
 10
2.97721
 20
2.20503
 30
0.0
 40
0
 41
0
  0
SEQEND
 8
0
  0
POLYLINE
  8
0
 62
     1
 66
     1
 10
0
 20
0
 30
0.0
 70
     1
 40
0
 41
0
  0
VERTEX
  8
0
 10
3.68712
 20
1.12842
 30
0.0
 40
0
 41
0
  0
VERTEX
  8
0
 10
3.71707
 20
1.12218
 30
0.0
 40
0
 41
0
  0
VERTEX
  8
0
 10
3.71707
 20
1.17909
 30
0.0
 40
0
 41
0
  0
VERTEX
  8
0
 10
3.87776
 20
1.14502
 30
0.0
 40
0
 41
0
  0
VERTEX
  8
0
 10
3.87776
 20
1.17665
 30
0.0
 40
0
 41
0
  0
VERTEX
  8
0
 10
3.71707
 20
1.21067
 30
0.0
 40
0
 41
0
  0
VERTEX
  8
0
 10
3.71707
 20
1.26736
 30
0.0
 40
0
 41
0
  0
VERTEX
  8
0
 10
3.68712
 20
1.2736
 30
0.0
 40
0
 41
0
  0
VERTEX
  8
0
 10
3.68712
 20
1.12842
 30
0.0
 40
0
 41
0
  0
SEQEND
 8
0
  0
POLYLINE
  8
0
 62
     1
 66
     1
 10
0
 20
0
 30
0.0
 70
     1
 40
0
 41
0
  0
VERTEX
  8
0
 10
3.75304
 20
1.30534
 30
0.0
 40
0
 41
0
  0
VERTEX
  8
0
 10
3.75304
 20
1.29877
 30
0.0
 40
0
 41
0
  0
VERTEX
  8
0
 10
3.75797
 20
1.27908
 30
0.0
 40
0
 41
0
  0
VERTEX
  8
0
 10
3.77165
 20
1.25591
 30
0.0
 40
0
 41
0
  0
VERTEX
  8
0
 10
3.7921
 20
1.23817
 30
0.0
 40
0
 41
0
  0
VERTEX
  8
0
 10
3.81076
 20
1.22938
 30
0.0
 40
0
 41
0
  0
VERTEX
  8
0
 10
3.81733
 20
1.22797
 30
0.0
 40
0
 41
0
  0
VERTEX
  8
0
 10
3.81847
 20
1.2277
 30
0.0
 40
0
 41
0
  0
VERTEX
  8
0
 10
3.82758
 20
1.22662
 30
0.0
 40
0
 41
0
  0
VERTEX
  8
0
 10
3.83068
 20
1.22662
 30
0.0
 40
0
 41
0
  0
VERTEX
  8
0
 10
3.83567
 20
1.22662
 30
0.0
 40
0
 41
0
  0
VERTEX
  8
0
 10
3.85075
 20
1.23047
 30
0.0
 40
0
 41
0
  0
VERTEX
  8
0
 10
3.8666
 20
1.24121
 30
0.0
 40
0
 41
0
  0
VERTEX
  8
0
 10
3.87701
 20
1.25787
 30
0.0
 40
0
 41
0
  0
VERTEX
  8
0
 10
3.88075
 20
1.27409
 30
0.0
 40
0
 41
0
  0
VERTEX
  8
0
 10
3.88075
 20
1.27946
 30
0.0
 40
0
 41
0
  0
VERTEX
  8
0
 10
3.88064
 20
1.28527
 30
0.0
 40
0
 41
0
  0
VERTEX
  8
0
 10
3.87358
 20
1.31321
 30
0.0
 40
0
 41
0
  0
VERTEX
  8
0
 10
3.85807
 20
1.33718
 30
0.0
 40
0
 41
0
  0
VERTEX
  8
0
 10
3.85379
 20
1.34098
 30
0.0
 40
0
 41
0
  0
VERTEX
  8
0
 10
3.83772
 20
1.3252
 30
0.0
 40
0
 41
0
  0
VERTEX
  8
0
 10
3.84022
 20
1.32243
 30
0.0
 40
0
 41
0
  0
VERTEX
  8
0
 10
3.85379
 20
1.29552
 30
0.0
 40
0
 41
0
  0
VERTEX
  8
0
 10
3.85379
 20
1.28651
 30
0.0
 40
0
 41
0
  0
VERTEX
  8
0
 10
3.85379
 20
1.28543
 30
0.0
 40
0
 41
0
  0
VERTEX
  8
0
 10
3.85379
 20
1.28044
 30
0.0
 40
0
 41
0
  0
VERTEX
  8
0
 10
3.84614
 20
1.26535
 30
0.0
 40
0
 41
0
  0
VERTEX
  8
0
 10
3.83247
 20
1.25765
 30
0.0
 40
0
 41
0
  0
VERTEX
  8
0
 10
3.8279
 20
1.25765
 30
0.0
 40
0
 41
0
  0
VERTEX
  8
0
 10
3.82639
 20
1.25765
 30
0.0
 40
0
 41
0
  0
VERTEX
  8
0
 10
3.82238
 20
1.25808
 30
0.0
 40
0
 41
0
  0
VERTEX
  8
0
 10
3.82194
 20
1.25819
 30
0.0
 40
0
 41
0
  0
VERTEX
  8
0
 10
3.82194
 20
1.35053
 30
0.0
 40
0
 41
0
  0
VERTEX
  8
0
 10
3.81076
 20
1.35297
 30
0.0
 40
0
 41
0
  0
VERTEX
  8
0
 10
3.80946
 20
1.35324
 30
0.0
 40
0
 41
0
  0
VERTEX
  8
0
 10
3.79937
 20
1.3546
 30
0.0
 40
0
 41
0
  0
VERTEX
  8
0
 10
3.79606
 20
1.3546
 30
0.0
 40
0
 41
0
  0
VERTEX
  8
0
 10
3.78814
 20
1.3546
 30
0.0
 40
0
 41
0
  0
VERTEX
  8
0
 10
3.76443
 20
1.34169
 30
0.0
 40
0
 41
0
  0
VERTEX
  8
0
 10
3.75304
 20
1.31548
 30
0.0
 40
0
 41
0
  0
VERTEX
  8
0
 10
3.75304
 20
1.30669
 30
0.0
 40
0
 41
0
  0
VERTEX
  8
0
 10
3.75304
 20
1.30534
 30
0.0
 40
0
 41
0
  0
SEQEND
 8
0
  0
POLYLINE
  8
0
 62
     1
 66
     1
 10
0
 20
0
 30
0.0
 70
     1
 40
0
 41
0
  0
VERTEX
  8
0
 10
3.7985
 20
1.32465
 30
0.0
 40
0
 41
0
  0
VERTEX
  8
0
 10
3.7985
 20
1.26584
 30
0.0
 40
0
 41
0
  0
VERTEX
  8
0
 10
3.79665
 20
1.26682
 30
0.0
 40
0
 41
0
  0
VERTEX
  8
0
 10
3.78689
 20
1.27897
 30
0.0
 40
0
 41
0
  0
VERTEX
  8
0
 10
3.78082
 20
1.29443
 30
0.0
 40
0
 41
0
  0
VERTEX
  8
0
 10
3.78082
 20
1.29959
 30
0.0
 40
0
 41
0
  0
VERTEX
  8
0
 10
3.78082
 20
1.30404
 30
0.0
 40
0
 41
0
  0
VERTEX
  8
0
 10
3.78467
 20
1.31728
 30
0.0
 40
0
 41
0
  0
VERTEX
  8
0
 10
3.7946
 20
1.32465
 30
0.0
 40
0
 41
0
  0
VERTEX
  8
0
 10
3.79796
 20
1.32465
 30
0.0
 40
0
 41
0
  0
VERTEX
  8
0
 10
3.7985
 20
1.32465
 30
0.0
 40
0
 41
0
  0
SEQEND
 8
0
  0
POLYLINE
  8
0
 62
     1
 66
     1
 10
0
 20
0
 30
0.0
 70
     1
 40
0
 41
0
  0
VERTEX
  8
0
 10
3.75304
 20
1.45269
 30
0.0
 40
0
 41
0
  0
VERTEX
  8
0
 10
3.75304
 20
1.44624
 30
0.0
 40
0
 41
0
  0
VERTEX
  8
0
 10
3.75797
 20
1.42681
 30
0.0
 40
0
 41
0
  0
VERTEX
  8
0
 10
3.77165
 20
1.40349
 30
0.0
 40
0
 41
0
  0
VERTEX
  8
0
 10
3.7921
 20
1.38525
 30
0.0
 40
0
 41
0
  0
VERTEX
  8
0
 10
3.81076
 20
1.37619
 30
0.0
 40
0
 41
0
  0
VERTEX
  8
0
 10
3.81733
 20
1.37478
 30
0.0
 40
0
 41
0
  0
VERTEX
  8
0
 10
3.81847
 20
1.37451
 30
0.0
 40
0
 41
0
  0
VERTEX
  8
0
 10
3.82758
 20
1.37343
 30
0.0
 40
0
 41
0
  0
VERTEX
  8
0
 10
3.83068
 20
1.37343
 30
0.0
 40
0
 41
0
  0
VERTEX
  8
0
 10
3.83567
 20
1.37343
 30
0.0
 40
0
 41
0
  0
VERTEX
  8
0
 10
3.85075
 20
1.37728
 30
0.0
 40
0
 41
0
  0
VERTEX
  8
0
 10
3.8666
 20
1.38802
 30
0.0
 40
0
 41
0
  0
VERTEX
  8
0
 10
3.87701
 20
1.40451
 30
0.0
 40
0
 41
0
  0
VERTEX
  8
0
 10
3.88075
 20
1.42025
 30
0.0
 40
0
 41
0
  0
VERTEX
  8
0
 10
3.88075
 20
1.42546
 30
0.0
 40
0
 41
0
  0
VERTEX
  8
0
 10
3.88075
 20
1.43147
 30
0.0
 40
0
 41
0
  0
VERTEX
  8
0
 10
3.87668
 20
1.44954
 30
0.0
 40
0
 41
0
  0
VERTEX
  8
0
 10
3.86681
 20
1.46963
 30
0.0
 40
0
 41
0
  0
VERTEX
  8
0
 10
3.86388
 20
1.47396
 30
0.0
 40
0
 41
0
  0
VERTEX
  8
0
 10
3.84212
 20
1.45925
 30
0.0
 40
0
 41
0
  0
VERTEX
  8
0
 10
3.84381
 20
1.45725
 30
0.0
 40
0
 41
0
  0
VERTEX
  8
0
 10
3.85297
 20
1.43838
 30
0.0
 40
0
 41
0
  0
VERTEX
  8
0
 10
3.85297
 20
1.43201
 30
0.0
 40
0
 41
0
  0
VERTEX
  8
0
 10
3.85297
 20
1.42751
 30
0.0
 40
0
 41
0
  0
VERTEX
  8
0
 10
3.84517
 20
1.41401
 30
0.0
 40
0
 41
0
  0
VERTEX
  8
0
 10
3.83057
 20
1.40696
 30
0.0
 40
0
 41
0
  0
VERTEX
  8
0
 10
3.82574
 20
1.40696
 30
0.0
 40
0
 41
0
  0
VERTEX
  8
0
 10
3.82362
 20
1.40696
 30
0.0
 40
0
 41
0
  0
VERTEX
  8
0
 10
3.81803
 20
1.40793
 30
0.0
 40
0
 41
0
  0
VERTEX
  8
0
 10
3.81733
 20
1.40804
 30
0.0
 40
0
 41
0
  0
VERTEX
  8
0
 10
3.81244
 20
1.40907
 30
0.0
 40
0
 41
0
  0
VERTEX
  8
0
 10
3.79178
 20
1.42269
 30
0.0
 40
0
 41
0
  0
VERTEX
  8
0
 10
3.78082
 20
1.44114
 30
0.0
 40
0
 41
0
  0
VERTEX
  8
0
 10
3.78082
 20
1.44726
 30
0.0
 40
0
 41
0
  0
VERTEX
  8
0
 10
3.78082
 20
1.45296
 30
0.0
 40
0
 41
0
  0
VERTEX
  8
0
 10
3.79081
 20
1.46853
 30
0.0
 40
0
 41
0
  0
VERTEX
  8
0
 10
3.79254
 20
1.46989
 30
0.0
 40
0
 41
0
  0
VERTEX
  8
0
 10
3.77235
 20
1.49354
 30
0.0
 40
0
 41
0
  0
VERTEX
  8
0
 10
3.76878
 20
1.491
 30
0.0
 40
0
 41
0
  0
VERTEX
  8
0
 10
3.75765
 20
1.4745
 30
0.0
 40
0
 41
0
  0
VERTEX
  8
0
 10
3.75319
 20
1.45617
 30
0.0
 40
0
 41
0
  0
VERTEX
  8
0
 10
3.75304
 20
1.45269
 30
0.0
 40
0
 41
0
  0
SEQEND
 8
0
  0
POLYLINE
  8
0
 62
     1
 66
     1
 10
0
 20
0
 30
0.0
 70
     1
 40
0
 41
0
  0
VERTEX
  8
0
 10
3.80669
 20
1.62614
 30
0.0
 40
0
 41
0
  0
VERTEX
  8
0
 10
3.8049
 20
1.62651
 30
0.0
 40
0
 41
0
  0
VERTEX
  8
0
 10
3.7921
 20
1.62831
 30
0.0
 40
0
 41
0
  0
VERTEX
  8
0
 10
3.78787
 20
1.62831
 30
0.0
 40
0
 41
0
  0
VERTEX
  8
0
 10
3.78125
 20
1.62831
 30
0.0
 40
0
 41
0
  0
VERTEX
  8
0
 10
3.76144
 20
1.61817
 30
0.0
 40
0
 41
0
  0
VERTEX
  8
0
 10
3.75304
 20
1.59619
 30
0.0
 40
0
 41
0
  0
VERTEX
  8
0
 10
3.75304
 20
1.58882
 30
0.0
 40
0
 41
0
  0
VERTEX
  8
0
 10
3.75304
 20
1.58382
 30
0.0
 40
0
 41
0
  0
VERTEX
  8
0
 10
3.75683
 20
1.56879
 30
0.0
 40
0
 41
0
  0
VERTEX
  8
0
 10
3.76768
 20
1.5541
 30
0.0
 40
0
 41
0
  0
VERTEX
  8
0
 10
3.77126
 20
1.55122
 30
0.0
 40
0
 41
0
  0
VERTEX
  8
0
 10
3.6735
 20
1.57194
 30
0.0
 40
0
 41
0
  0
VERTEX
  8
0
 10
3.6735
 20
1.54139
 30
0.0
 40
0
 41
0
  0
VERTEX
  8
0
 10
3.87776
 20
1.4981
 30
0.0
 40
0
 41
0
  0
VERTEX
  8
0
 10
3.87776
 20
1.5286
 30
0.0
 40
0
 41
0
  0
VERTEX
  8
0
 10
3.81104
 20
1.54281
 30
0.0
 40
0
 41
0
  0
VERTEX
  8
0
 10
3.80658
 20
1.54383
 30
0.0
 40
0
 41
0
  0
VERTEX
  8
0
 10
3.79036
 20
1.55496
 30
0.0
 40
0
 41
0
  0
VERTEX
  8
0
 10
3.78299
 20
1.57221
 30
0.0
 40
0
 41
0
  0
VERTEX
  8
0
 10
3.78299
 20
1.5779
 30
0.0
 40
0
 41
0
  0
VERTEX
  8
0
 10
3.78304
 20
1.58051
 30
0.0
 40
0
 41
0
  0
VERTEX
  8
0
 10
3.78662
 20
1.58974
 30
0.0
 40
0
 41
0
  0
VERTEX
  8
0
 10
3.79492
 20
1.59369
 30
0.0
 40
0
 41
0
  0
VERTEX
  8
0
 10
3.79769
 20
1.59369
 30
0.0
 40
0
 41
0
  0
VERTEX
  8
0
 10
3.80013
 20
1.59369
 30
0.0
 40
0
 41
0
  0
VERTEX
  8
0
 10
3.80653
 20
1.59256
 30
0.0
 40
0
 41
0
  0
VERTEX
  8
0
 10
3.80751
 20
1.59233
 30
0.0
 40
0
 41
0
  0
VERTEX
  8
0
 10
3.87776
 20
1.57764
 30
0.0
 40
0
 41
0
  0
VERTEX
  8
0
 10
3.87776
 20
1.61117
 30
0.0
 40
0
 41
0
  0
VERTEX
  8
0
 10
3.80669
 20
1.62614
 30
0.0
 40
0
 41
0
  0
SEQEND
 8
0
  0
POLYLINE
  8
0
 62
     1
 66
     1
 10
0
 20
0
 30
0.0
 70
     1
 40
0
 41
0
  0
VERTEX
  8
0
 10
3.80533
 20
1.66476
 30
0.0
 40
0
 41
0
  0
VERTEX
  8
0
 10
3.82872
 20
1.65989
 30
0.0
 40
0
 41
0
  0
VERTEX
  8
0
 10
3.82872
 20
1.72851
 30
0.0
 40
0
 41
0
  0
VERTEX
  8
0
 10
3.80533
 20
1.73346
 30
0.0
 40
0
 41
0
  0
VERTEX
  8
0
 10
3.80533
 20
1.66476
 30
0.0
 40
0
 41
0
  0
SEQEND
 8
0
  0
POLYLINE
  8
0
 62
     1
 66
     1
 10
0
 20
0
 30
0.0
 70
     1
 40
0
 41
0
  0
VERTEX
  8
0
 10
3.68712
 20
1.79861
 30
0.0
 40
0
 41
0
  0
VERTEX
  8
0
 10
3.87776
 20
1.75825
 30
0.0
 40
0
 41
0
  0
VERTEX
  8
0
 10
3.87776
 20
1.87022
 30
0.0
 40
0
 41
0
  0
VERTEX
  8
0
 10
3.84864
 20
1.87625
 30
0.0
 40
0
 41
0
  0
VERTEX
  8
0
 10
3.84864
 20
1.79585
 30
0.0
 40
0
 41
0
  0
VERTEX
  8
0
 10
3.68712
 20
1.83018
 30
0.0
 40
0
 41
0
  0
VERTEX
  8
0
 10
3.68712
 20
1.79861
 30
0.0
 40
0
 41
0
  0
SEQEND
 8
0
  0
POLYLINE
  8
0
 62
     1
 66
     1
 10
0
 20
0
 30
0.0
 70
     1
 40
0
 41
0
  0
VERTEX
  8
0
 10
3.77208
 20
1.99968
 30
0.0
 40
0
 41
0
  0
VERTEX
  8
0
 10
3.76872
 20
1.99858
 30
0.0
 40
0
 41
0
  0
VERTEX
  8
0
 10
3.75754
 20
1.98899
 30
0.0
 40
0
 41
0
  0
VERTEX
  8
0
 10
3.75304
 20
1.97499
 30
0.0
 40
0
 41
0
  0
VERTEX
  8
0
 10
3.75304
 20
1.97026
 30
0.0
 40
0
 41
0
  0
VERTEX
  8
0
 10
3.75304
 20
1.96419
 30
0.0
 40
0
 41
0
  0
VERTEX
  8
0
 10
3.75765
 20
1.94596
 30
0.0
 40
0
 41
0
  0
VERTEX
  8
0
 10
3.77072
 20
1.92503
 30
0.0
 40
0
 41
0
  0
VERTEX
  8
0
 10
3.79096
 20
1.90896
 30
0.0
 40
0
 41
0
  0
VERTEX
  8
0
 10
3.81033
 20
1.90061
 30
0.0
 40
0
 41
0
  0
VERTEX
  8
0
 10
3.81706
 20
1.89914
 30
0.0
 40
0
 41
0
  0
VERTEX
  8
0
 10
3.81858
 20
1.89882
 30
0.0
 40
0
 41
0
  0
VERTEX
  8
0
 10
3.83046
 20
1.89725
 30
0.0
 40
0
 41
0
  0
VERTEX
  8
0
 10
3.83447
 20
1.89725
 30
0.0
 40
0
 41
0
  0
VERTEX
  8
0
 10
3.84283
 20
1.89725
 30
0.0
 40
0
 41
0
  0
VERTEX
  8
0
 10
3.86806
 20
1.9095
 30
0.0
 40
0
 41
0
  0
VERTEX
  8
0
 10
3.88049
 20
1.93468
 30
0.0
 40
0
 41
0
  0
VERTEX
  8
0
 10
3.88049
 20
1.94303
 30
0.0
 40
0
 41
0
  0
VERTEX
  8
0
 10
3.88049
 20
1.94835
 30
0.0
 40
0
 41
0
  0
VERTEX
  8
0
 10
3.87592
 20
1.96419
 30
0.0
 40
0
 41
0
  0
VERTEX
  8
0
 10
3.86529
 20
1.97825
 30
0.0
 40
0
 41
0
  0
VERTEX
  8
0
 10
3.86225
 20
1.98058
 30
0.0
 40
0
 41
0
  0
VERTEX
  8
0
 10
3.87776
 20
1.97732
 30
0.0
 40
0
 41
0
  0
VERTEX
  8
0
 10
3.87776
 20
2.00732
 30
0.0
 40
0
 41
0
  0
VERTEX
  8
0
 10
3.75575
 20
2.03315
 30
0.0
 40
0
 41
0
  0
VERTEX
  8
0
 10
3.75575
 20
2.00319
 30
0.0
 40
0
 41
0
  0
VERTEX
  8
0
 10
3.77208
 20
1.99968
 30
0.0
 40
0
 41
0
  0
SEQEND
 8
0
  0
POLYLINE
  8
0
 62
     1
 66
     1
 10
0
 20
0
 30
0.0
 70
     1
 40
0
 41
0
  0
VERTEX
  8
0
 10
3.81706
 20
1.93539
 30
0.0
 40
0
 41
0
  0
VERTEX
  8
0
 10
3.81158
 20
1.93658
 30
0.0
 40
0
 41
0
  0
VERTEX
  8
0
 10
3.79183
 20
1.94764
 30
0.0
 40
0
 41
0
  0
VERTEX
  8
0
 10
3.78299
 20
1.96294
 30
0.0
 40
0
 41
0
  0
VERTEX
  8
0
 10
3.78299
 20
1.96804
 30
0.0
 40
0
 41
0
  0
VERTEX
  8
0
 10
3.78299
 20
1.97239
 30
0.0
 40
0
 41
0
  0
VERTEX
  8
0
 10
3.78922
 20
1.98529
 30
0.0
 40
0
 41
0
  0
VERTEX
  8
0
 10
3.80231
 20
1.99121
 30
0.0
 40
0
 41
0
  0
VERTEX
  8
0
 10
3.80669
 20
1.99121
 30
0.0
 40
0
 41
0
  0
VERTEX
  8
0
 10
3.80925
 20
1.99121
 30
0.0
 40
0
 41
0
  0
VERTEX
  8
0
 10
3.81608
 20
1.99035
 30
0.0
 40
0
 41
0
  0
VERTEX
  8
0
 10
3.81706
 20
1.99013
 30
0.0
 40
0
 41
0
  0
VERTEX
  8
0
 10
3.82243
 20
1.98899
 30
0.0
 40
0
 41
0
  0
VERTEX
  8
0
 10
3.84239
 20
1.977
 30
0.0
 40
0
 41
0
  0
VERTEX
  8
0
 10
3.85161
 20
1.95947
 30
0.0
 40
0
 41
0
  0
VERTEX
  8
0
 10
3.85161
 20
1.95361
 30
0.0
 40
0
 41
0
  0
VERTEX
  8
0
 10
3.85161
 20
1.94997
 30
0.0
 40
0
 41
0
  0
VERTEX
  8
0
 10
3.84565
 20
1.93901
 30
0.0
 40
0
 41
0
  0
VERTEX
  8
0
 10
3.83339
 20
1.93403
 30
0.0
 40
0
 41
0
  0
VERTEX
  8
0
 10
3.82932
 20
1.93403
 30
0.0
 40
0
 41
0
  0
VERTEX
  8
0
 10
3.82622
 20
1.93403
 30
0.0
 40
0
 41
0
  0
VERTEX
  8
0
 10
3.81814
 20
1.93511
 30
0.0
 40
0
 41
0
  0
VERTEX
  8
0
 10
3.81706
 20
1.93539
 30
0.0
 40
0
 41
0
  0
SEQEND
 8
0
  0
POLYLINE
  8
0
 62
     1
 66
     1
 10
0
 20
0
 30
0.0
 70
     1
 40
0
 41
0
  0
VERTEX
  8
0
 10
3.81347
 20
2.14339
 30
0.0
 40
0
 41
0
  0
VERTEX
  8
0
 10
3.81907
 20
2.14219
 30
0.0
 40
0
 41
0
  0
VERTEX
  8
0
 10
3.84093
 20
2.13058
 30
0.0
 40
0
 41
0
  0
VERTEX
  8
0
 10
3.85161
 20
2.11486
 30
0.0
 40
0
 41
0
  0
VERTEX
  8
0
 10
3.85161
 20
2.1096
 30
0.0
 40
0
 41
0
  0
VERTEX
  8
0
 10
3.85161
 20
2.10531
 30
0.0
 40
0
 41
0
  0
VERTEX
  8
0
 10
3.84446
 20
2.09233
 30
0.0
 40
0
 41
0
  0
VERTEX
  8
0
 10
3.8304
 20
2.08669
 30
0.0
 40
0
 41
0
  0
VERTEX
  8
0
 10
3.82574
 20
2.08669
 30
0.0
 40
0
 41
0
  0
VERTEX
  8
0
 10
3.82264
 20
2.08669
 30
0.0
 40
0
 41
0
  0
VERTEX
  8
0
 10
3.81456
 20
2.08789
 30
0.0
 40
0
 41
0
  0
VERTEX
  8
0
 10
3.81347
 20
2.08806
 30
0.0
 40
0
 41
0
  0
VERTEX
  8
0
 10
3.80767
 20
2.08931
 30
0.0
 40
0
 41
0
  0
VERTEX
  8
0
 10
3.78956
 20
2.10118
 30
0.0
 40
0
 41
0
  0
VERTEX
  8
0
 10
3.78299
 20
2.11833
 30
0.0
 40
0
 41
0
  0
VERTEX
  8
0
 10
3.78299
 20
2.12403
 30
0.0
 40
0
 41
0
  0
VERTEX
  8
0
 10
3.78299
 20
2.12782
 30
0.0
 40
0
 41
0
  0
VERTEX
  8
0
 10
3.78743
 20
2.13921
 30
0.0
 40
0
 41
0
  0
VERTEX
  8
0
 10
3.79856
 20
2.14475
 30
0.0
 40
0
 41
0
  0
VERTEX
  8
0
 10
3.80231
 20
2.14475
 30
0.0
 40
0
 41
0
  0
VERTEX
  8
0
 10
3.80507
 20
2.14475
 30
0.0
 40
0
 41
0
  0
VERTEX
  8
0
 10
3.81244
 20
2.14361
 30
0.0
 40
0
 41
0
  0
VERTEX
  8
0
 10
3.81347
 20
2.14339
 30
0.0
 40
0
 41
0
  0
SEQEND
 8
0
  0
POLYLINE
  8
0
 62
     1
 66
     1
 10
0
 20
0
 30
0.0
 70
     1
 40
0
 41
0
  0
VERTEX
  8
0
 10
3.77072
 20
2.09706
 30
0.0
 40
0
 41
0
  0
VERTEX
  8
0
 10
3.6735
 20
2.11778
 30
0.0
 40
0
 41
0
  0
VERTEX
  8
0
 10
3.6735
 20
2.08832
 30
0.0
 40
0
 41
0
  0
VERTEX
  8
0
 10
3.87776
 20
2.04503
 30
0.0
 40
0
 41
0
  0
VERTEX
  8
0
 10
3.87776
 20
2.07443
 30
0.0
 40
0
 41
0
  0
VERTEX
  8
0
 10
3.86089
 20
2.07801
 30
0.0
 40
0
 41
0
  0
VERTEX
  8
0
 10
3.86447
 20
2.07932
 30
0.0
 40
0
 41
0
  0
VERTEX
  8
0
 10
3.87619
 20
2.08908
 30
0.0
 40
0
 41
0
  0
VERTEX
  8
0
 10
3.88075
 20
2.10308
 30
0.0
 40
0
 41
0
  0
VERTEX
  8
0
 10
3.88075
 20
2.10769
 30
0.0
 40
0
 41
0
  0
VERTEX
  8
0
 10
3.88075
 20
2.11388
 30
0.0
 40
0
 41
0
  0
VERTEX
  8
0
 10
3.87582
 20
2.13232
 30
0.0
 40
0
 41
0
  0
VERTEX
  8
0
 10
3.86199
 20
2.15338
 30
0.0
 40
0
 41
0
  0
VERTEX
  8
0
 10
3.84071
 20
2.16949
 30
0.0
 40
0
 41
0
  0
VERTEX
  8
0
 10
3.82047
 20
2.17785
 30
0.0
 40
0
 41
0
  0
VERTEX
  8
0
 10
3.81347
 20
2.17931
 30
0.0
 40
0
 41
0
  0
VERTEX
  8
0
 10
3.81174
 20
2.17969
 30
0.0
 40
0
 41
0
  0
VERTEX
  8
0
 10
3.79915
 20
2.18153
 30
0.0
 40
0
 41
0
  0
VERTEX
  8
0
 10
3.79497
 20
2.18153
 30
0.0
 40
0
 41
0
  0
VERTEX
  8
0
 10
3.78706
 20
2.18153
 30
0.0
 40
0
 41
0
  0
VERTEX
  8
0
 10
3.76335
 20
2.169
 30
0.0
 40
0
 41
0
  0
VERTEX
  8
0
 10
3.75304
 20
2.14344
 30
0.0
 40
0
 41
0
  0
VERTEX
  8
0
 10
3.75304
 20
2.13493
 30
0.0
 40
0
 41
0
  0
VERTEX
  8
0
 10
3.75304
 20
2.12972
 30
0.0
 40
0
 41
0
  0
VERTEX
  8
0
 10
3.75667
 20
2.11399
 30
0.0
 40
0
 41
0
  0
VERTEX
  8
0
 10
3.76725
 20
2.09972
 30
0.0
 40
0
 41
0
  0
VERTEX
  8
0
 10
3.77072
 20
2.09706
 30
0.0
 40
0
 41
0
  0
SEQEND
 8
0
  0
POLYLINE
  8
0
 62
     1
 66
     1
 10
0
 20
0
 30
0.0
 70
     1
 40
0
 41
0
  0
VERTEX
  8
0
 10
0.380154
 20
0.13189
 30
0.0
 40
0
 41
0
  0
VERTEX
  8
0
 10
0.380317
 20
0.132921
 30
0.0
 40
0
 41
0
  0
VERTEX
  8
0
 10
0.381401
 20
0.140246
 30
0.0
 40
0
 41
0
  0
VERTEX
  8
0
 10
0.381401
 20
0.142632
 30
0.0
 40
0
 41
0
  0
VERTEX
  8
0
 10
0.381401
 20
0.146431
 30
0.0
 40
0
 41
0
  0
VERTEX
  8
0
 10
0.375543
 20
0.157824
 30
0.0
 40
0
 41
0
  0
VERTEX
  8
0
 10
0.362901
 20
0.162651
 30
0.0
 40
0
 41
0
  0
VERTEX
  8
0
 10
0.358724
 20
0.162651
 30
0.0
 40
0
 41
0
  0
VERTEX
  8
0
 10
0.353299
 20
0.162651
 30
0.0
 40
0
 41
0
  0
VERTEX
  8
0
 10
0.338813
 20
0.154243
 30
0.0
 40
0
 41
0
  0
VERTEX
  8
0
 10
0.337185
 20
0.152181
 30
0.0
 40
0
 41
0
  0
VERTEX
  8
0
 10
0.349067
 20
0.208279
 30
0.0
 40
0
 41
0
  0
VERTEX
  8
0
 10
0.331543
 20
0.208279
 30
0.0
 40
0
 41
0
  0
VERTEX
  8
0
 10
0.306694
 20
0.0910915
 30
0.0
 40
0
 41
0
  0
VERTEX
  8
0
 10
0.324219
 20
0.0910915
 30
0.0
 40
0
 41
0
  0
VERTEX
  8
0
 10
0.332303
 20
0.129395
 30
0.0
 40
0
 41
0
  0
VERTEX
  8
0
 10
0.3329
 20
0.131944
 30
0.0
 40
0
 41
0
  0
VERTEX
  8
0
 10
0.339301
 20
0.141276
 30
0.0
 40
0
 41
0
  0
VERTEX
  8
0
 10
0.349175
 20
0.145454
 30
0.0
 40
0
 41
0
  0
VERTEX
  8
0
 10
0.352485
 20
0.145454
 30
0.0
 40
0
 41
0
  0
VERTEX
  8
0
 10
0.35395
 20
0.145454
 30
0.0
 40
0
 41
0
  0
VERTEX
  8
0
 10
0.361546
 20
0.13916
 30
0.0
 40
0
 41
0
  0
VERTEX
  8
0
 10
0.361546
 20
0.137044
 30
0.0
 40
0
 41
0
  0
VERTEX
  8
0
 10
0.361546
 20
0.135634
 30
0.0
 40
0
 41
0
  0
VERTEX
  8
0
 10
0.360894
 20
0.131944
 30
0.0
 40
0
 41
0
  0
VERTEX
  8
0
 10
0.360786
 20
0.131402
 30
0.0
 40
0
 41
0
  0
VERTEX
  8
0
 10
0.352322
 20
0.0910915
 30
0.0
 40
0
 41
0
  0
VERTEX
  8
0
 10
0.371528
 20
0.0910915
 30
0.0
 40
0
 41
0
  0
VERTEX
  8
0
 10
0.380154
 20
0.13189
 30
0.0
 40
0
 41
0
  0
SEQEND
 8
0
  0
POLYLINE
  8
0
 62
     1
 66
     1
 10
0
 20
0
 30
0.0
 70
     1
 40
0
 41
0
  0
VERTEX
  8
0
 10
0.429904
 20
0.188747
 30
0.0
 40
0
 41
0
  0
VERTEX
  8
0
 10
0.413032
 20
0.188747
 30
0.0
 40
0
 41
0
  0
VERTEX
  8
0
 10
0.407226
 20
0.161079
 30
0.0
 40
0
 41
0
  0
VERTEX
  8
0
 10
0.398329
 20
0.161079
 30
0.0
 40
0
 41
0
  0
VERTEX
  8
0
 10
0.395236
 20
0.146539
 30
0.0
 40
0
 41
0
  0
VERTEX
  8
0
 10
0.404135
 20
0.146539
 30
0.0
 40
0
 41
0
  0
VERTEX
  8
0
 10
0.392415
 20
0.0910915
 30
0.0
 40
0
 41
0
  0
VERTEX
  8
0
 10
0.409289
 20
0.0910915
 30
0.0
 40
0
 41
0
  0
VERTEX
  8
0
 10
0.421007
 20
0.146539
 30
0.0
 40
0
 41
0
  0
VERTEX
  8
0
 10
0.429742
 20
0.146539
 30
0.0
 40
0
 41
0
  0
VERTEX
  8
0
 10
0.432889
 20
0.161079
 30
0.0
 40
0
 41
0
  0
VERTEX
  8
0
 10
0.4241
 20
0.161079
 30
0.0
 40
0
 41
0
  0
VERTEX
  8
0
 10
0.429904
 20
0.188747
 30
0.0
 40
0
 41
0
  0
SEQEND
 8
0
  0
POLYLINE
  8
0
 62
     1
 66
     1
 10
0
 20
0
 30
0.0
 70
     1
 40
0
 41
0
  0
VERTEX
  8
0
 10
0.476617
 20
0.188747
 30
0.0
 40
0
 41
0
  0
VERTEX
  8
0
 10
0.459744
 20
0.188747
 30
0.0
 40
0
 41
0
  0
VERTEX
  8
0
 10
0.453939
 20
0.161079
 30
0.0
 40
0
 41
0
  0
VERTEX
  8
0
 10
0.445042
 20
0.161079
 30
0.0
 40
0
 41
0
  0
VERTEX
  8
0
 10
0.441894
 20
0.146539
 30
0.0
 40
0
 41
0
  0
VERTEX
  8
0
 10
0.450792
 20
0.146539
 30
0.0
 40
0
 41
0
  0
VERTEX
  8
0
 10
0.439074
 20
0.0910915
 30
0.0
 40
0
 41
0
  0
VERTEX
  8
0
 10
0.455946
 20
0.0910915
 30
0.0
 40
0
 41
0
  0
VERTEX
  8
0
 10
0.467665
 20
0.146539
 30
0.0
 40
0
 41
0
  0
VERTEX
  8
0
 10
0.476454
 20
0.146539
 30
0.0
 40
0
 41
0
  0
VERTEX
  8
0
 10
0.479546
 20
0.161079
 30
0.0
 40
0
 41
0
  0
VERTEX
  8
0
 10
0.470811
 20
0.161079
 30
0.0
 40
0
 41
0
  0
VERTEX
  8
0
 10
0.476617
 20
0.188747
 30
0.0
 40
0
 41
0
  0
SEQEND
 8
0
  0
POLYLINE
  8
0
 62
     1
 66
     1
 10
0
 20
0
 30
0.0
 70
     1
 40
0
 41
0
  0
VERTEX
  8
0
 10
0.500325
 20
0.0990668
 30
0.0
 40
0
 41
0
  0
VERTEX
  8
0
 10
0.501031
 20
0.0970053
 30
0.0
 40
0
 41
0
  0
VERTEX
  8
0
 10
0.506782
 20
0.0909831
 30
0.0
 40
0
 41
0
  0
VERTEX
  8
0
 10
0.514811
 20
0.0890842
 30
0.0
 40
0
 41
0
  0
VERTEX
  8
0
 10
0.517524
 20
0.0890842
 30
0.0
 40
0
 41
0
  0
VERTEX
  8
0
 10
0.523981
 20
0.0890842
 30
0.0
 40
0
 41
0
  0
VERTEX
  8
0
 10
0.543457
 20
0.0991754
 30
0.0
 40
0
 41
0
  0
VERTEX
  8
0
 10
0.556912
 20
0.120497
 30
0.0
 40
0
 41
0
  0
VERTEX
  8
0
 10
0.558106
 20
0.126085
 30
0.0
 40
0
 41
0
  0
VERTEX
  8
0
 10
0.558268
 20
0.127062
 30
0.0
 40
0
 41
0
  0
VERTEX
  8
0
 10
0.559353
 20
0.134549
 30
0.0
 40
0
 41
0
  0
VERTEX
  8
0
 10
0.559353
 20
0.137044
 30
0.0
 40
0
 41
0
  0
VERTEX
  8
0
 10
0.559353
 20
0.141818
 30
0.0
 40
0
 41
0
  0
VERTEX
  8
0
 10
0.552354
 20
0.156033
 30
0.0
 40
0
 41
0
  0
VERTEX
  8
0
 10
0.537924
 20
0.162651
 30
0.0
 40
0
 41
0
  0
VERTEX
  8
0
 10
0.533149
 20
0.162651
 30
0.0
 40
0
 41
0
  0
VERTEX
  8
0
 10
0.527669
 20
0.162651
 30
0.0
 40
0
 41
0
  0
VERTEX
  8
0
 10
0.512912
 20
0.15294
 30
0.0
 40
0
 41
0
  0
VERTEX
  8
0
 10
0.511393
 20
0.150933
 30
0.0
 40
0
 41
0
  0
VERTEX
  8
0
 10
0.513618
 20
0.161079
 30
0.0
 40
0
 41
0
  0
VERTEX
  8
0
 10
0.496419
 20
0.161079
 30
0.0
 40
0
 41
0
  0
VERTEX
  8
0
 10
0.474067
 20
0.0559353
 30
0.0
 40
0
 41
0
  0
VERTEX
  8
0
 10
0.491265
 20
0.0559353
 30
0.0
 40
0
 41
0
  0
VERTEX
  8
0
 10
0.500325
 20
0.0990668
 30
0.0
 40
0
 41
0
  0
SEQEND
 8
0
  0
POLYLINE
  8
0
 62
     1
 66
     1
 10
0
 20
0
 30
0.0
 70
     1
 40
0
 41
0
  0
VERTEX
  8
0
 10
0.537489
 20
0.126085
 30
0.0
 40
0
 41
0
  0
VERTEX
  8
0
 10
0.536783
 20
0.122884
 30
0.0
 40
0
 41
0
  0
VERTEX
  8
0
 10
0.530436
 20
0.111328
 30
0.0
 40
0
 41
0
  0
VERTEX
  8
0
 10
0.521539
 20
0.10612
 30
0.0
 40
0
 41
0
  0
VERTEX
  8
0
 10
0.518608
 20
0.10612
 30
0.0
 40
0
 41
0
  0
VERTEX
  8
0
 10
0.516114
 20
0.10612
 30
0.0
 40
0
 41
0
  0
VERTEX
  8
0
 10
0.508681
 20
0.109701
 30
0.0
 40
0
 41
0
  0
VERTEX
  8
0
 10
0.505317
 20
0.117079
 30
0.0
 40
0
 41
0
  0
VERTEX
  8
0
 10
0.505317
 20
0.11952
 30
0.0
 40
0
 41
0
  0
VERTEX
  8
0
 10
0.505317
 20
0.121202
 30
0.0
 40
0
 41
0
  0
VERTEX
  8
0
 10
0.505968
 20
0.125542
 30
0.0
 40
0
 41
0
  0
VERTEX
  8
0
 10
0.506076
 20
0.126085
 30
0.0
 40
0
 41
0
  0
VERTEX
  8
0
 10
0.506782
 20
0.129449
 30
0.0
 40
0
 41
0
  0
VERTEX
  8
0
 10
0.513781
 20
0.140787
 30
0.0
 40
0
 41
0
  0
VERTEX
  8
0
 10
0.523546
 20
0.145454
 30
0.0
 40
0
 41
0
  0
VERTEX
  8
0
 10
0.526856
 20
0.145454
 30
0.0
 40
0
 41
0
  0
VERTEX
  8
0
 10
0.529676
 20
0.145454
 30
0.0
 40
0
 41
0
  0
VERTEX
  8
0
 10
0.538303
 20
0.13623
 30
0.0
 40
0
 41
0
  0
VERTEX
  8
0
 10
0.538303
 20
0.133138
 30
0.0
 40
0
 41
0
  0
VERTEX
  8
0
 10
0.538303
 20
0.131402
 30
0.0
 40
0
 41
0
  0
VERTEX
  8
0
 10
0.537651
 20
0.12679
 30
0.0
 40
0
 41
0
  0
VERTEX
  8
0
 10
0.537489
 20
0.126085
 30
0.0
 40
0
 41
0
  0
SEQEND
 8
0
  0
POLYLINE
  8
0
 62
     1
 66
     1
 10
0
 20
0
 30
0.0
 70
     1
 40
0
 41
0
  0
VERTEX
  8
0
 10
0.631944
 20
0.147678
 30
0.0
 40
0
 41
0
  0
VERTEX
  8
0
 10
0.631022
 20
0.149903
 30
0.0
 40
0
 41
0
  0
VERTEX
  8
0
 10
0.623807
 20
0.158475
 30
0.0
 40
0
 41
0
  0
VERTEX
  8
0
 10
0.613878
 20
0.162651
 30
0.0
 40
0
 41
0
  0
VERTEX
  8
0
 10
0.610568
 20
0.162651
 30
0.0
 40
0
 41
0
  0
VERTEX
  8
0
 10
0.609754
 20
0.162651
 30
0.0
 40
0
 41
0
  0
VERTEX
  8
0
 10
0.604438
 20
0.162651
 30
0.0
 40
0
 41
0
  0
VERTEX
  8
0
 10
0.58865
 20
0.15625
 30
0.0
 40
0
 41
0
  0
VERTEX
  8
0
 10
0.578993
 20
0.143826
 30
0.0
 40
0
 41
0
  0
VERTEX
  8
0
 10
0.578396
 20
0.140787
 30
0.0
 40
0
 41
0
  0
VERTEX
  8
0
 10
0.578287
 20
0.140517
 30
0.0
 40
0
 41
0
  0
VERTEX
  8
0
 10
0.577908
 20
0.137912
 30
0.0
 40
0
 41
0
  0
VERTEX
  8
0
 10
0.577908
 20
0.137044
 30
0.0
 40
0
 41
0
  0
VERTEX
  8
0
 10
0.577908
 20
0.134386
 30
0.0
 40
0
 41
0
  0
VERTEX
  8
0
 10
0.582844
 20
0.126248
 30
0.0
 40
0
 41
0
  0
VERTEX
  8
0
 10
0.592231
 20
0.121311
 30
0.0
 40
0
 41
0
  0
VERTEX
  8
0
 10
0.594456
 20
0.120768
 30
0.0
 40
0
 41
0
  0
VERTEX
  8
0
 10
0.596029
 20
0.120443
 30
0.0
 40
0
 41
0
  0
VERTEX
  8
0
 10
0.604167
 20
0.117676
 30
0.0
 40
0
 41
0
  0
VERTEX
  8
0
 10
0.609158
 20
0.113607
 30
0.0
 40
0
 41
0
  0
VERTEX
  8
0
 10
0.609158
 20
0.112196
 30
0.0
 40
0
 41
0
  0
VERTEX
  8
0
 10
0.609158
 20
0.112196
 30
0.0
 40
0
 41
0
  0
VERTEX
  8
0
 10
0.608996
 20
0.111599
 30
0.0
 40
0
 41
0
  0
VERTEX
  8
0
 10
0.608996
 20
0.111382
 30
0.0
 40
0
 41
0
  0
VERTEX
  8
0
 10
0.608832
 20
0.110406
 30
0.0
 40
0
 41
0
  0
VERTEX
  8
0
 10
0.598958
 20
0.105306
 30
0.0
 40
0
 41
0
  0
VERTEX
  8
0
 10
0.595703
 20
0.105306
 30
0.0
 40
0
 41
0
  0
VERTEX
  8
0
 10
0.592665
 20
0.105306
 30
0.0
 40
0
 41
0
  0
VERTEX
  8
0
 10
0.584364
 20
0.11263
 30
0.0
 40
0
 41
0
  0
VERTEX
  8
0
 10
0.583658
 20
0.114204
 30
0.0
 40
0
 41
0
  0
VERTEX
  8
0
 10
0.568197
 20
0.10357
 30
0.0
 40
0
 41
0
  0
VERTEX
  8
0
 10
0.569553
 20
0.10064
 30
0.0
 40
0
 41
0
  0
VERTEX
  8
0
 10
0.579156
 20
0.0919596
 30
0.0
 40
0
 41
0
  0
VERTEX
  8
0
 10
0.588976
 20
0.0890842
 30
0.0
 40
0
 41
0
  0
VERTEX
  8
0
 10
0.592285
 20
0.0890842
 30
0.0
 40
0
 41
0
  0
VERTEX
  8
0
 10
0.597493
 20
0.0890842
 30
0.0
 40
0
 41
0
  0
VERTEX
  8
0
 10
0.613226
 20
0.0948893
 30
0.0
 40
0
 41
0
  0
VERTEX
  8
0
 10
0.625
 20
0.107747
 30
0.0
 40
0
 41
0
  0
VERTEX
  8
0
 10
0.625868
 20
0.111274
 30
0.0
 40
0
 41
0
  0
VERTEX
  8
0
 10
0.625922
 20
0.111654
 30
0.0
 40
0
 41
0
  0
VERTEX
  8
0
 10
0.626357
 20
0.114638
 30
0.0
 40
0
 41
0
  0
VERTEX
  8
0
 10
0.626357
 20
0.115614
 30
0.0
 40
0
 41
0
  0
VERTEX
  8
0
 10
0.626357
 20
0.118381
 30
0.0
 40
0
 41
0
  0
VERTEX
  8
0
 10
0.622017
 20
0.126682
 30
0.0
 40
0
 41
0
  0
VERTEX
  8
0
 10
0.613336
 20
0.131944
 30
0.0
 40
0
 41
0
  0
VERTEX
  8
0
 10
0.611165
 20
0.132487
 30
0.0
 40
0
 41
0
  0
VERTEX
  8
0
 10
0.6097
 20
0.132867
 30
0.0
 40
0
 41
0
  0
VERTEX
  8
0
 10
0.601238
 20
0.135579
 30
0.0
 40
0
 41
0
  0
VERTEX
  8
0
 10
0.595703
 20
0.139486
 30
0.0
 40
0
 41
0
  0
VERTEX
  8
0
 10
0.595703
 20
0.140787
 30
0.0
 40
0
 41
0
  0
VERTEX
  8
0
 10
0.595703
 20
0.141276
 30
0.0
 40
0
 41
0
  0
VERTEX
  8
0
 10
0.595975
 20
0.142524
 30
0.0
 40
0
 41
0
  0
VERTEX
  8
0
 10
0.605143
 20
0.148438
 30
0.0
 40
0
 41
0
  0
VERTEX
  8
0
 10
0.606662
 20
0.148438
 30
0.0
 40
0
 41
0
  0
VERTEX
  8
0
 10
0.609592
 20
0.148438
 30
0.0
 40
0
 41
0
  0
VERTEX
  8
0
 10
0.617947
 20
0.139811
 30
0.0
 40
0
 41
0
  0
VERTEX
  8
0
 10
0.618381
 20
0.139051
 30
0.0
 40
0
 41
0
  0
VERTEX
  8
0
 10
0.631944
 20
0.147678
 30
0.0
 40
0
 41
0
  0
SEQEND
 8
0
  0
POLYLINE
  8
0
 62
     1
 66
     1
 10
0
 20
0
 30
0.0
 70
     1
 40
0
 41
0
  0
VERTEX
  8
0
 10
0.652018
 20
0.110623
 30
0.0
 40
0
 41
0
  0
VERTEX
  8
0
 10
0.649849
 20
0.110623
 30
0.0
 40
0
 41
0
  0
VERTEX
  8
0
 10
0.643392
 20
0.107313
 30
0.0
 40
0
 41
0
  0
VERTEX
  8
0
 10
0.638835
 20
0.101074
 30
0.0
 40
0
 41
0
  0
VERTEX
  8
0
 10
0.638564
 20
0.0995551
 30
0.0
 40
0
 41
0
  0
VERTEX
  8
0
 10
0.63851
 20
0.0993924
 30
0.0
 40
0
 41
0
  0
VERTEX
  8
0
 10
0.638237
 20
0.0977647
 30
0.0
 40
0
 41
0
  0
VERTEX
  8
0
 10
0.638237
 20
0.0971679
 30
0.0
 40
0
 41
0
  0
VERTEX
  8
0
 10
0.638237
 20
0.0951064
 30
0.0
 40
0
 41
0
  0
VERTEX
  8
0
 10
0.645019
 20
0.0887587
 30
0.0
 40
0
 41
0
  0
VERTEX
  8
0
 10
0.647299
 20
0.0887587
 30
0.0
 40
0
 41
0
  0
VERTEX
  8
0
 10
0.649468
 20
0.0887587
 30
0.0
 40
0
 41
0
  0
VERTEX
  8
0
 10
0.655979
 20
0.0919054
 30
0.0
 40
0
 41
0
  0
VERTEX
  8
0
 10
0.660753
 20
0.098036
 30
0.0
 40
0
 41
0
  0
VERTEX
  8
0
 10
0.661079
 20
0.0995551
 30
0.0
 40
0
 41
0
  0
VERTEX
  8
0
 10
0.661079
 20
0.0997721
 30
0.0
 40
0
 41
0
  0
VERTEX
  8
0
 10
0.661187
 20
0.101128
 30
0.0
 40
0
 41
0
  0
VERTEX
  8
0
 10
0.661187
 20
0.101563
 30
0.0
 40
0
 41
0
  0
VERTEX
  8
0
 10
0.661187
 20
0.103841
 30
0.0
 40
0
 41
0
  0
VERTEX
  8
0
 10
0.654297
 20
0.110623
 30
0.0
 40
0
 41
0
  0
VERTEX
  8
0
 10
0.652018
 20
0.110623
 30
0.0
 40
0
 41
0
  0
SEQEND
 8
0
  0
POLYLINE
  8
0
 62
     1
 66
     1
 10
0
 20
0
 30
0.0
 70
     1
 40
0
 41
0
  0
VERTEX
  8
0
 10
0.661838
 20
0.156575
 30
0.0
 40
0
 41
0
  0
VERTEX
  8
0
 10
0.659668
 20
0.156575
 30
0.0
 40
0
 41
0
  0
VERTEX
  8
0
 10
0.653212
 20
0.153321
 30
0.0
 40
0
 41
0
  0
VERTEX
  8
0
 10
0.648546
 20
0.147026
 30
0.0
 40
0
 41
0
  0
VERTEX
  8
0
 10
0.648221
 20
0.145454
 30
0.0
 40
0
 41
0
  0
VERTEX
  8
0
 10
0.648167
 20
0.14529
 30
0.0
 40
0
 41
0
  0
VERTEX
  8
0
 10
0.648113
 20
0.143826
 30
0.0
 40
0
 41
0
  0
VERTEX
  8
0
 10
0.648113
 20
0.143283
 30
0.0
 40
0
 41
0
  0
VERTEX
  8
0
 10
0.648113
 20
0.141168
 30
0.0
 40
0
 41
0
  0
VERTEX
  8
0
 10
0.654893
 20
0.13482
 30
0.0
 40
0
 41
0
  0
VERTEX
  8
0
 10
0.657172
 20
0.13482
 30
0.0
 40
0
 41
0
  0
VERTEX
  8
0
 10
0.659289
 20
0.13482
 30
0.0
 40
0
 41
0
  0
VERTEX
  8
0
 10
0.665744
 20
0.137858
 30
0.0
 40
0
 41
0
  0
VERTEX
  8
0
 10
0.67041
 20
0.143935
 30
0.0
 40
0
 41
0
  0
VERTEX
  8
0
 10
0.670736
 20
0.145454
 30
0.0
 40
0
 41
0
  0
VERTEX
  8
0
 10
0.670736
 20
0.145671
 30
0.0
 40
0
 41
0
  0
VERTEX
  8
0
 10
0.671061
 20
0.147299
 30
0.0
 40
0
 41
0
  0
VERTEX
  8
0
 10
0.671061
 20
0.147786
 30
0.0
 40
0
 41
0
  0
VERTEX
  8
0
 10
0.671061
 20
0.150011
 30
0.0
 40
0
 41
0
  0
VERTEX
  8
0
 10
0.664117
 20
0.156575
 30
0.0
 40
0
 41
0
  0
VERTEX
  8
0
 10
0.661838
 20
0.156575
 30
0.0
 40
0
 41
0
  0
SEQEND
 8
0
  0
POLYLINE
  8
0
 62
     1
 66
     1
 10
0
 20
0
 30
0.0
 70
     1
 40
0
 41
0
  0
VERTEX
  8
0
 10
0.730903
 20
0.208279
 30
0.0
 40
0
 41
0
  0
VERTEX
  8
0
 10
0.667589
 20
0.0782878
 30
0.0
 40
0
 41
0
  0
VERTEX
  8
0
 10
0.684353
 20
0.0782878
 30
0.0
 40
0
 41
0
  0
VERTEX
  8
0
 10
0.74745
 20
0.208279
 30
0.0
 40
0
 41
0
  0
VERTEX
  8
0
 10
0.730903
 20
0.208279
 30
0.0
 40
0
 41
0
  0
SEQEND
 8
0
  0
POLYLINE
  8
0
 62
     1
 66
     1
 10
0
 20
0
 30
0.0
 70
     1
 40
0
 41
0
  0
VERTEX
  8
0
 10
0.785536
 20
0.208279
 30
0.0
 40
0
 41
0
  0
VERTEX
  8
0
 10
0.722222
 20
0.0782878
 30
0.0
 40
0
 41
0
  0
VERTEX
  8
0
 10
0.738932
 20
0.0782878
 30
0.0
 40
0
 41
0
  0
VERTEX
  8
0
 10
0.802083
 20
0.208279
 30
0.0
 40
0
 41
0
  0
VERTEX
  8
0
 10
0.785536
 20
0.208279
 30
0.0
 40
0
 41
0
  0
SEQEND
 8
0
  0
POLYLINE
  8
0
 62
     1
 66
     1
 10
0
 20
0
 30
0.0
 70
     1
 40
0
 41
0
  0
VERTEX
  8
0
 10
0.8361
 20
0.162651
 30
0.0
 40
0
 41
0
  0
VERTEX
  8
0
 10
0.828993
 20
0.162651
 30
0.0
 40
0
 41
0
  0
VERTEX
  8
0
 10
0.807781
 20
0.151964
 30
0.0
 40
0
 41
0
  0
VERTEX
  8
0
 10
0.792481
 20
0.130968
 30
0.0
 40
0
 41
0
  0
VERTEX
  8
0
 10
0.791396
 20
0.12576
 30
0.0
 40
0
 41
0
  0
VERTEX
  8
0
 10
0.791233
 20
0.125108
 30
0.0
 40
0
 41
0
  0
VERTEX
  8
0
 10
0.790636
 20
0.1199
 30
0.0
 40
0
 41
0
  0
VERTEX
  8
0
 10
0.790636
 20
0.11811
 30
0.0
 40
0
 41
0
  0
VERTEX
  8
0
 10
0.790636
 20
0.112956
 30
0.0
 40
0
 41
0
  0
VERTEX
  8
0
 10
0.798936
 20
0.0974935
 30
0.0
 40
0
 41
0
  0
VERTEX
  8
0
 10
0.81505
 20
0.0893554
 30
0.0
 40
0
 41
0
  0
VERTEX
  8
0
 10
0.820475
 20
0.0893554
 30
0.0
 40
0
 41
0
  0
VERTEX
  8
0
 10
0.827419
 20
0.0893554
 30
0.0
 40
0
 41
0
  0
VERTEX
  8
0
 10
0.845757
 20
0.097385
 30
0.0
 40
0
 41
0
  0
VERTEX
  8
0
 10
0.848253
 20
0.0990668
 30
0.0
 40
0
 41
0
  0
VERTEX
  8
0
 10
0.839844
 20
0.111545
 30
0.0
 40
0
 41
0
  0
VERTEX
  8
0
 10
0.83865
 20
0.110569
 30
0.0
 40
0
 41
0
  0
VERTEX
  8
0
 10
0.8278
 20
0.105306
 30
0.0
 40
0
 41
0
  0
VERTEX
  8
0
 10
0.824219
 20
0.105306
 30
0.0
 40
0
 41
0
  0
VERTEX
  8
0
 10
0.821615
 20
0.105306
 30
0.0
 40
0
 41
0
  0
VERTEX
  8
0
 10
0.813857
 20
0.109809
 30
0.0
 40
0
 41
0
  0
VERTEX
  8
0
 10
0.809842
 20
0.118164
 30
0.0
 40
0
 41
0
  0
VERTEX
  8
0
 10
0.809842
 20
0.120931
 30
0.0
 40
0
 41
0
  0
VERTEX
  8
0
 10
0.809842
 20
0.122179
 30
0.0
 40
0
 41
0
  0
VERTEX
  8
0
 10
0.810331
 20
0.12538
 30
0.0
 40
0
 41
0
  0
VERTEX
  8
0
 10
0.810439
 20
0.12576
 30
0.0
 40
0
 41
0
  0
VERTEX
  8
0
 10
0.811035
 20
0.128581
 30
0.0
 40
0
 41
0
  0
VERTEX
  8
0
 10
0.818847
 20
0.140408
 30
0.0
 40
0
 41
0
  0
VERTEX
  8
0
 10
0.829428
 20
0.146701
 30
0.0
 40
0
 41
0
  0
VERTEX
  8
0
 10
0.832954
 20
0.146701
 30
0.0
 40
0
 41
0
  0
VERTEX
  8
0
 10
0.836154
 20
0.146701
 30
0.0
 40
0
 41
0
  0
VERTEX
  8
0
 10
0.845107
 20
0.14095
 30
0.0
 40
0
 41
0
  0
VERTEX
  8
0
 10
0.845921
 20
0.139974
 30
0.0
 40
0
 41
0
  0
VERTEX
  8
0
 10
0.859538
 20
0.151585
 30
0.0
 40
0
 41
0
  0
VERTEX
  8
0
 10
0.858018
 20
0.153646
 30
0.0
 40
0
 41
0
  0
VERTEX
  8
0
 10
0.838053
 20
0.162543
 30
0.0
 40
0
 41
0
  0
VERTEX
  8
0
 10
0.8361
 20
0.162651
 30
0.0
 40
0
 41
0
  0
SEQEND
 8
0
  0
POLYLINE
  8
0
 62
     1
 66
     1
 10
0
 20
0
 30
0.0
 70
     1
 40
0
 41
0
  0
VERTEX
  8
0
 10
0.910699
 20
0.162651
 30
0.0
 40
0
 41
0
  0
VERTEX
  8
0
 10
0.903429
 20
0.162651
 30
0.0
 40
0
 41
0
  0
VERTEX
  8
0
 10
0.881782
 20
0.151964
 30
0.0
 40
0
 41
0
  0
VERTEX
  8
0
 10
0.866319
 20
0.130968
 30
0.0
 40
0
 41
0
  0
VERTEX
  8
0
 10
0.865235
 20
0.12576
 30
0.0
 40
0
 41
0
  0
VERTEX
  8
0
 10
0.865072
 20
0.125108
 30
0.0
 40
0
 41
0
  0
VERTEX
  8
0
 10
0.864475
 20
0.1199
 30
0.0
 40
0
 41
0
  0
VERTEX
  8
0
 10
0.864475
 20
0.11811
 30
0.0
 40
0
 41
0
  0
VERTEX
  8
0
 10
0.864475
 20
0.11301
 30
0.0
 40
0
 41
0
  0
VERTEX
  8
0
 10
0.872939
 20
0.0975478
 30
0.0
 40
0
 41
0
  0
VERTEX
  8
0
 10
0.88954
 20
0.0893554
 30
0.0
 40
0
 41
0
  0
VERTEX
  8
0
 10
0.895074
 20
0.0893554
 30
0.0
 40
0
 41
0
  0
VERTEX
  8
0
 10
0.902181
 20
0.0893554
 30
0.0
 40
0
 41
0
  0
VERTEX
  8
0
 10
0.923665
 20
0.0999349
 30
0.0
 40
0
 41
0
  0
VERTEX
  8
0
 10
0.938965
 20
0.120768
 30
0.0
 40
0
 41
0
  0
VERTEX
  8
0
 10
0.940104
 20
0.125922
 30
0.0
 40
0
 41
0
  0
VERTEX
  8
0
 10
0.940212
 20
0.126628
 30
0.0
 40
0
 41
0
  0
VERTEX
  8
0
 10
0.940864
 20
0.131999
 30
0.0
 40
0
 41
0
  0
VERTEX
  8
0
 10
0.940864
 20
0.133735
 30
0.0
 40
0
 41
0
  0
VERTEX
  8
0
 10
0.940864
 20
0.138943
 30
0.0
 40
0
 41
0
  0
VERTEX
  8
0
 10
0.932508
 20
0.15446
 30
0.0
 40
0
 41
0
  0
VERTEX
  8
0
 10
0.916124
 20
0.162651
 30
0.0
 40
0
 41
0
  0
VERTEX
  8
0
 10
0.910699
 20
0.162651
 30
0.0
 40
0
 41
0
  0
SEQEND
 8
0
  0
POLYLINE
  8
0
 62
     1
 66
     1
 10
0
 20
0
 30
0.0
 70
     1
 40
0
 41
0
  0
VERTEX
  8
0
 10
0.907443
 20
0.146701
 30
0.0
 40
0
 41
0
  0
VERTEX
  8
0
 10
0.909993
 20
0.146701
 30
0.0
 40
0
 41
0
  0
VERTEX
  8
0
 10
0.917751
 20
0.142036
 30
0.0
 40
0
 41
0
  0
VERTEX
  8
0
 10
0.921658
 20
0.133409
 30
0.0
 40
0
 41
0
  0
VERTEX
  8
0
 10
0.921658
 20
0.13048
 30
0.0
 40
0
 41
0
  0
VERTEX
  8
0
 10
0.921658
 20
0.12934
 30
0.0
 40
0
 41
0
  0
VERTEX
  8
0
 10
0.921224
 20
0.126194
 30
0.0
 40
0
 41
0
  0
VERTEX
  8
0
 10
0.921169
 20
0.12576
 30
0.0
 40
0
 41
0
  0
VERTEX
  8
0
 10
0.920518
 20
0.122993
 30
0.0
 40
0
 41
0
  0
VERTEX
  8
0
 10
0.912706
 20
0.111328
 30
0.0
 40
0
 41
0
  0
VERTEX
  8
0
 10
0.902181
 20
0.105306
 30
0.0
 40
0
 41
0
  0
VERTEX
  8
0
 10
0.898708
 20
0.105306
 30
0.0
 40
0
 41
0
  0
VERTEX
  8
0
 10
0.89605
 20
0.105306
 30
0.0
 40
0
 41
0
  0
VERTEX
  8
0
 10
0.888183
 20
0.109809
 30
0.0
 40
0
 41
0
  0
VERTEX
  8
0
 10
0.884169
 20
0.118164
 30
0.0
 40
0
 41
0
  0
VERTEX
  8
0
 10
0.884169
 20
0.120931
 30
0.0
 40
0
 41
0
  0
VERTEX
  8
0
 10
0.884169
 20
0.122179
 30
0.0
 40
0
 41
0
  0
VERTEX
  8
0
 10
0.884657
 20
0.12538
 30
0.0
 40
0
 41
0
  0
VERTEX
  8
0
 10
0.884765
 20
0.12576
 30
0.0
 40
0
 41
0
  0
VERTEX
  8
0
 10
0.885308
 20
0.128581
 30
0.0
 40
0
 41
0
  0
VERTEX
  8
0
 10
0.893175
 20
0.140408
 30
0.0
 40
0
 41
0
  0
VERTEX
  8
0
 10
0.903863
 20
0.146701
 30
0.0
 40
0
 41
0
  0
VERTEX
  8
0
 10
0.907443
 20
0.146701
 30
0.0
 40
0
 41
0
  0
SEQEND
 8
0
  0
POLYLINE
  8
0
 62
     1
 66
     1
 10
0
 20
0
 30
0.0
 70
     1
 40
0
 41
0
  0
VERTEX
  8
0
 10
0.973579
 20
0.106554
 30
0.0
 40
0
 41
0
  0
VERTEX
  8
0
 10
1.01346
 20
0.139051
 30
0.0
 40
0
 41
0
  0
VERTEX
  8
0
 10
1.01611
 20
0.141872
 30
0.0
 40
0
 41
0
  0
VERTEX
  8
0
 10
1.03071
 20
0.166829
 30
0.0
 40
0
 41
0
  0
VERTEX
  8
0
 10
1.03125
 20
0.169217
 30
0.0
 40
0
 41
0
  0
VERTEX
  8
0
 10
1.03141
 20
0.169922
 30
0.0
 40
0
 41
0
  0
VERTEX
  8
0
 10
1.03201
 20
0.175293
 30
0.0
 40
0
 41
0
  0
VERTEX
  8
0
 10
1.03201
 20
0.177029
 30
0.0
 40
0
 41
0
  0
VERTEX
  8
0
 10
1.03201
 20
0.181694
 30
0.0
 40
0
 41
0
  0
VERTEX
  8
0
 10
1.02414
 20
0.195638
 30
0.0
 40
0
 41
0
  0
VERTEX
  8
0
 10
1.00803
 20
0.202365
 30
0.0
 40
0
 41
0
  0
VERTEX
  8
0
 10
1.00266
 20
0.202365
 30
0.0
 40
0
 41
0
  0
VERTEX
  8
0
 10
0.998643
 20
0.202203
 30
0.0
 40
0
 41
0
  0
VERTEX
  8
0
 10
0.979546
 20
0.193306
 30
0.0
 40
0
 41
0
  0
VERTEX
  8
0
 10
0.966635
 20
0.176486
 30
0.0
 40
0
 41
0
  0
VERTEX
  8
0
 10
0.965767
 20
0.172364
 30
0.0
 40
0
 41
0
  0
VERTEX
  8
0
 10
0.983128
 20
0.172364
 30
0.0
 40
0
 41
0
  0
VERTEX
  8
0
 10
0.983561
 20
0.173774
 30
0.0
 40
0
 41
0
  0
VERTEX
  8
0
 10
0.988878
 20
0.180176
 30
0.0
 40
0
 41
0
  0
VERTEX
  8
0
 10
0.996528
 20
0.183757
 30
0.0
 40
0
 41
0
  0
VERTEX
  8
0
 10
0.999078
 20
0.183757
 30
0.0
 40
0
 41
0
  0
VERTEX
  8
0
 10
1.0013
 20
0.183757
 30
0.0
 40
0
 41
0
  0
VERTEX
  8
0
 10
1.00814
 20
0.180393
 30
0.0
 40
0
 41
0
  0
VERTEX
  8
0
 10
1.01139
 20
0.173882
 30
0.0
 40
0
 41
0
  0
VERTEX
  8
0
 10
1.01139
 20
0.171713
 30
0.0
 40
0
 41
0
  0
VERTEX
  8
0
 10
1.01139
 20
0.170899
 30
0.0
 40
0
 41
0
  0
VERTEX
  8
0
 10
1.01118
 20
0.168619
 30
0.0
 40
0
 41
0
  0
VERTEX
  8
0
 10
1.01112
 20
0.168294
 30
0.0
 40
0
 41
0
  0
VERTEX
  8
0
 10
1.01069
 20
0.166613
 30
0.0
 40
0
 41
0
  0
VERTEX
  8
0
 10
0.998535
 20
0.149468
 30
0.0
 40
0
 41
0
  0
VERTEX
  8
0
 10
0.996257
 20
0.14719
 30
0.0
 40
0
 41
0
  0
VERTEX
  8
0
 10
0.951878
 20
0.106554
 30
0.0
 40
0
 41
0
  0
VERTEX
  8
0
 10
0.948622
 20
0.0910915
 30
0.0
 40
0
 41
0
  0
VERTEX
  8
0
 10
1.01405
 20
0.0910915
 30
0.0
 40
0
 41
0
  0
VERTEX
  8
0
 10
1.01736
 20
0.106554
 30
0.0
 40
0
 41
0
  0
VERTEX
  8
0
 10
0.973579
 20
0.106554
 30
0.0
 40
0
 41
0
  0
SEQEND
 8
0
  0
POLYLINE
  8
0
 62
     1
 66
     1
 10
0
 20
0
 30
0.0
 70
     1
 40
0
 41
0
  0
VERTEX
  8
0
 10
1.04839
 20
0.108453
 30
0.0
 40
0
 41
0
  0
VERTEX
  8
0
 10
1.04536
 20
0.108453
 30
0.0
 40
0
 41
0
  0
VERTEX
  8
0
 10
1.03662
 20
0.0999349
 30
0.0
 40
0
 41
0
  0
VERTEX
  8
0
 10
1.03635
 20
0.0985786
 30
0.0
 40
0
 41
0
  0
VERTEX
  8
0
 10
1.0363
 20
0.0984158
 30
0.0
 40
0
 41
0
  0
VERTEX
  8
0
 10
1.03608
 20
0.096951
 30
0.0
 40
0
 41
0
  0
VERTEX
  8
0
 10
1.03608
 20
0.0964085
 30
0.0
 40
0
 41
0
  0
VERTEX
  8
0
 10
1.03608
 20
0.0945096
 30
0.0
 40
0
 41
0
  0
VERTEX
  8
0
 10
1.0421
 20
0.0887587
 30
0.0
 40
0
 41
0
  0
VERTEX
  8
0
 10
1.04416
 20
0.0887587
 30
0.0
 40
0
 41
0
  0
VERTEX
  8
0
 10
1.04725
 20
0.0887587
 30
0.0
 40
0
 41
0
  0
VERTEX
  8
0
 10
1.05637
 20
0.0972222
 30
0.0
 40
0
 41
0
  0
VERTEX
  8
0
 10
1.05669
 20
0.0985786
 30
0.0
 40
0
 41
0
  0
VERTEX
  8
0
 10
1.05669
 20
0.0987414
 30
0.0
 40
0
 41
0
  0
VERTEX
  8
0
 10
1.05686
 20
0.0999349
 30
0.0
 40
0
 41
0
  0
VERTEX
  8
0
 10
1.05686
 20
0.100315
 30
0.0
 40
0
 41
0
  0
VERTEX
  8
0
 10
1.05686
 20
0.102376
 30
0.0
 40
0
 41
0
  0
VERTEX
  8
0
 10
1.05051
 20
0.108453
 30
0.0
 40
0
 41
0
  0
VERTEX
  8
0
 10
1.04839
 20
0.108453
 30
0.0
 40
0
 41
0
  0
SEQEND
 8
0
  0
POLYLINE
  8
0
 62
     1
 66
     1
 10
0
 20
0
 30
0.0
 70
     1
 40
0
 41
0
  0
VERTEX
  8
0
 10
1.11686
 20
0.188747
 30
0.0
 40
0
 41
0
  0
VERTEX
  8
0
 10
1.09999
 20
0.188747
 30
0.0
 40
0
 41
0
  0
VERTEX
  8
0
 10
1.09418
 20
0.161079
 30
0.0
 40
0
 41
0
  0
VERTEX
  8
0
 10
1.08529
 20
0.161079
 30
0.0
 40
0
 41
0
  0
VERTEX
  8
0
 10
1.08214
 20
0.146539
 30
0.0
 40
0
 41
0
  0
VERTEX
  8
0
 10
1.09109
 20
0.146539
 30
0.0
 40
0
 41
0
  0
VERTEX
  8
0
 10
1.07937
 20
0.0910915
 30
0.0
 40
0
 41
0
  0
VERTEX
  8
0
 10
1.09625
 20
0.0910915
 30
0.0
 40
0
 41
0
  0
VERTEX
  8
0
 10
1.10796
 20
0.146539
 30
0.0
 40
0
 41
0
  0
VERTEX
  8
0
 10
1.1167
 20
0.146539
 30
0.0
 40
0
 41
0
  0
VERTEX
  8
0
 10
1.11985
 20
0.161079
 30
0.0
 40
0
 41
0
  0
VERTEX
  8
0
 10
1.11106
 20
0.161079
 30
0.0
 40
0
 41
0
  0
VERTEX
  8
0
 10
1.11686
 20
0.188747
 30
0.0
 40
0
 41
0
  0
SEQEND
 8
0
  0
POLYLINE
  8
0
 62
     1
 66
     1
 10
0
 20
0
 30
0.0
 70
     1
 40
0
 41
0
  0
VERTEX
  8
0
 10
1.16748
 20
0.162651
 30
0.0
 40
0
 41
0
  0
VERTEX
  8
0
 10
1.16037
 20
0.162651
 30
0.0
 40
0
 41
0
  0
VERTEX
  8
0
 10
1.13911
 20
0.151964
 30
0.0
 40
0
 41
0
  0
VERTEX
  8
0
 10
1.12419
 20
0.130968
 30
0.0
 40
0
 41
0
  0
VERTEX
  8
0
 10
1.1231
 20
0.12576
 30
0.0
 40
0
 41
0
  0
VERTEX
  8
0
 10
1.12294
 20
0.125108
 30
0.0
 40
0
 41
0
  0
VERTEX
  8
0
 10
1.12234
 20
0.1199
 30
0.0
 40
0
 41
0
  0
VERTEX
  8
0
 10
1.12234
 20
0.11811
 30
0.0
 40
0
 41
0
  0
VERTEX
  8
0
 10
1.12234
 20
0.112956
 30
0.0
 40
0
 41
0
  0
VERTEX
  8
0
 10
1.1307
 20
0.0974935
 30
0.0
 40
0
 41
0
  0
VERTEX
  8
0
 10
1.14714
 20
0.0893554
 30
0.0
 40
0
 41
0
  0
VERTEX
  8
0
 10
1.15267
 20
0.0893554
 30
0.0
 40
0
 41
0
  0
VERTEX
  8
0
 10
1.15598
 20
0.0894097
 30
0.0
 40
0
 41
0
  0
VERTEX
  8
0
 10
1.17198
 20
0.0934788
 30
0.0
 40
0
 41
0
  0
VERTEX
  8
0
 10
1.18576
 20
0.102376
 30
0.0
 40
0
 41
0
  0
VERTEX
  8
0
 10
1.18799
 20
0.104818
 30
0.0
 40
0
 41
0
  0
VERTEX
  8
0
 10
1.17887
 20
0.114041
 30
0.0
 40
0
 41
0
  0
VERTEX
  8
0
 10
1.17725
 20
0.11263
 30
0.0
 40
0
 41
0
  0
VERTEX
  8
0
 10
1.16184
 20
0.104818
 30
0.0
 40
0
 41
0
  0
VERTEX
  8
0
 10
1.15674
 20
0.104818
 30
0.0
 40
0
 41
0
  0
VERTEX
  8
0
 10
1.15609
 20
0.104818
 30
0.0
 40
0
 41
0
  0
VERTEX
  8
0
 10
1.15316
 20
0.104818
 30
0.0
 40
0
 41
0
  0
VERTEX
  8
0
 10
1.14453
 20
0.109212
 30
0.0
 40
0
 41
0
  0
VERTEX
  8
0
 10
1.14014
 20
0.117079
 30
0.0
 40
0
 41
0
  0
VERTEX
  8
0
 10
1.14014
 20
0.119683
 30
0.0
 40
0
 41
0
  0
VERTEX
  8
0
 10
1.14014
 20
0.120551
 30
0.0
 40
0
 41
0
  0
VERTEX
  8
0
 10
1.14035
 20
0.12283
 30
0.0
 40
0
 41
0
  0
VERTEX
  8
0
 10
1.14046
 20
0.123101
 30
0.0
 40
0
 41
0
  0
VERTEX
  8
0
 10
1.19341
 20
0.123101
 30
0.0
 40
0
 41
0
  0
VERTEX
  8
0
 10
1.19482
 20
0.129557
 30
0.0
 40
0
 41
0
  0
VERTEX
  8
0
 10
1.19499
 20
0.130317
 30
0.0
 40
0
 41
0
  0
VERTEX
  8
0
 10
1.1958
 20
0.136068
 30
0.0
 40
0
 41
0
  0
VERTEX
  8
0
 10
1.1958
 20
0.137967
 30
0.0
 40
0
 41
0
  0
VERTEX
  8
0
 10
1.1958
 20
0.142524
 30
0.0
 40
0
 41
0
  0
VERTEX
  8
0
 10
1.18837
 20
0.156142
 30
0.0
 40
0
 41
0
  0
VERTEX
  8
0
 10
1.17329
 20
0.162651
 30
0.0
 40
0
 41
0
  0
VERTEX
  8
0
 10
1.16829
 20
0.162651
 30
0.0
 40
0
 41
0
  0
VERTEX
  8
0
 10
1.16748
 20
0.162651
 30
0.0
 40
0
 41
0
  0
SEQEND
 8
0
  0
POLYLINE
  8
0
 62
     1
 66
     1
 10
0
 20
0
 30
0.0
 70
     1
 40
0
 41
0
  0
VERTEX
  8
0
 10
1.1786
 20
0.136556
 30
0.0
 40
0
 41
0
  0
VERTEX
  8
0
 10
1.14486
 20
0.136556
 30
0.0
 40
0
 41
0
  0
VERTEX
  8
0
 10
1.1454
 20
0.137641
 30
0.0
 40
0
 41
0
  0
VERTEX
  8
0
 10
1.15234
 20
0.143229
 30
0.0
 40
0
 41
0
  0
VERTEX
  8
0
 10
1.16124
 20
0.146701
 30
0.0
 40
0
 41
0
  0
VERTEX
  8
0
 10
1.16423
 20
0.146701
 30
0.0
 40
0
 41
0
  0
VERTEX
  8
0
 10
1.16672
 20
0.146701
 30
0.0
 40
0
 41
0
  0
VERTEX
  8
0
 10
1.17432
 20
0.144476
 30
0.0
 40
0
 41
0
  0
VERTEX
  8
0
 10
1.1786
 20
0.13878
 30
0.0
 40
0
 41
0
  0
VERTEX
  8
0
 10
1.1786
 20
0.136882
 30
0.0
 40
0
 41
0
  0
VERTEX
  8
0
 10
1.1786
 20
0.136556
 30
0.0
 40
0
 41
0
  0
SEQEND
 8
0
  0
POLYLINE
  8
0
 62
     1
 66
     1
 10
0
 20
0
 30
0.0
 70
     1
 40
0
 41
0
  0
VERTEX
  8
0
 10
1.25206
 20
0.162651
 30
0.0
 40
0
 41
0
  0
VERTEX
  8
0
 10
1.24495
 20
0.162651
 30
0.0
 40
0
 41
0
  0
VERTEX
  8
0
 10
1.22374
 20
0.151964
 30
0.0
 40
0
 41
0
  0
VERTEX
  8
0
 10
1.20844
 20
0.130968
 30
0.0
 40
0
 41
0
  0
VERTEX
  8
0
 10
1.20736
 20
0.12576
 30
0.0
 40
0
 41
0
  0
VERTEX
  8
0
 10
1.20719
 20
0.125108
 30
0.0
 40
0
 41
0
  0
VERTEX
  8
0
 10
1.20654
 20
0.1199
 30
0.0
 40
0
 41
0
  0
VERTEX
  8
0
 10
1.20654
 20
0.11811
 30
0.0
 40
0
 41
0
  0
VERTEX
  8
0
 10
1.20654
 20
0.112956
 30
0.0
 40
0
 41
0
  0
VERTEX
  8
0
 10
1.2149
 20
0.0974935
 30
0.0
 40
0
 41
0
  0
VERTEX
  8
0
 10
1.23101
 20
0.0893554
 30
0.0
 40
0
 41
0
  0
VERTEX
  8
0
 10
1.23644
 20
0.0893554
 30
0.0
 40
0
 41
0
  0
VERTEX
  8
0
 10
1.24338
 20
0.0893554
 30
0.0
 40
0
 41
0
  0
VERTEX
  8
0
 10
1.26172
 20
0.097385
 30
0.0
 40
0
 41
0
  0
VERTEX
  8
0
 10
1.26421
 20
0.0990668
 30
0.0
 40
0
 41
0
  0
VERTEX
  8
0
 10
1.25581
 20
0.111545
 30
0.0
 40
0
 41
0
  0
VERTEX
  8
0
 10
1.25461
 20
0.110569
 30
0.0
 40
0
 41
0
  0
VERTEX
  8
0
 10
1.24376
 20
0.105306
 30
0.0
 40
0
 41
0
  0
VERTEX
  8
0
 10
1.24018
 20
0.105306
 30
0.0
 40
0
 41
0
  0
VERTEX
  8
0
 10
1.23758
 20
0.105306
 30
0.0
 40
0
 41
0
  0
VERTEX
  8
0
 10
1.22982
 20
0.109809
 30
0.0
 40
0
 41
0
  0
VERTEX
  8
0
 10
1.2258
 20
0.118164
 30
0.0
 40
0
 41
0
  0
VERTEX
  8
0
 10
1.2258
 20
0.120931
 30
0.0
 40
0
 41
0
  0
VERTEX
  8
0
 10
1.2258
 20
0.122179
 30
0.0
 40
0
 41
0
  0
VERTEX
  8
0
 10
1.22629
 20
0.12538
 30
0.0
 40
0
 41
0
  0
VERTEX
  8
0
 10
1.2264
 20
0.12576
 30
0.0
 40
0
 41
0
  0
VERTEX
  8
0
 10
1.22694
 20
0.128581
 30
0.0
 40
0
 41
0
  0
VERTEX
  8
0
 10
1.23475
 20
0.140408
 30
0.0
 40
0
 41
0
  0
VERTEX
  8
0
 10
1.24533
 20
0.146701
 30
0.0
 40
0
 41
0
  0
VERTEX
  8
0
 10
1.24892
 20
0.146701
 30
0.0
 40
0
 41
0
  0
VERTEX
  8
0
 10
1.25212
 20
0.146701
 30
0.0
 40
0
 41
0
  0
VERTEX
  8
0
 10
1.26107
 20
0.14095
 30
0.0
 40
0
 41
0
  0
VERTEX
  8
0
 10
1.26188
 20
0.139974
 30
0.0
 40
0
 41
0
  0
VERTEX
  8
0
 10
1.2755
 20
0.151585
 30
0.0
 40
0
 41
0
  0
VERTEX
  8
0
 10
1.27398
 20
0.153646
 30
0.0
 40
0
 41
0
  0
VERTEX
  8
0
 10
1.25402
 20
0.162543
 30
0.0
 40
0
 41
0
  0
VERTEX
  8
0
 10
1.25206
 20
0.162651
 30
0.0
 40
0
 41
0
  0
SEQEND
 8
0
  0
POLYLINE
  8
0
 62
     1
 66
     1
 10
0
 20
0
 30
0.0
 70
     1
 40
0
 41
0
  0
VERTEX
  8
0
 10
1.35151
 20
0.13189
 30
0.0
 40
0
 41
0
  0
VERTEX
  8
0
 10
1.35167
 20
0.132921
 30
0.0
 40
0
 41
0
  0
VERTEX
  8
0
 10
1.35276
 20
0.140246
 30
0.0
 40
0
 41
0
  0
VERTEX
  8
0
 10
1.35276
 20
0.142632
 30
0.0
 40
0
 41
0
  0
VERTEX
  8
0
 10
1.35276
 20
0.146431
 30
0.0
 40
0
 41
0
  0
VERTEX
  8
0
 10
1.3469
 20
0.157824
 30
0.0
 40
0
 41
0
  0
VERTEX
  8
0
 10
1.33431
 20
0.162651
 30
0.0
 40
0
 41
0
  0
VERTEX
  8
0
 10
1.33013
 20
0.162651
 30
0.0
 40
0
 41
0
  0
VERTEX
  8
0
 10
1.32471
 20
0.162651
 30
0.0
 40
0
 41
0
  0
VERTEX
  8
0
 10
1.31017
 20
0.154243
 30
0.0
 40
0
 41
0
  0
VERTEX
  8
0
 10
1.30854
 20
0.152181
 30
0.0
 40
0
 41
0
  0
VERTEX
  8
0
 10
1.32042
 20
0.208279
 30
0.0
 40
0
 41
0
  0
VERTEX
  8
0
 10
1.3029
 20
0.208279
 30
0.0
 40
0
 41
0
  0
VERTEX
  8
0
 10
1.27805
 20
0.0910915
 30
0.0
 40
0
 41
0
  0
VERTEX
  8
0
 10
1.29557
 20
0.0910915
 30
0.0
 40
0
 41
0
  0
VERTEX
  8
0
 10
1.30371
 20
0.129395
 30
0.0
 40
0
 41
0
  0
VERTEX
  8
0
 10
1.30425
 20
0.131944
 30
0.0
 40
0
 41
0
  0
VERTEX
  8
0
 10
1.31066
 20
0.141276
 30
0.0
 40
0
 41
0
  0
VERTEX
  8
0
 10
1.32053
 20
0.145454
 30
0.0
 40
0
 41
0
  0
VERTEX
  8
0
 10
1.32384
 20
0.145454
 30
0.0
 40
0
 41
0
  0
VERTEX
  8
0
 10
1.3253
 20
0.145454
 30
0.0
 40
0
 41
0
  0
VERTEX
  8
0
 10
1.3329
 20
0.13916
 30
0.0
 40
0
 41
0
  0
VERTEX
  8
0
 10
1.3329
 20
0.137044
 30
0.0
 40
0
 41
0
  0
VERTEX
  8
0
 10
1.3329
 20
0.135634
 30
0.0
 40
0
 41
0
  0
VERTEX
  8
0
 10
1.33225
 20
0.131944
 30
0.0
 40
0
 41
0
  0
VERTEX
  8
0
 10
1.33214
 20
0.131402
 30
0.0
 40
0
 41
0
  0
VERTEX
  8
0
 10
1.32368
 20
0.0910915
 30
0.0
 40
0
 41
0
  0
VERTEX
  8
0
 10
1.34294
 20
0.0910915
 30
0.0
 40
0
 41
0
  0
VERTEX
  8
0
 10
1.35151
 20
0.13189
 30
0.0
 40
0
 41
0
  0
SEQEND
 8
0
  0
POLYLINE
  8
0
 62
     1
 66
     1
 10
0
 20
0
 30
0.0
 70
     1
 40
0
 41
0
  0
VERTEX
  8
0
 10
1.3737
 20
0.13265
 30
0.0
 40
0
 41
0
  0
VERTEX
  8
0
 10
1.37088
 20
0.119195
 30
0.0
 40
0
 41
0
  0
VERTEX
  8
0
 10
1.41026
 20
0.119195
 30
0.0
 40
0
 41
0
  0
VERTEX
  8
0
 10
1.41303
 20
0.13265
 30
0.0
 40
0
 41
0
  0
VERTEX
  8
0
 10
1.3737
 20
0.13265
 30
0.0
 40
0
 41
0
  0
SEQEND
 8
0
  0
POLYLINE
  8
0
 62
     1
 66
     1
 10
0
 20
0
 30
0.0
 70
     1
 40
0
 41
0
  0
VERTEX
  8
0
 10
1.45215
 20
0.208279
 30
0.0
 40
0
 41
0
  0
VERTEX
  8
0
 10
1.42731
 20
0.0910915
 30
0.0
 40
0
 41
0
  0
VERTEX
  8
0
 10
1.44482
 20
0.0910915
 30
0.0
 40
0
 41
0
  0
VERTEX
  8
0
 10
1.46967
 20
0.208279
 30
0.0
 40
0
 41
0
  0
VERTEX
  8
0
 10
1.45215
 20
0.208279
 30
0.0
 40
0
 41
0
  0
SEQEND
 8
0
  0
POLYLINE
  8
0
 62
     1
 66
     1
 10
0
 20
0
 30
0.0
 70
     1
 40
0
 41
0
  0
VERTEX
  8
0
 10
1.52794
 20
0.151693
 30
0.0
 40
0
 41
0
  0
VERTEX
  8
0
 10
1.52729
 20
0.153646
 30
0.0
 40
0
 41
0
  0
VERTEX
  8
0
 10
1.51508
 20
0.162651
 30
0.0
 40
0
 41
0
  0
VERTEX
  8
0
 10
1.51107
 20
0.162651
 30
0.0
 40
0
 41
0
  0
VERTEX
  8
0
 10
1.50456
 20
0.162651
 30
0.0
 40
0
 41
0
  0
VERTEX
  8
0
 10
1.48508
 20
0.152507
 30
0.0
 40
0
 41
0
  0
VERTEX
  8
0
 10
1.4714
 20
0.131402
 30
0.0
 40
0
 41
0
  0
VERTEX
  8
0
 10
1.47026
 20
0.125922
 30
0.0
 40
0
 41
0
  0
VERTEX
  8
0
 10
1.47006
 20
0.125054
 30
0.0
 40
0
 41
0
  0
VERTEX
  8
0
 10
1.46918
 20
0.118218
 30
0.0
 40
0
 41
0
  0
VERTEX
  8
0
 10
1.46918
 20
0.11594
 30
0.0
 40
0
 41
0
  0
VERTEX
  8
0
 10
1.46918
 20
0.111111
 30
0.0
 40
0
 41
0
  0
VERTEX
  8
0
 10
1.47618
 20
0.0966254
 30
0.0
 40
0
 41
0
  0
VERTEX
  8
0
 10
1.49061
 20
0.0895182
 30
0.0
 40
0
 41
0
  0
VERTEX
  8
0
 10
1.49544
 20
0.0895182
 30
0.0
 40
0
 41
0
  0
VERTEX
  8
0
 10
1.50082
 20
0.0895182
 30
0.0
 40
0
 41
0
  0
VERTEX
  8
0
 10
1.51557
 20
0.0982531
 30
0.0
 40
0
 41
0
  0
VERTEX
  8
0
 10
1.51699
 20
0.0999892
 30
0.0
 40
0
 41
0
  0
VERTEX
  8
0
 10
1.51514
 20
0.0910915
 30
0.0
 40
0
 41
0
  0
VERTEX
  8
0
 10
1.53228
 20
0.0910915
 30
0.0
 40
0
 41
0
  0
VERTEX
  8
0
 10
1.54715
 20
0.161079
 30
0.0
 40
0
 41
0
  0
VERTEX
  8
0
 10
1.52994
 20
0.161079
 30
0.0
 40
0
 41
0
  0
VERTEX
  8
0
 10
1.52794
 20
0.151693
 30
0.0
 40
0
 41
0
  0
SEQEND
 8
0
  0
POLYLINE
  8
0
 62
     1
 66
     1
 10
0
 20
0
 30
0.0
 70
     1
 40
0
 41
0
  0
VERTEX
  8
0
 10
1.49104
 20
0.125922
 30
0.0
 40
0
 41
0
  0
VERTEX
  8
0
 10
1.49169
 20
0.129069
 30
0.0
 40
0
 41
0
  0
VERTEX
  8
0
 10
1.49804
 20
0.140408
 30
0.0
 40
0
 41
0
  0
VERTEX
  8
0
 10
1.50683
 20
0.145454
 30
0.0
 40
0
 41
0
  0
VERTEX
  8
0
 10
1.50982
 20
0.145454
 30
0.0
 40
0
 41
0
  0
VERTEX
  8
0
 10
1.51226
 20
0.145454
 30
0.0
 40
0
 41
0
  0
VERTEX
  8
0
 10
1.51964
 20
0.141928
 30
0.0
 40
0
 41
0
  0
VERTEX
  8
0
 10
1.52311
 20
0.13444
 30
0.0
 40
0
 41
0
  0
VERTEX
  8
0
 10
1.52311
 20
0.13189
 30
0.0
 40
0
 41
0
  0
VERTEX
  8
0
 10
1.52311
 20
0.130425
 30
0.0
 40
0
 41
0
  0
VERTEX
  8
0
 10
1.52257
 20
0.126519
 30
0.0
 40
0
 41
0
  0
VERTEX
  8
0
 10
1.52246
 20
0.125922
 30
0.0
 40
0
 41
0
  0
VERTEX
  8
0
 10
1.52175
 20
0.122884
 30
0.0
 40
0
 41
0
  0
VERTEX
  8
0
 10
1.51492
 20
0.111437
 30
0.0
 40
0
 41
0
  0
VERTEX
  8
0
 10
1.50483
 20
0.10612
 30
0.0
 40
0
 41
0
  0
VERTEX
  8
0
 10
1.50151
 20
0.10612
 30
0.0
 40
0
 41
0
  0
VERTEX
  8
0
 10
1.49869
 20
0.10612
 30
0.0
 40
0
 41
0
  0
VERTEX
  8
0
 10
1.49029
 20
0.115723
 30
0.0
 40
0
 41
0
  0
VERTEX
  8
0
 10
1.49029
 20
0.118924
 30
0.0
 40
0
 41
0
  0
VERTEX
  8
0
 10
1.49029
 20
0.120714
 30
0.0
 40
0
 41
0
  0
VERTEX
  8
0
 10
1.49089
 20
0.125326
 30
0.0
 40
0
 41
0
  0
VERTEX
  8
0
 10
1.49104
 20
0.125922
 30
0.0
 40
0
 41
0
  0
SEQEND
 8
0
  0
POLYLINE
  8
0
 62
     1
 66
     1
 10
0
 20
0
 30
0.0
 70
     1
 40
0
 41
0
  0
VERTEX
  8
0
 10
1.61035
 20
0.127984
 30
0.0
 40
0
 41
0
  0
VERTEX
  8
0
 10
1.60965
 20
0.124783
 30
0.0
 40
0
 41
0
  0
VERTEX
  8
0
 10
1.60297
 20
0.11225
 30
0.0
 40
0
 41
0
  0
VERTEX
  8
0
 10
1.59397
 20
0.10612
 30
0.0
 40
0
 41
0
  0
VERTEX
  8
0
 10
1.59099
 20
0.10612
 30
0.0
 40
0
 41
0
  0
VERTEX
  8
0
 10
1.58849
 20
0.10612
 30
0.0
 40
0
 41
0
  0
VERTEX
  8
0
 10
1.58106
 20
0.110189
 30
0.0
 40
0
 41
0
  0
VERTEX
  8
0
 10
1.57785
 20
0.118273
 30
0.0
 40
0
 41
0
  0
VERTEX
  8
0
 10
1.57785
 20
0.120931
 30
0.0
 40
0
 41
0
  0
VERTEX
  8
0
 10
1.57785
 20
0.122721
 30
0.0
 40
0
 41
0
  0
VERTEX
  8
0
 10
1.5785
 20
0.127387
 30
0.0
 40
0
 41
0
  0
VERTEX
  8
0
 10
1.57867
 20
0.127984
 30
0.0
 40
0
 41
0
  0
VERTEX
  8
0
 10
1.57932
 20
0.131348
 30
0.0
 40
0
 41
0
  0
VERTEX
  8
0
 10
1.5861
 20
0.14171
 30
0.0
 40
0
 41
0
  0
VERTEX
  8
0
 10
1.59597
 20
0.145454
 30
0.0
 40
0
 41
0
  0
VERTEX
  8
0
 10
1.59928
 20
0.145454
 30
0.0
 40
0
 41
0
  0
VERTEX
  8
0
 10
1.60146
 20
0.145454
 30
0.0
 40
0
 41
0
  0
VERTEX
  8
0
 10
1.60796
 20
0.142958
 30
0.0
 40
0
 41
0
  0
VERTEX
  8
0
 10
1.61117
 20
0.136556
 30
0.0
 40
0
 41
0
  0
VERTEX
  8
0
 10
1.61117
 20
0.134386
 30
0.0
 40
0
 41
0
  0
VERTEX
  8
0
 10
1.61117
 20
0.132813
 30
0.0
 40
0
 41
0
  0
VERTEX
  8
0
 10
1.61046
 20
0.128581
 30
0.0
 40
0
 41
0
  0
VERTEX
  8
0
 10
1.61035
 20
0.127984
 30
0.0
 40
0
 41
0
  0
SEQEND
 8
0
  0
POLYLINE
  8
0
 62
     1
 66
     1
 10
0
 20
0
 30
0.0
 70
     1
 40
0
 41
0
  0
VERTEX
  8
0
 10
1.58382
 20
0.152507
 30
0.0
 40
0
 41
0
  0
VERTEX
  8
0
 10
1.59565
 20
0.208279
 30
0.0
 40
0
 41
0
  0
VERTEX
  8
0
 10
1.57878
 20
0.208279
 30
0.0
 40
0
 41
0
  0
VERTEX
  8
0
 10
1.55393
 20
0.0910915
 30
0.0
 40
0
 41
0
  0
VERTEX
  8
0
 10
1.57086
 20
0.0910915
 30
0.0
 40
0
 41
0
  0
VERTEX
  8
0
 10
1.57286
 20
0.100803
 30
0.0
 40
0
 41
0
  0
VERTEX
  8
0
 10
1.57357
 20
0.0987414
 30
0.0
 40
0
 41
0
  0
VERTEX
  8
0
 10
1.58578
 20
0.0893554
 30
0.0
 40
0
 41
0
  0
VERTEX
  8
0
 10
1.5899
 20
0.0893554
 30
0.0
 40
0
 41
0
  0
VERTEX
  8
0
 10
1.5964
 20
0.0893554
 30
0.0
 40
0
 41
0
  0
VERTEX
  8
0
 10
1.61604
 20
0.100152
 30
0.0
 40
0
 41
0
  0
VERTEX
  8
0
 10
1.62972
 20
0.122287
 30
0.0
 40
0
 41
0
  0
VERTEX
  8
0
 10
1.63097
 20
0.127984
 30
0.0
 40
0
 41
0
  0
VERTEX
  8
0
 10
1.63113
 20
0.128961
 30
0.0
 40
0
 41
0
  0
VERTEX
  8
0
 10
1.63222
 20
0.13623
 30
0.0
 40
0
 41
0
  0
VERTEX
  8
0
 10
1.63222
 20
0.138618
 30
0.0
 40
0
 41
0
  0
VERTEX
  8
0
 10
1.63222
 20
0.143175
 30
0.0
 40
0
 41
0
  0
VERTEX
  8
0
 10
1.625
 20
0.156739
 30
0.0
 40
0
 41
0
  0
VERTEX
  8
0
 10
1.61035
 20
0.162651
 30
0.0
 40
0
 41
0
  0
VERTEX
  8
0
 10
1.60553
 20
0.162651
 30
0.0
 40
0
 41
0
  0
VERTEX
  8
0
 10
1.6001
 20
0.162651
 30
0.0
 40
0
 41
0
  0
VERTEX
  8
0
 10
1.58535
 20
0.154514
 30
0.0
 40
0
 41
0
  0
VERTEX
  8
0
 10
1.58382
 20
0.152507
 30
0.0
 40
0
 41
0
  0
SEQEND
 8
0
  0
POLYLINE
  8
0
 62
     1
 66
     1
 10
0
 20
0
 30
0.0
 70
     1
 40
0
 41
0
  0
VERTEX
  8
0
 10
1.65326
 20
0.108453
 30
0.0
 40
0
 41
0
  0
VERTEX
  8
0
 10
1.65022
 20
0.108453
 30
0.0
 40
0
 41
0
  0
VERTEX
  8
0
 10
1.6415
 20
0.0999349
 30
0.0
 40
0
 41
0
  0
VERTEX
  8
0
 10
1.64122
 20
0.0985786
 30
0.0
 40
0
 41
0
  0
VERTEX
  8
0
 10
1.64117
 20
0.0984158
 30
0.0
 40
0
 41
0
  0
VERTEX
  8
0
 10
1.6409
 20
0.096951
 30
0.0
 40
0
 41
0
  0
VERTEX
  8
0
 10
1.6409
 20
0.0964085
 30
0.0
 40
0
 41
0
  0
VERTEX
  8
0
 10
1.6409
 20
0.0945096
 30
0.0
 40
0
 41
0
  0
VERTEX
  8
0
 10
1.64697
 20
0.0887587
 30
0.0
 40
0
 41
0
  0
VERTEX
  8
0
 10
1.64903
 20
0.0887587
 30
0.0
 40
0
 41
0
  0
VERTEX
  8
0
 10
1.65213
 20
0.0887587
 30
0.0
 40
0
 41
0
  0
VERTEX
  8
0
 10
1.66118
 20
0.0972222
 30
0.0
 40
0
 41
0
  0
VERTEX
  8
0
 10
1.66151
 20
0.0985786
 30
0.0
 40
0
 41
0
  0
VERTEX
  8
0
 10
1.66151
 20
0.0987414
 30
0.0
 40
0
 41
0
  0
VERTEX
  8
0
 10
1.66168
 20
0.0999349
 30
0.0
 40
0
 41
0
  0
VERTEX
  8
0
 10
1.66168
 20
0.100315
 30
0.0
 40
0
 41
0
  0
VERTEX
  8
0
 10
1.66168
 20
0.102376
 30
0.0
 40
0
 41
0
  0
VERTEX
  8
0
 10
1.65533
 20
0.108453
 30
0.0
 40
0
 41
0
  0
VERTEX
  8
0
 10
1.65326
 20
0.108453
 30
0.0
 40
0
 41
0
  0
SEQEND
 8
0
  0
POLYLINE
  8
0
 62
     1
 66
     1
 10
0
 20
0
 30
0.0
 70
     1
 40
0
 41
0
  0
VERTEX
  8
0
 10
1.72781
 20
0.162651
 30
0.0
 40
0
 41
0
  0
VERTEX
  8
0
 10
1.72071
 20
0.162651
 30
0.0
 40
0
 41
0
  0
VERTEX
  8
0
 10
1.69949
 20
0.151964
 30
0.0
 40
0
 41
0
  0
VERTEX
  8
0
 10
1.68419
 20
0.130968
 30
0.0
 40
0
 41
0
  0
VERTEX
  8
0
 10
1.68311
 20
0.12576
 30
0.0
 40
0
 41
0
  0
VERTEX
  8
0
 10
1.68294
 20
0.125108
 30
0.0
 40
0
 41
0
  0
VERTEX
  8
0
 10
1.68235
 20
0.1199
 30
0.0
 40
0
 41
0
  0
VERTEX
  8
0
 10
1.68235
 20
0.11811
 30
0.0
 40
0
 41
0
  0
VERTEX
  8
0
 10
1.68235
 20
0.112956
 30
0.0
 40
0
 41
0
  0
VERTEX
  8
0
 10
1.69065
 20
0.0974935
 30
0.0
 40
0
 41
0
  0
VERTEX
  8
0
 10
1.70676
 20
0.0893554
 30
0.0
 40
0
 41
0
  0
VERTEX
  8
0
 10
1.71218
 20
0.0893554
 30
0.0
 40
0
 41
0
  0
VERTEX
  8
0
 10
1.71913
 20
0.0893554
 30
0.0
 40
0
 41
0
  0
VERTEX
  8
0
 10
1.73747
 20
0.097385
 30
0.0
 40
0
 41
0
  0
VERTEX
  8
0
 10
1.74001
 20
0.0990668
 30
0.0
 40
0
 41
0
  0
VERTEX
  8
0
 10
1.73156
 20
0.111545
 30
0.0
 40
0
 41
0
  0
VERTEX
  8
0
 10
1.73036
 20
0.110569
 30
0.0
 40
0
 41
0
  0
VERTEX
  8
0
 10
1.71951
 20
0.105306
 30
0.0
 40
0
 41
0
  0
VERTEX
  8
0
 10
1.71593
 20
0.105306
 30
0.0
 40
0
 41
0
  0
VERTEX
  8
0
 10
1.71332
 20
0.105306
 30
0.0
 40
0
 41
0
  0
VERTEX
  8
0
 10
1.70557
 20
0.109809
 30
0.0
 40
0
 41
0
  0
VERTEX
  8
0
 10
1.70156
 20
0.118164
 30
0.0
 40
0
 41
0
  0
VERTEX
  8
0
 10
1.70156
 20
0.120931
 30
0.0
 40
0
 41
0
  0
VERTEX
  8
0
 10
1.70156
 20
0.122179
 30
0.0
 40
0
 41
0
  0
VERTEX
  8
0
 10
1.7021
 20
0.12538
 30
0.0
 40
0
 41
0
  0
VERTEX
  8
0
 10
1.70221
 20
0.12576
 30
0.0
 40
0
 41
0
  0
VERTEX
  8
0
 10
1.70275
 20
0.128581
 30
0.0
 40
0
 41
0
  0
VERTEX
  8
0
 10
1.71056
 20
0.140408
 30
0.0
 40
0
 41
0
  0
VERTEX
  8
0
 10
1.72114
 20
0.146701
 30
0.0
 40
0
 41
0
  0
VERTEX
  8
0
 10
1.72467
 20
0.146701
 30
0.0
 40
0
 41
0
  0
VERTEX
  8
0
 10
1.72786
 20
0.146701
 30
0.0
 40
0
 41
0
  0
VERTEX
  8
0
 10
1.73682
 20
0.14095
 30
0.0
 40
0
 41
0
  0
VERTEX
  8
0
 10
1.73763
 20
0.139974
 30
0.0
 40
0
 41
0
  0
VERTEX
  8
0
 10
1.75125
 20
0.151585
 30
0.0
 40
0
 41
0
  0
VERTEX
  8
0
 10
1.74972
 20
0.153646
 30
0.0
 40
0
 41
0
  0
VERTEX
  8
0
 10
1.72976
 20
0.162543
 30
0.0
 40
0
 41
0
  0
VERTEX
  8
0
 10
1.72781
 20
0.162651
 30
0.0
 40
0
 41
0
  0
SEQEND
 8
0
  0
POLYLINE
  8
0
 62
     1
 66
     1
 10
0
 20
0
 30
0.0
 70
     1
 40
0
 41
0
  0
VERTEX
  8
0
 10
1.82726
 20
0.13189
 30
0.0
 40
0
 41
0
  0
VERTEX
  8
0
 10
1.82742
 20
0.132921
 30
0.0
 40
0
 41
0
  0
VERTEX
  8
0
 10
1.8285
 20
0.140246
 30
0.0
 40
0
 41
0
  0
VERTEX
  8
0
 10
1.8285
 20
0.142632
 30
0.0
 40
0
 41
0
  0
VERTEX
  8
0
 10
1.8285
 20
0.146431
 30
0.0
 40
0
 41
0
  0
VERTEX
  8
0
 10
1.82269
 20
0.157824
 30
0.0
 40
0
 41
0
  0
VERTEX
  8
0
 10
1.81006
 20
0.162651
 30
0.0
 40
0
 41
0
  0
VERTEX
  8
0
 10
1.80587
 20
0.162651
 30
0.0
 40
0
 41
0
  0
VERTEX
  8
0
 10
1.80046
 20
0.162651
 30
0.0
 40
0
 41
0
  0
VERTEX
  8
0
 10
1.78592
 20
0.154243
 30
0.0
 40
0
 41
0
  0
VERTEX
  8
0
 10
1.78429
 20
0.152181
 30
0.0
 40
0
 41
0
  0
VERTEX
  8
0
 10
1.79617
 20
0.208279
 30
0.0
 40
0
 41
0
  0
VERTEX
  8
0
 10
1.77869
 20
0.208279
 30
0.0
 40
0
 41
0
  0
VERTEX
  8
0
 10
1.75385
 20
0.0910915
 30
0.0
 40
0
 41
0
  0
VERTEX
  8
0
 10
1.77132
 20
0.0910915
 30
0.0
 40
0
 41
0
  0
VERTEX
  8
0
 10
1.77946
 20
0.129395
 30
0.0
 40
0
 41
0
  0
VERTEX
  8
0
 10
1.78
 20
0.131944
 30
0.0
 40
0
 41
0
  0
VERTEX
  8
0
 10
1.7864
 20
0.141276
 30
0.0
 40
0
 41
0
  0
VERTEX
  8
0
 10
1.79633
 20
0.145454
 30
0.0
 40
0
 41
0
  0
VERTEX
  8
0
 10
1.79964
 20
0.145454
 30
0.0
 40
0
 41
0
  0
VERTEX
  8
0
 10
1.80111
 20
0.145454
 30
0.0
 40
0
 41
0
  0
VERTEX
  8
0
 10
1.80871
 20
0.13916
 30
0.0
 40
0
 41
0
  0
VERTEX
  8
0
 10
1.80871
 20
0.137044
 30
0.0
 40
0
 41
0
  0
VERTEX
  8
0
 10
1.80871
 20
0.135634
 30
0.0
 40
0
 41
0
  0
VERTEX
  8
0
 10
1.808
 20
0.131944
 30
0.0
 40
0
 41
0
  0
VERTEX
  8
0
 10
1.80789
 20
0.131402
 30
0.0
 40
0
 41
0
  0
VERTEX
  8
0
 10
1.79949
 20
0.0910915
 30
0.0
 40
0
 41
0
  0
VERTEX
  8
0
 10
1.81868
 20
0.0910915
 30
0.0
 40
0
 41
0
  0
VERTEX
  8
0
 10
1.82726
 20
0.13189
 30
0.0
 40
0
 41
0
  0
SEQEND
 8
0
  0
ENDSEC
  0
EOF
