<?xml version="1.0" encoding="UTF-8" standalone="no"?>
<svg
   xmlns:dc="http://purl.org/dc/elements/1.1/"
   xmlns:cc="http://creativecommons.org/ns#"
   xmlns:rdf="http://www.w3.org/1999/02/22-rdf-syntax-ns#"
   xmlns:svg="http://www.w3.org/2000/svg"
   xmlns="http://www.w3.org/2000/svg"
   xmlns:sodipodi="http://sodipodi.sourceforge.net/DTD/sodipodi-0.dtd"
   xmlns:inkscape="http://www.inkscape.org/namespaces/inkscape"
   height="65mm"
   width="100mm"
   id="svg146"
   version="1.1"
   viewBox="0 0 377.95276 245.66929"
   sodipodi:docname="logo.svg"
   inkscape:version="0.92.4 (5da689c313, 2019-01-14)">
  <sodipodi:namedview
     pagecolor="#ffffff"
     bordercolor="#666666"
     borderopacity="1"
     objecttolerance="10"
     gridtolerance="10"
     guidetolerance="10"
     inkscape:pageopacity="0"
     inkscape:pageshadow="2"
     inkscape:window-width="2560"
     inkscape:window-height="1367"
     id="namedview8"
     showgrid="false"
     inkscape:zoom="3.0976894"
     inkscape:cx="298.98113"
     inkscape:cy="145.85579"
     inkscape:window-x="0"
     inkscape:window-y="0"
     inkscape:window-maximized="1"
     inkscape:current-layer="svg146" />
  <metadata
     id="metadata150">
    <rdf:RDF>
      <cc:Work
         rdf:about="">
        <dc:format>image/svg+xml</dc:format>
        <dc:type
           rdf:resource="http://purl.org/dc/dcmitype/StillImage" />
        <dc:title>curve_1</dc:title>
      </cc:Work>
    </rdf:RDF>
  </metadata>
  <defs
     id="defs4">
    <style
       id="style2">
      .a {
        fill: none;
        stroke: #000000;
        stroke-miterlimit: 10;
      }
    </style>
  </defs>
  <title
     id="title6">curve_1</title>
  <path
     id="path1933"
     d="m 371.08961,57.260823 c -0.50827,0.96299 -1.66402,1.475322 -2.70347,1.198412 -0.32591,-0.08672 -7.19466,-3.95526 -18.61746,-10.485232 l -18.101,-10.347644 h -6.92072 -6.9207 v 1.21696 c 0,1.965418 -0.32979,2.751972 -1.37144,3.271056 -1.2339,0.614871 -2.6547,0.139541 -3.28693,-1.099843 -0.18829,-0.369072 -0.1962,-0.747083 -0.1962,-9.37892 0,-8.631837 0.008,-9.009848 0.1962,-9.378921 0.63223,-1.239305 2.05303,-1.714713 3.28693,-1.099843 1.04165,0.519084 1.37144,1.305638 1.37144,3.271057 v 1.21696 h 6.9207 6.92072 l 18.101,-10.34766 c 11.4228,-6.5299716 18.29155,-10.3984136 18.61746,-10.4852166 1.03945,-0.2769256 2.1952,0.2354227 2.70347,1.1984275 l 0.24026,0.4552192 V 31.635612 56.805589 Z M 369.56881,6.9792335 C 369.44959,6.6369596 369.05559,6.40074 368.7803,6.5063723 c -0.097,0.037346 -8.3767,4.7536917 -18.39933,10.4810287 l -18.22296,10.413368 h -8.04383 -8.04383 v -2.103475 c 0,-1.971653 -0.014,-2.12057 -0.21409,-2.37565 -0.26436,-0.336117 -0.70662,-0.360728 -0.98354,-0.05484 -0.19016,0.210124 -0.19677,0.504535 -0.19677,8.768691 0,8.26417 0.006,8.558582 0.19677,8.768705 0.27692,0.306006 0.71918,0.28138 0.98354,-0.05484 0.20067,-0.25508 0.21409,-0.403997 0.21409,-2.375635 v -2.103491 h 8.04383 8.04383 l 18.22296,10.413353 c 10.02263,5.727368 18.30231,10.443822 18.39933,10.481044 0.26123,0.100163 0.66922,-0.125321 0.78188,-0.432311 0.14329,-0.390278 0.14971,-48.9427467 0.006,-49.353291 z M 368.45173,33.44405 c -0.21362,0.470268 -0.82234,1.049276 -1.20366,1.145002 l -0.25633,0.06438 v 8.716702 8.716702 h -0.61973 -0.61973 v -8.716697 -8.716703 l -0.25633,-0.06437 c -0.38134,-0.09563 -0.99002,-0.674735 -1.20365,-1.145002 -0.10907,-0.239829 -0.18811,-0.653093 -0.18811,-0.982131 0,-0.329054 0.0791,-0.742318 0.18811,-0.982131 0.21363,-0.470268 0.82231,-1.049292 1.20365,-1.145002 l 0.25633,-0.06437 v -8.871643 -8.871666 h 0.61973 0.61973 v 8.871666 8.87162 l 0.25633,0.06438 c 0.38132,0.09563 0.99004,0.674734 1.20366,1.145002 0.10892,0.239813 0.18811,0.653077 0.18811,0.982131 0,0.329038 -0.0791,0.742302 -0.18811,0.98213 z m -1.19805,-1.350688 c -0.33288,-0.79668 -1.43132,-0.794633 -1.76473,0.0031 -0.13454,0.322163 -0.13454,0.408294 0,0.730457 0.21526,0.515224 0.73662,0.731614 1.24793,0.517975 0.23762,-0.09938 0.41631,-0.270864 0.51241,-0.492004 0.18256,-0.420201 0.18206,-0.334507 0.005,-0.759741 z m -3.9664,-9.494631 c -0.21363,0.470251 -0.82233,1.049276 -1.20365,1.145001 l -0.25633,0.06438 v 12.693313 12.693324 h -0.61973 -0.61973 V 36.501421 23.808112 l -0.25633,-0.06439 c -0.38134,-0.09563 -0.99004,-0.674749 -1.20366,-1.145001 -0.10907,-0.239829 -0.18809,-0.653076 -0.18809,-0.982146 0,-0.329024 0.0791,-0.742303 0.18809,-0.982132 0.21362,-0.470251 0.82232,-1.049276 1.20366,-1.144986 l 0.25633,-0.06438 v -2.05458 -2.054566 h 0.61973 0.61973 v 2.054566 2.05458 l 0.25633,0.06438 c 0.38132,0.09563 0.99002,0.674735 1.20365,1.144986 0.10907,0.239829 0.1881,0.653108 0.1881,0.982132 0,0.32907 -0.0791,0.742317 -0.1881,0.982146 z m -1.19804,-1.350672 c -0.33288,-0.796697 -1.43132,-0.794634 -1.76473,0.0031 -0.13454,0.322163 -0.13454,0.408294 0,0.730457 0.21527,0.515208 0.73663,0.731614 1.24793,0.517958 0.23763,-0.09938 0.41631,-0.270863 0.5124,-0.491987 0.18257,-0.420217 0.18207,-0.334523 0.005,-0.759757 z m -3.44995,7.238146 c -0.21364,0.47022 -0.82233,1.04926 -1.20365,1.144969 l -0.25633,0.06438 v 8.355192 8.355209 h -0.61974 -0.61974 v -8.355188 -8.355208 l -0.25633,-0.06438 c -0.38133,-0.09563 -0.99001,-0.674734 -1.20365,-1.144969 -0.10907,-0.23983 -0.18811,-0.653093 -0.18811,-0.982132 0,-0.329054 0.0791,-0.742317 0.18811,-0.982146 0.21364,-0.470268 0.82232,-1.049292 1.20365,-1.145003 l 0.25633,-0.06437 v -3.810495 -3.810485 h 0.61974 0.61974 v 3.810485 3.810485 l 0.25633,0.06437 c 0.38132,0.09563 0.99001,0.674735 1.20365,1.145003 0.10892,0.239829 0.1881,0.653092 0.1881,0.982146 0,0.329039 -0.0791,0.742302 -0.1881,0.982132 z m -1.19805,-1.350688 c -0.33288,-0.796697 -1.43133,-0.794634 -1.76472,0.0031 -0.13455,0.322163 -0.13455,0.408294 0,0.730473 0.21526,0.515208 0.7366,0.731582 1.24792,0.517958 0.23763,-0.09938 0.41632,-0.270847 0.5124,-0.492003 0.18257,-0.420201 0.18207,-0.334508 0.005,-0.759741 z m -9.04148,-2.110382 h -2.16906 v 0.516426 0.516458 h -0.61975 -0.61973 V 24.92183 23.785673 h 2.7888 2.7888 v 0.619715 0.619747 z m -7.95325,10.948607 h -2.7888 V 34.527704 33.08165 h 2.7888 2.7888 v 1.446054 1.446038 z m 0,-1.65263 c -1.48047,0 -1.54933,0.0094 -1.54933,0.206592 0,0.197389 0.0687,0.206561 1.54933,0.206561 1.48048,0 1.54935,-0.0094 1.54935,-0.206561 0,-0.19742 -0.0688,-0.206592 -1.54935,-0.206592 z m -8.88284,-4.544708 h -2.16907 v 0.516442 0.516442 h -0.61973 -0.61973 v -1.136173 -1.136172 h 2.78879 2.7888 v 0.61973 0.619731 z m -23.23998,1.652631 h -2.78881 v -1.446054 -1.446038 h 2.78881 2.78881 v 1.446038 1.446054 z m 0,-1.652631 c -1.48048,0 -1.54932,0.0094 -1.54932,0.206577 0,0.197389 0.0687,0.206577 1.54932,0.206577 1.48046,0 1.54934,-0.0094 1.54934,-0.206577 0,-0.197404 -0.0687,-0.206577 -1.54934,-0.206577 z m -7.64336,12.394662 h -2.16909 v 0.516443 0.516442 h -0.61973 -0.61973 v -1.136173 -1.136174 h 2.7888 2.78881 v 0.619732 0.61973 z m -6.81707,-7.023646 h -2.78881 v -1.446039 -1.446055 h 2.78881 2.78879 v 1.446055 1.446039 z m 0,-1.652616 c -1.48048,0 -1.54934,0.0094 -1.54934,0.206577 0,0.197389 0.0687,0.206577 1.54934,0.206577 1.48046,0 1.54932,-0.0094 1.54932,-0.206577 0,-0.197404 -0.0687,-0.206577 -1.54932,-0.206577 z m -7.64338,-6.197323 h -2.16907 v 0.516442 0.516442 h -0.61974 -0.61972 v -1.136188 -1.136158 h 2.7888 2.78879 v 0.619731 0.619731 z"
     style="fill:#ff0000;stroke-width:0.10328883"
     inkscape:connector-curvature="0" />
  <text
     xml:space="preserve"
     style="font-style:normal;font-variant:normal;font-weight:normal;font-stretch:normal;font-size:15px;line-height:125%;font-family:'Bold Oblique';-inkscape-font-specification:'Bold Oblique, ';letter-spacing:0px;word-spacing:0px;fill:#ff0000;fill-opacity:1;stroke:none;stroke-width:1px;stroke-linecap:butt;stroke-linejoin:miter;stroke-opacity:1"
     x="-137.93777"
     y="361.86032"
     id="text5163"
     transform="rotate(-90)"><tspan
       sodipodi:role="line"
       id="tspan5161"
       x="-137.93777"
       y="361.86032"
       style="font-size:18.66666603px;fill:#ff0000">Tech-Lab</tspan></text>
  <text
     xml:space="preserve"
     style="font-style:normal;font-variant:normal;font-weight:normal;font-stretch:normal;font-size:15px;line-height:125%;font-family:'Bold Oblique';-inkscape-font-specification:'Bold Oblique, ';letter-spacing:0px;word-spacing:0px;fill:#ff0000;fill-opacity:1;stroke:none;stroke-width:1px;stroke-linecap:butt;stroke-linejoin:miter;stroke-opacity:1"
     x="28.40827"
     y="240.50417"
     id="text5178"><tspan
       sodipodi:role="line"
       id="tspan5176"
       x="28.40827"
       y="240.50417">https://co2.tech-lab.ch</tspan></text>
</svg>
