<?xml version="1.0" encoding="UTF-8" standalone="no"?>
<svg
   xmlns:dc="http://purl.org/dc/elements/1.1/"
   xmlns:cc="http://creativecommons.org/ns#"
   xmlns:rdf="http://www.w3.org/1999/02/22-rdf-syntax-ns#"
   xmlns:svg="http://www.w3.org/2000/svg"
   xmlns="http://www.w3.org/2000/svg"
   xmlns:sodipodi="http://sodipodi.sourceforge.net/DTD/sodipodi-0.dtd"
   xmlns:inkscape="http://www.inkscape.org/namespaces/inkscape"
   height="65mm"
   width="100mm"
   id="svg146"
   version="1.1"
   viewBox="0 0 377.95276 245.66929"
   sodipodi:docname="pcb-silk.svg"
   inkscape:version="0.92.4 (5da689c313, 2019-01-14)">
  <sodipodi:namedview
     pagecolor="#ffffff"
     bordercolor="#666666"
     borderopacity="1"
     objecttolerance="10"
     gridtolerance="10"
     guidetolerance="10"
     inkscape:pageopacity="0"
     inkscape:pageshadow="2"
     inkscape:window-width="2560"
     inkscape:window-height="1367"
     id="namedview8"
     showgrid="false"
     inkscape:zoom="3.0976894"
     inkscape:cx="162.14997"
     inkscape:cy="132.67374"
     inkscape:window-x="0"
     inkscape:window-y="0"
     inkscape:window-maximized="1"
     inkscape:current-layer="svg146" />
  <metadata
     id="metadata150">
    <rdf:RDF>
      <cc:Work
         rdf:about="">
        <dc:format>image/svg+xml</dc:format>
        <dc:type
           rdf:resource="http://purl.org/dc/dcmitype/StillImage" />
        <dc:title>curve_1</dc:title>
      </cc:Work>
    </rdf:RDF>
  </metadata>
  <defs
     id="defs4">
    <style
       id="style2">
      .a {
        fill: none;
        stroke: #000000;
        stroke-miterlimit: 10;
      }
    </style>
  </defs>
  <title
     id="title6">curve_1</title>
  <g
     id="g4996"
     transform="matrix(-1,0,0,1,367.31397,0)">
    <path
       inkscape:connector-curvature="0"
       style="fill:#000000;stroke-width:0.21083684"
       d="m 20.676963,196.22186 c -1.965721,-1.0375 -3.01152,-3.39665 -2.446274,-5.51839 0.177228,-0.66525 8.073625,-14.68601 21.402836,-38.00263 l 21.121994,-36.94842 v -14.1268 -14.126794 h -2.484095 c -4.011883,0 -5.617435,-0.673155 -6.677008,-2.79944 -1.2551,-2.518663 -0.284671,-5.418856 2.245025,-6.709407 0.753369,-0.384334 1.524981,-0.400485 19.144612,-0.400485 17.619605,0 18.391218,0.01618 19.144578,0.400485 2.529705,1.290551 3.500143,4.190744 2.245034,6.709407 -1.059564,2.126285 -2.665125,2.79944 -6.676997,2.79944 h -2.4841 v 14.126794 14.1268 l 21.122002,36.94842 c 13.32921,23.31662 21.2256,37.33738 21.40282,38.00263 0.56526,2.12174 -0.48056,4.48089 -2.44627,5.51839 l -0.92922,0.49046 H 72.984053 21.606188 Z m 102.636547,-3.10427 c 0.69869,-0.24356 1.18087,-1.04763 0.96523,-1.60957 -0.076,-0.19802 -9.7034,-17.09883 -21.39426,-37.55736 L 81.628353,116.75332 V 100.33395 83.914602 h 4.293706 c 4.024593,0 4.328542,-0.02742 4.849248,-0.436982 0.686079,-0.539671 0.736323,-1.442418 0.111711,-2.007673 -0.428902,-0.388155 -1.02987,-0.401646 -17.898965,-0.401646 -16.869123,0 -17.470088,0.01353 -17.899,0.401646 -0.624602,0.565255 -0.574368,1.468002 0.111721,2.007673 0.520706,0.409589 0.824643,0.436982 4.849249,0.436982 h 4.293711 v 16.419348 16.41937 L 43.083616,153.95066 C 31.392744,174.40919 21.765318,191.31 21.689327,191.50802 c -0.204612,0.53323 0.255879,1.36606 0.882465,1.59602 0.796638,0.29234 99.903688,0.30569 100.741718,0.0134 z m -54.020913,-2.28024 c -0.959919,-0.43607 -2.141842,-1.67857 -2.337213,-2.45697 l -0.131317,-0.52321 H 49.031212 31.238358 v -1.26502 -1.26502 h 17.792854 17.792855 l 0.131317,-0.52324 c 0.195371,-0.77839 1.377294,-2.02087 2.337213,-2.45694 0.489529,-0.22239 1.333102,-0.38395 2.004757,-0.38395 0.671665,0 1.515229,0.16156 2.004767,0.38395 0.959909,0.43607 2.141833,1.67855 2.337195,2.45694 l 0.131326,0.52324 h 18.109089 18.109129 v 1.26502 1.26502 H 93.879731 75.770642 l -0.131326,0.52321 c -0.195362,0.7784 -1.377286,2.0209 -2.337195,2.45697 -0.489538,0.2224 -1.333102,0.38396 -2.004767,0.38396 -0.671655,0 -1.515228,-0.16156 -2.004757,-0.38396 z m 2.757048,-2.4455 c 1.626245,-0.6795 1.622031,-2.92167 -0.0064,-3.60223 -0.657617,-0.27479 -0.83341,-0.27479 -1.491035,0 -1.051677,0.43941 -1.493393,1.50363 -1.057316,2.54731 0.202674,0.48505 0.552907,0.8498 1.004303,1.04595 0.85774,0.37265 0.682816,0.37163 1.550821,0.009 z m 19.380796,-8.09635 c -0.9599,-0.43606 -2.141822,-1.67857 -2.337211,-2.45696 l -0.131308,-0.52321 H 63.051867 37.141779 v -1.26503 -1.26502 h 25.910088 25.910055 l 0.131308,-0.52322 c 0.195389,-0.7784 1.377311,-2.02089 2.337211,-2.45696 0.489538,-0.22239 1.333102,-0.38394 2.004767,-0.38394 0.671665,0 1.51522,0.16155 2.004767,0.38394 0.959918,0.43607 2.141842,1.67856 2.337202,2.45696 l 0.13132,0.52322 h 4.193883 4.19388 v 1.26502 1.26503 h -4.19388 -4.193883 l -0.13132,0.52321 c -0.19536,0.77839 -1.377284,2.0209 -2.337202,2.45696 -0.489547,0.2224 -1.333102,0.38396 -2.004767,0.38396 -0.671665,0 -1.515229,-0.16156 -2.004767,-0.38396 z m 2.757048,-2.44549 c 1.626255,-0.67951 1.622032,-2.92167 -0.0064,-3.60224 -0.657616,-0.27477 -0.833418,-0.27477 -1.491044,0 -1.051676,0.43942 -1.493402,1.50364 -1.057307,2.54732 0.202665,0.48506 0.552907,0.84979 1.004303,1.04594 0.857731,0.37266 0.682816,0.37164 1.550812,0.009 z m -14.774748,-7.04216 c -0.959872,-0.43609 -2.141805,-1.67857 -2.337185,-2.45696 l -0.131308,-0.52322 H 59.889306 42.834382 v -1.26502 -1.26503 h 17.054924 17.054942 l 0.131308,-0.52322 c 0.19538,-0.77839 1.377313,-2.02088 2.337185,-2.45696 0.489547,-0.22239 1.333102,-0.38395 2.004767,-0.38395 0.671665,0 1.51522,0.16156 2.004767,0.38395 0.959918,0.43608 2.141851,1.67857 2.337204,2.45696 l 0.131312,0.52322 h 7.778113 7.778106 v 1.26503 1.26502 h -7.778106 -7.778113 l -0.131312,0.52322 c -0.195353,0.77839 -1.377286,2.02087 -2.337204,2.45696 -0.489547,0.22239 -1.333102,0.38395 -2.004767,0.38395 -0.671665,0 -1.51522,-0.16156 -2.004767,-0.38395 z m 2.757057,-2.44551 c 1.626246,-0.67948 1.622032,-2.92167 -0.0064,-3.60223 -0.657616,-0.27477 -0.833418,-0.27477 -1.491044,0 -1.051667,0.43942 -1.493365,1.50363 -1.057297,2.54732 0.202655,0.48506 0.552897,0.84981 1.004303,1.04593 0.857722,0.37268 0.682806,0.37167 1.550811,0.009 z m 4.307791,-18.45581 v -4.42757 h -1.054176 -1.05419 v -1.26503 -1.26501 h 2.319203 2.319206 v 5.69259 5.69259 H 87.742615 86.477589 Z M 64.128907,133.6721 v -5.69261 h 2.951706 2.951725 v 5.69261 5.69259 h -2.951725 -2.951706 z m 3.373388,0 c 0,-3.022 -0.01874,-3.16256 -0.421682,-3.16256 -0.402935,0 -0.421672,0.14056 -0.421672,3.16256 0,3.02199 0.01874,3.16255 0.421672,3.16255 0.402935,0 0.421682,-0.14056 0.421682,-3.16255 z m 9.276827,-18.13198 v -4.42757 h -1.05419 -1.054181 v -1.26502 -1.26502 h 2.319207 2.319179 v 5.69259 5.69259 H 78.044139 76.779122 Z M 73.405725,68.10184 v -5.692595 h 2.951725 2.951687 v 5.692595 5.692594 H 76.35745 73.405725 Z m 3.373397,0 c 0,-3.021993 -0.01874,-3.162553 -0.421672,-3.162553 -0.402935,0 -0.421682,0.14056 -0.421682,3.162553 0,3.021994 0.01874,3.162551 0.421682,3.162551 0.402925,0 0.421672,-0.140557 0.421672,-3.162551 z M 51.478692,52.499913 v -4.427574 h -1.05419 -1.054181 v -1.265023 -1.265021 h 2.319207 2.319207 v 5.692596 5.692596 H 52.743718 51.478692 Z M 65.815596,38.58468 v -5.692594 h 2.951715 2.951725 v 5.692594 5.692595 h -2.951725 -2.951715 z m 3.373388,0 c 0,-3.021993 -0.01874,-3.162553 -0.421673,-3.162553 -0.402925,0 -0.421672,0.14056 -0.421672,3.162553 0,3.021995 0.01874,3.162551 0.421672,3.162551 0.402935,0 0.421673,-0.140556 0.421673,-3.162551 z M 81.83918,22.982753 V 18.555179 H 80.785 79.730819 v -1.265022 -1.26502 h 2.319207 2.319197 v 5.692594 5.692597 H 83.104197 81.83918 Z"
       id="path1933" />
    <path
       sodipodi:nodetypes="ccccccsscccccccscsccsccccsssssssccccscsscccsccccccsccccccccccccccccscccccssscccccccccccccccsscccsccccccccccccccccccccccccccscccccscccsccccsccccsccccccsccssccssscsccsccccscscccscsssscsssscccccssscccccccssssscssscscsssccssscsccscsssccscsssccccccccccccccccccccccsccccccccsscccccccccccccccccccccccccccccccccccccccscccccsccccccscccccccscccscccccccccccccccccccccccccccccccccccccccccccccsccccccccccccccccccccccccccccccccccccccccccccccccccsccccccccssccccssccccccccccccccsccccccsccccccccscccccccccccsccccscsccccccscscccccccccccccccccccccccccccccccccccccccccccscsccccccccccccccccccccccccccccccccccccccccccccccccccsccccccccccccccccccccccscccccccccccccccccccccccccccccccccccccccccccsscccsssccccccccccccccccccccccccccccccccccccccccsscccccccccccccccccssscssscccsccccccccccccccccccccccccccccscscscsccccccccccccccccccccsccccccccccccccccccccccccccccccccccccccc"
       inkscape:connector-curvature="0"
       id="path4138"
       d="m 213.86205,182.71954 c 0.25986,-3.38954 0.12752,-7.84821 -0.33666,-11.34278 -0.2886,-2.17267 -0.44663,-2.83431 -0.71076,-2.97567 -0.16471,-0.0881 -0.5861,0.12889 -1.63884,0.8441 -0.4405,0.29928 -0.91762,0.62284 -1.06022,0.71901 -0.26405,0.17806 -1.66025,0.58424 -3.0362,0.88327 -0.59447,0.1292 -0.90608,0.15381 -1.92517,0.15207 -1.86443,-0.003 -2.82496,-0.16226 -3.76591,-0.62364 l -0.5235,-0.25669 v 0.8652 0.8652 h -13.81397 -13.81396 l 0.003,-13.56065 0.003,-13.56065 6.76155,-2.93842 c 3.71885,-1.61613 6.8415,-2.96306 6.9392,-2.99318 0.14842,-0.0457 0.93902,0.27786 4.80482,1.96669 l 4.62717,2.02145 0.30072,-0.29245 c 0.16539,-0.16086 0.28465,-0.30854 0.265,-0.32818 -0.0196,-0.0196 -1.78122,-0.79518 -3.91462,-1.72344 l -3.87894,-1.68772 6.00132,-0.002 6.00132,-0.002 0.78745,-0.62764 c 1.72486,-1.3748 2.84413,-2.1657 5.00932,-3.53969 1.0223,-0.64874 2.73657,-1.5078 4.55962,-2.28495 1.87612,-0.79977 2.80952,-1.13339 3.50622,-1.25325 1.1414,-0.19635 2.8538,0.33961 4.88018,1.52742 0.98442,0.57705 2.79969,1.81053 3.56993,2.42578 0.79288,0.63332 3.02347,2.80421 3.45646,3.36392 l 0.30046,0.38841 h 27.13849 27.13849 l 0.19839,-0.21158 c 0.68797,-0.73367 5.4889,-3.36196 7.96222,-4.35895 1.84969,-0.74559 2.94413,-0.81128 4.6316,-0.27796 0.67909,0.21462 2.69044,0.95291 4.3232,1.58688 1.61908,0.62867 3.91919,1.82173 5.59155,2.90031 l 0.55909,0.3606 6.15517,0.0172 6.15516,0.0172 -4.01226,1.73526 c -2.20674,0.95438 -4.15858,1.79766 -4.33741,1.87394 l -0.32513,0.13869 0.2238,0.26955 c 0.12311,0.14825 0.25231,0.27009 0.28709,0.27075 0.0348,6.4e-4 2.30761,-0.9736 5.05072,-2.16506 2.74309,-1.19147 5.02868,-2.15658 5.07909,-2.14472 0.0505,0.0119 3.16497,1.35907 6.92123,2.99379 l 6.82959,2.97218 0.002,13.56066 0.002,13.56065 h -13.81637 -13.81397 v -0.87815 -0.87815 h -3.02796 -3.02799 l -0.37486,0.28708 c -0.20617,0.1579 -0.59111,0.47614 -0.85543,0.70719 -0.26432,0.23104 -0.57969,0.47216 -0.70083,0.53582 -0.35618,0.18718 -1.22377,0.19619 -2.29903,0.0238 -1.05412,-0.16894 -2.03762,-0.17097 -2.14055,-0.004 -0.10148,0.16422 -0.1585,1.20816 -0.11645,2.13193 0.022,0.48298 0.13152,1.51649 0.2434,2.29669 0.17271,1.20445 0.34337,2.83754 0.34337,3.28598 0,0.11707 -0.0743,0.12524 -1.13146,0.12437 -0.6223,-4.5e-4 -1.19985,-0.0193 -1.28345,-0.0416 l -0.15198,-0.0407 v -3.67359 -3.67359 h -0.28979 c -0.64607,0 -1.55989,0.35161 -2.5862,0.99512 -0.62909,0.39445 -1.3352,0.76117 -1.46559,0.76117 -0.0494,0 -0.15936,-0.14439 -0.24437,-0.32086 -0.26021,-0.54018 -1.25282,-2.17846 -1.69847,-2.80332 l -0.42156,-0.59085 h -9.27885 -9.27885 v 0.87815 0.87815 h -12.36164 -12.36163 v -0.87815 -0.87815 h -5.97084 -5.9708 l -0.42148,0.72616 c -0.23181,0.39939 -0.42614,0.73226 -0.43185,0.73972 -0.006,0.008 -0.37413,-0.10264 -0.81868,-0.24465 -1.32883,-0.42448 -1.94598,-0.51196 -3.61162,-0.51196 -1.62093,0 -2.05364,0.0629 -3.30995,0.48083 -1.58451,0.52714 -2.84006,1.45826 -3.54505,2.62901 l -0.21719,0.36067 -0.061,1.97999 c -0.0752,2.44506 -0.0776,4.26267 -0.007,5.46697 0.05,0.85373 0.0451,0.92268 -0.0675,0.95606 -0.0668,0.0198 -0.57742,0.15802 -1.13471,0.30721 -0.55728,0.14918 -1.07118,0.29399 -1.142,0.32179 -0.12309,0.0483 -0.12661,0.0225 -0.0799,-0.58558 z m 73.41645,-10.32279 c 0.89596,-0.47019 1.73187,-0.80856 2.61709,-1.05935 0.35294,-0.1 0.65342,-0.19186 0.6677,-0.20417 0.0596,-0.0512 -0.18522,-0.509 -0.62286,-1.16461 -0.5603,-0.8394 -1.66627,-2.00103 -3.36292,-3.5322 -1.38498,-1.24992 -2.64856,-2.58729 -2.75811,-2.91919 -0.0525,-0.15891 -0.054,-0.28198 -0.005,-0.41025 l 0.0696,-0.18327 0.65341,0.59573 c 1.94942,1.77731 4.9661,4.70665 5.47154,5.31315 0.17095,0.20513 0.25326,0.25298 0.4053,0.23556 0.18469,-0.0212 0.19252,-0.038 0.24558,-0.52849 0.0302,-0.27864 0.0405,-1.35775 0.0231,-2.39801 -0.0342,-2.04074 -0.13003,-2.91014 -0.51487,-4.66935 -0.40321,-1.84331 -1.33484,-4.70107 -2.28745,-7.01679 -0.95514,-2.32191 -1.22074,-3.25331 -1.11446,-3.90825 l 0.0411,-0.25309 0.26478,0.39192 c 0.64761,0.9586 1.18224,2.21514 2.13549,5.01908 0.73706,2.16807 1.00889,2.87662 1.44335,3.76217 0.44834,0.91387 0.59585,1.10763 0.59585,0.78267 0,-1.19562 0.4624,-7.41647 0.67923,-9.13822 0.1221,-0.96944 0.45698,-2.97595 0.50556,-3.02915 0.0116,-0.0128 0.069,0.0694 0.12745,0.18242 0.17461,0.33762 0.11505,1.69461 -0.23021,5.24475 -0.30819,3.16911 -0.48527,6.45739 -0.35983,6.68155 0.13791,0.24643 1.62334,-1.83243 3.61585,-5.06036 1.96457,-3.18268 2.26626,-3.58058 3.07997,-4.06223 l 0.29149,-0.17256 -0.1739,0.34319 c -0.32821,0.64769 -0.87193,1.53005 -2.06507,3.3512 -2.38078,3.63391 -3.21019,5.22539 -3.81035,7.31136 -0.45005,1.56425 -0.54493,2.32745 -0.5453,4.38606 0,1.00932 0.0233,1.85874 0.0522,1.88762 0.0655,0.0654 0.78157,-0.63276 1.42796,-1.39228 0.26877,-0.31579 0.9992,-1.24292 1.62317,-2.06026 1.74264,-2.28274 1.94706,-2.50322 2.69619,-2.90813 l 0.46337,-0.25048 -0.6383,0.83626 c -0.35106,0.45993 -1.01268,1.38339 -1.47027,2.05215 -0.93371,1.36456 -1.37289,1.93433 -2.39425,3.10617 -0.38805,0.44521 -0.84533,1.04073 -1.01619,1.32335 -0.32847,0.54337 -0.63905,1.32924 -0.64144,1.62308 -0.002,0.17295 0.008,0.17643 0.58964,0.21674 0.32508,0.0225 0.91024,0.10559 1.30033,0.18455 0.41325,0.0836 0.99121,0.14645 1.38478,0.15047 0.97266,0.01 1.14694,-0.0796 2.80333,-1.43939 1.13622,-0.9328 5.0014,-3.70621 6.92213,-4.96689 1.25429,-0.82328 3.02678,-1.88355 3.85441,-2.30563 l 0.63065,-0.32164 0.23571,-0.71059 c 0.41055,-1.2377 0.92114,-3.41862 1.19259,-5.09401 0.21375,-1.31918 0.3308,-2.5351 0.40817,-4.23969 0.0803,-1.76915 0.0298,-2.55977 -0.21057,-3.3008 -0.56772,-1.74985 -2.92,-5.03586 -5.17404,-7.22787 -2.87255,-2.7935 -6.41001,-4.91679 -10.35792,-6.21718 -1.57499,-0.51879 -2.61048,-0.74677 -3.58719,-0.7898 l -0.78338,-0.0345 -1.412,0.48877 c -2.89781,1.00308 -4.82772,1.84562 -6.46429,2.82207 -0.6943,0.41426 -1.07445,0.70457 -1.82255,1.39191 -1.08359,0.99556 -1.43808,1.23804 -2.88611,1.97409 -0.93823,0.47692 -1.10407,0.58851 -1.5961,1.07396 -2.22062,2.19106 -3.65445,7.15836 -4.01711,13.91664 -0.0841,1.56869 -0.0489,4.27639 0.0733,5.64043 0.11883,1.32565 -0.0426,1.12216 1.3703,1.72667 4.6189,1.97611 6.87652,3.33059 8.83059,5.29798 1.12004,1.12767 1.97161,2.33597 2.51049,3.56219 0.11877,0.27024 0.22585,0.49134 0.23796,0.49134 0.0121,0 0.3638,-0.17935 0.78151,-0.39856 z m -69.4681,-1.05231 c 2.57446,-1.6654 6.38037,-2.07079 9.15033,-0.97463 0.50727,0.20073 0.53197,0.2041 0.62042,0.0845 0.1477,-0.19973 1.67718,-3.29303 2.05148,-4.14898 2.91876,-6.67483 3.69842,-12.21414 2.40946,-17.11872 -1.79841,-6.84301 -6.51915,-12.69245 -12.7705,-15.82385 -1.17365,-0.58789 -1.5838,-0.76299 -2.73449,-1.16738 l -0.91117,-0.32021 -0.98022,0.33799 c -5.15194,1.77648 -10.01877,4.54306 -14.38888,8.17946 -3.51472,2.92458 -4.25062,4.42059 -4.6266,9.40527 -0.36121,4.78904 -0.0903,8.90835 0.78706,11.96905 0.66081,2.30519 2.18075,5.18557 3.45534,6.54811 0.68376,0.73095 1.96488,1.43349 3.26655,1.79133 0.72297,0.19875 2.86625,0.21998 3.71453,0.0368 1.72086,-0.37164 3.33614,-1.18825 4.49194,-2.27091 l 0.49561,-0.46426 -0.22711,-0.56562 c -0.53288,-1.32716 -1.60436,-3.12147 -2.59671,-4.34842 -1.27969,-1.58224 -2.93287,-3.16019 -4.1697,-3.97993 -0.46576,-0.3087 -0.94912,-0.66355 -1.07411,-0.78853 -0.26048,-0.26048 -0.47341,-0.68706 -0.47557,-0.95277 l -0.003,-0.18212 0.37012,0.12734 c 1.16473,0.40072 2.36055,1.19093 3.55819,2.35128 0.92977,0.9008 2.71118,2.99301 3.42448,4.02191 0.23592,0.3403 0.52187,0.71628 0.63546,0.83552 0.21182,0.22238 0.8926,0.61827 0.95533,0.55553 0.0193,-0.0193 -0.0714,-0.82405 -0.20134,-1.78845 -0.46367,-3.43978 -2.32517,-18.46918 -2.32503,-18.77177 5e-5,-0.10737 0.40018,0.31343 0.60463,0.63588 0.27335,0.4311 0.44678,1.055 0.57445,2.06641 0.0607,0.48049 0.1683,1.28398 0.23924,1.78553 0.0709,0.50155 0.28404,2.31021 0.47354,4.01922 0.36167,3.26167 0.51485,4.42506 0.75154,5.70797 0.24407,1.32294 0.21969,1.41899 0.49718,-1.95895 0.75658,-9.21029 0.76748,-9.3169 1.04205,-10.19911 0.14661,-0.47107 0.39497,-0.91453 0.6408,-1.14417 l 0.17531,-0.16375 v 1.07684 c 0,1.43282 -0.086,2.69779 -0.40575,5.9719 -0.3575,3.66011 -0.39384,4.12819 -0.44583,5.74174 -0.0792,2.45857 0.24546,5.93108 0.76101,8.13977 0.0954,0.40867 0.19526,0.76679 0.22192,0.79581 0.0582,0.0635 0.35386,-1.4447 0.53991,-2.75476 0.27567,-1.94143 0.46089,-4.20654 0.6794,-8.30864 0.14925,-2.80202 0.37019,-5.90966 0.47946,-6.74406 0.11306,-0.86336 0.29104,-1.34347 0.60226,-1.62463 0.1485,-0.13416 0.30503,-0.24393 0.34786,-0.24393 0.11561,0 0.0359,1.52951 -0.24101,4.62717 -0.26706,2.98695 -0.37777,4.73971 -0.37733,5.9732 4.5e-4,1.05684 0.0733,2.36922 0.13167,2.36922 0.0241,0 0.63258,-1.48187 1.35224,-3.29306 0.71965,-1.81119 1.60288,-4.0074 1.96274,-4.88047 0.35985,-0.8731 0.75524,-1.85709 0.87863,-2.18667 0.25627,-0.68448 0.59879,-1.24045 1.0022,-1.62673 l 0.27885,-0.26702 0.007,0.23324 c 0.0218,0.77582 -0.0562,1.09145 -0.53936,2.18366 -0.18286,0.41337 -0.5362,1.31394 -0.7852,2.00125 -0.67266,1.85685 -1.15274,3.03019 -2.06363,5.04362 -2.18348,4.82633 -2.39364,5.78939 -2.56239,11.74255 -0.0379,1.33748 -0.0882,2.76617 -0.11168,3.17484 l -0.0427,0.74305 0.4667,-0.44722 c 0.25669,-0.24597 0.68933,-0.59121 0.96142,-0.76723 z m -35.58474,-1.2849 1.08289,-1.45233 h 1.3814 1.38139 v -2.56689 -2.5669 h 0.97948 0.97947 v 2.5669 2.56689 l 1.36789,0.003 1.36788,0.003 1.0522,1.43199 1.05221,1.43199 3.82827,0.0175 3.82828,0.0174 v -0.7993 -0.79932 l -0.66247,-0.67046 c -0.62709,-0.63464 -1.74874,-1.98328 -2.24974,-2.70501 l -0.22885,-0.32969 -0.0208,0.28709 -0.0208,0.28709 h -0.97559 -0.97559 v -1.65498 -1.65497 h 0.20264 c 0.11147,0 0.20265,-0.0286 0.20265,-0.0637 0,-0.035 -0.0823,-0.28573 -0.18289,-0.55711 -0.10059,-0.27139 -0.29278,-0.87347 -0.42708,-1.33798 l -0.24419,-0.84455 h -10.668 -10.66798 l -0.0172,5.42088 -0.0173,5.42088 h 3.78449 3.78447 l 1.08291,-1.45232 z m -5.40865,-4.93114 v -1.65498 h 0.97947 0.97947 v 1.65498 1.65496 h -0.97947 -0.97947 z m 4.59338,0 v -1.65498 h 0.97948 0.97948 v 1.65498 1.65496 h -0.97948 -0.97948 z m 9.25435,0 v -1.65498 h 1.01325 1.01324 v 1.65498 1.65496 h -1.01324 -1.01325 z m 1.74504,6.32875 c -0.0123,-0.0301 -0.4318,-0.60791 -0.93204,-1.28404 l -0.90951,-1.22933 -3.54878,0.0175 -3.54878,0.0174 -0.86352,1.14835 c -0.47495,0.63159 -0.89399,1.20155 -0.9312,1.26656 -0.0642,0.11216 0.20932,0.11821 5.34435,0.11821 2.9766,0 5.40187,-0.0246 5.38948,-0.0547 z m 52.58022,-3.4126 0.0187,-3.4673 0.20443,-0.3306 c 0.12668,-0.20484 0.33022,-0.40835 0.53511,-0.53502 0.2973,-0.18381 0.38624,-0.20443 0.88165,-0.20443 0.49541,0 0.58435,0.0206 0.88167,0.20443 0.20488,0.12667 0.40843,0.33018 0.5351,0.53502 l 0.20443,0.3306 0.0187,3.4673 0.0186,3.46731 h 1.5181 1.51809 v -3.319 c 0,-2.34849 0.0233,-3.39652 0.0794,-3.58414 0.10392,-0.34684 0.55373,-0.8523 0.89742,-1.00841 0.92706,-0.42111 2.11512,0.16963 2.32686,1.15698 0.0475,0.22128 0.0738,1.48725 0.0738,3.54927 v 3.2053 h 1.48375 1.48374 l 0.0193,-3.42816 c 0.019,-3.39192 0.0208,-3.43112 0.16889,-3.70799 0.18708,-0.3498 0.64377,-0.74664 0.9605,-0.83464 0.82438,-0.22901 1.66411,0.11286 2.05013,0.83464 0.14806,0.27683 0.14987,0.3166 0.16944,3.70799 l 0.0198,3.42816 h 1.98981 1.98983 v -5.43778 -5.43776 h -12.02387 -12.02389 v 5.43776 5.43778 h 1.99095 1.99094 z m 69.14848,2.00182 1.05456,-1.43171 1.40166,-0.004 1.40166,-0.004 v -2.5669 -2.56689 h 0.97948 0.97947 v 2.56549 2.5655 l 1.36277,0.0183 1.36276,0.0183 1.05214,1.43198 1.05215,1.43201 3.83386,0.003 3.83386,0.003 -0.0172,-5.42088 -0.0173,-5.42088 h -10.6351 -10.63509 l -0.11109,0.37421 c -0.14295,0.48155 -0.55441,1.2637 -0.8393,1.59545 -0.12258,0.14271 -0.424,0.36587 -0.66982,0.49591 -0.24583,0.13003 -0.44722,0.25922 -0.44753,0.28708 0,0.0278 0.3642,0.0507 0.81002,0.0507 h 0.8106 v 1.65497 1.65497 h -1.01324 -1.01325 v -1.58966 -1.58967 l -0.99637,0.52026 c -0.54799,0.28616 -1.26219,0.68993 -1.58709,0.89728 l -0.59074,0.37702 v 3.05719 3.0572 l 3.79215,-0.0174 3.79213,-0.0174 1.05457,-1.43173 z m -0.80307,-4.91797 v -1.65498 h 0.97948 0.97947 v 1.65498 1.65496 h -0.97947 -0.97948 z m 9.25435,0 v -1.65498 h 0.97947 0.97948 v 1.65498 1.65496 h -0.97948 -0.97947 z m 4.72849,0 v -1.65498 h 0.97947 0.97948 v 1.65498 1.65496 h -0.97948 -0.97947 z m -3.0358,6.26525 c -0.0376,-0.0651 -0.45661,-0.63497 -0.93118,-1.26656 l -0.86284,-1.14835 -3.5498,-0.0174 -3.5498,-0.0174 -0.90849,1.22845 c -0.49967,0.67563 -0.91863,1.25345 -0.93102,1.28403 -0.0123,0.0306 2.41289,0.0556 5.38949,0.0556 5.13529,0 5.4085,-0.006 5.34364,-0.11821 z m -83.64717,-6.18082 -0.0173,-4.54274 -4.00092,-0.0174 -4.00091,-0.0174 -0.0322,0.15252 c -0.047,0.22265 -0.56759,2.35501 -0.61855,2.53365 -0.0322,0.11283 -0.0152,0.15199 0.0659,0.15199 0.0976,0 0.1092,0.17586 0.1092,1.65498 v 1.65497 h -0.76978 -0.76978 l -0.20338,0.32086 c -0.28425,0.44843 -1.4319,2.52931 -1.4319,2.59626 0,0.0302 2.62959,0.0551 5.84355,0.0551 h 5.84354 l -0.0173,-4.54273 z m -6.06308,-0.0844 v -1.65498 h 0.97947 0.97947 v 1.65498 1.65496 h -0.97947 -0.97947 z m 48.98246,4.50844 c -0.0349,-0.0653 -0.30198,-0.3635 -0.59344,-0.66271 -0.64847,-0.66573 -1.85756,-1.5754 -3.02924,-2.27909 -0.83951,-0.50419 -3.43864,-1.84031 -3.8776,-1.99333 l -0.20918,-0.0729 v 1.07728 1.07728 h -0.97947 -0.97947 v -1.45398 c 0,-1.44999 -6.3e-4,-1.45416 -0.15352,-1.51236 -0.24073,-0.0915 -0.59098,-0.48052 -0.76555,-0.85022 -0.18846,-0.39916 -0.34842,-1.08641 -0.41661,-1.79007 l -0.0491,-0.50663 h -3.54637 -3.54637 l -0.0173,4.54274 -0.0174,4.54274 h 9.12209 c 8.68145,0 9.11902,-0.006 9.05856,-0.11872 z m -14.05915,-4.50844 v -1.65498 h 0.97947 0.97948 v 1.65498 1.65496 h -0.97948 -0.97947 z m 35.66636,2.59668 c 0,-1.60631 -0.0176,-2.01994 -0.0844,-1.97996 -0.0464,0.0278 -0.52521,0.39031 -1.06392,0.80559 -0.53871,0.41528 -1.22494,0.91869 -1.52495,1.11869 -0.87495,0.58327 -2.79389,1.98019 -2.79616,2.0355 -0.002,0.0278 1.22901,0.0507 2.73369,0.0507 h 2.73577 z m -110.30903,-7.49479 c 0,-0.0747 -0.044,-0.41667 -0.0979,-0.75994 -0.17108,-1.09083 -0.24677,-2.64353 -0.23593,-4.84003 l 0.0106,-2.13376 h -10.46062 -10.46058 l -0.0175,3.85034 c -0.01,2.11769 -0.003,3.88834 0.0148,3.93479 0.0257,0.067 2.21606,0.0844 10.63976,0.0844 10.58136,0 10.60747,-2.3e-4 10.60747,-0.13584 z m -18.03583,-3.81583 v -1.65498 h 0.97947 0.97947 v 1.65498 1.65496 h -0.97947 -0.97947 z m 4.59338,0 v -1.65498 h 0.97948 0.97948 v 1.65498 1.65496 h -0.97948 -0.97948 z m 4.66095,0 v -1.65498 h 0.97948 0.97947 v 1.65498 1.65496 h -0.97947 -0.97948 z m 4.5934,0 v -1.65498 h 1.01325 1.01324 v 1.65498 1.65496 h -1.01324 -1.01325 z m 49.95317,0 v -3.9179 l -3.68147,-0.0174 -3.68147,-0.0174 -0.003,1.70621 c -0.004,1.78867 -0.0893,2.84198 -0.40593,4.98239 -0.0907,0.61301 -0.16487,1.13761 -0.16488,1.16577 0,0.0282 1.78584,0.0434 3.96855,0.0338 l 3.96856,-0.0174 v -3.9179 z m -6.04571,0 v -1.65498 h 0.97947 0.97947 v 1.65498 1.65496 h -0.97947 -0.97947 z m 30.46502,0 v -3.95168 h -12.0239 -12.02389 v 3.95168 3.95166 h 12.02389 12.0239 z m -19.38683,0 v -1.65498 h 0.97947 0.97947 v 1.65498 1.65496 h -0.97947 -0.97947 z m 6.34969,0 v -1.65498 h 1.01324 1.01325 v 1.65498 1.65496 h -1.01325 -1.01324 z m 6.34969,0 v -1.65498 h 1.01325 1.01325 v 1.65498 1.65496 h -1.01325 -1.01325 z m 14.12482,2.90464 c -0.009,-0.67908 0.066,-1.96483 0.22649,-3.89855 0.13171,-1.58691 0.23947,-2.90185 0.23947,-2.9221 0,-0.0202 -1.69465,-0.029 -3.76591,-0.0194 l -3.76591,0.0174 -0.0175,3.85036 c -0.01,2.11768 -0.003,3.8886 0.015,3.93538 0.0258,0.0672 0.77345,0.0814 3.55696,0.0675 l 3.52441,-0.0175 -0.013,-1.01326 z m -3.04663,-2.90464 v -1.65498 h 1.01325 1.01325 v 1.65498 1.65496 h -1.01325 -1.01325 z m 62.99031,0 v -3.9179 l -9.97739,-0.0172 -9.97741,-0.0171 -0.0362,0.21976 c -0.02,0.12086 -0.18587,1.55748 -0.36869,3.19246 -0.30337,2.71325 -0.35283,3.03576 -0.56666,3.6952 -0.12886,0.39737 -0.21756,0.7392 -0.19713,0.75964 0.0204,0.0204 4.78159,0.0294 10.58035,0.02 l 10.54321,-0.0171 v -3.9179 z m -19.08286,0 v -1.65498 h 0.97948 0.97947 v 1.65498 1.65496 h -0.97947 -0.97948 z m 4.66095,0 v -1.65498 h 0.97948 0.97947 v 1.65498 1.65496 h -0.97947 -0.97948 z m 4.5934,0 v -1.65498 h 0.97947 0.97948 v 1.65498 1.65496 h -0.97948 -0.97947 z m 4.72849,0 v -1.65498 h 0.97947 0.97948 v 1.65498 1.65496 h -0.97948 -0.97947 z m -132.71121,-4.64407 c 0.0194,-0.2322 0.0678,-0.93264 0.1076,-1.55653 0.0907,-1.42005 0.28849,-2.98057 0.53046,-4.18522 l 0.18657,-0.92881 H 184.50314 173.5746 v 3.50134 c 0,1.92574 0.0203,3.52161 0.045,3.54638 0.0248,0.0248 4.74917,0.045 10.49865,0.045 h 10.4536 z m -17.79003,-3.25931 v -1.65497 h 0.97947 0.97947 v 1.65497 1.65498 h -0.97947 -0.97947 z m 4.59338,0 v -1.65497 h 0.97948 0.97948 v 1.65497 1.65498 h -0.97948 -0.97948 z m 4.66095,0 v -1.65497 h 0.97948 0.97947 v 1.65497 1.65498 h -0.97947 -0.97948 z m 4.5934,0 v -1.65497 h 1.01325 1.01324 v 1.65497 1.65498 h -1.01324 -1.01325 z m 49.97063,-0.0844 0.0174,-3.73213 h -4.62775 c -2.54526,0 -4.62774,0.0125 -4.62774,0.0278 0,0.0152 0.10858,0.28125 0.24129,0.59106 0.46862,1.094 0.9743,2.62304 1.07424,3.24833 0.0549,0.34369 0.17754,1.26324 0.27245,2.04344 0.0949,0.7802 0.18594,1.4568 0.20231,1.50356 0.0236,0.0672 0.80463,0.0814 3.73002,0.0675 l 3.70026,-0.0174 0.0174,-3.73213 z m -6.06317,0.0844 v -1.65497 h 0.97947 0.97947 v 1.65497 1.65498 h -0.97947 -0.97947 z m 30.46502,-0.0675 c 0,-2.06197 -0.0158,-3.74903 -0.035,-3.74903 -0.0193,0 -2.72678,-0.76191 -6.01674,-1.69311 l -5.98175,-1.69312 -5.96928,1.69312 c -3.28311,0.9312 -5.98632,1.69311 -6.00715,1.69311 -0.0209,0 -0.0378,1.68706 -0.0378,3.74903 v 3.74901 h 12.0239 12.02389 z m -19.38683,0.0675 v -1.65497 h 0.97947 0.97947 v 1.65497 1.65498 h -0.97947 -0.97947 z m 6.34969,0 v -1.65497 h 1.01324 1.01325 v 1.65497 1.65498 h -1.01325 -1.01324 z m 6.34969,0 v -1.65497 h 1.01325 1.01325 v 1.65497 1.65498 h -1.01325 -1.01325 z m 14.72351,3.55082 c 0.0385,-0.0719 0.07,-0.20196 0.07,-0.28912 0,-0.21455 1.47736,-6.80066 1.56022,-6.95547 0.0632,-0.11814 -0.11218,-0.12279 -4.63138,-0.12279 h -4.69709 v 3.70398 c 0,2.0372 0.0203,3.72426 0.045,3.74903 0.0248,0.0248 1.74116,0.045 3.8142,0.045 3.65732,0 3.77123,-0.004 3.83908,-0.13065 z m -3.64532,-3.55082 v -1.65497 h 1.01325 1.01325 v 1.65497 1.65498 h -1.01325 -1.01325 z m 63.00779,0.11823 0.0175,-3.5295 h -10.97987 -10.97983 l 0.0806,0.152 c 0.0444,0.0835 0.1519,0.26557 0.23908,0.40439 0.0872,0.13882 0.44486,0.82328 0.79483,1.52102 0.52882,1.05432 0.65403,1.36542 0.74119,1.84163 0.17155,0.93727 0.24466,1.94539 0.18365,2.53198 -0.0309,0.29722 -0.0435,0.5633 -0.028,0.5913 0.0155,0.028 4.50237,0.0432 9.9708,0.0338 l 9.9426,-0.0172 0.0175,-3.52948 z m -19.10034,-0.11823 v -1.65497 h 0.97948 0.97947 v 1.65497 1.65498 h -0.97947 -0.97948 z m 4.66095,0 v -1.65497 h 0.97948 0.97947 v 1.65497 1.65498 h -0.97947 -0.97948 z m 4.5934,0 v -1.65497 h 0.97947 0.97948 v 1.65497 1.65498 h -0.97948 -0.97947 z m 4.72849,0 v -1.65497 h 0.97947 0.97948 v 1.65497 1.65498 h -0.97948 -0.97947 z"
       style="fill:#000000;stroke-width:0.22516644" />
    <g
       id="text4545"
       style="font-style:normal;font-variant:normal;font-weight:normal;font-stretch:normal;font-size:15px;line-height:125%;font-family:'Bold Oblique';-inkscape-font-specification:'Bold Oblique, ';letter-spacing:0px;word-spacing:0px;fill:#000000;fill-opacity:1;stroke:none;stroke-width:1px;stroke-linecap:butt;stroke-linejoin:miter;stroke-opacity:1"
       aria-label="Designed by humans on earth

im Tech-Lab, 
dem Maker-Space an der 
Kantonsschule am Burggraben">
      <path
         id="path4630"
         style="text-align:center;text-anchor:middle"
         d="m 150.98859,25.033552 h 1.245 c 1.815,0 2.67,0.735 2.67,2.295 0,0.39 -0.045,0.825 -0.15,1.305 -0.525,2.49 -1.785,3.615 -4.05,3.615 h -1.245 z m -1.38,-1.68 -2.235,10.545 h 2.805 c 3.795,0 5.835,-1.635 6.6,-5.265 0.135,-0.66 0.21,-1.245 0.21,-1.77 0,-2.43 -1.485,-3.51 -4.575,-3.51 z"
         inkscape:connector-curvature="0" />
      <path
         id="path4632"
         style="text-align:center;text-anchor:middle"
         d="m 161.89453,27.028552 c -1.995,0 -3.84,1.56 -4.26,3.54 -0.06,0.255 -0.075,0.51 -0.075,0.735 0,1.605 1.17,2.76 2.91,2.76 1.275,-0.015 2.55,-0.54 3.39,-1.485 l -0.87,-0.885 c -0.615,0.555 -1.32,0.885 -2.13,0.885 h -0.06 c -0.915,0 -1.53,-0.645 -1.53,-1.425 0,-0.105 0,-0.225 0.03,-0.33 h 5.085 l 0.135,-0.615 c 0.06,-0.285 0.09,-0.555 0.09,-0.81 0,-1.485 -1.02,-2.37 -2.64,-2.37 z m 1.065,2.505 h -3.24 c 0.21,-0.405 1.095,-0.975 1.86,-0.975 0.75,0 1.38,0.255 1.38,0.945 z"
         inkscape:connector-curvature="0" />
      <path
         id="path4634"
         style="text-align:center;text-anchor:middle"
         d="m 171.45047,28.468552 c -0.345,-0.84 -1.05,-1.44 -2.055,-1.44 h -0.075 c -1.62,0 -2.775,0.945 -3.015,2.1 -0.03,0.12 -0.045,0.24 -0.045,0.36 0,0.885 0.735,1.365 1.59,1.56 0.615,0.135 1.41,0.39 1.41,0.825 0,0.015 -0.015,0.045 -0.015,0.075 -0.06,0.39 -0.645,0.585 -1.275,0.585 -0.51,0 -0.885,-0.24 -1.155,-0.855 l -1.485,1.02 c 0.525,1.125 1.515,1.395 2.31,1.395 1.395,0 2.895,-0.78 3.225,-2.13 0.03,-0.15 0.045,-0.285 0.045,-0.42 0,-0.885 -0.615,-1.395 -1.455,-1.62 -0.555,-0.135 -1.485,-0.39 -1.485,-0.795 v -0.045 c 0.105,-0.48 0.48,-0.675 1.05,-0.69 0.57,0 0.975,0.615 1.125,0.9 z"
         inkscape:connector-curvature="0" />
      <path
         id="path4636"
         style="text-align:center;text-anchor:middle"
         d="m 173.61305,27.178552 -1.425,6.72 h 1.665 l 1.425,-6.72 z m 1.59,-3.555 c -0.6,0 -1.155,0.45 -1.29,1.035 -0.015,0.075 -0.015,0.15 -0.015,0.21 0,0.48 0.345,0.825 0.87,0.825 0.6,0 1.155,-0.45 1.275,-1.035 0.015,-0.075 0.03,-0.165 0.03,-0.24 0,-0.465 -0.36,-0.795 -0.87,-0.795 z"
         inkscape:connector-curvature="0" />
      <path
         id="path4638"
         style="text-align:center;text-anchor:middle"
         d="m 181.18875,30.613552 c -0.255,1.2 -0.96,1.845 -1.935,1.845 -0.705,0 -1.065,-0.42 -1.065,-1.185 0,-0.195 0.015,-0.435 0.075,-0.69 0.255,-1.2 0.915,-1.905 1.785,-1.905 0.795,0 1.215,0.495 1.215,1.305 0,0.195 -0.03,0.405 -0.075,0.63 z m 1.08,3.24 1.425,-6.675 h -1.77 l -0.21,0.96 c -0.225,-0.765 -0.72,-1.11 -1.545,-1.11 -1.89,0 -3.45,1.44 -3.9,3.555 -0.075,0.33 -0.105,0.63 -0.105,0.915 0,1.56 0.945,2.565 2.505,2.565 0.825,0 1.5,-0.36 1.995,-0.975 l -0.195,0.885 c -0.225,1.11 -0.99,1.635 -2.145,1.635 -0.675,0 -1.155,-0.315 -1.395,-0.78 l -1.485,1.05 c 0.45,1.02 1.725,1.395 2.685,1.395 2.22,-0.03 3.66,-1.14 4.14,-3.42 z"
         inkscape:connector-curvature="0" />
      <path
         id="path4640"
         style="text-align:center;text-anchor:middle"
         d="m 191.39625,29.968552 c 0.075,-0.36 0.12,-0.69 0.12,-0.975 0,-1.305 -0.75,-1.965 -2.175,-1.965 -0.81,0 -1.47,0.36 -2.1,1.095 l 0.195,-0.915 h -1.68 l -1.41,6.69 h 1.68 l 0.78,-3.69 c 0.225,-0.93 0.915,-1.53 1.935,-1.53 0.585,0.015 0.87,0.3 0.87,0.84 0,0.15 -0.03,0.3 -0.06,0.48 l -0.825,3.9 h 1.845 z"
         inkscape:connector-curvature="0" />
      <path
         id="path4642"
         style="text-align:center;text-anchor:middle"
         d="m 197.10937,27.028552 c -1.995,0 -3.84,1.56 -4.26,3.54 -0.06,0.255 -0.075,0.51 -0.075,0.735 0,1.605 1.17,2.76 2.91,2.76 1.275,-0.015 2.55,-0.54 3.39,-1.485 l -0.87,-0.885 c -0.615,0.555 -1.32,0.885 -2.13,0.885 h -0.06 c -0.915,0 -1.53,-0.645 -1.53,-1.425 0,-0.105 0,-0.225 0.03,-0.33 h 5.085 l 0.135,-0.615 c 0.06,-0.285 0.09,-0.555 0.09,-0.81 0,-1.485 -1.02,-2.37 -2.64,-2.37 z m 1.065,2.505 h -3.24 c 0.21,-0.405 1.095,-0.975 1.86,-0.975 0.75,0 1.38,0.255 1.38,0.945 z"
         inkscape:connector-curvature="0" />
      <path
         id="path4644"
         style="text-align:center;text-anchor:middle"
         d="m 206.56031,28.093552 c -0.225,-0.795 -0.795,-1.065 -1.62,-1.065 h -0.03 c -1.665,0 -3.375,1.23 -3.84,3.33 -0.09,0.405 -0.12,0.78 -0.12,1.125 0,1.68 0.945,2.58 2.49,2.58 0.87,0 1.545,-0.375 2.085,-1.095 l -0.195,0.93 h 1.65 l 2.385,-11.25 h -1.65 z m -3.495,2.265 c 0.24,-1.155 0.9,-1.68 1.755,-1.68 0.825,0 1.29,0.39 1.29,1.215 0,0.18 -0.015,0.375 -0.06,0.6 -0.255,1.215 -1.02,1.965 -2.025,1.965 h -0.045 c -0.72,0 -1.02,-0.495 -1.02,-1.245 0,-0.255 0.03,-0.54 0.105,-0.855 z"
         inkscape:connector-curvature="0" />
      <path
         id="path4646"
         style="text-align:center;text-anchor:middle"
         d="m 219.40969,30.358552 c -0.27,1.23 -0.99,2.1 -1.86,2.1 -0.855,0 -1.26,-0.57 -1.26,-1.425 0,-0.21 0.03,-0.435 0.075,-0.675 0.27,-1.275 0.99,-1.68 1.98,-1.68 0.705,0 1.14,0.3 1.14,1.065 0,0.18 -0.03,0.39 -0.075,0.615 z m -2.55,-2.355 1.14,-5.355 h -1.62 l -2.385,11.25 h 1.62 l 0.195,-0.93 c 0.285,0.795 0.795,1.095 1.635,1.095 1.905,0 3.48,-1.515 3.945,-3.705 0.075,-0.375 0.12,-0.705 0.12,-1.02 0,-1.56 -0.99,-2.31 -2.565,-2.31 -0.885,0 -1.5,0.21 -2.085,0.975 z"
         inkscape:connector-curvature="0" />
      <path
         id="path4648"
         style="text-align:center;text-anchor:middle"
         d="m 227.86289,30.538552 c -0.255,1.215 -0.96,1.92 -1.935,1.92 -0.75,0 -1.125,-0.435 -1.125,-1.215 0,-0.21 0.015,-0.45 0.075,-0.705 l 0.72,-3.36 h -1.89 l -0.72,3.36 c -0.075,0.36 -0.12,0.69 -0.12,1.005 0,1.59 0.96,2.52 2.475,2.52 0.81,0 1.47,-0.27 1.995,-1.02 l -0.195,0.885 c -0.24,1.125 -0.99,1.65 -2.13,1.65 -0.675,0 -1.17,-0.3 -1.395,-0.78 l -1.515,1.08 c 0.42,0.93 1.455,1.41 2.49,1.41 0.075,0 0.15,-0.015 0.225,-0.015 2.34,0 3.675,-1.2 4.17,-3.54 l 1.395,-6.555 h -1.8 z"
         inkscape:connector-curvature="0" />
      <path
         id="path4650"
         style="text-align:center;text-anchor:middle"
         d="m 243.01734,29.983552 c 0.075,-0.39 0.12,-0.72 0.12,-1.035 0,-1.32 -0.765,-1.92 -2.175,-1.92 -0.81,0 -1.44,0.225 -2.07,1.005 l 1.14,-5.385 h -1.68 l -2.385,11.25 h 1.68 l 0.78,-3.675 c 0.225,-0.975 0.915,-1.545 1.935,-1.545 0.57,0.015 0.87,0.255 0.87,0.81 0,0.15 -0.03,0.33 -0.075,0.54 l -0.81,3.87 h 1.845 z"
         inkscape:connector-curvature="0" />
      <path
         id="path4652"
         style="text-align:center;text-anchor:middle"
         d="m 244.66547,31.138552 c -0.06,0.27 -0.09,0.51 -0.09,0.735 0,1.455 1.11,2.19 2.61,2.19 h 0.075 c 1.83,0 3.24,-1.11 3.645,-2.925 l 0.84,-3.96 h -1.83 l -0.795,3.72 c -0.24,1.08 -0.705,1.56 -1.59,1.56 -0.66,0 -1.11,-0.375 -1.11,-1.02 0,-0.105 0.015,-0.225 0.045,-0.345 l 0.84,-3.915 h -1.8 z"
         inkscape:connector-curvature="0" />
      <path
         id="path4654"
         style="text-align:center;text-anchor:middle"
         d="m 259.215,28.288552 c -0.18,-0.84 -0.81,-1.26 -1.815,-1.26 -0.87,0 -1.5,0.345 -2.145,1.095 l 0.195,-0.915 h -1.725 l -1.41,6.69 h 1.725 l 0.78,-3.69 c 0.225,-0.9 0.93,-1.53 1.905,-1.53 0.57,0 0.84,0.285 0.84,0.825 0,0.15 -0.015,0.315 -0.06,0.495 l -0.825,3.9 h 1.875 l 0.78,-3.69 c 0.225,-0.93 0.9,-1.53 1.845,-1.53 0.54,0 0.81,0.285 0.81,0.825 0,0.15 -0.015,0.315 -0.06,0.495 l -0.825,3.9 h 1.905 l 0.825,-3.93 c 0.075,-0.345 0.105,-0.66 0.105,-0.945 0,-1.29 -0.735,-1.995 -2.1,-1.995 -1.065,0 -1.92,0.405 -2.625,1.26 z"
         inkscape:connector-curvature="0" />
      <path
         id="path4656"
         style="text-align:center;text-anchor:middle"
         d="m 270.88125,28.078552 c -0.24,-0.735 -0.795,-1.05 -1.62,-1.05 -1.875,0 -3.465,1.425 -3.915,3.525 -0.075,0.345 -0.105,0.66 -0.105,0.96 0,1.56 0.96,2.535 2.52,2.535 0.87,0 1.545,-0.33 2.07,-1.005 l -0.18,0.855 h 1.65 l 1.425,-6.72 h -1.65 z m -3.54,2.475 c 0.255,-1.2 0.945,-1.875 1.8,-1.875 0.825,0 1.275,0.48 1.275,1.305 0,0.165 -0.015,0.36 -0.06,0.57 -0.255,1.185 -1.005,1.905 -2.01,1.905 -0.705,0 -1.08,-0.465 -1.08,-1.23 0,-0.21 0.015,-0.435 0.075,-0.675 z"
         inkscape:connector-curvature="0" />
      <path
         id="path4658"
         style="text-align:center;text-anchor:middle"
         d="m 280.42945,29.968552 c 0.075,-0.36 0.12,-0.69 0.12,-0.975 0,-1.305 -0.75,-1.965 -2.175,-1.965 -0.81,0 -1.47,0.36 -2.1,1.095 l 0.195,-0.915 h -1.68 l -1.41,6.69 h 1.68 l 0.78,-3.69 c 0.225,-0.93 0.915,-1.53 1.935,-1.53 0.585,0.015 0.87,0.3 0.87,0.84 0,0.15 -0.03,0.3 -0.06,0.48 l -0.825,3.9 h 1.845 z"
         inkscape:connector-curvature="0" />
      <path
         id="path4660"
         style="text-align:center;text-anchor:middle"
         d="m 287.61258,28.468552 c -0.345,-0.84 -1.05,-1.44 -2.055,-1.44 h -0.075 c -1.62,0 -2.775,0.945 -3.015,2.1 -0.03,0.12 -0.045,0.24 -0.045,0.36 0,0.885 0.735,1.365 1.59,1.56 0.615,0.135 1.41,0.39 1.41,0.825 0,0.015 -0.015,0.045 -0.015,0.075 -0.06,0.39 -0.645,0.585 -1.275,0.585 -0.51,0 -0.885,-0.24 -1.155,-0.855 l -1.485,1.02 c 0.525,1.125 1.515,1.395 2.31,1.395 1.395,0 2.895,-0.78 3.225,-2.13 0.03,-0.15 0.045,-0.285 0.045,-0.42 0,-0.885 -0.615,-1.395 -1.455,-1.62 -0.555,-0.135 -1.485,-0.39 -1.485,-0.795 v -0.045 c 0.105,-0.48 0.48,-0.675 1.05,-0.69 0.57,0 0.975,0.615 1.125,0.9 z"
         inkscape:connector-curvature="0" />
      <path
         id="path4662"
         style="text-align:center;text-anchor:middle"
         d="m 297.96633,27.028552 c -1.995,0 -3.945,1.56 -4.365,3.54 -0.06,0.255 -0.075,0.495 -0.075,0.735 0,1.59 1.2,2.76 2.94,2.76 1.98,0 3.9,-1.53 4.32,-3.51 0.06,-0.255 0.075,-0.51 0.075,-0.75 0,-1.605 -1.17,-2.775 -2.895,-2.775 z m -0.315,1.53 c 0.825,0 1.365,0.69 1.365,1.56 0,0.15 -0.015,0.3 -0.045,0.45 -0.24,1.08 -1.2,1.965 -2.16,1.965 -0.825,0 -1.395,-0.645 -1.395,-1.5 0,-0.15 0.03,-0.3 0.06,-0.465 0.225,-1.065 1.2,-2.01 2.175,-2.01 z"
         inkscape:connector-curvature="0" />
      <path
         id="path4664"
         style="text-align:center;text-anchor:middle"
         d="m 308.81812,29.968552 c 0.075,-0.36 0.12,-0.69 0.12,-0.975 0,-1.305 -0.75,-1.965 -2.175,-1.965 -0.81,0 -1.47,0.36 -2.1,1.095 l 0.195,-0.915 h -1.68 l -1.41,6.69 h 1.68 l 0.78,-3.69 c 0.225,-0.93 0.915,-1.53 1.935,-1.53 0.585,0.015 0.87,0.3 0.87,0.84 0,0.15 -0.03,0.3 -0.06,0.48 l -0.825,3.9 h 1.845 z"
         inkscape:connector-curvature="0" />
      <path
         id="path4666"
         style="text-align:center;text-anchor:middle"
         d="m 319.48242,27.028552 c -1.995,0 -3.84,1.56 -4.26,3.54 -0.06,0.255 -0.075,0.51 -0.075,0.735 0,1.605 1.17,2.76 2.91,2.76 1.275,-0.015 2.55,-0.54 3.39,-1.485 l -0.87,-0.885 c -0.615,0.555 -1.32,0.885 -2.13,0.885 h -0.06 c -0.915,0 -1.53,-0.645 -1.53,-1.425 0,-0.105 0,-0.225 0.03,-0.33 h 5.085 l 0.135,-0.615 c 0.06,-0.285 0.09,-0.555 0.09,-0.81 0,-1.485 -1.02,-2.37 -2.64,-2.37 z m 1.065,2.505 h -3.24 c 0.21,-0.405 1.095,-0.975 1.86,-0.975 0.75,0 1.38,0.255 1.38,0.945 z"
         inkscape:connector-curvature="0" />
      <path
         id="path4668"
         style="text-align:center;text-anchor:middle"
         d="m 328.91836,28.078552 c -0.24,-0.735 -0.795,-1.05 -1.62,-1.05 -1.875,0 -3.465,1.425 -3.915,3.525 -0.075,0.345 -0.105,0.66 -0.105,0.96 0,1.56 0.96,2.535 2.52,2.535 0.87,0 1.545,-0.33 2.07,-1.005 l -0.18,0.855 h 1.65 l 1.425,-6.72 h -1.65 z m -3.54,2.475 c 0.255,-1.2 0.945,-1.875 1.8,-1.875 0.825,0 1.275,0.48 1.275,1.305 0,0.165 -0.015,0.36 -0.06,0.57 -0.255,1.185 -1.005,1.905 -2.01,1.905 -0.705,0 -1.08,-0.465 -1.08,-1.23 0,-0.21 0.015,-0.435 0.075,-0.675 z"
         inkscape:connector-curvature="0" />
      <path
         id="path4670"
         style="text-align:center;text-anchor:middle"
         d="m 336.60656,28.918552 0.855,-1.425 c -0.315,-0.345 -0.855,-0.465 -1.05,-0.465 -0.915,0 -1.59,0.345 -2.145,1.095 l 0.21,-0.945 h -1.635 l -1.425,6.72 h 1.635 l 0.735,-3.465 c 0.255,-1.095 0.9,-1.755 1.935,-1.755 0.27,0 0.645,0.105 0.885,0.24 z"
         inkscape:connector-curvature="0" />
      <path
         id="path4672"
         style="text-align:center;text-anchor:middle"
         d="m 341.51531,24.523552 h -1.62 l -0.555,2.655 h -0.855 l -0.3,1.395 h 0.855 l -1.125,5.325 h 1.62 l 1.125,-5.325 h 0.84 l 0.3,-1.395 h -0.84 z"
         inkscape:connector-curvature="0" />
      <path
         id="path4674"
         style="text-align:center;text-anchor:middle"
         d="m 349.04273,29.983552 c 0.075,-0.39 0.12,-0.72 0.12,-1.035 0,-1.32 -0.765,-1.92 -2.175,-1.92 -0.81,0 -1.44,0.225 -2.07,1.005 l 1.14,-5.385 h -1.68 l -2.385,11.25 h 1.68 l 0.78,-3.675 c 0.225,-0.975 0.915,-1.545 1.935,-1.545 0.57,0.015 0.87,0.255 0.87,0.81 0,0.15 -0.03,0.33 -0.075,0.54 l -0.81,3.87 h 1.845 z"
         inkscape:connector-curvature="0" />
      <path
         id="path4676"
         style="text-align:center;text-anchor:middle"
         d="m 207.48023,64.678552 -1.425,6.72 h 1.665 l 1.425,-6.72 z m 1.59,-3.555 c -0.6,0 -1.155,0.45 -1.29,1.035 -0.015,0.075 -0.015,0.15 -0.015,0.21 0,0.48 0.345,0.825 0.87,0.825 0.6,0 1.155,-0.45 1.275,-1.035 0.015,-0.075 0.03,-0.165 0.03,-0.24 0,-0.465 -0.36,-0.795 -0.87,-0.795 z"
         inkscape:connector-curvature="0" />
      <path
         id="path4678"
         style="text-align:center;text-anchor:middle"
         d="m 216.67594,65.788552 c -0.18,-0.84 -0.81,-1.26 -1.815,-1.26 -0.87,0 -1.5,0.345 -2.145,1.095 l 0.195,-0.915 h -1.725 l -1.41,6.69 h 1.725 l 0.78,-3.69 c 0.225,-0.9 0.93,-1.53 1.905,-1.53 0.57,0 0.84,0.285 0.84,0.825 0,0.15 -0.015,0.315 -0.06,0.495 l -0.825,3.9 h 1.875 l 0.78,-3.69 c 0.225,-0.93 0.9,-1.53 1.845,-1.53 0.54,0 0.81,0.285 0.81,0.825 0,0.15 -0.015,0.315 -0.06,0.495 l -0.825,3.9 h 1.905 l 0.825,-3.93 c 0.075,-0.345 0.105,-0.66 0.105,-0.945 0,-1.29 -0.735,-1.995 -2.1,-1.995 -1.065,0 -1.92,0.405 -2.625,1.26 z"
         inkscape:connector-curvature="0" />
      <path
         id="path4680"
         style="text-align:center;text-anchor:middle"
         d="m 228.82336,60.898552 -0.345,1.65 h 3.135 l -1.875,8.85 h 1.74 l 1.875,-8.85 h 3.12 l 0.345,-1.65 z"
         inkscape:connector-curvature="0" />
      <path
         id="path4682"
         style="text-align:center;text-anchor:middle"
         d="m 238.56445,64.528552 c -1.995,0 -3.84,1.56 -4.26,3.54 -0.06,0.255 -0.075,0.51 -0.075,0.735 0,1.605 1.17,2.76 2.91,2.76 1.275,-0.015 2.55,-0.54 3.39,-1.485 l -0.87,-0.885 c -0.615,0.555 -1.32,0.885 -2.13,0.885 h -0.06 c -0.915,0 -1.53,-0.645 -1.53,-1.425 0,-0.105 0,-0.225 0.03,-0.33 h 5.085 l 0.135,-0.615 c 0.06,-0.285 0.09,-0.555 0.09,-0.81 0,-1.485 -1.02,-2.37 -2.64,-2.37 z m 1.065,2.505 h -3.24 c 0.21,-0.405 1.095,-0.975 1.86,-0.975 0.75,0 1.38,0.255 1.38,0.945 z"
         inkscape:connector-curvature="0" />
      <path
         id="path4684"
         style="text-align:center;text-anchor:middle"
         d="m 246.68039,64.528552 c -1.935,0 -3.87,1.56 -4.29,3.54 -0.06,0.255 -0.075,0.495 -0.075,0.735 0,1.605 1.185,2.76 2.865,2.76 0.93,0 1.71,-0.285 2.67,-0.93 l -0.81,-1.2 c -0.45,0.375 -0.96,0.6 -1.5,0.6 -0.81,0 -1.38,-0.645 -1.38,-1.5 0,-0.15 0.03,-0.3 0.06,-0.465 0.225,-1.065 1.2,-2.01 2.16,-2.01 0.525,0 0.945,0.27 1.245,0.645 l 1.305,-1.11 c -0.57,-0.78 -1.485,-1.02 -2.25,-1.065 z"
         inkscape:connector-curvature="0" />
      <path
         id="path4686"
         style="text-align:center;text-anchor:middle"
         d="m 256.23023,67.483552 c 0.075,-0.39 0.12,-0.72 0.12,-1.035 0,-1.32 -0.765,-1.92 -2.175,-1.92 -0.81,0 -1.44,0.225 -2.07,1.005 l 1.14,-5.385 h -1.68 l -2.385,11.25 h 1.68 l 0.78,-3.675 c 0.225,-0.975 0.915,-1.545 1.935,-1.545 0.57,0.015 0.87,0.255 0.87,0.81 0,0.15 -0.03,0.33 -0.075,0.54 l -0.81,3.87 h 1.845 z"
         inkscape:connector-curvature="0" />
      <path
         id="path4688"
         style="text-align:center;text-anchor:middle"
         d="m 258.35836,67.408552 -0.27,1.29 h 3.78 l 0.27,-1.29 z"
         inkscape:connector-curvature="0" />
      <path
         id="path4690"
         style="text-align:center;text-anchor:middle"
         d="m 265.72641,60.898552 -2.22,10.5 h 6.165 l 0.33,-1.605 h -4.425 l 1.89,-8.895 z"
         inkscape:connector-curvature="0" />
      <path
         id="path4692"
         style="text-align:center;text-anchor:middle"
         d="m 276.79922,65.578552 c -0.24,-0.735 -0.795,-1.05 -1.62,-1.05 -1.875,0 -3.465,1.425 -3.915,3.525 -0.075,0.345 -0.105,0.66 -0.105,0.96 0,1.56 0.96,2.535 2.52,2.535 0.87,0 1.545,-0.33 2.07,-1.005 l -0.18,0.855 h 1.65 l 1.425,-6.72 h -1.65 z m -3.54,2.475 c 0.255,-1.2 0.945,-1.875 1.8,-1.875 0.825,0 1.275,0.48 1.275,1.305 0,0.165 -0.015,0.36 -0.06,0.57 -0.255,1.185 -1.005,1.905 -2.01,1.905 -0.705,0 -1.08,-0.465 -1.08,-1.23 0,-0.21 0.015,-0.435 0.075,-0.675 z"
         inkscape:connector-curvature="0" />
      <path
         id="path4694"
         style="text-align:center;text-anchor:middle"
         d="m 284.71242,67.858552 c -0.27,1.23 -0.99,2.1 -1.86,2.1 -0.855,0 -1.26,-0.57 -1.26,-1.425 0,-0.21 0.03,-0.435 0.075,-0.675 0.27,-1.275 0.99,-1.68 1.98,-1.68 0.705,0 1.14,0.3 1.14,1.065 0,0.18 -0.03,0.39 -0.075,0.615 z m -2.55,-2.355 1.14,-5.355 h -1.62 l -2.385,11.25 h 1.62 l 0.195,-0.93 c 0.285,0.795 0.795,1.095 1.635,1.095 1.905,0 3.48,-1.515 3.945,-3.705 0.075,-0.375 0.12,-0.705 0.12,-1.02 0,-1.56 -0.99,-2.31 -2.565,-2.31 -0.885,0 -1.5,0.21 -2.085,0.975 z"
         inkscape:connector-curvature="0" />
      <path
         id="path4696"
         style="text-align:center;text-anchor:middle"
         d="m 290.06062,71.038552 -1.11,-0.705 -2.07,2.73 0.78,0.555 z"
         inkscape:connector-curvature="0" />
      <path
         id="path4698"
         style="text-align:center;text-anchor:middle"
         d="m 169.64625,84.343552 c -0.225,-0.795 -0.795,-1.065 -1.62,-1.065 h -0.03 c -1.665,0 -3.375,1.23 -3.84,3.33 -0.09,0.405 -0.12,0.78 -0.12,1.125 0,1.68 0.945,2.58 2.49,2.58 0.87,0 1.545,-0.375 2.085,-1.095 l -0.195,0.93 h 1.65 l 2.385,-11.25 h -1.65 z m -3.495,2.265 c 0.24,-1.155 0.9,-1.68 1.755,-1.68 0.825,0 1.29,0.39 1.29,1.215 0,0.18 -0.015,0.375 -0.06,0.6 -0.255,1.215 -1.02,1.965 -2.025,1.965 h -0.045 c -0.72,0 -1.02,-0.495 -1.02,-1.245 0,-0.255 0.03,-0.54 0.105,-0.855 z"
         inkscape:connector-curvature="0" />
      <path
         id="path4700"
         style="text-align:center;text-anchor:middle"
         d="m 176.68945,83.278552 c -1.995,0 -3.84,1.56 -4.26,3.54 -0.06,0.255 -0.075,0.51 -0.075,0.735 0,1.605 1.17,2.76 2.91,2.76 1.275,-0.015 2.55,-0.54 3.39,-1.485 l -0.87,-0.885 c -0.615,0.555 -1.32,0.885 -2.13,0.885 h -0.06 c -0.915,0 -1.53,-0.645 -1.53,-1.425 0,-0.105 0,-0.225 0.03,-0.33 h 5.085 l 0.135,-0.615 c 0.06,-0.285 0.09,-0.555 0.09,-0.81 0,-1.485 -1.02,-2.37 -2.64,-2.37 z m 1.065,2.505 h -3.24 c 0.21,-0.405 1.095,-0.975 1.86,-0.975 0.75,0 1.38,0.255 1.38,0.945 z"
         inkscape:connector-curvature="0" />
      <path
         id="path4702"
         style="text-align:center;text-anchor:middle"
         d="m 187.11539,84.538552 c -0.18,-0.84 -0.81,-1.26 -1.815,-1.26 -0.87,0 -1.5,0.345 -2.145,1.095 l 0.195,-0.915 h -1.725 l -1.41,6.69 h 1.725 l 0.78,-3.69 c 0.225,-0.9 0.93,-1.53 1.905,-1.53 0.57,0 0.84,0.285 0.84,0.825 0,0.15 -0.015,0.315 -0.06,0.495 l -0.825,3.9 h 1.875 l 0.78,-3.69 c 0.225,-0.93 0.9,-1.53 1.845,-1.53 0.54,0 0.81,0.285 0.81,0.825 0,0.15 -0.015,0.315 -0.06,0.495 l -0.825,3.9 h 1.905 l 0.825,-3.93 c 0.075,-0.345 0.105,-0.66 0.105,-0.945 0,-1.29 -0.735,-1.995 -2.1,-1.995 -1.065,0 -1.92,0.405 -2.625,1.26 z"
         inkscape:connector-curvature="0" />
      <path
         id="path4704"
         style="text-align:center;text-anchor:middle"
         d="m 207.85781,79.648552 -4.095,6.84 -1.155,-6.84 h -0.105 l -5.565,10.5 h 1.785 l 3.225,-5.94 1.05,5.94 3.63,-5.94 0.615,5.94 h 1.8 l -1.095,-10.5 z"
         inkscape:connector-curvature="0" />
      <path
         id="path4706"
         style="text-align:center;text-anchor:middle"
         d="m 216.15469,84.328552 c -0.24,-0.735 -0.795,-1.05 -1.62,-1.05 -1.875,0 -3.465,1.425 -3.915,3.525 -0.075,0.345 -0.105,0.66 -0.105,0.96 0,1.56 0.96,2.535 2.52,2.535 0.87,0 1.545,-0.33 2.07,-1.005 l -0.18,0.855 h 1.65 l 1.425,-6.72 h -1.65 z m -3.54,2.475 c 0.255,-1.2 0.945,-1.875 1.8,-1.875 0.825,0 1.275,0.48 1.275,1.305 0,0.165 -0.015,0.36 -0.06,0.57 -0.255,1.185 -1.005,1.905 -2.01,1.905 -0.705,0 -1.08,-0.465 -1.08,-1.23 0,-0.21 0.015,-0.435 0.075,-0.675 z"
         inkscape:connector-curvature="0" />
      <path
         id="path4708"
         style="text-align:center;text-anchor:middle"
         d="m 221.03789,78.898552 -2.385,11.25 h 1.635 l 0.63,-3 2.34,3 h 1.995 l -2.88,-3.66 4.155,-3.06 h -1.965 l -3.375,2.445 1.485,-6.975 z"
         inkscape:connector-curvature="0" />
      <path
         id="path4710"
         style="text-align:center;text-anchor:middle"
         d="m 230.33203,83.278552 c -1.995,0 -3.84,1.56 -4.26,3.54 -0.06,0.255 -0.075,0.51 -0.075,0.735 0,1.605 1.17,2.76 2.91,2.76 1.275,-0.015 2.55,-0.54 3.39,-1.485 l -0.87,-0.885 c -0.615,0.555 -1.32,0.885 -2.13,0.885 h -0.06 c -0.915,0 -1.53,-0.645 -1.53,-1.425 0,-0.105 0,-0.225 0.03,-0.33 h 5.085 l 0.135,-0.615 c 0.06,-0.285 0.09,-0.555 0.09,-0.81 0,-1.485 -1.02,-2.37 -2.64,-2.37 z m 1.065,2.505 h -3.24 c 0.21,-0.405 1.095,-0.975 1.86,-0.975 0.75,0 1.38,0.255 1.38,0.945 z"
         inkscape:connector-curvature="0" />
      <path
         id="path4712"
         style="text-align:center;text-anchor:middle"
         d="m 239.04797,85.168552 0.855,-1.425 c -0.315,-0.345 -0.855,-0.465 -1.05,-0.465 -0.915,0 -1.59,0.345 -2.145,1.095 l 0.21,-0.945 h -1.635 l -1.425,6.72 h 1.635 l 0.735,-3.465 c 0.255,-1.095 0.9,-1.755 1.935,-1.755 0.27,0 0.645,0.105 0.885,0.24 z"
         inkscape:connector-curvature="0" />
      <path
         id="path4714"
         style="text-align:center;text-anchor:middle"
         d="m 239.66695,86.158552 -0.27,1.29 h 3.78 l 0.27,-1.29 z"
         inkscape:connector-curvature="0" />
      <path
         id="path4716"
         style="text-align:center;text-anchor:middle"
         d="m 252.96,81.088552 c -0.6,-0.975 -1.305,-1.59 -2.64,-1.605 -1.98,0.03 -3.78,1.29 -4.17,3.09 -0.06,0.3 -0.105,0.585 -0.105,0.84 0,1.2 0.735,1.89 2.31,2.25 0.855,0.21 1.83,0.39 1.83,1.275 0,0.09 0,0.195 -0.03,0.3 -0.195,0.93 -1.11,1.335 -2.235,1.335 -0.705,-0.03 -1.35,-0.33 -1.89,-0.99 l -1.41,1.32 c 0.735,0.9 1.965,1.425 2.925,1.425 h 0.03 c 2.19,0 4.02,-1.365 4.425,-3.195 0.06,-0.285 0.09,-0.54 0.09,-0.795 0,-1.245 -0.765,-1.995 -2.34,-2.355 -0.78,-0.18 -1.77,-0.435 -1.77,-1.185 0,-0.075 0.015,-0.15 0.03,-0.225 0.21,-0.9 1.005,-1.32 2.085,-1.32 0.78,0 1.08,0.39 1.485,1.035 z"
         inkscape:connector-curvature="0" />
      <path
         id="path4718"
         style="text-align:center;text-anchor:middle"
         d="m 254.70094,89.383552 c 0.285,0.795 0.825,0.96 1.65,0.96 1.905,0 3.45,-1.395 3.9,-3.555 0.075,-0.375 0.12,-0.72 0.12,-1.05 0,-1.575 -0.945,-2.46 -2.52,-2.46 -0.87,0 -1.5,0.36 -2.085,1.125 l 0.21,-0.975 h -1.65 l -2.145,10.095 h 1.65 z m 3.57,-2.595 c -0.255,1.23 -0.945,1.92 -1.815,1.92 -0.84,0 -1.275,-0.48 -1.275,-1.29 0,-0.195 0.03,-0.405 0.075,-0.63 0.27,-1.275 1.035,-1.86 1.995,-1.86 0.69,0 1.095,0.405 1.095,1.185 0,0.195 -0.015,0.42 -0.075,0.675 z"
         inkscape:connector-curvature="0" />
      <path
         id="path4720"
         style="text-align:center;text-anchor:middle"
         d="m 267.21914,84.328552 c -0.24,-0.735 -0.795,-1.05 -1.62,-1.05 -1.875,0 -3.465,1.425 -3.915,3.525 -0.075,0.345 -0.105,0.66 -0.105,0.96 0,1.56 0.96,2.535 2.52,2.535 0.87,0 1.545,-0.33 2.07,-1.005 l -0.18,0.855 h 1.65 l 1.425,-6.72 h -1.65 z m -3.54,2.475 c 0.255,-1.2 0.945,-1.875 1.8,-1.875 0.825,0 1.275,0.48 1.275,1.305 0,0.165 -0.015,0.36 -0.06,0.57 -0.255,1.185 -1.005,1.905 -2.01,1.905 -0.705,0 -1.08,-0.465 -1.08,-1.23 0,-0.21 0.015,-0.435 0.075,-0.675 z"
         inkscape:connector-curvature="0" />
      <path
         id="path4722"
         style="text-align:center;text-anchor:middle"
         d="m 274.30734,83.278552 c -1.935,0 -3.87,1.56 -4.29,3.54 -0.06,0.255 -0.075,0.495 -0.075,0.735 0,1.605 1.185,2.76 2.865,2.76 0.93,0 1.71,-0.285 2.67,-0.93 l -0.81,-1.2 c -0.45,0.375 -0.96,0.6 -1.5,0.6 -0.81,0 -1.38,-0.645 -1.38,-1.5 0,-0.15 0.03,-0.3 0.06,-0.465 0.225,-1.065 1.2,-2.01 2.16,-2.01 0.525,0 0.945,0.27 1.245,0.645 l 1.305,-1.11 c -0.57,-0.78 -1.485,-1.02 -2.25,-1.065 z"
         inkscape:connector-curvature="0" />
      <path
         id="path4724"
         style="text-align:center;text-anchor:middle"
         d="m 281.36719,83.278552 c -1.995,0 -3.84,1.56 -4.26,3.54 -0.06,0.255 -0.075,0.51 -0.075,0.735 0,1.605 1.17,2.76 2.91,2.76 1.275,-0.015 2.55,-0.54 3.39,-1.485 l -0.87,-0.885 c -0.615,0.555 -1.32,0.885 -2.13,0.885 h -0.06 c -0.915,0 -1.53,-0.645 -1.53,-1.425 0,-0.105 0,-0.225 0.03,-0.33 h 5.085 l 0.135,-0.615 c 0.06,-0.285 0.09,-0.555 0.09,-0.81 0,-1.485 -1.02,-2.37 -2.64,-2.37 z m 1.065,2.505 h -3.24 c 0.21,-0.405 1.095,-0.975 1.86,-0.975 0.75,0 1.38,0.255 1.38,0.945 z"
         inkscape:connector-curvature="0" />
      <path
         id="path4726"
         style="text-align:center;text-anchor:middle"
         d="m 295.7543,84.328552 c -0.24,-0.735 -0.795,-1.05 -1.62,-1.05 -1.875,0 -3.465,1.425 -3.915,3.525 -0.075,0.345 -0.105,0.66 -0.105,0.96 0,1.56 0.96,2.535 2.52,2.535 0.87,0 1.545,-0.33 2.07,-1.005 l -0.18,0.855 h 1.65 l 1.425,-6.72 h -1.65 z m -3.54,2.475 c 0.255,-1.2 0.945,-1.875 1.8,-1.875 0.825,0 1.275,0.48 1.275,1.305 0,0.165 -0.015,0.36 -0.06,0.57 -0.255,1.185 -1.005,1.905 -2.01,1.905 -0.705,0 -1.08,-0.465 -1.08,-1.23 0,-0.21 0.015,-0.435 0.075,-0.675 z"
         inkscape:connector-curvature="0" />
      <path
         id="path4728"
         style="text-align:center;text-anchor:middle"
         d="m 305.3025,86.218552 c 0.075,-0.36 0.12,-0.69 0.12,-0.975 0,-1.305 -0.75,-1.965 -2.175,-1.965 -0.81,0 -1.47,0.36 -2.1,1.095 l 0.195,-0.915 h -1.68 l -1.41,6.69 h 1.68 l 0.78,-3.69 c 0.225,-0.93 0.915,-1.53 1.935,-1.53 0.585,0.015 0.87,0.3 0.87,0.84 0,0.15 -0.03,0.3 -0.06,0.48 l -0.825,3.9 h 1.845 z"
         inkscape:connector-curvature="0" />
      <path
         id="path4730"
         style="text-align:center;text-anchor:middle"
         d="m 317.3318,84.343552 c -0.225,-0.795 -0.795,-1.065 -1.62,-1.065 h -0.03 c -1.665,0 -3.375,1.23 -3.84,3.33 -0.09,0.405 -0.12,0.78 -0.12,1.125 0,1.68 0.945,2.58 2.49,2.58 0.87,0 1.545,-0.375 2.085,-1.095 l -0.195,0.93 h 1.65 l 2.385,-11.25 h -1.65 z m -3.495,2.265 c 0.24,-1.155 0.9,-1.68 1.755,-1.68 0.825,0 1.29,0.39 1.29,1.215 0,0.18 -0.015,0.375 -0.06,0.6 -0.255,1.215 -1.02,1.965 -2.025,1.965 h -0.045 c -0.72,0 -1.02,-0.495 -1.02,-1.245 0,-0.255 0.03,-0.54 0.105,-0.855 z"
         inkscape:connector-curvature="0" />
      <path
         id="path4732"
         style="text-align:center;text-anchor:middle"
         d="m 324.375,83.278552 c -1.995,0 -3.84,1.56 -4.26,3.54 -0.06,0.255 -0.075,0.51 -0.075,0.735 0,1.605 1.17,2.76 2.91,2.76 1.275,-0.015 2.55,-0.54 3.39,-1.485 l -0.87,-0.885 c -0.615,0.555 -1.32,0.885 -2.13,0.885 h -0.06 c -0.915,0 -1.53,-0.645 -1.53,-1.425 0,-0.105 0,-0.225 0.03,-0.33 h 5.085 l 0.135,-0.615 c 0.06,-0.285 0.09,-0.555 0.09,-0.81 0,-1.485 -1.02,-2.37 -2.64,-2.37 z m 1.065,2.505 h -3.24 c 0.21,-0.405 1.095,-0.975 1.86,-0.975 0.75,0 1.38,0.255 1.38,0.945 z"
         inkscape:connector-curvature="0" />
      <path
         id="path4734"
         style="text-align:center;text-anchor:middle"
         d="m 333.09094,85.168552 0.855,-1.425 c -0.315,-0.345 -0.855,-0.465 -1.05,-0.465 -0.915,0 -1.59,0.345 -2.145,1.095 l 0.21,-0.945 h -1.635 l -1.425,6.72 h 1.635 l 0.735,-3.465 c 0.255,-1.095 0.9,-1.755 1.935,-1.755 0.27,0 0.645,0.105 0.885,0.24 z"
         inkscape:connector-curvature="0" />
      <path
         id="path4736"
         style="text-align:center;text-anchor:middle"
         d="m 149.52035,98.398552 -2.22,10.499998 h 1.665 l 1.005,-4.755 3.075,4.755 h 2.085 l -3.66,-5.625 5.565,-4.874998 h -2.055 l -4.68,4.154998 0.885,-4.154998 z"
         inkscape:connector-curvature="0" />
      <path
         id="path4738"
         style="text-align:center;text-anchor:middle"
         d="m 161.38418,103.07855 c -0.24,-0.735 -0.795,-1.05 -1.62,-1.05 -1.875,0 -3.465,1.425 -3.915,3.525 -0.075,0.345 -0.105,0.66 -0.105,0.96 0,1.56 0.96,2.535 2.52,2.535 0.87,0 1.545,-0.33 2.07,-1.005 l -0.18,0.855 h 1.65 l 1.425,-6.72 h -1.65 z m -3.54,2.475 c 0.255,-1.2 0.945,-1.875 1.8,-1.875 0.825,0 1.275,0.48 1.275,1.305 0,0.165 -0.015,0.36 -0.06,0.57 -0.255,1.185 -1.005,1.905 -2.01,1.905 -0.705,0 -1.08,-0.465 -1.08,-1.23 0,-0.21 0.015,-0.435 0.075,-0.675 z"
         inkscape:connector-curvature="0" />
      <path
         id="path4740"
         style="text-align:center;text-anchor:middle"
         d="m 170.93238,104.96855 c 0.075,-0.36 0.12,-0.69 0.12,-0.975 0,-1.305 -0.75,-1.965 -2.175,-1.965 -0.81,0 -1.47,0.36 -2.1,1.095 l 0.195,-0.915 h -1.68 l -1.41,6.69 h 1.68 l 0.78,-3.69 c 0.225,-0.93 0.915,-1.53 1.935,-1.53 0.585,0.015 0.87,0.3 0.87,0.84 0,0.15 -0.03,0.3 -0.06,0.48 l -0.825,3.9 h 1.845 z"
         inkscape:connector-curvature="0" />
      <path
         id="path4742"
         style="text-align:center;text-anchor:middle"
         d="m 176.09051,99.523552 h -1.62 l -0.555,2.654998 h -0.855 l -0.3,1.395 h 0.855 l -1.125,5.325 h 1.62 l 1.125,-5.325 h 0.84 l 0.3,-1.395 h -0.84 z"
         inkscape:connector-curvature="0" />
      <path
         id="path4744"
         style="text-align:center;text-anchor:middle"
         d="m 181.05715,102.02855 c -1.995,0 -3.945,1.56 -4.365,3.54 -0.06,0.255 -0.075,0.495 -0.075,0.735 0,1.59 1.2,2.76 2.94,2.76 1.98,0 3.9,-1.53 4.32,-3.51 0.06,-0.255 0.075,-0.51 0.075,-0.75 0,-1.605 -1.17,-2.775 -2.895,-2.775 z m -0.315,1.53 c 0.825,0 1.365,0.69 1.365,1.56 0,0.15 -0.015,0.3 -0.045,0.45 -0.24,1.08 -1.2,1.965 -2.16,1.965 -0.825,0 -1.395,-0.645 -1.395,-1.5 0,-0.15 0.03,-0.3 0.06,-0.465 0.225,-1.065 1.2,-2.01 2.175,-2.01 z"
         inkscape:connector-curvature="0" />
      <path
         id="path4746"
         style="text-align:center;text-anchor:middle"
         d="m 191.90894,104.96855 c 0.075,-0.36 0.12,-0.69 0.12,-0.975 0,-1.305 -0.75,-1.965 -2.175,-1.965 -0.81,0 -1.47,0.36 -2.1,1.095 l 0.195,-0.915 h -1.68 l -1.41,6.69 h 1.68 l 0.78,-3.69 c 0.225,-0.93 0.915,-1.53 1.935,-1.53 0.585,0.015 0.87,0.3 0.87,0.84 0,0.15 -0.03,0.3 -0.06,0.48 l -0.825,3.9 h 1.845 z"
         inkscape:connector-curvature="0" />
      <path
         id="path4748"
         style="text-align:center;text-anchor:middle"
         d="m 199.09207,103.46855 c -0.345,-0.84 -1.05,-1.44 -2.055,-1.44 h -0.075 c -1.62,0 -2.775,0.945 -3.015,2.1 -0.03,0.12 -0.045,0.24 -0.045,0.36 0,0.885 0.735,1.365 1.59,1.56 0.615,0.135 1.41,0.39 1.41,0.825 0,0.015 -0.015,0.045 -0.015,0.075 -0.06,0.39 -0.645,0.585 -1.275,0.585 -0.51,0 -0.885,-0.24 -1.155,-0.855 l -1.485,1.02 c 0.525,1.125 1.515,1.395 2.31,1.395 1.395,0 2.895,-0.78 3.225,-2.13 0.03,-0.15 0.045,-0.285 0.045,-0.42 0,-0.885 -0.615,-1.395 -1.455,-1.62 -0.555,-0.135 -1.485,-0.39 -1.485,-0.795 v -0.045 c 0.105,-0.48 0.48,-0.675 1.05,-0.69 0.57,0 0.975,0.615 1.125,0.9 z"
         inkscape:connector-curvature="0" />
      <path
         id="path4750"
         style="text-align:center;text-anchor:middle"
         d="m 205.65457,103.46855 c -0.345,-0.84 -1.05,-1.44 -2.055,-1.44 h -0.075 c -1.62,0 -2.775,0.945 -3.015,2.1 -0.03,0.12 -0.045,0.24 -0.045,0.36 0,0.885 0.735,1.365 1.59,1.56 0.615,0.135 1.41,0.39 1.41,0.825 0,0.015 -0.015,0.045 -0.015,0.075 -0.06,0.39 -0.645,0.585 -1.275,0.585 -0.51,0 -0.885,-0.24 -1.155,-0.855 l -1.485,1.02 c 0.525,1.125 1.515,1.395 2.31,1.395 1.395,0 2.895,-0.78 3.225,-2.13 0.03,-0.15 0.045,-0.285 0.045,-0.42 0,-0.885 -0.615,-1.395 -1.455,-1.62 -0.555,-0.135 -1.485,-0.39 -1.485,-0.795 v -0.045 c 0.105,-0.48 0.48,-0.675 1.05,-0.69 0.57,0 0.975,0.615 1.125,0.9 z"
         inkscape:connector-curvature="0" />
      <path
         id="path4752"
         style="text-align:center;text-anchor:middle"
         d="m 210.98215,102.02855 c -1.935,0 -3.87,1.56 -4.29,3.54 -0.06,0.255 -0.075,0.495 -0.075,0.735 0,1.605 1.185,2.76 2.865,2.76 0.93,0 1.71,-0.285 2.67,-0.93 l -0.81,-1.2 c -0.45,0.375 -0.96,0.6 -1.5,0.6 -0.81,0 -1.38,-0.645 -1.38,-1.5 0,-0.15 0.03,-0.3 0.06,-0.465 0.225,-1.065 1.2,-2.01 2.16,-2.01 0.525,0 0.945,0.27 1.245,0.645 l 1.305,-1.11 c -0.57,-0.78 -1.485,-1.02 -2.25,-1.065 z"
         inkscape:connector-curvature="0" />
      <path
         id="path4754"
         style="text-align:center;text-anchor:middle"
         d="m 220.53199,104.98355 c 0.075,-0.39 0.12,-0.72 0.12,-1.035 0,-1.32 -0.765,-1.92 -2.175,-1.92 -0.81,0 -1.44,0.225 -2.07,1.005 l 1.14,-5.384998 h -1.68 l -2.385,11.249998 h 1.68 l 0.78,-3.675 c 0.225,-0.975 0.915,-1.545 1.935,-1.545 0.57,0.015 0.87,0.255 0.87,0.81 0,0.15 -0.03,0.33 -0.075,0.54 l -0.81,3.87 h 1.845 z"
         inkscape:connector-curvature="0" />
      <path
         id="path4756"
         style="text-align:center;text-anchor:middle"
         d="m 222.18012,106.13855 c -0.06,0.27 -0.09,0.51 -0.09,0.735 0,1.455 1.11,2.19 2.61,2.19 h 0.075 c 1.83,0 3.24,-1.11 3.645,-2.925 l 0.84,-3.96 h -1.83 l -0.795,3.72 c -0.24,1.08 -0.705,1.56 -1.59,1.56 -0.66,0 -1.11,-0.375 -1.11,-1.02 0,-0.105 0.015,-0.225 0.045,-0.345 l 0.84,-3.915 h -1.8 z"
         inkscape:connector-curvature="0" />
      <path
         id="path4758"
         style="text-align:center;text-anchor:middle"
         d="m 232.21465,97.648552 -2.385,11.249998 h 1.68 l 2.385,-11.249998 z"
         inkscape:connector-curvature="0" />
      <path
         id="path4760"
         style="text-align:center;text-anchor:middle"
         d="m 238.13965,102.02855 c -1.995,0 -3.84,1.56 -4.26,3.54 -0.06,0.255 -0.075,0.51 -0.075,0.735 0,1.605 1.17,2.76 2.91,2.76 1.275,-0.015 2.55,-0.54 3.39,-1.485 l -0.87,-0.885 c -0.615,0.555 -1.32,0.885 -2.13,0.885 h -0.06 c -0.915,0 -1.53,-0.645 -1.53,-1.425 0,-0.105 0,-0.225 0.03,-0.33 h 5.085 l 0.135,-0.615 c 0.06,-0.285 0.09,-0.555 0.09,-0.81 0,-1.485 -1.02,-2.37 -2.64,-2.37 z m 1.065,2.505 h -3.24 c 0.21,-0.405 1.095,-0.975 1.86,-0.975 0.75,0 1.38,0.255 1.38,0.945 z"
         inkscape:connector-curvature="0" />
      <path
         id="path4762"
         style="text-align:center;text-anchor:middle"
         d="m 252.52676,103.07855 c -0.24,-0.735 -0.795,-1.05 -1.62,-1.05 -1.875,0 -3.465,1.425 -3.915,3.525 -0.075,0.345 -0.105,0.66 -0.105,0.96 0,1.56 0.96,2.535 2.52,2.535 0.87,0 1.545,-0.33 2.07,-1.005 l -0.18,0.855 h 1.65 l 1.425,-6.72 h -1.65 z m -3.54,2.475 c 0.255,-1.2 0.945,-1.875 1.8,-1.875 0.825,0 1.275,0.48 1.275,1.305 0,0.165 -0.015,0.36 -0.06,0.57 -0.255,1.185 -1.005,1.905 -2.01,1.905 -0.705,0 -1.08,-0.465 -1.08,-1.23 0,-0.21 0.015,-0.435 0.075,-0.675 z"
         inkscape:connector-curvature="0" />
      <path
         id="path4764"
         style="text-align:center;text-anchor:middle"
         d="m 261.92496,103.28855 c -0.18,-0.84 -0.81,-1.26 -1.815,-1.26 -0.87,0 -1.5,0.345 -2.145,1.095 l 0.195,-0.915 h -1.725 l -1.41,6.69 h 1.725 l 0.78,-3.69 c 0.225,-0.9 0.93,-1.53 1.905,-1.53 0.57,0 0.84,0.285 0.84,0.825 0,0.15 -0.015,0.315 -0.06,0.495 l -0.825,3.9 h 1.875 l 0.78,-3.69 c 0.225,-0.93 0.9,-1.53 1.845,-1.53 0.54,0 0.81,0.285 0.81,0.825 0,0.15 -0.015,0.315 -0.06,0.495 l -0.825,3.9 h 1.905 l 0.825,-3.93 c 0.075,-0.345 0.105,-0.66 0.105,-0.945 0,-1.29 -0.735,-1.995 -2.1,-1.995 -1.065,0 -1.92,0.405 -2.625,1.26 z"
         inkscape:connector-curvature="0" />
      <path
         id="path4766"
         style="text-align:center;text-anchor:middle"
         d="m 275.34738,104.14355 h 1.725 c 0.885,0 1.335,0.345 1.335,1.05 0,0.15 -0.015,0.315 -0.06,0.495 -0.225,1.08 -0.87,1.56 -1.935,1.56 h -1.725 z m 0.855,-4.065 h 1.575 c 0.855,0.03 1.275,0.345 1.275,0.9 0,0.09 0,0.195 -0.03,0.3 -0.18,0.855 -0.825,1.215 -1.755,1.215 h -1.575 z m -1.35,-1.679998 -2.22,10.499998 h 3.51 c 2.25,0 3.75,-1.08 4.17,-3.06 0.045,-0.24 0.075,-0.465 0.075,-0.675 0,-0.99 -0.525,-1.665 -1.47,-1.905 1.11,-0.18 1.68,-0.885 1.935,-2.1 0.045,-0.255 0.075,-0.48 0.075,-0.69 0,-1.334998 -0.975,-2.069998 -2.7,-2.069998 z"
         inkscape:connector-curvature="0" />
      <path
         id="path4768"
         style="text-align:center;text-anchor:middle"
         d="m 281.79926,106.13855 c -0.06,0.27 -0.09,0.51 -0.09,0.735 0,1.455 1.11,2.19 2.61,2.19 h 0.075 c 1.83,0 3.24,-1.11 3.645,-2.925 l 0.84,-3.96 h -1.83 l -0.795,3.72 c -0.24,1.08 -0.705,1.56 -1.59,1.56 -0.66,0 -1.11,-0.375 -1.11,-1.02 0,-0.105 0.015,-0.225 0.045,-0.345 l 0.84,-3.915 h -1.8 z"
         inkscape:connector-curvature="0" />
      <path
         id="path4770"
         style="text-align:center;text-anchor:middle"
         d="m 294.63879,103.91855 0.855,-1.425 c -0.315,-0.345 -0.855,-0.465 -1.05,-0.465 -0.915,0 -1.59,0.345 -2.145,1.095 l 0.21,-0.945 h -1.635 l -1.425,6.72 h 1.635 l 0.735,-3.465 c 0.255,-1.095 0.9,-1.755 1.935,-1.755 0.27,0 0.645,0.105 0.885,0.24 z"
         inkscape:connector-curvature="0" />
      <path
         id="path4772"
         style="text-align:center;text-anchor:middle"
         d="m 300.2366,105.61355 c -0.255,1.2 -0.96,1.845 -1.935,1.845 -0.705,0 -1.065,-0.42 -1.065,-1.185 0,-0.195 0.015,-0.435 0.075,-0.69 0.255,-1.2 0.915,-1.905 1.785,-1.905 0.795,0 1.215,0.495 1.215,1.305 0,0.195 -0.03,0.405 -0.075,0.63 z m 1.08,3.24 1.425,-6.675 h -1.77 l -0.21,0.96 c -0.225,-0.765 -0.72,-1.11 -1.545,-1.11 -1.89,0 -3.45,1.44 -3.9,3.555 -0.075,0.33 -0.105,0.63 -0.105,0.915 0,1.56 0.945,2.565 2.505,2.565 0.825,0 1.5,-0.36 1.995,-0.975 l -0.195,0.885 c -0.225,1.11 -0.99,1.635 -2.145,1.635 -0.675,0 -1.155,-0.315 -1.395,-0.78 l -1.485,1.05 c 0.45,1.02 1.725,1.395 2.685,1.395 2.22,-0.03 3.66,-1.14 4.14,-3.42 z"
         inkscape:connector-curvature="0" />
      <path
         id="path4774"
         style="text-align:center;text-anchor:middle"
         d="m 308.49832,105.61355 c -0.255,1.2 -0.96,1.845 -1.935,1.845 -0.705,0 -1.065,-0.42 -1.065,-1.185 0,-0.195 0.015,-0.435 0.075,-0.69 0.255,-1.2 0.915,-1.905 1.785,-1.905 0.795,0 1.215,0.495 1.215,1.305 0,0.195 -0.03,0.405 -0.075,0.63 z m 1.08,3.24 1.425,-6.675 h -1.77 l -0.21,0.96 c -0.225,-0.765 -0.72,-1.11 -1.545,-1.11 -1.89,0 -3.45,1.44 -3.9,3.555 -0.075,0.33 -0.105,0.63 -0.105,0.915 0,1.56 0.945,2.565 2.505,2.565 0.825,0 1.5,-0.36 1.995,-0.975 l -0.195,0.885 c -0.225,1.11 -0.99,1.635 -2.145,1.635 -0.675,0 -1.155,-0.315 -1.395,-0.78 l -1.485,1.05 c 0.45,1.02 1.725,1.395 2.685,1.395 2.22,-0.03 3.66,-1.14 4.14,-3.42 z"
         inkscape:connector-curvature="0" />
      <path
         id="path4776"
         style="text-align:center;text-anchor:middle"
         d="m 316.84582,103.91855 0.855,-1.425 c -0.315,-0.345 -0.855,-0.465 -1.05,-0.465 -0.915,0 -1.59,0.345 -2.145,1.095 l 0.21,-0.945 h -1.635 l -1.425,6.72 h 1.635 l 0.735,-3.465 c 0.255,-1.095 0.9,-1.755 1.935,-1.755 0.27,0 0.645,0.105 0.885,0.24 z"
         inkscape:connector-curvature="0" />
      <path
         id="path4778"
         style="text-align:center;text-anchor:middle"
         d="m 323.07363,103.07855 c -0.24,-0.735 -0.795,-1.05 -1.62,-1.05 -1.875,0 -3.465,1.425 -3.915,3.525 -0.075,0.345 -0.105,0.66 -0.105,0.96 0,1.56 0.96,2.535 2.52,2.535 0.87,0 1.545,-0.33 2.07,-1.005 l -0.18,0.855 h 1.65 l 1.425,-6.72 h -1.65 z m -3.54,2.475 c 0.255,-1.2 0.945,-1.875 1.8,-1.875 0.825,0 1.275,0.48 1.275,1.305 0,0.165 -0.015,0.36 -0.06,0.57 -0.255,1.185 -1.005,1.905 -2.01,1.905 -0.705,0 -1.08,-0.465 -1.08,-1.23 0,-0.21 0.015,-0.435 0.075,-0.675 z"
         inkscape:connector-curvature="0" />
      <path
         id="path4780"
         style="text-align:center;text-anchor:middle"
         d="m 330.98683,105.35855 c -0.27,1.23 -0.99,2.1 -1.86,2.1 -0.855,0 -1.26,-0.57 -1.26,-1.425 0,-0.21 0.03,-0.435 0.075,-0.675 0.27,-1.275 0.99,-1.68 1.98,-1.68 0.705,0 1.14,0.3 1.14,1.065 0,0.18 -0.03,0.39 -0.075,0.615 z m -2.55,-2.355 1.14,-5.354998 h -1.62 l -2.385,11.249998 h 1.62 l 0.195,-0.93 c 0.285,0.795 0.795,1.095 1.635,1.095 1.905,0 3.48,-1.515 3.945,-3.705 0.075,-0.375 0.12,-0.705 0.12,-1.02 0,-1.56 -0.99,-2.31 -2.565,-2.31 -0.885,0 -1.5,0.21 -2.085,0.975 z"
         inkscape:connector-curvature="0" />
      <path
         id="path4782"
         style="text-align:center;text-anchor:middle"
         d="m 338.54004,102.02855 c -1.995,0 -3.84,1.56 -4.26,3.54 -0.06,0.255 -0.075,0.51 -0.075,0.735 0,1.605 1.17,2.76 2.91,2.76 1.275,-0.015 2.55,-0.54 3.39,-1.485 l -0.87,-0.885 c -0.615,0.555 -1.32,0.885 -2.13,0.885 h -0.06 c -0.915,0 -1.53,-0.645 -1.53,-1.425 0,-0.105 0,-0.225 0.03,-0.33 h 5.085 l 0.135,-0.615 c 0.06,-0.285 0.09,-0.555 0.09,-0.81 0,-1.485 -1.02,-2.37 -2.64,-2.37 z m 1.065,2.505 h -3.24 c 0.21,-0.405 1.095,-0.975 1.86,-0.975 0.75,0 1.38,0.255 1.38,0.945 z"
         inkscape:connector-curvature="0" />
      <path
         id="path4784"
         style="text-align:center;text-anchor:middle"
         d="m 349.11598,104.96855 c 0.075,-0.36 0.12,-0.69 0.12,-0.975 0,-1.305 -0.75,-1.965 -2.175,-1.965 -0.81,0 -1.47,0.36 -2.1,1.095 l 0.195,-0.915 h -1.68 l -1.41,6.69 h 1.68 l 0.78,-3.69 c 0.225,-0.93 0.915,-1.53 1.935,-1.53 0.585,0.015 0.87,0.3 0.87,0.84 0,0.15 -0.03,0.3 -0.06,0.48 l -0.825,3.9 h 1.845 z"
         inkscape:connector-curvature="0" />
    </g>
    <g
       id="text4545-5"
       style="font-style:normal;font-variant:normal;font-weight:normal;font-stretch:normal;font-size:15px;line-height:125%;font-family:'Bold Oblique';-inkscape-font-specification:'Bold Oblique, ';letter-spacing:0px;word-spacing:0px;fill:#000000;fill-opacity:1;stroke:none;stroke-width:1px;stroke-linecap:butt;stroke-linejoin:miter;stroke-opacity:1"
       aria-label="https://co2.tech-lab.ch/">
      <path
         id="path4787"
         style="font-size:21.33333397px;text-align:center;text-anchor:middle"
         d="m 89.216747,222.0342 c 0.106667,-0.55466 0.170667,-1.024 0.170667,-1.472 0,-1.87733 -1.088,-2.73066 -3.093333,-2.73066 -1.152,0 -2.048,0.32 -2.944,1.42933 l 1.621333,-7.65867 h -2.389333 l -3.392,16 h 2.389333 l 1.109333,-5.22666 c 0.32,-1.38667 1.301334,-2.19734 2.752,-2.19734 0.810667,0.0213 1.237334,0.36267 1.237334,1.152 0,0.21334 -0.04267,0.46934 -0.106667,0.768 l -1.152,5.504 h 2.624 z"
         inkscape:connector-curvature="0" />
      <path
         id="path4789"
         style="font-size:21.33333397px;text-align:center;text-anchor:middle"
         d="m 96.011081,214.26887 h -2.304 l -0.789334,3.776 h -1.216 l -0.426666,1.984 h 1.216 l -1.6,7.57333 h 2.304 l 1.6,-7.57333 h 1.194666 l 0.426667,-1.984 h -1.194667 z"
         inkscape:connector-curvature="0" />
      <path
         id="path4791"
         style="font-size:21.33333397px;text-align:center;text-anchor:middle"
         d="m 102.38608,214.26887 h -2.304 l -0.789333,3.776 h -1.216 l -0.426666,1.984 h 1.216 l -1.6,7.57333 h 2.304 l 1.599999,-7.57333 h 1.19467 l 0.42666,-1.984 h -1.19466 z"
         inkscape:connector-curvature="0" />
      <path
         id="path4793"
         style="font-size:21.33333397px;text-align:center;text-anchor:middle"
         d="m 105.62508,226.5142 c 0.40533,1.13067 1.17333,1.36534 2.34667,1.36534 2.70933,0 4.90666,-1.984 5.54666,-5.056 0.10667,-0.53334 0.17067,-1.024 0.17067,-1.49334 0,-2.24 -1.344,-3.49866 -3.584,-3.49866 -1.23733,0 -2.13333,0.512 -2.96533,1.6 l 0.29866,-1.38667 h -2.34666 l -3.05067,14.35733 h 2.34667 z m 5.07733,-3.69066 c -0.36266,1.74933 -1.344,2.73066 -2.58133,2.73066 -1.19467,0 -1.81333,-0.68266 -1.81333,-1.83466 0,-0.27734 0.0427,-0.576 0.10666,-0.896 0.384,-1.81334 1.472,-2.64534 2.83734,-2.64534 0.98133,0 1.55733,0.576 1.55733,1.68534 0,0.27733 -0.0213,0.59733 -0.10667,0.96 z"
         inkscape:connector-curvature="0" />
      <path
         id="path4795"
         style="font-size:21.33333397px;text-align:center;text-anchor:middle"
         d="m 123.59942,219.87954 c -0.49067,-1.19467 -1.49334,-2.048 -2.92267,-2.048 h -0.10667 c -2.304,0 -3.94666,1.344 -4.288,2.98666 -0.0427,0.17067 -0.064,0.34134 -0.064,0.512 0,1.25867 1.04534,1.94134 2.26134,2.21867 0.87466,0.192 2.00533,0.55467 2.00533,1.17333 0,0.0213 -0.0213,0.064 -0.0213,0.10667 -0.0853,0.55467 -0.91734,0.832 -1.81334,0.832 -0.72533,0 -1.25866,-0.34133 -1.64266,-1.216 l -2.112,1.45067 c 0.74666,1.6 2.15466,1.984 3.28533,1.984 1.984,0 4.11733,-1.10934 4.58667,-3.02934 0.0427,-0.21333 0.064,-0.40533 0.064,-0.59733 0,-1.25867 -0.87467,-1.984 -2.06934,-2.304 -0.78933,-0.192 -2.112,-0.55467 -2.112,-1.13067 v -0.064 c 0.14934,-0.68266 0.68267,-0.96 1.49334,-0.98133 0.81066,0 1.38666,0.87467 1.6,1.28 z"
         inkscape:connector-curvature="0" />
      <path
         id="path4797"
         style="font-size:21.33333397px;text-align:center;text-anchor:middle"
         d="m 126.33375,224.93554 c -0.85333,0 -1.664,0.704 -1.83467,1.51466 -0.0213,0.10667 -0.0427,0.21334 -0.0427,0.32 0,0.66134 0.49066,1.152 1.23733,1.152 0.832,0 1.70667,-0.64 1.87733,-1.472 0.0213,-0.10666 0.0213,-0.192 0.0213,-0.27733 0,-0.68267 -0.53334,-1.23733 -1.25867,-1.23733 z m 1.344,-6.272 c -0.85333,0 -1.664,0.68266 -1.856,1.51466 -0.0213,0.10667 -0.0213,0.21334 -0.0213,0.29867 0,0.68267 0.49066,1.152 1.23733,1.152 0.832,0 1.68533,-0.61867 1.856,-1.45067 0.0213,-0.10666 0.0427,-0.21333 0.0427,-0.32 0,-0.68266 -0.53334,-1.19466 -1.25867,-1.19466 z"
         inkscape:connector-curvature="0" />
      <path
         id="path4799"
         style="font-size:21.33333397px;text-align:center;text-anchor:middle"
         d="m 137.10608,211.6022 -8.64,17.74934 h 2.28267 l 8.61867,-17.74934 z"
         inkscape:connector-curvature="0" />
      <path
         id="path4801"
         style="font-size:21.33333397px;text-align:center;text-anchor:middle"
         d="m 144.56442,211.6022 -8.64,17.74934 h 2.28266 l 8.61867,-17.74934 z"
         inkscape:connector-curvature="0" />
      <path
         id="path4803"
         style="font-size:21.33333397px;text-align:center;text-anchor:middle"
         d="m 151.46808,217.83154 c -2.752,0 -5.504,2.21866 -6.10133,5.03466 -0.0853,0.36267 -0.10667,0.704 -0.10667,1.04534 0,2.28266 1.68533,3.92533 4.07467,3.92533 1.32266,0 2.432,-0.40533 3.79733,-1.32267 l -1.152,-1.70666 c -0.64,0.53333 -1.36533,0.85333 -2.13333,0.85333 -1.152,0 -1.96267,-0.91733 -1.96267,-2.13333 0,-0.21334 0.0427,-0.42667 0.0853,-0.66134 0.32,-1.51466 1.70667,-2.85866 3.072,-2.85866 0.74667,0 1.344,0.384 1.77067,0.91733 l 1.856,-1.57867 c -0.81067,-1.10933 -2.112,-1.45066 -3.2,-1.51466 z"
         inkscape:connector-curvature="0" />
      <path
         id="path4805"
         style="font-size:21.33333397px;text-align:center;text-anchor:middle"
         d="m 161.65808,217.83154 c -2.83733,0 -5.61066,2.21866 -6.208,5.03466 -0.0853,0.36267 -0.10666,0.704 -0.10666,1.04534 0,2.26133 1.70666,3.92533 4.18133,3.92533 2.816,0 5.54667,-2.176 6.144,-4.992 0.0853,-0.36267 0.10667,-0.72533 0.10667,-1.06667 0,-2.28266 -1.664,-3.94666 -4.11734,-3.94666 z m -0.448,2.176 c 1.17334,0 1.94134,0.98133 1.94134,2.21866 0,0.21334 -0.0213,0.42667 -0.064,0.64 -0.34134,1.536 -1.70667,2.79467 -3.072,2.79467 -1.17334,0 -1.984,-0.91733 -1.984,-2.13333 0,-0.21334 0.0427,-0.42667 0.0853,-0.66134 0.32,-1.51466 1.70667,-2.85866 3.09333,-2.85866 z"
         inkscape:connector-curvature="0" />
      <path
         id="path4807"
         style="font-size:21.33333397px;text-align:center;text-anchor:middle"
         d="m 170.24375,225.4902 5.44,-4.43733 c 1.45066,-1.536 2.15466,-2.816 2.432,-4.11733 0.0853,-0.384 0.10666,-0.74667 0.10666,-1.06667 0,-2.15467 -1.51466,-3.456 -4.01066,-3.456 -2.176,0.0853 -4.544,1.856 -5.03467,4.096 h 2.368 c 0.23467,-0.768 1.13067,-1.55733 2.176,-1.55733 1.06667,0 1.68533,0.68266 1.68533,1.64266 0,0.14934 0,0.29867 -0.0427,0.46934 -0.21334,0.91733 -0.768,1.64266 -2.02667,2.88 l -6.05867,5.54666 -0.448,2.112 h 8.93867 l 0.448,-2.112 z"
         inkscape:connector-curvature="0" />
      <path
         id="path4809"
         style="font-size:21.33333397px;text-align:center;text-anchor:middle"
         d="m 180.45675,225.2342 c -0.768,0 -1.49333,0.61867 -1.64266,1.344 -0.0213,0.10667 -0.0427,0.21334 -0.0427,0.29867 0,0.61867 0.448,1.04533 1.10933,1.04533 0.74667,0 1.536,-0.576 1.70667,-1.344 0.0213,-0.0853 0.0213,-0.17066 0.0213,-0.23466 0,-0.61867 -0.49066,-1.10934 -1.152,-1.10934 z"
         inkscape:connector-curvature="0" />
      <path
         id="path4811"
         style="font-size:21.33333397px;text-align:center;text-anchor:middle"
         d="m 189.80275,214.26887 h -2.304 l -0.78933,3.776 h -1.216 l -0.42667,1.984 h 1.216 l -1.6,7.57333 h 2.304 l 1.6,-7.57333 h 1.19467 l 0.42667,-1.984 h -1.19467 z"
         inkscape:connector-curvature="0" />
      <path
         id="path4813"
         style="font-size:21.33333397px;text-align:center;text-anchor:middle"
         d="m 196.71709,217.83154 c -2.83734,0 -5.46134,2.21866 -6.05867,5.03466 -0.0853,0.36267 -0.10667,0.72534 -0.10667,1.04534 0,2.28266 1.664,3.92533 4.13867,3.92533 1.81333,-0.0213 3.62667,-0.768 4.82133,-2.112 l -1.23733,-1.25867 c -0.87467,0.78934 -1.87733,1.25867 -3.02933,1.25867 h -0.0853 c -1.30133,0 -2.176,-0.91733 -2.176,-2.02667 0,-0.14933 0,-0.32 0.0427,-0.46933 h 7.232 l 0.192,-0.87467 c 0.0853,-0.40533 0.128,-0.78933 0.128,-1.152 0,-2.112 -1.45067,-3.37066 -3.75467,-3.37066 z m 1.51466,3.56266 h -4.608 c 0.29867,-0.576 1.55734,-1.38666 2.64534,-1.38666 1.06666,0 1.96266,0.36266 1.96266,1.344 z"
         inkscape:connector-curvature="0" />
      <path
         id="path4815"
         style="font-size:21.33333397px;text-align:center;text-anchor:middle"
         d="m 208.25975,217.83154 c -2.752,0 -5.504,2.21866 -6.10133,5.03466 -0.0853,0.36267 -0.10667,0.704 -0.10667,1.04534 0,2.28266 1.68534,3.92533 4.07467,3.92533 1.32267,0 2.432,-0.40533 3.79733,-1.32267 l -1.152,-1.70666 c -0.64,0.53333 -1.36533,0.85333 -2.13333,0.85333 -1.152,0 -1.96267,-0.91733 -1.96267,-2.13333 0,-0.21334 0.0427,-0.42667 0.0853,-0.66134 0.32,-1.51466 1.70666,-2.85866 3.072,-2.85866 0.74666,0 1.344,0.384 1.77066,0.91733 l 1.856,-1.57867 c -0.81066,-1.10933 -2.112,-1.45066 -3.2,-1.51466 z"
         inkscape:connector-curvature="0" />
      <path
         id="path4817"
         style="font-size:21.33333397px;text-align:center;text-anchor:middle"
         d="m 221.84175,222.0342 c 0.10666,-0.55466 0.17066,-1.024 0.17066,-1.472 0,-1.87733 -1.088,-2.73066 -3.09333,-2.73066 -1.152,0 -2.048,0.32 -2.944,1.42933 l 1.62133,-7.65867 h -2.38933 l -3.392,16 h 2.38933 l 1.10934,-5.22666 c 0.32,-1.38667 1.30133,-2.19734 2.752,-2.19734 0.81066,0.0213 1.23733,0.36267 1.23733,1.152 0,0.21334 -0.0427,0.46934 -0.10667,0.768 l -1.152,5.504 h 2.624 z"
         inkscape:connector-curvature="0" />
      <path
         id="path4819"
         style="font-size:21.33333397px;text-align:center;text-anchor:middle"
         d="m 224.86842,221.92754 -0.384,1.83466 h 5.376 l 0.384,-1.83466 z"
         inkscape:connector-curvature="0" />
      <path
         id="path4821"
         style="font-size:21.33333397px;text-align:center;text-anchor:middle"
         d="m 235.58208,211.6022 -3.392,16 h 2.38933 l 3.392,-16 z"
         inkscape:connector-curvature="0" />
      <path
         id="path4823"
         style="font-size:21.33333397px;text-align:center;text-anchor:middle"
         d="m 245.92876,219.32487 c -0.34134,-1.04533 -1.13067,-1.49333 -2.304,-1.49333 -2.66667,0 -4.928,2.02666 -5.568,5.01333 -0.10667,0.49067 -0.14934,0.93867 -0.14934,1.36533 0,2.21867 1.36534,3.60534 3.584,3.60534 1.23734,0 2.19734,-0.46934 2.944,-1.42934 l -0.256,1.216 h 2.34667 l 2.02667,-9.55733 h -2.34667 z m -5.03467,3.52 c 0.36267,-1.70667 1.344,-2.66667 2.56,-2.66667 1.17333,0 1.81333,0.68267 1.81333,1.856 0,0.23467 -0.0213,0.512 -0.0853,0.81067 -0.36267,1.68533 -1.42933,2.70933 -2.85867,2.70933 -1.00266,0 -1.536,-0.66133 -1.536,-1.74933 0,-0.29867 0.0213,-0.61867 0.10667,-0.96 z"
         inkscape:connector-curvature="0" />
      <path
         id="path4825"
         style="font-size:21.33333397px;text-align:center;text-anchor:middle"
         d="m 257.18309,222.56754 c -0.384,1.74933 -1.408,2.98666 -2.64534,2.98666 -1.216,0 -1.792,-0.81066 -1.792,-2.02666 0,-0.29867 0.0427,-0.61867 0.10667,-0.96 0.384,-1.81334 1.408,-2.38934 2.816,-2.38934 1.00267,0 1.62133,0.42667 1.62133,1.51467 0,0.256 -0.0427,0.55467 -0.10666,0.87467 z m -3.62667,-3.34934 1.62133,-7.616 h -2.304 l -3.392,16 h 2.304 l 0.27734,-1.32266 c 0.40533,1.13066 1.13066,1.55733 2.32533,1.55733 2.70933,0 4.94933,-2.15467 5.61067,-5.26933 0.10666,-0.53334 0.17066,-1.00267 0.17066,-1.45067 0,-2.21867 -1.408,-3.28533 -3.648,-3.28533 -1.25866,0 -2.13333,0.29866 -2.96533,1.38666 z"
         inkscape:connector-curvature="0" />
      <path
         id="path4827"
         style="font-size:21.33333397px;text-align:center;text-anchor:middle"
         d="m 263.04008,225.2342 c -0.768,0 -1.49333,0.61867 -1.64267,1.344 -0.0213,0.10667 -0.0427,0.21334 -0.0427,0.29867 0,0.61867 0.448,1.04533 1.10933,1.04533 0.74667,0 1.536,-0.576 1.70667,-1.344 0.0213,-0.0853 0.0213,-0.17066 0.0213,-0.23466 0,-0.61867 -0.49067,-1.10934 -1.152,-1.10934 z"
         inkscape:connector-curvature="0" />
      <path
         id="path4829"
         style="font-size:21.33333397px;text-align:center;text-anchor:middle"
         d="m 273.21808,217.83154 c -2.752,0 -5.504,2.21866 -6.10133,5.03466 -0.0853,0.36267 -0.10667,0.704 -0.10667,1.04534 0,2.28266 1.68533,3.92533 4.07467,3.92533 1.32266,0 2.432,-0.40533 3.79733,-1.32267 l -1.152,-1.70666 c -0.64,0.53333 -1.36533,0.85333 -2.13333,0.85333 -1.152,0 -1.96267,-0.91733 -1.96267,-2.13333 0,-0.21334 0.0427,-0.42667 0.0853,-0.66134 0.32,-1.51466 1.70667,-2.85866 3.072,-2.85866 0.74667,0 1.344,0.384 1.77067,0.91733 l 1.856,-1.57867 c -0.81067,-1.10933 -2.112,-1.45066 -3.2,-1.51466 z"
         inkscape:connector-curvature="0" />
      <path
         id="path4831"
         style="font-size:21.33333397px;text-align:center;text-anchor:middle"
         d="m 286.80009,222.0342 c 0.10667,-0.55466 0.17067,-1.024 0.17067,-1.472 0,-1.87733 -1.088,-2.73066 -3.09334,-2.73066 -1.152,0 -2.048,0.32 -2.944,1.42933 l 1.62134,-7.65867 h -2.38934 l -3.392,16 h 2.38934 l 1.10933,-5.22666 c 0.32,-1.38667 1.30133,-2.19734 2.752,-2.19734 0.81067,0.0213 1.23733,0.36267 1.23733,1.152 0,0.21334 -0.0427,0.46934 -0.10666,0.768 l -1.152,5.504 h 2.624 z"
         inkscape:connector-curvature="0" />
      <path
         id="path4833"
         style="font-size:21.33333397px;text-align:center;text-anchor:middle"
         d="m 295.52275,211.6022 -8.64,17.74934 h 2.28266 l 8.61867,-17.74934 z"
         inkscape:connector-curvature="0" />
    </g>
  </g>
</svg>
