<?xml version="1.0" encoding="UTF-8" standalone="no"?>
<svg
   xmlns:dc="http://purl.org/dc/elements/1.1/"
   xmlns:cc="http://creativecommons.org/ns#"
   xmlns:rdf="http://www.w3.org/1999/02/22-rdf-syntax-ns#"
   xmlns:svg="http://www.w3.org/2000/svg"
   xmlns="http://www.w3.org/2000/svg"
   xmlns:sodipodi="http://sodipodi.sourceforge.net/DTD/sodipodi-0.dtd"
   xmlns:inkscape="http://www.inkscape.org/namespaces/inkscape"
   height="41.298294mm"
   width="87.290756mm"
   id="svg146"
   version="1.1"
   viewBox="0 0 329.91782 156.08804"
   sodipodi:docname="tech-lab-logo.svg"
   inkscape:version="0.92.4 (5da689c313, 2019-01-14)">
  <sodipodi:namedview
     pagecolor="#ffffff"
     bordercolor="#666666"
     borderopacity="1"
     objecttolerance="10"
     gridtolerance="10"
     guidetolerance="10"
     inkscape:pageopacity="0"
     inkscape:pageshadow="2"
     inkscape:window-width="1920"
     inkscape:window-height="1015"
     id="namedview818"
     showgrid="false"
     fit-margin-top="0"
     fit-margin-left="0"
     fit-margin-right="0"
     fit-margin-bottom="0"
     inkscape:zoom="1.5488447"
     inkscape:cx="61.708015"
     inkscape:cy="68.784365"
     inkscape:window-x="0"
     inkscape:window-y="0"
     inkscape:window-maximized="1"
     inkscape:current-layer="svg146" />
  <metadata
     id="metadata150">
    <rdf:RDF>
      <cc:Work
         rdf:about="">
        <dc:format>image/svg+xml</dc:format>
        <dc:type
           rdf:resource="http://purl.org/dc/dcmitype/StillImage" />
        <dc:title>curve_1</dc:title>
      </cc:Work>
    </rdf:RDF>
  </metadata>
  <defs
     id="defs4">
    <style
       id="style2">
      .a {
        fill: none;
        stroke: #000000;
        stroke-miterlimit: 10;
      }
    </style>
  </defs>
  <title
     id="title6">curve_1</title>
  <path
     id="path1933"
     d="m 281.12094,22.844637 c -1.11856,-2.11929 -3.66203,-3.24679 -5.94952,-2.63738 -0.71722,0.19107 -15.83334,8.70437 -40.97156,23.07493 l -39.83502,22.772132 h -15.23045 -15.23044 v -2.678162 c 0,-4.325303 -0.72575,-6.05629 -3.01815,-7.19864 -2.71544,-1.35316 -5.8422,-0.30691 -7.23358,2.420416 -0.41436,0.812221 -0.43176,1.644113 -0.43176,20.640276 0,18.996146 0.0174,19.828023 0.43176,20.640244 1.39138,2.727337 4.51814,3.773597 7.23358,2.420417 2.2924,-1.14233 3.01815,-2.873331 3.01815,-7.198619 V 92.42208 h 15.23044 15.23045 l 39.83502,22.77214 c 25.13822,14.37055 40.25434,22.88385 40.97156,23.07492 2.28749,0.60941 4.83097,-0.5181 5.94952,-2.63739 l 0.52877,-1.00182 V 79.238209 23.846457 Z m -3.34678,110.655003 c -0.26259,0.75328 -1.12948,1.27313 -1.73533,1.04064 -0.2135,-0.0819 -18.43467,-10.46148 -40.49153,-23.06569 L 195.44393,88.557837 h -17.70211 -17.70211 v 4.629156 c 0,4.339019 -0.0295,4.666707 -0.47112,5.228097 -0.58183,0.739681 -1.55512,0.793847 -2.16453,0.120446 -0.41848,-0.462412 -0.43302,-1.110337 -0.43302,-19.297327 0,-18.187015 0.0146,-18.834933 0.43302,-19.297352 0.60941,-0.673393 1.5827,-0.619235 2.16453,0.120447 0.44158,0.561381 0.47112,0.889077 0.47112,5.22809 v 4.629167 h 17.70211 17.70211 L 235.5473,47.001817 c 22.05686,-12.60422 40.27803,-22.98379 40.49153,-23.06572 0.57488,-0.22059 1.47277,0.27587 1.72071,0.95141 0.31518,0.85887 0.32957,107.708623 0.0146,108.612133 z m -2.45839,-58.241279 c -0.47015,-1.034906 -1.80972,-2.309175 -2.64892,-2.519801 l -0.56409,-0.141581 V 53.414067 34.231137 h -1.36385 -1.36385 v 19.18293 19.182912 l -0.56411,0.141581 c -0.8392,0.210626 -2.17875,1.484895 -2.64889,2.519801 -0.23977,0.527774 -0.41396,1.437245 -0.41396,2.16138 0,0.724135 0.17419,1.633607 0.41396,2.16138 0.47014,1.034906 1.80969,2.309169 2.64889,2.519791 l 0.56411,0.141591 v 19.523857 19.52388 h 1.36385 1.36385 V 101.76636 82.242503 l 0.56409,-0.141591 c 0.8392,-0.210622 2.17877,-1.484885 2.64892,-2.519791 0.23976,-0.527773 0.41395,-1.437245 0.41395,-2.16138 0,-0.724135 -0.17419,-1.633606 -0.41395,-2.16138 z m -2.63656,2.972442 c -0.73258,1.753297 -3.14992,1.748751 -3.88365,-0.0073 -0.29626,-0.708998 -0.29626,-0.898525 0,-1.607523 0.47374,-1.133838 1.62109,-1.610069 2.74632,-1.139917 0.52294,0.218504 0.91619,0.596095 1.12765,1.082763 0.40177,0.92475 0.40068,0.736159 0.01,1.671976 z m -8.72887,20.89492 c -0.47014,-1.034892 -1.80971,-2.309161 -2.64891,-2.519808 l -0.56409,-0.141567 V 68.530069 40.595777 h -1.36386 -1.36384 v 27.934292 27.934279 l -0.56411,0.141567 c -0.8392,0.210647 -2.17877,1.484916 -2.6489,2.519808 -0.23977,0.527783 -0.41395,1.437247 -0.41395,2.161377 0,0.72414 0.17418,1.6336 0.41395,2.16139 0.47014,1.03491 1.8097,2.30918 2.6489,2.5198 l 0.56411,0.14157 v 4.52153 4.52153 h 1.36384 1.36386 v -4.52153 -4.52153 l 0.56409,-0.14157 c 0.8392,-0.21062 2.17877,-1.48489 2.64891,-2.5198 0.23977,-0.52779 0.41395,-1.43725 0.41395,-2.16139 0,-0.72413 -0.17418,-1.633594 -0.41395,-2.161377 z m -2.63655,2.972437 c -0.73258,1.75331 -3.14994,1.74875 -3.88366,-0.008 -0.29623,-0.70899 -0.29623,-0.89852 0,-1.60752 0.47375,-1.133839 1.62111,-1.610073 2.74632,-1.139908 0.52296,0.218491 0.91619,0.596096 1.12766,1.082768 0.40177,0.92473 0.40068,0.73615 0.01,1.67196 z m -7.59233,-15.929016 c -0.47015,-1.034868 -1.80971,-2.309136 -2.64891,-2.519781 l -0.5641,-0.141569 V 65.120444 46.733107 h -1.36385 -1.36385 v 18.387337 18.38735 l -0.56411,0.141569 c -0.83919,0.210645 -2.17875,1.484913 -2.64889,2.519781 -0.23977,0.527787 -0.41395,1.43725 -0.41395,2.161384 0,0.724138 0.17418,1.633597 0.41395,2.161388 0.47014,1.034911 1.8097,2.309172 2.64889,2.519797 l 0.56411,0.141574 v 8.385763 8.38577 h 1.36385 1.36385 v -8.38577 -8.385763 l 0.5641,-0.141574 c 0.83921,-0.210625 2.17876,-1.484886 2.64891,-2.519797 0.23976,-0.527791 0.41394,-1.43725 0.41394,-2.161388 0,-0.724134 -0.17418,-1.633597 -0.41394,-2.161384 z m -2.63656,2.972446 c -0.73257,1.753299 -3.14993,1.748748 -3.88366,-0.0073 -0.29623,-0.708998 -0.29623,-0.898528 0,-1.607526 0.47376,-1.133838 1.62111,-1.610048 2.74633,-1.139908 0.52296,0.218489 0.9162,0.596095 1.12765,1.082764 0.40178,0.924733 0.40069,0.736158 0.01,1.671966 z m -19.89767,4.644337 h -4.77347 v -1.136541 -1.13654 h -1.36385 -1.36385 v 2.500395 2.500387 h 6.13733 6.13732 V 95.149781 93.785927 Z M 213.68448,69.691254 h -6.13733 v 3.182316 3.182319 h 6.13733 6.13733 V 72.87357 69.691254 Z m 0,3.636935 c -3.25808,0 -3.40962,-0.0202 -3.40962,-0.454619 0,-0.43441 0.15154,-0.454616 3.40962,-0.454616 3.25809,0 3.40963,0.0202 3.40963,0.454616 0,0.434413 -0.15153,0.454619 -3.40963,0.454619 z m -19.54852,10.001577 h -4.77348 v -1.136541 -1.136542 h -1.36385 -1.36385 v 2.50039 2.500371 h 6.13733 6.13732 v -1.363829 -1.363849 z m -51.1444,-3.636941 h -6.13732 v 3.182325 3.182294 h 6.13732 6.13733 V 82.87515 79.692825 Z m 0,3.636941 c -3.25808,0 -3.40962,-0.02023 -3.40962,-0.454616 0,-0.434409 0.15154,-0.454619 3.40962,-0.454619 3.25809,0 3.40963,0.02023 3.40963,0.454619 0,0.434407 -0.15154,0.454616 -3.40963,0.454616 z M 126.17074,56.052747 h -4.77348 v -1.13654 -1.13654 h -1.36384 -1.36386 v 2.5004 2.500383 h 6.13733 6.13733 v -1.363843 -1.36386 z m -15.00236,15.456975 h -6.13732 v 3.182316 3.182319 h 6.13732 6.13733 v -3.182319 -3.182316 z m 0,3.636935 c -3.25808,0 -3.40962,-0.0202 -3.40962,-0.454619 0,-0.43441 0.15154,-0.454616 3.40962,-0.454616 3.25809,0 3.40963,0.0202 3.40963,0.454616 0,0.434413 -0.15154,0.454619 -3.40963,0.454619 z M 94.34756,88.785144 H 89.57408 V 87.648602 86.51206 h -1.363848 -1.363854 v 2.500394 2.500392 h 6.137332 6.13733 v -1.363851 -1.363851 z"
     style="fill:#000000;stroke-width:0.22730842"
     inkscape:connector-curvature="0" />
  <path
     style="fill:#000000;stroke-width:0.18061802"
     d="m 63.847637,36.431547 c -0.234247,-1.06009 -1.084286,-1.66583 -2.475454,-1.76405 -1.29599,-0.0915 -2.449442,0.49116 -2.822146,1.42557 -0.179392,0.44974 -0.179392,1.3651 0,1.81484 0.370453,0.92875 1.490071,1.50638 2.771635,1.42991 0.88984,-0.0531 1.439635,-0.25182 1.925627,-0.69598 0.561688,-0.51335 0.789761,-1.35306 0.600338,-2.21029 z m -0.444725,1.03151 c -0.125545,0.44742 -0.409269,0.79076 -0.850519,1.0292 -0.454094,0.24537 -0.857057,0.34177 -1.420367,0.33976 -1.327904,-0.004 -2.223587,-0.67885 -2.2896,-1.72316 -0.07176,-1.13539 0.864589,-1.92106 2.29176,-1.92293 1.225416,-8.3e-4 2.081654,0.53838 2.295939,1.44797 0.07308,0.31031 0.0672,0.49297 -0.02715,0.82916 z m 0.481862,9.12825 c -0.01192,-0.0895 -0.05769,-0.29056 -0.1018,-0.44703 l -0.0802,-0.28448 h -0.233288 c -0.128317,0 -0.246157,0.0129 -0.261882,0.0286 -0.01572,0.0157 0.01655,0.11988 0.07184,0.23149 0.234645,0.47422 0.25522,1.17427 0.0466,1.58326 -0.204427,0.40076 -0.66655,0.64407 -1.078253,0.56774 -0.282466,-0.0523 -0.622552,-0.43725 -1.00734,-1.14 -0.57868,-1.05689 -1.07313,-1.41918 -1.734582,-1.27095 -0.529733,0.11873 -0.855783,0.45307 -1.031607,1.05786 -0.101792,0.35034 -0.08637,1.14627 0.02847,1.46628 0.05587,0.15579 0.07382,0.16498 0.261005,0.13455 0.226485,-0.0367 0.222826,-0.0233 0.124867,-0.46309 -0.211935,-0.9515 0.163103,-1.70854 0.846115,-1.70787 0.407929,3.7e-4 0.648343,0.24298 1.126488,1.13665 0.333458,0.62325 0.754132,1.09723 1.086439,1.22414 0.305623,0.11671 0.833643,0.0828 1.136759,-0.073 0.613912,-0.31561 0.924535,-1.10881 0.800479,-2.04412 z m 0.0033,4.0639 c -0.01374,-0.0895 -0.06108,-0.29057 -0.105226,-0.44703 -0.07159,-0.25422 -0.09585,-0.28439 -0.227701,-0.28373 -0.08111,3.5e-4 -0.201515,0.0152 -0.267544,0.0329 l -0.120033,0.0322 0.103737,0.20341 c 0.170436,0.33411 0.24485,0.86153 0.172431,1.22219 -0.08877,0.44203 -0.244685,0.6645 -0.572787,0.81727 -0.661833,0.30817 -0.985557,0.10682 -1.621236,-1.00827 -0.599685,-1.05197 -0.886207,-1.30045 -1.499615,-1.30045 -0.537049,0 -0.948536,0.28732 -1.202846,0.83988 -0.106476,0.23132 -0.124544,0.35808 -0.123608,0.86697 5.38e-4,0.34264 0.03062,0.68076 0.0706,0.79536 0.06662,0.19073 0.07813,0.19797 0.269836,0.16842 0.110134,-0.017 0.206969,-0.0361 0.215137,-0.0426 0.0083,-0.007 -0.02226,-0.15441 -0.06778,-0.32882 -0.256197,-0.9836 0.114661,-1.81154 0.811454,-1.81154 0.407878,0 0.635489,0.21607 1.06304,1.00919 0.420253,0.77958 0.690701,1.11789 1.027916,1.28594 0.322541,0.16073 0.722268,0.18884 1.099698,0.0774 0.312153,-0.0922 0.746268,-0.53487 0.865764,-0.8828 0.09472,-0.27589 0.153776,-0.95267 0.108652,-1.24581 z m -0.02351,5.39144 c -0.08119,-0.461 -0.373639,-1.02242 -0.699606,-1.34329 -0.496875,-0.48909 -1.1321,-0.71574 -2.005975,-0.71574 -0.884559,0 -1.445916,0.20241 -1.982543,0.71482 -0.589969,0.56338 -0.815179,1.20788 -0.763186,2.1841 0.01746,0.32781 0.05909,0.69014 0.09242,0.80517 0.05686,0.19574 0.07126,0.20701 0.225863,0.1761 0.09083,-0.0182 0.197592,-0.033 0.237244,-0.033 0.05769,0 0.05463,-0.0462 -0.01506,-0.23029 -0.132605,-0.35027 -0.129402,-1.39101 0.0058,-1.75414 0.216387,-0.58286 0.64403,-0.99705 1.269587,-1.22966 0.44,-0.16361 1.420483,-0.16361 1.860491,0 0.629878,0.23422 1.009079,0.59997 1.245528,1.20139 0.09928,0.25262 0.119752,0.40963 0.117352,0.9019 -0.0025,0.40052 -0.0312,0.67533 -0.089,0.83776 -0.04726,0.13294 -0.08111,0.24659 -0.07498,0.25254 0.0058,0.006 0.100881,0.0276 0.21066,0.0481 l 0.199495,0.0372 0.08671,-0.28981 c 0.108082,-0.3612 0.149125,-1.16821 0.07954,-1.56317 z m -0.02061,10.213959 c -0.03807,-0.14901 -0.09665,-0.33866 -0.130081,-0.42144 -0.101676,-0.25146 -0.535865,-0.6695 -0.836515,-0.80546 -0.278452,-0.12591 -0.31193,-0.12796 -2.32801,-0.14373 l -2.045494,-0.016 v 0.24628 0.24627 h 1.860781 c 2.019523,0 2.179208,0.0186 2.58712,0.30127 0.309265,0.21431 0.510606,0.65316 0.508164,1.10755 -8.27e-4,0.19372 -0.03451,0.44683 -0.07424,0.56247 -0.102255,0.29701 -0.391616,0.59499 -0.723525,0.74505 -0.279189,0.1262 -0.316963,0.12868 -2.221154,0.14507 l -1.937122,0.0167 v 0.24374 0.24373 l 2.018405,-0.0185 c 2.275794,-0.0209 2.316928,-0.0273 2.776568,-0.43189 0.515224,-0.45354 0.736246,-1.27293 0.545135,-2.02104 z m 0.02483,34.666184 c -0.132365,-0.62353 -0.519776,-1.104654 -1.062155,-1.319084 -0.310912,-0.12293 -0.376975,-0.12713 -2.311375,-0.14714 l -1.991316,-0.0205 v 0.27551 0.27552 h 1.913932 c 2.10016,0 2.216725,0.0146 2.593327,0.325034 0.298366,0.24594 0.443294,0.59824 0.445852,1.08379 0.0025,0.48527 -0.139342,0.83113 -0.444006,1.08225 -0.378655,0.31214 -0.493374,0.32657 -2.595173,0.32657 h -1.913924 v 0.27503 0.27504 l 1.991308,-0.0195 c 1.942346,-0.0189 1.99923,-0.0226 2.313221,-0.14733 0.427841,-0.16993 0.789852,-0.53273 0.944803,-0.94687 0.133135,-0.35582 0.187677,-0.97831 0.115506,-1.31826 z m -7.2e-4,10.41607 c -0.11299,-0.62329 -0.343091,-1.06937 -0.746045,-1.44628 -0.332274,-0.31081 -0.608674,-0.45411 -1.136105,-0.589 -0.763071,-0.19516 -1.752584,-0.0864 -2.338555,0.25699 -0.617562,0.36191 -1.072658,1.01349 -1.204212,1.72412 -0.07623,0.41177 -0.02764,1.36845 0.089,1.75347 0.08545,0.28213 0.09275,0.28952 0.253474,0.25738 0.09106,-0.0182 0.197119,-0.0331 0.235845,-0.0331 0.05247,0 0.0408,-0.0795 -0.04569,-0.31158 -0.09539,-0.25599 -0.116425,-0.43237 -0.117823,-0.98887 -8.2e-4,-0.64929 0.0058,-0.69227 0.169269,-1.03812 0.09402,-0.19845 0.273561,-0.46041 0.398998,-0.58213 0.87203,-0.84628 2.6131,-0.84634 3.459307,0 0.454922,0.45492 0.666021,1.1989 0.56264,1.98293 -0.03071,0.23273 -0.0821,0.49019 -0.114438,0.57214 l -0.0586,0.149 h -0.949596 -0.949588 v -0.62313 -0.62313 H 61.15921 60.942467 v 0.86791 0.86792 l 1.341079,-0.0145 1.34108,-0.0145 0.122334,-0.43024 c 0.13834,-0.48657 0.196581,-1.32137 0.121216,-1.73717 z m -0.0066,5.71657 c -0.115348,-0.70356 -0.649294,-1.44815 -1.256842,-1.75267 -0.809798,-0.40589 -2.002862,-0.41707 -2.833691,-0.0265 -0.356971,0.16778 -0.891107,0.68483 -1.064258,1.0302 -0.354521,0.70711 -0.413283,1.76599 -0.145326,2.61878 0.04834,0.15392 0.0648,0.16189 0.295171,0.14356 0.134186,-0.0103 0.243964,-0.0231 0.243956,-0.0276 -2.5e-5,-0.005 -0.05347,-0.14219 -0.1188,-0.30611 -0.09928,-0.24902 -0.119272,-0.40981 -0.121887,-0.97802 l -0.0033,-0.68001 0.204718,-0.41432 c 0.227064,-0.45956 0.491073,-0.72363 0.931164,-0.93131 1.031748,-0.48695 2.493994,-0.21225 3.064811,0.57575 0.302595,0.41772 0.398386,0.76384 0.394496,1.42549 -0.0025,0.35247 -0.03476,0.69567 -0.08012,0.83987 l -0.07656,0.24383 -0.959461,0.0148 -0.959462,0.0147 v -0.62438 -0.62438 h -0.216734 -0.216744 v 0.86696 0.86697 h 1.321663 1.321655 l 0.08705,-0.21746 c 0.208616,-0.52137 0.291612,-1.42843 0.188347,-2.05832 z M 61.159335,15.245047 h -2.655087 v 0.27093 0.27093 h 1.178075 1.178067 l -1.178067,1.17898 -1.178075,1.17898 8.2e-4,0.35176 8.27e-4,0.35175 0.197286,-0.21674 c 0.108537,-0.11921 0.672335,-0.70058 1.252935,-1.29193 l 1.055642,-1.07519 1.400694,1.39991 1.400669,1.39991 -7.11e-4,-0.35181 -7.37e-4,-0.35182 -1.321472,-1.27336 -1.321464,-1.27335 1.322126,-0.0145 1.322126,-0.0145 v -0.26999 -0.26997 h -2.655086 z m 2.614449,4.33712 c -0.02243,0.002 -1.21104,0.48315 -2.641547,1.07088 l -2.600908,1.06859 v 0.31739 0.31739 l 2.627997,1.0433 2.627998,1.0433 0.0168,-0.24462 c 0.0092,-0.13454 -0.0033,-0.26218 -0.02706,-0.28365 -0.02425,-0.0214 -0.342619,-0.15645 -0.707692,-0.29996 l -0.66377,-0.26091 v -1.36636 -1.36638 l 0.704407,-0.28266 0.704415,-0.28267 v -0.23797 c 0,-0.13087 -0.01829,-0.23693 -0.04064,-0.23567 z m -1.838087,3.57394 c -0.05529,0 -2.85651,-1.09587 -2.903214,-1.13577 -0.03054,-0.0261 1.776163,-0.7693 2.844799,-1.17021 0.08843,-0.0332 0.09482,0.0427 0.09482,1.13521 0,0.64393 -0.0163,1.17077 -0.03642,1.17077 z m -0.776362,2.22161 h -2.655087 v 0.34762 0.34762 l 2.327017,1.34567 2.327017,1.34567 -2.327017,0.0142 -2.327017,0.0142 v 0.27036 0.27035 h 2.655087 2.655086 l -0.0025,-0.36576 -0.0025,-0.36575 -2.301161,-1.32754 -2.301162,-1.32754 2.303479,-0.0142 2.303479,-0.0142 v -0.27034 -0.27035 h -2.655078 z m 0.216751,6.44806 h -2.43836 v -0.78568 -0.78569 H 58.721 58.504248 v 1.8423 1.8423 H 58.721 58.937726 v -0.81278 -0.81278 h 2.43836 2.438335 v -0.24383 -0.24384 z m -0.216751,8.77804 h -2.655087 v 0.34019 0.34018 l 2.341344,1.3531 2.34136,1.35312 -2.34136,0.0142 -2.341344,0.0142 v 0.24325 0.24327 h 2.655087 2.655086 v -0.33917 -0.33918 l -2.27591,-1.31886 c -1.25176,-0.72538 -2.289492,-1.34083 -2.306086,-1.36768 -0.01771,-0.0286 0.921969,-0.0487 2.275918,-0.0487 h 2.306078 v -0.24384 -0.24384 h -2.655086 z m 0,18.964889 h -2.655087 v 0.24383 0.24384 h 1.16499 1.16499 v 1.38172 1.38173 h -1.16499 -1.16499 v 0.24384 0.24384 h 2.655087 2.655086 v -0.24284 -0.24283 l -1.259821,-0.0145 -1.259813,-0.0145 v -1.35464 -1.35462 l 1.259813,-0.0145 1.259821,-0.0145 v -0.24282 -0.24285 h -2.655086 z m 0,10.62034 h -2.655087 v 0.27093 0.27093 h 2.438352 2.438343 v 1.05661 1.05661 h 0.216727 0.216751 v -1.32753 -1.32755 z m 0,3.73879 h -2.655087 v 1.30045 1.30045 H 58.721 58.937726 v -1.05661 -1.05662 h 0.948247 0.948255 v 1.00243 1.00243 h 0.216735 0.216743 v -1.00243 -1.00243 h 1.056619 1.056618 v 1.0837 1.08372 h 0.216727 0.216751 v -1.32755 -1.32754 z m 2.614449,5.63497 c -0.02243,0 -1.217024,0.48138 -2.654847,1.07015 l -2.614192,1.07049 -1.82e-4,0.30735 -1.82e-4,0.30734 2.560255,1.01423 c 1.408143,0.55782 2.604252,1.03676 2.658032,1.06433 0.0891,0.0456 0.09631,0.0247 0.08128,-0.23578 l -0.01655,-0.28588 -0.691222,-0.27301 -0.691206,-0.27302 0.0139,-1.37456 0.01391,-1.37457 0.690858,-0.27383 0.690866,-0.27385 v -0.23453 c 0,-0.12901 -0.01829,-0.2347 -0.04064,-0.23486 z m -1.825739,3.57656 c -0.03642,0 -2.916398,-1.13431 -2.940085,-1.15798 -0.02036,-0.0204 2.856088,-1.172 2.927281,-1.172 0.02036,0 0.03691,0.52423 0.03691,1.16499 0,0.64074 -0.01026,1.16499 -0.02408,1.16499 z m -0.78871,2.32997 h -2.655087 v 0.39633 0.39634 l 2.330129,0.96716 c 1.281589,0.53194 2.316291,0.98104 2.299333,0.99798 -0.01688,0.0169 -1.059416,0.45951 -2.316589,0.98348 l -2.285792,0.95265 -0.01589,0.38939 -0.01589,0.38939 h 2.657462 2.657445 v -0.27037 -0.27036 l -2.388453,-0.0141 -2.388461,-0.0141 1.941426,-0.78212 c 1.067792,-0.43015 2.142602,-0.8654 2.38847,-0.9672 l 0.447026,-0.1851 -5.29e-4,-0.22487 -5.55e-4,-0.22487 -2.342883,-0.97061 c -1.28859,-0.53384 -2.366057,-0.99103 -2.394379,-1.01597 -0.0283,-0.0249 1.026286,-0.0454 2.343529,-0.0454 h 2.394991 v -0.24384 -0.24383 h -2.655086 z m 0,9.48244 h -2.655087 v 0.88545 c 0,0.61204 0.024,0.96503 0.07755,1.14314 0.190598,0.63334 0.561026,0.90699 1.227709,0.90699 0.563484,0 0.83563,-0.15197 1.054723,-0.58891 l 0.165471,-0.33004 0.09448,0.26614 c 0.212588,0.59854 0.612844,0.83648 1.336676,0.79457 0.37258,-0.0216 0.469604,-0.0486 0.663389,-0.18479 0.500558,-0.3518 0.687655,-0.93481 0.689186,-2.1475 l 8.28e-4,-0.74505 h -2.655087 z m 2.028742,2.03812 c -0.195282,0.39087 -0.455029,0.56054 -0.860185,0.56189 -0.427114,8.2e-4 -0.701154,-0.16282 -0.879329,-0.527 -0.13018,-0.26608 -0.151335,-0.38265 -0.171356,-0.94444 l -0.02284,-0.6409 h 1.07011 1.070117 l -0.02351,0.61576 c -0.02094,0.54663 -0.04146,0.65156 -0.182926,0.93469 z m -2.524095,-0.1043 c -0.171678,0.33369 -0.452323,0.50243 -0.837723,0.50366 -0.351798,8.3e-4 -0.600439,-0.15621 -0.766604,-0.48514 -0.103961,-0.20584 -0.121921,-0.3273 -0.121921,-0.82588 v -0.58457 h 0.955348 0.955349 l -0.02516,0.56561 c -0.02061,0.46359 -0.04933,0.61262 -0.159296,0.82632 z m 0.495353,7.982154 h -2.655087 v 0.91132 c 0,1.08348 0.06406,1.37433 0.370048,1.68031 0.239842,0.23986 0.521646,0.3347 0.990878,0.33348 0.56874,-8.2e-4 1.018059,-0.35204 1.159569,-0.90472 l 0.06638,-0.25937 0.0821,0.19515 c 0.04511,0.10727 0.151964,0.24445 0.237286,0.30471 0.128872,0.0911 0.902668,0.4453 2.173555,0.99513 l 0.230283,0.0996 v -0.28406 -0.28405 L 62.879649,107.259 c -1.502975,-0.63715 -1.547096,-0.67646 -1.59836,-1.42427 l -0.02913,-0.42517 h 1.281116 1.281092 v -0.27092 -0.27092 z m -0.407449,1.73952 c -0.20437,0.59979 -0.789108,0.85431 -1.363533,0.59352 -0.345508,-0.15687 -0.415932,-0.33698 -0.440844,-1.12741 l -0.02094,-0.66378 h 0.953808 0.953817 v 0.47802 c 0,0.28548 -0.03311,0.57534 -0.08235,0.71965 z m 0.403228,14.35353 h -2.659316 l 0.01779,1.01598 c 0.01895,1.08112 0.04594,1.20359 0.335667,1.52247 0.267859,0.29477 0.885148,0.45696 1.301568,0.34198 0.425441,-0.11747 0.80288,-0.50956 0.878493,-0.91258 0.03625,-0.19304 0.130023,-0.24752 0.130023,-0.0755 0,0.21314 0.311624,0.41112 1.387882,0.88172 0.592659,0.25913 1.121614,0.48782 1.175452,0.50819 0.08785,0.0333 0.0962,0.008 0.08119,-0.24915 l -0.01672,-0.28617 -1.001795,-0.42863 c -0.998237,-0.42712 -1.302007,-0.60033 -1.411479,-0.80488 -0.03178,-0.0593 -0.07217,-0.31429 -0.09002,-0.56673 l -0.03244,-0.45901 h 1.281414 1.281415 v -0.24384 -0.24384 h -2.659324 z m -0.375949,1.63194 c -0.137447,0.49483 -0.477947,0.76802 -0.951921,0.76376 -0.382802,-0.003 -0.611182,-0.13561 -0.767598,-0.44419 -0.104986,-0.20721 -0.12192,-0.32527 -0.12192,-0.85218 v -0.61166 h 0.948239 0.948255 l -3.64e-4,0.47413 c -1.66e-4,0.26076 -0.02483,0.56232 -0.05471,0.67014 z m 2.344381,2.56345 c -0.379971,0.1569 -1.574764,0.64708 -2.655086,1.0893 l -1.96422,0.80401 v 0.30641 0.30641 l 2.615798,1.03827 c 1.438692,0.57103 2.633485,1.03825 2.655086,1.03825 0.0216,0 0.03907,-0.11582 0.03882,-0.25737 l -3.48e-4,-0.25738 -0.690436,-0.27328 -0.690436,-0.27328 v -1.37703 -1.37703 l 0.690436,-0.27327 0.690436,-0.27328 3.48e-4,-0.25301 3.72e-4,-0.25301 -0.690874,0.28529 z m -1.180276,3.29298 c -0.01589,0.0159 -0.686911,-0.22828 -1.491222,-0.54253 -0.804328,-0.31425 -1.4436,-0.58734 -1.420624,-0.60688 0.05131,-0.0436 2.843325,-1.13925 2.900043,-1.13803 0.04544,8.3e-4 0.05711,2.24217 0.01175,2.28744 z m -0.777695,2.3192 h -2.661327 v 0.88423 c 0,1.07337 0.06265,1.34004 0.395481,1.68571 0.246952,0.25641 0.499135,0.35546 0.90497,0.35546 0.550746,0 0.948279,-0.24358 1.116539,-0.68418 l 0.09402,-0.24626 0.100998,0.27068 c 0.324196,0.86907 1.481605,1.10951 2.158492,0.44841 0.407755,-0.39826 0.497645,-0.70605 0.527531,-1.80645 l 0.02466,-0.9076 z m 2.081273,1.9084 c -0.165255,0.46069 -0.629985,0.73623 -1.111772,0.65918 -0.320199,-0.0511 -0.549845,-0.2255 -0.70223,-0.53301 -0.112419,-0.22692 -0.136404,-0.36643 -0.155705,-0.90753 l -0.02284,-0.63937 h 1.070258 1.070242 l -0.02814,0.58249 c -0.01647,0.34071 -0.06629,0.68864 -0.119868,0.83824 z m -2.579522,-0.0327 c -0.07209,0.14547 -0.209783,0.31656 -0.30593,0.38021 -0.517095,0.3423 -1.209881,0.11013 -1.367804,-0.45849 -0.03037,-0.10945 -0.05537,-0.44885 -0.05553,-0.75433 l -3.64e-4,-0.5554 h 0.95534 0.955348 l -0.025,0.56177 c -0.02011,0.45172 -0.05073,0.61358 -0.15611,0.82624 z m 0.492009,2.6759 h -2.655087 v 1.30045 1.30045 H 58.721 58.937726 v -1.05661 -1.05662 h 0.948247 0.948255 v 1.00243 1.00243 h 0.216735 0.216743 v -1.00243 -1.00243 h 1.056619 1.056618 v 1.0837 1.08372 h 0.216727 0.216751 v -1.32755 -1.32754 z m 0,3.95554 h -2.655087 v 0.34687 0.34687 l 2.330071,1.34643 2.33008,1.34642 -2.33008,0.0142 -2.330071,0.0142 v 0.27036 0.27035 h 2.655087 2.655086 l -0.0025,-0.36575 -0.0025,-0.36575 -2.298571,-1.32754 -2.298579,-1.32754 2.30059,-0.0142 2.300591,-0.0142 v -0.27034 -0.27035 H 61.158365 Z M 55.790482,47.832757 c -2.718914,0.20845 -6.295464,0.10225 -9.098649,-0.27004 -1.742809,-0.2315 -2.273543,-0.35826 -2.386946,-0.57015 -0.07068,-0.13212 0.10338,-0.47013 0.677102,-1.31459 0.240058,-0.35337 0.499607,-0.73608 0.576735,-0.85047 0.142851,-0.2118 0.468661,-1.33177 0.708537,-2.43549 0.10362,-0.47686 0.123376,-0.72681 0.121978,-1.54429 -0.0025,-1.49555 -0.130156,-2.26604 -0.500244,-3.02083 l -0.205926,-0.41993 h 0.694036 0.69402 v -11.08093 -11.08091 l -10.877717,0.002 -10.877708,0.002 -2.357069,5.4238 c -1.296395,2.98309 -2.376841,5.48793 -2.400992,5.5663 -0.03666,0.11906 0.222885,0.75324 1.577587,3.8542 l 1.621517,3.71171 -0.234603,0.24122 c -0.12903,0.13267 -0.24749,0.22833 -0.26324,0.21257 -0.01573,-0.0157 -0.637873,-1.4288 -1.382462,-3.14013 l -1.353833,-3.1115 -8.19e-4,4.81398 -8.28e-4,4.81399 -0.503463,0.63164 c -1.102801,1.38361 -1.737222,2.28143 -2.839369,4.01825 -0.520397,0.82004 -1.209493,2.19515 -1.83289,3.65751 -0.641539,1.50494 -0.909157,2.25367 -1.005296,2.81253 -0.157492,0.91557 0.272427,2.28918 1.225234,3.91465 0.462868,0.78966 1.452306,2.24579 1.945838,2.86364 0.508032,0.636 2.249409,2.42528 2.698388,2.7726 l 0.311558,0.241019 v 21.76843 21.769234 l -0.169716,0.15915 c -0.588512,0.55185 -2.696808,4.40293 -3.496551,6.38693 -0.598079,1.48372 -0.650767,2.36164 -0.222975,3.71523 0.172175,0.54475 0.764403,2.15817 1.272939,3.46787 0.504291,1.29877 1.461295,3.14381 2.326496,4.48528 l 0.289244,0.44849 0.01382,4.93738 0.01382,4.93738 1.391938,-3.21845 c 0.765561,-1.77013 1.441993,-3.33581 1.503189,-3.47926 l 0.111268,-0.26081 0.216222,0.17954 c 0.118924,0.0987 0.21666,0.20237 0.217198,0.23028 5.38e-4,0.0279 -0.780988,1.85106 -1.736725,4.05145 -0.955729,2.20038 -1.729906,4.03378 -1.720388,4.07421 0.0091,0.0405 1.090188,2.53879 2.401472,5.55189 l 2.384157,5.47838 10.877717,8.2e-4 10.877725,8.3e-4 v -11.08091 -11.08091 h -0.704423 -0.704399 v -2.4289 -2.4289 l 0.230284,-0.30071 c 0.126662,-0.16537 0.381932,-0.47416 0.567266,-0.68618 0.185334,-0.21203 0.378754,-0.465 0.429811,-0.56217 0.150151,-0.28573 0.157377,-0.98166 0.0192,-1.84418 -0.135527,-0.84557 -0.137141,-1.63448 -0.0033,-1.71704 0.131728,-0.0814 0.969137,-0.12715 1.710125,-0.0935 0.387436,0.0176 1.216478,0.10545 1.842316,0.19525 0.966149,0.13855 2.276142,0.27543 2.635852,0.27543 0.09391,0 0.100426,-0.0595 0.09974,-0.9076 -3.65e-4,-0.49918 -0.01539,-0.96247 -0.03352,-1.02951 l -0.03269,-0.12193 h -2.946781 -2.946788 v -0.23244 c 0,-0.51826 0.282052,-1.25128 0.798244,-2.07453 0.316408,-0.50464 0.610577,-1.07105 0.610577,-1.17564 0,-0.0396 -0.11582,-0.12782 -0.25738,-0.19601 -0.433312,-0.20874 -1.74746,-1.00497 -2.248697,-1.36245 l -0.474115,-0.33815 v -7.443064 -7.44306 h 0.704407 0.704406 v -9.91543 -9.91592 H 46.367537 45.66313 v -4.7895 -4.78949 l 0.582478,-0.33809 c 0.320381,-0.18595 0.587395,-0.34184 0.59337,-0.34642 0.0058,-0.004 -0.08235,-0.3001 -0.196234,-0.656699 -0.3405,-1.06592 -0.410668,-1.56098 -0.410668,-2.89708 0,-1.30023 0.0504,-1.64734 0.38569,-2.65508 0.422859,-1.27103 1.169749,-2.27818 2.108875,-2.84368 l 0.289303,-0.17421 1.588263,-0.0489 c 1.961314,-0.0603 3.419315,-0.0622 4.385347,-0.006 0.684825,0.0401 0.740128,0.0362 0.766894,-0.0541 0.01589,-0.0536 0.12677,-0.46319 0.246447,-0.91021 0.119669,-0.44703 0.235821,-0.85926 0.258109,-0.91606 0.03873,-0.0987 0.01821,-0.10157 -0.469704,-0.0642 z m -8.280466,58.891263 c -0.377157,0.7187 -0.648591,1.38923 -0.849766,2.09932 -0.0802,0.28311 -0.1539,0.52413 -0.163757,0.53559 -0.04113,0.0478 -0.408301,-0.14858 -0.93421,-0.49963 -0.673312,-0.44945 -1.605122,-1.3366 -2.833369,-2.69757 -1.002615,-1.11098 -2.075405,-2.12457 -2.341641,-2.21243 -0.127466,-0.042 -0.226187,-0.0433 -0.329088,-0.005 l -0.146997,0.0559 0.477856,0.52411 c 1.425672,1.56375 3.775474,3.98358 4.261963,4.38903 0.164552,0.13713 0.202929,0.20315 0.188951,0.32511 -0.01705,0.14815 -0.03054,0.15443 -0.423919,0.19699 -0.223513,0.0242 -1.089128,0.0325 -1.923582,0.0185 -1.63697,-0.0274 -2.334375,-0.1043 -3.745523,-0.413 -1.478616,-0.32343 -3.77098,-1.07075 -5.62855,-1.83488 -1.862519,-0.76618 -2.609648,-0.97923 -3.135011,-0.89397 l -0.203029,0.0329 0.314388,0.2124 c 0.768955,0.51948 1.776883,0.94832 4.026077,1.71298 1.739117,0.59124 2.307493,0.8093 3.017842,1.15779 0.733051,0.35962 0.888483,0.47796 0.627808,0.47796 -0.959056,0 -5.949146,0.37092 -7.33025,0.54485 -0.777636,0.0979 -2.38717,0.36657 -2.429835,0.40554 -0.01026,0.009 0.05562,0.0553 0.146311,0.10225 0.270846,0.14005 1.359354,0.0923 4.207107,-0.18467 2.542113,-0.24721 5.17981,-0.38927 5.359624,-0.28864 0.197682,0.11059 -1.469877,1.30217 -4.059174,2.90046 -2.553013,1.57589 -2.872177,1.81789 -3.258545,2.47061 l -0.138407,0.23383 0.275282,-0.13949 c 0.519545,-0.26328 1.227337,-0.69944 2.688184,-1.65652 2.914949,-1.90975 4.191564,-2.57505 5.864834,-3.05648 1.254764,-0.361 1.866971,-0.43713 3.518276,-0.43741 0.809641,0 1.491007,0.0187 1.514164,0.042 0.05247,0.0526 -0.50756,0.62693 -1.116813,1.14544 -0.253316,0.2156 -0.997011,0.8015 -1.652662,1.30203 -1.831093,1.39786 -2.007944,1.56184 -2.33276,2.16275 l -0.200911,0.3717 0.670805,-0.51201 c 0.368938,-0.28161 1.109695,-0.81233 1.646132,-1.17938 1.09459,-0.74897 1.551631,-1.10127 2.491635,-1.92056 0.357119,-0.31128 0.834818,-0.67808 1.061526,-0.81513 0.43587,-0.2635 1.06626,-0.51263 1.301956,-0.51455 0.13873,-8.2e-4 0.141519,0.007 0.173863,0.47299 0.01804,0.26076 0.08465,0.73015 0.148041,1.04307 0.06704,0.33148 0.117475,0.7951 0.120687,1.1108 0.0083,0.78022 -0.06389,0.92001 -1.154603,2.24869 -0.748239,0.91143 -2.972951,4.0119 -3.984206,5.5526 -0.660401,1.00614 -1.510895,2.42796 -1.849476,3.09184 l -0.258001,0.50588 -0.569989,0.18906 c -0.992832,0.32933 -2.74227,0.73891 -4.086188,0.95666 -1.058183,0.17145 -2.033543,0.26534 -3.400884,0.3274 -1.419125,0.0645 -2.053332,0.024 -2.647753,-0.1689 -1.403641,-0.45541 -4.039534,-2.34229 -5.797844,-4.15037 -2.240818,-2.30423 -3.944032,-5.14181 -4.987144,-8.30864 -0.416138,-1.26339 -0.599023,-2.09401 -0.633535,-2.87747 l -0.02764,-0.6284 0.392063,-1.13264 c 0.804626,-2.32449 1.480463,-3.87257 2.263735,-5.18535 0.332291,-0.55694 0.565173,-0.86188 1.116532,-1.46198 0.798592,-0.86919 0.99308,-1.15355 1.58352,-2.31509 0.382562,-0.752614 0.472071,-0.885624 0.861477,-1.280314 1.757574,-1.78129 5.742086,-2.93144 11.163287,-3.22234 1.258323,-0.0675 3.430306,-0.0393 4.524475,0.0587 1.06338,0.0953 0.900144,-0.0343 1.38506,1.0992 1.585151,3.705064 2.671647,5.516034 4.249796,7.083494 0.904564,0.89844 1.873808,1.58153 2.857412,2.01379 0.216784,0.0953 0.39414,0.18116 0.39414,0.19088 0,0.0103 -0.143869,0.29183 -0.319702,0.62689 z M 46.665895,50.999947 c -1.335915,2.06511 -1.661079,5.11804 -0.7818,7.33997 0.161018,0.406909 0.163733,0.426729 0.06778,0.497679 -0.160215,0.11846 -2.641521,1.34534 -3.328125,1.64558 -5.354245,2.34129 -9.79761,2.9667 -13.731835,1.93276 -5.48915,-1.44259 -10.181305,-5.229349 -12.693159,-10.243899 -0.471591,-0.94144 -0.612042,-1.27043 -0.93642,-2.19347 l -0.256868,-0.73091 0.271128,-0.78627 c 1.42501,-4.13264 3.644235,-8.03659 6.561171,-11.54209 2.34597,-2.81935 3.545994,-3.40966 7.544477,-3.71124 3.841553,-0.28975 7.145876,-0.0724 9.601012,0.63133 1.849119,0.53008 4.159624,1.7493 5.252593,2.77172 0.586319,0.54848 1.149885,1.57614 1.436912,2.62026 0.159437,0.57994 0.17647,2.29917 0.02946,2.97964 -0.2981,1.3804 -0.953155,2.67609 -1.821617,3.60322 l -0.372406,0.39755 -0.453714,-0.18217 c -1.064572,-0.42745 -2.503892,-1.28695 -3.488108,-2.08297 -1.269199,-1.0265 -2.534946,-2.35261 -3.1925,-3.34473 -0.247631,-0.37362 -0.532274,-0.76133 -0.632526,-0.8616 -0.208955,-0.20895 -0.551127,-0.37975 -0.76427,-0.38149 l -0.146087,-8.2e-4 0.102139,0.29689 c 0.321457,0.9343 0.955315,1.89353 1.886099,2.85422 0.722581,0.74581 2.400842,2.17478 3.226184,2.74697 0.272965,0.18923 0.574558,0.4186 0.670217,0.50972 0.17839,0.16991 0.495948,0.71601 0.445628,0.76634 -0.01539,0.0154 -0.661022,-0.0573 -1.434611,-0.16153 -2.759246,-0.37192 -14.81512,-1.86513 -15.057843,-1.86501 -0.08614,3e-5 0.251405,0.32099 0.510076,0.48499 0.345798,0.21927 0.846265,0.3584 1.657578,0.4608 0.385409,0.0487 1.029936,0.13501 1.432277,0.19191 0.402318,0.0569 1.853134,0.22784 3.224017,0.37985 2.616369,0.29013 3.549577,0.413 4.578668,0.60285 1.061204,0.19578 1.138241,0.17623 -1.571387,0.39882 -7.388061,0.6069 -7.473581,0.61564 -8.181249,0.83588 -0.377868,0.1176 -0.733581,0.31682 -0.917789,0.51401 l -0.131364,0.14063 h 0.863794 c 1.149331,0 2.164046,-0.0689 4.79038,-0.32548 2.935972,-0.28677 3.31144,-0.31592 4.605758,-0.35761 1.972148,-0.0636 4.757629,0.19689 6.529339,0.61044 0.327821,0.0766 0.61508,0.15663 0.638361,0.17802 0.05082,0.0468 -1.158857,0.28386 -2.20974,0.43308 -1.557317,0.22115 -3.374299,0.36973 -6.664792,0.54499 -2.247662,0.11973 -4.740464,0.29695 -5.40977,0.38461 -0.692547,0.0907 -1.077674,0.23346 -1.303215,0.4831 -0.107618,0.11912 -0.195655,0.24468 -0.195655,0.27903 0,0.0928 1.226898,0.0288 3.711697,-0.19332 2.395984,-0.21421 3.801967,-0.30304 4.791414,-0.30268 0.847763,3.6e-4 1.900474,0.0588 1.900474,0.10557 0,0.0193 -1.188693,0.50743 -2.641529,1.0847 -1.452852,0.57728 -3.214548,1.28577 -3.914899,1.57443 -0.700351,0.28865 -1.489666,0.60582 -1.75404,0.7048 -0.54905,0.20556 -0.995025,0.48032 -1.304895,0.80392 l -0.214185,0.22368 0.187097,0.006 c 0.622337,0.0175 0.875513,-0.0451 1.751631,-0.43265 0.331587,-0.14669 1.053986,-0.43012 1.605312,-0.62985 1.489468,-0.53957 2.430671,-0.92468 4.045758,-1.65535 3.871456,-1.7515 4.643978,-1.92006 9.41932,-2.05542 1.072873,-0.0304 2.218893,-0.0707 2.546706,-0.0896 l 0.596043,-0.0343 -0.358725,0.37439 c -0.19731,0.20591 -0.474264,0.55294 -0.615443,0.7712 z m -1.030672,-28.54443 -1.16499,0.86865 v 1.10809 1.1081 h -2.059051 -2.059043 v 0.78568 0.78569 h 2.059043 2.059051 l 0.0025,1.09726 0.0025,1.09725 1.148677,0.84403 1.148694,0.84402 0.0139,3.07087 0.0139,3.07087 h -0.641166 -0.641175 l -0.537811,-0.5314 c -0.509083,-0.50303 -1.590894,-1.40277 -2.169831,-1.80464 l -0.264465,-0.18358 0.2303,-0.0167 0.230284,-0.0167 v -0.78257 -0.78257 h -1.327548 -1.327539 v 0.16256 c 0,0.0894 -0.02293,0.16256 -0.05107,0.16256 -0.02814,0 -0.229191,-0.066 -0.446886,-0.14671 -0.217678,-0.0806 -0.700649,-0.23486 -1.073254,-0.3426 l -0.67779,-0.19587 v -8.55738 -8.55736 l 4.348369,-0.0139 4.348386,-0.0139 v 3.03573 3.03573 l -1.16499,0.86865 z m -3.955537,-4.33856 h -1.327547 v 0.78568 0.78569 h 1.327547 1.327539 v -0.78578 -0.78568 z m 0,3.68461 h -1.327547 v 0.78568 0.78569 h 1.327547 1.327539 v -0.78569 -0.78568 z m 0,7.4234 h -1.327547 v 0.81278 0.81277 h 1.327547 1.327539 v -0.81286 -0.81278 z m 5.076629,1.39978 c -0.02408,-0.01 -0.487631,-0.34637 -1.029993,-0.74763 l -0.986112,-0.72957 0.01407,-2.84667 0.01407,-2.84666 0.92115,-0.69269 c 0.506633,-0.38098 0.963823,-0.7171 1.015973,-0.74695 0.09003,-0.0515 0.09483,0.1679 0.09483,4.28698 0,2.38769 -0.01978,4.33312 -0.04387,4.32319 z m -2.73742,42.177399 -2.781319,0.015 -0.265185,0.16399 c -0.164303,0.10156 -0.327556,0.26488 -0.429166,0.42923 -0.147444,0.23848 -0.163989,0.30983 -0.163989,0.70723 0,0.39739 0.01655,0.46873 0.163989,0.70723 0.101569,0.16435 0.264863,0.32762 0.429166,0.42923 l 0.265185,0.16399 2.781319,0.015 2.781301,0.015 v 1.21774 1.21775 H 44.13786 c -1.883856,0 -2.724534,0.0186 -2.875032,0.0637 -0.278212,0.0834 -0.683666,0.44419 -0.808897,0.71987 -0.337802,0.74365 0.136073,1.69665 0.928069,1.8665 0.177504,0.0381 1.192997,0.0592 2.84705,0.0592 h 2.571138 v 1.19019 1.19019 l -2.749909,0.0154 c -2.720826,0.0153 -2.752268,0.0167 -2.974358,0.13547 -0.280612,0.15007 -0.598932,0.5164 -0.669505,0.77047 -0.183704,0.66128 0.09049,1.33487 0.669505,1.64453 0.222057,0.11876 0.253954,0.1202 2.974358,0.13591 l 2.749909,0.0159 v 1.59615 1.59615 h -4.361909 -4.361934 v -9.645 -9.64501 h 4.361934 4.361909 v 1.59705 1.59704 z m 1.605759,55.467694 -1.148454,0.84591 -0.0033,1.12436 -0.0033,1.12435 H 42.410533 40.35149 v 0.78568 0.78569 h 2.057925 2.057926 l 0.01465,1.09315 0.01465,1.09315 1.148686,0.84398 1.148685,0.84397 0.0025,3.07534 0.0025,3.07536 -4.348377,-0.0138 -4.348386,-0.0138 v -8.53098 -8.53096 l 0.300186,-0.0891 c 0.386278,-0.11468 1.013681,-0.44473 1.279793,-0.67327 0.114471,-0.0984 0.293482,-0.3401 0.39779,-0.53729 0.104316,-0.1972 0.207937,-0.35874 0.230283,-0.35899 0.02243,0 0.04064,0.29214 0.04064,0.64977 v 0.65022 h 1.327531 1.327555 v -0.81278 -0.81278 H 41.73087 40.455721 l 0.417322,-0.79923 c 0.22953,-0.43958 0.553428,-1.01248 0.719751,-1.27309 l 0.302429,-0.47388 h 2.452331 2.452355 l -0.01391,3.04188 -0.01407,3.04189 -1.148462,0.84592 z m -3.944968,-0.64418 h -1.327547 v 0.78569 0.78569 h 1.327547 1.327539 v -0.78569 -0.78569 z m 0,7.4234 h -1.327547 v 0.78569 0.78569 h 1.327547 1.327539 v -0.78569 -0.78569 z m 0,3.79298 h -1.327547 v 0.78568 0.7857 h 1.327547 1.327539 v -0.7857 -0.78568 z m 5.025687,-2.43518 c -0.05222,-0.0301 -0.509339,-0.36628 -1.015964,-0.74694 l -0.92115,-0.69214 -0.01407,-2.84748 -0.01407,-2.84749 0.985391,-0.72874 c 0.541974,-0.40082 1.005471,-0.73689 1.029994,-0.74683 0.02458,-0.0103 0.04453,1.93551 0.04453,4.3232 0,4.11929 -0.005,4.33844 -0.09482,4.28642 z m -4.957961,-67.097864 -3.643962,-0.0139 -0.0139,-3.20934 -0.0139,-3.20934 0.122342,-0.0258 c 0.178589,-0.0377 1.88907,-0.4553 2.032376,-0.49617 0.09049,-0.0258 0.121912,-0.0122 0.121912,0.0528 0,0.0783 0.141071,0.0876 1.327555,0.0876 h 1.327531 v -0.61748 -0.61749 l 0.257389,-0.16314 c 0.35971,-0.22802 2.028891,-1.1486 2.082597,-1.1486 0.02433,0 0.0442,2.10933 0.0442,4.68742 v 4.68742 l -3.643962,-0.0139 z m -0.06778,-4.86353 h -1.327548 v 0.7857 0.78569 h 1.327548 1.327539 v -0.78569 -0.7857 z m 3.616476,39.291464 c -0.05247,-0.028 -0.291596,-0.24224 -0.531604,-0.47602 -0.534011,-0.52018 -1.263719,-1.49007 -1.828171,-2.42993 -0.404445,-0.67341 -1.476217,-2.758314 -1.598957,-3.110414 l -0.05851,-0.16781 h 0.864142 0.864142 v -0.78568 -0.78569 h -1.166323 c -1.163111,0 -1.166463,-5.5e-4 -1.213142,-0.12314 -0.0735,-0.1931 -0.385441,-0.47406 -0.682002,-0.61409 -0.320182,-0.15118 -0.871475,-0.27949 -1.435919,-0.33419 l -0.406389,-0.0394 v -2.84473 -2.84474 l 3.643962,-0.0139 3.643978,-0.0139 v 7.31731 c 0,6.963874 -0.005,7.314874 -0.09517,7.266374 z M 41.679632,92.459336 h -1.327548 v 0.78569 0.78568 h 1.327548 1.327539 v -0.78568 -0.78569 z m 2.082945,28.609894 c -1.288508,0 -1.620301,-0.0142 -1.58823,-0.0678 0.02226,-0.0373 0.313072,-0.4213 0.646207,-0.85342 0.333101,-0.43212 0.736933,-0.98259 0.897355,-1.22324 0.467866,-0.70184 1.588412,-2.24112 1.63279,-2.24295 0.02243,-8.3e-4 0.04064,0.98586 0.04064,2.19284 v 2.1945 z M 37.750629,32.584457 c -0.06,0 -0.334235,-0.0353 -0.609583,-0.0785 -0.875017,-0.13724 -2.120529,-0.19796 -3.882456,-0.18926 l -1.711598,0.008 v -8.391 -8.39098 l 3.088564,-0.0141 c 1.698712,-0.007 3.119054,-0.002 3.156298,0.0118 0.0538,0.0206 0.06778,1.77761 0.06778,8.53472 0,8.48787 -1.82e-4,8.5088 -0.108992,8.5088 z m -3.061078,-14.46759 h -1.327547 v 0.78568 0.78569 h 1.327547 1.327539 v -0.78569 -0.78568 z m 0,3.68461 h -1.327547 v 0.78568 0.78569 h 1.327547 1.327539 v -0.78569 -0.78568 z m 0,3.73878 h -1.327547 v 0.78569 0.78569 h 1.327547 1.327539 v -0.78569 -0.78569 z m 0,3.68462 h -1.327547 v 0.81278 0.81277 h 1.327547 1.327539 v -0.81277 -0.81278 z m 0,40.070109 h -3.142758 l -0.01407,-2.95312 -0.0139,-2.9531 1.368639,-0.002 c 1.434777,-0.002 2.279709,-0.0716 3.996629,-0.32563 0.491736,-0.0727 0.912559,-0.13225 0.935146,-0.13226 0.02259,0 0.03476,1.43252 0.02706,3.18339 l -0.01391,3.18339 h -3.14275 z m 0,-4.84961 h -1.327547 v 0.7857 0.78569 h 1.327547 1.327539 v -0.78569 -0.7857 z m 0,24.43763 h -3.169855 v -9.64501 -9.645 h 3.169855 3.169839 v 9.645 9.64501 z m 0,-15.55122 h -1.327547 v 0.7857 0.78569 h 1.327547 1.327539 v -0.78569 -0.7857 z m 0,5.09344 h -1.327547 v 0.81277 0.81278 h 1.327547 1.327539 v -0.81278 -0.81277 z m 0,5.09342 h -1.327547 v 0.81278 0.81277 h 1.327547 1.327539 v -0.81277 -0.81278 z m 2.329964,11.33027 c -0.544722,-0.007 -1.576089,0.0529 -3.127232,0.18168 -1.272948,0.10568 -2.327737,0.19211 -2.343967,0.19211 -0.01622,0 -0.02317,-1.35938 -0.01556,-3.02085 l 0.01391,-3.02084 3.088564,-0.0141 c 1.698712,-0.008 3.119269,-0.002 3.156786,0.012 0.05396,0.0205 0.06522,0.62043 0.05413,2.85323 l -0.01407,2.82713 -0.812778,-0.0103 z m -2.329964,-2.44386 h -1.327547 v 0.81278 0.81278 h 1.327547 1.327539 v -0.81278 -0.81278 z m 0,50.527884 h -3.142758 l -0.01374,-8.00339 -0.01374,-8.00341 0.176288,-0.0291 c 0.09699,-0.016 1.249335,-0.14909 2.560843,-0.29573 2.176435,-0.24335 2.43514,-0.28302 2.964103,-0.45455 0.318758,-0.1034 0.592965,-0.17452 0.60936,-0.15813 0.01631,0.0165 0.02367,3.83557 0.01614,8.48707 l -0.01374,8.45726 h -3.142749 z m 0,-15.30737 h -1.327547 v 0.78569 0.78569 h 1.327547 1.327539 v -0.78569 -0.78569 z m 0,3.7388 h -1.327547 v 0.78567 0.7857 h 1.327547 1.327539 v -0.7857 -0.78567 z m 0,3.6846 h -1.327547 v 0.78569 0.78569 h 1.327547 1.327539 v -0.78569 -0.78569 z m 0,3.79298 h -1.327547 v 0.78568 0.78569 h 1.327547 1.327539 v -0.78569 -0.78568 z M 30.964298,32.387197 c -0.186261,0.0156 -0.748123,0.0544 -1.248573,0.0863 -1.139093,0.0727 -2.390887,0.23141 -3.357184,0.4255 l -0.745044,0.14967 v -8.76636 -8.76636 h 2.808605 c 1.544729,0 2.824869,0.0162 2.844733,0.0361 0.01986,0.0199 0.03608,3.80955 0.03608,8.42152 v 8.38539 z M 28.349857,18.116867 H 27.02231 v 0.78568 0.78569 h 1.327547 1.327531 v -0.78569 -0.78568 z m 0,3.68461 H 27.02231 v 0.78568 0.78569 h 1.327547 1.327531 v -0.78569 -0.78568 z m 0,3.73878 H 27.02231 v 0.78569 0.78569 h 1.327547 1.327531 v -0.78569 -0.78569 z m 0,3.68462 H 27.02231 v 0.81278 0.81277 h 1.327547 1.327531 v -0.81277 -0.81278 z m -0.06778,40.084109 -2.993742,0.0139 v -3.71216 c 0,-2.04168 0.01026,-3.71216 0.02226,-3.71216 0.01225,0 0.225615,0.0871 0.474123,0.19356 0.877558,0.37591 2.104075,0.78153 2.60566,0.86171 0.275688,0.0441 1.013308,0.1424 1.639146,0.21853 0.625839,0.0761 1.168582,0.14916 1.206091,0.1623 0.05396,0.0189 0.06522,0.64543 0.05413,2.99203 l -0.01407,2.96818 -2.993741,0.0139 z m 0.06778,-4.86361 H 27.02231 v 0.7857 0.78569 h 1.327547 1.327531 v -0.78569 -0.7857 z m -0.05413,24.43763 c -1.654011,0 -3.007298,-0.0127 -3.007298,-0.0281 0,-0.0154 -0.611156,-2.1873 -1.358129,-4.82635 l -1.358137,-4.79829 1.358137,-4.78827 c 0.746973,-2.63356 1.358129,-4.80195 1.358129,-4.81866 0,-0.0166 1.353287,-0.0304 3.007298,-0.0304 h 3.007289 v 9.645 9.645 z m 0.05413,-15.55122 H 27.02231 v 0.7857 0.78569 h 1.327547 1.327531 v -0.78569 -0.7857 z m 0,5.09344 H 27.02231 v 0.81277 0.81278 h 1.327547 1.327531 v -0.81278 -0.81277 z m 0,5.09342 H 27.02231 v 0.81278 0.81277 h 1.327547 1.327531 v -0.81277 -0.81278 z m 2.848292,11.81051 c -0.05769,0.0309 -0.162011,0.0561 -0.231914,0.0561 -0.1721,0 -5.455176,1.18509 -5.579355,1.25156 -0.09472,0.0507 -0.09848,-0.09 -0.09848,-3.71509 v -3.7678 h 2.971171 c 1.634131,0 2.987426,0.0162 3.00729,0.0361 0.01986,0.0199 0.03608,1.39668 0.03608,3.05958 0,2.93373 -0.0033,3.0251 -0.104763,3.07952 z m -2.848292,-2.9241 H 27.02231 v 0.81278 0.81278 h 1.327547 1.327531 v -0.81278 -0.81278 z m 0.09482,50.541914 -2.831176,0.0141 v -8.80752 -8.80752 l 0.121904,0.0646 c 0.06704,0.0355 0.213035,0.12183 0.324386,0.19178 0.111392,0.0699 0.660401,0.35684 1.220086,0.63757 0.845735,0.4242 1.095278,0.52463 1.477284,0.59455 0.751831,0.13759 1.560496,0.19625 2.031027,0.1473 0.238419,-0.0247 0.451852,-0.0349 0.474306,-0.0225 0.02243,0.0125 0.0346,3.6116 0.02706,7.99813 l -0.01374,7.97547 -2.831184,0.0141 z m -0.09482,-15.3214 H 27.02231 v 0.78569 0.78569 h 1.327547 1.327531 v -0.78569 -0.78569 z m 0,3.7388 H 27.02231 v 0.78567 0.7857 h 1.327547 1.327531 v -0.7857 -0.78567 z m 0,3.6846 H 27.02231 v 0.78569 0.78569 h 1.327547 1.327531 v -0.78569 -0.78569 z m 0,3.79298 H 27.02231 v 0.78568 0.78569 h 1.327547 1.327531 v -0.78569 -0.78568 z"
     id="path4138"
     inkscape:connector-curvature="0" />
  <path
     id="path5114"
     style="font-style:normal;font-variant:normal;font-weight:bold;font-stretch:normal;font-size:16px;line-height:1;font-family:Arial;-inkscape-font-specification:'Arial Bold';letter-spacing:1px;word-spacing:0px;fill:#000000;fill-opacity:1;stroke:none;stroke-width:1.98504937"
     d="m 318.57011,138.61909 h -22.73503 v 4.3578 h 8.18833 q -2.29521,2.01608 -2.29521,4.77653 0,3.0086 2.18667,4.97812 2.17114,1.96955 6.24979,1.96955 4.21823,0 6.49794,-2.01606 2.27971,-2.00057 2.27971,-4.86958 0,-1.41125 -0.69787,-2.79148 -0.71338,-1.36472 -2.09361,-2.35724 h 2.41928 z m -8.59155,4.3268 q 2.55887,0 3.784,0.80642 1.73692,1.1321 1.73692,3.00858 0,1.44226 -1.22514,2.45031 -1.24065,1.02353 -3.89256,1.02353 -2.8225,0 -4.06316,-1.02353 -1.25616,-1.02355 -1.25616,-2.6209 0,-1.56633 1.22516,-2.60538 1.20963,-1.03903 3.69094,-1.03903 z m -2.85351,-20.54837 -0.71337,-3.95459 q -2.38827,0.66685 -3.53587,2.29521 -1.14761,1.62836 -1.14761,4.83856 0,2.91554 0.69788,4.3423 0.68236,1.42675 1.75242,2.00055 1.05456,0.5893 3.89256,0.5893 l 5.08669,-0.0464 q 2.17115,0 3.21019,0.2016 1.02355,0.21711 2.20217,0.79093 v -4.31129 q -0.43423,-0.17052 -1.28719,-0.41873 -0.3877,-0.10858 -0.51176,-0.15503 1.08556,-1.11659 1.62835,-2.38827 0.5428,-1.27167 0.5428,-2.71393 0,-2.54334 -1.38023,-4.01662 -1.38024,-1.45777 -3.48936,-1.45777 -1.39573,0 -2.48131,0.66685 -1.10107,0.66685 -1.67489,1.86098 -0.5893,1.20964 -1.02353,3.47384 -0.57379,3.05511 -1.07006,4.23373 h -0.43423 q -1.25618,0 -1.78344,-0.62033 -0.5428,-0.62033 -0.5428,-2.34172 0,-1.16312 0.46526,-1.81447 0.44973,-0.65134 1.59733,-1.05455 z m 3.53587,5.83107 q 0.27916,-0.83743 0.66686,-2.65189 0.3877,-1.81446 0.75989,-2.37276 0.60483,-0.85295 1.53532,-0.85295 0.91499,0 1.58185,0.68236 0.66683,0.68236 0.66683,1.73693 0,1.17862 -0.7754,2.24868 -0.58932,0.79092 -1.44225,1.03905 -0.5583,0.17052 -2.12464,0.17052 z m 7.90919,-30.334026 h -22.54893 v 4.590426 h 18.7184 v 11.41403 h 3.83053 z M 312.5064,84.650563 h -4.3578 v 8.560526 h 4.3578 z M 295.83508,68.087807 h 8.35892 q -2.4658,2.109115 -2.4658,5.040164 0,1.504296 0.55829,2.713935 0.5583,1.20964 1.42676,1.814458 0.86845,0.620328 1.92301,0.837443 1.05456,0.232624 3.27224,0.232624 h 9.66161 v -4.357805 h -8.70009 q -2.58988,0 -3.28774,-0.248131 -0.69789,-0.248131 -1.10109,-0.883966 -0.41873,-0.620328 -0.41873,-1.566329 0,-1.085574 0.52729,-1.938524 0.52727,-0.852952 1.59733,-1.256165 1.05456,-0.387704 3.13267,-0.387704 h 8.25036 v -4.357805 h -22.73503 z m 11.1349,-9.6461 0.7754,-4.29577 q -1.28717,-0.21712 -1.93852,-0.99253 -0.65134,-0.7599 -0.65134,-1.98505 0,-1.62836 1.1321,-2.60537 1.11659,-0.96151 3.75297,-0.96151 2.93106,0 4.14069,0.97702 1.20965,0.99252 1.20965,2.6519 0,1.24065 -0.69788,2.03157 -0.71337,0.79092 -2.43478,1.11659 l 0.72889,4.280265 q 2.94655,-0.666855 4.45086,-2.558855 1.50429,-1.892 1.50429,-5.07118 0,-3.61341 -2.27971,-5.76905 -2.27971,-2.14013 -6.31185,-2.14013 -4.07864,0 -6.34284,2.15564 -2.27971,2.15564 -2.27971,5.83108 0,3.00859 1.30268,4.77653 1.28719,1.78344 3.9391,2.55885 z m 6.35835,-24.48745 0.72889,4.3423 q 2.38827,-0.83744 3.64443,-2.6519 1.24066,-1.79895 1.24066,-4.51289 0,-4.29577 -2.80698,-6.35836 -2.24871,-1.62836 -5.67601,-1.62836 -4.09417,0 -6.40488,2.14013 -2.32624,2.14013 -2.32624,5.41236 0,3.67545 2.4348,5.80007 2.41928,2.12462 7.42841,2.03157 v -10.91777 q 1.93854,0.0465 3.0241,1.05456 1.07006,1.00803 1.07006,2.51233 0,1.02354 -0.55829,1.72141 -0.5583,0.69787 -1.79895,1.05455 z m -4.40433,0.24814 q -1.89199,-0.0465 -2.86901,-0.97702 -0.99253,-0.93049 -0.99253,-2.2642 0,-1.42675 1.03906,-2.35724 1.03905,-0.9305 2.82248,-0.91499 z m 9.64611,-23.68102 h -18.889 V 3.7753069 h -3.84603 V 21.842357 h 3.84603 v -6.73056 h 18.889 z"
     inkscape:connector-curvature="0" />
</svg>
