  0
SECTION
  2
HEADER
  9
$ACADVER
  1
AC1009
  9
$INSBASE
 10
0.0
 20
0.0
 30
0.0
  9
$EXTMIN
 10
0.0
 20
0.0
 30
0.0
  9
$EXTMAX
 10
0.0
 20
0.0
 30
0.0
  0
ENDSEC
  0
SECTION
  2
TABLES
  0
TABLE
  2
VPORT
 70
0
  0
ENDTAB
  0
TABLE
  2
LTYPE
 70
1
  0
LTYPE
  2
CONTINUOUS
 70
0
  3
Solid line
 72
65
 73
0
 40
0.0
  0
ENDTAB
  0
TABLE
  2
LAYER
 70
1
  0
LAYER
  2
0
 70
64
 62
7
  6
continuous
  0
ENDTAB
  0
TABLE
  2
STYLE
 70
1
  0
STYLE
  2
STANDARD
 70
0
 40
0
 41
1.0
 50
0.0
 71
0
 42
1
 3
ARIAL.TTF
 4

  0
ENDTAB
  0
TABLE
  2
VIEW
 70
0
  0
ENDTAB
  0
ENDSEC
  0
SECTION
  2
BLOCKS
  0
BLOCK
  8
0
  2
SHAPE2DVIEW
 70
0
 10
0.0
 20
0.0
 30
0.0
  3
SHAPE2DVIEW
  0
LINE
  8
0
 62
0
 10
3.0
 20
0.0
 30
0.0
 11
123.0
 21
0.0
 31
0.0
  0
LINE
  8
0
 62
0
 10
3.0
 20
9.900000000000006
 30
0.0
 11
3.0
 21
0.0
 31
0.0
  0
LINE
  8
0
 62
0
 10
123.0
 20
0.0
 30
0.0
 11
123.0
 21
9.900000000000002
 31
0.0
  0
LINE
  8
0
 62
0
 10
3.0
 20
9.900000000000006
 30
0.0
 11
0.0
 21
9.900000000000006
 31
0.0
  0
LINE
  8
0
 62
0
 10
123.0
 20
9.900000000000002
 30
0.0
 11
126.0
 21
9.900000000000002
 31
0.0
  0
LINE
  8
0
 62
0
 10
0.0
 20
9.900000000000006
 30
0.0
 11
0.0
 21
20.100000000000005
 31
0.0
  0
LINE
  8
0
 62
0
 10
126.0
 20
20.1
 30
0.0
 11
126.0
 21
9.900000000000002
 31
0.0
  0
LINE
  8
0
 62
0
 10
3.0
 20
20.100000000000005
 30
0.0
 11
0.0
 21
20.100000000000005
 31
0.0
  0
LINE
  8
0
 62
0
 10
3.0
 20
39.900000000000006
 30
0.0
 11
3.0
 21
20.1
 31
0.0
  0
LINE
  8
0
 62
0
 10
123.0
 20
20.1
 30
0.0
 11
126.0
 21
20.1
 31
0.0
  0
LINE
  8
0
 62
0
 10
123.0
 20
20.1
 30
0.0
 11
123.0
 21
39.900000000000006
 31
0.0
  0
LINE
  8
0
 62
0
 10
3.0
 20
39.9
 30
0.0
 11
0.0
 21
39.9
 31
0.0
  0
LINE
  8
0
 62
0
 10
123.0
 20
39.9
 30
0.0
 11
126.0
 21
39.9
 31
0.0
  0
LINE
  8
0
 62
0
 10
0.0
 20
39.9
 30
0.0
 11
0.0
 21
50.099999999999994
 31
0.0
  0
LINE
  8
0
 62
0
 10
3.0
 20
60.0
 30
0.0
 11
3.0
 21
50.1
 31
0.0
  0
LINE
  8
0
 62
0
 10
7.900000000000006
 20
60.0
 30
0.0
 11
3.0
 21
60.0
 31
0.0
  0
LINE
  8
0
 62
0
 10
3.0
 20
50.1
 30
0.0
 11
0.0
 21
50.1
 31
0.0
  0
LINE
  8
0
 62
0
 10
126.0
 20
50.1
 30
0.0
 11
126.0
 21
39.900000000000006
 31
0.0
  0
LINE
  8
0
 62
0
 10
123.0
 20
50.1
 30
0.0
 11
126.0
 21
50.1
 31
0.0
  0
LINE
  8
0
 62
0
 10
123.0
 20
50.1
 30
0.0
 11
123.0
 21
60.0
 31
0.0
  0
LINE
  8
0
 62
0
 10
123.0
 20
60.0
 30
0.0
 11
118.09999999999998
 21
60.0
 31
0.0
  0
LINE
  8
0
 62
0
 10
7.900000000000015
 20
60.000000000000014
 30
0.0
 11
7.900000000000015
 21
63.000000000000014
 31
0.0
  0
LINE
  8
0
 62
0
 10
118.09999999999998
 20
59.999999999999986
 30
0.0
 11
118.09999999999998
 21
62.999999999999986
 31
0.0
  0
LINE
  8
0
 62
0
 10
7.900000000000015
 20
63.000000000000014
 30
0.0
 11
18.100000000000016
 21
63.000000000000014
 31
0.0
  0
LINE
  8
0
 62
0
 10
27.900000000000006
 20
60.0
 30
0.0
 11
18.10000000000001
 21
60.0
 31
0.0
  0
LINE
  8
0
 62
0
 10
18.100000000000016
 20
60.000000000000014
 30
0.0
 11
18.100000000000016
 21
63.000000000000014
 31
0.0
  0
LINE
  8
0
 62
0
 10
107.89999999999999
 20
62.999999999999986
 30
0.0
 11
118.1
 21
62.999999999999986
 31
0.0
  0
LINE
  8
0
 62
0
 10
107.89999999999999
 20
59.999999999999986
 30
0.0
 11
107.89999999999999
 21
62.999999999999986
 31
0.0
  0
LINE
  8
0
 62
0
 10
107.89999999999999
 20
60.0
 30
0.0
 11
98.09999999999998
 21
60.0
 31
0.0
  0
LINE
  8
0
 62
0
 10
27.900000000000013
 20
60.00000000000001
 30
0.0
 11
27.900000000000013
 21
63.00000000000001
 31
0.0
  0
LINE
  8
0
 62
0
 10
98.09999999999998
 20
59.99999999999999
 30
0.0
 11
98.09999999999998
 21
62.99999999999999
 31
0.0
  0
LINE
  8
0
 62
0
 10
27.900000000000013
 20
63.00000000000001
 30
0.0
 11
38.10000000000001
 21
63.00000000000001
 31
0.0
  0
LINE
  8
0
 62
0
 10
47.900000000000006
 20
60.0
 30
0.0
 11
38.10000000000001
 21
60.0
 31
0.0
  0
LINE
  8
0
 62
0
 10
38.100000000000016
 20
60.00000000000001
 30
0.0
 11
38.100000000000016
 21
63.00000000000001
 31
0.0
  0
LINE
  8
0
 62
0
 10
87.89999999999999
 20
62.99999999999999
 30
0.0
 11
98.1
 21
62.99999999999999
 31
0.0
  0
LINE
  8
0
 62
0
 10
87.89999999999999
 20
59.99999999999999
 30
0.0
 11
87.89999999999999
 21
62.99999999999999
 31
0.0
  0
LINE
  8
0
 62
0
 10
87.89999999999998
 20
60.0
 30
0.0
 11
78.1
 21
60.0
 31
0.0
  0
LINE
  8
0
 62
0
 10
47.9
 20
60.0
 30
0.0
 11
47.9
 21
63.0
 31
0.0
  0
LINE
  8
0
 62
0
 10
78.1
 20
60.0
 30
0.0
 11
78.1
 21
63.0
 31
0.0
  0
LINE
  8
0
 62
0
 10
47.9
 20
63.0
 30
0.0
 11
58.099999999999994
 21
63.0
 31
0.0
  0
LINE
  8
0
 62
0
 10
67.9
 20
60.0
 30
0.0
 11
58.099999999999994
 21
60.0
 31
0.0
  0
LINE
  8
0
 62
0
 10
58.1
 20
60.0
 30
0.0
 11
58.1
 21
63.0
 31
0.0
  0
LINE
  8
0
 62
0
 10
67.9
 20
63.0
 30
0.0
 11
78.10000000000001
 21
63.0
 31
0.0
  0
LINE
  8
0
 62
0
 10
67.9
 20
60.0
 30
0.0
 11
67.9
 21
63.0
 31
0.0
  0
CIRCLE
  8
0
 62
0
 10
33.0
 20
30.000000000000004
 30
0.0
 40
11.0
  0
CIRCLE
  8
0
 62
0
 10
93.0
 20
30.000000000000004
 30
0.0
 40
11.0
  0
LINE
  8
0
 62
0
 10
61.7323119167821
 20
19.900000000000002
 30
0.0
 11
64.26768808321788
 21
19.900000000000002
 31
0.0
  0
ARC
  8
0
 62
0
 10
64.44666666666666
 20
19.796666666666667
 30
0.0
 40
0.20666666666666664
 50
-0.0
 51
150.00000000000006
  0
ARC
  8
0
 62
0
 10
64.44666666666666
 20
19.796666666666667
 30
0.0
 40
0.20666666666666664
 50
-59.999999999998835
 51
-0.0
  0
LINE
  8
0
 62
0
 10
64.54999999999998
 20
10.382311916782118
 30
0.0
 11
64.54999999999998
 21
19.617688083217885
 31
0.0
  0
ARC
  8
0
 62
0
 10
64.44666666666666
 20
10.203333333333333
 30
0.0
 40
0.20666666666666664
 50
-0.0
 51
59.999999999998835
  0
ARC
  8
0
 62
0
 10
64.44666666666666
 20
10.203333333333333
 30
0.0
 40
0.20666666666666664
 50
-150.00000000000094
 51
-0.0
  0
LINE
  8
0
 62
0
 10
61.7323119167821
 20
10.100000000000001
 30
0.0
 11
64.26768808321786
 21
10.100000000000001
 31
0.0
  0
ARC
  8
0
 62
0
 10
61.55333333333332
 20
10.203333333333333
 30
0.0
 40
0.20666666666666664
 50
120.00000000000142
 51
-30.00000000000121
  0
LINE
  8
0
 62
0
 10
61.44999999999999
 20
10.382311916782115
 30
0.0
 11
61.44999999999999
 21
19.617688083217885
 31
0.0
  0
ARC
  8
0
 62
0
 10
61.55333333333332
 20
19.796666666666667
 30
0.0
 40
0.20666666666666664
 50
30.00000000000166
 51
-120.00000000000165
  0
LINE
  8
0
 62
0
 10
61.7323119167821
 20
49.900000000000006
 30
0.0
 11
64.26768808321786
 21
49.900000000000006
 31
0.0
  0
ARC
  8
0
 62
0
 10
64.44666666666666
 20
49.796666666666674
 30
0.0
 40
0.20666666666666664
 50
-0.0
 51
150.00000000000006
  0
ARC
  8
0
 62
0
 10
64.44666666666666
 20
49.796666666666674
 30
0.0
 40
0.20666666666666664
 50
-59.99999999999835
 51
-0.0
  0
LINE
  8
0
 62
0
 10
64.54999999999998
 20
40.38231191678213
 30
0.0
 11
64.54999999999998
 21
49.61768808321789
 31
0.0
  0
ARC
  8
0
 62
0
 10
64.44666666666666
 20
40.20333333333334
 30
0.0
 40
0.20666666666666664
 50
-0.0
 51
59.99999999999835
  0
ARC
  8
0
 62
0
 10
64.44666666666666
 20
40.20333333333334
 30
0.0
 40
0.20666666666666664
 50
-150.00000000000006
 51
-0.0
  0
LINE
  8
0
 62
0
 10
61.7323119167821
 20
40.10000000000001
 30
0.0
 11
64.26768808321788
 21
40.10000000000001
 31
0.0
  0
ARC
  8
0
 62
0
 10
61.55333333333332
 20
40.20333333333334
 30
0.0
 40
0.20666666666666664
 50
120.00000000000165
 51
-30.00000000000166
  0
LINE
  8
0
 62
0
 10
61.44999999999999
 20
40.38231191678212
 30
0.0
 11
61.44999999999999
 21
49.6176880832179
 31
0.0
  0
ARC
  8
0
 62
0
 10
61.55333333333332
 20
49.796666666666674
 30
0.0
 40
0.20666666666666664
 50
30.00000000000166
 51
-120.00000000000165
  0
CIRCLE
  8
0
 62
0
 10
77.5
 20
45.50000000001991
 30
0.0
 40
1.5
  0
CIRCLE
  8
0
 62
0
 10
108.5
 20
45.50000000001991
 30
0.0
 40
1.5
  0
CIRCLE
  8
0
 62
0
 10
108.5
 20
14.500000000019906
 30
0.0
 40
1.5
  0
CIRCLE
  8
0
 62
0
 10
77.5
 20
14.500000000019906
 30
0.0
 40
1.5
  0
CIRCLE
  8
0
 62
0
 10
17.5
 20
45.50000000001991
 30
0.0
 40
1.5
  0
CIRCLE
  8
0
 62
0
 10
48.5
 20
45.50000000001991
 30
0.0
 40
1.5
  0
CIRCLE
  8
0
 62
0
 10
17.5
 20
14.500000000019906
 30
0.0
 40
1.5
  0
CIRCLE
  8
0
 62
0
 10
48.5
 20
14.500000000019906
 30
0.0
 40
1.5
  0
ENDBLK
  0
BLOCK
  8
0
  2
SHAPE2DVIEW004
 70
0
 10
0.0
 20
0.0
 30
0.0
  3
SHAPE2DVIEW004
  0
LINE
  8
0
 62
0
 10
58.00000000000007
 20
223.98404264140044
 30
0.0
 11
38.00000000000007
 21
223.98404264140046
 31
0.0
  0
ARC
  8
0
 62
0
 10
58.00000000000007
 20
218.98404264140044
 30
0.0
 40
5.0
 50
-0.0
 51
90.0
  0
ARC
  8
0
 62
0
 10
38.00000000000005
 20
233.98404264140046
 30
0.0
 40
10.0
 50
-180.0
 51
-90.0
  0
LINE
  8
0
 62
0
 10
63.00000000000008
 20
213.98404264140044
 30
0.0
 11
63.00000000000008
 21
218.98404264140044
 31
0.0
  0
LINE
  8
0
 62
0
 10
28.000000000000043
 20
233.9840426414005
 30
0.0
 11
28.000000000000043
 21
253.9840426414005
 31
0.0
  0
ARC
  8
0
 62
0
 10
58.00000000000007
 20
213.98404264140044
 30
0.0
 40
5.0
 50
-55.00797980144139
 51
-0.0
  0
ARC
  8
0
 62
0
 10
23.00000000000004
 20
253.9840426414005
 30
0.0
 40
5.0
 50
-0.0
 51
90.0
  0
LINE
  8
0
 62
0
 10
10.86731172181667
 20
174.88788303880523
 30
0.0
 11
60.86731172181669
 21
209.8878830388052
 31
0.0
  0
LINE
  8
0
 62
0
 10
23.00000000000004
 20
258.9840426414005
 30
0.0
 11
3.000000000000039
 21
258.9840426414005
 31
0.0
  0
ARC
  8
0
 62
0
 10
8.000000000000028
 20
178.98404264140044
 30
0.0
 40
5.0
 50
-90.0
 51
-55.007979801441394
  0
LINE
  8
0
 62
0
 10
3.0000000000000213
 20
258.9840426414005
 30
0.0
 11
3.0000000000000213
 21
253.45904264140046
 31
0.0
  0
LINE
  8
0
 62
0
 10
3.0000000000000213
 20
173.98404264140044
 30
0.0
 11
8.000000000000021
 21
173.98404264140044
 31
0.0
  0
LINE
  8
0
 62
0
 10
3.0000000000000213
 20
179.50904264140038
 30
0.0
 11
3.0000000000000213
 21
173.9840426414005
 31
0.0
  0
LINE
  8
0
 62
0
 10
3.000000000000002
 20
253.4590426414005
 30
0.0
 11
2.220446049250313e-15
 21
253.4590426414005
 31
0.0
  0
LINE
  8
0
 62
0
 10
6.661338147750939e-15
 20
243.2590426414005
 30
0.0
 11
2.173338147750938e-15
 21
253.4590426414005
 31
0.0
  0
LINE
  8
0
 62
0
 10
3.0000000000000067
 20
243.2590426414005
 30
0.0
 11
6.661338147750939e-15
 21
243.2590426414005
 31
0.0
  0
LINE
  8
0
 62
0
 10
3.0000000000000213
 20
243.25904264140047
 30
0.0
 11
3.0000000000000213
 21
232.20904264140043
 31
0.0
  0
LINE
  8
0
 62
0
 10
3.0000000000000466
 20
179.50904264140044
 30
0.0
 11
4.6629367034256575e-14
 21
179.50904264140044
 31
0.0
  0
LINE
  8
0
 62
0
 10
3.000000000000015
 20
232.20904264140046
 30
0.0
 11
1.509903313490213e-14
 21
232.20904264140046
 31
0.0
  0
LINE
  8
0
 62
0
 10
4.6629367034256575e-14
 20
179.50904264140044
 30
0.0
 11
4.214136703425657e-14
 21
189.70904264140043
 31
0.0
  0
LINE
  8
0
 62
0
 10
3.0000000000000213
 20
200.7590426414004
 30
0.0
 11
3.0000000000000213
 21
189.70904264140037
 31
0.0
  0
LINE
  8
0
 62
0
 10
3.000000000000042
 20
189.70904264140043
 30
0.0
 11
4.218847493575595e-14
 21
189.70904264140043
 31
0.0
  0
LINE
  8
0
 62
0
 10
1.9539925233402755e-14
 20
222.00904264140047
 30
0.0
 11
1.5051925233402753e-14
 21
232.20904264140046
 31
0.0
  0
LINE
  8
0
 62
0
 10
3.0000000000000195
 20
222.00904264140047
 30
0.0
 11
1.9539925233402755e-14
 21
222.00904264140047
 31
0.0
  0
LINE
  8
0
 62
0
 10
3.0000000000000213
 20
222.0090426414004
 30
0.0
 11
3.0000000000000213
 21
210.9590426414004
 31
0.0
  0
LINE
  8
0
 62
0
 10
3.0000000000000338
 20
200.75904264140047
 30
0.0
 11
3.375077994860476e-14
 21
200.75904264140047
 31
0.0
  0
LINE
  8
0
 62
0
 10
3.0000000000000293
 20
210.95904264140046
 30
0.0
 11
2.930988785010413e-14
 21
210.95904264140046
 31
0.0
  0
LINE
  8
0
 62
0
 10
3.375077994860476e-14
 20
200.75904264140047
 30
0.0
 11
2.926277994860476e-14
 21
210.95904264140046
 31
0.0
  0
LINE
  8
0
 62
0
 10
16.500000000000043
 20
231.23455364579587
 30
0.0
 11
16.500000000000046
 21
251.23455364579587
 31
0.0
  0
ARC
  8
0
 62
0
 10
18.000000000000046
 20
251.23455364579587
 30
0.0
 40
1.5000000000000007
 50
-0.0
 51
-180.0
  0
LINE
  8
0
 62
0
 10
19.500000000000043
 20
231.23455364579587
 30
0.0
 11
19.500000000000046
 21
251.23455364579587
 31
0.0
  0
ARC
  8
0
 62
0
 10
18.000000000000043
 20
231.23455364579584
 30
0.0
 40
1.5000000000000007
 50
-180.0
 51
-0.0
  0
ARC
  8
0
 62
0
 10
43.20333333333338
 20
216.03737597473383
 30
0.0
 40
0.20666666666666664
 50
119.99999999999994
 51
-90.0
  0
LINE
  8
0
 62
0
 10
43.10000000000005
 20
218.75173072461837
 30
0.0
 11
43.10000000000005
 21
216.2163545581826
 31
0.0
  0
ARC
  8
0
 62
0
 10
43.20333333333338
 20
218.93070930806715
 30
0.0
 40
0.20666666666666664
 50
29.999999999998234
 51
-120.00000000000165
  0
LINE
  8
0
 62
0
 10
52.617688083217935
 20
219.0340426414005
 30
0.0
 11
43.382311916782164
 21
219.0340426414005
 31
0.0
  0
ARC
  8
0
 62
0
 10
52.79666666666672
 20
218.93070930806718
 30
0.0
 40
0.20666666666666664
 50
-59.99999999999835
 51
150.00000000000176
  0
LINE
  8
0
 62
0
 10
52.90000000000005
 20
218.7517307246184
 30
0.0
 11
52.90000000000005
 21
216.21635455818262
 31
0.0
  0
ARC
  8
0
 62
0
 10
52.79666666666672
 20
216.03737597473383
 30
0.0
 40
0.20666666666666664
 50
-90.0
 51
60.00000000000006
  0
ARC
  8
0
 62
0
 10
52.79666666666672
 20
216.03737597473383
 30
0.0
 40
0.20666666666666664
 50
-150.00000000000176
 51
-90.0
  0
LINE
  8
0
 62
0
 10
52.61768808321793
 20
215.93404264140048
 30
0.0
 11
43.382311916782164
 21
215.93404264140048
 31
0.0
  0
ARC
  8
0
 62
0
 10
43.20333333333338
 20
216.03737597473383
 30
0.0
 40
0.20666666666666664
 50
-90.0
 51
-29.999999999998234
  0
ARC
  8
0
 62
0
 10
13.203333333333383
 20
216.0373759747338
 30
0.0
 40
0.20666666666666664
 50
119.99999999999994
 51
-90.0
  0
LINE
  8
0
 62
0
 10
13.100000000000048
 20
218.75173072461837
 30
0.0
 11
13.10000000000005
 21
216.2163545581826
 31
0.0
  0
ARC
  8
0
 62
0
 10
13.203333333333383
 20
218.93070930806715
 30
0.0
 40
0.20666666666666664
 50
29.999999999997993
 51
-120.00000000000124
  0
LINE
  8
0
 62
0
 10
22.617688083217935
 20
219.0340426414005
 30
0.0
 11
13.382311916782163
 21
219.0340426414005
 31
0.0
  0
ARC
  8
0
 62
0
 10
22.796666666666717
 20
218.93070930806715
 30
0.0
 40
0.20666666666666664
 50
-59.99999999999835
 51
150.00000000000176
  0
LINE
  8
0
 62
0
 10
22.90000000000005
 20
218.7517307246184
 30
0.0
 11
22.90000000000005
 21
216.21635455818262
 31
0.0
  0
ARC
  8
0
 62
0
 10
22.796666666666717
 20
216.0373759747338
 30
0.0
 40
0.20666666666666664
 50
-90.0
 51
60.00000000000006
  0
ARC
  8
0
 62
0
 10
22.796666666666717
 20
216.0373759747338
 30
0.0
 40
0.20666666666666664
 50
-150.00000000000227
 51
-90.0
  0
LINE
  8
0
 62
0
 10
22.617688083217928
 20
215.93404264140048
 30
0.0
 11
13.382311916782166
 21
215.93404264140048
 31
0.0
  0
ARC
  8
0
 62
0
 10
13.203333333333383
 20
216.0373759747338
 30
0.0
 40
0.20666666666666664
 50
-90.0
 51
-29.99999999999774
  0
ENDBLK
  0
BLOCK
  8
0
  2
SHAPE2DVIEW005
 70
0
 10
0.0
 20
0.0
 30
0.0
  3
SHAPE2DVIEW005
  0
LINE
  8
0
 62
0
 10
131.0000000000001
 20
223.98404264140044
 30
0.0
 11
111.00000000000011
 21
223.98404264140046
 31
0.0
  0
ARC
  8
0
 62
0
 10
131.0000000000001
 20
218.98404264140044
 30
0.0
 40
5.0
 50
-0.0
 51
90.0
  0
ARC
  8
0
 62
0
 10
111.0000000000001
 20
233.98404264140046
 30
0.0
 40
10.0
 50
-180.0
 51
-90.0
  0
LINE
  8
0
 62
0
 10
136.0000000000001
 20
213.98404264140044
 30
0.0
 11
136.0000000000001
 21
218.98404264140044
 31
0.0
  0
LINE
  8
0
 62
0
 10
101.0000000000001
 20
233.9840426414005
 30
0.0
 11
101.0000000000001
 21
253.9840426414005
 31
0.0
  0
ARC
  8
0
 62
0
 10
131.0000000000001
 20
213.98404264140044
 30
0.0
 40
5.0
 50
-55.00797980144145
 51
-0.0
  0
ARC
  8
0
 62
0
 10
96.00000000000009
 20
253.9840426414005
 30
0.0
 40
5.0
 50
-0.0
 51
90.0
  0
LINE
  8
0
 62
0
 10
83.86731172181672
 20
174.88788303880523
 30
0.0
 11
133.86731172181675
 21
209.8878830388052
 31
0.0
  0
LINE
  8
0
 62
0
 10
96.00000000000009
 20
258.9840426414005
 30
0.0
 11
76.00000000000009
 21
258.9840426414005
 31
0.0
  0
ARC
  8
0
 62
0
 10
81.00000000000009
 20
178.98404264140044
 30
0.0
 40
5.0
 50
-90.0
 51
-55.00797980144145
  0
LINE
  8
0
 62
0
 10
76.00000000000007
 20
258.9840426414005
 30
0.0
 11
76.00000000000007
 21
253.45904264140046
 31
0.0
  0
LINE
  8
0
 62
0
 10
76.00000000000007
 20
173.98404264140044
 30
0.0
 11
81.00000000000007
 21
173.98404264140044
 31
0.0
  0
LINE
  8
0
 62
0
 10
76.00000000000007
 20
179.50904264140038
 30
0.0
 11
76.00000000000007
 21
173.9840426414005
 31
0.0
  0
LINE
  8
0
 62
0
 10
76.00000000000006
 20
253.4590426414005
 30
0.0
 11
73.00000000000006
 21
253.4590426414005
 31
0.0
  0
LINE
  8
0
 62
0
 10
73.00000000000006
 20
243.2590426414005
 30
0.0
 11
73.00000000000006
 21
253.4590426414005
 31
0.0
  0
LINE
  8
0
 62
0
 10
76.00000000000006
 20
243.2590426414005
 30
0.0
 11
73.00000000000006
 21
243.2590426414005
 31
0.0
  0
LINE
  8
0
 62
0
 10
76.00000000000007
 20
243.25904264140047
 30
0.0
 11
76.00000000000007
 21
232.20904264140043
 31
0.0
  0
LINE
  8
0
 62
0
 10
76.00000000000011
 20
179.50904264140044
 30
0.0
 11
73.00000000000011
 21
179.50904264140044
 31
0.0
  0
LINE
  8
0
 62
0
 10
76.00000000000009
 20
232.20904264140046
 30
0.0
 11
73.00000000000009
 21
232.20904264140046
 31
0.0
  0
LINE
  8
0
 62
0
 10
73.00000000000011
 20
179.50904264140044
 30
0.0
 11
73.00000000000011
 21
189.70904264140043
 31
0.0
  0
LINE
  8
0
 62
0
 10
76.00000000000007
 20
200.7590426414004
 30
0.0
 11
76.00000000000007
 21
189.70904264140037
 31
0.0
  0
LINE
  8
0
 62
0
 10
76.00000000000011
 20
189.70904264140043
 30
0.0
 11
73.00000000000011
 21
189.70904264140043
 31
0.0
  0
LINE
  8
0
 62
0
 10
73.00000000000009
 20
222.00904264140047
 30
0.0
 11
73.00000000000009
 21
232.20904264140046
 31
0.0
  0
LINE
  8
0
 62
0
 10
76.00000000000009
 20
222.00904264140047
 30
0.0
 11
73.00000000000009
 21
222.00904264140047
 31
0.0
  0
LINE
  8
0
 62
0
 10
76.00000000000007
 20
222.0090426414004
 30
0.0
 11
76.00000000000007
 21
210.9590426414004
 31
0.0
  0
LINE
  8
0
 62
0
 10
76.00000000000009
 20
200.75904264140047
 30
0.0
 11
73.00000000000009
 21
200.75904264140047
 31
0.0
  0
LINE
  8
0
 62
0
 10
76.00000000000009
 20
210.95904264140046
 30
0.0
 11
73.00000000000009
 21
210.95904264140046
 31
0.0
  0
LINE
  8
0
 62
0
 10
73.00000000000009
 20
200.75904264140047
 30
0.0
 11
73.00000000000009
 21
210.95904264140046
 31
0.0
  0
LINE
  8
0
 62
0
 10
89.50000000000009
 20
231.23455364579587
 30
0.0
 11
89.50000000000009
 21
251.23455364579587
 31
0.0
  0
ARC
  8
0
 62
0
 10
91.0000000000001
 20
251.23455364579587
 30
0.0
 40
1.5000000000000007
 50
-0.0
 51
-180.0
  0
LINE
  8
0
 62
0
 10
92.5000000000001
 20
231.23455364579587
 30
0.0
 11
92.5000000000001
 21
251.23455364579587
 31
0.0
  0
ARC
  8
0
 62
0
 10
91.0000000000001
 20
231.23455364579584
 30
0.0
 40
1.5000000000000007
 50
-180.0
 51
-0.0
  0
LINE
  8
0
 62
0
 10
125.90000000000012
 20
218.75173072461834
 30
0.0
 11
125.90000000000012
 21
216.21635455818256
 31
0.0
  0
ARC
  8
0
 62
0
 10
125.79666666666678
 20
216.03737597473378
 30
0.0
 40
0.20666666666666664
 50
-90.0
 51
60.00000000000176
  0
ARC
  8
0
 62
0
 10
125.79666666666678
 20
216.03737597473378
 30
0.0
 40
0.20666666666666664
 50
-150.00000000000176
 51
-90.0
  0
LINE
  8
0
 62
0
 10
116.38231191678223
 20
215.93404264140042
 30
0.0
 11
125.61768808321798
 21
215.93404264140042
 31
0.0
  0
ARC
  8
0
 62
0
 10
116.20333333333345
 20
216.03737597473378
 30
0.0
 40
0.20666666666666664
 50
-90.0
 51
-29.999999999998234
  0
ARC
  8
0
 62
0
 10
116.20333333333345
 20
216.03737597473378
 30
0.0
 40
0.20666666666666664
 50
119.99999999999824
 51
-90.0
  0
LINE
  8
0
 62
0
 10
116.10000000000011
 20
218.75173072461834
 30
0.0
 11
116.10000000000011
 21
216.21635455818256
 31
0.0
  0
ARC
  8
0
 62
0
 10
116.20333333333345
 20
218.9307093080671
 30
0.0
 40
0.20666666666666664
 50
29.999999999998234
 51
-120.00000000000165
  0
LINE
  8
0
 62
0
 10
116.38231191678223
 20
219.03404264140045
 30
0.0
 11
125.617688083218
 21
219.03404264140045
 31
0.0
  0
ARC
  8
0
 62
0
 10
125.79666666666678
 20
218.93070930806712
 30
0.0
 40
0.20666666666666664
 50
-59.99999999999835
 51
150.00000000000176
  0
LINE
  8
0
 62
0
 10
95.90000000000012
 20
218.75173072461834
 30
0.0
 11
95.90000000000012
 21
216.21635455818256
 31
0.0
  0
ARC
  8
0
 62
0
 10
95.79666666666678
 20
216.03737597473378
 30
0.0
 40
0.20666666666666664
 50
-90.0
 51
60.00000000000176
  0
ARC
  8
0
 62
0
 10
95.79666666666678
 20
216.03737597473378
 30
0.0
 40
0.20666666666666664
 50
-150.00000000000176
 51
-90.0
  0
LINE
  8
0
 62
0
 10
86.38231191678223
 20
215.93404264140042
 30
0.0
 11
95.61768808321798
 21
215.93404264140042
 31
0.0
  0
ARC
  8
0
 62
0
 10
86.20333333333345
 20
216.03737597473375
 30
0.0
 40
0.20666666666666664
 50
-90.0
 51
-29.999999999998234
  0
ARC
  8
0
 62
0
 10
86.20333333333345
 20
216.03737597473375
 30
0.0
 40
0.20666666666666664
 50
119.99999999999824
 51
-90.0
  0
LINE
  8
0
 62
0
 10
86.10000000000011
 20
218.75173072461834
 30
0.0
 11
86.10000000000011
 21
216.21635455818256
 31
0.0
  0
ARC
  8
0
 62
0
 10
86.20333333333345
 20
218.9307093080671
 30
0.0
 40
0.20666666666666664
 50
29.999999999998234
 51
-120.00000000000165
  0
LINE
  8
0
 62
0
 10
86.38231191678221
 20
219.03404264140045
 30
0.0
 11
95.617688083218
 21
219.03404264140045
 31
0.0
  0
ARC
  8
0
 62
0
 10
95.79666666666678
 20
218.9307093080671
 30
0.0
 40
0.20666666666666664
 50
-59.99999999999835
 51
150.00000000000176
  0
ENDBLK
  0
BLOCK
  8
0
  2
SHAPE2DVIEW001
 70
0
 10
0.0
 20
0.0
 30
0.0
  3
SHAPE2DVIEW001
  0
LINE
  8
0
 62
0
 10
268.0
 20
91.0
 30
0.0
 11
259.4
 21
91.0
 31
0.0
  0
LINE
  8
0
 62
0
 10
268.0
 20
0.0
 30
0.0
 11
268.0
 21
91.0
 31
0.0
  0
LINE
  8
0
 62
0
 10
136.0
 20
0.0
 30
0.0
 11
268.0
 21
0.0
 31
0.0
  0
LINE
  8
0
 62
0
 10
136.0
 20
91.0
 30
0.0
 11
136.0
 21
0.0
 31
0.0
  0
LINE
  8
0
 62
0
 10
144.6
 20
91.0
 30
0.0
 11
136.0
 21
91.0
 31
0.0
  0
LINE
  8
0
 62
0
 10
144.6
 20
90.99999999999997
 30
0.0
 11
144.6
 21
88.2414187528073
 31
0.0
  0
ARC
  8
0
 62
0
 10
144.70666666666665
 20
88.05666666666663
 30
0.0
 40
0.21333333333333332
 50
119.99999999999778
 51
-90.0
  0
ARC
  8
0
 62
0
 10
144.70666666666665
 20
88.05666666666663
 30
0.0
 40
0.21333333333333332
 50
-90.0
 51
-29.99999999999919
  0
LINE
  8
0
 62
0
 10
154.10858124719266
 20
87.94999999999997
 30
0.0
 11
144.89141875280734
 21
87.94999999999997
 31
0.0
  0
ARC
  8
0
 62
0
 10
154.29333333333332
 20
88.05666666666663
 30
0.0
 40
0.21333333333333332
 50
-150.00000000000082
 51
-90.0
  0
ARC
  8
0
 62
0
 10
154.29333333333332
 20
88.05666666666663
 30
0.0
 40
0.21333333333333332
 50
-90.0
 51
59.99999999999561
  0
LINE
  8
0
 62
0
 10
154.4
 20
90.99999999999997
 30
0.0
 11
154.4
 21
88.2414187528073
 31
0.0
  0
LINE
  8
0
 62
0
 10
165.6
 20
91.0
 30
0.0
 11
154.4
 21
91.0
 31
0.0
  0
LINE
  8
0
 62
0
 10
165.6
 20
90.99999999999999
 30
0.0
 11
165.6
 21
88.2414187528073
 31
0.0
  0
ARC
  8
0
 62
0
 10
165.70666666666665
 20
88.05666666666663
 30
0.0
 40
0.21333333333333332
 50
119.99999999999778
 51
-90.0
  0
ARC
  8
0
 62
0
 10
165.70666666666665
 20
88.05666666666663
 30
0.0
 40
0.21333333333333332
 50
-90.0
 51
-29.99999999999919
  0
LINE
  8
0
 62
0
 10
175.10858124719266
 20
87.94999999999997
 30
0.0
 11
165.89141875280734
 21
87.94999999999997
 31
0.0
  0
ARC
  8
0
 62
0
 10
175.29333333333332
 20
88.05666666666663
 30
0.0
 40
0.21333333333333332
 50
-150.00000000000082
 51
-90.0
  0
ARC
  8
0
 62
0
 10
175.29333333333332
 20
88.05666666666663
 30
0.0
 40
0.21333333333333332
 50
-90.0
 51
59.99999999999561
  0
LINE
  8
0
 62
0
 10
175.4
 20
90.99999999999999
 30
0.0
 11
175.4
 21
88.2414187528073
 31
0.0
  0
LINE
  8
0
 62
0
 10
186.6
 20
91.0
 30
0.0
 11
175.4
 21
91.0
 31
0.0
  0
LINE
  8
0
 62
0
 10
186.6
 20
90.99999999999999
 30
0.0
 11
186.6
 21
88.2414187528073
 31
0.0
  0
ARC
  8
0
 62
0
 10
186.70666666666668
 20
88.05666666666663
 30
0.0
 40
0.21333333333333332
 50
120.00000000000439
 51
-90.0
  0
ARC
  8
0
 62
0
 10
186.70666666666668
 20
88.05666666666663
 30
0.0
 40
0.21333333333333332
 50
-90.0
 51
-29.99999999999919
  0
LINE
  8
0
 62
0
 10
196.10858124719266
 20
87.94999999999997
 30
0.0
 11
186.89141875280737
 21
87.94999999999997
 31
0.0
  0
ARC
  8
0
 62
0
 10
196.29333333333332
 20
88.05666666666663
 30
0.0
 40
0.21333333333333332
 50
-150.00000000000082
 51
-90.0
  0
ARC
  8
0
 62
0
 10
196.29333333333332
 20
88.05666666666663
 30
0.0
 40
0.21333333333333332
 50
-90.0
 51
59.99999999999561
  0
LINE
  8
0
 62
0
 10
196.4
 20
90.99999999999999
 30
0.0
 11
196.4
 21
88.2414187528073
 31
0.0
  0
LINE
  8
0
 62
0
 10
207.6
 20
91.0
 30
0.0
 11
196.4
 21
91.0
 31
0.0
  0
LINE
  8
0
 62
0
 10
207.6
 20
90.99999999999999
 30
0.0
 11
207.6
 21
88.2414187528073
 31
0.0
  0
ARC
  8
0
 62
0
 10
207.70666666666668
 20
88.05666666666663
 30
0.0
 40
0.21333333333333332
 50
120.00000000000439
 51
-90.0
  0
ARC
  8
0
 62
0
 10
207.70666666666668
 20
88.05666666666663
 30
0.0
 40
0.21333333333333332
 50
-90.0
 51
-29.99999999999919
  0
LINE
  8
0
 62
0
 10
217.10858124719266
 20
87.94999999999997
 30
0.0
 11
207.89141875280737
 21
87.94999999999997
 31
0.0
  0
ARC
  8
0
 62
0
 10
217.29333333333332
 20
88.05666666666663
 30
0.0
 40
0.21333333333333332
 50
-150.00000000000082
 51
-90.0
  0
ARC
  8
0
 62
0
 10
217.29333333333332
 20
88.05666666666663
 30
0.0
 40
0.21333333333333332
 50
-90.0
 51
59.99999999999561
  0
LINE
  8
0
 62
0
 10
217.4
 20
90.99999999999999
 30
0.0
 11
217.4
 21
88.2414187528073
 31
0.0
  0
LINE
  8
0
 62
0
 10
228.6
 20
91.0
 30
0.0
 11
217.4
 21
91.0
 31
0.0
  0
LINE
  8
0
 62
0
 10
228.6
 20
91.0
 30
0.0
 11
228.6
 21
88.2414187528073
 31
0.0
  0
ARC
  8
0
 62
0
 10
228.70666666666665
 20
88.05666666666663
 30
0.0
 40
0.21333333333333332
 50
120.00000000000439
 51
-90.0
  0
ARC
  8
0
 62
0
 10
228.70666666666665
 20
88.05666666666663
 30
0.0
 40
0.21333333333333332
 50
-90.0
 51
-29.99999999999919
  0
LINE
  8
0
 62
0
 10
238.10858124719266
 20
87.94999999999997
 30
0.0
 11
228.89141875280734
 21
87.94999999999997
 31
0.0
  0
ARC
  8
0
 62
0
 10
238.29333333333332
 20
88.05666666666663
 30
0.0
 40
0.21333333333333332
 50
-150.00000000000082
 51
-90.0
  0
ARC
  8
0
 62
0
 10
238.29333333333332
 20
88.05666666666663
 30
0.0
 40
0.21333333333333332
 50
-90.0
 51
59.99999999999561
  0
LINE
  8
0
 62
0
 10
238.4
 20
91.0
 30
0.0
 11
238.4
 21
88.2414187528073
 31
0.0
  0
LINE
  8
0
 62
0
 10
249.6
 20
91.0
 30
0.0
 11
238.4
 21
91.0
 31
0.0
  0
LINE
  8
0
 62
0
 10
249.6
 20
91.0
 30
0.0
 11
249.6
 21
88.2414187528073
 31
0.0
  0
ARC
  8
0
 62
0
 10
249.70666666666665
 20
88.05666666666663
 30
0.0
 40
0.21333333333333332
 50
119.99999999999778
 51
-90.0
  0
ARC
  8
0
 62
0
 10
249.70666666666665
 20
88.05666666666663
 30
0.0
 40
0.21333333333333332
 50
-90.0
 51
-29.99999999999919
  0
LINE
  8
0
 62
0
 10
259.1085812471926
 20
87.94999999999997
 30
0.0
 11
249.89141875280734
 21
87.94999999999997
 31
0.0
  0
ARC
  8
0
 62
0
 10
259.29333333333335
 20
88.05666666666663
 30
0.0
 40
0.21333333333333332
 50
-150.00000000000082
 51
-90.0
  0
ARC
  8
0
 62
0
 10
259.29333333333335
 20
88.05666666666663
 30
0.0
 40
0.21333333333333332
 50
-90.0
 51
59.99999999999561
  0
LINE
  8
0
 62
0
 10
259.4
 20
91.0
 30
0.0
 11
259.4
 21
88.2414187528073
 31
0.0
  0
ARC
  8
0
 62
0
 10
262.0533333333333
 20
60.92166666666665
 30
0.0
 40
0.20666666666666664
 50
29.99999999999994
 51
-180.0
  0
ARC
  8
0
 62
0
 10
262.0533333333333
 20
60.92166666666665
 30
0.0
 40
0.20666666666666664
 50
-180.0
 51
-120.00000000000506
  0
LINE
  8
0
 62
0
 10
261.94999999999993
 20
51.50731191678211
 30
0.0
 11
261.94999999999993
 21
60.74268808321787
 31
0.0
  0
ARC
  8
0
 62
0
 10
262.0533333333333
 20
51.32833333333332
 30
0.0
 40
0.20666666666666664
 50
120.00000000000506
 51
-180.0
  0
ARC
  8
0
 62
0
 10
262.0533333333333
 20
51.32833333333332
 30
0.0
 40
0.20666666666666664
 50
-180.0
 51
-29.99999999999994
  0
LINE
  8
0
 62
0
 10
264.7676880832178
 20
51.22499999999999
 30
0.0
 11
262.23231191678207
 21
51.22499999999999
 31
0.0
  0
ARC
  8
0
 62
0
 10
264.9466666666666
 20
51.32833333333332
 30
0.0
 40
0.20666666666666664
 50
-150.00000000000176
 51
59.99999999999495
  0
LINE
  8
0
 62
0
 10
265.04999999999995
 20
51.5073119167821
 30
0.0
 11
265.04999999999995
 21
60.74268808321787
 31
0.0
  0
ARC
  8
0
 62
0
 10
264.9466666666666
 20
60.92166666666665
 30
0.0
 40
0.20666666666666664
 50
-59.99999999999495
 51
149.99999999999835
  0
LINE
  8
0
 62
0
 10
264.7676880832178
 20
61.02499999999999
 30
0.0
 11
262.23231191678207
 21
61.02499999999999
 31
0.0
  0
ARC
  8
0
 62
0
 10
262.0533333333333
 20
39.67166666666663
 30
0.0
 40
0.20666666666666664
 50
29.99999999999994
 51
-180.0
  0
ARC
  8
0
 62
0
 10
262.0533333333333
 20
39.67166666666663
 30
0.0
 40
0.20666666666666664
 50
-180.0
 51
-120.00000000000506
  0
LINE
  8
0
 62
0
 10
261.94999999999993
 20
30.257311916782083
 30
0.0
 11
261.94999999999993
 21
39.49268808321784
 31
0.0
  0
ARC
  8
0
 62
0
 10
262.0533333333333
 20
30.078333333333298
 30
0.0
 40
0.20666666666666664
 50
120.00000000000458
 51
-180.0
  0
ARC
  8
0
 62
0
 10
262.0533333333333
 20
30.078333333333298
 30
0.0
 40
0.20666666666666664
 50
-180.0
 51
-29.99999999999994
  0
LINE
  8
0
 62
0
 10
264.7676880832178
 20
29.974999999999962
 30
0.0
 11
262.23231191678207
 21
29.974999999999962
 31
0.0
  0
ARC
  8
0
 62
0
 10
264.9466666666666
 20
30.078333333333298
 30
0.0
 40
0.20666666666666664
 50
-149.99999999999835
 51
59.99999999999495
  0
LINE
  8
0
 62
0
 10
265.04999999999995
 20
30.257311916782076
 30
0.0
 11
265.04999999999995
 21
39.49268808321784
 31
0.0
  0
ARC
  8
0
 62
0
 10
264.9466666666666
 20
39.67166666666663
 30
0.0
 40
0.20666666666666664
 50
-59.99999999999495
 51
149.99999999999835
  0
LINE
  8
0
 62
0
 10
264.7676880832178
 20
39.77499999999996
 30
0.0
 11
262.23231191678207
 21
39.77499999999996
 31
0.0
  0
ARC
  8
0
 62
0
 10
262.0533333333333
 20
18.42166666666661
 30
0.0
 40
0.20666666666666664
 50
29.999999999999087
 51
-180.0
  0
ARC
  8
0
 62
0
 10
262.0533333333333
 20
18.42166666666661
 30
0.0
 40
0.20666666666666664
 50
-180.0
 51
-120.00000000000458
  0
LINE
  8
0
 62
0
 10
261.94999999999993
 20
9.007311916782061
 30
0.0
 11
261.94999999999993
 21
18.242688083217825
 31
0.0
  0
ARC
  8
0
 62
0
 10
262.0533333333333
 20
8.828333333333276
 30
0.0
 40
0.20666666666666664
 50
120.00000000000458
 51
-180.0
  0
ARC
  8
0
 62
0
 10
262.0533333333333
 20
8.828333333333276
 30
0.0
 40
0.20666666666666664
 50
-180.0
 51
-29.99999999999994
  0
LINE
  8
0
 62
0
 10
264.7676880832178
 20
8.724999999999941
 30
0.0
 11
262.23231191678207
 21
8.724999999999941
 31
0.0
  0
ARC
  8
0
 62
0
 10
264.9466666666666
 20
8.828333333333276
 30
0.0
 40
0.20666666666666664
 50
-149.99999999999963
 51
59.99999999999519
  0
LINE
  8
0
 62
0
 10
265.04999999999995
 20
9.007311916782054
 30
0.0
 11
265.04999999999995
 21
18.24268808321783
 31
0.0
  0
ARC
  8
0
 62
0
 10
264.9466666666666
 20
18.42166666666661
 30
0.0
 40
0.20666666666666664
 50
-59.99999999999495
 51
150.00000000000176
  0
LINE
  8
0
 62
0
 10
264.7676880832178
 20
18.52499999999994
 30
0.0
 11
262.23231191678207
 21
18.52499999999994
 31
0.0
  0
ARC
  8
0
 62
0
 10
207.20333333333332
 20
45.053333333333306
 30
0.0
 40
0.20666666666666664
 50
119.99999999999824
 51
-90.0
  0
ARC
  8
0
 62
0
 10
207.20333333333332
 20
45.053333333333306
 30
0.0
 40
0.20666666666666664
 50
-90.0
 51
-29.99999999999994
  0
LINE
  8
0
 62
0
 10
216.6176880832179
 20
44.949999999999974
 30
0.0
 11
207.38231191678213
 21
44.949999999999974
 31
0.0
  0
ARC
  8
0
 62
0
 10
216.79666666666668
 20
45.053333333333306
 30
0.0
 40
0.20666666666666664
 50
-150.00000000000006
 51
-90.0
  0
ARC
  8
0
 62
0
 10
216.79666666666668
 20
45.053333333333306
 30
0.0
 40
0.20666666666666664
 50
-90.0
 51
60.00000000000176
  0
LINE
  8
0
 62
0
 10
216.9
 20
47.76768808321786
 30
0.0
 11
216.9
 21
45.232311916782095
 31
0.0
  0
ARC
  8
0
 62
0
 10
216.79666666666668
 20
47.946666666666644
 30
0.0
 40
0.20666666666666664
 50
-59.99999999999495
 51
149.99999999999835
  0
LINE
  8
0
 62
0
 10
216.6176880832179
 20
48.049999999999976
 30
0.0
 11
207.38231191678213
 21
48.049999999999976
 31
0.0
  0
ARC
  8
0
 62
0
 10
207.20333333333332
 20
47.946666666666644
 30
0.0
 40
0.20666666666666664
 50
29.99999999999994
 51
-120.00000000000506
  0
LINE
  8
0
 62
0
 10
207.1
 20
47.76768808321786
 30
0.0
 11
207.1
 21
45.232311916782095
 31
0.0
  0
ARC
  8
0
 62
0
 10
227.20333333333332
 20
45.053333333333306
 30
0.0
 40
0.20666666666666664
 50
119.99999999999727
 51
-90.0
  0
ARC
  8
0
 62
0
 10
227.20333333333332
 20
45.053333333333306
 30
0.0
 40
0.20666666666666664
 50
-90.0
 51
-29.99999999999994
  0
LINE
  8
0
 62
0
 10
236.6176880832179
 20
44.949999999999974
 30
0.0
 11
227.38231191678213
 21
44.949999999999974
 31
0.0
  0
ARC
  8
0
 62
0
 10
236.79666666666668
 20
45.053333333333306
 30
0.0
 40
0.20666666666666664
 50
-150.00000000000006
 51
-90.0
  0
ARC
  8
0
 62
0
 10
236.79666666666668
 20
45.053333333333306
 30
0.0
 40
0.20666666666666664
 50
-90.0
 51
60.00000000000274
  0
LINE
  8
0
 62
0
 10
236.9
 20
47.76768808321786
 30
0.0
 11
236.9
 21
45.232311916782095
 31
0.0
  0
ARC
  8
0
 62
0
 10
236.79666666666668
 20
47.946666666666644
 30
0.0
 40
0.20666666666666664
 50
-59.99999999999495
 51
149.99999999999835
  0
LINE
  8
0
 62
0
 10
236.6176880832179
 20
48.049999999999976
 30
0.0
 11
227.38231191678213
 21
48.049999999999976
 31
0.0
  0
ARC
  8
0
 62
0
 10
227.20333333333332
 20
47.946666666666644
 30
0.0
 40
0.20666666666666664
 50
30.00000000000166
 51
-119.99999999999727
  0
LINE
  8
0
 62
0
 10
227.1
 20
47.76768808321785
 30
0.0
 11
227.1
 21
45.232311916782095
 31
0.0
  0
ARC
  8
0
 62
0
 10
247.20333333333332
 20
45.053333333333306
 30
0.0
 40
0.20666666666666664
 50
119.99999999999727
 51
-90.0
  0
ARC
  8
0
 62
0
 10
247.20333333333332
 20
45.053333333333306
 30
0.0
 40
0.20666666666666664
 50
-90.0
 51
-29.99999999999994
  0
LINE
  8
0
 62
0
 10
256.61768808321784
 20
44.949999999999974
 30
0.0
 11
247.3823119167821
 21
44.949999999999974
 31
0.0
  0
ARC
  8
0
 62
0
 10
256.7966666666667
 20
45.053333333333306
 30
0.0
 40
0.20666666666666664
 50
-150.00000000000006
 51
-90.0
  0
ARC
  8
0
 62
0
 10
256.7966666666667
 20
45.053333333333306
 30
0.0
 40
0.20666666666666664
 50
-90.0
 51
59.99999999999592
  0
LINE
  8
0
 62
0
 10
256.9
 20
47.76768808321786
 30
0.0
 11
256.9
 21
45.232311916782095
 31
0.0
  0
ARC
  8
0
 62
0
 10
256.7966666666667
 20
47.946666666666644
 30
0.0
 40
0.20666666666666664
 50
-59.99999999999495
 51
149.99999999999835
  0
LINE
  8
0
 62
0
 10
256.61768808321784
 20
48.049999999999976
 30
0.0
 11
247.3823119167821
 21
48.049999999999976
 31
0.0
  0
ARC
  8
0
 62
0
 10
247.20333333333332
 20
47.946666666666644
 30
0.0
 40
0.20666666666666664
 50
30.00000000000166
 51
-119.99999999999824
  0
LINE
  8
0
 62
0
 10
247.1
 20
47.767688083217855
 30
0.0
 11
247.1
 21
45.2323119167821
 31
0.0
  0
ARC
  8
0
 62
0
 10
139.05333333333328
 20
60.92166666666665
 30
0.0
 40
0.20666666666666664
 50
29.99999999999994
 51
-180.0
  0
ARC
  8
0
 62
0
 10
139.05333333333328
 20
60.92166666666665
 30
0.0
 40
0.20666666666666664
 50
-180.0
 51
-119.99999999999824
  0
LINE
  8
0
 62
0
 10
138.94999999999993
 20
51.50731191678211
 30
0.0
 11
138.94999999999993
 21
60.74268808321787
 31
0.0
  0
ARC
  8
0
 62
0
 10
139.05333333333328
 20
51.32833333333332
 30
0.0
 40
0.20666666666666664
 50
119.99999999999824
 51
-180.0
  0
ARC
  8
0
 62
0
 10
139.05333333333328
 20
51.32833333333332
 30
0.0
 40
0.20666666666666664
 50
-180.0
 51
-29.99999999999994
  0
LINE
  8
0
 62
0
 10
141.76768808321782
 20
51.22499999999999
 30
0.0
 11
139.23231191678207
 21
51.22499999999999
 31
0.0
  0
ARC
  8
0
 62
0
 10
141.9466666666666
 20
51.32833333333332
 30
0.0
 40
0.20666666666666664
 50
-150.00000000000176
 51
60.00000000000176
  0
LINE
  8
0
 62
0
 10
142.04999999999995
 20
51.5073119167821
 30
0.0
 11
142.04999999999995
 21
60.74268808321787
 31
0.0
  0
ARC
  8
0
 62
0
 10
141.9466666666666
 20
60.92166666666665
 30
0.0
 40
0.20666666666666664
 50
-60.00000000000176
 51
149.99999999999835
  0
LINE
  8
0
 62
0
 10
141.76768808321785
 20
61.02499999999999
 30
0.0
 11
139.23231191678207
 21
61.02499999999999
 31
0.0
  0
ARC
  8
0
 62
0
 10
147.20333333333332
 20
45.053333333333306
 30
0.0
 40
0.20666666666666664
 50
119.99999999999727
 51
-90.0
  0
ARC
  8
0
 62
0
 10
147.20333333333332
 20
45.053333333333306
 30
0.0
 40
0.20666666666666664
 50
-90.0
 51
-29.99999999999994
  0
LINE
  8
0
 62
0
 10
156.6176880832179
 20
44.949999999999974
 30
0.0
 11
147.38231191678213
 21
44.949999999999974
 31
0.0
  0
ARC
  8
0
 62
0
 10
156.79666666666668
 20
45.053333333333306
 30
0.0
 40
0.20666666666666664
 50
-150.00000000000006
 51
-90.0
  0
ARC
  8
0
 62
0
 10
156.79666666666668
 20
45.053333333333306
 30
0.0
 40
0.20666666666666664
 50
-90.0
 51
60.00000000000274
  0
LINE
  8
0
 62
0
 10
156.9
 20
47.76768808321786
 30
0.0
 11
156.9
 21
45.232311916782095
 31
0.0
  0
ARC
  8
0
 62
0
 10
156.79666666666668
 20
47.946666666666644
 30
0.0
 40
0.20666666666666664
 50
-59.99999999999495
 51
149.99999999999835
  0
LINE
  8
0
 62
0
 10
156.6176880832179
 20
48.049999999999976
 30
0.0
 11
147.3823119167821
 21
48.049999999999976
 31
0.0
  0
ARC
  8
0
 62
0
 10
147.20333333333332
 20
47.946666666666644
 30
0.0
 40
0.20666666666666664
 50
30.00000000000166
 51
-119.99999999999824
  0
LINE
  8
0
 62
0
 10
147.1
 20
47.767688083217855
 30
0.0
 11
147.1
 21
45.2323119167821
 31
0.0
  0
ARC
  8
0
 62
0
 10
167.20333333333332
 20
45.053333333333306
 30
0.0
 40
0.20666666666666664
 50
119.99999999999727
 51
-90.0
  0
ARC
  8
0
 62
0
 10
167.20333333333332
 20
45.053333333333306
 30
0.0
 40
0.20666666666666664
 50
-90.0
 51
-29.99999999999994
  0
LINE
  8
0
 62
0
 10
176.6176880832179
 20
44.949999999999974
 30
0.0
 11
167.38231191678213
 21
44.949999999999974
 31
0.0
  0
ARC
  8
0
 62
0
 10
176.79666666666668
 20
45.053333333333306
 30
0.0
 40
0.20666666666666664
 50
-150.00000000000006
 51
-90.0
  0
ARC
  8
0
 62
0
 10
176.79666666666668
 20
45.053333333333306
 30
0.0
 40
0.20666666666666664
 50
-90.0
 51
60.00000000000274
  0
LINE
  8
0
 62
0
 10
176.9
 20
47.76768808321786
 30
0.0
 11
176.9
 21
45.232311916782095
 31
0.0
  0
ARC
  8
0
 62
0
 10
176.79666666666668
 20
47.946666666666644
 30
0.0
 40
0.20666666666666664
 50
-60.00000000000176
 51
149.99999999999835
  0
LINE
  8
0
 62
0
 10
176.6176880832179
 20
48.049999999999976
 30
0.0
 11
167.3823119167821
 21
48.049999999999976
 31
0.0
  0
ARC
  8
0
 62
0
 10
167.20333333333332
 20
47.946666666666644
 30
0.0
 40
0.20666666666666664
 50
30.00000000000166
 51
-119.99999999999824
  0
LINE
  8
0
 62
0
 10
167.1
 20
47.767688083217855
 30
0.0
 11
167.1
 21
45.2323119167821
 31
0.0
  0
ARC
  8
0
 62
0
 10
200.55333333333334
 20
62.79666666666667
 30
0.0
 40
0.20666666666666664
 50
29.99999999999994
 51
-180.0
  0
ARC
  8
0
 62
0
 10
200.55333333333334
 20
62.79666666666667
 30
0.0
 40
0.20666666666666664
 50
-180.0
 51
-119.99999999999824
  0
LINE
  8
0
 62
0
 10
200.45
 20
53.38231191678212
 30
0.0
 11
200.45
 21
62.617688083217885
 31
0.0
  0
ARC
  8
0
 62
0
 10
200.55333333333334
 20
53.20333333333333
 30
0.0
 40
0.20666666666666664
 50
119.99999999999824
 51
-180.0
  0
ARC
  8
0
 62
0
 10
200.55333333333334
 20
53.20333333333333
 30
0.0
 40
0.20666666666666664
 50
-180.0
 51
-29.99999999999994
  0
LINE
  8
0
 62
0
 10
203.2676880832179
 20
53.1
 30
0.0
 11
200.73231191678212
 21
53.1
 31
0.0
  0
ARC
  8
0
 62
0
 10
203.44666666666666
 20
53.20333333333333
 30
0.0
 40
0.20666666666666664
 50
-149.99999999999835
 51
60.00000000000176
  0
LINE
  8
0
 62
0
 10
203.55
 20
53.382311916782115
 30
0.0
 11
203.55
 21
62.617688083217885
 31
0.0
  0
ARC
  8
0
 62
0
 10
203.44666666666666
 20
62.79666666666667
 30
0.0
 40
0.20666666666666664
 50
-60.00000000000176
 51
149.99999999999835
  0
LINE
  8
0
 62
0
 10
203.2676880832179
 20
62.9
 30
0.0
 11
200.73231191678212
 21
62.9
 31
0.0
  0
ARC
  8
0
 62
0
 10
187.20333333333332
 20
45.053333333333306
 30
0.0
 40
0.20666666666666664
 50
119.99999999999824
 51
-90.0
  0
ARC
  8
0
 62
0
 10
187.20333333333332
 20
45.053333333333306
 30
0.0
 40
0.20666666666666664
 50
-90.0
 51
-29.99999999999994
  0
LINE
  8
0
 62
0
 10
196.6176880832179
 20
44.949999999999974
 30
0.0
 11
187.38231191678213
 21
44.949999999999974
 31
0.0
  0
ARC
  8
0
 62
0
 10
196.79666666666668
 20
45.053333333333306
 30
0.0
 40
0.20666666666666664
 50
-150.00000000000006
 51
-90.0
  0
ARC
  8
0
 62
0
 10
196.79666666666668
 20
45.053333333333306
 30
0.0
 40
0.20666666666666664
 50
-90.0
 51
60.00000000000176
  0
LINE
  8
0
 62
0
 10
196.9
 20
47.767688083217855
 30
0.0
 11
196.9
 21
45.232311916782095
 31
0.0
  0
ARC
  8
0
 62
0
 10
196.79666666666668
 20
47.946666666666644
 30
0.0
 40
0.20666666666666664
 50
-60.00000000000274
 51
150.00000000000006
  0
LINE
  8
0
 62
0
 10
196.6176880832179
 20
48.049999999999976
 30
0.0
 11
187.38231191678213
 21
48.049999999999976
 31
0.0
  0
ARC
  8
0
 62
0
 10
187.20333333333332
 20
47.946666666666644
 30
0.0
 40
0.20666666666666664
 50
30.00000000000166
 51
-120.00000000000506
  0
LINE
  8
0
 62
0
 10
187.1
 20
47.76768808321786
 30
0.0
 11
187.1
 21
45.232311916782095
 31
0.0
  0
ARC
  8
0
 62
0
 10
139.05333333333328
 20
39.67166666666663
 30
0.0
 40
0.20666666666666664
 50
29.99999999999994
 51
-180.0
  0
ARC
  8
0
 62
0
 10
139.05333333333328
 20
39.67166666666663
 30
0.0
 40
0.20666666666666664
 50
-180.0
 51
-119.99999999999824
  0
LINE
  8
0
 62
0
 10
138.94999999999993
 20
30.257311916782083
 30
0.0
 11
138.94999999999993
 21
39.49268808321784
 31
0.0
  0
ARC
  8
0
 62
0
 10
139.05333333333328
 20
30.078333333333298
 30
0.0
 40
0.20666666666666664
 50
119.99999999999775
 51
-180.0
  0
ARC
  8
0
 62
0
 10
139.05333333333328
 20
30.078333333333298
 30
0.0
 40
0.20666666666666664
 50
-180.0
 51
-29.99999999999994
  0
LINE
  8
0
 62
0
 10
141.76768808321785
 20
29.974999999999962
 30
0.0
 11
139.23231191678207
 21
29.974999999999962
 31
0.0
  0
ARC
  8
0
 62
0
 10
141.9466666666666
 20
30.078333333333298
 30
0.0
 40
0.20666666666666664
 50
-149.99999999999835
 51
60.00000000000176
  0
LINE
  8
0
 62
0
 10
142.04999999999995
 20
30.257311916782076
 30
0.0
 11
142.04999999999995
 21
39.49268808321784
 31
0.0
  0
ARC
  8
0
 62
0
 10
141.9466666666666
 20
39.67166666666663
 30
0.0
 40
0.20666666666666664
 50
-60.00000000000176
 51
149.99999999999835
  0
LINE
  8
0
 62
0
 10
141.76768808321785
 20
39.77499999999996
 30
0.0
 11
139.23231191678207
 21
39.77499999999996
 31
0.0
  0
ARC
  8
0
 62
0
 10
139.05333333333328
 20
18.42166666666661
 30
0.0
 40
0.20666666666666664
 50
29.999999999999087
 51
-180.0
  0
ARC
  8
0
 62
0
 10
139.05333333333328
 20
18.42166666666661
 30
0.0
 40
0.20666666666666664
 50
-180.0
 51
-119.99999999999775
  0
LINE
  8
0
 62
0
 10
138.94999999999993
 20
9.007311916782061
 30
0.0
 11
138.94999999999993
 21
18.242688083217825
 31
0.0
  0
ARC
  8
0
 62
0
 10
139.05333333333328
 20
8.828333333333276
 30
0.0
 40
0.20666666666666664
 50
119.99999999999775
 51
-180.0
  0
ARC
  8
0
 62
0
 10
139.05333333333328
 20
8.828333333333276
 30
0.0
 40
0.20666666666666664
 50
-180.0
 51
-29.99999999999994
  0
LINE
  8
0
 62
0
 10
141.76768808321785
 20
8.724999999999941
 30
0.0
 11
139.23231191678207
 21
8.724999999999941
 31
0.0
  0
ARC
  8
0
 62
0
 10
141.9466666666666
 20
8.828333333333276
 30
0.0
 40
0.20666666666666664
 50
-149.99999999999963
 51
60.000000000002004
  0
LINE
  8
0
 62
0
 10
142.04999999999995
 20
9.007311916782054
 30
0.0
 11
142.04999999999995
 21
18.24268808321783
 31
0.0
  0
ARC
  8
0
 62
0
 10
141.9466666666666
 20
18.42166666666661
 30
0.0
 40
0.20666666666666664
 50
-60.00000000000176
 51
150.00000000000176
  0
LINE
  8
0
 62
0
 10
141.76768808321782
 20
18.52499999999994
 30
0.0
 11
139.23231191678207
 21
18.52499999999994
 31
0.0
  0
ARC
  8
0
 62
0
 10
262.0533333333333
 20
82.17166666666668
 30
0.0
 40
0.20666666666666664
 50
29.999999999998234
 51
-180.0
  0
ARC
  8
0
 62
0
 10
262.0533333333333
 20
82.17166666666668
 30
0.0
 40
0.20666666666666664
 50
-180.0
 51
-120.00000000000506
  0
LINE
  8
0
 62
0
 10
261.94999999999993
 20
72.75731191678213
 30
0.0
 11
261.94999999999993
 21
81.99268808321789
 31
0.0
  0
ARC
  8
0
 62
0
 10
262.0533333333333
 20
72.57833333333335
 30
0.0
 40
0.20666666666666664
 50
120.00000000000506
 51
-180.0
  0
ARC
  8
0
 62
0
 10
262.0533333333333
 20
72.57833333333335
 30
0.0
 40
0.20666666666666664
 50
-180.0
 51
-29.999999999998234
  0
LINE
  8
0
 62
0
 10
264.7676880832178
 20
72.47500000000001
 30
0.0
 11
262.23231191678207
 21
72.47500000000001
 31
0.0
  0
ARC
  8
0
 62
0
 10
264.9466666666666
 20
72.57833333333335
 30
0.0
 40
0.20666666666666664
 50
-149.99999999999835
 51
59.99999999999495
  0
LINE
  8
0
 62
0
 10
265.04999999999995
 20
72.75731191678211
 30
0.0
 11
265.04999999999995
 21
81.9926880832179
 31
0.0
  0
ARC
  8
0
 62
0
 10
264.9466666666666
 20
82.17166666666668
 30
0.0
 40
0.20666666666666664
 50
-59.99999999999495
 51
149.99999999999835
  0
LINE
  8
0
 62
0
 10
264.7676880832178
 20
82.275
 30
0.0
 11
262.23231191678207
 21
82.275
 31
0.0
  0
ARC
  8
0
 62
0
 10
200.55333333333334
 20
82.79666666666667
 30
0.0
 40
0.20666666666666664
 50
30.00000000000166
 51
-180.0
  0
ARC
  8
0
 62
0
 10
200.55333333333334
 20
82.79666666666667
 30
0.0
 40
0.20666666666666664
 50
-180.0
 51
-119.99999999999824
  0
LINE
  8
0
 62
0
 10
200.45
 20
73.38231191678211
 30
0.0
 11
200.45
 21
82.61768808321787
 31
0.0
  0
ARC
  8
0
 62
0
 10
200.55333333333334
 20
73.20333333333333
 30
0.0
 40
0.20666666666666664
 50
119.99999999999824
 51
-180.0
  0
ARC
  8
0
 62
0
 10
200.55333333333334
 20
73.20333333333333
 30
0.0
 40
0.20666666666666664
 50
-180.0
 51
-30.00000000000166
  0
LINE
  8
0
 62
0
 10
203.26768808321788
 20
73.1
 30
0.0
 11
200.73231191678212
 21
73.1
 31
0.0
  0
ARC
  8
0
 62
0
 10
203.44666666666666
 20
73.20333333333333
 30
0.0
 40
0.20666666666666664
 50
-150.00000000000176
 51
60.00000000000176
  0
LINE
  8
0
 62
0
 10
203.55
 20
73.38231191678211
 30
0.0
 11
203.55
 21
82.61768808321789
 31
0.0
  0
ARC
  8
0
 62
0
 10
203.44666666666666
 20
82.79666666666667
 30
0.0
 40
0.20666666666666664
 50
-60.00000000000176
 51
149.99999999999835
  0
LINE
  8
0
 62
0
 10
203.2676880832179
 20
82.9
 30
0.0
 11
200.73231191678212
 21
82.9
 31
0.0
  0
ARC
  8
0
 62
0
 10
139.05333333333328
 20
82.17166666666668
 30
0.0
 40
0.20666666666666664
 50
29.999999999998234
 51
-180.0
  0
ARC
  8
0
 62
0
 10
139.05333333333328
 20
82.17166666666668
 30
0.0
 40
0.20666666666666664
 50
-180.0
 51
-119.99999999999824
  0
LINE
  8
0
 62
0
 10
138.94999999999993
 20
72.75731191678213
 30
0.0
 11
138.94999999999993
 21
81.99268808321789
 31
0.0
  0
ARC
  8
0
 62
0
 10
139.05333333333328
 20
72.57833333333335
 30
0.0
 40
0.20666666666666664
 50
119.99999999999824
 51
-180.0
  0
ARC
  8
0
 62
0
 10
139.05333333333328
 20
72.57833333333335
 30
0.0
 40
0.20666666666666664
 50
-180.0
 51
-29.999999999998234
  0
LINE
  8
0
 62
0
 10
141.76768808321785
 20
72.47500000000001
 30
0.0
 11
139.23231191678207
 21
72.47500000000001
 31
0.0
  0
ARC
  8
0
 62
0
 10
141.9466666666666
 20
72.57833333333335
 30
0.0
 40
0.20666666666666664
 50
-149.99999999999835
 51
60.00000000000176
  0
LINE
  8
0
 62
0
 10
142.04999999999995
 20
72.75731191678211
 30
0.0
 11
142.04999999999995
 21
81.9926880832179
 31
0.0
  0
ARC
  8
0
 62
0
 10
141.9466666666666
 20
82.17166666666668
 30
0.0
 40
0.20666666666666664
 50
-60.00000000000176
 51
149.99999999999835
  0
LINE
  8
0
 62
0
 10
141.76768808321785
 20
82.275
 30
0.0
 11
139.23231191678207
 21
82.275
 31
0.0
  0
ENDBLK
  0
BLOCK
  8
0
  2
SHAPE2DVIEW002
 70
0
 10
0.0
 20
0.0
 30
0.0
  3
SHAPE2DVIEW002
  0
LINE
  8
0
 62
0
 10
63.000000000000014
 20
104.0
 30
0.0
 11
63.00000000000002
 21
144.0
 31
0.0
  0
LINE
  8
0
 62
0
 10
53.10000000000002
 20
103.99999999999999
 30
0.0
 11
63.000000000000014
 21
103.99999999999999
 31
0.0
  0
LINE
  8
0
 62
0
 10
63.00000000000002
 20
144.0
 30
0.0
 11
53.10000000000001
 21
144.0
 31
0.0
  0
LINE
  8
0
 62
0
 10
53.10000000000002
 20
104.0
 30
0.0
 11
53.10000000000002
 21
101.0
 31
0.0
  0
LINE
  8
0
 62
0
 10
53.100000000000016
 20
144.0
 30
0.0
 11
53.100000000000016
 21
147.0
 31
0.0
  0
LINE
  8
0
 62
0
 10
53.10000000000002
 20
101.0
 30
0.0
 11
42.90000000000002
 21
101.0
 31
0.0
  0
LINE
  8
0
 62
0
 10
42.90000000000001
 20
147.0
 30
0.0
 11
53.10000000000001
 21
147.0
 31
0.0
  0
LINE
  8
0
 62
0
 10
42.90000000000001
 20
144.0
 30
0.0
 11
42.90000000000001
 21
147.0
 31
0.0
  0
LINE
  8
0
 62
0
 10
42.900000000000006
 20
144.0
 30
0.0
 11
23.1
 21
144.0
 31
0.0
  0
LINE
  8
0
 62
0
 10
23.1
 20
144.0
 30
0.0
 11
23.1
 21
147.0
 31
0.0
  0
LINE
  8
0
 62
0
 10
12.900000000000002
 20
147.0
 30
0.0
 11
23.1
 21
147.0
 31
0.0
  0
LINE
  8
0
 62
0
 10
12.9
 20
144.0
 30
0.0
 11
12.9
 21
147.0
 31
0.0
  0
LINE
  8
0
 62
0
 10
12.899999999999999
 20
144.0
 30
0.0
 11
3.0000000000000213
 21
144.0
 31
0.0
  0
LINE
  8
0
 62
0
 10
3.0000000000000213
 20
144.0
 30
0.0
 11
3.0000000000000204
 21
139.1
 31
0.0
  0
LINE
  8
0
 62
0
 10
3.00000000000001
 20
139.10000000000002
 30
0.0
 11
1.021405182655144e-14
 21
139.10000000000002
 31
0.0
  0
LINE
  8
0
 62
0
 10
7.993605777301127e-15
 20
128.90000000000003
 30
0.0
 11
1.0237605777301128e-14
 21
139.10000000000002
 31
0.0
  0
LINE
  8
0
 62
0
 10
3.000000000000008
 20
128.90000000000003
 30
0.0
 11
7.993605777301127e-15
 21
128.90000000000003
 31
0.0
  0
LINE
  8
0
 62
0
 10
3.000000000000018
 20
128.9
 30
0.0
 11
3.000000000000016
 21
119.1
 31
0.0
  0
LINE
  8
0
 62
0
 10
2.9999999999999996
 20
119.10000000000001
 30
0.0
 11
-4.440892098500626e-16
 21
119.10000000000001
 31
0.0
  0
LINE
  8
0
 62
0
 10
-2.6645352591003757e-15
 20
108.90000000000002
 30
0.0
 11
-4.205352591003755e-16
 21
119.10000000000002
 31
0.0
  0
LINE
  8
0
 62
0
 10
2.9999999999999973
 20
108.90000000000002
 30
0.0
 11
-2.6645352591003757e-15
 21
108.90000000000002
 31
0.0
  0
LINE
  8
0
 62
0
 10
3.0000000000000138
 20
108.9
 30
0.0
 11
3.0000000000000124
 21
104.0
 31
0.0
  0
LINE
  8
0
 62
0
 10
3.000000000000014
 20
104.0
 30
0.0
 11
12.90000000000001
 21
104.0
 31
0.0
  0
LINE
  8
0
 62
0
 10
12.900000000000007
 20
104.0
 30
0.0
 11
12.900000000000007
 21
101.0
 31
0.0
  0
LINE
  8
0
 62
0
 10
23.100000000000005
 20
101.0
 30
0.0
 11
12.900000000000006
 21
101.0
 31
0.0
  0
LINE
  8
0
 62
0
 10
23.10000000000001
 20
104.0
 30
0.0
 11
23.10000000000001
 21
101.0
 31
0.0
  0
LINE
  8
0
 62
0
 10
23.10000000000001
 20
104.0
 30
0.0
 11
42.90000000000002
 21
103.99999999999999
 31
0.0
  0
LINE
  8
0
 62
0
 10
42.90000000000002
 20
104.0
 30
0.0
 11
42.90000000000002
 21
101.0
 31
0.0
  0
ENDBLK
  0
BLOCK
  8
0
  2
SHAPE2DVIEW003
 70
0
 10
0.0
 20
0.0
 30
0.0
  3
SHAPE2DVIEW003
  0
ARC
  8
0
 62
0
 10
136.0
 20
164.0590426414004
 30
0.0
 40
63.075
 50
-43.69829331576703
 51
-2.794362054592801
  0
ARC
  8
0
 62
0
 10
181.5
 20
115.4840426414203
 30
0.0
 40
5.0
 50
88.82591860842443
 51
177.42979617507788
  0
LINE
  8
0
 62
0
 10
199.0
 20
160.9840426414004
 30
0.0
 11
193.59999999999997
 21
160.9840426414004
 31
0.0
  0
ARC
  8
0
 62
0
 10
136.0
 20
164.0590426414004
 30
0.0
 40
63.075
 50
-129.95400809926687
 51
-50.045991900733114
  0
ARC
  8
0
 62
0
 10
90.50000000000001
 20
115.4840426414203
 30
0.0
 40
5.0
 50
2.5702038249221277
 51
91.17408139157591
  0
ARC
  8
0
 62
0
 10
136.0
 20
164.0590426414004
 30
0.0
 40
63.075
 50
-177.2056379454072
 51
-136.30170668423295
  0
LINE
  8
0
 62
0
 10
78.4
 20
160.9840426414004
 30
0.0
 11
73.0
 21
160.9840426414004
 31
0.0
  0
LINE
  8
0
 62
0
 10
193.6
 20
160.98404264140038
 30
0.0
 11
193.6
 21
163.98404264140038
 31
0.0
  0
LINE
  8
0
 62
0
 10
183.4
 20
163.98404264140038
 30
0.0
 11
193.6
 21
163.98404264140038
 31
0.0
  0
LINE
  8
0
 62
0
 10
183.4
 20
160.98404264140038
 30
0.0
 11
183.4
 21
163.98404264140038
 31
0.0
  0
LINE
  8
0
 62
0
 10
183.39999999999998
 20
160.9840426414004
 30
0.0
 11
172.59999999999997
 21
160.9840426414004
 31
0.0
  0
LINE
  8
0
 62
0
 10
172.6
 20
160.9840426414004
 30
0.0
 11
172.6
 21
163.9840426414004
 31
0.0
  0
LINE
  8
0
 62
0
 10
162.4
 20
163.9840426414004
 30
0.0
 11
172.6
 21
163.9840426414004
 31
0.0
  0
LINE
  8
0
 62
0
 10
162.4
 20
160.9840426414004
 30
0.0
 11
162.4
 21
163.9840426414004
 31
0.0
  0
LINE
  8
0
 62
0
 10
162.39999999999998
 20
160.9840426414004
 30
0.0
 11
151.6
 21
160.9840426414004
 31
0.0
  0
LINE
  8
0
 62
0
 10
151.6
 20
160.9840426414004
 30
0.0
 11
151.6
 21
163.9840426414004
 31
0.0
  0
LINE
  8
0
 62
0
 10
141.4
 20
163.9840426414004
 30
0.0
 11
151.6
 21
163.9840426414004
 31
0.0
  0
LINE
  8
0
 62
0
 10
141.4
 20
160.9840426414004
 30
0.0
 11
141.4
 21
163.9840426414004
 31
0.0
  0
LINE
  8
0
 62
0
 10
141.4
 20
160.9840426414004
 30
0.0
 11
130.6
 21
160.9840426414004
 31
0.0
  0
LINE
  8
0
 62
0
 10
78.40000000000002
 20
160.98404264140044
 30
0.0
 11
78.40000000000002
 21
163.98404264140044
 31
0.0
  0
LINE
  8
0
 62
0
 10
130.6
 20
160.9840426414004
 30
0.0
 11
130.6
 21
163.9840426414004
 31
0.0
  0
LINE
  8
0
 62
0
 10
78.40000000000002
 20
163.98404264140044
 30
0.0
 11
88.60000000000002
 21
163.98404264140044
 31
0.0
  0
LINE
  8
0
 62
0
 10
99.4
 20
160.9840426414004
 30
0.0
 11
88.60000000000002
 21
160.9840426414004
 31
0.0
  0
LINE
  8
0
 62
0
 10
88.60000000000001
 20
160.98404264140044
 30
0.0
 11
88.60000000000001
 21
163.98404264140044
 31
0.0
  0
LINE
  8
0
 62
0
 10
120.4
 20
163.9840426414004
 30
0.0
 11
130.6
 21
163.9840426414004
 31
0.0
  0
LINE
  8
0
 62
0
 10
120.4
 20
160.9840426414004
 30
0.0
 11
120.4
 21
163.9840426414004
 31
0.0
  0
LINE
  8
0
 62
0
 10
120.4
 20
160.9840426414004
 30
0.0
 11
109.60000000000001
 21
160.9840426414004
 31
0.0
  0
LINE
  8
0
 62
0
 10
99.40000000000002
 20
160.9840426414004
 30
0.0
 11
99.40000000000002
 21
163.9840426414004
 31
0.0
  0
LINE
  8
0
 62
0
 10
109.60000000000001
 20
160.9840426414004
 30
0.0
 11
109.60000000000001
 21
163.9840426414004
 31
0.0
  0
LINE
  8
0
 62
0
 10
99.40000000000002
 20
163.9840426414004
 30
0.0
 11
109.60000000000002
 21
163.9840426414004
 31
0.0
  0
CIRCLE
  8
0
 62
0
 10
150.5
 20
146.4840426414203
 30
0.0
 40
5.0
  0
CIRCLE
  8
0
 62
0
 10
121.50000000000001
 20
146.4840426414203
 30
0.0
 40
5.0
  0
CIRCLE
  8
0
 62
0
 10
90.50000000000001
 20
146.4840426414203
 30
0.0
 40
5.0
  0
CIRCLE
  8
0
 62
0
 10
181.5
 20
146.4840426414203
 30
0.0
 40
5.0
  0
CIRCLE
  8
0
 62
0
 10
150.5
 20
115.4840426414203
 30
0.0
 40
5.0
  0
CIRCLE
  8
0
 62
0
 10
121.50000000000001
 20
115.4840426414203
 30
0.0
 40
5.0
  0
LINE
  8
0
 62
0
 10
134.73231191678212
 20
141.08404264140043
 30
0.0
 11
137.2676880832179
 21
141.08404264140043
 31
0.0
  0
ARC
  8
0
 62
0
 10
134.55333333333337
 20
141.18737597473378
 30
0.0
 40
0.20666666666666664
 50
119.99999999999824
 51
-29.999999999998234
  0
LINE
  8
0
 62
0
 10
134.45000000000002
 20
150.60173072461833
 30
0.0
 11
134.45000000000002
 21
141.36635455818256
 31
0.0
  0
ARC
  8
0
 62
0
 10
134.55333333333337
 20
150.78070930806712
 30
0.0
 40
0.20666666666666664
 50
29.999999999998234
 51
-119.99999999999824
  0
LINE
  8
0
 62
0
 10
134.73231191678212
 20
150.88404264140044
 30
0.0
 11
137.2676880832179
 21
150.88404264140044
 31
0.0
  0
ARC
  8
0
 62
0
 10
137.4466666666667
 20
150.78070930806712
 30
0.0
 40
0.20666666666666664
 50
-0.0
 51
150.00000000000176
  0
ARC
  8
0
 62
0
 10
137.4466666666667
 20
150.78070930806712
 30
0.0
 40
0.20666666666666664
 50
-60.00000000000176
 51
-0.0
  0
LINE
  8
0
 62
0
 10
137.55000000000004
 20
150.60173072461833
 30
0.0
 11
137.55000000000004
 21
141.36635455818256
 31
0.0
  0
ARC
  8
0
 62
0
 10
137.4466666666667
 20
141.18737597473378
 30
0.0
 40
0.20666666666666664
 50
-0.0
 51
60.00000000000176
  0
ARC
  8
0
 62
0
 10
137.4466666666667
 20
141.18737597473378
 30
0.0
 40
0.20666666666666664
 50
-150.00000000000176
 51
-0.0
  0
LINE
  8
0
 62
0
 10
134.73231191678212
 20
111.08404264140043
 30
0.0
 11
137.2676880832179
 21
111.08404264140043
 31
0.0
  0
ARC
  8
0
 62
0
 10
134.55333333333337
 20
111.18737597473375
 30
0.0
 40
0.20666666666666664
 50
119.99999999999824
 51
-30.00000000000166
  0
LINE
  8
0
 62
0
 10
134.45000000000002
 20
120.60173072461832
 30
0.0
 11
134.45000000000002
 21
111.36635455818255
 31
0.0
  0
ARC
  8
0
 62
0
 10
134.55333333333337
 20
120.78070930806709
 30
0.0
 40
0.20666666666666664
 50
30.00000000000166
 51
-119.99999999999824
  0
LINE
  8
0
 62
0
 10
134.73231191678212
 20
120.88404264140044
 30
0.0
 11
137.2676880832179
 21
120.88404264140044
 31
0.0
  0
ARC
  8
0
 62
0
 10
137.4466666666667
 20
120.78070930806709
 30
0.0
 40
0.20666666666666664
 50
-0.0
 51
149.99999999999835
  0
ARC
  8
0
 62
0
 10
137.4466666666667
 20
120.78070930806709
 30
0.0
 40
0.20666666666666664
 50
-60.00000000000176
 51
-0.0
  0
LINE
  8
0
 62
0
 10
137.55000000000004
 20
120.60173072461832
 30
0.0
 11
137.55000000000004
 21
111.36635455818256
 31
0.0
  0
ARC
  8
0
 62
0
 10
137.4466666666667
 20
111.18737597473375
 30
0.0
 40
0.20666666666666664
 50
-0.0
 51
60.00000000000176
  0
ARC
  8
0
 62
0
 10
137.4466666666667
 20
111.18737597473375
 30
0.0
 40
0.20666666666666664
 50
-150.00000000000176
 51
-0.0
  0
CIRCLE
  8
0
 62
0
 10
106.00000000000001
 20
130.9840426414004
 30
0.0
 40
1.5
  0
CIRCLE
  8
0
 62
0
 10
166.0
 20
130.9840426414004
 30
0.0
 40
1.5
  0
ENDBLK
  0
ENDSEC
  0
SECTION
  2
ENTITIES
  0
INSERT
  2
SHAPE2DVIEW
  8
0
 62
0
 10
0.0
 20
0.0
 30
0.0
  0
INSERT
  2
SHAPE2DVIEW004
  8
0
 62
0
 10
0.0
 20
0.0
 30
0.0
  0
INSERT
  2
SHAPE2DVIEW005
  8
0
 62
0
 10
0.0
 20
0.0
 30
0.0
  0
INSERT
  2
SHAPE2DVIEW001
  8
0
 62
0
 10
0.0
 20
0.0
 30
0.0
  0
INSERT
  2
SHAPE2DVIEW002
  8
0
 62
0
 10
0.0
 20
0.0
 30
0.0
  0
INSERT
  2
SHAPE2DVIEW003
  8
0
 62
0
 10
0.0
 20
0.0
 30
0.0
  0
ENDSEC
  0
EOF
