<?xml version="1.0" encoding="UTF-8" standalone="no"?>
<!-- Created with Inkscape (http://www.inkscape.org/) -->

<svg
   xmlns:dc="http://purl.org/dc/elements/1.1/"
   xmlns:cc="http://creativecommons.org/ns#"
   xmlns:rdf="http://www.w3.org/1999/02/22-rdf-syntax-ns#"
   xmlns:svg="http://www.w3.org/2000/svg"
   xmlns="http://www.w3.org/2000/svg"
   xmlns:sodipodi="http://sodipodi.sourceforge.net/DTD/sodipodi-0.dtd"
   xmlns:inkscape="http://www.inkscape.org/namespaces/inkscape"
   width="33.999989mm"
   height="33.999989mm"
   viewBox="0 0 33.999989 33.999989"
   version="1.1"
   id="svg891"
   inkscape:version="0.92.4 (5da689c313, 2019-01-14)"
   sodipodi:docname="nema17-holes.svg">
  <defs
     id="defs885" />
  <sodipodi:namedview
     id="base"
     pagecolor="#ffffff"
     bordercolor="#666666"
     borderopacity="1.0"
     inkscape:pageopacity="0.0"
     inkscape:pageshadow="2"
     inkscape:zoom="0.35"
     inkscape:cx="-131.46232"
     inkscape:cy="547.10909"
     inkscape:document-units="mm"
     inkscape:current-layer="layer1"
     showgrid="false"
     fit-margin-top="0"
     fit-margin-left="0"
     fit-margin-right="0"
     fit-margin-bottom="0"
     inkscape:window-width="1920"
     inkscape:window-height="1015"
     inkscape:window-x="0"
     inkscape:window-y="0"
     inkscape:window-maximized="1" />
  <metadata
     id="metadata888">
    <rdf:RDF>
      <cc:Work
         rdf:about="">
        <dc:format>image/svg+xml</dc:format>
        <dc:type
           rdf:resource="http://purl.org/dc/dcmitype/StillImage" />
        <dc:title></dc:title>
      </cc:Work>
    </rdf:RDF>
  </metadata>
  <g
     inkscape:label="Layer 1"
     inkscape:groupmode="layer"
     id="layer1"
     transform="translate(-4.1666677,-259.58929)">
    <path
       inkscape:connector-curvature="0"
       style="fill:#ea455d;fill-opacity:0.61473646;stroke:none;stroke-width:0.26458332px;stroke-linecap:butt;stroke-linejoin:miter;stroke-opacity:1"
       d="m 38.166658,261.08945 a 1.4999999,1.4999999 0 0 1 -1.50016,1.50017 1.4999999,1.4999999 0 0 1 -1.49965,-1.50017 1.4999999,1.4999999 0 0 1 1.49965,-1.50016 1.4999999,1.4999999 0 0 1 1.50016,1.50016 z"
       id="path851" />
    <path
       inkscape:connector-curvature="0"
       style="fill:#ea455d;fill-opacity:0.61473646;stroke:none;stroke-width:0.26458332px;stroke-linecap:butt;stroke-linejoin:miter;stroke-opacity:1"
       d="m 38.166658,292.08963 a 1.4999999,1.4999999 0 0 1 -1.50016,1.49965 1.4999999,1.4999999 0 0 1 -1.49965,-1.49965 1.4999999,1.4999999 0 0 1 1.49965,-1.50017 1.4999999,1.4999999 0 0 1 1.50016,1.50017 z"
       id="path849" />
    <path
       inkscape:connector-curvature="0"
       style="fill:#ea455d;fill-opacity:0.61473646;stroke:none;stroke-width:0.26458332px;stroke-linecap:butt;stroke-linejoin:miter;stroke-opacity:1"
       d="m 32.166518,276.58927 a 10.999999,10.999999 0 0 1 -10.99986,11.00037 10.999999,10.999999 0 0 1 -10.99984,-11.00037 10.999999,10.999999 0 0 1 10.99984,-10.99983 10.999999,10.999999 0 0 1 10.99986,10.99983 z"
       id="path847" />
    <path
       inkscape:connector-curvature="0"
       style="fill:#ea455d;fill-opacity:0.61473646;stroke:none;stroke-width:0.26458332px;stroke-linecap:butt;stroke-linejoin:miter;stroke-opacity:1"
       d="m 7.1664777,261.08945 a 1.4999999,1.4999999 0 0 1 -1.49965,1.50017 1.4999999,1.4999999 0 0 1 -1.50016,-1.50017 1.4999999,1.4999999 0 0 1 1.50016,-1.50016 1.4999999,1.4999999 0 0 1 1.49965,1.50016 z"
       id="path841" />
    <path
       inkscape:connector-curvature="0"
       style="fill:#ea455d;fill-opacity:0.61473646;stroke:none;stroke-width:0.26458332px;stroke-linecap:butt;stroke-linejoin:miter;stroke-opacity:1"
       d="m 7.1664777,292.08963 a 1.4999999,1.4999999 0 0 1 -1.49965,1.49965 1.4999999,1.4999999 0 0 1 -1.50016,-1.49965 1.4999999,1.4999999 0 0 1 1.50016,-1.50017 1.4999999,1.4999999 0 0 1 1.49965,1.50017 z"
       id="path839" />
  </g>
</svg>
