  0
SECTION
  2
HEADER
  9
$ACADVER
  1
AC1009
  9
$INSBASE
 10
0.0
 20
0.0
 30
0.0
  9
$EXTMIN
 10
0.0
 20
0.0
 30
0.0
  9
$EXTMAX
 10
0.0
 20
0.0
 30
0.0
  0
ENDSEC
  0
SECTION
  2
TABLES
  0
TABLE
  2
VPORT
 70
0
  0
ENDTAB
  0
TABLE
  2
LTYPE
 70
1
  0
LTYPE
  2
CONTINUOUS
 70
0
  3
Solid line
 72
65
 73
0
 40
0.0
  0
ENDTAB
  0
TABLE
  2
LAYER
 70
1
  0
LAYER
  2
0
 70
64
 62
7
  6
continuous
  0
ENDTAB
  0
TABLE
  2
STYLE
 70
1
  0
STYLE
  2
STANDARD
 70
0
 40
0
 41
1.0
 50
0.0
 71
0
 42
1
 3
ARIAL.TTF
 4

  0
ENDTAB
  0
TABLE
  2
VIEW
 70
0
  0
ENDTAB
  0
ENDSEC
  0
SECTION
  2
BLOCKS
  0
BLOCK
  8
0
  2
SHAPE2DVIEW
 70
0
 10
0.0
 20
0.0
 30
0.0
  3
SHAPE2DVIEW
  0
LINE
  8
0
 62
0
 10
8.437694987151204e-15
 20
9.800000000000205
 30
0.0
 11
1.4432899320126972e-15
 21
12.800000000000214
 31
0.0
  0
ARC
  8
0
 62
0
 10
4.000000000000028
 20
9.800000000000203
 30
0.0
 40
4.0
 50
-180.0
 51
-90.0
  0
LINE
  8
0
 62
0
 10
24.000000000000068
 20
5.800000000000221
 30
0.0
 11
4.00000000000005
 21
5.800000000000214
 31
0.0
  0
LINE
  8
0
 62
0
 10
24.00000000000007
 20
3.9999999999999996
 30
0.0
 11
24.000000000000068
 21
5.800000000000209
 31
0.0
  0
ARC
  8
0
 62
0
 10
28.00000000000007
 20
4.000000000000012
 30
0.0
 40
4.0
 50
-180.0
 51
-89.99999999999994
  0
LINE
  8
0
 62
0
 10
30.000000000000146
 20
3.552713678800501e-15
 30
0.0
 11
28.00000000000009
 21
2.8865798640253794e-15
 31
0.0
  0
ARC
  8
0
 62
0
 10
30.000000000000078
 20
4.000000000000178
 30
0.0
 40
4.0
 50
-89.99999999999903
 51
0.0
  0
LINE
  8
0
 62
0
 10
29.000000000000068
 20
4.000000000000224
 30
0.0
 11
34.00000000000007
 21
4.0000000000002265
 31
0.0
  0
LINE
  8
0
 62
0
 10
29.000000000000064
 20
7.000000000000226
 30
0.0
 11
29.000000000000068
 21
4.000000000000226
 31
0.0
  0
LINE
  8
0
 62
0
 10
34.000000000000064
 20
7.000000000000228
 30
0.0
 11
29.000000000000064
 21
7.000000000000226
 31
0.0
  0
LINE
  8
0
 62
0
 10
34.000000000000064
 20
15.600000000000241
 30
0.0
 11
34.000000000000085
 21
7.00000000000024
 31
0.0
  0
LINE
  8
0
 62
0
 10
34.00000000000006
 20
15.600000000000232
 30
0.0
 11
29.000000000000057
 21
15.600000000000229
 31
0.0
  0
LINE
  8
0
 62
0
 10
29.000000000000053
 20
15.600000000000232
 30
0.0
 11
29.00000000000005
 21
18.600000000000232
 31
0.0
  0
LINE
  8
0
 62
0
 10
29.00000000000005
 20
18.600000000000232
 30
0.0
 11
34.00000000000005
 21
18.600000000000236
 31
0.0
  0
ARC
  8
0
 62
0
 10
30.000000000000046
 20
18.60000000000029
 30
0.0
 40
4.0
 50
-0.0
 51
89.99999999999933
  0
LINE
  8
0
 62
0
 10
28.000000000000032
 20
22.600000000000296
 30
0.0
 11
30.00000000000008
 21
22.6000000000003
 31
0.0
  0
ARC
  8
0
 62
0
 10
28.000000000000046
 20
18.600000000000282
 30
0.0
 40
4.0
 50
90.00000000000006
 51
-180.0
  0
LINE
  8
0
 62
0
 10
24.000000000000043
 20
16.800000000000242
 30
0.0
 11
24.00000000000004
 21
18.600000000000286
 31
0.0
  0
LINE
  8
0
 62
0
 10
3.9999999999999964
 20
16.800000000000235
 30
0.0
 11
23.999999999999993
 21
16.800000000000242
 31
0.0
  0
ARC
  8
0
 62
0
 10
4.000000000000025
 20
12.800000000000214
 30
0.0
 40
4.0
 50
90.00000000000003
 51
-180.0
  0
ARC
  8
0
 62
0
 10
14.000000000000043
 20
11.000000000000224
 30
0.0
 40
1.5
 50
-89.99999999999987
 51
90.00000000000007
  0
LINE
  8
0
 62
0
 10
14.000000000000039
 20
12.500000000000227
 30
0.0
 11
6.000000000000039
 21
12.500000000000224
 31
0.0
  0
LINE
  8
0
 62
0
 10
14.000000000000044
 20
9.500000000000222
 30
0.0
 11
6.000000000000044
 21
9.500000000000218
 31
0.0
  0
ARC
  8
0
 62
0
 10
6.0000000000000355
 20
11.00000000000022
 30
0.0
 40
1.5
 50
90.0000000000001
 51
-89.99999999999987
  0
ENDBLK
  0
BLOCK
  8
0
  2
SHAPE2DVIEW001
 70
0
 10
0.0
 20
0.0
 30
0.0
  3
SHAPE2DVIEW001
  0
LINE
  8
0
 62
0
 10
4.0
 20
56.60000000000029
 30
0.0
 11
4.500000000000001
 21
56.60000000000029
 31
0.0
  0
ARC
  8
0
 62
0
 10
4.0
 20
52.60000000000029
 30
0.0
 40
4.0
 50
90.0
 51
-180.0
  0
LINE
  8
0
 62
0
 10
8.881784197001252e-16
 20
38.60000000000029
 30
0.0
 11
8.881784197001252e-16
 21
52.60000000000029
 31
0.0
  0
ARC
  8
0
 62
0
 10
6.000000000000002
 20
38.60000000000029
 30
0.0
 40
6.0
 50
-180.0
 51
-0.0
  0
LINE
  8
0
 62
0
 10
12.0
 20
52.60000000000029
 30
0.0
 11
12.0
 21
38.60000000000029
 31
0.0
  0
ARC
  8
0
 62
0
 10
8.0
 20
52.60000000000029
 30
0.0
 40
4.0
 50
-0.0
 51
90.0
  0
LINE
  8
0
 62
0
 10
7.500000000000001
 20
56.60000000000029
 30
0.0
 11
8.0
 21
56.60000000000029
 31
0.0
  0
LINE
  8
0
 62
0
 10
7.500000000000001
 20
56.60000000000029
 30
0.0
 11
7.500000000000001
 21
51.60000000000029
 31
0.0
  0
LINE
  8
0
 62
0
 10
7.500000000000001
 20
51.60000000000029
 30
0.0
 11
4.500000000000001
 21
51.60000000000029
 31
0.0
  0
LINE
  8
0
 62
0
 10
4.500000000000001
 20
51.60000000000029
 30
0.0
 11
4.500000000000001
 21
56.60000000000029
 31
0.0
  0
CIRCLE
  8
0
 62
0
 10
6.000000000000001
 20
38.60000000000029
 30
0.0
 40
1.5
  0
ENDBLK
  0
BLOCK
  8
0
  2
SHAPE2DVIEW002
 70
0
 10
0.0
 20
0.0
 30
0.0
  3
SHAPE2DVIEW002
  0
LINE
  8
0
 62
0
 10
4.0
 20
90.60000000000029
 30
0.0
 11
4.500000000000001
 21
90.60000000000029
 31
0.0
  0
ARC
  8
0
 62
0
 10
4.0
 20
86.60000000000029
 30
0.0
 40
4.0
 50
90.0
 51
-180.0
  0
LINE
  8
0
 62
0
 10
8.881784197001252e-16
 20
72.60000000000029
 30
0.0
 11
8.881784197001252e-16
 21
86.60000000000029
 31
0.0
  0
ARC
  8
0
 62
0
 10
6.000000000000002
 20
72.60000000000029
 30
0.0
 40
6.0
 50
-180.0
 51
-0.0
  0
LINE
  8
0
 62
0
 10
12.0
 20
86.60000000000029
 30
0.0
 11
12.0
 21
72.60000000000029
 31
0.0
  0
ARC
  8
0
 62
0
 10
8.0
 20
86.60000000000029
 30
0.0
 40
4.0
 50
-0.0
 51
90.0
  0
LINE
  8
0
 62
0
 10
7.500000000000001
 20
90.60000000000029
 30
0.0
 11
8.0
 21
90.60000000000029
 31
0.0
  0
LINE
  8
0
 62
0
 10
7.500000000000001
 20
90.60000000000029
 30
0.0
 11
7.500000000000001
 21
85.60000000000029
 31
0.0
  0
LINE
  8
0
 62
0
 10
7.500000000000001
 20
85.60000000000029
 30
0.0
 11
4.500000000000001
 21
85.60000000000029
 31
0.0
  0
LINE
  8
0
 62
0
 10
4.500000000000001
 20
85.60000000000029
 30
0.0
 11
4.500000000000001
 21
90.60000000000029
 31
0.0
  0
CIRCLE
  8
0
 62
0
 10
6.000000000000001
 20
72.60000000000029
 30
0.0
 40
1.5
  0
ENDBLK
  0
ENDSEC
  0
SECTION
  2
ENTITIES
  0
INSERT
  2
SHAPE2DVIEW
  8
0
 62
0
 10
0.0
 20
0.0
 30
0.0
  0
INSERT
  2
SHAPE2DVIEW001
  8
0
 62
0
 10
0.0
 20
0.0
 30
0.0
  0
INSERT
  2
SHAPE2DVIEW002
  8
0
 62
0
 10
0.0
 20
0.0
 30
0.0
  0
ENDSEC
  0
EOF
