G04 #@! TF.GenerationSoftware,KiCad,Pcbnew,5.1.4+dfsg1-1*
G04 #@! TF.CreationDate,2020-01-11T23:19:06+01:00*
G04 #@! TF.ProjectId,wbplotter,7762706c-6f74-4746-9572-2e6b69636164,rev?*
G04 #@! TF.SameCoordinates,Original*
G04 #@! TF.FileFunction,Legend,Top*
G04 #@! TF.FilePolarity,Positive*
%FSLAX46Y46*%
G04 Gerber Fmt 4.6, Leading zero omitted, Abs format (unit mm)*
G04 Created by KiCad (PCBNEW 5.1.4+dfsg1-1) date 2020-01-11 23:19:06*
%MOMM*%
%LPD*%
G04 APERTURE LIST*
%ADD10C,0.150000*%
%ADD11C,0.120000*%
%ADD12C,0.101600*%
G04 APERTURE END LIST*
D10*
X140271619Y-121880380D02*
X140604952Y-122880380D01*
X140938285Y-121880380D01*
X141271619Y-122499428D02*
X142033523Y-122499428D01*
X141652571Y-122880380D02*
X141652571Y-122118476D01*
X140208095Y-135390000D02*
X140112857Y-135342380D01*
X139970000Y-135342380D01*
X139827142Y-135390000D01*
X139731904Y-135485238D01*
X139684285Y-135580476D01*
X139636666Y-135770952D01*
X139636666Y-135913809D01*
X139684285Y-136104285D01*
X139731904Y-136199523D01*
X139827142Y-136294761D01*
X139970000Y-136342380D01*
X140065238Y-136342380D01*
X140208095Y-136294761D01*
X140255714Y-136247142D01*
X140255714Y-135913809D01*
X140065238Y-135913809D01*
X140684285Y-136342380D02*
X140684285Y-135342380D01*
X141255714Y-136342380D01*
X141255714Y-135342380D01*
X141731904Y-136342380D02*
X141731904Y-135342380D01*
X141970000Y-135342380D01*
X142112857Y-135390000D01*
X142208095Y-135485238D01*
X142255714Y-135580476D01*
X142303333Y-135770952D01*
X142303333Y-135913809D01*
X142255714Y-136104285D01*
X142208095Y-136199523D01*
X142112857Y-136294761D01*
X141970000Y-136342380D01*
X141731904Y-136342380D01*
X95522071Y-123851380D02*
X95617309Y-123851380D01*
X95712547Y-123899000D01*
X95760166Y-123946619D01*
X95807785Y-124041857D01*
X95855404Y-124232333D01*
X95855404Y-124470428D01*
X95807785Y-124660904D01*
X95760166Y-124756142D01*
X95712547Y-124803761D01*
X95617309Y-124851380D01*
X95522071Y-124851380D01*
X95426833Y-124803761D01*
X95379214Y-124756142D01*
X95331595Y-124660904D01*
X95283976Y-124470428D01*
X95283976Y-124232333D01*
X95331595Y-124041857D01*
X95379214Y-123946619D01*
X95426833Y-123899000D01*
X95522071Y-123851380D01*
X96474452Y-123851380D02*
X96569690Y-123851380D01*
X96664928Y-123899000D01*
X96712547Y-123946619D01*
X96760166Y-124041857D01*
X96807785Y-124232333D01*
X96807785Y-124470428D01*
X96760166Y-124660904D01*
X96712547Y-124756142D01*
X96664928Y-124803761D01*
X96569690Y-124851380D01*
X96474452Y-124851380D01*
X96379214Y-124803761D01*
X96331595Y-124756142D01*
X96283976Y-124660904D01*
X96236357Y-124470428D01*
X96236357Y-124232333D01*
X96283976Y-124041857D01*
X96331595Y-123946619D01*
X96379214Y-123899000D01*
X96474452Y-123851380D01*
X97426833Y-123851380D02*
X97522071Y-123851380D01*
X97617309Y-123899000D01*
X97664928Y-123946619D01*
X97712547Y-124041857D01*
X97760166Y-124232333D01*
X97760166Y-124470428D01*
X97712547Y-124660904D01*
X97664928Y-124756142D01*
X97617309Y-124803761D01*
X97522071Y-124851380D01*
X97426833Y-124851380D01*
X97331595Y-124803761D01*
X97283976Y-124756142D01*
X97236357Y-124660904D01*
X97188738Y-124470428D01*
X97188738Y-124232333D01*
X97236357Y-124041857D01*
X97283976Y-123946619D01*
X97331595Y-123899000D01*
X97426833Y-123851380D01*
X99474452Y-124851380D02*
X98903023Y-124851380D01*
X99188738Y-124851380D02*
X99188738Y-123851380D01*
X99093500Y-123994238D01*
X98998261Y-124089476D01*
X98903023Y-124137095D01*
X100617309Y-123803761D02*
X99760166Y-125089476D01*
X101474452Y-124851380D02*
X100903023Y-124851380D01*
X101188738Y-124851380D02*
X101188738Y-123851380D01*
X101093500Y-123994238D01*
X100998261Y-124089476D01*
X100903023Y-124137095D01*
X95855404Y-126501380D02*
X95283976Y-126501380D01*
X95569690Y-126501380D02*
X95569690Y-125501380D01*
X95474452Y-125644238D01*
X95379214Y-125739476D01*
X95283976Y-125787095D01*
X96474452Y-125501380D02*
X96569690Y-125501380D01*
X96664928Y-125549000D01*
X96712547Y-125596619D01*
X96760166Y-125691857D01*
X96807785Y-125882333D01*
X96807785Y-126120428D01*
X96760166Y-126310904D01*
X96712547Y-126406142D01*
X96664928Y-126453761D01*
X96569690Y-126501380D01*
X96474452Y-126501380D01*
X96379214Y-126453761D01*
X96331595Y-126406142D01*
X96283976Y-126310904D01*
X96236357Y-126120428D01*
X96236357Y-125882333D01*
X96283976Y-125691857D01*
X96331595Y-125596619D01*
X96379214Y-125549000D01*
X96474452Y-125501380D01*
X97426833Y-125501380D02*
X97522071Y-125501380D01*
X97617309Y-125549000D01*
X97664928Y-125596619D01*
X97712547Y-125691857D01*
X97760166Y-125882333D01*
X97760166Y-126120428D01*
X97712547Y-126310904D01*
X97664928Y-126406142D01*
X97617309Y-126453761D01*
X97522071Y-126501380D01*
X97426833Y-126501380D01*
X97331595Y-126453761D01*
X97283976Y-126406142D01*
X97236357Y-126310904D01*
X97188738Y-126120428D01*
X97188738Y-125882333D01*
X97236357Y-125691857D01*
X97283976Y-125596619D01*
X97331595Y-125549000D01*
X97426833Y-125501380D01*
X99474452Y-126501380D02*
X98903023Y-126501380D01*
X99188738Y-126501380D02*
X99188738Y-125501380D01*
X99093500Y-125644238D01*
X98998261Y-125739476D01*
X98903023Y-125787095D01*
X100617309Y-125453761D02*
X99760166Y-126739476D01*
X100903023Y-125596619D02*
X100950642Y-125549000D01*
X101045880Y-125501380D01*
X101283976Y-125501380D01*
X101379214Y-125549000D01*
X101426833Y-125596619D01*
X101474452Y-125691857D01*
X101474452Y-125787095D01*
X101426833Y-125929952D01*
X100855404Y-126501380D01*
X101474452Y-126501380D01*
X95522071Y-127151380D02*
X95617309Y-127151380D01*
X95712547Y-127199000D01*
X95760166Y-127246619D01*
X95807785Y-127341857D01*
X95855404Y-127532333D01*
X95855404Y-127770428D01*
X95807785Y-127960904D01*
X95760166Y-128056142D01*
X95712547Y-128103761D01*
X95617309Y-128151380D01*
X95522071Y-128151380D01*
X95426833Y-128103761D01*
X95379214Y-128056142D01*
X95331595Y-127960904D01*
X95283976Y-127770428D01*
X95283976Y-127532333D01*
X95331595Y-127341857D01*
X95379214Y-127246619D01*
X95426833Y-127199000D01*
X95522071Y-127151380D01*
X96807785Y-128151380D02*
X96236357Y-128151380D01*
X96522071Y-128151380D02*
X96522071Y-127151380D01*
X96426833Y-127294238D01*
X96331595Y-127389476D01*
X96236357Y-127437095D01*
X97426833Y-127151380D02*
X97522071Y-127151380D01*
X97617309Y-127199000D01*
X97664928Y-127246619D01*
X97712547Y-127341857D01*
X97760166Y-127532333D01*
X97760166Y-127770428D01*
X97712547Y-127960904D01*
X97664928Y-128056142D01*
X97617309Y-128103761D01*
X97522071Y-128151380D01*
X97426833Y-128151380D01*
X97331595Y-128103761D01*
X97283976Y-128056142D01*
X97236357Y-127960904D01*
X97188738Y-127770428D01*
X97188738Y-127532333D01*
X97236357Y-127341857D01*
X97283976Y-127246619D01*
X97331595Y-127199000D01*
X97426833Y-127151380D01*
X99474452Y-128151380D02*
X98903023Y-128151380D01*
X99188738Y-128151380D02*
X99188738Y-127151380D01*
X99093500Y-127294238D01*
X98998261Y-127389476D01*
X98903023Y-127437095D01*
X100617309Y-127103761D02*
X99760166Y-128389476D01*
X101379214Y-127484714D02*
X101379214Y-128151380D01*
X101141119Y-127103761D02*
X100903023Y-127818047D01*
X101522071Y-127818047D01*
X95855404Y-129801380D02*
X95283976Y-129801380D01*
X95569690Y-129801380D02*
X95569690Y-128801380D01*
X95474452Y-128944238D01*
X95379214Y-129039476D01*
X95283976Y-129087095D01*
X96807785Y-129801380D02*
X96236357Y-129801380D01*
X96522071Y-129801380D02*
X96522071Y-128801380D01*
X96426833Y-128944238D01*
X96331595Y-129039476D01*
X96236357Y-129087095D01*
X97426833Y-128801380D02*
X97522071Y-128801380D01*
X97617309Y-128849000D01*
X97664928Y-128896619D01*
X97712547Y-128991857D01*
X97760166Y-129182333D01*
X97760166Y-129420428D01*
X97712547Y-129610904D01*
X97664928Y-129706142D01*
X97617309Y-129753761D01*
X97522071Y-129801380D01*
X97426833Y-129801380D01*
X97331595Y-129753761D01*
X97283976Y-129706142D01*
X97236357Y-129610904D01*
X97188738Y-129420428D01*
X97188738Y-129182333D01*
X97236357Y-128991857D01*
X97283976Y-128896619D01*
X97331595Y-128849000D01*
X97426833Y-128801380D01*
X99474452Y-129801380D02*
X98903023Y-129801380D01*
X99188738Y-129801380D02*
X99188738Y-128801380D01*
X99093500Y-128944238D01*
X98998261Y-129039476D01*
X98903023Y-129087095D01*
X100617309Y-128753761D02*
X99760166Y-130039476D01*
X101093500Y-129229952D02*
X100998261Y-129182333D01*
X100950642Y-129134714D01*
X100903023Y-129039476D01*
X100903023Y-128991857D01*
X100950642Y-128896619D01*
X100998261Y-128849000D01*
X101093500Y-128801380D01*
X101283976Y-128801380D01*
X101379214Y-128849000D01*
X101426833Y-128896619D01*
X101474452Y-128991857D01*
X101474452Y-129039476D01*
X101426833Y-129134714D01*
X101379214Y-129182333D01*
X101283976Y-129229952D01*
X101093500Y-129229952D01*
X100998261Y-129277571D01*
X100950642Y-129325190D01*
X100903023Y-129420428D01*
X100903023Y-129610904D01*
X100950642Y-129706142D01*
X100998261Y-129753761D01*
X101093500Y-129801380D01*
X101283976Y-129801380D01*
X101379214Y-129753761D01*
X101426833Y-129706142D01*
X101474452Y-129610904D01*
X101474452Y-129420428D01*
X101426833Y-129325190D01*
X101379214Y-129277571D01*
X101283976Y-129229952D01*
X95522071Y-130451380D02*
X95617309Y-130451380D01*
X95712547Y-130499000D01*
X95760166Y-130546619D01*
X95807785Y-130641857D01*
X95855404Y-130832333D01*
X95855404Y-131070428D01*
X95807785Y-131260904D01*
X95760166Y-131356142D01*
X95712547Y-131403761D01*
X95617309Y-131451380D01*
X95522071Y-131451380D01*
X95426833Y-131403761D01*
X95379214Y-131356142D01*
X95331595Y-131260904D01*
X95283976Y-131070428D01*
X95283976Y-130832333D01*
X95331595Y-130641857D01*
X95379214Y-130546619D01*
X95426833Y-130499000D01*
X95522071Y-130451380D01*
X96474452Y-130451380D02*
X96569690Y-130451380D01*
X96664928Y-130499000D01*
X96712547Y-130546619D01*
X96760166Y-130641857D01*
X96807785Y-130832333D01*
X96807785Y-131070428D01*
X96760166Y-131260904D01*
X96712547Y-131356142D01*
X96664928Y-131403761D01*
X96569690Y-131451380D01*
X96474452Y-131451380D01*
X96379214Y-131403761D01*
X96331595Y-131356142D01*
X96283976Y-131260904D01*
X96236357Y-131070428D01*
X96236357Y-130832333D01*
X96283976Y-130641857D01*
X96331595Y-130546619D01*
X96379214Y-130499000D01*
X96474452Y-130451380D01*
X97760166Y-131451380D02*
X97188738Y-131451380D01*
X97474452Y-131451380D02*
X97474452Y-130451380D01*
X97379214Y-130594238D01*
X97283976Y-130689476D01*
X97188738Y-130737095D01*
X99474452Y-131451380D02*
X98903023Y-131451380D01*
X99188738Y-131451380D02*
X99188738Y-130451380D01*
X99093500Y-130594238D01*
X98998261Y-130689476D01*
X98903023Y-130737095D01*
X100617309Y-130403761D02*
X99760166Y-131689476D01*
X101474452Y-131451380D02*
X100903023Y-131451380D01*
X101188738Y-131451380D02*
X101188738Y-130451380D01*
X101093500Y-130594238D01*
X100998261Y-130689476D01*
X100903023Y-130737095D01*
X102331595Y-130451380D02*
X102141119Y-130451380D01*
X102045880Y-130499000D01*
X101998261Y-130546619D01*
X101903023Y-130689476D01*
X101855404Y-130879952D01*
X101855404Y-131260904D01*
X101903023Y-131356142D01*
X101950642Y-131403761D01*
X102045880Y-131451380D01*
X102236357Y-131451380D01*
X102331595Y-131403761D01*
X102379214Y-131356142D01*
X102426833Y-131260904D01*
X102426833Y-131022809D01*
X102379214Y-130927571D01*
X102331595Y-130879952D01*
X102236357Y-130832333D01*
X102045880Y-130832333D01*
X101950642Y-130879952D01*
X101903023Y-130927571D01*
X101855404Y-131022809D01*
X95855404Y-133101380D02*
X95283976Y-133101380D01*
X95569690Y-133101380D02*
X95569690Y-132101380D01*
X95474452Y-132244238D01*
X95379214Y-132339476D01*
X95283976Y-132387095D01*
X96474452Y-132101380D02*
X96569690Y-132101380D01*
X96664928Y-132149000D01*
X96712547Y-132196619D01*
X96760166Y-132291857D01*
X96807785Y-132482333D01*
X96807785Y-132720428D01*
X96760166Y-132910904D01*
X96712547Y-133006142D01*
X96664928Y-133053761D01*
X96569690Y-133101380D01*
X96474452Y-133101380D01*
X96379214Y-133053761D01*
X96331595Y-133006142D01*
X96283976Y-132910904D01*
X96236357Y-132720428D01*
X96236357Y-132482333D01*
X96283976Y-132291857D01*
X96331595Y-132196619D01*
X96379214Y-132149000D01*
X96474452Y-132101380D01*
X97760166Y-133101380D02*
X97188738Y-133101380D01*
X97474452Y-133101380D02*
X97474452Y-132101380D01*
X97379214Y-132244238D01*
X97283976Y-132339476D01*
X97188738Y-132387095D01*
X99474452Y-133101380D02*
X98903023Y-133101380D01*
X99188738Y-133101380D02*
X99188738Y-132101380D01*
X99093500Y-132244238D01*
X98998261Y-132339476D01*
X98903023Y-132387095D01*
X100617309Y-132053761D02*
X99760166Y-133339476D01*
X100855404Y-132101380D02*
X101474452Y-132101380D01*
X101141119Y-132482333D01*
X101283976Y-132482333D01*
X101379214Y-132529952D01*
X101426833Y-132577571D01*
X101474452Y-132672809D01*
X101474452Y-132910904D01*
X101426833Y-133006142D01*
X101379214Y-133053761D01*
X101283976Y-133101380D01*
X100998261Y-133101380D01*
X100903023Y-133053761D01*
X100855404Y-133006142D01*
X101855404Y-132196619D02*
X101903023Y-132149000D01*
X101998261Y-132101380D01*
X102236357Y-132101380D01*
X102331595Y-132149000D01*
X102379214Y-132196619D01*
X102426833Y-132291857D01*
X102426833Y-132387095D01*
X102379214Y-132529952D01*
X101807785Y-133101380D01*
X102426833Y-133101380D01*
X95789714Y-121610380D02*
X95218285Y-121610380D01*
X95504000Y-121610380D02*
X95504000Y-120610380D01*
X95408761Y-120753238D01*
X95313523Y-120848476D01*
X95218285Y-120896095D01*
X100790380Y-120610380D02*
X100885619Y-120610380D01*
X100980857Y-120658000D01*
X101028476Y-120705619D01*
X101076095Y-120800857D01*
X101123714Y-120991333D01*
X101123714Y-121229428D01*
X101076095Y-121419904D01*
X101028476Y-121515142D01*
X100980857Y-121562761D01*
X100885619Y-121610380D01*
X100790380Y-121610380D01*
X100695142Y-121562761D01*
X100647523Y-121515142D01*
X100599904Y-121419904D01*
X100552285Y-121229428D01*
X100552285Y-120991333D01*
X100599904Y-120800857D01*
X100647523Y-120705619D01*
X100695142Y-120658000D01*
X100790380Y-120610380D01*
X88701714Y-135072380D02*
X88701714Y-134072380D01*
X88939809Y-134072380D01*
X89082666Y-134120000D01*
X89177904Y-134215238D01*
X89225523Y-134310476D01*
X89273142Y-134500952D01*
X89273142Y-134643809D01*
X89225523Y-134834285D01*
X89177904Y-134929523D01*
X89082666Y-135024761D01*
X88939809Y-135072380D01*
X88701714Y-135072380D01*
X90225523Y-135072380D02*
X89654095Y-135072380D01*
X89939809Y-135072380D02*
X89939809Y-134072380D01*
X89844571Y-134215238D01*
X89749333Y-134310476D01*
X89654095Y-134358095D01*
X91130285Y-134072380D02*
X90654095Y-134072380D01*
X90606476Y-134548571D01*
X90654095Y-134500952D01*
X90749333Y-134453333D01*
X90987428Y-134453333D01*
X91082666Y-134500952D01*
X91130285Y-134548571D01*
X91177904Y-134643809D01*
X91177904Y-134881904D01*
X91130285Y-134977142D01*
X91082666Y-135024761D01*
X90987428Y-135072380D01*
X90749333Y-135072380D01*
X90654095Y-135024761D01*
X90606476Y-134977142D01*
X88923904Y-132532380D02*
X88923904Y-131532380D01*
X89162000Y-131532380D01*
X89304857Y-131580000D01*
X89400095Y-131675238D01*
X89447714Y-131770476D01*
X89495333Y-131960952D01*
X89495333Y-132103809D01*
X89447714Y-132294285D01*
X89400095Y-132389523D01*
X89304857Y-132484761D01*
X89162000Y-132532380D01*
X88923904Y-132532380D01*
X89876285Y-131627619D02*
X89923904Y-131580000D01*
X90019142Y-131532380D01*
X90257238Y-131532380D01*
X90352476Y-131580000D01*
X90400095Y-131627619D01*
X90447714Y-131722857D01*
X90447714Y-131818095D01*
X90400095Y-131960952D01*
X89828666Y-132532380D01*
X90447714Y-132532380D01*
X88923904Y-129992380D02*
X88923904Y-128992380D01*
X89162000Y-128992380D01*
X89304857Y-129040000D01*
X89400095Y-129135238D01*
X89447714Y-129230476D01*
X89495333Y-129420952D01*
X89495333Y-129563809D01*
X89447714Y-129754285D01*
X89400095Y-129849523D01*
X89304857Y-129944761D01*
X89162000Y-129992380D01*
X88923904Y-129992380D01*
X90352476Y-129325714D02*
X90352476Y-129992380D01*
X90114380Y-128944761D02*
X89876285Y-129659047D01*
X90495333Y-129659047D01*
X88923904Y-127452380D02*
X88923904Y-126452380D01*
X89162000Y-126452380D01*
X89304857Y-126500000D01*
X89400095Y-126595238D01*
X89447714Y-126690476D01*
X89495333Y-126880952D01*
X89495333Y-127023809D01*
X89447714Y-127214285D01*
X89400095Y-127309523D01*
X89304857Y-127404761D01*
X89162000Y-127452380D01*
X88923904Y-127452380D01*
X90400095Y-126452380D02*
X89923904Y-126452380D01*
X89876285Y-126928571D01*
X89923904Y-126880952D01*
X90019142Y-126833333D01*
X90257238Y-126833333D01*
X90352476Y-126880952D01*
X90400095Y-126928571D01*
X90447714Y-127023809D01*
X90447714Y-127261904D01*
X90400095Y-127357142D01*
X90352476Y-127404761D01*
X90257238Y-127452380D01*
X90019142Y-127452380D01*
X89923904Y-127404761D01*
X89876285Y-127357142D01*
X88701714Y-124912380D02*
X88701714Y-123912380D01*
X88939809Y-123912380D01*
X89082666Y-123960000D01*
X89177904Y-124055238D01*
X89225523Y-124150476D01*
X89273142Y-124340952D01*
X89273142Y-124483809D01*
X89225523Y-124674285D01*
X89177904Y-124769523D01*
X89082666Y-124864761D01*
X88939809Y-124912380D01*
X88701714Y-124912380D01*
X89654095Y-124007619D02*
X89701714Y-123960000D01*
X89796952Y-123912380D01*
X90035047Y-123912380D01*
X90130285Y-123960000D01*
X90177904Y-124007619D01*
X90225523Y-124102857D01*
X90225523Y-124198095D01*
X90177904Y-124340952D01*
X89606476Y-124912380D01*
X90225523Y-124912380D01*
X91177904Y-124912380D02*
X90606476Y-124912380D01*
X90892190Y-124912380D02*
X90892190Y-123912380D01*
X90796952Y-124055238D01*
X90701714Y-124150476D01*
X90606476Y-124198095D01*
X88701714Y-122372380D02*
X88701714Y-121372380D01*
X88939809Y-121372380D01*
X89082666Y-121420000D01*
X89177904Y-121515238D01*
X89225523Y-121610476D01*
X89273142Y-121800952D01*
X89273142Y-121943809D01*
X89225523Y-122134285D01*
X89177904Y-122229523D01*
X89082666Y-122324761D01*
X88939809Y-122372380D01*
X88701714Y-122372380D01*
X89654095Y-121467619D02*
X89701714Y-121420000D01*
X89796952Y-121372380D01*
X90035047Y-121372380D01*
X90130285Y-121420000D01*
X90177904Y-121467619D01*
X90225523Y-121562857D01*
X90225523Y-121658095D01*
X90177904Y-121800952D01*
X89606476Y-122372380D01*
X90225523Y-122372380D01*
X90606476Y-121467619D02*
X90654095Y-121420000D01*
X90749333Y-121372380D01*
X90987428Y-121372380D01*
X91082666Y-121420000D01*
X91130285Y-121467619D01*
X91177904Y-121562857D01*
X91177904Y-121658095D01*
X91130285Y-121800952D01*
X90558857Y-122372380D01*
X91177904Y-122372380D01*
X88701714Y-119832380D02*
X88701714Y-118832380D01*
X88939809Y-118832380D01*
X89082666Y-118880000D01*
X89177904Y-118975238D01*
X89225523Y-119070476D01*
X89273142Y-119260952D01*
X89273142Y-119403809D01*
X89225523Y-119594285D01*
X89177904Y-119689523D01*
X89082666Y-119784761D01*
X88939809Y-119832380D01*
X88701714Y-119832380D01*
X89654095Y-118927619D02*
X89701714Y-118880000D01*
X89796952Y-118832380D01*
X90035047Y-118832380D01*
X90130285Y-118880000D01*
X90177904Y-118927619D01*
X90225523Y-119022857D01*
X90225523Y-119118095D01*
X90177904Y-119260952D01*
X89606476Y-119832380D01*
X90225523Y-119832380D01*
X90558857Y-118832380D02*
X91177904Y-118832380D01*
X90844571Y-119213333D01*
X90987428Y-119213333D01*
X91082666Y-119260952D01*
X91130285Y-119308571D01*
X91177904Y-119403809D01*
X91177904Y-119641904D01*
X91130285Y-119737142D01*
X91082666Y-119784761D01*
X90987428Y-119832380D01*
X90701714Y-119832380D01*
X90606476Y-119784761D01*
X90558857Y-119737142D01*
X88701714Y-117292380D02*
X88701714Y-116292380D01*
X88939809Y-116292380D01*
X89082666Y-116340000D01*
X89177904Y-116435238D01*
X89225523Y-116530476D01*
X89273142Y-116720952D01*
X89273142Y-116863809D01*
X89225523Y-117054285D01*
X89177904Y-117149523D01*
X89082666Y-117244761D01*
X88939809Y-117292380D01*
X88701714Y-117292380D01*
X90225523Y-117292380D02*
X89654095Y-117292380D01*
X89939809Y-117292380D02*
X89939809Y-116292380D01*
X89844571Y-116435238D01*
X89749333Y-116530476D01*
X89654095Y-116578095D01*
X90558857Y-116292380D02*
X91177904Y-116292380D01*
X90844571Y-116673333D01*
X90987428Y-116673333D01*
X91082666Y-116720952D01*
X91130285Y-116768571D01*
X91177904Y-116863809D01*
X91177904Y-117101904D01*
X91130285Y-117197142D01*
X91082666Y-117244761D01*
X90987428Y-117292380D01*
X90701714Y-117292380D01*
X90606476Y-117244761D01*
X90558857Y-117197142D01*
X88701714Y-114752380D02*
X88701714Y-113752380D01*
X88939809Y-113752380D01*
X89082666Y-113800000D01*
X89177904Y-113895238D01*
X89225523Y-113990476D01*
X89273142Y-114180952D01*
X89273142Y-114323809D01*
X89225523Y-114514285D01*
X89177904Y-114609523D01*
X89082666Y-114704761D01*
X88939809Y-114752380D01*
X88701714Y-114752380D01*
X90225523Y-114752380D02*
X89654095Y-114752380D01*
X89939809Y-114752380D02*
X89939809Y-113752380D01*
X89844571Y-113895238D01*
X89749333Y-113990476D01*
X89654095Y-114038095D01*
X91082666Y-114085714D02*
X91082666Y-114752380D01*
X90844571Y-113704761D02*
X90606476Y-114419047D01*
X91225523Y-114419047D01*
X88701714Y-112212380D02*
X88701714Y-111212380D01*
X88939809Y-111212380D01*
X89082666Y-111260000D01*
X89177904Y-111355238D01*
X89225523Y-111450476D01*
X89273142Y-111640952D01*
X89273142Y-111783809D01*
X89225523Y-111974285D01*
X89177904Y-112069523D01*
X89082666Y-112164761D01*
X88939809Y-112212380D01*
X88701714Y-112212380D01*
X89654095Y-111307619D02*
X89701714Y-111260000D01*
X89796952Y-111212380D01*
X90035047Y-111212380D01*
X90130285Y-111260000D01*
X90177904Y-111307619D01*
X90225523Y-111402857D01*
X90225523Y-111498095D01*
X90177904Y-111640952D01*
X89606476Y-112212380D01*
X90225523Y-112212380D01*
X90558857Y-111212380D02*
X91225523Y-111212380D01*
X90796952Y-112212380D01*
X88701714Y-109672380D02*
X88701714Y-108672380D01*
X88939809Y-108672380D01*
X89082666Y-108720000D01*
X89177904Y-108815238D01*
X89225523Y-108910476D01*
X89273142Y-109100952D01*
X89273142Y-109243809D01*
X89225523Y-109434285D01*
X89177904Y-109529523D01*
X89082666Y-109624761D01*
X88939809Y-109672380D01*
X88701714Y-109672380D01*
X89654095Y-108767619D02*
X89701714Y-108720000D01*
X89796952Y-108672380D01*
X90035047Y-108672380D01*
X90130285Y-108720000D01*
X90177904Y-108767619D01*
X90225523Y-108862857D01*
X90225523Y-108958095D01*
X90177904Y-109100952D01*
X89606476Y-109672380D01*
X90225523Y-109672380D01*
X91082666Y-108672380D02*
X90892190Y-108672380D01*
X90796952Y-108720000D01*
X90749333Y-108767619D01*
X90654095Y-108910476D01*
X90606476Y-109100952D01*
X90606476Y-109481904D01*
X90654095Y-109577142D01*
X90701714Y-109624761D01*
X90796952Y-109672380D01*
X90987428Y-109672380D01*
X91082666Y-109624761D01*
X91130285Y-109577142D01*
X91177904Y-109481904D01*
X91177904Y-109243809D01*
X91130285Y-109148571D01*
X91082666Y-109100952D01*
X90987428Y-109053333D01*
X90796952Y-109053333D01*
X90701714Y-109100952D01*
X90654095Y-109148571D01*
X90606476Y-109243809D01*
X88701714Y-107132380D02*
X88701714Y-106132380D01*
X88939809Y-106132380D01*
X89082666Y-106180000D01*
X89177904Y-106275238D01*
X89225523Y-106370476D01*
X89273142Y-106560952D01*
X89273142Y-106703809D01*
X89225523Y-106894285D01*
X89177904Y-106989523D01*
X89082666Y-107084761D01*
X88939809Y-107132380D01*
X88701714Y-107132380D01*
X89606476Y-106132380D02*
X90225523Y-106132380D01*
X89892190Y-106513333D01*
X90035047Y-106513333D01*
X90130285Y-106560952D01*
X90177904Y-106608571D01*
X90225523Y-106703809D01*
X90225523Y-106941904D01*
X90177904Y-107037142D01*
X90130285Y-107084761D01*
X90035047Y-107132380D01*
X89749333Y-107132380D01*
X89654095Y-107084761D01*
X89606476Y-107037142D01*
X91082666Y-106465714D02*
X91082666Y-107132380D01*
X90844571Y-106084761D02*
X90606476Y-106799047D01*
X91225523Y-106799047D01*
D11*
X120650000Y-109220000D02*
X120650000Y-106680000D01*
X121920000Y-109220000D02*
X120650000Y-109220000D01*
X121920000Y-106680000D02*
X121920000Y-109220000D01*
X120650000Y-106680000D02*
X121920000Y-106680000D01*
X119380000Y-106680000D02*
X118110000Y-106680000D01*
X119380000Y-109220000D02*
X119380000Y-106680000D01*
X118110000Y-109220000D02*
X119380000Y-109220000D01*
X118110000Y-106680000D02*
X118110000Y-109220000D01*
X116840000Y-106680000D02*
X115570000Y-106680000D01*
X116840000Y-109220000D02*
X116840000Y-106680000D01*
X115570000Y-109220000D02*
X116840000Y-109220000D01*
X115570000Y-106680000D02*
X115570000Y-109220000D01*
X114300000Y-107950000D02*
G75*
G03X114300000Y-107950000I-1270000J0D01*
G01*
X120650000Y-121920000D02*
X113030000Y-121920000D01*
X120650000Y-116840000D02*
X120650000Y-121920000D01*
X113030000Y-116840000D02*
X120650000Y-116840000D01*
X113030000Y-121920000D02*
X113030000Y-116840000D01*
X109220000Y-125730000D02*
X109220000Y-105410000D01*
X124460000Y-125730000D02*
X109220000Y-125730000D01*
X124460000Y-105410000D02*
X124460000Y-125730000D01*
X109220000Y-105410000D02*
X124460000Y-105410000D01*
X120650000Y-134620000D02*
X120650000Y-132080000D01*
X121920000Y-134620000D02*
X120650000Y-134620000D01*
X121920000Y-132080000D02*
X121920000Y-134620000D01*
X120650000Y-132080000D02*
X121920000Y-132080000D01*
X119380000Y-132080000D02*
X118110000Y-132080000D01*
X119380000Y-134620000D02*
X119380000Y-132080000D01*
X118110000Y-134620000D02*
X119380000Y-134620000D01*
X118110000Y-132080000D02*
X118110000Y-134620000D01*
X116840000Y-132080000D02*
X115570000Y-132080000D01*
X116840000Y-134620000D02*
X116840000Y-132080000D01*
X115570000Y-134620000D02*
X116840000Y-134620000D01*
X115570000Y-132080000D02*
X115570000Y-134620000D01*
X114300000Y-133350000D02*
G75*
G03X114300000Y-133350000I-1270000J0D01*
G01*
X120650000Y-147320000D02*
X113030000Y-147320000D01*
X120650000Y-142240000D02*
X120650000Y-147320000D01*
X113030000Y-142240000D02*
X120650000Y-142240000D01*
X113030000Y-147320000D02*
X113030000Y-142240000D01*
X109220000Y-151130000D02*
X109220000Y-130810000D01*
X124460000Y-151130000D02*
X109220000Y-151130000D01*
X124460000Y-130810000D02*
X124460000Y-151130000D01*
X109220000Y-130810000D02*
X124460000Y-130810000D01*
D10*
X71120000Y-160020000D02*
X63500000Y-160020000D01*
X71120000Y-154940000D02*
X71120000Y-160020000D01*
X63500000Y-154940000D02*
X71120000Y-154940000D01*
X63500000Y-160020000D02*
X63500000Y-154940000D01*
X82550000Y-157480000D02*
X82550000Y-104140000D01*
X52070000Y-157480000D02*
X82550000Y-157480000D01*
X52070000Y-104140000D02*
X52070000Y-157480000D01*
X82550000Y-104140000D02*
X52070000Y-104140000D01*
D11*
X134670000Y-123880000D02*
X134670000Y-134730000D01*
X139770000Y-123880000D02*
X134670000Y-123880000D01*
X139470000Y-124380000D02*
X139770000Y-123880000D01*
X144870000Y-124380000D02*
X139470000Y-124380000D01*
X144620000Y-123880000D02*
X144870000Y-124380000D01*
X144670000Y-123880000D02*
X144620000Y-123880000D01*
X146570000Y-123880000D02*
X144670000Y-123880000D01*
X146320000Y-124380000D02*
X146570000Y-123880000D01*
X147270000Y-124380000D02*
X146320000Y-124380000D01*
X147270000Y-134730000D02*
X147270000Y-124380000D01*
X134670000Y-134730000D02*
X147270000Y-134730000D01*
X129540000Y-120710000D02*
X128210000Y-120710000D01*
X128210000Y-120710000D02*
X128210000Y-119380000D01*
X128210000Y-118110000D02*
X128210000Y-110430000D01*
X130870000Y-110430000D02*
X128210000Y-110430000D01*
X130870000Y-118110000D02*
X130870000Y-110430000D01*
X130870000Y-118110000D02*
X128210000Y-118110000D01*
X129540000Y-146110000D02*
X128210000Y-146110000D01*
X128210000Y-146110000D02*
X128210000Y-144780000D01*
X128210000Y-143510000D02*
X128210000Y-135830000D01*
X130870000Y-135830000D02*
X128210000Y-135830000D01*
X130870000Y-143510000D02*
X130870000Y-135830000D01*
X130870000Y-143510000D02*
X128210000Y-143510000D01*
X101990000Y-118104759D02*
X101990000Y-119434759D01*
X101990000Y-119434759D02*
X100660000Y-119434759D01*
X99390000Y-119434759D02*
X94250000Y-119434759D01*
X94250000Y-116774759D02*
X94250000Y-119434759D01*
X99390000Y-116774759D02*
X94250000Y-116774759D01*
X99390000Y-116774759D02*
X99390000Y-119434759D01*
X101990000Y-113504759D02*
X101990000Y-114834759D01*
X101990000Y-114834759D02*
X100660000Y-114834759D01*
X99390000Y-114834759D02*
X94250000Y-114834759D01*
X94250000Y-112174759D02*
X94250000Y-114834759D01*
X99390000Y-112174759D02*
X94250000Y-112174759D01*
X99390000Y-112174759D02*
X99390000Y-114834759D01*
X101990000Y-108904759D02*
X101990000Y-110234759D01*
X101990000Y-110234759D02*
X100660000Y-110234759D01*
X99390000Y-110234759D02*
X94250000Y-110234759D01*
X94250000Y-107574759D02*
X94250000Y-110234759D01*
X99390000Y-107574759D02*
X94250000Y-107574759D01*
X99390000Y-107574759D02*
X99390000Y-110234759D01*
X102870000Y-138370000D02*
X104200000Y-138370000D01*
X104200000Y-138370000D02*
X104200000Y-139700000D01*
X104200000Y-140970000D02*
X104200000Y-148650000D01*
X101540000Y-148650000D02*
X104200000Y-148650000D01*
X101540000Y-140970000D02*
X101540000Y-148650000D01*
X101540000Y-140970000D02*
X104200000Y-140970000D01*
X99060000Y-138370000D02*
X100390000Y-138370000D01*
X100390000Y-138370000D02*
X100390000Y-139700000D01*
X100390000Y-140970000D02*
X100390000Y-148650000D01*
X97730000Y-148650000D02*
X100390000Y-148650000D01*
X97730000Y-140970000D02*
X97730000Y-148650000D01*
X97730000Y-140970000D02*
X100390000Y-140970000D01*
X95250000Y-138370000D02*
X96580000Y-138370000D01*
X96580000Y-138370000D02*
X96580000Y-139700000D01*
X96580000Y-140970000D02*
X96580000Y-148650000D01*
X93920000Y-148650000D02*
X96580000Y-148650000D01*
X93920000Y-140970000D02*
X93920000Y-148650000D01*
X93920000Y-140970000D02*
X96580000Y-140970000D01*
X86360000Y-135950000D02*
X85030000Y-135950000D01*
X85030000Y-135950000D02*
X85030000Y-134620000D01*
X85030000Y-133350000D02*
X85030000Y-105350000D01*
X87690000Y-105350000D02*
X85030000Y-105350000D01*
X87690000Y-133350000D02*
X87690000Y-105350000D01*
X87690000Y-133350000D02*
X85030000Y-133350000D01*
X132684759Y-145166000D02*
X132684759Y-145796000D01*
X132369759Y-145481000D02*
X132999759Y-145481000D01*
X139111000Y-146918000D02*
X139111000Y-147722000D01*
X139071000Y-146687000D02*
X139071000Y-147953000D01*
X139031000Y-146518000D02*
X139031000Y-148122000D01*
X138991000Y-146380000D02*
X138991000Y-148260000D01*
X138951000Y-146261000D02*
X138951000Y-148379000D01*
X138911000Y-146155000D02*
X138911000Y-148485000D01*
X138871000Y-146058000D02*
X138871000Y-148582000D01*
X138831000Y-145970000D02*
X138831000Y-148670000D01*
X138791000Y-145888000D02*
X138791000Y-148752000D01*
X138751000Y-145811000D02*
X138751000Y-148829000D01*
X138711000Y-145739000D02*
X138711000Y-148901000D01*
X138671000Y-145670000D02*
X138671000Y-148970000D01*
X138631000Y-145606000D02*
X138631000Y-149034000D01*
X138591000Y-145544000D02*
X138591000Y-149096000D01*
X138551000Y-145486000D02*
X138551000Y-149154000D01*
X138511000Y-145430000D02*
X138511000Y-149210000D01*
X138471000Y-145376000D02*
X138471000Y-149264000D01*
X138431000Y-145325000D02*
X138431000Y-149315000D01*
X138391000Y-145276000D02*
X138391000Y-149364000D01*
X138351000Y-145228000D02*
X138351000Y-149412000D01*
X138311000Y-145183000D02*
X138311000Y-149457000D01*
X138271000Y-145138000D02*
X138271000Y-149502000D01*
X138231000Y-145096000D02*
X138231000Y-149544000D01*
X138191000Y-145055000D02*
X138191000Y-149585000D01*
X138151000Y-148360000D02*
X138151000Y-149625000D01*
X138151000Y-145015000D02*
X138151000Y-146280000D01*
X138111000Y-148360000D02*
X138111000Y-149663000D01*
X138111000Y-144977000D02*
X138111000Y-146280000D01*
X138071000Y-148360000D02*
X138071000Y-149700000D01*
X138071000Y-144940000D02*
X138071000Y-146280000D01*
X138031000Y-148360000D02*
X138031000Y-149736000D01*
X138031000Y-144904000D02*
X138031000Y-146280000D01*
X137991000Y-148360000D02*
X137991000Y-149770000D01*
X137991000Y-144870000D02*
X137991000Y-146280000D01*
X137951000Y-148360000D02*
X137951000Y-149804000D01*
X137951000Y-144836000D02*
X137951000Y-146280000D01*
X137911000Y-148360000D02*
X137911000Y-149836000D01*
X137911000Y-144804000D02*
X137911000Y-146280000D01*
X137871000Y-148360000D02*
X137871000Y-149868000D01*
X137871000Y-144772000D02*
X137871000Y-146280000D01*
X137831000Y-148360000D02*
X137831000Y-149898000D01*
X137831000Y-144742000D02*
X137831000Y-146280000D01*
X137791000Y-148360000D02*
X137791000Y-149927000D01*
X137791000Y-144713000D02*
X137791000Y-146280000D01*
X137751000Y-148360000D02*
X137751000Y-149956000D01*
X137751000Y-144684000D02*
X137751000Y-146280000D01*
X137711000Y-148360000D02*
X137711000Y-149984000D01*
X137711000Y-144656000D02*
X137711000Y-146280000D01*
X137671000Y-148360000D02*
X137671000Y-150010000D01*
X137671000Y-144630000D02*
X137671000Y-146280000D01*
X137631000Y-148360000D02*
X137631000Y-150036000D01*
X137631000Y-144604000D02*
X137631000Y-146280000D01*
X137591000Y-148360000D02*
X137591000Y-150062000D01*
X137591000Y-144578000D02*
X137591000Y-146280000D01*
X137551000Y-148360000D02*
X137551000Y-150086000D01*
X137551000Y-144554000D02*
X137551000Y-146280000D01*
X137511000Y-148360000D02*
X137511000Y-150110000D01*
X137511000Y-144530000D02*
X137511000Y-146280000D01*
X137471000Y-148360000D02*
X137471000Y-150132000D01*
X137471000Y-144508000D02*
X137471000Y-146280000D01*
X137431000Y-148360000D02*
X137431000Y-150154000D01*
X137431000Y-144486000D02*
X137431000Y-146280000D01*
X137391000Y-148360000D02*
X137391000Y-150176000D01*
X137391000Y-144464000D02*
X137391000Y-146280000D01*
X137351000Y-148360000D02*
X137351000Y-150196000D01*
X137351000Y-144444000D02*
X137351000Y-146280000D01*
X137311000Y-148360000D02*
X137311000Y-150216000D01*
X137311000Y-144424000D02*
X137311000Y-146280000D01*
X137271000Y-148360000D02*
X137271000Y-150236000D01*
X137271000Y-144404000D02*
X137271000Y-146280000D01*
X137231000Y-148360000D02*
X137231000Y-150254000D01*
X137231000Y-144386000D02*
X137231000Y-146280000D01*
X137191000Y-148360000D02*
X137191000Y-150272000D01*
X137191000Y-144368000D02*
X137191000Y-146280000D01*
X137151000Y-148360000D02*
X137151000Y-150290000D01*
X137151000Y-144350000D02*
X137151000Y-146280000D01*
X137111000Y-148360000D02*
X137111000Y-150306000D01*
X137111000Y-144334000D02*
X137111000Y-146280000D01*
X137071000Y-148360000D02*
X137071000Y-150322000D01*
X137071000Y-144318000D02*
X137071000Y-146280000D01*
X137031000Y-148360000D02*
X137031000Y-150338000D01*
X137031000Y-144302000D02*
X137031000Y-146280000D01*
X136991000Y-148360000D02*
X136991000Y-150353000D01*
X136991000Y-144287000D02*
X136991000Y-146280000D01*
X136951000Y-148360000D02*
X136951000Y-150367000D01*
X136951000Y-144273000D02*
X136951000Y-146280000D01*
X136911000Y-148360000D02*
X136911000Y-150381000D01*
X136911000Y-144259000D02*
X136911000Y-146280000D01*
X136871000Y-148360000D02*
X136871000Y-150394000D01*
X136871000Y-144246000D02*
X136871000Y-146280000D01*
X136831000Y-148360000D02*
X136831000Y-150406000D01*
X136831000Y-144234000D02*
X136831000Y-146280000D01*
X136791000Y-148360000D02*
X136791000Y-150418000D01*
X136791000Y-144222000D02*
X136791000Y-146280000D01*
X136751000Y-148360000D02*
X136751000Y-150430000D01*
X136751000Y-144210000D02*
X136751000Y-146280000D01*
X136711000Y-148360000D02*
X136711000Y-150441000D01*
X136711000Y-144199000D02*
X136711000Y-146280000D01*
X136671000Y-148360000D02*
X136671000Y-150451000D01*
X136671000Y-144189000D02*
X136671000Y-146280000D01*
X136631000Y-148360000D02*
X136631000Y-150461000D01*
X136631000Y-144179000D02*
X136631000Y-146280000D01*
X136591000Y-148360000D02*
X136591000Y-150470000D01*
X136591000Y-144170000D02*
X136591000Y-146280000D01*
X136550000Y-148360000D02*
X136550000Y-150479000D01*
X136550000Y-144161000D02*
X136550000Y-146280000D01*
X136510000Y-148360000D02*
X136510000Y-150487000D01*
X136510000Y-144153000D02*
X136510000Y-146280000D01*
X136470000Y-148360000D02*
X136470000Y-150495000D01*
X136470000Y-144145000D02*
X136470000Y-146280000D01*
X136430000Y-148360000D02*
X136430000Y-150502000D01*
X136430000Y-144138000D02*
X136430000Y-146280000D01*
X136390000Y-148360000D02*
X136390000Y-150509000D01*
X136390000Y-144131000D02*
X136390000Y-146280000D01*
X136350000Y-148360000D02*
X136350000Y-150515000D01*
X136350000Y-144125000D02*
X136350000Y-146280000D01*
X136310000Y-148360000D02*
X136310000Y-150521000D01*
X136310000Y-144119000D02*
X136310000Y-146280000D01*
X136270000Y-148360000D02*
X136270000Y-150526000D01*
X136270000Y-144114000D02*
X136270000Y-146280000D01*
X136230000Y-148360000D02*
X136230000Y-150531000D01*
X136230000Y-144109000D02*
X136230000Y-146280000D01*
X136190000Y-148360000D02*
X136190000Y-150535000D01*
X136190000Y-144105000D02*
X136190000Y-146280000D01*
X136150000Y-148360000D02*
X136150000Y-150538000D01*
X136150000Y-144102000D02*
X136150000Y-146280000D01*
X136110000Y-148360000D02*
X136110000Y-150542000D01*
X136110000Y-144098000D02*
X136110000Y-146280000D01*
X136070000Y-144096000D02*
X136070000Y-150544000D01*
X136030000Y-144093000D02*
X136030000Y-150547000D01*
X135990000Y-144092000D02*
X135990000Y-150548000D01*
X135950000Y-144090000D02*
X135950000Y-150550000D01*
X135910000Y-144090000D02*
X135910000Y-150550000D01*
X135870000Y-144090000D02*
X135870000Y-150550000D01*
X139140000Y-147320000D02*
G75*
G03X139140000Y-147320000I-3270000J0D01*
G01*
X132684759Y-105796000D02*
X132684759Y-106426000D01*
X132369759Y-106111000D02*
X132999759Y-106111000D01*
X139111000Y-107548000D02*
X139111000Y-108352000D01*
X139071000Y-107317000D02*
X139071000Y-108583000D01*
X139031000Y-107148000D02*
X139031000Y-108752000D01*
X138991000Y-107010000D02*
X138991000Y-108890000D01*
X138951000Y-106891000D02*
X138951000Y-109009000D01*
X138911000Y-106785000D02*
X138911000Y-109115000D01*
X138871000Y-106688000D02*
X138871000Y-109212000D01*
X138831000Y-106600000D02*
X138831000Y-109300000D01*
X138791000Y-106518000D02*
X138791000Y-109382000D01*
X138751000Y-106441000D02*
X138751000Y-109459000D01*
X138711000Y-106369000D02*
X138711000Y-109531000D01*
X138671000Y-106300000D02*
X138671000Y-109600000D01*
X138631000Y-106236000D02*
X138631000Y-109664000D01*
X138591000Y-106174000D02*
X138591000Y-109726000D01*
X138551000Y-106116000D02*
X138551000Y-109784000D01*
X138511000Y-106060000D02*
X138511000Y-109840000D01*
X138471000Y-106006000D02*
X138471000Y-109894000D01*
X138431000Y-105955000D02*
X138431000Y-109945000D01*
X138391000Y-105906000D02*
X138391000Y-109994000D01*
X138351000Y-105858000D02*
X138351000Y-110042000D01*
X138311000Y-105813000D02*
X138311000Y-110087000D01*
X138271000Y-105768000D02*
X138271000Y-110132000D01*
X138231000Y-105726000D02*
X138231000Y-110174000D01*
X138191000Y-105685000D02*
X138191000Y-110215000D01*
X138151000Y-108990000D02*
X138151000Y-110255000D01*
X138151000Y-105645000D02*
X138151000Y-106910000D01*
X138111000Y-108990000D02*
X138111000Y-110293000D01*
X138111000Y-105607000D02*
X138111000Y-106910000D01*
X138071000Y-108990000D02*
X138071000Y-110330000D01*
X138071000Y-105570000D02*
X138071000Y-106910000D01*
X138031000Y-108990000D02*
X138031000Y-110366000D01*
X138031000Y-105534000D02*
X138031000Y-106910000D01*
X137991000Y-108990000D02*
X137991000Y-110400000D01*
X137991000Y-105500000D02*
X137991000Y-106910000D01*
X137951000Y-108990000D02*
X137951000Y-110434000D01*
X137951000Y-105466000D02*
X137951000Y-106910000D01*
X137911000Y-108990000D02*
X137911000Y-110466000D01*
X137911000Y-105434000D02*
X137911000Y-106910000D01*
X137871000Y-108990000D02*
X137871000Y-110498000D01*
X137871000Y-105402000D02*
X137871000Y-106910000D01*
X137831000Y-108990000D02*
X137831000Y-110528000D01*
X137831000Y-105372000D02*
X137831000Y-106910000D01*
X137791000Y-108990000D02*
X137791000Y-110557000D01*
X137791000Y-105343000D02*
X137791000Y-106910000D01*
X137751000Y-108990000D02*
X137751000Y-110586000D01*
X137751000Y-105314000D02*
X137751000Y-106910000D01*
X137711000Y-108990000D02*
X137711000Y-110614000D01*
X137711000Y-105286000D02*
X137711000Y-106910000D01*
X137671000Y-108990000D02*
X137671000Y-110640000D01*
X137671000Y-105260000D02*
X137671000Y-106910000D01*
X137631000Y-108990000D02*
X137631000Y-110666000D01*
X137631000Y-105234000D02*
X137631000Y-106910000D01*
X137591000Y-108990000D02*
X137591000Y-110692000D01*
X137591000Y-105208000D02*
X137591000Y-106910000D01*
X137551000Y-108990000D02*
X137551000Y-110716000D01*
X137551000Y-105184000D02*
X137551000Y-106910000D01*
X137511000Y-108990000D02*
X137511000Y-110740000D01*
X137511000Y-105160000D02*
X137511000Y-106910000D01*
X137471000Y-108990000D02*
X137471000Y-110762000D01*
X137471000Y-105138000D02*
X137471000Y-106910000D01*
X137431000Y-108990000D02*
X137431000Y-110784000D01*
X137431000Y-105116000D02*
X137431000Y-106910000D01*
X137391000Y-108990000D02*
X137391000Y-110806000D01*
X137391000Y-105094000D02*
X137391000Y-106910000D01*
X137351000Y-108990000D02*
X137351000Y-110826000D01*
X137351000Y-105074000D02*
X137351000Y-106910000D01*
X137311000Y-108990000D02*
X137311000Y-110846000D01*
X137311000Y-105054000D02*
X137311000Y-106910000D01*
X137271000Y-108990000D02*
X137271000Y-110866000D01*
X137271000Y-105034000D02*
X137271000Y-106910000D01*
X137231000Y-108990000D02*
X137231000Y-110884000D01*
X137231000Y-105016000D02*
X137231000Y-106910000D01*
X137191000Y-108990000D02*
X137191000Y-110902000D01*
X137191000Y-104998000D02*
X137191000Y-106910000D01*
X137151000Y-108990000D02*
X137151000Y-110920000D01*
X137151000Y-104980000D02*
X137151000Y-106910000D01*
X137111000Y-108990000D02*
X137111000Y-110936000D01*
X137111000Y-104964000D02*
X137111000Y-106910000D01*
X137071000Y-108990000D02*
X137071000Y-110952000D01*
X137071000Y-104948000D02*
X137071000Y-106910000D01*
X137031000Y-108990000D02*
X137031000Y-110968000D01*
X137031000Y-104932000D02*
X137031000Y-106910000D01*
X136991000Y-108990000D02*
X136991000Y-110983000D01*
X136991000Y-104917000D02*
X136991000Y-106910000D01*
X136951000Y-108990000D02*
X136951000Y-110997000D01*
X136951000Y-104903000D02*
X136951000Y-106910000D01*
X136911000Y-108990000D02*
X136911000Y-111011000D01*
X136911000Y-104889000D02*
X136911000Y-106910000D01*
X136871000Y-108990000D02*
X136871000Y-111024000D01*
X136871000Y-104876000D02*
X136871000Y-106910000D01*
X136831000Y-108990000D02*
X136831000Y-111036000D01*
X136831000Y-104864000D02*
X136831000Y-106910000D01*
X136791000Y-108990000D02*
X136791000Y-111048000D01*
X136791000Y-104852000D02*
X136791000Y-106910000D01*
X136751000Y-108990000D02*
X136751000Y-111060000D01*
X136751000Y-104840000D02*
X136751000Y-106910000D01*
X136711000Y-108990000D02*
X136711000Y-111071000D01*
X136711000Y-104829000D02*
X136711000Y-106910000D01*
X136671000Y-108990000D02*
X136671000Y-111081000D01*
X136671000Y-104819000D02*
X136671000Y-106910000D01*
X136631000Y-108990000D02*
X136631000Y-111091000D01*
X136631000Y-104809000D02*
X136631000Y-106910000D01*
X136591000Y-108990000D02*
X136591000Y-111100000D01*
X136591000Y-104800000D02*
X136591000Y-106910000D01*
X136550000Y-108990000D02*
X136550000Y-111109000D01*
X136550000Y-104791000D02*
X136550000Y-106910000D01*
X136510000Y-108990000D02*
X136510000Y-111117000D01*
X136510000Y-104783000D02*
X136510000Y-106910000D01*
X136470000Y-108990000D02*
X136470000Y-111125000D01*
X136470000Y-104775000D02*
X136470000Y-106910000D01*
X136430000Y-108990000D02*
X136430000Y-111132000D01*
X136430000Y-104768000D02*
X136430000Y-106910000D01*
X136390000Y-108990000D02*
X136390000Y-111139000D01*
X136390000Y-104761000D02*
X136390000Y-106910000D01*
X136350000Y-108990000D02*
X136350000Y-111145000D01*
X136350000Y-104755000D02*
X136350000Y-106910000D01*
X136310000Y-108990000D02*
X136310000Y-111151000D01*
X136310000Y-104749000D02*
X136310000Y-106910000D01*
X136270000Y-108990000D02*
X136270000Y-111156000D01*
X136270000Y-104744000D02*
X136270000Y-106910000D01*
X136230000Y-108990000D02*
X136230000Y-111161000D01*
X136230000Y-104739000D02*
X136230000Y-106910000D01*
X136190000Y-108990000D02*
X136190000Y-111165000D01*
X136190000Y-104735000D02*
X136190000Y-106910000D01*
X136150000Y-108990000D02*
X136150000Y-111168000D01*
X136150000Y-104732000D02*
X136150000Y-106910000D01*
X136110000Y-108990000D02*
X136110000Y-111172000D01*
X136110000Y-104728000D02*
X136110000Y-106910000D01*
X136070000Y-104726000D02*
X136070000Y-111174000D01*
X136030000Y-104723000D02*
X136030000Y-111177000D01*
X135990000Y-104722000D02*
X135990000Y-111178000D01*
X135950000Y-104720000D02*
X135950000Y-111180000D01*
X135910000Y-104720000D02*
X135910000Y-111180000D01*
X135870000Y-104720000D02*
X135870000Y-111180000D01*
X139140000Y-107950000D02*
G75*
G03X139140000Y-107950000I-3270000J0D01*
G01*
X84424759Y-146436000D02*
X84424759Y-147066000D01*
X84109759Y-146751000D02*
X84739759Y-146751000D01*
X90851000Y-148188000D02*
X90851000Y-148992000D01*
X90811000Y-147957000D02*
X90811000Y-149223000D01*
X90771000Y-147788000D02*
X90771000Y-149392000D01*
X90731000Y-147650000D02*
X90731000Y-149530000D01*
X90691000Y-147531000D02*
X90691000Y-149649000D01*
X90651000Y-147425000D02*
X90651000Y-149755000D01*
X90611000Y-147328000D02*
X90611000Y-149852000D01*
X90571000Y-147240000D02*
X90571000Y-149940000D01*
X90531000Y-147158000D02*
X90531000Y-150022000D01*
X90491000Y-147081000D02*
X90491000Y-150099000D01*
X90451000Y-147009000D02*
X90451000Y-150171000D01*
X90411000Y-146940000D02*
X90411000Y-150240000D01*
X90371000Y-146876000D02*
X90371000Y-150304000D01*
X90331000Y-146814000D02*
X90331000Y-150366000D01*
X90291000Y-146756000D02*
X90291000Y-150424000D01*
X90251000Y-146700000D02*
X90251000Y-150480000D01*
X90211000Y-146646000D02*
X90211000Y-150534000D01*
X90171000Y-146595000D02*
X90171000Y-150585000D01*
X90131000Y-146546000D02*
X90131000Y-150634000D01*
X90091000Y-146498000D02*
X90091000Y-150682000D01*
X90051000Y-146453000D02*
X90051000Y-150727000D01*
X90011000Y-146408000D02*
X90011000Y-150772000D01*
X89971000Y-146366000D02*
X89971000Y-150814000D01*
X89931000Y-146325000D02*
X89931000Y-150855000D01*
X89891000Y-149630000D02*
X89891000Y-150895000D01*
X89891000Y-146285000D02*
X89891000Y-147550000D01*
X89851000Y-149630000D02*
X89851000Y-150933000D01*
X89851000Y-146247000D02*
X89851000Y-147550000D01*
X89811000Y-149630000D02*
X89811000Y-150970000D01*
X89811000Y-146210000D02*
X89811000Y-147550000D01*
X89771000Y-149630000D02*
X89771000Y-151006000D01*
X89771000Y-146174000D02*
X89771000Y-147550000D01*
X89731000Y-149630000D02*
X89731000Y-151040000D01*
X89731000Y-146140000D02*
X89731000Y-147550000D01*
X89691000Y-149630000D02*
X89691000Y-151074000D01*
X89691000Y-146106000D02*
X89691000Y-147550000D01*
X89651000Y-149630000D02*
X89651000Y-151106000D01*
X89651000Y-146074000D02*
X89651000Y-147550000D01*
X89611000Y-149630000D02*
X89611000Y-151138000D01*
X89611000Y-146042000D02*
X89611000Y-147550000D01*
X89571000Y-149630000D02*
X89571000Y-151168000D01*
X89571000Y-146012000D02*
X89571000Y-147550000D01*
X89531000Y-149630000D02*
X89531000Y-151197000D01*
X89531000Y-145983000D02*
X89531000Y-147550000D01*
X89491000Y-149630000D02*
X89491000Y-151226000D01*
X89491000Y-145954000D02*
X89491000Y-147550000D01*
X89451000Y-149630000D02*
X89451000Y-151254000D01*
X89451000Y-145926000D02*
X89451000Y-147550000D01*
X89411000Y-149630000D02*
X89411000Y-151280000D01*
X89411000Y-145900000D02*
X89411000Y-147550000D01*
X89371000Y-149630000D02*
X89371000Y-151306000D01*
X89371000Y-145874000D02*
X89371000Y-147550000D01*
X89331000Y-149630000D02*
X89331000Y-151332000D01*
X89331000Y-145848000D02*
X89331000Y-147550000D01*
X89291000Y-149630000D02*
X89291000Y-151356000D01*
X89291000Y-145824000D02*
X89291000Y-147550000D01*
X89251000Y-149630000D02*
X89251000Y-151380000D01*
X89251000Y-145800000D02*
X89251000Y-147550000D01*
X89211000Y-149630000D02*
X89211000Y-151402000D01*
X89211000Y-145778000D02*
X89211000Y-147550000D01*
X89171000Y-149630000D02*
X89171000Y-151424000D01*
X89171000Y-145756000D02*
X89171000Y-147550000D01*
X89131000Y-149630000D02*
X89131000Y-151446000D01*
X89131000Y-145734000D02*
X89131000Y-147550000D01*
X89091000Y-149630000D02*
X89091000Y-151466000D01*
X89091000Y-145714000D02*
X89091000Y-147550000D01*
X89051000Y-149630000D02*
X89051000Y-151486000D01*
X89051000Y-145694000D02*
X89051000Y-147550000D01*
X89011000Y-149630000D02*
X89011000Y-151506000D01*
X89011000Y-145674000D02*
X89011000Y-147550000D01*
X88971000Y-149630000D02*
X88971000Y-151524000D01*
X88971000Y-145656000D02*
X88971000Y-147550000D01*
X88931000Y-149630000D02*
X88931000Y-151542000D01*
X88931000Y-145638000D02*
X88931000Y-147550000D01*
X88891000Y-149630000D02*
X88891000Y-151560000D01*
X88891000Y-145620000D02*
X88891000Y-147550000D01*
X88851000Y-149630000D02*
X88851000Y-151576000D01*
X88851000Y-145604000D02*
X88851000Y-147550000D01*
X88811000Y-149630000D02*
X88811000Y-151592000D01*
X88811000Y-145588000D02*
X88811000Y-147550000D01*
X88771000Y-149630000D02*
X88771000Y-151608000D01*
X88771000Y-145572000D02*
X88771000Y-147550000D01*
X88731000Y-149630000D02*
X88731000Y-151623000D01*
X88731000Y-145557000D02*
X88731000Y-147550000D01*
X88691000Y-149630000D02*
X88691000Y-151637000D01*
X88691000Y-145543000D02*
X88691000Y-147550000D01*
X88651000Y-149630000D02*
X88651000Y-151651000D01*
X88651000Y-145529000D02*
X88651000Y-147550000D01*
X88611000Y-149630000D02*
X88611000Y-151664000D01*
X88611000Y-145516000D02*
X88611000Y-147550000D01*
X88571000Y-149630000D02*
X88571000Y-151676000D01*
X88571000Y-145504000D02*
X88571000Y-147550000D01*
X88531000Y-149630000D02*
X88531000Y-151688000D01*
X88531000Y-145492000D02*
X88531000Y-147550000D01*
X88491000Y-149630000D02*
X88491000Y-151700000D01*
X88491000Y-145480000D02*
X88491000Y-147550000D01*
X88451000Y-149630000D02*
X88451000Y-151711000D01*
X88451000Y-145469000D02*
X88451000Y-147550000D01*
X88411000Y-149630000D02*
X88411000Y-151721000D01*
X88411000Y-145459000D02*
X88411000Y-147550000D01*
X88371000Y-149630000D02*
X88371000Y-151731000D01*
X88371000Y-145449000D02*
X88371000Y-147550000D01*
X88331000Y-149630000D02*
X88331000Y-151740000D01*
X88331000Y-145440000D02*
X88331000Y-147550000D01*
X88290000Y-149630000D02*
X88290000Y-151749000D01*
X88290000Y-145431000D02*
X88290000Y-147550000D01*
X88250000Y-149630000D02*
X88250000Y-151757000D01*
X88250000Y-145423000D02*
X88250000Y-147550000D01*
X88210000Y-149630000D02*
X88210000Y-151765000D01*
X88210000Y-145415000D02*
X88210000Y-147550000D01*
X88170000Y-149630000D02*
X88170000Y-151772000D01*
X88170000Y-145408000D02*
X88170000Y-147550000D01*
X88130000Y-149630000D02*
X88130000Y-151779000D01*
X88130000Y-145401000D02*
X88130000Y-147550000D01*
X88090000Y-149630000D02*
X88090000Y-151785000D01*
X88090000Y-145395000D02*
X88090000Y-147550000D01*
X88050000Y-149630000D02*
X88050000Y-151791000D01*
X88050000Y-145389000D02*
X88050000Y-147550000D01*
X88010000Y-149630000D02*
X88010000Y-151796000D01*
X88010000Y-145384000D02*
X88010000Y-147550000D01*
X87970000Y-149630000D02*
X87970000Y-151801000D01*
X87970000Y-145379000D02*
X87970000Y-147550000D01*
X87930000Y-149630000D02*
X87930000Y-151805000D01*
X87930000Y-145375000D02*
X87930000Y-147550000D01*
X87890000Y-149630000D02*
X87890000Y-151808000D01*
X87890000Y-145372000D02*
X87890000Y-147550000D01*
X87850000Y-149630000D02*
X87850000Y-151812000D01*
X87850000Y-145368000D02*
X87850000Y-147550000D01*
X87810000Y-145366000D02*
X87810000Y-151814000D01*
X87770000Y-145363000D02*
X87770000Y-151817000D01*
X87730000Y-145362000D02*
X87730000Y-151818000D01*
X87690000Y-145360000D02*
X87690000Y-151820000D01*
X87650000Y-145360000D02*
X87650000Y-151820000D01*
X87610000Y-145360000D02*
X87610000Y-151820000D01*
X90880000Y-148590000D02*
G75*
G03X90880000Y-148590000I-3270000J0D01*
G01*
D10*
X116078095Y-115522380D02*
X116078095Y-116331904D01*
X116125714Y-116427142D01*
X116173333Y-116474761D01*
X116268571Y-116522380D01*
X116459047Y-116522380D01*
X116554285Y-116474761D01*
X116601904Y-116427142D01*
X116649523Y-116331904D01*
X116649523Y-115522380D01*
X117030476Y-115522380D02*
X117649523Y-115522380D01*
X117316190Y-115903333D01*
X117459047Y-115903333D01*
X117554285Y-115950952D01*
X117601904Y-115998571D01*
X117649523Y-116093809D01*
X117649523Y-116331904D01*
X117601904Y-116427142D01*
X117554285Y-116474761D01*
X117459047Y-116522380D01*
X117173333Y-116522380D01*
X117078095Y-116474761D01*
X117030476Y-116427142D01*
X106950000Y-124912380D02*
X106950000Y-123912380D01*
X107188095Y-123912380D01*
X107330952Y-123960000D01*
X107426190Y-124055238D01*
X107473809Y-124150476D01*
X107521428Y-124340952D01*
X107521428Y-124483809D01*
X107473809Y-124674285D01*
X107426190Y-124769523D01*
X107330952Y-124864761D01*
X107188095Y-124912380D01*
X106950000Y-124912380D01*
X107950000Y-124912380D02*
X107950000Y-123912380D01*
X108997619Y-124912380D02*
X108664285Y-124436190D01*
X108426190Y-124912380D02*
X108426190Y-123912380D01*
X108807142Y-123912380D01*
X108902380Y-123960000D01*
X108950000Y-124007619D01*
X108997619Y-124102857D01*
X108997619Y-124245714D01*
X108950000Y-124340952D01*
X108902380Y-124388571D01*
X108807142Y-124436190D01*
X108426190Y-124436190D01*
X106783333Y-122324761D02*
X106926190Y-122372380D01*
X107164285Y-122372380D01*
X107259523Y-122324761D01*
X107307142Y-122277142D01*
X107354761Y-122181904D01*
X107354761Y-122086666D01*
X107307142Y-121991428D01*
X107259523Y-121943809D01*
X107164285Y-121896190D01*
X106973809Y-121848571D01*
X106878571Y-121800952D01*
X106830952Y-121753333D01*
X106783333Y-121658095D01*
X106783333Y-121562857D01*
X106830952Y-121467619D01*
X106878571Y-121420000D01*
X106973809Y-121372380D01*
X107211904Y-121372380D01*
X107354761Y-121420000D01*
X107640476Y-121372380D02*
X108211904Y-121372380D01*
X107926190Y-122372380D02*
X107926190Y-121372380D01*
X108545238Y-122372380D02*
X108545238Y-121372380D01*
X108926190Y-121372380D01*
X109021428Y-121420000D01*
X109069047Y-121467619D01*
X109116666Y-121562857D01*
X109116666Y-121705714D01*
X109069047Y-121800952D01*
X109021428Y-121848571D01*
X108926190Y-121896190D01*
X108545238Y-121896190D01*
X106759523Y-119784761D02*
X106902380Y-119832380D01*
X107140476Y-119832380D01*
X107235714Y-119784761D01*
X107283333Y-119737142D01*
X107330952Y-119641904D01*
X107330952Y-119546666D01*
X107283333Y-119451428D01*
X107235714Y-119403809D01*
X107140476Y-119356190D01*
X106950000Y-119308571D01*
X106854761Y-119260952D01*
X106807142Y-119213333D01*
X106759523Y-119118095D01*
X106759523Y-119022857D01*
X106807142Y-118927619D01*
X106854761Y-118880000D01*
X106950000Y-118832380D01*
X107188095Y-118832380D01*
X107330952Y-118880000D01*
X108235714Y-119832380D02*
X107759523Y-119832380D01*
X107759523Y-118832380D01*
X108569047Y-119832380D02*
X108569047Y-118832380D01*
X108950000Y-118832380D01*
X109045238Y-118880000D01*
X109092857Y-118927619D01*
X109140476Y-119022857D01*
X109140476Y-119165714D01*
X109092857Y-119260952D01*
X109045238Y-119308571D01*
X108950000Y-119356190D01*
X108569047Y-119356190D01*
X107330952Y-117292380D02*
X106997619Y-116816190D01*
X106759523Y-117292380D02*
X106759523Y-116292380D01*
X107140476Y-116292380D01*
X107235714Y-116340000D01*
X107283333Y-116387619D01*
X107330952Y-116482857D01*
X107330952Y-116625714D01*
X107283333Y-116720952D01*
X107235714Y-116768571D01*
X107140476Y-116816190D01*
X106759523Y-116816190D01*
X107759523Y-116768571D02*
X108092857Y-116768571D01*
X108235714Y-117292380D02*
X107759523Y-117292380D01*
X107759523Y-116292380D01*
X108235714Y-116292380D01*
X108616666Y-117244761D02*
X108759523Y-117292380D01*
X108997619Y-117292380D01*
X109092857Y-117244761D01*
X109140476Y-117197142D01*
X109188095Y-117101904D01*
X109188095Y-117006666D01*
X109140476Y-116911428D01*
X109092857Y-116863809D01*
X108997619Y-116816190D01*
X108807142Y-116768571D01*
X108711904Y-116720952D01*
X108664285Y-116673333D01*
X108616666Y-116578095D01*
X108616666Y-116482857D01*
X108664285Y-116387619D01*
X108711904Y-116340000D01*
X108807142Y-116292380D01*
X109045238Y-116292380D01*
X109188095Y-116340000D01*
X107140476Y-114752380D02*
X107140476Y-113752380D01*
X107473809Y-114466666D01*
X107807142Y-113752380D01*
X107807142Y-114752380D01*
X108235714Y-113847619D02*
X108283333Y-113800000D01*
X108378571Y-113752380D01*
X108616666Y-113752380D01*
X108711904Y-113800000D01*
X108759523Y-113847619D01*
X108807142Y-113942857D01*
X108807142Y-114038095D01*
X108759523Y-114180952D01*
X108188095Y-114752380D01*
X108807142Y-114752380D01*
X107140476Y-112212380D02*
X107140476Y-111212380D01*
X107473809Y-111926666D01*
X107807142Y-111212380D01*
X107807142Y-112212380D01*
X108807142Y-112212380D02*
X108235714Y-112212380D01*
X108521428Y-112212380D02*
X108521428Y-111212380D01*
X108426190Y-111355238D01*
X108330952Y-111450476D01*
X108235714Y-111498095D01*
X107140476Y-109672380D02*
X107140476Y-108672380D01*
X107473809Y-109386666D01*
X107807142Y-108672380D01*
X107807142Y-109672380D01*
X108473809Y-108672380D02*
X108569047Y-108672380D01*
X108664285Y-108720000D01*
X108711904Y-108767619D01*
X108759523Y-108862857D01*
X108807142Y-109053333D01*
X108807142Y-109291428D01*
X108759523Y-109481904D01*
X108711904Y-109577142D01*
X108664285Y-109624761D01*
X108569047Y-109672380D01*
X108473809Y-109672380D01*
X108378571Y-109624761D01*
X108330952Y-109577142D01*
X108283333Y-109481904D01*
X108235714Y-109291428D01*
X108235714Y-109053333D01*
X108283333Y-108862857D01*
X108330952Y-108767619D01*
X108378571Y-108720000D01*
X108473809Y-108672380D01*
X107211904Y-106608571D02*
X107545238Y-106608571D01*
X107688095Y-107132380D02*
X107211904Y-107132380D01*
X107211904Y-106132380D01*
X107688095Y-106132380D01*
X108116666Y-107132380D02*
X108116666Y-106132380D01*
X108688095Y-107132380D01*
X108688095Y-106132380D01*
X124968095Y-123960000D02*
X124872857Y-123912380D01*
X124730000Y-123912380D01*
X124587142Y-123960000D01*
X124491904Y-124055238D01*
X124444285Y-124150476D01*
X124396666Y-124340952D01*
X124396666Y-124483809D01*
X124444285Y-124674285D01*
X124491904Y-124769523D01*
X124587142Y-124864761D01*
X124730000Y-124912380D01*
X124825238Y-124912380D01*
X124968095Y-124864761D01*
X125015714Y-124817142D01*
X125015714Y-124483809D01*
X124825238Y-124483809D01*
X125444285Y-124912380D02*
X125444285Y-123912380D01*
X126015714Y-124912380D01*
X126015714Y-123912380D01*
X126491904Y-124912380D02*
X126491904Y-123912380D01*
X126730000Y-123912380D01*
X126872857Y-123960000D01*
X126968095Y-124055238D01*
X127015714Y-124150476D01*
X127063333Y-124340952D01*
X127063333Y-124483809D01*
X127015714Y-124674285D01*
X126968095Y-124769523D01*
X126872857Y-124864761D01*
X126730000Y-124912380D01*
X126491904Y-124912380D01*
X124515714Y-121848571D02*
X124849047Y-121848571D01*
X124991904Y-122372380D02*
X124515714Y-122372380D01*
X124515714Y-121372380D01*
X124991904Y-121372380D01*
X125991904Y-122372380D02*
X125658571Y-121896190D01*
X125420476Y-122372380D02*
X125420476Y-121372380D01*
X125801428Y-121372380D01*
X125896666Y-121420000D01*
X125944285Y-121467619D01*
X125991904Y-121562857D01*
X125991904Y-121705714D01*
X125944285Y-121800952D01*
X125896666Y-121848571D01*
X125801428Y-121896190D01*
X125420476Y-121896190D01*
X126991904Y-122372380D02*
X126658571Y-121896190D01*
X126420476Y-122372380D02*
X126420476Y-121372380D01*
X126801428Y-121372380D01*
X126896666Y-121420000D01*
X126944285Y-121467619D01*
X126991904Y-121562857D01*
X126991904Y-121705714D01*
X126944285Y-121800952D01*
X126896666Y-121848571D01*
X126801428Y-121896190D01*
X126420476Y-121896190D01*
X125015714Y-119546666D02*
X125491904Y-119546666D01*
X124920476Y-119832380D02*
X125253809Y-118832380D01*
X125587142Y-119832380D01*
X125872857Y-118927619D02*
X125920476Y-118880000D01*
X126015714Y-118832380D01*
X126253809Y-118832380D01*
X126349047Y-118880000D01*
X126396666Y-118927619D01*
X126444285Y-119022857D01*
X126444285Y-119118095D01*
X126396666Y-119260952D01*
X125825238Y-119832380D01*
X126444285Y-119832380D01*
X125015714Y-117006666D02*
X125491904Y-117006666D01*
X124920476Y-117292380D02*
X125253809Y-116292380D01*
X125587142Y-117292380D01*
X126444285Y-117292380D02*
X125872857Y-117292380D01*
X126158571Y-117292380D02*
X126158571Y-116292380D01*
X126063333Y-116435238D01*
X125968095Y-116530476D01*
X125872857Y-116578095D01*
X125325238Y-114228571D02*
X125468095Y-114276190D01*
X125515714Y-114323809D01*
X125563333Y-114419047D01*
X125563333Y-114561904D01*
X125515714Y-114657142D01*
X125468095Y-114704761D01*
X125372857Y-114752380D01*
X124991904Y-114752380D01*
X124991904Y-113752380D01*
X125325238Y-113752380D01*
X125420476Y-113800000D01*
X125468095Y-113847619D01*
X125515714Y-113942857D01*
X125515714Y-114038095D01*
X125468095Y-114133333D01*
X125420476Y-114180952D01*
X125325238Y-114228571D01*
X124991904Y-114228571D01*
X126515714Y-114752380D02*
X125944285Y-114752380D01*
X126230000Y-114752380D02*
X126230000Y-113752380D01*
X126134761Y-113895238D01*
X126039523Y-113990476D01*
X125944285Y-114038095D01*
X125325238Y-111688571D02*
X125468095Y-111736190D01*
X125515714Y-111783809D01*
X125563333Y-111879047D01*
X125563333Y-112021904D01*
X125515714Y-112117142D01*
X125468095Y-112164761D01*
X125372857Y-112212380D01*
X124991904Y-112212380D01*
X124991904Y-111212380D01*
X125325238Y-111212380D01*
X125420476Y-111260000D01*
X125468095Y-111307619D01*
X125515714Y-111402857D01*
X125515714Y-111498095D01*
X125468095Y-111593333D01*
X125420476Y-111640952D01*
X125325238Y-111688571D01*
X124991904Y-111688571D01*
X125944285Y-111307619D02*
X125991904Y-111260000D01*
X126087142Y-111212380D01*
X126325238Y-111212380D01*
X126420476Y-111260000D01*
X126468095Y-111307619D01*
X126515714Y-111402857D01*
X126515714Y-111498095D01*
X126468095Y-111640952D01*
X125896666Y-112212380D01*
X126515714Y-112212380D01*
X124968095Y-108720000D02*
X124872857Y-108672380D01*
X124730000Y-108672380D01*
X124587142Y-108720000D01*
X124491904Y-108815238D01*
X124444285Y-108910476D01*
X124396666Y-109100952D01*
X124396666Y-109243809D01*
X124444285Y-109434285D01*
X124491904Y-109529523D01*
X124587142Y-109624761D01*
X124730000Y-109672380D01*
X124825238Y-109672380D01*
X124968095Y-109624761D01*
X125015714Y-109577142D01*
X125015714Y-109243809D01*
X124825238Y-109243809D01*
X125444285Y-109672380D02*
X125444285Y-108672380D01*
X126015714Y-109672380D01*
X126015714Y-108672380D01*
X126491904Y-109672380D02*
X126491904Y-108672380D01*
X126730000Y-108672380D01*
X126872857Y-108720000D01*
X126968095Y-108815238D01*
X127015714Y-108910476D01*
X127063333Y-109100952D01*
X127063333Y-109243809D01*
X127015714Y-109434285D01*
X126968095Y-109529523D01*
X126872857Y-109624761D01*
X126730000Y-109672380D01*
X126491904Y-109672380D01*
X124634761Y-106132380D02*
X124968095Y-107132380D01*
X125301428Y-106132380D01*
X125634761Y-107132380D02*
X125634761Y-106132380D01*
X126110952Y-107132380D02*
X126110952Y-106132380D01*
X126682380Y-107132380D01*
X126682380Y-106132380D01*
X116078095Y-140922380D02*
X116078095Y-141731904D01*
X116125714Y-141827142D01*
X116173333Y-141874761D01*
X116268571Y-141922380D01*
X116459047Y-141922380D01*
X116554285Y-141874761D01*
X116601904Y-141827142D01*
X116649523Y-141731904D01*
X116649523Y-140922380D01*
X117078095Y-141017619D02*
X117125714Y-140970000D01*
X117220952Y-140922380D01*
X117459047Y-140922380D01*
X117554285Y-140970000D01*
X117601904Y-141017619D01*
X117649523Y-141112857D01*
X117649523Y-141208095D01*
X117601904Y-141350952D01*
X117030476Y-141922380D01*
X117649523Y-141922380D01*
X106950000Y-150312380D02*
X106950000Y-149312380D01*
X107188095Y-149312380D01*
X107330952Y-149360000D01*
X107426190Y-149455238D01*
X107473809Y-149550476D01*
X107521428Y-149740952D01*
X107521428Y-149883809D01*
X107473809Y-150074285D01*
X107426190Y-150169523D01*
X107330952Y-150264761D01*
X107188095Y-150312380D01*
X106950000Y-150312380D01*
X107950000Y-150312380D02*
X107950000Y-149312380D01*
X108997619Y-150312380D02*
X108664285Y-149836190D01*
X108426190Y-150312380D02*
X108426190Y-149312380D01*
X108807142Y-149312380D01*
X108902380Y-149360000D01*
X108950000Y-149407619D01*
X108997619Y-149502857D01*
X108997619Y-149645714D01*
X108950000Y-149740952D01*
X108902380Y-149788571D01*
X108807142Y-149836190D01*
X108426190Y-149836190D01*
X106783333Y-147724761D02*
X106926190Y-147772380D01*
X107164285Y-147772380D01*
X107259523Y-147724761D01*
X107307142Y-147677142D01*
X107354761Y-147581904D01*
X107354761Y-147486666D01*
X107307142Y-147391428D01*
X107259523Y-147343809D01*
X107164285Y-147296190D01*
X106973809Y-147248571D01*
X106878571Y-147200952D01*
X106830952Y-147153333D01*
X106783333Y-147058095D01*
X106783333Y-146962857D01*
X106830952Y-146867619D01*
X106878571Y-146820000D01*
X106973809Y-146772380D01*
X107211904Y-146772380D01*
X107354761Y-146820000D01*
X107640476Y-146772380D02*
X108211904Y-146772380D01*
X107926190Y-147772380D02*
X107926190Y-146772380D01*
X108545238Y-147772380D02*
X108545238Y-146772380D01*
X108926190Y-146772380D01*
X109021428Y-146820000D01*
X109069047Y-146867619D01*
X109116666Y-146962857D01*
X109116666Y-147105714D01*
X109069047Y-147200952D01*
X109021428Y-147248571D01*
X108926190Y-147296190D01*
X108545238Y-147296190D01*
X106759523Y-145184761D02*
X106902380Y-145232380D01*
X107140476Y-145232380D01*
X107235714Y-145184761D01*
X107283333Y-145137142D01*
X107330952Y-145041904D01*
X107330952Y-144946666D01*
X107283333Y-144851428D01*
X107235714Y-144803809D01*
X107140476Y-144756190D01*
X106950000Y-144708571D01*
X106854761Y-144660952D01*
X106807142Y-144613333D01*
X106759523Y-144518095D01*
X106759523Y-144422857D01*
X106807142Y-144327619D01*
X106854761Y-144280000D01*
X106950000Y-144232380D01*
X107188095Y-144232380D01*
X107330952Y-144280000D01*
X108235714Y-145232380D02*
X107759523Y-145232380D01*
X107759523Y-144232380D01*
X108569047Y-145232380D02*
X108569047Y-144232380D01*
X108950000Y-144232380D01*
X109045238Y-144280000D01*
X109092857Y-144327619D01*
X109140476Y-144422857D01*
X109140476Y-144565714D01*
X109092857Y-144660952D01*
X109045238Y-144708571D01*
X108950000Y-144756190D01*
X108569047Y-144756190D01*
X107330952Y-142692380D02*
X106997619Y-142216190D01*
X106759523Y-142692380D02*
X106759523Y-141692380D01*
X107140476Y-141692380D01*
X107235714Y-141740000D01*
X107283333Y-141787619D01*
X107330952Y-141882857D01*
X107330952Y-142025714D01*
X107283333Y-142120952D01*
X107235714Y-142168571D01*
X107140476Y-142216190D01*
X106759523Y-142216190D01*
X107759523Y-142168571D02*
X108092857Y-142168571D01*
X108235714Y-142692380D02*
X107759523Y-142692380D01*
X107759523Y-141692380D01*
X108235714Y-141692380D01*
X108616666Y-142644761D02*
X108759523Y-142692380D01*
X108997619Y-142692380D01*
X109092857Y-142644761D01*
X109140476Y-142597142D01*
X109188095Y-142501904D01*
X109188095Y-142406666D01*
X109140476Y-142311428D01*
X109092857Y-142263809D01*
X108997619Y-142216190D01*
X108807142Y-142168571D01*
X108711904Y-142120952D01*
X108664285Y-142073333D01*
X108616666Y-141978095D01*
X108616666Y-141882857D01*
X108664285Y-141787619D01*
X108711904Y-141740000D01*
X108807142Y-141692380D01*
X109045238Y-141692380D01*
X109188095Y-141740000D01*
X107140476Y-140152380D02*
X107140476Y-139152380D01*
X107473809Y-139866666D01*
X107807142Y-139152380D01*
X107807142Y-140152380D01*
X108235714Y-139247619D02*
X108283333Y-139200000D01*
X108378571Y-139152380D01*
X108616666Y-139152380D01*
X108711904Y-139200000D01*
X108759523Y-139247619D01*
X108807142Y-139342857D01*
X108807142Y-139438095D01*
X108759523Y-139580952D01*
X108188095Y-140152380D01*
X108807142Y-140152380D01*
X107140476Y-137612380D02*
X107140476Y-136612380D01*
X107473809Y-137326666D01*
X107807142Y-136612380D01*
X107807142Y-137612380D01*
X108807142Y-137612380D02*
X108235714Y-137612380D01*
X108521428Y-137612380D02*
X108521428Y-136612380D01*
X108426190Y-136755238D01*
X108330952Y-136850476D01*
X108235714Y-136898095D01*
X107140476Y-135072380D02*
X107140476Y-134072380D01*
X107473809Y-134786666D01*
X107807142Y-134072380D01*
X107807142Y-135072380D01*
X108473809Y-134072380D02*
X108569047Y-134072380D01*
X108664285Y-134120000D01*
X108711904Y-134167619D01*
X108759523Y-134262857D01*
X108807142Y-134453333D01*
X108807142Y-134691428D01*
X108759523Y-134881904D01*
X108711904Y-134977142D01*
X108664285Y-135024761D01*
X108569047Y-135072380D01*
X108473809Y-135072380D01*
X108378571Y-135024761D01*
X108330952Y-134977142D01*
X108283333Y-134881904D01*
X108235714Y-134691428D01*
X108235714Y-134453333D01*
X108283333Y-134262857D01*
X108330952Y-134167619D01*
X108378571Y-134120000D01*
X108473809Y-134072380D01*
X107211904Y-132008571D02*
X107545238Y-132008571D01*
X107688095Y-132532380D02*
X107211904Y-132532380D01*
X107211904Y-131532380D01*
X107688095Y-131532380D01*
X108116666Y-132532380D02*
X108116666Y-131532380D01*
X108688095Y-132532380D01*
X108688095Y-131532380D01*
X124968095Y-149360000D02*
X124872857Y-149312380D01*
X124730000Y-149312380D01*
X124587142Y-149360000D01*
X124491904Y-149455238D01*
X124444285Y-149550476D01*
X124396666Y-149740952D01*
X124396666Y-149883809D01*
X124444285Y-150074285D01*
X124491904Y-150169523D01*
X124587142Y-150264761D01*
X124730000Y-150312380D01*
X124825238Y-150312380D01*
X124968095Y-150264761D01*
X125015714Y-150217142D01*
X125015714Y-149883809D01*
X124825238Y-149883809D01*
X125444285Y-150312380D02*
X125444285Y-149312380D01*
X126015714Y-150312380D01*
X126015714Y-149312380D01*
X126491904Y-150312380D02*
X126491904Y-149312380D01*
X126730000Y-149312380D01*
X126872857Y-149360000D01*
X126968095Y-149455238D01*
X127015714Y-149550476D01*
X127063333Y-149740952D01*
X127063333Y-149883809D01*
X127015714Y-150074285D01*
X126968095Y-150169523D01*
X126872857Y-150264761D01*
X126730000Y-150312380D01*
X126491904Y-150312380D01*
X124515714Y-147248571D02*
X124849047Y-147248571D01*
X124991904Y-147772380D02*
X124515714Y-147772380D01*
X124515714Y-146772380D01*
X124991904Y-146772380D01*
X125991904Y-147772380D02*
X125658571Y-147296190D01*
X125420476Y-147772380D02*
X125420476Y-146772380D01*
X125801428Y-146772380D01*
X125896666Y-146820000D01*
X125944285Y-146867619D01*
X125991904Y-146962857D01*
X125991904Y-147105714D01*
X125944285Y-147200952D01*
X125896666Y-147248571D01*
X125801428Y-147296190D01*
X125420476Y-147296190D01*
X126991904Y-147772380D02*
X126658571Y-147296190D01*
X126420476Y-147772380D02*
X126420476Y-146772380D01*
X126801428Y-146772380D01*
X126896666Y-146820000D01*
X126944285Y-146867619D01*
X126991904Y-146962857D01*
X126991904Y-147105714D01*
X126944285Y-147200952D01*
X126896666Y-147248571D01*
X126801428Y-147296190D01*
X126420476Y-147296190D01*
X125015714Y-144946666D02*
X125491904Y-144946666D01*
X124920476Y-145232380D02*
X125253809Y-144232380D01*
X125587142Y-145232380D01*
X125872857Y-144327619D02*
X125920476Y-144280000D01*
X126015714Y-144232380D01*
X126253809Y-144232380D01*
X126349047Y-144280000D01*
X126396666Y-144327619D01*
X126444285Y-144422857D01*
X126444285Y-144518095D01*
X126396666Y-144660952D01*
X125825238Y-145232380D01*
X126444285Y-145232380D01*
X125015714Y-142406666D02*
X125491904Y-142406666D01*
X124920476Y-142692380D02*
X125253809Y-141692380D01*
X125587142Y-142692380D01*
X126444285Y-142692380D02*
X125872857Y-142692380D01*
X126158571Y-142692380D02*
X126158571Y-141692380D01*
X126063333Y-141835238D01*
X125968095Y-141930476D01*
X125872857Y-141978095D01*
X125325238Y-139628571D02*
X125468095Y-139676190D01*
X125515714Y-139723809D01*
X125563333Y-139819047D01*
X125563333Y-139961904D01*
X125515714Y-140057142D01*
X125468095Y-140104761D01*
X125372857Y-140152380D01*
X124991904Y-140152380D01*
X124991904Y-139152380D01*
X125325238Y-139152380D01*
X125420476Y-139200000D01*
X125468095Y-139247619D01*
X125515714Y-139342857D01*
X125515714Y-139438095D01*
X125468095Y-139533333D01*
X125420476Y-139580952D01*
X125325238Y-139628571D01*
X124991904Y-139628571D01*
X126515714Y-140152380D02*
X125944285Y-140152380D01*
X126230000Y-140152380D02*
X126230000Y-139152380D01*
X126134761Y-139295238D01*
X126039523Y-139390476D01*
X125944285Y-139438095D01*
X125325238Y-137088571D02*
X125468095Y-137136190D01*
X125515714Y-137183809D01*
X125563333Y-137279047D01*
X125563333Y-137421904D01*
X125515714Y-137517142D01*
X125468095Y-137564761D01*
X125372857Y-137612380D01*
X124991904Y-137612380D01*
X124991904Y-136612380D01*
X125325238Y-136612380D01*
X125420476Y-136660000D01*
X125468095Y-136707619D01*
X125515714Y-136802857D01*
X125515714Y-136898095D01*
X125468095Y-136993333D01*
X125420476Y-137040952D01*
X125325238Y-137088571D01*
X124991904Y-137088571D01*
X125944285Y-136707619D02*
X125991904Y-136660000D01*
X126087142Y-136612380D01*
X126325238Y-136612380D01*
X126420476Y-136660000D01*
X126468095Y-136707619D01*
X126515714Y-136802857D01*
X126515714Y-136898095D01*
X126468095Y-137040952D01*
X125896666Y-137612380D01*
X126515714Y-137612380D01*
X124968095Y-134120000D02*
X124872857Y-134072380D01*
X124730000Y-134072380D01*
X124587142Y-134120000D01*
X124491904Y-134215238D01*
X124444285Y-134310476D01*
X124396666Y-134500952D01*
X124396666Y-134643809D01*
X124444285Y-134834285D01*
X124491904Y-134929523D01*
X124587142Y-135024761D01*
X124730000Y-135072380D01*
X124825238Y-135072380D01*
X124968095Y-135024761D01*
X125015714Y-134977142D01*
X125015714Y-134643809D01*
X124825238Y-134643809D01*
X125444285Y-135072380D02*
X125444285Y-134072380D01*
X126015714Y-135072380D01*
X126015714Y-134072380D01*
X126491904Y-135072380D02*
X126491904Y-134072380D01*
X126730000Y-134072380D01*
X126872857Y-134120000D01*
X126968095Y-134215238D01*
X127015714Y-134310476D01*
X127063333Y-134500952D01*
X127063333Y-134643809D01*
X127015714Y-134834285D01*
X126968095Y-134929523D01*
X126872857Y-135024761D01*
X126730000Y-135072380D01*
X126491904Y-135072380D01*
X124634761Y-131532380D02*
X124968095Y-132532380D01*
X125301428Y-131532380D01*
X125634761Y-132532380D02*
X125634761Y-131532380D01*
X126110952Y-132532380D02*
X126110952Y-131532380D01*
X126682380Y-132532380D01*
X126682380Y-131532380D01*
X66762380Y-130301904D02*
X67571904Y-130301904D01*
X67667142Y-130254285D01*
X67714761Y-130206666D01*
X67762380Y-130111428D01*
X67762380Y-129920952D01*
X67714761Y-129825714D01*
X67667142Y-129778095D01*
X67571904Y-129730476D01*
X66762380Y-129730476D01*
X67762380Y-128730476D02*
X67762380Y-129301904D01*
X67762380Y-129016190D02*
X66762380Y-129016190D01*
X66905238Y-129111428D01*
X67000476Y-129206666D01*
X67048095Y-129301904D01*
D12*
X76544714Y-142584714D02*
X76544714Y-141822714D01*
X76726142Y-141822714D01*
X76835000Y-141859000D01*
X76907571Y-141931571D01*
X76943857Y-142004142D01*
X76980142Y-142149285D01*
X76980142Y-142258142D01*
X76943857Y-142403285D01*
X76907571Y-142475857D01*
X76835000Y-142548428D01*
X76726142Y-142584714D01*
X76544714Y-142584714D01*
X77705857Y-142584714D02*
X77270428Y-142584714D01*
X77488142Y-142584714D02*
X77488142Y-141822714D01*
X77415571Y-141931571D01*
X77343000Y-142004142D01*
X77270428Y-142040428D01*
X78395285Y-141822714D02*
X78032428Y-141822714D01*
X77996142Y-142185571D01*
X78032428Y-142149285D01*
X78105000Y-142113000D01*
X78286428Y-142113000D01*
X78359000Y-142149285D01*
X78395285Y-142185571D01*
X78431571Y-142258142D01*
X78431571Y-142439571D01*
X78395285Y-142512142D01*
X78359000Y-142548428D01*
X78286428Y-142584714D01*
X78105000Y-142584714D01*
X78032428Y-142548428D01*
X77996142Y-142512142D01*
X73859571Y-131662714D02*
X74295000Y-131662714D01*
X74077285Y-132424714D02*
X74077285Y-131662714D01*
X74476428Y-131662714D02*
X74984428Y-132424714D01*
X74984428Y-131662714D02*
X74476428Y-132424714D01*
X75238428Y-131735285D02*
X75274714Y-131699000D01*
X75347285Y-131662714D01*
X75528714Y-131662714D01*
X75601285Y-131699000D01*
X75637571Y-131735285D01*
X75673857Y-131807857D01*
X75673857Y-131880428D01*
X75637571Y-131989285D01*
X75202142Y-132424714D01*
X75673857Y-132424714D01*
X76581000Y-132424714D02*
X76581000Y-131662714D01*
X76762428Y-131662714D01*
X76871285Y-131699000D01*
X76943857Y-131771571D01*
X76980142Y-131844142D01*
X77016428Y-131989285D01*
X77016428Y-132098142D01*
X76980142Y-132243285D01*
X76943857Y-132315857D01*
X76871285Y-132388428D01*
X76762428Y-132424714D01*
X76581000Y-132424714D01*
X77742142Y-132424714D02*
X77306714Y-132424714D01*
X77524428Y-132424714D02*
X77524428Y-131662714D01*
X77451857Y-131771571D01*
X77379285Y-131844142D01*
X77306714Y-131880428D01*
X77996142Y-131662714D02*
X78504142Y-131662714D01*
X78177571Y-132424714D01*
X76526571Y-146902714D02*
X76998285Y-146902714D01*
X76744285Y-147193000D01*
X76853142Y-147193000D01*
X76925714Y-147229285D01*
X76962000Y-147265571D01*
X76998285Y-147338142D01*
X76998285Y-147519571D01*
X76962000Y-147592142D01*
X76925714Y-147628428D01*
X76853142Y-147664714D01*
X76635428Y-147664714D01*
X76562857Y-147628428D01*
X76526571Y-147592142D01*
X77216000Y-146902714D02*
X77470000Y-147664714D01*
X77724000Y-146902714D01*
X77905428Y-146902714D02*
X78377142Y-146902714D01*
X78123142Y-147193000D01*
X78232000Y-147193000D01*
X78304571Y-147229285D01*
X78340857Y-147265571D01*
X78377142Y-147338142D01*
X78377142Y-147519571D01*
X78340857Y-147592142D01*
X78304571Y-147628428D01*
X78232000Y-147664714D01*
X78014285Y-147664714D01*
X77941714Y-147628428D01*
X77905428Y-147592142D01*
X76907571Y-129884714D02*
X76907571Y-129122714D01*
X77089000Y-129122714D01*
X77197857Y-129159000D01*
X77270428Y-129231571D01*
X77306714Y-129304142D01*
X77343000Y-129449285D01*
X77343000Y-129558142D01*
X77306714Y-129703285D01*
X77270428Y-129775857D01*
X77197857Y-129848428D01*
X77089000Y-129884714D01*
X76907571Y-129884714D01*
X78032428Y-129122714D02*
X77669571Y-129122714D01*
X77633285Y-129485571D01*
X77669571Y-129449285D01*
X77742142Y-129413000D01*
X77923571Y-129413000D01*
X77996142Y-129449285D01*
X78032428Y-129485571D01*
X78068714Y-129558142D01*
X78068714Y-129739571D01*
X78032428Y-129812142D01*
X77996142Y-129848428D01*
X77923571Y-129884714D01*
X77742142Y-129884714D01*
X77669571Y-129848428D01*
X77633285Y-129812142D01*
X76526571Y-116422714D02*
X76962000Y-116422714D01*
X76744285Y-117184714D02*
X76744285Y-116422714D01*
X77143428Y-116422714D02*
X77651428Y-117184714D01*
X77651428Y-116422714D02*
X77143428Y-117184714D01*
X78086857Y-116422714D02*
X78159428Y-116422714D01*
X78232000Y-116459000D01*
X78268285Y-116495285D01*
X78304571Y-116567857D01*
X78340857Y-116713000D01*
X78340857Y-116894428D01*
X78304571Y-117039571D01*
X78268285Y-117112142D01*
X78232000Y-117148428D01*
X78159428Y-117184714D01*
X78086857Y-117184714D01*
X78014285Y-117148428D01*
X77978000Y-117112142D01*
X77941714Y-117039571D01*
X77905428Y-116894428D01*
X77905428Y-116713000D01*
X77941714Y-116567857D01*
X77978000Y-116495285D01*
X78014285Y-116459000D01*
X78086857Y-116422714D01*
X76889428Y-144399000D02*
X76816857Y-144362714D01*
X76708000Y-144362714D01*
X76599142Y-144399000D01*
X76526571Y-144471571D01*
X76490285Y-144544142D01*
X76454000Y-144689285D01*
X76454000Y-144798142D01*
X76490285Y-144943285D01*
X76526571Y-145015857D01*
X76599142Y-145088428D01*
X76708000Y-145124714D01*
X76780571Y-145124714D01*
X76889428Y-145088428D01*
X76925714Y-145052142D01*
X76925714Y-144798142D01*
X76780571Y-144798142D01*
X77252285Y-145124714D02*
X77252285Y-144362714D01*
X77687714Y-145124714D01*
X77687714Y-144362714D01*
X78050571Y-145124714D02*
X78050571Y-144362714D01*
X78232000Y-144362714D01*
X78340857Y-144399000D01*
X78413428Y-144471571D01*
X78449714Y-144544142D01*
X78486000Y-144689285D01*
X78486000Y-144798142D01*
X78449714Y-144943285D01*
X78413428Y-145015857D01*
X78340857Y-145088428D01*
X78232000Y-145124714D01*
X78050571Y-145124714D01*
X76544714Y-114644714D02*
X76544714Y-113882714D01*
X76726142Y-113882714D01*
X76835000Y-113919000D01*
X76907571Y-113991571D01*
X76943857Y-114064142D01*
X76980142Y-114209285D01*
X76980142Y-114318142D01*
X76943857Y-114463285D01*
X76907571Y-114535857D01*
X76835000Y-114608428D01*
X76726142Y-114644714D01*
X76544714Y-114644714D01*
X77270428Y-113955285D02*
X77306714Y-113919000D01*
X77379285Y-113882714D01*
X77560714Y-113882714D01*
X77633285Y-113919000D01*
X77669571Y-113955285D01*
X77705857Y-114027857D01*
X77705857Y-114100428D01*
X77669571Y-114209285D01*
X77234142Y-114644714D01*
X77705857Y-114644714D01*
X77996142Y-113955285D02*
X78032428Y-113919000D01*
X78105000Y-113882714D01*
X78286428Y-113882714D01*
X78359000Y-113919000D01*
X78395285Y-113955285D01*
X78431571Y-114027857D01*
X78431571Y-114100428D01*
X78395285Y-114209285D01*
X77959857Y-114644714D01*
X78431571Y-114644714D01*
X76544714Y-122264714D02*
X76544714Y-121502714D01*
X76726142Y-121502714D01*
X76835000Y-121539000D01*
X76907571Y-121611571D01*
X76943857Y-121684142D01*
X76980142Y-121829285D01*
X76980142Y-121938142D01*
X76943857Y-122083285D01*
X76907571Y-122155857D01*
X76835000Y-122228428D01*
X76726142Y-122264714D01*
X76544714Y-122264714D01*
X77270428Y-121575285D02*
X77306714Y-121539000D01*
X77379285Y-121502714D01*
X77560714Y-121502714D01*
X77633285Y-121539000D01*
X77669571Y-121575285D01*
X77705857Y-121647857D01*
X77705857Y-121720428D01*
X77669571Y-121829285D01*
X77234142Y-122264714D01*
X77705857Y-122264714D01*
X78431571Y-122264714D02*
X77996142Y-122264714D01*
X78213857Y-122264714D02*
X78213857Y-121502714D01*
X78141285Y-121611571D01*
X78068714Y-121684142D01*
X77996142Y-121720428D01*
X76907571Y-137504714D02*
X76907571Y-136742714D01*
X77089000Y-136742714D01*
X77197857Y-136779000D01*
X77270428Y-136851571D01*
X77306714Y-136924142D01*
X77343000Y-137069285D01*
X77343000Y-137178142D01*
X77306714Y-137323285D01*
X77270428Y-137395857D01*
X77197857Y-137468428D01*
X77089000Y-137504714D01*
X76907571Y-137504714D01*
X77996142Y-136996714D02*
X77996142Y-137504714D01*
X77814714Y-136706428D02*
X77633285Y-137250714D01*
X78105000Y-137250714D01*
X76544714Y-127344714D02*
X76544714Y-126582714D01*
X76726142Y-126582714D01*
X76835000Y-126619000D01*
X76907571Y-126691571D01*
X76943857Y-126764142D01*
X76980142Y-126909285D01*
X76980142Y-127018142D01*
X76943857Y-127163285D01*
X76907571Y-127235857D01*
X76835000Y-127308428D01*
X76726142Y-127344714D01*
X76544714Y-127344714D01*
X77705857Y-127344714D02*
X77270428Y-127344714D01*
X77488142Y-127344714D02*
X77488142Y-126582714D01*
X77415571Y-126691571D01*
X77343000Y-126764142D01*
X77270428Y-126800428D01*
X78141285Y-126909285D02*
X78068714Y-126873000D01*
X78032428Y-126836714D01*
X77996142Y-126764142D01*
X77996142Y-126727857D01*
X78032428Y-126655285D01*
X78068714Y-126619000D01*
X78141285Y-126582714D01*
X78286428Y-126582714D01*
X78359000Y-126619000D01*
X78395285Y-126655285D01*
X78431571Y-126727857D01*
X78431571Y-126764142D01*
X78395285Y-126836714D01*
X78359000Y-126873000D01*
X78286428Y-126909285D01*
X78141285Y-126909285D01*
X78068714Y-126945571D01*
X78032428Y-126981857D01*
X77996142Y-127054428D01*
X77996142Y-127199571D01*
X78032428Y-127272142D01*
X78068714Y-127308428D01*
X78141285Y-127344714D01*
X78286428Y-127344714D01*
X78359000Y-127308428D01*
X78395285Y-127272142D01*
X78431571Y-127199571D01*
X78431571Y-127054428D01*
X78395285Y-126981857D01*
X78359000Y-126945571D01*
X78286428Y-126909285D01*
X76544714Y-124804714D02*
X76544714Y-124042714D01*
X76726142Y-124042714D01*
X76835000Y-124079000D01*
X76907571Y-124151571D01*
X76943857Y-124224142D01*
X76980142Y-124369285D01*
X76980142Y-124478142D01*
X76943857Y-124623285D01*
X76907571Y-124695857D01*
X76835000Y-124768428D01*
X76726142Y-124804714D01*
X76544714Y-124804714D01*
X77705857Y-124804714D02*
X77270428Y-124804714D01*
X77488142Y-124804714D02*
X77488142Y-124042714D01*
X77415571Y-124151571D01*
X77343000Y-124224142D01*
X77270428Y-124260428D01*
X78068714Y-124804714D02*
X78213857Y-124804714D01*
X78286428Y-124768428D01*
X78322714Y-124732142D01*
X78395285Y-124623285D01*
X78431571Y-124478142D01*
X78431571Y-124187857D01*
X78395285Y-124115285D01*
X78359000Y-124079000D01*
X78286428Y-124042714D01*
X78141285Y-124042714D01*
X78068714Y-124079000D01*
X78032428Y-124115285D01*
X77996142Y-124187857D01*
X77996142Y-124369285D01*
X78032428Y-124441857D01*
X78068714Y-124478142D01*
X78141285Y-124514428D01*
X78286428Y-124514428D01*
X78359000Y-124478142D01*
X78395285Y-124441857D01*
X78431571Y-124369285D01*
X76907571Y-140044714D02*
X76907571Y-139282714D01*
X77089000Y-139282714D01*
X77197857Y-139319000D01*
X77270428Y-139391571D01*
X77306714Y-139464142D01*
X77343000Y-139609285D01*
X77343000Y-139718142D01*
X77306714Y-139863285D01*
X77270428Y-139935857D01*
X77197857Y-140008428D01*
X77089000Y-140044714D01*
X76907571Y-140044714D01*
X77633285Y-139355285D02*
X77669571Y-139319000D01*
X77742142Y-139282714D01*
X77923571Y-139282714D01*
X77996142Y-139319000D01*
X78032428Y-139355285D01*
X78068714Y-139427857D01*
X78068714Y-139500428D01*
X78032428Y-139609285D01*
X77597000Y-140044714D01*
X78068714Y-140044714D01*
X76544714Y-112104714D02*
X76544714Y-111342714D01*
X76726142Y-111342714D01*
X76835000Y-111379000D01*
X76907571Y-111451571D01*
X76943857Y-111524142D01*
X76980142Y-111669285D01*
X76980142Y-111778142D01*
X76943857Y-111923285D01*
X76907571Y-111995857D01*
X76835000Y-112068428D01*
X76726142Y-112104714D01*
X76544714Y-112104714D01*
X77270428Y-111415285D02*
X77306714Y-111379000D01*
X77379285Y-111342714D01*
X77560714Y-111342714D01*
X77633285Y-111379000D01*
X77669571Y-111415285D01*
X77705857Y-111487857D01*
X77705857Y-111560428D01*
X77669571Y-111669285D01*
X77234142Y-112104714D01*
X77705857Y-112104714D01*
X77959857Y-111342714D02*
X78431571Y-111342714D01*
X78177571Y-111633000D01*
X78286428Y-111633000D01*
X78359000Y-111669285D01*
X78395285Y-111705571D01*
X78431571Y-111778142D01*
X78431571Y-111959571D01*
X78395285Y-112032142D01*
X78359000Y-112068428D01*
X78286428Y-112104714D01*
X78068714Y-112104714D01*
X77996142Y-112068428D01*
X77959857Y-112032142D01*
X74313142Y-134964714D02*
X74059142Y-134601857D01*
X73877714Y-134964714D02*
X73877714Y-134202714D01*
X74168000Y-134202714D01*
X74240571Y-134239000D01*
X74276857Y-134275285D01*
X74313142Y-134347857D01*
X74313142Y-134456714D01*
X74276857Y-134529285D01*
X74240571Y-134565571D01*
X74168000Y-134601857D01*
X73877714Y-134601857D01*
X74567142Y-134202714D02*
X75075142Y-134964714D01*
X75075142Y-134202714D02*
X74567142Y-134964714D01*
X75329142Y-134275285D02*
X75365428Y-134239000D01*
X75438000Y-134202714D01*
X75619428Y-134202714D01*
X75692000Y-134239000D01*
X75728285Y-134275285D01*
X75764571Y-134347857D01*
X75764571Y-134420428D01*
X75728285Y-134529285D01*
X75292857Y-134964714D01*
X75764571Y-134964714D01*
X76671714Y-134964714D02*
X76671714Y-134202714D01*
X76853142Y-134202714D01*
X76962000Y-134239000D01*
X77034571Y-134311571D01*
X77070857Y-134384142D01*
X77107142Y-134529285D01*
X77107142Y-134638142D01*
X77070857Y-134783285D01*
X77034571Y-134855857D01*
X76962000Y-134928428D01*
X76853142Y-134964714D01*
X76671714Y-134964714D01*
X77832857Y-134964714D02*
X77397428Y-134964714D01*
X77615142Y-134964714D02*
X77615142Y-134202714D01*
X77542571Y-134311571D01*
X77470000Y-134384142D01*
X77397428Y-134420428D01*
X78486000Y-134202714D02*
X78340857Y-134202714D01*
X78268285Y-134239000D01*
X78232000Y-134275285D01*
X78159428Y-134384142D01*
X78123142Y-134529285D01*
X78123142Y-134819571D01*
X78159428Y-134892142D01*
X78195714Y-134928428D01*
X78268285Y-134964714D01*
X78413428Y-134964714D01*
X78486000Y-134928428D01*
X78522285Y-134892142D01*
X78558571Y-134819571D01*
X78558571Y-134638142D01*
X78522285Y-134565571D01*
X78486000Y-134529285D01*
X78413428Y-134493000D01*
X78268285Y-134493000D01*
X78195714Y-134529285D01*
X78159428Y-134565571D01*
X78123142Y-134638142D01*
X76980142Y-119724714D02*
X76726142Y-119361857D01*
X76544714Y-119724714D02*
X76544714Y-118962714D01*
X76835000Y-118962714D01*
X76907571Y-118999000D01*
X76943857Y-119035285D01*
X76980142Y-119107857D01*
X76980142Y-119216714D01*
X76943857Y-119289285D01*
X76907571Y-119325571D01*
X76835000Y-119361857D01*
X76544714Y-119361857D01*
X77234142Y-118962714D02*
X77742142Y-119724714D01*
X77742142Y-118962714D02*
X77234142Y-119724714D01*
X78177571Y-118962714D02*
X78250142Y-118962714D01*
X78322714Y-118999000D01*
X78359000Y-119035285D01*
X78395285Y-119107857D01*
X78431571Y-119253000D01*
X78431571Y-119434428D01*
X78395285Y-119579571D01*
X78359000Y-119652142D01*
X78322714Y-119688428D01*
X78250142Y-119724714D01*
X78177571Y-119724714D01*
X78105000Y-119688428D01*
X78068714Y-119652142D01*
X78032428Y-119579571D01*
X77996142Y-119434428D01*
X77996142Y-119253000D01*
X78032428Y-119107857D01*
X78068714Y-119035285D01*
X78105000Y-118999000D01*
X78177571Y-118962714D01*
X56587571Y-111705571D02*
X56841571Y-111705571D01*
X56950428Y-112104714D02*
X56587571Y-112104714D01*
X56587571Y-111342714D01*
X56950428Y-111342714D01*
X57277000Y-112104714D02*
X57277000Y-111342714D01*
X57712428Y-112104714D01*
X57712428Y-111342714D01*
X56515000Y-113882714D02*
X56769000Y-114644714D01*
X57023000Y-113882714D01*
X57277000Y-114644714D02*
X57277000Y-113882714D01*
X57567285Y-113882714D01*
X57639857Y-113919000D01*
X57676142Y-113955285D01*
X57712428Y-114027857D01*
X57712428Y-114136714D01*
X57676142Y-114209285D01*
X57639857Y-114245571D01*
X57567285Y-114281857D01*
X57277000Y-114281857D01*
X56496857Y-116422714D02*
X56750857Y-117184714D01*
X57004857Y-116422714D01*
X57258857Y-117184714D02*
X57258857Y-116422714D01*
X57694285Y-117184714D01*
X57694285Y-116422714D01*
X56224714Y-119724714D02*
X56224714Y-118962714D01*
X56406142Y-118962714D01*
X56515000Y-118999000D01*
X56587571Y-119071571D01*
X56623857Y-119144142D01*
X56660142Y-119289285D01*
X56660142Y-119398142D01*
X56623857Y-119543285D01*
X56587571Y-119615857D01*
X56515000Y-119688428D01*
X56406142Y-119724714D01*
X56224714Y-119724714D01*
X56914142Y-118962714D02*
X57385857Y-118962714D01*
X57131857Y-119253000D01*
X57240714Y-119253000D01*
X57313285Y-119289285D01*
X57349571Y-119325571D01*
X57385857Y-119398142D01*
X57385857Y-119579571D01*
X57349571Y-119652142D01*
X57313285Y-119688428D01*
X57240714Y-119724714D01*
X57023000Y-119724714D01*
X56950428Y-119688428D01*
X56914142Y-119652142D01*
X58039000Y-119216714D02*
X58039000Y-119724714D01*
X57857571Y-118926428D02*
X57676142Y-119470714D01*
X58147857Y-119470714D01*
X56224714Y-122264714D02*
X56224714Y-121502714D01*
X56406142Y-121502714D01*
X56515000Y-121539000D01*
X56587571Y-121611571D01*
X56623857Y-121684142D01*
X56660142Y-121829285D01*
X56660142Y-121938142D01*
X56623857Y-122083285D01*
X56587571Y-122155857D01*
X56515000Y-122228428D01*
X56406142Y-122264714D01*
X56224714Y-122264714D01*
X56914142Y-121502714D02*
X57385857Y-121502714D01*
X57131857Y-121793000D01*
X57240714Y-121793000D01*
X57313285Y-121829285D01*
X57349571Y-121865571D01*
X57385857Y-121938142D01*
X57385857Y-122119571D01*
X57349571Y-122192142D01*
X57313285Y-122228428D01*
X57240714Y-122264714D01*
X57023000Y-122264714D01*
X56950428Y-122228428D01*
X56914142Y-122192142D01*
X58075285Y-121502714D02*
X57712428Y-121502714D01*
X57676142Y-121865571D01*
X57712428Y-121829285D01*
X57785000Y-121793000D01*
X57966428Y-121793000D01*
X58039000Y-121829285D01*
X58075285Y-121865571D01*
X58111571Y-121938142D01*
X58111571Y-122119571D01*
X58075285Y-122192142D01*
X58039000Y-122228428D01*
X57966428Y-122264714D01*
X57785000Y-122264714D01*
X57712428Y-122228428D01*
X57676142Y-122192142D01*
X56224714Y-124804714D02*
X56224714Y-124042714D01*
X56406142Y-124042714D01*
X56515000Y-124079000D01*
X56587571Y-124151571D01*
X56623857Y-124224142D01*
X56660142Y-124369285D01*
X56660142Y-124478142D01*
X56623857Y-124623285D01*
X56587571Y-124695857D01*
X56515000Y-124768428D01*
X56406142Y-124804714D01*
X56224714Y-124804714D01*
X56914142Y-124042714D02*
X57385857Y-124042714D01*
X57131857Y-124333000D01*
X57240714Y-124333000D01*
X57313285Y-124369285D01*
X57349571Y-124405571D01*
X57385857Y-124478142D01*
X57385857Y-124659571D01*
X57349571Y-124732142D01*
X57313285Y-124768428D01*
X57240714Y-124804714D01*
X57023000Y-124804714D01*
X56950428Y-124768428D01*
X56914142Y-124732142D01*
X57676142Y-124115285D02*
X57712428Y-124079000D01*
X57785000Y-124042714D01*
X57966428Y-124042714D01*
X58039000Y-124079000D01*
X58075285Y-124115285D01*
X58111571Y-124187857D01*
X58111571Y-124260428D01*
X58075285Y-124369285D01*
X57639857Y-124804714D01*
X58111571Y-124804714D01*
X56224714Y-127344714D02*
X56224714Y-126582714D01*
X56406142Y-126582714D01*
X56515000Y-126619000D01*
X56587571Y-126691571D01*
X56623857Y-126764142D01*
X56660142Y-126909285D01*
X56660142Y-127018142D01*
X56623857Y-127163285D01*
X56587571Y-127235857D01*
X56515000Y-127308428D01*
X56406142Y-127344714D01*
X56224714Y-127344714D01*
X56914142Y-126582714D02*
X57385857Y-126582714D01*
X57131857Y-126873000D01*
X57240714Y-126873000D01*
X57313285Y-126909285D01*
X57349571Y-126945571D01*
X57385857Y-127018142D01*
X57385857Y-127199571D01*
X57349571Y-127272142D01*
X57313285Y-127308428D01*
X57240714Y-127344714D01*
X57023000Y-127344714D01*
X56950428Y-127308428D01*
X56914142Y-127272142D01*
X57639857Y-126582714D02*
X58111571Y-126582714D01*
X57857571Y-126873000D01*
X57966428Y-126873000D01*
X58039000Y-126909285D01*
X58075285Y-126945571D01*
X58111571Y-127018142D01*
X58111571Y-127199571D01*
X58075285Y-127272142D01*
X58039000Y-127308428D01*
X57966428Y-127344714D01*
X57748714Y-127344714D01*
X57676142Y-127308428D01*
X57639857Y-127272142D01*
X56224714Y-129884714D02*
X56224714Y-129122714D01*
X56406142Y-129122714D01*
X56515000Y-129159000D01*
X56587571Y-129231571D01*
X56623857Y-129304142D01*
X56660142Y-129449285D01*
X56660142Y-129558142D01*
X56623857Y-129703285D01*
X56587571Y-129775857D01*
X56515000Y-129848428D01*
X56406142Y-129884714D01*
X56224714Y-129884714D01*
X56950428Y-129195285D02*
X56986714Y-129159000D01*
X57059285Y-129122714D01*
X57240714Y-129122714D01*
X57313285Y-129159000D01*
X57349571Y-129195285D01*
X57385857Y-129267857D01*
X57385857Y-129340428D01*
X57349571Y-129449285D01*
X56914142Y-129884714D01*
X57385857Y-129884714D01*
X58075285Y-129122714D02*
X57712428Y-129122714D01*
X57676142Y-129485571D01*
X57712428Y-129449285D01*
X57785000Y-129413000D01*
X57966428Y-129413000D01*
X58039000Y-129449285D01*
X58075285Y-129485571D01*
X58111571Y-129558142D01*
X58111571Y-129739571D01*
X58075285Y-129812142D01*
X58039000Y-129848428D01*
X57966428Y-129884714D01*
X57785000Y-129884714D01*
X57712428Y-129848428D01*
X57676142Y-129812142D01*
X56224714Y-132424714D02*
X56224714Y-131662714D01*
X56406142Y-131662714D01*
X56515000Y-131699000D01*
X56587571Y-131771571D01*
X56623857Y-131844142D01*
X56660142Y-131989285D01*
X56660142Y-132098142D01*
X56623857Y-132243285D01*
X56587571Y-132315857D01*
X56515000Y-132388428D01*
X56406142Y-132424714D01*
X56224714Y-132424714D01*
X56950428Y-131735285D02*
X56986714Y-131699000D01*
X57059285Y-131662714D01*
X57240714Y-131662714D01*
X57313285Y-131699000D01*
X57349571Y-131735285D01*
X57385857Y-131807857D01*
X57385857Y-131880428D01*
X57349571Y-131989285D01*
X56914142Y-132424714D01*
X57385857Y-132424714D01*
X58039000Y-131662714D02*
X57893857Y-131662714D01*
X57821285Y-131699000D01*
X57785000Y-131735285D01*
X57712428Y-131844142D01*
X57676142Y-131989285D01*
X57676142Y-132279571D01*
X57712428Y-132352142D01*
X57748714Y-132388428D01*
X57821285Y-132424714D01*
X57966428Y-132424714D01*
X58039000Y-132388428D01*
X58075285Y-132352142D01*
X58111571Y-132279571D01*
X58111571Y-132098142D01*
X58075285Y-132025571D01*
X58039000Y-131989285D01*
X57966428Y-131953000D01*
X57821285Y-131953000D01*
X57748714Y-131989285D01*
X57712428Y-132025571D01*
X57676142Y-132098142D01*
X56224714Y-134964714D02*
X56224714Y-134202714D01*
X56406142Y-134202714D01*
X56515000Y-134239000D01*
X56587571Y-134311571D01*
X56623857Y-134384142D01*
X56660142Y-134529285D01*
X56660142Y-134638142D01*
X56623857Y-134783285D01*
X56587571Y-134855857D01*
X56515000Y-134928428D01*
X56406142Y-134964714D01*
X56224714Y-134964714D01*
X56950428Y-134275285D02*
X56986714Y-134239000D01*
X57059285Y-134202714D01*
X57240714Y-134202714D01*
X57313285Y-134239000D01*
X57349571Y-134275285D01*
X57385857Y-134347857D01*
X57385857Y-134420428D01*
X57349571Y-134529285D01*
X56914142Y-134964714D01*
X57385857Y-134964714D01*
X57639857Y-134202714D02*
X58147857Y-134202714D01*
X57821285Y-134964714D01*
X56224714Y-137504714D02*
X56224714Y-136742714D01*
X56406142Y-136742714D01*
X56515000Y-136779000D01*
X56587571Y-136851571D01*
X56623857Y-136924142D01*
X56660142Y-137069285D01*
X56660142Y-137178142D01*
X56623857Y-137323285D01*
X56587571Y-137395857D01*
X56515000Y-137468428D01*
X56406142Y-137504714D01*
X56224714Y-137504714D01*
X57385857Y-137504714D02*
X56950428Y-137504714D01*
X57168142Y-137504714D02*
X57168142Y-136742714D01*
X57095571Y-136851571D01*
X57023000Y-136924142D01*
X56950428Y-136960428D01*
X58039000Y-136996714D02*
X58039000Y-137504714D01*
X57857571Y-136706428D02*
X57676142Y-137250714D01*
X58147857Y-137250714D01*
X56224714Y-140044714D02*
X56224714Y-139282714D01*
X56406142Y-139282714D01*
X56515000Y-139319000D01*
X56587571Y-139391571D01*
X56623857Y-139464142D01*
X56660142Y-139609285D01*
X56660142Y-139718142D01*
X56623857Y-139863285D01*
X56587571Y-139935857D01*
X56515000Y-140008428D01*
X56406142Y-140044714D01*
X56224714Y-140044714D01*
X57385857Y-140044714D02*
X56950428Y-140044714D01*
X57168142Y-140044714D02*
X57168142Y-139282714D01*
X57095571Y-139391571D01*
X57023000Y-139464142D01*
X56950428Y-139500428D01*
X57676142Y-139355285D02*
X57712428Y-139319000D01*
X57785000Y-139282714D01*
X57966428Y-139282714D01*
X58039000Y-139319000D01*
X58075285Y-139355285D01*
X58111571Y-139427857D01*
X58111571Y-139500428D01*
X58075285Y-139609285D01*
X57639857Y-140044714D01*
X58111571Y-140044714D01*
X56224714Y-142584714D02*
X56224714Y-141822714D01*
X56406142Y-141822714D01*
X56515000Y-141859000D01*
X56587571Y-141931571D01*
X56623857Y-142004142D01*
X56660142Y-142149285D01*
X56660142Y-142258142D01*
X56623857Y-142403285D01*
X56587571Y-142475857D01*
X56515000Y-142548428D01*
X56406142Y-142584714D01*
X56224714Y-142584714D01*
X57385857Y-142584714D02*
X56950428Y-142584714D01*
X57168142Y-142584714D02*
X57168142Y-141822714D01*
X57095571Y-141931571D01*
X57023000Y-142004142D01*
X56950428Y-142040428D01*
X57639857Y-141822714D02*
X58111571Y-141822714D01*
X57857571Y-142113000D01*
X57966428Y-142113000D01*
X58039000Y-142149285D01*
X58075285Y-142185571D01*
X58111571Y-142258142D01*
X58111571Y-142439571D01*
X58075285Y-142512142D01*
X58039000Y-142548428D01*
X57966428Y-142584714D01*
X57748714Y-142584714D01*
X57676142Y-142548428D01*
X57639857Y-142512142D01*
X56569428Y-144399000D02*
X56496857Y-144362714D01*
X56388000Y-144362714D01*
X56279142Y-144399000D01*
X56206571Y-144471571D01*
X56170285Y-144544142D01*
X56134000Y-144689285D01*
X56134000Y-144798142D01*
X56170285Y-144943285D01*
X56206571Y-145015857D01*
X56279142Y-145088428D01*
X56388000Y-145124714D01*
X56460571Y-145124714D01*
X56569428Y-145088428D01*
X56605714Y-145052142D01*
X56605714Y-144798142D01*
X56460571Y-144798142D01*
X56932285Y-145124714D02*
X56932285Y-144362714D01*
X57367714Y-145124714D01*
X57367714Y-144362714D01*
X57730571Y-145124714D02*
X57730571Y-144362714D01*
X57912000Y-144362714D01*
X58020857Y-144399000D01*
X58093428Y-144471571D01*
X58129714Y-144544142D01*
X58166000Y-144689285D01*
X58166000Y-144798142D01*
X58129714Y-144943285D01*
X58093428Y-145015857D01*
X58020857Y-145088428D01*
X57912000Y-145124714D01*
X57730571Y-145124714D01*
X56315428Y-146902714D02*
X56569428Y-147664714D01*
X56823428Y-146902714D01*
X57077428Y-147664714D02*
X57077428Y-146902714D01*
X57440285Y-147664714D02*
X57440285Y-146902714D01*
X57875714Y-147664714D01*
X57875714Y-146902714D01*
D10*
X133432380Y-134809523D02*
X134146666Y-134809523D01*
X134289523Y-134857142D01*
X134384761Y-134952380D01*
X134432380Y-135095238D01*
X134432380Y-135190476D01*
X134432380Y-133809523D02*
X134432380Y-134380952D01*
X134432380Y-134095238D02*
X133432380Y-134095238D01*
X133575238Y-134190476D01*
X133670476Y-134285714D01*
X133718095Y-134380952D01*
X133432380Y-133190476D02*
X133432380Y-133095238D01*
X133480000Y-133000000D01*
X133527619Y-132952380D01*
X133622857Y-132904761D01*
X133813333Y-132857142D01*
X134051428Y-132857142D01*
X134241904Y-132904761D01*
X134337142Y-132952380D01*
X134384761Y-133000000D01*
X134432380Y-133095238D01*
X134432380Y-133190476D01*
X134384761Y-133285714D01*
X134337142Y-133333333D01*
X134241904Y-133380952D01*
X134051428Y-133428571D01*
X133813333Y-133428571D01*
X133622857Y-133380952D01*
X133527619Y-133333333D01*
X133480000Y-133285714D01*
X133432380Y-133190476D01*
X129206666Y-121602380D02*
X129206666Y-122316666D01*
X129159047Y-122459523D01*
X129063809Y-122554761D01*
X128920952Y-122602380D01*
X128825714Y-122602380D01*
X129730476Y-122602380D02*
X129920952Y-122602380D01*
X130016190Y-122554761D01*
X130063809Y-122507142D01*
X130159047Y-122364285D01*
X130206666Y-122173809D01*
X130206666Y-121792857D01*
X130159047Y-121697619D01*
X130111428Y-121650000D01*
X130016190Y-121602380D01*
X129825714Y-121602380D01*
X129730476Y-121650000D01*
X129682857Y-121697619D01*
X129635238Y-121792857D01*
X129635238Y-122030952D01*
X129682857Y-122126190D01*
X129730476Y-122173809D01*
X129825714Y-122221428D01*
X130016190Y-122221428D01*
X130111428Y-122173809D01*
X130159047Y-122126190D01*
X130206666Y-122030952D01*
X129206666Y-147002380D02*
X129206666Y-147716666D01*
X129159047Y-147859523D01*
X129063809Y-147954761D01*
X128920952Y-148002380D01*
X128825714Y-148002380D01*
X129825714Y-147430952D02*
X129730476Y-147383333D01*
X129682857Y-147335714D01*
X129635238Y-147240476D01*
X129635238Y-147192857D01*
X129682857Y-147097619D01*
X129730476Y-147050000D01*
X129825714Y-147002380D01*
X130016190Y-147002380D01*
X130111428Y-147050000D01*
X130159047Y-147097619D01*
X130206666Y-147192857D01*
X130206666Y-147240476D01*
X130159047Y-147335714D01*
X130111428Y-147383333D01*
X130016190Y-147430952D01*
X129825714Y-147430952D01*
X129730476Y-147478571D01*
X129682857Y-147526190D01*
X129635238Y-147621428D01*
X129635238Y-147811904D01*
X129682857Y-147907142D01*
X129730476Y-147954761D01*
X129825714Y-148002380D01*
X130016190Y-148002380D01*
X130111428Y-147954761D01*
X130159047Y-147907142D01*
X130206666Y-147811904D01*
X130206666Y-147621428D01*
X130159047Y-147526190D01*
X130111428Y-147478571D01*
X130016190Y-147430952D01*
X103330476Y-118562380D02*
X103330476Y-117562380D01*
X103663809Y-118276666D01*
X103997142Y-117562380D01*
X103997142Y-118562380D01*
X104425714Y-117657619D02*
X104473333Y-117610000D01*
X104568571Y-117562380D01*
X104806666Y-117562380D01*
X104901904Y-117610000D01*
X104949523Y-117657619D01*
X104997142Y-117752857D01*
X104997142Y-117848095D01*
X104949523Y-117990952D01*
X104378095Y-118562380D01*
X104997142Y-118562380D01*
X103330476Y-113957139D02*
X103330476Y-112957139D01*
X103663809Y-113671425D01*
X103997142Y-112957139D01*
X103997142Y-113957139D01*
X104997142Y-113957139D02*
X104425714Y-113957139D01*
X104711428Y-113957139D02*
X104711428Y-112957139D01*
X104616190Y-113099997D01*
X104520952Y-113195235D01*
X104425714Y-113242854D01*
X103330476Y-109357139D02*
X103330476Y-108357139D01*
X103663809Y-109071425D01*
X103997142Y-108357139D01*
X103997142Y-109357139D01*
X104663809Y-108357139D02*
X104759047Y-108357139D01*
X104854285Y-108404759D01*
X104901904Y-108452378D01*
X104949523Y-108547616D01*
X104997142Y-108738092D01*
X104997142Y-108976187D01*
X104949523Y-109166663D01*
X104901904Y-109261901D01*
X104854285Y-109309520D01*
X104759047Y-109357139D01*
X104663809Y-109357139D01*
X104568571Y-109309520D01*
X104520952Y-109261901D01*
X104473333Y-109166663D01*
X104425714Y-108976187D01*
X104425714Y-108738092D01*
X104473333Y-108547616D01*
X104520952Y-108452378D01*
X104568571Y-108404759D01*
X104663809Y-108357139D01*
X102108095Y-149590000D02*
X102012857Y-149542380D01*
X101870000Y-149542380D01*
X101727142Y-149590000D01*
X101631904Y-149685238D01*
X101584285Y-149780476D01*
X101536666Y-149970952D01*
X101536666Y-150113809D01*
X101584285Y-150304285D01*
X101631904Y-150399523D01*
X101727142Y-150494761D01*
X101870000Y-150542380D01*
X101965238Y-150542380D01*
X102108095Y-150494761D01*
X102155714Y-150447142D01*
X102155714Y-150113809D01*
X101965238Y-150113809D01*
X102584285Y-150542380D02*
X102584285Y-149542380D01*
X103155714Y-150542380D01*
X103155714Y-149542380D01*
X103631904Y-150542380D02*
X103631904Y-149542380D01*
X103870000Y-149542380D01*
X104012857Y-149590000D01*
X104108095Y-149685238D01*
X104155714Y-149780476D01*
X104203333Y-149970952D01*
X104203333Y-150113809D01*
X104155714Y-150304285D01*
X104108095Y-150399523D01*
X104012857Y-150494761D01*
X103870000Y-150542380D01*
X103631904Y-150542380D01*
X97583809Y-149542380D02*
X98202857Y-149542380D01*
X97869523Y-149923333D01*
X98012380Y-149923333D01*
X98107619Y-149970952D01*
X98155238Y-150018571D01*
X98202857Y-150113809D01*
X98202857Y-150351904D01*
X98155238Y-150447142D01*
X98107619Y-150494761D01*
X98012380Y-150542380D01*
X97726666Y-150542380D01*
X97631428Y-150494761D01*
X97583809Y-150447142D01*
X98631428Y-150447142D02*
X98679047Y-150494761D01*
X98631428Y-150542380D01*
X98583809Y-150494761D01*
X98631428Y-150447142D01*
X98631428Y-150542380D01*
X99012380Y-149542380D02*
X99631428Y-149542380D01*
X99298095Y-149923333D01*
X99440952Y-149923333D01*
X99536190Y-149970952D01*
X99583809Y-150018571D01*
X99631428Y-150113809D01*
X99631428Y-150351904D01*
X99583809Y-150447142D01*
X99536190Y-150494761D01*
X99440952Y-150542380D01*
X99155238Y-150542380D01*
X99060000Y-150494761D01*
X99012380Y-150447142D01*
X99917142Y-149542380D02*
X100250476Y-150542380D01*
X100583809Y-149542380D01*
X95059523Y-149542380D02*
X94583333Y-149542380D01*
X94535714Y-150018571D01*
X94583333Y-149970952D01*
X94678571Y-149923333D01*
X94916666Y-149923333D01*
X95011904Y-149970952D01*
X95059523Y-150018571D01*
X95107142Y-150113809D01*
X95107142Y-150351904D01*
X95059523Y-150447142D01*
X95011904Y-150494761D01*
X94916666Y-150542380D01*
X94678571Y-150542380D01*
X94583333Y-150494761D01*
X94535714Y-150447142D01*
X95392857Y-149542380D02*
X95726190Y-150542380D01*
X96059523Y-149542380D01*
X135703333Y-143277142D02*
X135655714Y-143324761D01*
X135512857Y-143372380D01*
X135417619Y-143372380D01*
X135274761Y-143324761D01*
X135179523Y-143229523D01*
X135131904Y-143134285D01*
X135084285Y-142943809D01*
X135084285Y-142800952D01*
X135131904Y-142610476D01*
X135179523Y-142515238D01*
X135274761Y-142420000D01*
X135417619Y-142372380D01*
X135512857Y-142372380D01*
X135655714Y-142420000D01*
X135703333Y-142467619D01*
X136036666Y-142372380D02*
X136655714Y-142372380D01*
X136322380Y-142753333D01*
X136465238Y-142753333D01*
X136560476Y-142800952D01*
X136608095Y-142848571D01*
X136655714Y-142943809D01*
X136655714Y-143181904D01*
X136608095Y-143277142D01*
X136560476Y-143324761D01*
X136465238Y-143372380D01*
X136179523Y-143372380D01*
X136084285Y-143324761D01*
X136036666Y-143277142D01*
X135469333Y-113641142D02*
X135421714Y-113688761D01*
X135278857Y-113736380D01*
X135183619Y-113736380D01*
X135040761Y-113688761D01*
X134945523Y-113593523D01*
X134897904Y-113498285D01*
X134850285Y-113307809D01*
X134850285Y-113164952D01*
X134897904Y-112974476D01*
X134945523Y-112879238D01*
X135040761Y-112784000D01*
X135183619Y-112736380D01*
X135278857Y-112736380D01*
X135421714Y-112784000D01*
X135469333Y-112831619D01*
X135850285Y-112831619D02*
X135897904Y-112784000D01*
X135993142Y-112736380D01*
X136231238Y-112736380D01*
X136326476Y-112784000D01*
X136374095Y-112831619D01*
X136421714Y-112926857D01*
X136421714Y-113022095D01*
X136374095Y-113164952D01*
X135802666Y-113736380D01*
X136421714Y-113736380D01*
X87443333Y-144547142D02*
X87395714Y-144594761D01*
X87252857Y-144642380D01*
X87157619Y-144642380D01*
X87014761Y-144594761D01*
X86919523Y-144499523D01*
X86871904Y-144404285D01*
X86824285Y-144213809D01*
X86824285Y-144070952D01*
X86871904Y-143880476D01*
X86919523Y-143785238D01*
X87014761Y-143690000D01*
X87157619Y-143642380D01*
X87252857Y-143642380D01*
X87395714Y-143690000D01*
X87443333Y-143737619D01*
X88395714Y-144642380D02*
X87824285Y-144642380D01*
X88110000Y-144642380D02*
X88110000Y-143642380D01*
X88014761Y-143785238D01*
X87919523Y-143880476D01*
X87824285Y-143928095D01*
M02*
