G04 #@! TF.GenerationSoftware,KiCad,Pcbnew,5.1.4+dfsg1-1*
G04 #@! TF.CreationDate,2020-01-11T23:19:06+01:00*
G04 #@! TF.ProjectId,wbplotter,7762706c-6f74-4746-9572-2e6b69636164,rev?*
G04 #@! TF.SameCoordinates,Original*
G04 #@! TF.FileFunction,Soldermask,Bot*
G04 #@! TF.FilePolarity,Negative*
%FSLAX46Y46*%
G04 Gerber Fmt 4.6, Leading zero omitted, Abs format (unit mm)*
G04 Created by KiCad (PCBNEW 5.1.4+dfsg1-1) date 2020-01-11 23:19:06*
%MOMM*%
%LPD*%
G04 APERTURE LIST*
%ADD10C,0.100000*%
G04 APERTURE END LIST*
D10*
G36*
X124003000Y-150673000D02*
G01*
X122377000Y-150673000D01*
X122377000Y-149047000D01*
X124003000Y-149047000D01*
X124003000Y-150673000D01*
X124003000Y-150673000D01*
G37*
G36*
X110727142Y-149078242D02*
G01*
X110875101Y-149139529D01*
X111008255Y-149228499D01*
X111121501Y-149341745D01*
X111210471Y-149474899D01*
X111271758Y-149622858D01*
X111303000Y-149779925D01*
X111303000Y-149940075D01*
X111271758Y-150097142D01*
X111210471Y-150245101D01*
X111121501Y-150378255D01*
X111008255Y-150491501D01*
X110875101Y-150580471D01*
X110727142Y-150641758D01*
X110570075Y-150673000D01*
X110409925Y-150673000D01*
X110252858Y-150641758D01*
X110104899Y-150580471D01*
X109971745Y-150491501D01*
X109858499Y-150378255D01*
X109769529Y-150245101D01*
X109708242Y-150097142D01*
X109677000Y-149940075D01*
X109677000Y-149779925D01*
X109708242Y-149622858D01*
X109769529Y-149474899D01*
X109858499Y-149341745D01*
X109971745Y-149228499D01*
X110104899Y-149139529D01*
X110252858Y-149078242D01*
X110409925Y-149047000D01*
X110570075Y-149047000D01*
X110727142Y-149078242D01*
X110727142Y-149078242D01*
G37*
G36*
X89108228Y-147771703D02*
G01*
X89263100Y-147835853D01*
X89402481Y-147928985D01*
X89521015Y-148047519D01*
X89614147Y-148186900D01*
X89678297Y-148341772D01*
X89711000Y-148506184D01*
X89711000Y-148673816D01*
X89678297Y-148838228D01*
X89614147Y-148993100D01*
X89521015Y-149132481D01*
X89402481Y-149251015D01*
X89263100Y-149344147D01*
X89108228Y-149408297D01*
X88943816Y-149441000D01*
X88776184Y-149441000D01*
X88611772Y-149408297D01*
X88456900Y-149344147D01*
X88317519Y-149251015D01*
X88198985Y-149132481D01*
X88105853Y-148993100D01*
X88041703Y-148838228D01*
X88009000Y-148673816D01*
X88009000Y-148506184D01*
X88041703Y-148341772D01*
X88105853Y-148186900D01*
X88198985Y-148047519D01*
X88317519Y-147928985D01*
X88456900Y-147835853D01*
X88611772Y-147771703D01*
X88776184Y-147739000D01*
X88943816Y-147739000D01*
X89108228Y-147771703D01*
X89108228Y-147771703D01*
G37*
G36*
X87211000Y-149441000D02*
G01*
X85509000Y-149441000D01*
X85509000Y-147739000D01*
X87211000Y-147739000D01*
X87211000Y-149441000D01*
X87211000Y-149441000D01*
G37*
G36*
X95360442Y-146425518D02*
G01*
X95426627Y-146432037D01*
X95596466Y-146483557D01*
X95752991Y-146567222D01*
X95788729Y-146596552D01*
X95890186Y-146679814D01*
X95970369Y-146777519D01*
X96002778Y-146817009D01*
X96086443Y-146973534D01*
X96137963Y-147143373D01*
X96155359Y-147320000D01*
X96137963Y-147496627D01*
X96086443Y-147666466D01*
X96002778Y-147822991D01*
X95992223Y-147835852D01*
X95890186Y-147960186D01*
X95792357Y-148040471D01*
X95752991Y-148072778D01*
X95596466Y-148156443D01*
X95426627Y-148207963D01*
X95360442Y-148214482D01*
X95294260Y-148221000D01*
X95205740Y-148221000D01*
X95139558Y-148214482D01*
X95073373Y-148207963D01*
X94903534Y-148156443D01*
X94747009Y-148072778D01*
X94707643Y-148040471D01*
X94609814Y-147960186D01*
X94507777Y-147835852D01*
X94497222Y-147822991D01*
X94413557Y-147666466D01*
X94362037Y-147496627D01*
X94344641Y-147320000D01*
X94362037Y-147143373D01*
X94413557Y-146973534D01*
X94497222Y-146817009D01*
X94529631Y-146777519D01*
X94609814Y-146679814D01*
X94711271Y-146596552D01*
X94747009Y-146567222D01*
X94903534Y-146483557D01*
X95073373Y-146432037D01*
X95139558Y-146425518D01*
X95205740Y-146419000D01*
X95294260Y-146419000D01*
X95360442Y-146425518D01*
X95360442Y-146425518D01*
G37*
G36*
X99170442Y-146425518D02*
G01*
X99236627Y-146432037D01*
X99406466Y-146483557D01*
X99562991Y-146567222D01*
X99598729Y-146596552D01*
X99700186Y-146679814D01*
X99780369Y-146777519D01*
X99812778Y-146817009D01*
X99896443Y-146973534D01*
X99947963Y-147143373D01*
X99965359Y-147320000D01*
X99947963Y-147496627D01*
X99896443Y-147666466D01*
X99812778Y-147822991D01*
X99802223Y-147835852D01*
X99700186Y-147960186D01*
X99602357Y-148040471D01*
X99562991Y-148072778D01*
X99406466Y-148156443D01*
X99236627Y-148207963D01*
X99170442Y-148214482D01*
X99104260Y-148221000D01*
X99015740Y-148221000D01*
X98949558Y-148214482D01*
X98883373Y-148207963D01*
X98713534Y-148156443D01*
X98557009Y-148072778D01*
X98517643Y-148040471D01*
X98419814Y-147960186D01*
X98317777Y-147835852D01*
X98307222Y-147822991D01*
X98223557Y-147666466D01*
X98172037Y-147496627D01*
X98154641Y-147320000D01*
X98172037Y-147143373D01*
X98223557Y-146973534D01*
X98307222Y-146817009D01*
X98339631Y-146777519D01*
X98419814Y-146679814D01*
X98521271Y-146596552D01*
X98557009Y-146567222D01*
X98713534Y-146483557D01*
X98883373Y-146432037D01*
X98949558Y-146425518D01*
X99015740Y-146419000D01*
X99104260Y-146419000D01*
X99170442Y-146425518D01*
X99170442Y-146425518D01*
G37*
G36*
X102980442Y-146425518D02*
G01*
X103046627Y-146432037D01*
X103216466Y-146483557D01*
X103372991Y-146567222D01*
X103408729Y-146596552D01*
X103510186Y-146679814D01*
X103590369Y-146777519D01*
X103622778Y-146817009D01*
X103706443Y-146973534D01*
X103757963Y-147143373D01*
X103775359Y-147320000D01*
X103757963Y-147496627D01*
X103706443Y-147666466D01*
X103622778Y-147822991D01*
X103612223Y-147835852D01*
X103510186Y-147960186D01*
X103412357Y-148040471D01*
X103372991Y-148072778D01*
X103216466Y-148156443D01*
X103046627Y-148207963D01*
X102980442Y-148214482D01*
X102914260Y-148221000D01*
X102825740Y-148221000D01*
X102759558Y-148214482D01*
X102693373Y-148207963D01*
X102523534Y-148156443D01*
X102367009Y-148072778D01*
X102327643Y-148040471D01*
X102229814Y-147960186D01*
X102127777Y-147835852D01*
X102117222Y-147822991D01*
X102033557Y-147666466D01*
X101982037Y-147496627D01*
X101964641Y-147320000D01*
X101982037Y-147143373D01*
X102033557Y-146973534D01*
X102117222Y-146817009D01*
X102149631Y-146777519D01*
X102229814Y-146679814D01*
X102331271Y-146596552D01*
X102367009Y-146567222D01*
X102523534Y-146483557D01*
X102693373Y-146432037D01*
X102759558Y-146425518D01*
X102825740Y-146419000D01*
X102914260Y-146419000D01*
X102980442Y-146425518D01*
X102980442Y-146425518D01*
G37*
G36*
X137368228Y-146501703D02*
G01*
X137523100Y-146565853D01*
X137662481Y-146658985D01*
X137781015Y-146777519D01*
X137874147Y-146916900D01*
X137938297Y-147071772D01*
X137971000Y-147236184D01*
X137971000Y-147403816D01*
X137938297Y-147568228D01*
X137874147Y-147723100D01*
X137781015Y-147862481D01*
X137662481Y-147981015D01*
X137523100Y-148074147D01*
X137368228Y-148138297D01*
X137203816Y-148171000D01*
X137036184Y-148171000D01*
X136871772Y-148138297D01*
X136716900Y-148074147D01*
X136577519Y-147981015D01*
X136458985Y-147862481D01*
X136365853Y-147723100D01*
X136301703Y-147568228D01*
X136269000Y-147403816D01*
X136269000Y-147236184D01*
X136301703Y-147071772D01*
X136365853Y-146916900D01*
X136458985Y-146777519D01*
X136577519Y-146658985D01*
X136716900Y-146565853D01*
X136871772Y-146501703D01*
X137036184Y-146469000D01*
X137203816Y-146469000D01*
X137368228Y-146501703D01*
X137368228Y-146501703D01*
G37*
G36*
X135471000Y-148171000D02*
G01*
X133769000Y-148171000D01*
X133769000Y-146469000D01*
X135471000Y-146469000D01*
X135471000Y-148171000D01*
X135471000Y-148171000D01*
G37*
G36*
X123427142Y-146538242D02*
G01*
X123575101Y-146599529D01*
X123708255Y-146688499D01*
X123821501Y-146801745D01*
X123910471Y-146934899D01*
X123971758Y-147082858D01*
X124003000Y-147239925D01*
X124003000Y-147400075D01*
X123971758Y-147557142D01*
X123910471Y-147705101D01*
X123821501Y-147838255D01*
X123708255Y-147951501D01*
X123575101Y-148040471D01*
X123427142Y-148101758D01*
X123270075Y-148133000D01*
X123109925Y-148133000D01*
X122952858Y-148101758D01*
X122804899Y-148040471D01*
X122671745Y-147951501D01*
X122558499Y-147838255D01*
X122469529Y-147705101D01*
X122408242Y-147557142D01*
X122377000Y-147400075D01*
X122377000Y-147239925D01*
X122408242Y-147082858D01*
X122469529Y-146934899D01*
X122558499Y-146801745D01*
X122671745Y-146688499D01*
X122804899Y-146599529D01*
X122952858Y-146538242D01*
X123109925Y-146507000D01*
X123270075Y-146507000D01*
X123427142Y-146538242D01*
X123427142Y-146538242D01*
G37*
G36*
X110727142Y-146538242D02*
G01*
X110875101Y-146599529D01*
X111008255Y-146688499D01*
X111121501Y-146801745D01*
X111210471Y-146934899D01*
X111271758Y-147082858D01*
X111303000Y-147239925D01*
X111303000Y-147400075D01*
X111271758Y-147557142D01*
X111210471Y-147705101D01*
X111121501Y-147838255D01*
X111008255Y-147951501D01*
X110875101Y-148040471D01*
X110727142Y-148101758D01*
X110570075Y-148133000D01*
X110409925Y-148133000D01*
X110252858Y-148101758D01*
X110104899Y-148040471D01*
X109971745Y-147951501D01*
X109858499Y-147838255D01*
X109769529Y-147705101D01*
X109708242Y-147557142D01*
X109677000Y-147400075D01*
X109677000Y-147239925D01*
X109708242Y-147082858D01*
X109769529Y-146934899D01*
X109858499Y-146801745D01*
X109971745Y-146688499D01*
X110104899Y-146599529D01*
X110252858Y-146538242D01*
X110409925Y-146507000D01*
X110570075Y-146507000D01*
X110727142Y-146538242D01*
X110727142Y-146538242D01*
G37*
G36*
X80247142Y-146538242D02*
G01*
X80395101Y-146599529D01*
X80528255Y-146688499D01*
X80641501Y-146801745D01*
X80730471Y-146934899D01*
X80791758Y-147082858D01*
X80823000Y-147239925D01*
X80823000Y-147400075D01*
X80791758Y-147557142D01*
X80730471Y-147705101D01*
X80641501Y-147838255D01*
X80528255Y-147951501D01*
X80395101Y-148040471D01*
X80247142Y-148101758D01*
X80090075Y-148133000D01*
X79929925Y-148133000D01*
X79772858Y-148101758D01*
X79624899Y-148040471D01*
X79491745Y-147951501D01*
X79378499Y-147838255D01*
X79289529Y-147705101D01*
X79228242Y-147557142D01*
X79197000Y-147400075D01*
X79197000Y-147239925D01*
X79228242Y-147082858D01*
X79289529Y-146934899D01*
X79378499Y-146801745D01*
X79491745Y-146688499D01*
X79624899Y-146599529D01*
X79772858Y-146538242D01*
X79929925Y-146507000D01*
X80090075Y-146507000D01*
X80247142Y-146538242D01*
X80247142Y-146538242D01*
G37*
G36*
X54847142Y-146339372D02*
G01*
X54995101Y-146400659D01*
X55128255Y-146489629D01*
X55241501Y-146602875D01*
X55330471Y-146736029D01*
X55391758Y-146883988D01*
X55423000Y-147041055D01*
X55423000Y-147201205D01*
X55391758Y-147358272D01*
X55330471Y-147506231D01*
X55241501Y-147639385D01*
X55128255Y-147752631D01*
X54995101Y-147841601D01*
X54847142Y-147902888D01*
X54690075Y-147934130D01*
X54529925Y-147934130D01*
X54372858Y-147902888D01*
X54224899Y-147841601D01*
X54091745Y-147752631D01*
X53978499Y-147639385D01*
X53889529Y-147506231D01*
X53828242Y-147358272D01*
X53797000Y-147201205D01*
X53797000Y-147041055D01*
X53828242Y-146883988D01*
X53889529Y-146736029D01*
X53978499Y-146602875D01*
X54091745Y-146489629D01*
X54224899Y-146400659D01*
X54372858Y-146339372D01*
X54529925Y-146308130D01*
X54690075Y-146308130D01*
X54847142Y-146339372D01*
X54847142Y-146339372D01*
G37*
G36*
X95360443Y-143885519D02*
G01*
X95426627Y-143892037D01*
X95596466Y-143943557D01*
X95752991Y-144027222D01*
X95788729Y-144056552D01*
X95890186Y-144139814D01*
X95973448Y-144241271D01*
X96002778Y-144277009D01*
X96086443Y-144433534D01*
X96137963Y-144603373D01*
X96155359Y-144780000D01*
X96137963Y-144956627D01*
X96086443Y-145126466D01*
X96002778Y-145282991D01*
X95990251Y-145298255D01*
X95890186Y-145420186D01*
X95792357Y-145500471D01*
X95752991Y-145532778D01*
X95596466Y-145616443D01*
X95426627Y-145667963D01*
X95360443Y-145674481D01*
X95294260Y-145681000D01*
X95205740Y-145681000D01*
X95139557Y-145674481D01*
X95073373Y-145667963D01*
X94903534Y-145616443D01*
X94747009Y-145532778D01*
X94707643Y-145500471D01*
X94609814Y-145420186D01*
X94509749Y-145298255D01*
X94497222Y-145282991D01*
X94413557Y-145126466D01*
X94362037Y-144956627D01*
X94344641Y-144780000D01*
X94362037Y-144603373D01*
X94413557Y-144433534D01*
X94497222Y-144277009D01*
X94526552Y-144241271D01*
X94609814Y-144139814D01*
X94711271Y-144056552D01*
X94747009Y-144027222D01*
X94903534Y-143943557D01*
X95073373Y-143892037D01*
X95139557Y-143885519D01*
X95205740Y-143879000D01*
X95294260Y-143879000D01*
X95360443Y-143885519D01*
X95360443Y-143885519D01*
G37*
G36*
X102980443Y-143885519D02*
G01*
X103046627Y-143892037D01*
X103216466Y-143943557D01*
X103372991Y-144027222D01*
X103408729Y-144056552D01*
X103510186Y-144139814D01*
X103593448Y-144241271D01*
X103622778Y-144277009D01*
X103706443Y-144433534D01*
X103757963Y-144603373D01*
X103775359Y-144780000D01*
X103757963Y-144956627D01*
X103706443Y-145126466D01*
X103622778Y-145282991D01*
X103610251Y-145298255D01*
X103510186Y-145420186D01*
X103412357Y-145500471D01*
X103372991Y-145532778D01*
X103216466Y-145616443D01*
X103046627Y-145667963D01*
X102980443Y-145674481D01*
X102914260Y-145681000D01*
X102825740Y-145681000D01*
X102759557Y-145674481D01*
X102693373Y-145667963D01*
X102523534Y-145616443D01*
X102367009Y-145532778D01*
X102327643Y-145500471D01*
X102229814Y-145420186D01*
X102129749Y-145298255D01*
X102117222Y-145282991D01*
X102033557Y-145126466D01*
X101982037Y-144956627D01*
X101964641Y-144780000D01*
X101982037Y-144603373D01*
X102033557Y-144433534D01*
X102117222Y-144277009D01*
X102146552Y-144241271D01*
X102229814Y-144139814D01*
X102331271Y-144056552D01*
X102367009Y-144027222D01*
X102523534Y-143943557D01*
X102693373Y-143892037D01*
X102759557Y-143885519D01*
X102825740Y-143879000D01*
X102914260Y-143879000D01*
X102980443Y-143885519D01*
X102980443Y-143885519D01*
G37*
G36*
X99170443Y-143885519D02*
G01*
X99236627Y-143892037D01*
X99406466Y-143943557D01*
X99562991Y-144027222D01*
X99598729Y-144056552D01*
X99700186Y-144139814D01*
X99783448Y-144241271D01*
X99812778Y-144277009D01*
X99896443Y-144433534D01*
X99947963Y-144603373D01*
X99965359Y-144780000D01*
X99947963Y-144956627D01*
X99896443Y-145126466D01*
X99812778Y-145282991D01*
X99800251Y-145298255D01*
X99700186Y-145420186D01*
X99602357Y-145500471D01*
X99562991Y-145532778D01*
X99406466Y-145616443D01*
X99236627Y-145667963D01*
X99170443Y-145674481D01*
X99104260Y-145681000D01*
X99015740Y-145681000D01*
X98949557Y-145674481D01*
X98883373Y-145667963D01*
X98713534Y-145616443D01*
X98557009Y-145532778D01*
X98517643Y-145500471D01*
X98419814Y-145420186D01*
X98319749Y-145298255D01*
X98307222Y-145282991D01*
X98223557Y-145126466D01*
X98172037Y-144956627D01*
X98154641Y-144780000D01*
X98172037Y-144603373D01*
X98223557Y-144433534D01*
X98307222Y-144277009D01*
X98336552Y-144241271D01*
X98419814Y-144139814D01*
X98521271Y-144056552D01*
X98557009Y-144027222D01*
X98713534Y-143943557D01*
X98883373Y-143892037D01*
X98949557Y-143885519D01*
X99015740Y-143879000D01*
X99104260Y-143879000D01*
X99170443Y-143885519D01*
X99170443Y-143885519D01*
G37*
G36*
X130441000Y-145681000D02*
G01*
X128639000Y-145681000D01*
X128639000Y-143879000D01*
X130441000Y-143879000D01*
X130441000Y-145681000D01*
X130441000Y-145681000D01*
G37*
G36*
X110727142Y-143998242D02*
G01*
X110875101Y-144059529D01*
X111008255Y-144148499D01*
X111121501Y-144261745D01*
X111210471Y-144394899D01*
X111271758Y-144542858D01*
X111303000Y-144699925D01*
X111303000Y-144860075D01*
X111271758Y-145017142D01*
X111210471Y-145165101D01*
X111121501Y-145298255D01*
X111008255Y-145411501D01*
X110875101Y-145500471D01*
X110727142Y-145561758D01*
X110570075Y-145593000D01*
X110409925Y-145593000D01*
X110252858Y-145561758D01*
X110104899Y-145500471D01*
X109971745Y-145411501D01*
X109858499Y-145298255D01*
X109769529Y-145165101D01*
X109708242Y-145017142D01*
X109677000Y-144860075D01*
X109677000Y-144699925D01*
X109708242Y-144542858D01*
X109769529Y-144394899D01*
X109858499Y-144261745D01*
X109971745Y-144148499D01*
X110104899Y-144059529D01*
X110252858Y-143998242D01*
X110409925Y-143967000D01*
X110570075Y-143967000D01*
X110727142Y-143998242D01*
X110727142Y-143998242D01*
G37*
G36*
X80247142Y-143998242D02*
G01*
X80395101Y-144059529D01*
X80528255Y-144148499D01*
X80641501Y-144261745D01*
X80730471Y-144394899D01*
X80791758Y-144542858D01*
X80823000Y-144699925D01*
X80823000Y-144860075D01*
X80791758Y-145017142D01*
X80730471Y-145165101D01*
X80641501Y-145298255D01*
X80528255Y-145411501D01*
X80395101Y-145500471D01*
X80247142Y-145561758D01*
X80090075Y-145593000D01*
X79929925Y-145593000D01*
X79772858Y-145561758D01*
X79624899Y-145500471D01*
X79491745Y-145411501D01*
X79378499Y-145298255D01*
X79289529Y-145165101D01*
X79228242Y-145017142D01*
X79197000Y-144860075D01*
X79197000Y-144699925D01*
X79228242Y-144542858D01*
X79289529Y-144394899D01*
X79378499Y-144261745D01*
X79491745Y-144148499D01*
X79624899Y-144059529D01*
X79772858Y-143998242D01*
X79929925Y-143967000D01*
X80090075Y-143967000D01*
X80247142Y-143998242D01*
X80247142Y-143998242D01*
G37*
G36*
X54847142Y-143998242D02*
G01*
X54995101Y-144059529D01*
X55128255Y-144148499D01*
X55241501Y-144261745D01*
X55330471Y-144394899D01*
X55391758Y-144542858D01*
X55423000Y-144699925D01*
X55423000Y-144860075D01*
X55391758Y-145017142D01*
X55330471Y-145165101D01*
X55241501Y-145298255D01*
X55128255Y-145411501D01*
X54995101Y-145500471D01*
X54847142Y-145561758D01*
X54690075Y-145593000D01*
X54529925Y-145593000D01*
X54372858Y-145561758D01*
X54224899Y-145500471D01*
X54091745Y-145411501D01*
X53978499Y-145298255D01*
X53889529Y-145165101D01*
X53828242Y-145017142D01*
X53797000Y-144860075D01*
X53797000Y-144699925D01*
X53828242Y-144542858D01*
X53889529Y-144394899D01*
X53978499Y-144261745D01*
X54091745Y-144148499D01*
X54224899Y-144059529D01*
X54372858Y-143998242D01*
X54529925Y-143967000D01*
X54690075Y-143967000D01*
X54847142Y-143998242D01*
X54847142Y-143998242D01*
G37*
G36*
X123427142Y-143998242D02*
G01*
X123575101Y-144059529D01*
X123708255Y-144148499D01*
X123821501Y-144261745D01*
X123910471Y-144394899D01*
X123971758Y-144542858D01*
X124003000Y-144699925D01*
X124003000Y-144860075D01*
X123971758Y-145017142D01*
X123910471Y-145165101D01*
X123821501Y-145298255D01*
X123708255Y-145411501D01*
X123575101Y-145500471D01*
X123427142Y-145561758D01*
X123270075Y-145593000D01*
X123109925Y-145593000D01*
X122952858Y-145561758D01*
X122804899Y-145500471D01*
X122671745Y-145411501D01*
X122558499Y-145298255D01*
X122469529Y-145165101D01*
X122408242Y-145017142D01*
X122377000Y-144860075D01*
X122377000Y-144699925D01*
X122408242Y-144542858D01*
X122469529Y-144394899D01*
X122558499Y-144261745D01*
X122671745Y-144148499D01*
X122804899Y-144059529D01*
X122952858Y-143998242D01*
X123109925Y-143967000D01*
X123270075Y-143967000D01*
X123427142Y-143998242D01*
X123427142Y-143998242D01*
G37*
G36*
X129650442Y-141345518D02*
G01*
X129716627Y-141352037D01*
X129886466Y-141403557D01*
X130042991Y-141487222D01*
X130078729Y-141516552D01*
X130180186Y-141599814D01*
X130263448Y-141701271D01*
X130292778Y-141737009D01*
X130376443Y-141893534D01*
X130427963Y-142063373D01*
X130445359Y-142240000D01*
X130427963Y-142416627D01*
X130376443Y-142586466D01*
X130292778Y-142742991D01*
X130280251Y-142758255D01*
X130180186Y-142880186D01*
X130082357Y-142960471D01*
X130042991Y-142992778D01*
X129886466Y-143076443D01*
X129716627Y-143127963D01*
X129650443Y-143134481D01*
X129584260Y-143141000D01*
X129495740Y-143141000D01*
X129429557Y-143134481D01*
X129363373Y-143127963D01*
X129193534Y-143076443D01*
X129037009Y-142992778D01*
X128997643Y-142960471D01*
X128899814Y-142880186D01*
X128799749Y-142758255D01*
X128787222Y-142742991D01*
X128703557Y-142586466D01*
X128652037Y-142416627D01*
X128634641Y-142240000D01*
X128652037Y-142063373D01*
X128703557Y-141893534D01*
X128787222Y-141737009D01*
X128816552Y-141701271D01*
X128899814Y-141599814D01*
X129001271Y-141516552D01*
X129037009Y-141487222D01*
X129193534Y-141403557D01*
X129363373Y-141352037D01*
X129429558Y-141345518D01*
X129495740Y-141339000D01*
X129584260Y-141339000D01*
X129650442Y-141345518D01*
X129650442Y-141345518D01*
G37*
G36*
X95360442Y-141345518D02*
G01*
X95426627Y-141352037D01*
X95596466Y-141403557D01*
X95752991Y-141487222D01*
X95788729Y-141516552D01*
X95890186Y-141599814D01*
X95973448Y-141701271D01*
X96002778Y-141737009D01*
X96086443Y-141893534D01*
X96137963Y-142063373D01*
X96155359Y-142240000D01*
X96137963Y-142416627D01*
X96086443Y-142586466D01*
X96002778Y-142742991D01*
X95990251Y-142758255D01*
X95890186Y-142880186D01*
X95792357Y-142960471D01*
X95752991Y-142992778D01*
X95596466Y-143076443D01*
X95426627Y-143127963D01*
X95360443Y-143134481D01*
X95294260Y-143141000D01*
X95205740Y-143141000D01*
X95139557Y-143134481D01*
X95073373Y-143127963D01*
X94903534Y-143076443D01*
X94747009Y-142992778D01*
X94707643Y-142960471D01*
X94609814Y-142880186D01*
X94509749Y-142758255D01*
X94497222Y-142742991D01*
X94413557Y-142586466D01*
X94362037Y-142416627D01*
X94344641Y-142240000D01*
X94362037Y-142063373D01*
X94413557Y-141893534D01*
X94497222Y-141737009D01*
X94526552Y-141701271D01*
X94609814Y-141599814D01*
X94711271Y-141516552D01*
X94747009Y-141487222D01*
X94903534Y-141403557D01*
X95073373Y-141352037D01*
X95139558Y-141345518D01*
X95205740Y-141339000D01*
X95294260Y-141339000D01*
X95360442Y-141345518D01*
X95360442Y-141345518D01*
G37*
G36*
X102980442Y-141345518D02*
G01*
X103046627Y-141352037D01*
X103216466Y-141403557D01*
X103372991Y-141487222D01*
X103408729Y-141516552D01*
X103510186Y-141599814D01*
X103593448Y-141701271D01*
X103622778Y-141737009D01*
X103706443Y-141893534D01*
X103757963Y-142063373D01*
X103775359Y-142240000D01*
X103757963Y-142416627D01*
X103706443Y-142586466D01*
X103622778Y-142742991D01*
X103610251Y-142758255D01*
X103510186Y-142880186D01*
X103412357Y-142960471D01*
X103372991Y-142992778D01*
X103216466Y-143076443D01*
X103046627Y-143127963D01*
X102980443Y-143134481D01*
X102914260Y-143141000D01*
X102825740Y-143141000D01*
X102759557Y-143134481D01*
X102693373Y-143127963D01*
X102523534Y-143076443D01*
X102367009Y-142992778D01*
X102327643Y-142960471D01*
X102229814Y-142880186D01*
X102129749Y-142758255D01*
X102117222Y-142742991D01*
X102033557Y-142586466D01*
X101982037Y-142416627D01*
X101964641Y-142240000D01*
X101982037Y-142063373D01*
X102033557Y-141893534D01*
X102117222Y-141737009D01*
X102146552Y-141701271D01*
X102229814Y-141599814D01*
X102331271Y-141516552D01*
X102367009Y-141487222D01*
X102523534Y-141403557D01*
X102693373Y-141352037D01*
X102759558Y-141345518D01*
X102825740Y-141339000D01*
X102914260Y-141339000D01*
X102980442Y-141345518D01*
X102980442Y-141345518D01*
G37*
G36*
X99170442Y-141345518D02*
G01*
X99236627Y-141352037D01*
X99406466Y-141403557D01*
X99562991Y-141487222D01*
X99598729Y-141516552D01*
X99700186Y-141599814D01*
X99783448Y-141701271D01*
X99812778Y-141737009D01*
X99896443Y-141893534D01*
X99947963Y-142063373D01*
X99965359Y-142240000D01*
X99947963Y-142416627D01*
X99896443Y-142586466D01*
X99812778Y-142742991D01*
X99800251Y-142758255D01*
X99700186Y-142880186D01*
X99602357Y-142960471D01*
X99562991Y-142992778D01*
X99406466Y-143076443D01*
X99236627Y-143127963D01*
X99170443Y-143134481D01*
X99104260Y-143141000D01*
X99015740Y-143141000D01*
X98949557Y-143134481D01*
X98883373Y-143127963D01*
X98713534Y-143076443D01*
X98557009Y-142992778D01*
X98517643Y-142960471D01*
X98419814Y-142880186D01*
X98319749Y-142758255D01*
X98307222Y-142742991D01*
X98223557Y-142586466D01*
X98172037Y-142416627D01*
X98154641Y-142240000D01*
X98172037Y-142063373D01*
X98223557Y-141893534D01*
X98307222Y-141737009D01*
X98336552Y-141701271D01*
X98419814Y-141599814D01*
X98521271Y-141516552D01*
X98557009Y-141487222D01*
X98713534Y-141403557D01*
X98883373Y-141352037D01*
X98949558Y-141345518D01*
X99015740Y-141339000D01*
X99104260Y-141339000D01*
X99170442Y-141345518D01*
X99170442Y-141345518D01*
G37*
G36*
X80247142Y-141458242D02*
G01*
X80395101Y-141519529D01*
X80528255Y-141608499D01*
X80641501Y-141721745D01*
X80730471Y-141854899D01*
X80791758Y-142002858D01*
X80823000Y-142159925D01*
X80823000Y-142320075D01*
X80791758Y-142477142D01*
X80730471Y-142625101D01*
X80641501Y-142758255D01*
X80528255Y-142871501D01*
X80395101Y-142960471D01*
X80247142Y-143021758D01*
X80090075Y-143053000D01*
X79929925Y-143053000D01*
X79772858Y-143021758D01*
X79624899Y-142960471D01*
X79491745Y-142871501D01*
X79378499Y-142758255D01*
X79289529Y-142625101D01*
X79228242Y-142477142D01*
X79197000Y-142320075D01*
X79197000Y-142159925D01*
X79228242Y-142002858D01*
X79289529Y-141854899D01*
X79378499Y-141721745D01*
X79491745Y-141608499D01*
X79624899Y-141519529D01*
X79772858Y-141458242D01*
X79929925Y-141427000D01*
X80090075Y-141427000D01*
X80247142Y-141458242D01*
X80247142Y-141458242D01*
G37*
G36*
X54847142Y-141458242D02*
G01*
X54995101Y-141519529D01*
X55128255Y-141608499D01*
X55241501Y-141721745D01*
X55330471Y-141854899D01*
X55391758Y-142002858D01*
X55423000Y-142159925D01*
X55423000Y-142320075D01*
X55391758Y-142477142D01*
X55330471Y-142625101D01*
X55241501Y-142758255D01*
X55128255Y-142871501D01*
X54995101Y-142960471D01*
X54847142Y-143021758D01*
X54690075Y-143053000D01*
X54529925Y-143053000D01*
X54372858Y-143021758D01*
X54224899Y-142960471D01*
X54091745Y-142871501D01*
X53978499Y-142758255D01*
X53889529Y-142625101D01*
X53828242Y-142477142D01*
X53797000Y-142320075D01*
X53797000Y-142159925D01*
X53828242Y-142002858D01*
X53889529Y-141854899D01*
X53978499Y-141721745D01*
X54091745Y-141608499D01*
X54224899Y-141519529D01*
X54372858Y-141458242D01*
X54529925Y-141427000D01*
X54690075Y-141427000D01*
X54847142Y-141458242D01*
X54847142Y-141458242D01*
G37*
G36*
X123427142Y-141458242D02*
G01*
X123575101Y-141519529D01*
X123708255Y-141608499D01*
X123821501Y-141721745D01*
X123910471Y-141854899D01*
X123971758Y-142002858D01*
X124003000Y-142159925D01*
X124003000Y-142320075D01*
X123971758Y-142477142D01*
X123910471Y-142625101D01*
X123821501Y-142758255D01*
X123708255Y-142871501D01*
X123575101Y-142960471D01*
X123427142Y-143021758D01*
X123270075Y-143053000D01*
X123109925Y-143053000D01*
X122952858Y-143021758D01*
X122804899Y-142960471D01*
X122671745Y-142871501D01*
X122558499Y-142758255D01*
X122469529Y-142625101D01*
X122408242Y-142477142D01*
X122377000Y-142320075D01*
X122377000Y-142159925D01*
X122408242Y-142002858D01*
X122469529Y-141854899D01*
X122558499Y-141721745D01*
X122671745Y-141608499D01*
X122804899Y-141519529D01*
X122952858Y-141458242D01*
X123109925Y-141427000D01*
X123270075Y-141427000D01*
X123427142Y-141458242D01*
X123427142Y-141458242D01*
G37*
G36*
X110727142Y-141458242D02*
G01*
X110875101Y-141519529D01*
X111008255Y-141608499D01*
X111121501Y-141721745D01*
X111210471Y-141854899D01*
X111271758Y-142002858D01*
X111303000Y-142159925D01*
X111303000Y-142320075D01*
X111271758Y-142477142D01*
X111210471Y-142625101D01*
X111121501Y-142758255D01*
X111008255Y-142871501D01*
X110875101Y-142960471D01*
X110727142Y-143021758D01*
X110570075Y-143053000D01*
X110409925Y-143053000D01*
X110252858Y-143021758D01*
X110104899Y-142960471D01*
X109971745Y-142871501D01*
X109858499Y-142758255D01*
X109769529Y-142625101D01*
X109708242Y-142477142D01*
X109677000Y-142320075D01*
X109677000Y-142159925D01*
X109708242Y-142002858D01*
X109769529Y-141854899D01*
X109858499Y-141721745D01*
X109971745Y-141608499D01*
X110104899Y-141519529D01*
X110252858Y-141458242D01*
X110409925Y-141427000D01*
X110570075Y-141427000D01*
X110727142Y-141458242D01*
X110727142Y-141458242D01*
G37*
G36*
X99961000Y-140601000D02*
G01*
X98159000Y-140601000D01*
X98159000Y-138799000D01*
X99961000Y-138799000D01*
X99961000Y-140601000D01*
X99961000Y-140601000D01*
G37*
G36*
X96151000Y-140601000D02*
G01*
X94349000Y-140601000D01*
X94349000Y-138799000D01*
X96151000Y-138799000D01*
X96151000Y-140601000D01*
X96151000Y-140601000D01*
G37*
G36*
X103771000Y-140601000D02*
G01*
X101969000Y-140601000D01*
X101969000Y-138799000D01*
X103771000Y-138799000D01*
X103771000Y-140601000D01*
X103771000Y-140601000D01*
G37*
G36*
X129650442Y-138805518D02*
G01*
X129716627Y-138812037D01*
X129886466Y-138863557D01*
X130042991Y-138947222D01*
X130078729Y-138976552D01*
X130180186Y-139059814D01*
X130263448Y-139161271D01*
X130292778Y-139197009D01*
X130376443Y-139353534D01*
X130427963Y-139523373D01*
X130445359Y-139700000D01*
X130427963Y-139876627D01*
X130376443Y-140046466D01*
X130292778Y-140202991D01*
X130280251Y-140218255D01*
X130180186Y-140340186D01*
X130082357Y-140420471D01*
X130042991Y-140452778D01*
X129886466Y-140536443D01*
X129716627Y-140587963D01*
X129650442Y-140594482D01*
X129584260Y-140601000D01*
X129495740Y-140601000D01*
X129429558Y-140594482D01*
X129363373Y-140587963D01*
X129193534Y-140536443D01*
X129037009Y-140452778D01*
X128997643Y-140420471D01*
X128899814Y-140340186D01*
X128799749Y-140218255D01*
X128787222Y-140202991D01*
X128703557Y-140046466D01*
X128652037Y-139876627D01*
X128634641Y-139700000D01*
X128652037Y-139523373D01*
X128703557Y-139353534D01*
X128787222Y-139197009D01*
X128816552Y-139161271D01*
X128899814Y-139059814D01*
X129001271Y-138976552D01*
X129037009Y-138947222D01*
X129193534Y-138863557D01*
X129363373Y-138812037D01*
X129429558Y-138805518D01*
X129495740Y-138799000D01*
X129584260Y-138799000D01*
X129650442Y-138805518D01*
X129650442Y-138805518D01*
G37*
G36*
X80247142Y-138918242D02*
G01*
X80395101Y-138979529D01*
X80528255Y-139068499D01*
X80641501Y-139181745D01*
X80730471Y-139314899D01*
X80791758Y-139462858D01*
X80823000Y-139619925D01*
X80823000Y-139780075D01*
X80791758Y-139937142D01*
X80730471Y-140085101D01*
X80641501Y-140218255D01*
X80528255Y-140331501D01*
X80395101Y-140420471D01*
X80247142Y-140481758D01*
X80090075Y-140513000D01*
X79929925Y-140513000D01*
X79772858Y-140481758D01*
X79624899Y-140420471D01*
X79491745Y-140331501D01*
X79378499Y-140218255D01*
X79289529Y-140085101D01*
X79228242Y-139937142D01*
X79197000Y-139780075D01*
X79197000Y-139619925D01*
X79228242Y-139462858D01*
X79289529Y-139314899D01*
X79378499Y-139181745D01*
X79491745Y-139068499D01*
X79624899Y-138979529D01*
X79772858Y-138918242D01*
X79929925Y-138887000D01*
X80090075Y-138887000D01*
X80247142Y-138918242D01*
X80247142Y-138918242D01*
G37*
G36*
X54847142Y-138918242D02*
G01*
X54995101Y-138979529D01*
X55128255Y-139068499D01*
X55241501Y-139181745D01*
X55330471Y-139314899D01*
X55391758Y-139462858D01*
X55423000Y-139619925D01*
X55423000Y-139780075D01*
X55391758Y-139937142D01*
X55330471Y-140085101D01*
X55241501Y-140218255D01*
X55128255Y-140331501D01*
X54995101Y-140420471D01*
X54847142Y-140481758D01*
X54690075Y-140513000D01*
X54529925Y-140513000D01*
X54372858Y-140481758D01*
X54224899Y-140420471D01*
X54091745Y-140331501D01*
X53978499Y-140218255D01*
X53889529Y-140085101D01*
X53828242Y-139937142D01*
X53797000Y-139780075D01*
X53797000Y-139619925D01*
X53828242Y-139462858D01*
X53889529Y-139314899D01*
X53978499Y-139181745D01*
X54091745Y-139068499D01*
X54224899Y-138979529D01*
X54372858Y-138918242D01*
X54529925Y-138887000D01*
X54690075Y-138887000D01*
X54847142Y-138918242D01*
X54847142Y-138918242D01*
G37*
G36*
X110727142Y-138918242D02*
G01*
X110875101Y-138979529D01*
X111008255Y-139068499D01*
X111121501Y-139181745D01*
X111210471Y-139314899D01*
X111271758Y-139462858D01*
X111303000Y-139619925D01*
X111303000Y-139780075D01*
X111271758Y-139937142D01*
X111210471Y-140085101D01*
X111121501Y-140218255D01*
X111008255Y-140331501D01*
X110875101Y-140420471D01*
X110727142Y-140481758D01*
X110570075Y-140513000D01*
X110409925Y-140513000D01*
X110252858Y-140481758D01*
X110104899Y-140420471D01*
X109971745Y-140331501D01*
X109858499Y-140218255D01*
X109769529Y-140085101D01*
X109708242Y-139937142D01*
X109677000Y-139780075D01*
X109677000Y-139619925D01*
X109708242Y-139462858D01*
X109769529Y-139314899D01*
X109858499Y-139181745D01*
X109971745Y-139068499D01*
X110104899Y-138979529D01*
X110252858Y-138918242D01*
X110409925Y-138887000D01*
X110570075Y-138887000D01*
X110727142Y-138918242D01*
X110727142Y-138918242D01*
G37*
G36*
X123427142Y-138918242D02*
G01*
X123575101Y-138979529D01*
X123708255Y-139068499D01*
X123821501Y-139181745D01*
X123910471Y-139314899D01*
X123971758Y-139462858D01*
X124003000Y-139619925D01*
X124003000Y-139780075D01*
X123971758Y-139937142D01*
X123910471Y-140085101D01*
X123821501Y-140218255D01*
X123708255Y-140331501D01*
X123575101Y-140420471D01*
X123427142Y-140481758D01*
X123270075Y-140513000D01*
X123109925Y-140513000D01*
X122952858Y-140481758D01*
X122804899Y-140420471D01*
X122671745Y-140331501D01*
X122558499Y-140218255D01*
X122469529Y-140085101D01*
X122408242Y-139937142D01*
X122377000Y-139780075D01*
X122377000Y-139619925D01*
X122408242Y-139462858D01*
X122469529Y-139314899D01*
X122558499Y-139181745D01*
X122671745Y-139068499D01*
X122804899Y-138979529D01*
X122952858Y-138918242D01*
X123109925Y-138887000D01*
X123270075Y-138887000D01*
X123427142Y-138918242D01*
X123427142Y-138918242D01*
G37*
G36*
X129650443Y-136265519D02*
G01*
X129716627Y-136272037D01*
X129886466Y-136323557D01*
X130042991Y-136407222D01*
X130078729Y-136436552D01*
X130180186Y-136519814D01*
X130263448Y-136621271D01*
X130292778Y-136657009D01*
X130376443Y-136813534D01*
X130427963Y-136983373D01*
X130445359Y-137160000D01*
X130427963Y-137336627D01*
X130376443Y-137506466D01*
X130292778Y-137662991D01*
X130280251Y-137678255D01*
X130180186Y-137800186D01*
X130082357Y-137880471D01*
X130042991Y-137912778D01*
X129886466Y-137996443D01*
X129716627Y-138047963D01*
X129650442Y-138054482D01*
X129584260Y-138061000D01*
X129495740Y-138061000D01*
X129429558Y-138054482D01*
X129363373Y-138047963D01*
X129193534Y-137996443D01*
X129037009Y-137912778D01*
X128997643Y-137880471D01*
X128899814Y-137800186D01*
X128799749Y-137678255D01*
X128787222Y-137662991D01*
X128703557Y-137506466D01*
X128652037Y-137336627D01*
X128634641Y-137160000D01*
X128652037Y-136983373D01*
X128703557Y-136813534D01*
X128787222Y-136657009D01*
X128816552Y-136621271D01*
X128899814Y-136519814D01*
X129001271Y-136436552D01*
X129037009Y-136407222D01*
X129193534Y-136323557D01*
X129363373Y-136272037D01*
X129429557Y-136265519D01*
X129495740Y-136259000D01*
X129584260Y-136259000D01*
X129650443Y-136265519D01*
X129650443Y-136265519D01*
G37*
G36*
X54847142Y-136378242D02*
G01*
X54995101Y-136439529D01*
X55128255Y-136528499D01*
X55241501Y-136641745D01*
X55330471Y-136774899D01*
X55391758Y-136922858D01*
X55423000Y-137079925D01*
X55423000Y-137240075D01*
X55391758Y-137397142D01*
X55330471Y-137545101D01*
X55241501Y-137678255D01*
X55128255Y-137791501D01*
X54995101Y-137880471D01*
X54847142Y-137941758D01*
X54690075Y-137973000D01*
X54529925Y-137973000D01*
X54372858Y-137941758D01*
X54224899Y-137880471D01*
X54091745Y-137791501D01*
X53978499Y-137678255D01*
X53889529Y-137545101D01*
X53828242Y-137397142D01*
X53797000Y-137240075D01*
X53797000Y-137079925D01*
X53828242Y-136922858D01*
X53889529Y-136774899D01*
X53978499Y-136641745D01*
X54091745Y-136528499D01*
X54224899Y-136439529D01*
X54372858Y-136378242D01*
X54529925Y-136347000D01*
X54690075Y-136347000D01*
X54847142Y-136378242D01*
X54847142Y-136378242D01*
G37*
G36*
X110727142Y-136378242D02*
G01*
X110875101Y-136439529D01*
X111008255Y-136528499D01*
X111121501Y-136641745D01*
X111210471Y-136774899D01*
X111271758Y-136922858D01*
X111303000Y-137079925D01*
X111303000Y-137240075D01*
X111271758Y-137397142D01*
X111210471Y-137545101D01*
X111121501Y-137678255D01*
X111008255Y-137791501D01*
X110875101Y-137880471D01*
X110727142Y-137941758D01*
X110570075Y-137973000D01*
X110409925Y-137973000D01*
X110252858Y-137941758D01*
X110104899Y-137880471D01*
X109971745Y-137791501D01*
X109858499Y-137678255D01*
X109769529Y-137545101D01*
X109708242Y-137397142D01*
X109677000Y-137240075D01*
X109677000Y-137079925D01*
X109708242Y-136922858D01*
X109769529Y-136774899D01*
X109858499Y-136641745D01*
X109971745Y-136528499D01*
X110104899Y-136439529D01*
X110252858Y-136378242D01*
X110409925Y-136347000D01*
X110570075Y-136347000D01*
X110727142Y-136378242D01*
X110727142Y-136378242D01*
G37*
G36*
X123427142Y-136378242D02*
G01*
X123575101Y-136439529D01*
X123708255Y-136528499D01*
X123821501Y-136641745D01*
X123910471Y-136774899D01*
X123971758Y-136922858D01*
X124003000Y-137079925D01*
X124003000Y-137240075D01*
X123971758Y-137397142D01*
X123910471Y-137545101D01*
X123821501Y-137678255D01*
X123708255Y-137791501D01*
X123575101Y-137880471D01*
X123427142Y-137941758D01*
X123270075Y-137973000D01*
X123109925Y-137973000D01*
X122952858Y-137941758D01*
X122804899Y-137880471D01*
X122671745Y-137791501D01*
X122558499Y-137678255D01*
X122469529Y-137545101D01*
X122408242Y-137397142D01*
X122377000Y-137240075D01*
X122377000Y-137079925D01*
X122408242Y-136922858D01*
X122469529Y-136774899D01*
X122558499Y-136641745D01*
X122671745Y-136528499D01*
X122804899Y-136439529D01*
X122952858Y-136378242D01*
X123109925Y-136347000D01*
X123270075Y-136347000D01*
X123427142Y-136378242D01*
X123427142Y-136378242D01*
G37*
G36*
X80247142Y-136378242D02*
G01*
X80395101Y-136439529D01*
X80528255Y-136528499D01*
X80641501Y-136641745D01*
X80730471Y-136774899D01*
X80791758Y-136922858D01*
X80823000Y-137079925D01*
X80823000Y-137240075D01*
X80791758Y-137397142D01*
X80730471Y-137545101D01*
X80641501Y-137678255D01*
X80528255Y-137791501D01*
X80395101Y-137880471D01*
X80247142Y-137941758D01*
X80090075Y-137973000D01*
X79929925Y-137973000D01*
X79772858Y-137941758D01*
X79624899Y-137880471D01*
X79491745Y-137791501D01*
X79378499Y-137678255D01*
X79289529Y-137545101D01*
X79228242Y-137397142D01*
X79197000Y-137240075D01*
X79197000Y-137079925D01*
X79228242Y-136922858D01*
X79289529Y-136774899D01*
X79378499Y-136641745D01*
X79491745Y-136528499D01*
X79624899Y-136439529D01*
X79772858Y-136378242D01*
X79929925Y-136347000D01*
X80090075Y-136347000D01*
X80247142Y-136378242D01*
X80247142Y-136378242D01*
G37*
G36*
X87261000Y-135521000D02*
G01*
X85459000Y-135521000D01*
X85459000Y-133719000D01*
X87261000Y-133719000D01*
X87261000Y-135521000D01*
X87261000Y-135521000D01*
G37*
G36*
X54847142Y-133838242D02*
G01*
X54995101Y-133899529D01*
X55128255Y-133988499D01*
X55241501Y-134101745D01*
X55330471Y-134234899D01*
X55391758Y-134382858D01*
X55423000Y-134539925D01*
X55423000Y-134700075D01*
X55391758Y-134857142D01*
X55330471Y-135005101D01*
X55241501Y-135138255D01*
X55128255Y-135251501D01*
X54995101Y-135340471D01*
X54847142Y-135401758D01*
X54690075Y-135433000D01*
X54529925Y-135433000D01*
X54372858Y-135401758D01*
X54224899Y-135340471D01*
X54091745Y-135251501D01*
X53978499Y-135138255D01*
X53889529Y-135005101D01*
X53828242Y-134857142D01*
X53797000Y-134700075D01*
X53797000Y-134539925D01*
X53828242Y-134382858D01*
X53889529Y-134234899D01*
X53978499Y-134101745D01*
X54091745Y-133988499D01*
X54224899Y-133899529D01*
X54372858Y-133838242D01*
X54529925Y-133807000D01*
X54690075Y-133807000D01*
X54847142Y-133838242D01*
X54847142Y-133838242D01*
G37*
G36*
X80247142Y-133838242D02*
G01*
X80395101Y-133899529D01*
X80528255Y-133988499D01*
X80641501Y-134101745D01*
X80730471Y-134234899D01*
X80791758Y-134382858D01*
X80823000Y-134539925D01*
X80823000Y-134700075D01*
X80791758Y-134857142D01*
X80730471Y-135005101D01*
X80641501Y-135138255D01*
X80528255Y-135251501D01*
X80395101Y-135340471D01*
X80247142Y-135401758D01*
X80090075Y-135433000D01*
X79929925Y-135433000D01*
X79772858Y-135401758D01*
X79624899Y-135340471D01*
X79491745Y-135251501D01*
X79378499Y-135138255D01*
X79289529Y-135005101D01*
X79228242Y-134857142D01*
X79197000Y-134700075D01*
X79197000Y-134539925D01*
X79228242Y-134382858D01*
X79289529Y-134234899D01*
X79378499Y-134101745D01*
X79491745Y-133988499D01*
X79624899Y-133899529D01*
X79772858Y-133838242D01*
X79929925Y-133807000D01*
X80090075Y-133807000D01*
X80247142Y-133838242D01*
X80247142Y-133838242D01*
G37*
G36*
X110727142Y-133838242D02*
G01*
X110875101Y-133899529D01*
X111008255Y-133988499D01*
X111121501Y-134101745D01*
X111210471Y-134234899D01*
X111271758Y-134382858D01*
X111303000Y-134539925D01*
X111303000Y-134700075D01*
X111271758Y-134857142D01*
X111210471Y-135005101D01*
X111121501Y-135138255D01*
X111008255Y-135251501D01*
X110875101Y-135340471D01*
X110727142Y-135401758D01*
X110570075Y-135433000D01*
X110409925Y-135433000D01*
X110252858Y-135401758D01*
X110104899Y-135340471D01*
X109971745Y-135251501D01*
X109858499Y-135138255D01*
X109769529Y-135005101D01*
X109708242Y-134857142D01*
X109677000Y-134700075D01*
X109677000Y-134539925D01*
X109708242Y-134382858D01*
X109769529Y-134234899D01*
X109858499Y-134101745D01*
X109971745Y-133988499D01*
X110104899Y-133899529D01*
X110252858Y-133838242D01*
X110409925Y-133807000D01*
X110570075Y-133807000D01*
X110727142Y-133838242D01*
X110727142Y-133838242D01*
G37*
G36*
X124003000Y-135433000D02*
G01*
X122377000Y-135433000D01*
X122377000Y-133807000D01*
X124003000Y-133807000D01*
X124003000Y-135433000D01*
X124003000Y-135433000D01*
G37*
G36*
X143001000Y-133121000D02*
G01*
X138939000Y-133121000D01*
X138939000Y-131039000D01*
X143001000Y-131039000D01*
X143001000Y-133121000D01*
X143001000Y-133121000D01*
G37*
G36*
X86470442Y-131185518D02*
G01*
X86536627Y-131192037D01*
X86706466Y-131243557D01*
X86862991Y-131327222D01*
X86898729Y-131356552D01*
X87000186Y-131439814D01*
X87083448Y-131541271D01*
X87112778Y-131577009D01*
X87196443Y-131733534D01*
X87247963Y-131903373D01*
X87265359Y-132080000D01*
X87247963Y-132256627D01*
X87196443Y-132426466D01*
X87112778Y-132582991D01*
X87100251Y-132598255D01*
X87000186Y-132720186D01*
X86902357Y-132800471D01*
X86862991Y-132832778D01*
X86706466Y-132916443D01*
X86536627Y-132967963D01*
X86470443Y-132974481D01*
X86404260Y-132981000D01*
X86315740Y-132981000D01*
X86249557Y-132974481D01*
X86183373Y-132967963D01*
X86013534Y-132916443D01*
X85857009Y-132832778D01*
X85817643Y-132800471D01*
X85719814Y-132720186D01*
X85619749Y-132598255D01*
X85607222Y-132582991D01*
X85523557Y-132426466D01*
X85472037Y-132256627D01*
X85454641Y-132080000D01*
X85472037Y-131903373D01*
X85523557Y-131733534D01*
X85607222Y-131577009D01*
X85636552Y-131541271D01*
X85719814Y-131439814D01*
X85821271Y-131356552D01*
X85857009Y-131327222D01*
X86013534Y-131243557D01*
X86183373Y-131192037D01*
X86249558Y-131185518D01*
X86315740Y-131179000D01*
X86404260Y-131179000D01*
X86470442Y-131185518D01*
X86470442Y-131185518D01*
G37*
G36*
X80247142Y-131298242D02*
G01*
X80395101Y-131359529D01*
X80528255Y-131448499D01*
X80641501Y-131561745D01*
X80730471Y-131694899D01*
X80791758Y-131842858D01*
X80823000Y-131999925D01*
X80823000Y-132160075D01*
X80791758Y-132317142D01*
X80730471Y-132465101D01*
X80641501Y-132598255D01*
X80528255Y-132711501D01*
X80395101Y-132800471D01*
X80247142Y-132861758D01*
X80090075Y-132893000D01*
X79929925Y-132893000D01*
X79772858Y-132861758D01*
X79624899Y-132800471D01*
X79491745Y-132711501D01*
X79378499Y-132598255D01*
X79289529Y-132465101D01*
X79228242Y-132317142D01*
X79197000Y-132160075D01*
X79197000Y-131999925D01*
X79228242Y-131842858D01*
X79289529Y-131694899D01*
X79378499Y-131561745D01*
X79491745Y-131448499D01*
X79624899Y-131359529D01*
X79772858Y-131298242D01*
X79929925Y-131267000D01*
X80090075Y-131267000D01*
X80247142Y-131298242D01*
X80247142Y-131298242D01*
G37*
G36*
X54847142Y-131298242D02*
G01*
X54995101Y-131359529D01*
X55128255Y-131448499D01*
X55241501Y-131561745D01*
X55330471Y-131694899D01*
X55391758Y-131842858D01*
X55423000Y-131999925D01*
X55423000Y-132160075D01*
X55391758Y-132317142D01*
X55330471Y-132465101D01*
X55241501Y-132598255D01*
X55128255Y-132711501D01*
X54995101Y-132800471D01*
X54847142Y-132861758D01*
X54690075Y-132893000D01*
X54529925Y-132893000D01*
X54372858Y-132861758D01*
X54224899Y-132800471D01*
X54091745Y-132711501D01*
X53978499Y-132598255D01*
X53889529Y-132465101D01*
X53828242Y-132317142D01*
X53797000Y-132160075D01*
X53797000Y-131999925D01*
X53828242Y-131842858D01*
X53889529Y-131694899D01*
X53978499Y-131561745D01*
X54091745Y-131448499D01*
X54224899Y-131359529D01*
X54372858Y-131298242D01*
X54529925Y-131267000D01*
X54690075Y-131267000D01*
X54847142Y-131298242D01*
X54847142Y-131298242D01*
G37*
G36*
X123427142Y-131298242D02*
G01*
X123575101Y-131359529D01*
X123708255Y-131448499D01*
X123821501Y-131561745D01*
X123910471Y-131694899D01*
X123971758Y-131842858D01*
X124003000Y-131999925D01*
X124003000Y-132160075D01*
X123971758Y-132317142D01*
X123910471Y-132465101D01*
X123821501Y-132598255D01*
X123708255Y-132711501D01*
X123575101Y-132800471D01*
X123427142Y-132861758D01*
X123270075Y-132893000D01*
X123109925Y-132893000D01*
X122952858Y-132861758D01*
X122804899Y-132800471D01*
X122671745Y-132711501D01*
X122558499Y-132598255D01*
X122469529Y-132465101D01*
X122408242Y-132317142D01*
X122377000Y-132160075D01*
X122377000Y-131999925D01*
X122408242Y-131842858D01*
X122469529Y-131694899D01*
X122558499Y-131561745D01*
X122671745Y-131448499D01*
X122804899Y-131359529D01*
X122952858Y-131298242D01*
X123109925Y-131267000D01*
X123270075Y-131267000D01*
X123427142Y-131298242D01*
X123427142Y-131298242D01*
G37*
G36*
X110727142Y-131298242D02*
G01*
X110875101Y-131359529D01*
X111008255Y-131448499D01*
X111121501Y-131561745D01*
X111210471Y-131694899D01*
X111271758Y-131842858D01*
X111303000Y-131999925D01*
X111303000Y-132160075D01*
X111271758Y-132317142D01*
X111210471Y-132465101D01*
X111121501Y-132598255D01*
X111008255Y-132711501D01*
X110875101Y-132800471D01*
X110727142Y-132861758D01*
X110570075Y-132893000D01*
X110409925Y-132893000D01*
X110252858Y-132861758D01*
X110104899Y-132800471D01*
X109971745Y-132711501D01*
X109858499Y-132598255D01*
X109769529Y-132465101D01*
X109708242Y-132317142D01*
X109677000Y-132160075D01*
X109677000Y-131999925D01*
X109708242Y-131842858D01*
X109769529Y-131694899D01*
X109858499Y-131561745D01*
X109971745Y-131448499D01*
X110104899Y-131359529D01*
X110252858Y-131298242D01*
X110409925Y-131267000D01*
X110570075Y-131267000D01*
X110727142Y-131298242D01*
X110727142Y-131298242D01*
G37*
G36*
X86470443Y-128645519D02*
G01*
X86536627Y-128652037D01*
X86706466Y-128703557D01*
X86862991Y-128787222D01*
X86898729Y-128816552D01*
X87000186Y-128899814D01*
X87083448Y-129001271D01*
X87112778Y-129037009D01*
X87196443Y-129193534D01*
X87247963Y-129363373D01*
X87265359Y-129540000D01*
X87247963Y-129716627D01*
X87196443Y-129886466D01*
X87112778Y-130042991D01*
X87100251Y-130058255D01*
X87000186Y-130180186D01*
X86902357Y-130260471D01*
X86862991Y-130292778D01*
X86706466Y-130376443D01*
X86536627Y-130427963D01*
X86470443Y-130434481D01*
X86404260Y-130441000D01*
X86315740Y-130441000D01*
X86249557Y-130434481D01*
X86183373Y-130427963D01*
X86013534Y-130376443D01*
X85857009Y-130292778D01*
X85817643Y-130260471D01*
X85719814Y-130180186D01*
X85619749Y-130058255D01*
X85607222Y-130042991D01*
X85523557Y-129886466D01*
X85472037Y-129716627D01*
X85454641Y-129540000D01*
X85472037Y-129363373D01*
X85523557Y-129193534D01*
X85607222Y-129037009D01*
X85636552Y-129001271D01*
X85719814Y-128899814D01*
X85821271Y-128816552D01*
X85857009Y-128787222D01*
X86013534Y-128703557D01*
X86183373Y-128652037D01*
X86249557Y-128645519D01*
X86315740Y-128639000D01*
X86404260Y-128639000D01*
X86470443Y-128645519D01*
X86470443Y-128645519D01*
G37*
G36*
X80247142Y-128758242D02*
G01*
X80395101Y-128819529D01*
X80528255Y-128908499D01*
X80641501Y-129021745D01*
X80730471Y-129154899D01*
X80791758Y-129302858D01*
X80823000Y-129459925D01*
X80823000Y-129620075D01*
X80791758Y-129777142D01*
X80730471Y-129925101D01*
X80641501Y-130058255D01*
X80528255Y-130171501D01*
X80395101Y-130260471D01*
X80247142Y-130321758D01*
X80090075Y-130353000D01*
X79929925Y-130353000D01*
X79772858Y-130321758D01*
X79624899Y-130260471D01*
X79491745Y-130171501D01*
X79378499Y-130058255D01*
X79289529Y-129925101D01*
X79228242Y-129777142D01*
X79197000Y-129620075D01*
X79197000Y-129459925D01*
X79228242Y-129302858D01*
X79289529Y-129154899D01*
X79378499Y-129021745D01*
X79491745Y-128908499D01*
X79624899Y-128819529D01*
X79772858Y-128758242D01*
X79929925Y-128727000D01*
X80090075Y-128727000D01*
X80247142Y-128758242D01*
X80247142Y-128758242D01*
G37*
G36*
X54847142Y-128758242D02*
G01*
X54995101Y-128819529D01*
X55128255Y-128908499D01*
X55241501Y-129021745D01*
X55330471Y-129154899D01*
X55391758Y-129302858D01*
X55423000Y-129459925D01*
X55423000Y-129620075D01*
X55391758Y-129777142D01*
X55330471Y-129925101D01*
X55241501Y-130058255D01*
X55128255Y-130171501D01*
X54995101Y-130260471D01*
X54847142Y-130321758D01*
X54690075Y-130353000D01*
X54529925Y-130353000D01*
X54372858Y-130321758D01*
X54224899Y-130260471D01*
X54091745Y-130171501D01*
X53978499Y-130058255D01*
X53889529Y-129925101D01*
X53828242Y-129777142D01*
X53797000Y-129620075D01*
X53797000Y-129459925D01*
X53828242Y-129302858D01*
X53889529Y-129154899D01*
X53978499Y-129021745D01*
X54091745Y-128908499D01*
X54224899Y-128819529D01*
X54372858Y-128758242D01*
X54529925Y-128727000D01*
X54690075Y-128727000D01*
X54847142Y-128758242D01*
X54847142Y-128758242D01*
G37*
G36*
X142062112Y-126044021D02*
G01*
X142164072Y-126054063D01*
X142360301Y-126113589D01*
X142360303Y-126113590D01*
X142541145Y-126210252D01*
X142699660Y-126340340D01*
X142829748Y-126498855D01*
X142926410Y-126679697D01*
X142926411Y-126679699D01*
X142985937Y-126875928D01*
X143006036Y-127080000D01*
X142985937Y-127284072D01*
X142926411Y-127480301D01*
X142926410Y-127480303D01*
X142829748Y-127661145D01*
X142699660Y-127819660D01*
X142541145Y-127949748D01*
X142360303Y-128046410D01*
X142360301Y-128046411D01*
X142164072Y-128105937D01*
X142062112Y-128115979D01*
X142011133Y-128121000D01*
X139928867Y-128121000D01*
X139877888Y-128115979D01*
X139775928Y-128105937D01*
X139579699Y-128046411D01*
X139579697Y-128046410D01*
X139398855Y-127949748D01*
X139240340Y-127819660D01*
X139110252Y-127661145D01*
X139013590Y-127480303D01*
X139013589Y-127480301D01*
X138954063Y-127284072D01*
X138933964Y-127080000D01*
X138954063Y-126875928D01*
X139013589Y-126679699D01*
X139013590Y-126679697D01*
X139110252Y-126498855D01*
X139240340Y-126340340D01*
X139398855Y-126210252D01*
X139579697Y-126113590D01*
X139579699Y-126113589D01*
X139775928Y-126054063D01*
X139877888Y-126044021D01*
X139928867Y-126039000D01*
X142011133Y-126039000D01*
X142062112Y-126044021D01*
X142062112Y-126044021D01*
G37*
G36*
X86470443Y-126105519D02*
G01*
X86536627Y-126112037D01*
X86706466Y-126163557D01*
X86862991Y-126247222D01*
X86898729Y-126276552D01*
X87000186Y-126359814D01*
X87083448Y-126461271D01*
X87112778Y-126497009D01*
X87196443Y-126653534D01*
X87247963Y-126823373D01*
X87265359Y-127000000D01*
X87247963Y-127176627D01*
X87196443Y-127346466D01*
X87112778Y-127502991D01*
X87100251Y-127518255D01*
X87000186Y-127640186D01*
X86902357Y-127720471D01*
X86862991Y-127752778D01*
X86706466Y-127836443D01*
X86536627Y-127887963D01*
X86470442Y-127894482D01*
X86404260Y-127901000D01*
X86315740Y-127901000D01*
X86249558Y-127894482D01*
X86183373Y-127887963D01*
X86013534Y-127836443D01*
X85857009Y-127752778D01*
X85817643Y-127720471D01*
X85719814Y-127640186D01*
X85619749Y-127518255D01*
X85607222Y-127502991D01*
X85523557Y-127346466D01*
X85472037Y-127176627D01*
X85454641Y-127000000D01*
X85472037Y-126823373D01*
X85523557Y-126653534D01*
X85607222Y-126497009D01*
X85636552Y-126461271D01*
X85719814Y-126359814D01*
X85821271Y-126276552D01*
X85857009Y-126247222D01*
X86013534Y-126163557D01*
X86183373Y-126112037D01*
X86249557Y-126105519D01*
X86315740Y-126099000D01*
X86404260Y-126099000D01*
X86470443Y-126105519D01*
X86470443Y-126105519D01*
G37*
G36*
X80247142Y-126218242D02*
G01*
X80395101Y-126279529D01*
X80528255Y-126368499D01*
X80641501Y-126481745D01*
X80730471Y-126614899D01*
X80791758Y-126762858D01*
X80823000Y-126919925D01*
X80823000Y-127080075D01*
X80791758Y-127237142D01*
X80730471Y-127385101D01*
X80641501Y-127518255D01*
X80528255Y-127631501D01*
X80395101Y-127720471D01*
X80247142Y-127781758D01*
X80090075Y-127813000D01*
X79929925Y-127813000D01*
X79772858Y-127781758D01*
X79624899Y-127720471D01*
X79491745Y-127631501D01*
X79378499Y-127518255D01*
X79289529Y-127385101D01*
X79228242Y-127237142D01*
X79197000Y-127080075D01*
X79197000Y-126919925D01*
X79228242Y-126762858D01*
X79289529Y-126614899D01*
X79378499Y-126481745D01*
X79491745Y-126368499D01*
X79624899Y-126279529D01*
X79772858Y-126218242D01*
X79929925Y-126187000D01*
X80090075Y-126187000D01*
X80247142Y-126218242D01*
X80247142Y-126218242D01*
G37*
G36*
X54847142Y-126218242D02*
G01*
X54995101Y-126279529D01*
X55128255Y-126368499D01*
X55241501Y-126481745D01*
X55330471Y-126614899D01*
X55391758Y-126762858D01*
X55423000Y-126919925D01*
X55423000Y-127080075D01*
X55391758Y-127237142D01*
X55330471Y-127385101D01*
X55241501Y-127518255D01*
X55128255Y-127631501D01*
X54995101Y-127720471D01*
X54847142Y-127781758D01*
X54690075Y-127813000D01*
X54529925Y-127813000D01*
X54372858Y-127781758D01*
X54224899Y-127720471D01*
X54091745Y-127631501D01*
X53978499Y-127518255D01*
X53889529Y-127385101D01*
X53828242Y-127237142D01*
X53797000Y-127080075D01*
X53797000Y-126919925D01*
X53828242Y-126762858D01*
X53889529Y-126614899D01*
X53978499Y-126481745D01*
X54091745Y-126368499D01*
X54224899Y-126279529D01*
X54372858Y-126218242D01*
X54529925Y-126187000D01*
X54690075Y-126187000D01*
X54847142Y-126218242D01*
X54847142Y-126218242D01*
G37*
G36*
X86470442Y-123565518D02*
G01*
X86536627Y-123572037D01*
X86706466Y-123623557D01*
X86862991Y-123707222D01*
X86898729Y-123736552D01*
X87000186Y-123819814D01*
X87083448Y-123921271D01*
X87112778Y-123957009D01*
X87196443Y-124113534D01*
X87247963Y-124283373D01*
X87265359Y-124460000D01*
X87247963Y-124636627D01*
X87196443Y-124806466D01*
X87112778Y-124962991D01*
X87100251Y-124978255D01*
X87000186Y-125100186D01*
X86902357Y-125180471D01*
X86862991Y-125212778D01*
X86706466Y-125296443D01*
X86536627Y-125347963D01*
X86470442Y-125354482D01*
X86404260Y-125361000D01*
X86315740Y-125361000D01*
X86249558Y-125354482D01*
X86183373Y-125347963D01*
X86013534Y-125296443D01*
X85857009Y-125212778D01*
X85817643Y-125180471D01*
X85719814Y-125100186D01*
X85619749Y-124978255D01*
X85607222Y-124962991D01*
X85523557Y-124806466D01*
X85472037Y-124636627D01*
X85454641Y-124460000D01*
X85472037Y-124283373D01*
X85523557Y-124113534D01*
X85607222Y-123957009D01*
X85636552Y-123921271D01*
X85719814Y-123819814D01*
X85821271Y-123736552D01*
X85857009Y-123707222D01*
X86013534Y-123623557D01*
X86183373Y-123572037D01*
X86249558Y-123565518D01*
X86315740Y-123559000D01*
X86404260Y-123559000D01*
X86470442Y-123565518D01*
X86470442Y-123565518D01*
G37*
G36*
X54847142Y-123678242D02*
G01*
X54995101Y-123739529D01*
X55128255Y-123828499D01*
X55241501Y-123941745D01*
X55330471Y-124074899D01*
X55391758Y-124222858D01*
X55423000Y-124379925D01*
X55423000Y-124540075D01*
X55391758Y-124697142D01*
X55330471Y-124845101D01*
X55241501Y-124978255D01*
X55128255Y-125091501D01*
X54995101Y-125180471D01*
X54847142Y-125241758D01*
X54690075Y-125273000D01*
X54529925Y-125273000D01*
X54372858Y-125241758D01*
X54224899Y-125180471D01*
X54091745Y-125091501D01*
X53978499Y-124978255D01*
X53889529Y-124845101D01*
X53828242Y-124697142D01*
X53797000Y-124540075D01*
X53797000Y-124379925D01*
X53828242Y-124222858D01*
X53889529Y-124074899D01*
X53978499Y-123941745D01*
X54091745Y-123828499D01*
X54224899Y-123739529D01*
X54372858Y-123678242D01*
X54529925Y-123647000D01*
X54690075Y-123647000D01*
X54847142Y-123678242D01*
X54847142Y-123678242D01*
G37*
G36*
X110727142Y-123678242D02*
G01*
X110875101Y-123739529D01*
X111008255Y-123828499D01*
X111121501Y-123941745D01*
X111210471Y-124074899D01*
X111271758Y-124222858D01*
X111303000Y-124379925D01*
X111303000Y-124540075D01*
X111271758Y-124697142D01*
X111210471Y-124845101D01*
X111121501Y-124978255D01*
X111008255Y-125091501D01*
X110875101Y-125180471D01*
X110727142Y-125241758D01*
X110570075Y-125273000D01*
X110409925Y-125273000D01*
X110252858Y-125241758D01*
X110104899Y-125180471D01*
X109971745Y-125091501D01*
X109858499Y-124978255D01*
X109769529Y-124845101D01*
X109708242Y-124697142D01*
X109677000Y-124540075D01*
X109677000Y-124379925D01*
X109708242Y-124222858D01*
X109769529Y-124074899D01*
X109858499Y-123941745D01*
X109971745Y-123828499D01*
X110104899Y-123739529D01*
X110252858Y-123678242D01*
X110409925Y-123647000D01*
X110570075Y-123647000D01*
X110727142Y-123678242D01*
X110727142Y-123678242D01*
G37*
G36*
X124003000Y-125273000D02*
G01*
X122377000Y-125273000D01*
X122377000Y-123647000D01*
X124003000Y-123647000D01*
X124003000Y-125273000D01*
X124003000Y-125273000D01*
G37*
G36*
X80247142Y-123678242D02*
G01*
X80395101Y-123739529D01*
X80528255Y-123828499D01*
X80641501Y-123941745D01*
X80730471Y-124074899D01*
X80791758Y-124222858D01*
X80823000Y-124379925D01*
X80823000Y-124540075D01*
X80791758Y-124697142D01*
X80730471Y-124845101D01*
X80641501Y-124978255D01*
X80528255Y-125091501D01*
X80395101Y-125180471D01*
X80247142Y-125241758D01*
X80090075Y-125273000D01*
X79929925Y-125273000D01*
X79772858Y-125241758D01*
X79624899Y-125180471D01*
X79491745Y-125091501D01*
X79378499Y-124978255D01*
X79289529Y-124845101D01*
X79228242Y-124697142D01*
X79197000Y-124540075D01*
X79197000Y-124379925D01*
X79228242Y-124222858D01*
X79289529Y-124074899D01*
X79378499Y-123941745D01*
X79491745Y-123828499D01*
X79624899Y-123739529D01*
X79772858Y-123678242D01*
X79929925Y-123647000D01*
X80090075Y-123647000D01*
X80247142Y-123678242D01*
X80247142Y-123678242D01*
G37*
G36*
X86470442Y-121025518D02*
G01*
X86536627Y-121032037D01*
X86706466Y-121083557D01*
X86862991Y-121167222D01*
X86898729Y-121196552D01*
X87000186Y-121279814D01*
X87083448Y-121381271D01*
X87112778Y-121417009D01*
X87196443Y-121573534D01*
X87247963Y-121743373D01*
X87265359Y-121920000D01*
X87247963Y-122096627D01*
X87196443Y-122266466D01*
X87112778Y-122422991D01*
X87100251Y-122438255D01*
X87000186Y-122560186D01*
X86902357Y-122640471D01*
X86862991Y-122672778D01*
X86706466Y-122756443D01*
X86536627Y-122807963D01*
X86470443Y-122814481D01*
X86404260Y-122821000D01*
X86315740Y-122821000D01*
X86249557Y-122814481D01*
X86183373Y-122807963D01*
X86013534Y-122756443D01*
X85857009Y-122672778D01*
X85817643Y-122640471D01*
X85719814Y-122560186D01*
X85619749Y-122438255D01*
X85607222Y-122422991D01*
X85523557Y-122266466D01*
X85472037Y-122096627D01*
X85454641Y-121920000D01*
X85472037Y-121743373D01*
X85523557Y-121573534D01*
X85607222Y-121417009D01*
X85636552Y-121381271D01*
X85719814Y-121279814D01*
X85821271Y-121196552D01*
X85857009Y-121167222D01*
X86013534Y-121083557D01*
X86183373Y-121032037D01*
X86249558Y-121025518D01*
X86315740Y-121019000D01*
X86404260Y-121019000D01*
X86470442Y-121025518D01*
X86470442Y-121025518D01*
G37*
G36*
X80247142Y-121138242D02*
G01*
X80395101Y-121199529D01*
X80528255Y-121288499D01*
X80641501Y-121401745D01*
X80730471Y-121534899D01*
X80791758Y-121682858D01*
X80823000Y-121839925D01*
X80823000Y-122000075D01*
X80791758Y-122157142D01*
X80730471Y-122305101D01*
X80641501Y-122438255D01*
X80528255Y-122551501D01*
X80395101Y-122640471D01*
X80247142Y-122701758D01*
X80090075Y-122733000D01*
X79929925Y-122733000D01*
X79772858Y-122701758D01*
X79624899Y-122640471D01*
X79491745Y-122551501D01*
X79378499Y-122438255D01*
X79289529Y-122305101D01*
X79228242Y-122157142D01*
X79197000Y-122000075D01*
X79197000Y-121839925D01*
X79228242Y-121682858D01*
X79289529Y-121534899D01*
X79378499Y-121401745D01*
X79491745Y-121288499D01*
X79624899Y-121199529D01*
X79772858Y-121138242D01*
X79929925Y-121107000D01*
X80090075Y-121107000D01*
X80247142Y-121138242D01*
X80247142Y-121138242D01*
G37*
G36*
X123427142Y-121138242D02*
G01*
X123575101Y-121199529D01*
X123708255Y-121288499D01*
X123821501Y-121401745D01*
X123910471Y-121534899D01*
X123971758Y-121682858D01*
X124003000Y-121839925D01*
X124003000Y-122000075D01*
X123971758Y-122157142D01*
X123910471Y-122305101D01*
X123821501Y-122438255D01*
X123708255Y-122551501D01*
X123575101Y-122640471D01*
X123427142Y-122701758D01*
X123270075Y-122733000D01*
X123109925Y-122733000D01*
X122952858Y-122701758D01*
X122804899Y-122640471D01*
X122671745Y-122551501D01*
X122558499Y-122438255D01*
X122469529Y-122305101D01*
X122408242Y-122157142D01*
X122377000Y-122000075D01*
X122377000Y-121839925D01*
X122408242Y-121682858D01*
X122469529Y-121534899D01*
X122558499Y-121401745D01*
X122671745Y-121288499D01*
X122804899Y-121199529D01*
X122952858Y-121138242D01*
X123109925Y-121107000D01*
X123270075Y-121107000D01*
X123427142Y-121138242D01*
X123427142Y-121138242D01*
G37*
G36*
X110727142Y-121138242D02*
G01*
X110875101Y-121199529D01*
X111008255Y-121288499D01*
X111121501Y-121401745D01*
X111210471Y-121534899D01*
X111271758Y-121682858D01*
X111303000Y-121839925D01*
X111303000Y-122000075D01*
X111271758Y-122157142D01*
X111210471Y-122305101D01*
X111121501Y-122438255D01*
X111008255Y-122551501D01*
X110875101Y-122640471D01*
X110727142Y-122701758D01*
X110570075Y-122733000D01*
X110409925Y-122733000D01*
X110252858Y-122701758D01*
X110104899Y-122640471D01*
X109971745Y-122551501D01*
X109858499Y-122438255D01*
X109769529Y-122305101D01*
X109708242Y-122157142D01*
X109677000Y-122000075D01*
X109677000Y-121839925D01*
X109708242Y-121682858D01*
X109769529Y-121534899D01*
X109858499Y-121401745D01*
X109971745Y-121288499D01*
X110104899Y-121199529D01*
X110252858Y-121138242D01*
X110409925Y-121107000D01*
X110570075Y-121107000D01*
X110727142Y-121138242D01*
X110727142Y-121138242D01*
G37*
G36*
X54847142Y-120939372D02*
G01*
X54995101Y-121000659D01*
X55128255Y-121089629D01*
X55241501Y-121202875D01*
X55330471Y-121336029D01*
X55391758Y-121483988D01*
X55423000Y-121641055D01*
X55423000Y-121801205D01*
X55391758Y-121958272D01*
X55330471Y-122106231D01*
X55241501Y-122239385D01*
X55128255Y-122352631D01*
X54995101Y-122441601D01*
X54847142Y-122502888D01*
X54690075Y-122534130D01*
X54529925Y-122534130D01*
X54372858Y-122502888D01*
X54224899Y-122441601D01*
X54091745Y-122352631D01*
X53978499Y-122239385D01*
X53889529Y-122106231D01*
X53828242Y-121958272D01*
X53797000Y-121801205D01*
X53797000Y-121641055D01*
X53828242Y-121483988D01*
X53889529Y-121336029D01*
X53978499Y-121202875D01*
X54091745Y-121089629D01*
X54224899Y-121000659D01*
X54372858Y-120939372D01*
X54529925Y-120908130D01*
X54690075Y-120908130D01*
X54847142Y-120939372D01*
X54847142Y-120939372D01*
G37*
G36*
X130441000Y-120281000D02*
G01*
X128639000Y-120281000D01*
X128639000Y-118479000D01*
X130441000Y-118479000D01*
X130441000Y-120281000D01*
X130441000Y-120281000D01*
G37*
G36*
X86470442Y-118485518D02*
G01*
X86536627Y-118492037D01*
X86706466Y-118543557D01*
X86862991Y-118627222D01*
X86898729Y-118656552D01*
X87000186Y-118739814D01*
X87083448Y-118841271D01*
X87112778Y-118877009D01*
X87196443Y-119033534D01*
X87247963Y-119203373D01*
X87265359Y-119380000D01*
X87247963Y-119556627D01*
X87196443Y-119726466D01*
X87112778Y-119882991D01*
X87100251Y-119898255D01*
X87000186Y-120020186D01*
X86902357Y-120100471D01*
X86862991Y-120132778D01*
X86706466Y-120216443D01*
X86536627Y-120267963D01*
X86470442Y-120274482D01*
X86404260Y-120281000D01*
X86315740Y-120281000D01*
X86249558Y-120274482D01*
X86183373Y-120267963D01*
X86013534Y-120216443D01*
X85857009Y-120132778D01*
X85817643Y-120100471D01*
X85719814Y-120020186D01*
X85619749Y-119898255D01*
X85607222Y-119882991D01*
X85523557Y-119726466D01*
X85472037Y-119556627D01*
X85454641Y-119380000D01*
X85472037Y-119203373D01*
X85523557Y-119033534D01*
X85607222Y-118877009D01*
X85636552Y-118841271D01*
X85719814Y-118739814D01*
X85821271Y-118656552D01*
X85857009Y-118627222D01*
X86013534Y-118543557D01*
X86183373Y-118492037D01*
X86249558Y-118485518D01*
X86315740Y-118479000D01*
X86404260Y-118479000D01*
X86470442Y-118485518D01*
X86470442Y-118485518D01*
G37*
G36*
X110727142Y-118598242D02*
G01*
X110875101Y-118659529D01*
X111008255Y-118748499D01*
X111121501Y-118861745D01*
X111210471Y-118994899D01*
X111271758Y-119142858D01*
X111303000Y-119299925D01*
X111303000Y-119460075D01*
X111271758Y-119617142D01*
X111210471Y-119765101D01*
X111121501Y-119898255D01*
X111008255Y-120011501D01*
X110875101Y-120100471D01*
X110727142Y-120161758D01*
X110570075Y-120193000D01*
X110409925Y-120193000D01*
X110252858Y-120161758D01*
X110104899Y-120100471D01*
X109971745Y-120011501D01*
X109858499Y-119898255D01*
X109769529Y-119765101D01*
X109708242Y-119617142D01*
X109677000Y-119460075D01*
X109677000Y-119299925D01*
X109708242Y-119142858D01*
X109769529Y-118994899D01*
X109858499Y-118861745D01*
X109971745Y-118748499D01*
X110104899Y-118659529D01*
X110252858Y-118598242D01*
X110409925Y-118567000D01*
X110570075Y-118567000D01*
X110727142Y-118598242D01*
X110727142Y-118598242D01*
G37*
G36*
X54847142Y-118598242D02*
G01*
X54995101Y-118659529D01*
X55128255Y-118748499D01*
X55241501Y-118861745D01*
X55330471Y-118994899D01*
X55391758Y-119142858D01*
X55423000Y-119299925D01*
X55423000Y-119460075D01*
X55391758Y-119617142D01*
X55330471Y-119765101D01*
X55241501Y-119898255D01*
X55128255Y-120011501D01*
X54995101Y-120100471D01*
X54847142Y-120161758D01*
X54690075Y-120193000D01*
X54529925Y-120193000D01*
X54372858Y-120161758D01*
X54224899Y-120100471D01*
X54091745Y-120011501D01*
X53978499Y-119898255D01*
X53889529Y-119765101D01*
X53828242Y-119617142D01*
X53797000Y-119460075D01*
X53797000Y-119299925D01*
X53828242Y-119142858D01*
X53889529Y-118994899D01*
X53978499Y-118861745D01*
X54091745Y-118748499D01*
X54224899Y-118659529D01*
X54372858Y-118598242D01*
X54529925Y-118567000D01*
X54690075Y-118567000D01*
X54847142Y-118598242D01*
X54847142Y-118598242D01*
G37*
G36*
X80247142Y-118598242D02*
G01*
X80395101Y-118659529D01*
X80528255Y-118748499D01*
X80641501Y-118861745D01*
X80730471Y-118994899D01*
X80791758Y-119142858D01*
X80823000Y-119299925D01*
X80823000Y-119460075D01*
X80791758Y-119617142D01*
X80730471Y-119765101D01*
X80641501Y-119898255D01*
X80528255Y-120011501D01*
X80395101Y-120100471D01*
X80247142Y-120161758D01*
X80090075Y-120193000D01*
X79929925Y-120193000D01*
X79772858Y-120161758D01*
X79624899Y-120100471D01*
X79491745Y-120011501D01*
X79378499Y-119898255D01*
X79289529Y-119765101D01*
X79228242Y-119617142D01*
X79197000Y-119460075D01*
X79197000Y-119299925D01*
X79228242Y-119142858D01*
X79289529Y-118994899D01*
X79378499Y-118861745D01*
X79491745Y-118748499D01*
X79624899Y-118659529D01*
X79772858Y-118598242D01*
X79929925Y-118567000D01*
X80090075Y-118567000D01*
X80247142Y-118598242D01*
X80247142Y-118598242D01*
G37*
G36*
X123427142Y-118598242D02*
G01*
X123575101Y-118659529D01*
X123708255Y-118748499D01*
X123821501Y-118861745D01*
X123910471Y-118994899D01*
X123971758Y-119142858D01*
X124003000Y-119299925D01*
X124003000Y-119460075D01*
X123971758Y-119617142D01*
X123910471Y-119765101D01*
X123821501Y-119898255D01*
X123708255Y-120011501D01*
X123575101Y-120100471D01*
X123427142Y-120161758D01*
X123270075Y-120193000D01*
X123109925Y-120193000D01*
X122952858Y-120161758D01*
X122804899Y-120100471D01*
X122671745Y-120011501D01*
X122558499Y-119898255D01*
X122469529Y-119765101D01*
X122408242Y-119617142D01*
X122377000Y-119460075D01*
X122377000Y-119299925D01*
X122408242Y-119142858D01*
X122469529Y-118994899D01*
X122558499Y-118861745D01*
X122671745Y-118748499D01*
X122804899Y-118659529D01*
X122952858Y-118598242D01*
X123109925Y-118567000D01*
X123270075Y-118567000D01*
X123427142Y-118598242D01*
X123427142Y-118598242D01*
G37*
G36*
X98230443Y-117210278D02*
G01*
X98296627Y-117216796D01*
X98466466Y-117268316D01*
X98622991Y-117351981D01*
X98630638Y-117358257D01*
X98760186Y-117464573D01*
X98838886Y-117560471D01*
X98872778Y-117601768D01*
X98956443Y-117758293D01*
X99007963Y-117928132D01*
X99025359Y-118104759D01*
X99007963Y-118281386D01*
X98956443Y-118451225D01*
X98872778Y-118607750D01*
X98843448Y-118643488D01*
X98760186Y-118744945D01*
X98658729Y-118828207D01*
X98622991Y-118857537D01*
X98466466Y-118941202D01*
X98296627Y-118992722D01*
X98230443Y-118999240D01*
X98164260Y-119005759D01*
X98075740Y-119005759D01*
X98009557Y-118999240D01*
X97943373Y-118992722D01*
X97773534Y-118941202D01*
X97617009Y-118857537D01*
X97581271Y-118828207D01*
X97479814Y-118744945D01*
X97396552Y-118643488D01*
X97367222Y-118607750D01*
X97283557Y-118451225D01*
X97232037Y-118281386D01*
X97214641Y-118104759D01*
X97232037Y-117928132D01*
X97283557Y-117758293D01*
X97367222Y-117601768D01*
X97401114Y-117560471D01*
X97479814Y-117464573D01*
X97609362Y-117358257D01*
X97617009Y-117351981D01*
X97773534Y-117268316D01*
X97943373Y-117216796D01*
X98009557Y-117210278D01*
X98075740Y-117203759D01*
X98164260Y-117203759D01*
X98230443Y-117210278D01*
X98230443Y-117210278D01*
G37*
G36*
X95690443Y-117210278D02*
G01*
X95756627Y-117216796D01*
X95926466Y-117268316D01*
X96082991Y-117351981D01*
X96090638Y-117358257D01*
X96220186Y-117464573D01*
X96298886Y-117560471D01*
X96332778Y-117601768D01*
X96416443Y-117758293D01*
X96467963Y-117928132D01*
X96485359Y-118104759D01*
X96467963Y-118281386D01*
X96416443Y-118451225D01*
X96332778Y-118607750D01*
X96303448Y-118643488D01*
X96220186Y-118744945D01*
X96118729Y-118828207D01*
X96082991Y-118857537D01*
X95926466Y-118941202D01*
X95756627Y-118992722D01*
X95690443Y-118999240D01*
X95624260Y-119005759D01*
X95535740Y-119005759D01*
X95469557Y-118999240D01*
X95403373Y-118992722D01*
X95233534Y-118941202D01*
X95077009Y-118857537D01*
X95041271Y-118828207D01*
X94939814Y-118744945D01*
X94856552Y-118643488D01*
X94827222Y-118607750D01*
X94743557Y-118451225D01*
X94692037Y-118281386D01*
X94674641Y-118104759D01*
X94692037Y-117928132D01*
X94743557Y-117758293D01*
X94827222Y-117601768D01*
X94861114Y-117560471D01*
X94939814Y-117464573D01*
X95069362Y-117358257D01*
X95077009Y-117351981D01*
X95233534Y-117268316D01*
X95403373Y-117216796D01*
X95469557Y-117210278D01*
X95535740Y-117203759D01*
X95624260Y-117203759D01*
X95690443Y-117210278D01*
X95690443Y-117210278D01*
G37*
G36*
X101561000Y-119005759D02*
G01*
X99759000Y-119005759D01*
X99759000Y-117203759D01*
X101561000Y-117203759D01*
X101561000Y-119005759D01*
X101561000Y-119005759D01*
G37*
G36*
X129650442Y-115945518D02*
G01*
X129716627Y-115952037D01*
X129886466Y-116003557D01*
X130042991Y-116087222D01*
X130078729Y-116116552D01*
X130180186Y-116199814D01*
X130263448Y-116301271D01*
X130292778Y-116337009D01*
X130376443Y-116493534D01*
X130427963Y-116663373D01*
X130445359Y-116840000D01*
X130427963Y-117016627D01*
X130376443Y-117186466D01*
X130292778Y-117342991D01*
X130285400Y-117351981D01*
X130180186Y-117480186D01*
X130082357Y-117560471D01*
X130042991Y-117592778D01*
X129886466Y-117676443D01*
X129716627Y-117727963D01*
X129650442Y-117734482D01*
X129584260Y-117741000D01*
X129495740Y-117741000D01*
X129429558Y-117734482D01*
X129363373Y-117727963D01*
X129193534Y-117676443D01*
X129037009Y-117592778D01*
X128997643Y-117560471D01*
X128899814Y-117480186D01*
X128794600Y-117351981D01*
X128787222Y-117342991D01*
X128703557Y-117186466D01*
X128652037Y-117016627D01*
X128634641Y-116840000D01*
X128652037Y-116663373D01*
X128703557Y-116493534D01*
X128787222Y-116337009D01*
X128816552Y-116301271D01*
X128899814Y-116199814D01*
X129001271Y-116116552D01*
X129037009Y-116087222D01*
X129193534Y-116003557D01*
X129363373Y-115952037D01*
X129429558Y-115945518D01*
X129495740Y-115939000D01*
X129584260Y-115939000D01*
X129650442Y-115945518D01*
X129650442Y-115945518D01*
G37*
G36*
X86470442Y-115945518D02*
G01*
X86536627Y-115952037D01*
X86706466Y-116003557D01*
X86862991Y-116087222D01*
X86898729Y-116116552D01*
X87000186Y-116199814D01*
X87083448Y-116301271D01*
X87112778Y-116337009D01*
X87196443Y-116493534D01*
X87247963Y-116663373D01*
X87265359Y-116840000D01*
X87247963Y-117016627D01*
X87196443Y-117186466D01*
X87112778Y-117342991D01*
X87105400Y-117351981D01*
X87000186Y-117480186D01*
X86902357Y-117560471D01*
X86862991Y-117592778D01*
X86706466Y-117676443D01*
X86536627Y-117727963D01*
X86470442Y-117734482D01*
X86404260Y-117741000D01*
X86315740Y-117741000D01*
X86249558Y-117734482D01*
X86183373Y-117727963D01*
X86013534Y-117676443D01*
X85857009Y-117592778D01*
X85817643Y-117560471D01*
X85719814Y-117480186D01*
X85614600Y-117351981D01*
X85607222Y-117342991D01*
X85523557Y-117186466D01*
X85472037Y-117016627D01*
X85454641Y-116840000D01*
X85472037Y-116663373D01*
X85523557Y-116493534D01*
X85607222Y-116337009D01*
X85636552Y-116301271D01*
X85719814Y-116199814D01*
X85821271Y-116116552D01*
X85857009Y-116087222D01*
X86013534Y-116003557D01*
X86183373Y-115952037D01*
X86249558Y-115945518D01*
X86315740Y-115939000D01*
X86404260Y-115939000D01*
X86470442Y-115945518D01*
X86470442Y-115945518D01*
G37*
G36*
X110727142Y-116058242D02*
G01*
X110875101Y-116119529D01*
X111008255Y-116208499D01*
X111121501Y-116321745D01*
X111210471Y-116454899D01*
X111271758Y-116602858D01*
X111303000Y-116759925D01*
X111303000Y-116920075D01*
X111271758Y-117077142D01*
X111210471Y-117225101D01*
X111121501Y-117358255D01*
X111008255Y-117471501D01*
X110875101Y-117560471D01*
X110727142Y-117621758D01*
X110570075Y-117653000D01*
X110409925Y-117653000D01*
X110252858Y-117621758D01*
X110104899Y-117560471D01*
X109971745Y-117471501D01*
X109858499Y-117358255D01*
X109769529Y-117225101D01*
X109708242Y-117077142D01*
X109677000Y-116920075D01*
X109677000Y-116759925D01*
X109708242Y-116602858D01*
X109769529Y-116454899D01*
X109858499Y-116321745D01*
X109971745Y-116208499D01*
X110104899Y-116119529D01*
X110252858Y-116058242D01*
X110409925Y-116027000D01*
X110570075Y-116027000D01*
X110727142Y-116058242D01*
X110727142Y-116058242D01*
G37*
G36*
X123427142Y-116058242D02*
G01*
X123575101Y-116119529D01*
X123708255Y-116208499D01*
X123821501Y-116321745D01*
X123910471Y-116454899D01*
X123971758Y-116602858D01*
X124003000Y-116759925D01*
X124003000Y-116920075D01*
X123971758Y-117077142D01*
X123910471Y-117225101D01*
X123821501Y-117358255D01*
X123708255Y-117471501D01*
X123575101Y-117560471D01*
X123427142Y-117621758D01*
X123270075Y-117653000D01*
X123109925Y-117653000D01*
X122952858Y-117621758D01*
X122804899Y-117560471D01*
X122671745Y-117471501D01*
X122558499Y-117358255D01*
X122469529Y-117225101D01*
X122408242Y-117077142D01*
X122377000Y-116920075D01*
X122377000Y-116759925D01*
X122408242Y-116602858D01*
X122469529Y-116454899D01*
X122558499Y-116321745D01*
X122671745Y-116208499D01*
X122804899Y-116119529D01*
X122952858Y-116058242D01*
X123109925Y-116027000D01*
X123270075Y-116027000D01*
X123427142Y-116058242D01*
X123427142Y-116058242D01*
G37*
G36*
X54847142Y-116058242D02*
G01*
X54995101Y-116119529D01*
X55128255Y-116208499D01*
X55241501Y-116321745D01*
X55330471Y-116454899D01*
X55391758Y-116602858D01*
X55423000Y-116759925D01*
X55423000Y-116920075D01*
X55391758Y-117077142D01*
X55330471Y-117225101D01*
X55241501Y-117358255D01*
X55128255Y-117471501D01*
X54995101Y-117560471D01*
X54847142Y-117621758D01*
X54690075Y-117653000D01*
X54529925Y-117653000D01*
X54372858Y-117621758D01*
X54224899Y-117560471D01*
X54091745Y-117471501D01*
X53978499Y-117358255D01*
X53889529Y-117225101D01*
X53828242Y-117077142D01*
X53797000Y-116920075D01*
X53797000Y-116759925D01*
X53828242Y-116602858D01*
X53889529Y-116454899D01*
X53978499Y-116321745D01*
X54091745Y-116208499D01*
X54224899Y-116119529D01*
X54372858Y-116058242D01*
X54529925Y-116027000D01*
X54690075Y-116027000D01*
X54847142Y-116058242D01*
X54847142Y-116058242D01*
G37*
G36*
X80247142Y-116058242D02*
G01*
X80395101Y-116119529D01*
X80528255Y-116208499D01*
X80641501Y-116321745D01*
X80730471Y-116454899D01*
X80791758Y-116602858D01*
X80823000Y-116759925D01*
X80823000Y-116920075D01*
X80791758Y-117077142D01*
X80730471Y-117225101D01*
X80641501Y-117358255D01*
X80528255Y-117471501D01*
X80395101Y-117560471D01*
X80247142Y-117621758D01*
X80090075Y-117653000D01*
X79929925Y-117653000D01*
X79772858Y-117621758D01*
X79624899Y-117560471D01*
X79491745Y-117471501D01*
X79378499Y-117358255D01*
X79289529Y-117225101D01*
X79228242Y-117077142D01*
X79197000Y-116920075D01*
X79197000Y-116759925D01*
X79228242Y-116602858D01*
X79289529Y-116454899D01*
X79378499Y-116321745D01*
X79491745Y-116208499D01*
X79624899Y-116119529D01*
X79772858Y-116058242D01*
X79929925Y-116027000D01*
X80090075Y-116027000D01*
X80247142Y-116058242D01*
X80247142Y-116058242D01*
G37*
G36*
X129650443Y-113405519D02*
G01*
X129716627Y-113412037D01*
X129886466Y-113463557D01*
X130042991Y-113547222D01*
X130078729Y-113576552D01*
X130180186Y-113659814D01*
X130263448Y-113761271D01*
X130292778Y-113797009D01*
X130376443Y-113953534D01*
X130427963Y-114123373D01*
X130445359Y-114300000D01*
X130427963Y-114476627D01*
X130376443Y-114646466D01*
X130292778Y-114802991D01*
X130280251Y-114818255D01*
X130180186Y-114940186D01*
X130082357Y-115020471D01*
X130042991Y-115052778D01*
X129886466Y-115136443D01*
X129716627Y-115187963D01*
X129650442Y-115194482D01*
X129584260Y-115201000D01*
X129495740Y-115201000D01*
X129429558Y-115194482D01*
X129363373Y-115187963D01*
X129193534Y-115136443D01*
X129037009Y-115052778D01*
X128997643Y-115020471D01*
X128899814Y-114940186D01*
X128799749Y-114818255D01*
X128787222Y-114802991D01*
X128703557Y-114646466D01*
X128652037Y-114476627D01*
X128634641Y-114300000D01*
X128652037Y-114123373D01*
X128703557Y-113953534D01*
X128787222Y-113797009D01*
X128816552Y-113761271D01*
X128899814Y-113659814D01*
X129001271Y-113576552D01*
X129037009Y-113547222D01*
X129193534Y-113463557D01*
X129363373Y-113412037D01*
X129429557Y-113405519D01*
X129495740Y-113399000D01*
X129584260Y-113399000D01*
X129650443Y-113405519D01*
X129650443Y-113405519D01*
G37*
G36*
X86470443Y-113405519D02*
G01*
X86536627Y-113412037D01*
X86706466Y-113463557D01*
X86862991Y-113547222D01*
X86898729Y-113576552D01*
X87000186Y-113659814D01*
X87083448Y-113761271D01*
X87112778Y-113797009D01*
X87196443Y-113953534D01*
X87247963Y-114123373D01*
X87265359Y-114300000D01*
X87247963Y-114476627D01*
X87196443Y-114646466D01*
X87112778Y-114802991D01*
X87100251Y-114818255D01*
X87000186Y-114940186D01*
X86902357Y-115020471D01*
X86862991Y-115052778D01*
X86706466Y-115136443D01*
X86536627Y-115187963D01*
X86470442Y-115194482D01*
X86404260Y-115201000D01*
X86315740Y-115201000D01*
X86249558Y-115194482D01*
X86183373Y-115187963D01*
X86013534Y-115136443D01*
X85857009Y-115052778D01*
X85817643Y-115020471D01*
X85719814Y-114940186D01*
X85619749Y-114818255D01*
X85607222Y-114802991D01*
X85523557Y-114646466D01*
X85472037Y-114476627D01*
X85454641Y-114300000D01*
X85472037Y-114123373D01*
X85523557Y-113953534D01*
X85607222Y-113797009D01*
X85636552Y-113761271D01*
X85719814Y-113659814D01*
X85821271Y-113576552D01*
X85857009Y-113547222D01*
X86013534Y-113463557D01*
X86183373Y-113412037D01*
X86249557Y-113405519D01*
X86315740Y-113399000D01*
X86404260Y-113399000D01*
X86470443Y-113405519D01*
X86470443Y-113405519D01*
G37*
G36*
X80247142Y-113518242D02*
G01*
X80395101Y-113579529D01*
X80528255Y-113668499D01*
X80641501Y-113781745D01*
X80730471Y-113914899D01*
X80791758Y-114062858D01*
X80823000Y-114219925D01*
X80823000Y-114380075D01*
X80791758Y-114537142D01*
X80730471Y-114685101D01*
X80641501Y-114818255D01*
X80528255Y-114931501D01*
X80395101Y-115020471D01*
X80247142Y-115081758D01*
X80090075Y-115113000D01*
X79929925Y-115113000D01*
X79772858Y-115081758D01*
X79624899Y-115020471D01*
X79491745Y-114931501D01*
X79378499Y-114818255D01*
X79289529Y-114685101D01*
X79228242Y-114537142D01*
X79197000Y-114380075D01*
X79197000Y-114219925D01*
X79228242Y-114062858D01*
X79289529Y-113914899D01*
X79378499Y-113781745D01*
X79491745Y-113668499D01*
X79624899Y-113579529D01*
X79772858Y-113518242D01*
X79929925Y-113487000D01*
X80090075Y-113487000D01*
X80247142Y-113518242D01*
X80247142Y-113518242D01*
G37*
G36*
X123427142Y-113518242D02*
G01*
X123575101Y-113579529D01*
X123708255Y-113668499D01*
X123821501Y-113781745D01*
X123910471Y-113914899D01*
X123971758Y-114062858D01*
X124003000Y-114219925D01*
X124003000Y-114380075D01*
X123971758Y-114537142D01*
X123910471Y-114685101D01*
X123821501Y-114818255D01*
X123708255Y-114931501D01*
X123575101Y-115020471D01*
X123427142Y-115081758D01*
X123270075Y-115113000D01*
X123109925Y-115113000D01*
X122952858Y-115081758D01*
X122804899Y-115020471D01*
X122671745Y-114931501D01*
X122558499Y-114818255D01*
X122469529Y-114685101D01*
X122408242Y-114537142D01*
X122377000Y-114380075D01*
X122377000Y-114219925D01*
X122408242Y-114062858D01*
X122469529Y-113914899D01*
X122558499Y-113781745D01*
X122671745Y-113668499D01*
X122804899Y-113579529D01*
X122952858Y-113518242D01*
X123109925Y-113487000D01*
X123270075Y-113487000D01*
X123427142Y-113518242D01*
X123427142Y-113518242D01*
G37*
G36*
X110727142Y-113518242D02*
G01*
X110875101Y-113579529D01*
X111008255Y-113668499D01*
X111121501Y-113781745D01*
X111210471Y-113914899D01*
X111271758Y-114062858D01*
X111303000Y-114219925D01*
X111303000Y-114380075D01*
X111271758Y-114537142D01*
X111210471Y-114685101D01*
X111121501Y-114818255D01*
X111008255Y-114931501D01*
X110875101Y-115020471D01*
X110727142Y-115081758D01*
X110570075Y-115113000D01*
X110409925Y-115113000D01*
X110252858Y-115081758D01*
X110104899Y-115020471D01*
X109971745Y-114931501D01*
X109858499Y-114818255D01*
X109769529Y-114685101D01*
X109708242Y-114537142D01*
X109677000Y-114380075D01*
X109677000Y-114219925D01*
X109708242Y-114062858D01*
X109769529Y-113914899D01*
X109858499Y-113781745D01*
X109971745Y-113668499D01*
X110104899Y-113579529D01*
X110252858Y-113518242D01*
X110409925Y-113487000D01*
X110570075Y-113487000D01*
X110727142Y-113518242D01*
X110727142Y-113518242D01*
G37*
G36*
X54847142Y-113319372D02*
G01*
X54995101Y-113380659D01*
X55128255Y-113469629D01*
X55241501Y-113582875D01*
X55330471Y-113716029D01*
X55391758Y-113863988D01*
X55423000Y-114021055D01*
X55423000Y-114181205D01*
X55391758Y-114338272D01*
X55330471Y-114486231D01*
X55241501Y-114619385D01*
X55128255Y-114732631D01*
X54995101Y-114821601D01*
X54847142Y-114882888D01*
X54690075Y-114914130D01*
X54529925Y-114914130D01*
X54372858Y-114882888D01*
X54224899Y-114821601D01*
X54091745Y-114732631D01*
X53978499Y-114619385D01*
X53889529Y-114486231D01*
X53828242Y-114338272D01*
X53797000Y-114181205D01*
X53797000Y-114021055D01*
X53828242Y-113863988D01*
X53889529Y-113716029D01*
X53978499Y-113582875D01*
X54091745Y-113469629D01*
X54224899Y-113380659D01*
X54372858Y-113319372D01*
X54529925Y-113288130D01*
X54690075Y-113288130D01*
X54847142Y-113319372D01*
X54847142Y-113319372D01*
G37*
G36*
X101561000Y-114405759D02*
G01*
X99759000Y-114405759D01*
X99759000Y-112603759D01*
X101561000Y-112603759D01*
X101561000Y-114405759D01*
X101561000Y-114405759D01*
G37*
G36*
X98230443Y-112610278D02*
G01*
X98296627Y-112616796D01*
X98466466Y-112668316D01*
X98622991Y-112751981D01*
X98658729Y-112781311D01*
X98760186Y-112864573D01*
X98843448Y-112966030D01*
X98872778Y-113001768D01*
X98956443Y-113158293D01*
X99007963Y-113328132D01*
X99025359Y-113504759D01*
X99007963Y-113681386D01*
X98956443Y-113851225D01*
X98872778Y-114007750D01*
X98861858Y-114021056D01*
X98760186Y-114144945D01*
X98668821Y-114219925D01*
X98622991Y-114257537D01*
X98466466Y-114341202D01*
X98296627Y-114392722D01*
X98230443Y-114399240D01*
X98164260Y-114405759D01*
X98075740Y-114405759D01*
X98009557Y-114399240D01*
X97943373Y-114392722D01*
X97773534Y-114341202D01*
X97617009Y-114257537D01*
X97571179Y-114219925D01*
X97479814Y-114144945D01*
X97378142Y-114021056D01*
X97367222Y-114007750D01*
X97283557Y-113851225D01*
X97232037Y-113681386D01*
X97214641Y-113504759D01*
X97232037Y-113328132D01*
X97283557Y-113158293D01*
X97367222Y-113001768D01*
X97396552Y-112966030D01*
X97479814Y-112864573D01*
X97581271Y-112781311D01*
X97617009Y-112751981D01*
X97773534Y-112668316D01*
X97943373Y-112616796D01*
X98009557Y-112610278D01*
X98075740Y-112603759D01*
X98164260Y-112603759D01*
X98230443Y-112610278D01*
X98230443Y-112610278D01*
G37*
G36*
X95690443Y-112610278D02*
G01*
X95756627Y-112616796D01*
X95926466Y-112668316D01*
X96082991Y-112751981D01*
X96118729Y-112781311D01*
X96220186Y-112864573D01*
X96303448Y-112966030D01*
X96332778Y-113001768D01*
X96416443Y-113158293D01*
X96467963Y-113328132D01*
X96485359Y-113504759D01*
X96467963Y-113681386D01*
X96416443Y-113851225D01*
X96332778Y-114007750D01*
X96321858Y-114021056D01*
X96220186Y-114144945D01*
X96128821Y-114219925D01*
X96082991Y-114257537D01*
X95926466Y-114341202D01*
X95756627Y-114392722D01*
X95690443Y-114399240D01*
X95624260Y-114405759D01*
X95535740Y-114405759D01*
X95469557Y-114399240D01*
X95403373Y-114392722D01*
X95233534Y-114341202D01*
X95077009Y-114257537D01*
X95031179Y-114219925D01*
X94939814Y-114144945D01*
X94838142Y-114021056D01*
X94827222Y-114007750D01*
X94743557Y-113851225D01*
X94692037Y-113681386D01*
X94674641Y-113504759D01*
X94692037Y-113328132D01*
X94743557Y-113158293D01*
X94827222Y-113001768D01*
X94856552Y-112966030D01*
X94939814Y-112864573D01*
X95041271Y-112781311D01*
X95077009Y-112751981D01*
X95233534Y-112668316D01*
X95403373Y-112616796D01*
X95469557Y-112610278D01*
X95535740Y-112603759D01*
X95624260Y-112603759D01*
X95690443Y-112610278D01*
X95690443Y-112610278D01*
G37*
G36*
X86470442Y-110865518D02*
G01*
X86536627Y-110872037D01*
X86706466Y-110923557D01*
X86862991Y-111007222D01*
X86898729Y-111036552D01*
X87000186Y-111119814D01*
X87083448Y-111221271D01*
X87112778Y-111257009D01*
X87196443Y-111413534D01*
X87247963Y-111583373D01*
X87265359Y-111760000D01*
X87247963Y-111936627D01*
X87196443Y-112106466D01*
X87112778Y-112262991D01*
X87100251Y-112278255D01*
X87000186Y-112400186D01*
X86902357Y-112480471D01*
X86862991Y-112512778D01*
X86706466Y-112596443D01*
X86536627Y-112647963D01*
X86470442Y-112654482D01*
X86404260Y-112661000D01*
X86315740Y-112661000D01*
X86249558Y-112654482D01*
X86183373Y-112647963D01*
X86013534Y-112596443D01*
X85857009Y-112512778D01*
X85817643Y-112480471D01*
X85719814Y-112400186D01*
X85619749Y-112278255D01*
X85607222Y-112262991D01*
X85523557Y-112106466D01*
X85472037Y-111936627D01*
X85454641Y-111760000D01*
X85472037Y-111583373D01*
X85523557Y-111413534D01*
X85607222Y-111257009D01*
X85636552Y-111221271D01*
X85719814Y-111119814D01*
X85821271Y-111036552D01*
X85857009Y-111007222D01*
X86013534Y-110923557D01*
X86183373Y-110872037D01*
X86249558Y-110865518D01*
X86315740Y-110859000D01*
X86404260Y-110859000D01*
X86470442Y-110865518D01*
X86470442Y-110865518D01*
G37*
G36*
X129650442Y-110865518D02*
G01*
X129716627Y-110872037D01*
X129886466Y-110923557D01*
X130042991Y-111007222D01*
X130078729Y-111036552D01*
X130180186Y-111119814D01*
X130263448Y-111221271D01*
X130292778Y-111257009D01*
X130376443Y-111413534D01*
X130427963Y-111583373D01*
X130445359Y-111760000D01*
X130427963Y-111936627D01*
X130376443Y-112106466D01*
X130292778Y-112262991D01*
X130280251Y-112278255D01*
X130180186Y-112400186D01*
X130082357Y-112480471D01*
X130042991Y-112512778D01*
X129886466Y-112596443D01*
X129716627Y-112647963D01*
X129650442Y-112654482D01*
X129584260Y-112661000D01*
X129495740Y-112661000D01*
X129429558Y-112654482D01*
X129363373Y-112647963D01*
X129193534Y-112596443D01*
X129037009Y-112512778D01*
X128997643Y-112480471D01*
X128899814Y-112400186D01*
X128799749Y-112278255D01*
X128787222Y-112262991D01*
X128703557Y-112106466D01*
X128652037Y-111936627D01*
X128634641Y-111760000D01*
X128652037Y-111583373D01*
X128703557Y-111413534D01*
X128787222Y-111257009D01*
X128816552Y-111221271D01*
X128899814Y-111119814D01*
X129001271Y-111036552D01*
X129037009Y-111007222D01*
X129193534Y-110923557D01*
X129363373Y-110872037D01*
X129429558Y-110865518D01*
X129495740Y-110859000D01*
X129584260Y-110859000D01*
X129650442Y-110865518D01*
X129650442Y-110865518D01*
G37*
G36*
X80247142Y-110978242D02*
G01*
X80395101Y-111039529D01*
X80528255Y-111128499D01*
X80641501Y-111241745D01*
X80730471Y-111374899D01*
X80791758Y-111522858D01*
X80823000Y-111679925D01*
X80823000Y-111840075D01*
X80791758Y-111997142D01*
X80730471Y-112145101D01*
X80641501Y-112278255D01*
X80528255Y-112391501D01*
X80395101Y-112480471D01*
X80247142Y-112541758D01*
X80090075Y-112573000D01*
X79929925Y-112573000D01*
X79772858Y-112541758D01*
X79624899Y-112480471D01*
X79491745Y-112391501D01*
X79378499Y-112278255D01*
X79289529Y-112145101D01*
X79228242Y-111997142D01*
X79197000Y-111840075D01*
X79197000Y-111679925D01*
X79228242Y-111522858D01*
X79289529Y-111374899D01*
X79378499Y-111241745D01*
X79491745Y-111128499D01*
X79624899Y-111039529D01*
X79772858Y-110978242D01*
X79929925Y-110947000D01*
X80090075Y-110947000D01*
X80247142Y-110978242D01*
X80247142Y-110978242D01*
G37*
G36*
X110727142Y-110978242D02*
G01*
X110875101Y-111039529D01*
X111008255Y-111128499D01*
X111121501Y-111241745D01*
X111210471Y-111374899D01*
X111271758Y-111522858D01*
X111303000Y-111679925D01*
X111303000Y-111840075D01*
X111271758Y-111997142D01*
X111210471Y-112145101D01*
X111121501Y-112278255D01*
X111008255Y-112391501D01*
X110875101Y-112480471D01*
X110727142Y-112541758D01*
X110570075Y-112573000D01*
X110409925Y-112573000D01*
X110252858Y-112541758D01*
X110104899Y-112480471D01*
X109971745Y-112391501D01*
X109858499Y-112278255D01*
X109769529Y-112145101D01*
X109708242Y-111997142D01*
X109677000Y-111840075D01*
X109677000Y-111679925D01*
X109708242Y-111522858D01*
X109769529Y-111374899D01*
X109858499Y-111241745D01*
X109971745Y-111128499D01*
X110104899Y-111039529D01*
X110252858Y-110978242D01*
X110409925Y-110947000D01*
X110570075Y-110947000D01*
X110727142Y-110978242D01*
X110727142Y-110978242D01*
G37*
G36*
X123427142Y-110978242D02*
G01*
X123575101Y-111039529D01*
X123708255Y-111128499D01*
X123821501Y-111241745D01*
X123910471Y-111374899D01*
X123971758Y-111522858D01*
X124003000Y-111679925D01*
X124003000Y-111840075D01*
X123971758Y-111997142D01*
X123910471Y-112145101D01*
X123821501Y-112278255D01*
X123708255Y-112391501D01*
X123575101Y-112480471D01*
X123427142Y-112541758D01*
X123270075Y-112573000D01*
X123109925Y-112573000D01*
X122952858Y-112541758D01*
X122804899Y-112480471D01*
X122671745Y-112391501D01*
X122558499Y-112278255D01*
X122469529Y-112145101D01*
X122408242Y-111997142D01*
X122377000Y-111840075D01*
X122377000Y-111679925D01*
X122408242Y-111522858D01*
X122469529Y-111374899D01*
X122558499Y-111241745D01*
X122671745Y-111128499D01*
X122804899Y-111039529D01*
X122952858Y-110978242D01*
X123109925Y-110947000D01*
X123270075Y-110947000D01*
X123427142Y-110978242D01*
X123427142Y-110978242D01*
G37*
G36*
X54847142Y-110779372D02*
G01*
X54995101Y-110840659D01*
X55128255Y-110929629D01*
X55241501Y-111042875D01*
X55330471Y-111176029D01*
X55391758Y-111323988D01*
X55423000Y-111481055D01*
X55423000Y-111641205D01*
X55391758Y-111798272D01*
X55330471Y-111946231D01*
X55241501Y-112079385D01*
X55128255Y-112192631D01*
X54995101Y-112281601D01*
X54847142Y-112342888D01*
X54690075Y-112374130D01*
X54529925Y-112374130D01*
X54372858Y-112342888D01*
X54224899Y-112281601D01*
X54091745Y-112192631D01*
X53978499Y-112079385D01*
X53889529Y-111946231D01*
X53828242Y-111798272D01*
X53797000Y-111641205D01*
X53797000Y-111481055D01*
X53828242Y-111323988D01*
X53889529Y-111176029D01*
X53978499Y-111042875D01*
X54091745Y-110929629D01*
X54224899Y-110840659D01*
X54372858Y-110779372D01*
X54529925Y-110748130D01*
X54690075Y-110748130D01*
X54847142Y-110779372D01*
X54847142Y-110779372D01*
G37*
G36*
X86470443Y-108325519D02*
G01*
X86536627Y-108332037D01*
X86706466Y-108383557D01*
X86862991Y-108467222D01*
X86893768Y-108492480D01*
X87000186Y-108579814D01*
X87083448Y-108681271D01*
X87112778Y-108717009D01*
X87196443Y-108873534D01*
X87247963Y-109043373D01*
X87265359Y-109220000D01*
X87247963Y-109396627D01*
X87196443Y-109566466D01*
X87112778Y-109722991D01*
X87083448Y-109758729D01*
X87000186Y-109860186D01*
X86902357Y-109940471D01*
X86862991Y-109972778D01*
X86706466Y-110056443D01*
X86536627Y-110107963D01*
X86470443Y-110114481D01*
X86404260Y-110121000D01*
X86315740Y-110121000D01*
X86249557Y-110114481D01*
X86183373Y-110107963D01*
X86013534Y-110056443D01*
X85857009Y-109972778D01*
X85817643Y-109940471D01*
X85719814Y-109860186D01*
X85636552Y-109758729D01*
X85607222Y-109722991D01*
X85523557Y-109566466D01*
X85472037Y-109396627D01*
X85454641Y-109220000D01*
X85472037Y-109043373D01*
X85523557Y-108873534D01*
X85607222Y-108717009D01*
X85636552Y-108681271D01*
X85719814Y-108579814D01*
X85826232Y-108492480D01*
X85857009Y-108467222D01*
X86013534Y-108383557D01*
X86183373Y-108332037D01*
X86249557Y-108325519D01*
X86315740Y-108319000D01*
X86404260Y-108319000D01*
X86470443Y-108325519D01*
X86470443Y-108325519D01*
G37*
G36*
X110727142Y-108438242D02*
G01*
X110875101Y-108499529D01*
X111008255Y-108588499D01*
X111121501Y-108701745D01*
X111210471Y-108834899D01*
X111271758Y-108982858D01*
X111303000Y-109139925D01*
X111303000Y-109300075D01*
X111271758Y-109457142D01*
X111210471Y-109605101D01*
X111121501Y-109738255D01*
X111008255Y-109851501D01*
X110875101Y-109940471D01*
X110727142Y-110001758D01*
X110570075Y-110033000D01*
X110409925Y-110033000D01*
X110252858Y-110001758D01*
X110104899Y-109940471D01*
X109971745Y-109851501D01*
X109858499Y-109738255D01*
X109769529Y-109605101D01*
X109708242Y-109457142D01*
X109677000Y-109300075D01*
X109677000Y-109139925D01*
X109708242Y-108982858D01*
X109769529Y-108834899D01*
X109858499Y-108701745D01*
X109971745Y-108588499D01*
X110104899Y-108499529D01*
X110252858Y-108438242D01*
X110409925Y-108407000D01*
X110570075Y-108407000D01*
X110727142Y-108438242D01*
X110727142Y-108438242D01*
G37*
G36*
X124003000Y-110033000D02*
G01*
X122377000Y-110033000D01*
X122377000Y-108407000D01*
X124003000Y-108407000D01*
X124003000Y-110033000D01*
X124003000Y-110033000D01*
G37*
G36*
X101561000Y-109805759D02*
G01*
X99759000Y-109805759D01*
X99759000Y-108003759D01*
X101561000Y-108003759D01*
X101561000Y-109805759D01*
X101561000Y-109805759D01*
G37*
G36*
X98230442Y-108010277D02*
G01*
X98296627Y-108016796D01*
X98466466Y-108068316D01*
X98622991Y-108151981D01*
X98658729Y-108181311D01*
X98760186Y-108264573D01*
X98832837Y-108353100D01*
X98872778Y-108401768D01*
X98956443Y-108558293D01*
X99007963Y-108728132D01*
X99025359Y-108904759D01*
X99007963Y-109081386D01*
X98956443Y-109251225D01*
X98872778Y-109407750D01*
X98843448Y-109443488D01*
X98760186Y-109544945D01*
X98658729Y-109628207D01*
X98622991Y-109657537D01*
X98622989Y-109657538D01*
X98471980Y-109738255D01*
X98466466Y-109741202D01*
X98296627Y-109792722D01*
X98230442Y-109799241D01*
X98164260Y-109805759D01*
X98075740Y-109805759D01*
X98009558Y-109799241D01*
X97943373Y-109792722D01*
X97773534Y-109741202D01*
X97768021Y-109738255D01*
X97617011Y-109657538D01*
X97617009Y-109657537D01*
X97581271Y-109628207D01*
X97479814Y-109544945D01*
X97396552Y-109443488D01*
X97367222Y-109407750D01*
X97283557Y-109251225D01*
X97232037Y-109081386D01*
X97214641Y-108904759D01*
X97232037Y-108728132D01*
X97283557Y-108558293D01*
X97367222Y-108401768D01*
X97407163Y-108353100D01*
X97479814Y-108264573D01*
X97581271Y-108181311D01*
X97617009Y-108151981D01*
X97773534Y-108068316D01*
X97943373Y-108016796D01*
X98009558Y-108010277D01*
X98075740Y-108003759D01*
X98164260Y-108003759D01*
X98230442Y-108010277D01*
X98230442Y-108010277D01*
G37*
G36*
X95690442Y-108010277D02*
G01*
X95756627Y-108016796D01*
X95926466Y-108068316D01*
X96082991Y-108151981D01*
X96118729Y-108181311D01*
X96220186Y-108264573D01*
X96292837Y-108353100D01*
X96332778Y-108401768D01*
X96416443Y-108558293D01*
X96467963Y-108728132D01*
X96485359Y-108904759D01*
X96467963Y-109081386D01*
X96416443Y-109251225D01*
X96332778Y-109407750D01*
X96303448Y-109443488D01*
X96220186Y-109544945D01*
X96118729Y-109628207D01*
X96082991Y-109657537D01*
X96082989Y-109657538D01*
X95931980Y-109738255D01*
X95926466Y-109741202D01*
X95756627Y-109792722D01*
X95690442Y-109799241D01*
X95624260Y-109805759D01*
X95535740Y-109805759D01*
X95469558Y-109799241D01*
X95403373Y-109792722D01*
X95233534Y-109741202D01*
X95228021Y-109738255D01*
X95077011Y-109657538D01*
X95077009Y-109657537D01*
X95041271Y-109628207D01*
X94939814Y-109544945D01*
X94856552Y-109443488D01*
X94827222Y-109407750D01*
X94743557Y-109251225D01*
X94692037Y-109081386D01*
X94674641Y-108904759D01*
X94692037Y-108728132D01*
X94743557Y-108558293D01*
X94827222Y-108401768D01*
X94867163Y-108353100D01*
X94939814Y-108264573D01*
X95041271Y-108181311D01*
X95077009Y-108151981D01*
X95233534Y-108068316D01*
X95403373Y-108016796D01*
X95469558Y-108010277D01*
X95535740Y-108003759D01*
X95624260Y-108003759D01*
X95690442Y-108010277D01*
X95690442Y-108010277D01*
G37*
G36*
X137368228Y-107131703D02*
G01*
X137523100Y-107195853D01*
X137662481Y-107288985D01*
X137781015Y-107407519D01*
X137874147Y-107546900D01*
X137938297Y-107701772D01*
X137971000Y-107866184D01*
X137971000Y-108033816D01*
X137938297Y-108198228D01*
X137874147Y-108353100D01*
X137781015Y-108492481D01*
X137662481Y-108611015D01*
X137523100Y-108704147D01*
X137368228Y-108768297D01*
X137203816Y-108801000D01*
X137036184Y-108801000D01*
X136871772Y-108768297D01*
X136716900Y-108704147D01*
X136577519Y-108611015D01*
X136458985Y-108492481D01*
X136365853Y-108353100D01*
X136301703Y-108198228D01*
X136269000Y-108033816D01*
X136269000Y-107866184D01*
X136301703Y-107701772D01*
X136365853Y-107546900D01*
X136458985Y-107407519D01*
X136577519Y-107288985D01*
X136716900Y-107195853D01*
X136871772Y-107131703D01*
X137036184Y-107099000D01*
X137203816Y-107099000D01*
X137368228Y-107131703D01*
X137368228Y-107131703D01*
G37*
G36*
X135471000Y-108801000D02*
G01*
X133769000Y-108801000D01*
X133769000Y-107099000D01*
X135471000Y-107099000D01*
X135471000Y-108801000D01*
X135471000Y-108801000D01*
G37*
G36*
X86470443Y-105785519D02*
G01*
X86536627Y-105792037D01*
X86706466Y-105843557D01*
X86862991Y-105927222D01*
X86898729Y-105956552D01*
X87000186Y-106039814D01*
X87083448Y-106141271D01*
X87112778Y-106177009D01*
X87196443Y-106333534D01*
X87247963Y-106503373D01*
X87265359Y-106680000D01*
X87247963Y-106856627D01*
X87196443Y-107026466D01*
X87112778Y-107182991D01*
X87102223Y-107195852D01*
X87000186Y-107320186D01*
X86902357Y-107400471D01*
X86862991Y-107432778D01*
X86706466Y-107516443D01*
X86536627Y-107567963D01*
X86470443Y-107574481D01*
X86404260Y-107581000D01*
X86315740Y-107581000D01*
X86249557Y-107574481D01*
X86183373Y-107567963D01*
X86013534Y-107516443D01*
X85857009Y-107432778D01*
X85817643Y-107400471D01*
X85719814Y-107320186D01*
X85617777Y-107195852D01*
X85607222Y-107182991D01*
X85523557Y-107026466D01*
X85472037Y-106856627D01*
X85454641Y-106680000D01*
X85472037Y-106503373D01*
X85523557Y-106333534D01*
X85607222Y-106177009D01*
X85636552Y-106141271D01*
X85719814Y-106039814D01*
X85821271Y-105956552D01*
X85857009Y-105927222D01*
X86013534Y-105843557D01*
X86183373Y-105792037D01*
X86249557Y-105785519D01*
X86315740Y-105779000D01*
X86404260Y-105779000D01*
X86470443Y-105785519D01*
X86470443Y-105785519D01*
G37*
G36*
X123427142Y-105898242D02*
G01*
X123575101Y-105959529D01*
X123708255Y-106048499D01*
X123821501Y-106161745D01*
X123910471Y-106294899D01*
X123971758Y-106442858D01*
X124003000Y-106599925D01*
X124003000Y-106760075D01*
X123971758Y-106917142D01*
X123910471Y-107065101D01*
X123821501Y-107198255D01*
X123708255Y-107311501D01*
X123575101Y-107400471D01*
X123427142Y-107461758D01*
X123270075Y-107493000D01*
X123109925Y-107493000D01*
X122952858Y-107461758D01*
X122804899Y-107400471D01*
X122671745Y-107311501D01*
X122558499Y-107198255D01*
X122469529Y-107065101D01*
X122408242Y-106917142D01*
X122377000Y-106760075D01*
X122377000Y-106599925D01*
X122408242Y-106442858D01*
X122469529Y-106294899D01*
X122558499Y-106161745D01*
X122671745Y-106048499D01*
X122804899Y-105959529D01*
X122952858Y-105898242D01*
X123109925Y-105867000D01*
X123270075Y-105867000D01*
X123427142Y-105898242D01*
X123427142Y-105898242D01*
G37*
G36*
X110727142Y-105898242D02*
G01*
X110875101Y-105959529D01*
X111008255Y-106048499D01*
X111121501Y-106161745D01*
X111210471Y-106294899D01*
X111271758Y-106442858D01*
X111303000Y-106599925D01*
X111303000Y-106760075D01*
X111271758Y-106917142D01*
X111210471Y-107065101D01*
X111121501Y-107198255D01*
X111008255Y-107311501D01*
X110875101Y-107400471D01*
X110727142Y-107461758D01*
X110570075Y-107493000D01*
X110409925Y-107493000D01*
X110252858Y-107461758D01*
X110104899Y-107400471D01*
X109971745Y-107311501D01*
X109858499Y-107198255D01*
X109769529Y-107065101D01*
X109708242Y-106917142D01*
X109677000Y-106760075D01*
X109677000Y-106599925D01*
X109708242Y-106442858D01*
X109769529Y-106294899D01*
X109858499Y-106161745D01*
X109971745Y-106048499D01*
X110104899Y-105959529D01*
X110252858Y-105898242D01*
X110409925Y-105867000D01*
X110570075Y-105867000D01*
X110727142Y-105898242D01*
X110727142Y-105898242D01*
G37*
M02*
