G04 #@! TF.GenerationSoftware,KiCad,Pcbnew,5.1.4+dfsg1-1*
G04 #@! TF.CreationDate,2020-01-11T23:19:06+01:00*
G04 #@! TF.ProjectId,wbplotter,7762706c-6f74-4746-9572-2e6b69636164,rev?*
G04 #@! TF.SameCoordinates,Original*
G04 #@! TF.FileFunction,Copper,L2,Bot*
G04 #@! TF.FilePolarity,Positive*
%FSLAX46Y46*%
G04 Gerber Fmt 4.6, Leading zero omitted, Abs format (unit mm)*
G04 Created by KiCad (PCBNEW 5.1.4+dfsg1-1) date 2020-01-11 23:19:06*
%MOMM*%
%LPD*%
G04 APERTURE LIST*
%ADD10C,1.524000*%
%ADD11R,1.524000X1.524000*%
%ADD12O,3.960000X1.980000*%
%ADD13R,3.960000X1.980000*%
%ADD14O,1.700000X1.700000*%
%ADD15R,1.700000X1.700000*%
%ADD16C,1.600000*%
%ADD17R,1.600000X1.600000*%
%ADD18C,0.800000*%
%ADD19C,0.800000*%
%ADD20C,0.250000*%
%ADD21C,0.254000*%
G04 APERTURE END LIST*
D10*
X123190000Y-106680000D03*
D11*
X123190000Y-109220000D03*
D10*
X123190000Y-111760000D03*
X123190000Y-114300000D03*
X123190000Y-116840000D03*
X123190000Y-119380000D03*
X123190000Y-121920000D03*
D11*
X123190000Y-124460000D03*
D10*
X110490000Y-124460000D03*
X110490000Y-121920000D03*
X110490000Y-119380000D03*
X110490000Y-116840000D03*
X110490000Y-114300000D03*
X110490000Y-111760000D03*
X110490000Y-109220000D03*
X110490000Y-106680000D03*
X123190000Y-132080000D03*
D11*
X123190000Y-134620000D03*
D10*
X123190000Y-137160000D03*
X123190000Y-139700000D03*
X123190000Y-142240000D03*
X123190000Y-144780000D03*
X123190000Y-147320000D03*
D11*
X123190000Y-149860000D03*
D10*
X110490000Y-149860000D03*
X110490000Y-147320000D03*
X110490000Y-144780000D03*
X110490000Y-142240000D03*
X110490000Y-139700000D03*
X110490000Y-137160000D03*
X110490000Y-134620000D03*
X110490000Y-132080000D03*
X54610000Y-147121130D03*
X54610000Y-144780000D03*
X54610000Y-142240000D03*
X54610000Y-139700000D03*
X54610000Y-137160000D03*
X54610000Y-134620000D03*
X54610000Y-132080000D03*
X54610000Y-129540000D03*
X54610000Y-127000000D03*
X54610000Y-124460000D03*
X54610000Y-121721130D03*
X54610000Y-119380000D03*
X54610000Y-116840000D03*
X54610000Y-114101130D03*
X54610000Y-111561130D03*
X80010000Y-111760000D03*
X80010000Y-114300000D03*
X80010000Y-116840000D03*
X80010000Y-119380000D03*
X80010000Y-121920000D03*
X80010000Y-124460000D03*
X80010000Y-127000000D03*
X80010000Y-129540000D03*
X80010000Y-132080000D03*
X80010000Y-134620000D03*
X80010000Y-137160000D03*
X80010000Y-139700000D03*
X80010000Y-142240000D03*
X80010000Y-144780000D03*
X80010000Y-147320000D03*
D12*
X140970000Y-127080000D03*
D13*
X140970000Y-132080000D03*
D14*
X129540000Y-111760000D03*
X129540000Y-114300000D03*
X129540000Y-116840000D03*
D15*
X129540000Y-119380000D03*
D14*
X129540000Y-137160000D03*
X129540000Y-139700000D03*
X129540000Y-142240000D03*
D15*
X129540000Y-144780000D03*
D14*
X95580000Y-118104759D03*
X98120000Y-118104759D03*
D15*
X100660000Y-118104759D03*
D14*
X95580000Y-113504759D03*
X98120000Y-113504759D03*
D15*
X100660000Y-113504759D03*
D14*
X95580000Y-108904759D03*
X98120000Y-108904759D03*
D15*
X100660000Y-108904759D03*
D14*
X102870000Y-147320000D03*
X102870000Y-144780000D03*
X102870000Y-142240000D03*
D15*
X102870000Y-139700000D03*
D14*
X99060000Y-147320000D03*
X99060000Y-144780000D03*
X99060000Y-142240000D03*
D15*
X99060000Y-139700000D03*
D14*
X95250000Y-147320000D03*
X95250000Y-144780000D03*
X95250000Y-142240000D03*
D15*
X95250000Y-139700000D03*
D14*
X86360000Y-106680000D03*
X86360000Y-109220000D03*
X86360000Y-111760000D03*
X86360000Y-114300000D03*
X86360000Y-116840000D03*
X86360000Y-119380000D03*
X86360000Y-121920000D03*
X86360000Y-124460000D03*
X86360000Y-127000000D03*
X86360000Y-129540000D03*
X86360000Y-132080000D03*
D15*
X86360000Y-134620000D03*
D16*
X137120000Y-147320000D03*
D17*
X134620000Y-147320000D03*
D16*
X137120000Y-107950000D03*
D17*
X134620000Y-107950000D03*
D16*
X88860000Y-148590000D03*
D17*
X86360000Y-148590000D03*
D18*
X104140000Y-113030000D03*
X104140000Y-109220000D03*
X94488000Y-124968000D03*
X91440000Y-130810000D03*
D19*
X103719999Y-148169999D02*
X102870000Y-147320000D01*
X111239761Y-151422001D02*
X106972001Y-151422001D01*
X106972001Y-151422001D02*
X103719999Y-148169999D01*
X112801762Y-149860000D02*
X111239761Y-151422001D01*
X123190000Y-149860000D02*
X112801762Y-149860000D01*
X104140000Y-109220000D02*
X104140000Y-113030000D01*
D20*
X55371999Y-133858001D02*
X54610000Y-134620000D01*
X55371999Y-133516419D02*
X55371999Y-133858001D01*
X79115437Y-109772981D02*
X55371999Y-133516419D01*
X84372981Y-109772981D02*
X79115437Y-109772981D01*
X86360000Y-111760000D02*
X84372981Y-109772981D01*
X79301838Y-110222990D02*
X58420000Y-131104828D01*
X80718161Y-110222989D02*
X79301838Y-110222990D01*
X86360000Y-114300000D02*
X84795172Y-114300000D01*
X84795172Y-114300000D02*
X80718161Y-110222989D01*
X58420000Y-133350000D02*
X54610000Y-137160000D01*
X58420000Y-131104828D02*
X58420000Y-133350000D01*
X55371999Y-141478001D02*
X54610000Y-142240000D01*
X59944000Y-136906000D02*
X55371999Y-141478001D01*
X81097001Y-111238239D02*
X80531761Y-110672999D01*
X59944000Y-130217238D02*
X59944000Y-136906000D01*
X86360000Y-116840000D02*
X81097001Y-111577001D01*
X80531761Y-110672999D02*
X79488239Y-110672999D01*
X81097001Y-111577001D02*
X81097001Y-111238239D01*
X79488239Y-110672999D02*
X59944000Y-130217238D01*
X80771999Y-112521999D02*
X80010000Y-111760000D01*
X85184999Y-116934999D02*
X80771999Y-112521999D01*
X85184999Y-118204999D02*
X85184999Y-116934999D01*
X86360000Y-119380000D02*
X85184999Y-118204999D01*
X83058000Y-117348000D02*
X80010000Y-114300000D01*
X86360000Y-121920000D02*
X84328000Y-121920000D01*
X83058000Y-120650000D02*
X83058000Y-117348000D01*
X84328000Y-121920000D02*
X83058000Y-120650000D01*
X79248001Y-122681999D02*
X80010000Y-121920000D01*
X78922999Y-124981761D02*
X78922999Y-123007001D01*
X79488239Y-125547001D02*
X78922999Y-124981761D01*
X78922999Y-123007001D02*
X79248001Y-122681999D01*
X80531761Y-125547001D02*
X79488239Y-125547001D01*
X81618762Y-124460000D02*
X80531761Y-125547001D01*
X86360000Y-124460000D02*
X81618762Y-124460000D01*
X80771999Y-128778001D02*
X80010000Y-129540000D01*
X82550000Y-127000000D02*
X80771999Y-128778001D01*
X86360000Y-127000000D02*
X82550000Y-127000000D01*
X80771999Y-136398001D02*
X80010000Y-137160000D01*
X85184999Y-131985001D02*
X80771999Y-136398001D01*
X85184999Y-130715001D02*
X85184999Y-131985001D01*
X86360000Y-129540000D02*
X85184999Y-130715001D01*
X80771999Y-138938001D02*
X80010000Y-139700000D01*
X85184999Y-134525001D02*
X80771999Y-138938001D01*
X85184999Y-133255001D02*
X85184999Y-134525001D01*
X86360000Y-132080000D02*
X85184999Y-133255001D01*
X86360000Y-135890000D02*
X80010000Y-142240000D01*
X86360000Y-134620000D02*
X86360000Y-135890000D01*
X110490000Y-114300000D02*
X113030000Y-114300000D01*
X113030000Y-114300000D02*
X115570000Y-116840000D01*
X115570000Y-134620000D02*
X110490000Y-139700000D01*
X115570000Y-116840000D02*
X115570000Y-134620000D01*
X110490000Y-142240000D02*
X110490000Y-142237178D01*
X114046000Y-120396000D02*
X111251999Y-117601999D01*
X107950002Y-139697180D02*
X107950002Y-138091236D01*
X114046000Y-132672762D02*
X114046000Y-120396000D01*
X111251999Y-117601999D02*
X110490000Y-116840000D01*
X110334237Y-135707001D02*
X111011761Y-135707001D01*
X110490000Y-142237178D02*
X107950002Y-139697180D01*
X107950002Y-138091236D02*
X110334237Y-135707001D01*
X111011761Y-135707001D02*
X114046000Y-132672762D01*
X109402999Y-142761760D02*
X109402999Y-141786588D01*
X107499991Y-139883581D02*
X107499991Y-122370009D01*
X107499991Y-122370009D02*
X109728001Y-120141999D01*
X109402999Y-141786588D02*
X107499991Y-139883581D01*
X110490000Y-143848762D02*
X109402999Y-142761760D01*
X110490000Y-144780000D02*
X110490000Y-143848762D01*
X109728001Y-120141999D02*
X110490000Y-119380000D01*
X103694014Y-136409599D02*
X103430403Y-136145988D01*
X108952988Y-145782988D02*
X108952988Y-141972988D01*
X108952988Y-141972988D02*
X103694014Y-136714014D01*
X110490000Y-147320000D02*
X108952988Y-145782988D01*
X103694014Y-136714014D02*
X103694014Y-136409599D01*
X81185001Y-123284999D02*
X80771999Y-123698001D01*
X103125988Y-136145988D02*
X90264999Y-123284999D01*
X103430403Y-136145988D02*
X103125988Y-136145988D01*
X90264999Y-123284999D02*
X81185001Y-123284999D01*
X80771999Y-123698001D02*
X80010000Y-124460000D01*
X104245001Y-142900001D02*
X104045001Y-143100001D01*
X104140001Y-138324999D02*
X104245001Y-138429999D01*
X104045001Y-143415001D02*
X110490000Y-149860000D01*
X104245001Y-138429999D02*
X104245001Y-142900001D01*
X103018999Y-138324999D02*
X104140001Y-138324999D01*
X81185001Y-125824999D02*
X89464001Y-125824999D01*
X101289999Y-136595999D02*
X103018999Y-138324999D01*
X80010000Y-127000000D02*
X81185001Y-125824999D01*
X104045001Y-143100001D02*
X104045001Y-143415001D01*
X100235001Y-136595999D02*
X101289999Y-136595999D01*
X89464001Y-125824999D02*
X100235001Y-136595999D01*
D21*
G36*
X147930000Y-151740000D02*
G01*
X116967000Y-151740000D01*
X116967000Y-150895000D01*
X121853903Y-150895000D01*
X121897463Y-150976494D01*
X121976815Y-151073185D01*
X122073506Y-151152537D01*
X122183820Y-151211502D01*
X122303518Y-151247812D01*
X122428000Y-151260072D01*
X123952000Y-151260072D01*
X124076482Y-151247812D01*
X124196180Y-151211502D01*
X124306494Y-151152537D01*
X124403185Y-151073185D01*
X124482537Y-150976494D01*
X124541502Y-150866180D01*
X124577812Y-150746482D01*
X124590072Y-150622000D01*
X124590072Y-149098000D01*
X124577812Y-148973518D01*
X124541502Y-148853820D01*
X124482537Y-148743506D01*
X124403185Y-148646815D01*
X124306494Y-148567463D01*
X124196180Y-148508498D01*
X124076482Y-148472188D01*
X123992535Y-148463920D01*
X124080535Y-148405120D01*
X124275120Y-148210535D01*
X124335613Y-148120000D01*
X133181928Y-148120000D01*
X133194188Y-148244482D01*
X133230498Y-148364180D01*
X133289463Y-148474494D01*
X133368815Y-148571185D01*
X133465506Y-148650537D01*
X133575820Y-148709502D01*
X133695518Y-148745812D01*
X133820000Y-148758072D01*
X134334250Y-148755000D01*
X134493000Y-148596250D01*
X134493000Y-147447000D01*
X133343750Y-147447000D01*
X133185000Y-147605750D01*
X133181928Y-148120000D01*
X124335613Y-148120000D01*
X124428005Y-147981727D01*
X124533314Y-147727490D01*
X124587000Y-147457592D01*
X124587000Y-147182408D01*
X124533314Y-146912510D01*
X124428005Y-146658273D01*
X124335614Y-146520000D01*
X133181928Y-146520000D01*
X133185000Y-147034250D01*
X133343750Y-147193000D01*
X134493000Y-147193000D01*
X134493000Y-146043750D01*
X134747000Y-146043750D01*
X134747000Y-147193000D01*
X134767000Y-147193000D01*
X134767000Y-147447000D01*
X134747000Y-147447000D01*
X134747000Y-148596250D01*
X134905750Y-148755000D01*
X135420000Y-148758072D01*
X135544482Y-148745812D01*
X135664180Y-148709502D01*
X135774494Y-148650537D01*
X135871185Y-148571185D01*
X135950537Y-148474494D01*
X136009502Y-148364180D01*
X136038661Y-148268057D01*
X136205241Y-148434637D01*
X136440273Y-148591680D01*
X136701426Y-148699853D01*
X136978665Y-148755000D01*
X137261335Y-148755000D01*
X137538574Y-148699853D01*
X137799727Y-148591680D01*
X138034759Y-148434637D01*
X138234637Y-148234759D01*
X138391680Y-147999727D01*
X138499853Y-147738574D01*
X138555000Y-147461335D01*
X138555000Y-147178665D01*
X138499853Y-146901426D01*
X138391680Y-146640273D01*
X138234637Y-146405241D01*
X138034759Y-146205363D01*
X137799727Y-146048320D01*
X137538574Y-145940147D01*
X137261335Y-145885000D01*
X136978665Y-145885000D01*
X136701426Y-145940147D01*
X136440273Y-146048320D01*
X136205241Y-146205363D01*
X136038661Y-146371943D01*
X136009502Y-146275820D01*
X135950537Y-146165506D01*
X135871185Y-146068815D01*
X135774494Y-145989463D01*
X135664180Y-145930498D01*
X135544482Y-145894188D01*
X135420000Y-145881928D01*
X134905750Y-145885000D01*
X134747000Y-146043750D01*
X134493000Y-146043750D01*
X134334250Y-145885000D01*
X133820000Y-145881928D01*
X133695518Y-145894188D01*
X133575820Y-145930498D01*
X133465506Y-145989463D01*
X133368815Y-146068815D01*
X133289463Y-146165506D01*
X133230498Y-146275820D01*
X133194188Y-146395518D01*
X133181928Y-146520000D01*
X124335614Y-146520000D01*
X124275120Y-146429465D01*
X124080535Y-146234880D01*
X123851727Y-146081995D01*
X123774485Y-146050000D01*
X123851727Y-146018005D01*
X124080535Y-145865120D01*
X124275120Y-145670535D01*
X124428005Y-145441727D01*
X124533314Y-145187490D01*
X124587000Y-144917592D01*
X124587000Y-144642408D01*
X124533314Y-144372510D01*
X124428005Y-144118273D01*
X124275120Y-143889465D01*
X124080535Y-143694880D01*
X123851727Y-143541995D01*
X123774485Y-143510000D01*
X123851727Y-143478005D01*
X124080535Y-143325120D01*
X124275120Y-143130535D01*
X124428005Y-142901727D01*
X124533314Y-142647490D01*
X124587000Y-142377592D01*
X124587000Y-142102408D01*
X124533314Y-141832510D01*
X124428005Y-141578273D01*
X124275120Y-141349465D01*
X124080535Y-141154880D01*
X123851727Y-141001995D01*
X123774485Y-140970000D01*
X123851727Y-140938005D01*
X124080535Y-140785120D01*
X124275120Y-140590535D01*
X124428005Y-140361727D01*
X124533314Y-140107490D01*
X124587000Y-139837592D01*
X124587000Y-139562408D01*
X124533314Y-139292510D01*
X124428005Y-139038273D01*
X124275120Y-138809465D01*
X124080535Y-138614880D01*
X123851727Y-138461995D01*
X123774485Y-138430000D01*
X123851727Y-138398005D01*
X124080535Y-138245120D01*
X124275120Y-138050535D01*
X124428005Y-137821727D01*
X124533314Y-137567490D01*
X124587000Y-137297592D01*
X124587000Y-137160000D01*
X128047815Y-137160000D01*
X128076487Y-137451111D01*
X128161401Y-137731034D01*
X128299294Y-137989014D01*
X128484866Y-138215134D01*
X128710986Y-138400706D01*
X128765791Y-138430000D01*
X128710986Y-138459294D01*
X128484866Y-138644866D01*
X128299294Y-138870986D01*
X128161401Y-139128966D01*
X128076487Y-139408889D01*
X128047815Y-139700000D01*
X128076487Y-139991111D01*
X128161401Y-140271034D01*
X128299294Y-140529014D01*
X128484866Y-140755134D01*
X128710986Y-140940706D01*
X128765791Y-140970000D01*
X128710986Y-140999294D01*
X128484866Y-141184866D01*
X128299294Y-141410986D01*
X128161401Y-141668966D01*
X128076487Y-141948889D01*
X128047815Y-142240000D01*
X128076487Y-142531111D01*
X128161401Y-142811034D01*
X128299294Y-143069014D01*
X128484866Y-143295134D01*
X128514687Y-143319607D01*
X128445820Y-143340498D01*
X128335506Y-143399463D01*
X128238815Y-143478815D01*
X128159463Y-143575506D01*
X128100498Y-143685820D01*
X128064188Y-143805518D01*
X128051928Y-143930000D01*
X128051928Y-145630000D01*
X128064188Y-145754482D01*
X128100498Y-145874180D01*
X128159463Y-145984494D01*
X128238815Y-146081185D01*
X128335506Y-146160537D01*
X128445820Y-146219502D01*
X128565518Y-146255812D01*
X128690000Y-146268072D01*
X130390000Y-146268072D01*
X130514482Y-146255812D01*
X130634180Y-146219502D01*
X130744494Y-146160537D01*
X130841185Y-146081185D01*
X130920537Y-145984494D01*
X130979502Y-145874180D01*
X131015812Y-145754482D01*
X131028072Y-145630000D01*
X131028072Y-143930000D01*
X131015812Y-143805518D01*
X130979502Y-143685820D01*
X130920537Y-143575506D01*
X130841185Y-143478815D01*
X130744494Y-143399463D01*
X130634180Y-143340498D01*
X130565313Y-143319607D01*
X130595134Y-143295134D01*
X130780706Y-143069014D01*
X130918599Y-142811034D01*
X131003513Y-142531111D01*
X131032185Y-142240000D01*
X131003513Y-141948889D01*
X130918599Y-141668966D01*
X130780706Y-141410986D01*
X130595134Y-141184866D01*
X130369014Y-140999294D01*
X130314209Y-140970000D01*
X130369014Y-140940706D01*
X130595134Y-140755134D01*
X130780706Y-140529014D01*
X130918599Y-140271034D01*
X131003513Y-139991111D01*
X131032185Y-139700000D01*
X131003513Y-139408889D01*
X130918599Y-139128966D01*
X130780706Y-138870986D01*
X130595134Y-138644866D01*
X130369014Y-138459294D01*
X130314209Y-138430000D01*
X130369014Y-138400706D01*
X130595134Y-138215134D01*
X130780706Y-137989014D01*
X130918599Y-137731034D01*
X131003513Y-137451111D01*
X131032185Y-137160000D01*
X131003513Y-136868889D01*
X130918599Y-136588966D01*
X130780706Y-136330986D01*
X130595134Y-136104866D01*
X130369014Y-135919294D01*
X130111034Y-135781401D01*
X129831111Y-135696487D01*
X129612950Y-135675000D01*
X129467050Y-135675000D01*
X129248889Y-135696487D01*
X128968966Y-135781401D01*
X128710986Y-135919294D01*
X128484866Y-136104866D01*
X128299294Y-136330986D01*
X128161401Y-136588966D01*
X128076487Y-136868889D01*
X128047815Y-137160000D01*
X124587000Y-137160000D01*
X124587000Y-137022408D01*
X124533314Y-136752510D01*
X124428005Y-136498273D01*
X124275120Y-136269465D01*
X124080535Y-136074880D01*
X123992535Y-136016080D01*
X124076482Y-136007812D01*
X124196180Y-135971502D01*
X124306494Y-135912537D01*
X124403185Y-135833185D01*
X124482537Y-135736494D01*
X124541502Y-135626180D01*
X124577812Y-135506482D01*
X124590072Y-135382000D01*
X124590072Y-133858000D01*
X124577812Y-133733518D01*
X124541502Y-133613820D01*
X124482537Y-133503506D01*
X124403185Y-133406815D01*
X124306494Y-133327463D01*
X124196180Y-133268498D01*
X124076482Y-133232188D01*
X123952000Y-133219928D01*
X123927317Y-133219928D01*
X123975960Y-133045565D01*
X123190000Y-132259605D01*
X122404040Y-133045565D01*
X122452683Y-133219928D01*
X122428000Y-133219928D01*
X122303518Y-133232188D01*
X122183820Y-133268498D01*
X122073506Y-133327463D01*
X121976815Y-133406815D01*
X121897463Y-133503506D01*
X121838498Y-133613820D01*
X121802188Y-133733518D01*
X121789928Y-133858000D01*
X121789928Y-135382000D01*
X121802188Y-135506482D01*
X121838498Y-135626180D01*
X121897463Y-135736494D01*
X121976815Y-135833185D01*
X122073506Y-135912537D01*
X122183820Y-135971502D01*
X122303518Y-136007812D01*
X122387465Y-136016080D01*
X122299465Y-136074880D01*
X122104880Y-136269465D01*
X121951995Y-136498273D01*
X121846686Y-136752510D01*
X121793000Y-137022408D01*
X121793000Y-137297592D01*
X121846686Y-137567490D01*
X121951995Y-137821727D01*
X122104880Y-138050535D01*
X122299465Y-138245120D01*
X122528273Y-138398005D01*
X122605515Y-138430000D01*
X122528273Y-138461995D01*
X122299465Y-138614880D01*
X122104880Y-138809465D01*
X121951995Y-139038273D01*
X121846686Y-139292510D01*
X121793000Y-139562408D01*
X121793000Y-139837592D01*
X121846686Y-140107490D01*
X121951995Y-140361727D01*
X122104880Y-140590535D01*
X122299465Y-140785120D01*
X122528273Y-140938005D01*
X122605515Y-140970000D01*
X122528273Y-141001995D01*
X122299465Y-141154880D01*
X122104880Y-141349465D01*
X121951995Y-141578273D01*
X121846686Y-141832510D01*
X121793000Y-142102408D01*
X121793000Y-142377592D01*
X121846686Y-142647490D01*
X121951995Y-142901727D01*
X122104880Y-143130535D01*
X122299465Y-143325120D01*
X122528273Y-143478005D01*
X122605515Y-143510000D01*
X122528273Y-143541995D01*
X122299465Y-143694880D01*
X122104880Y-143889465D01*
X121951995Y-144118273D01*
X121846686Y-144372510D01*
X121793000Y-144642408D01*
X121793000Y-144917592D01*
X121846686Y-145187490D01*
X121951995Y-145441727D01*
X122104880Y-145670535D01*
X122299465Y-145865120D01*
X122528273Y-146018005D01*
X122605515Y-146050000D01*
X122528273Y-146081995D01*
X122299465Y-146234880D01*
X122104880Y-146429465D01*
X121951995Y-146658273D01*
X121846686Y-146912510D01*
X121793000Y-147182408D01*
X121793000Y-147457592D01*
X121846686Y-147727490D01*
X121951995Y-147981727D01*
X122104880Y-148210535D01*
X122299465Y-148405120D01*
X122387465Y-148463920D01*
X122303518Y-148472188D01*
X122183820Y-148508498D01*
X122073506Y-148567463D01*
X121976815Y-148646815D01*
X121897463Y-148743506D01*
X121853903Y-148825000D01*
X116967000Y-148825000D01*
X116967000Y-132152017D01*
X121788090Y-132152017D01*
X121829078Y-132424133D01*
X121922364Y-132683023D01*
X121984344Y-132798980D01*
X122224435Y-132865960D01*
X123010395Y-132080000D01*
X123369605Y-132080000D01*
X124155565Y-132865960D01*
X124395656Y-132798980D01*
X124512756Y-132549952D01*
X124579023Y-132282865D01*
X124591910Y-132007983D01*
X124550922Y-131735867D01*
X124457636Y-131476977D01*
X124395656Y-131361020D01*
X124155565Y-131294040D01*
X123369605Y-132080000D01*
X123010395Y-132080000D01*
X122224435Y-131294040D01*
X121984344Y-131361020D01*
X121867244Y-131610048D01*
X121800977Y-131877135D01*
X121788090Y-132152017D01*
X116967000Y-132152017D01*
X116967000Y-131114435D01*
X122404040Y-131114435D01*
X123190000Y-131900395D01*
X123975960Y-131114435D01*
X123969144Y-131090000D01*
X138351928Y-131090000D01*
X138351928Y-133070000D01*
X138364188Y-133194482D01*
X138400498Y-133314180D01*
X138459463Y-133424494D01*
X138538815Y-133521185D01*
X138635506Y-133600537D01*
X138745820Y-133659502D01*
X138865518Y-133695812D01*
X138990000Y-133708072D01*
X142950000Y-133708072D01*
X143074482Y-133695812D01*
X143194180Y-133659502D01*
X143304494Y-133600537D01*
X143401185Y-133521185D01*
X143480537Y-133424494D01*
X143539502Y-133314180D01*
X143575812Y-133194482D01*
X143588072Y-133070000D01*
X143588072Y-131090000D01*
X143575812Y-130965518D01*
X143539502Y-130845820D01*
X143480537Y-130735506D01*
X143401185Y-130638815D01*
X143304494Y-130559463D01*
X143194180Y-130500498D01*
X143074482Y-130464188D01*
X142950000Y-130451928D01*
X138990000Y-130451928D01*
X138865518Y-130464188D01*
X138745820Y-130500498D01*
X138635506Y-130559463D01*
X138538815Y-130638815D01*
X138459463Y-130735506D01*
X138400498Y-130845820D01*
X138364188Y-130965518D01*
X138351928Y-131090000D01*
X123969144Y-131090000D01*
X123908980Y-130874344D01*
X123659952Y-130757244D01*
X123392865Y-130690977D01*
X123117983Y-130678090D01*
X122845867Y-130719078D01*
X122586977Y-130812364D01*
X122471020Y-130874344D01*
X122404040Y-131114435D01*
X116967000Y-131114435D01*
X116967000Y-127458865D01*
X138399782Y-127458865D01*
X138430095Y-127584528D01*
X138558304Y-127877205D01*
X138741148Y-128139246D01*
X138971601Y-128360581D01*
X139240806Y-128532704D01*
X139538418Y-128649000D01*
X139853000Y-128705000D01*
X140843000Y-128705000D01*
X140843000Y-127207000D01*
X141097000Y-127207000D01*
X141097000Y-128705000D01*
X142087000Y-128705000D01*
X142401582Y-128649000D01*
X142699194Y-128532704D01*
X142968399Y-128360581D01*
X143198852Y-128139246D01*
X143381696Y-127877205D01*
X143509905Y-127584528D01*
X143540218Y-127458865D01*
X143420740Y-127207000D01*
X141097000Y-127207000D01*
X140843000Y-127207000D01*
X138519260Y-127207000D01*
X138399782Y-127458865D01*
X116967000Y-127458865D01*
X116967000Y-126701135D01*
X138399782Y-126701135D01*
X138519260Y-126953000D01*
X140843000Y-126953000D01*
X140843000Y-125455000D01*
X141097000Y-125455000D01*
X141097000Y-126953000D01*
X143420740Y-126953000D01*
X143540218Y-126701135D01*
X143509905Y-126575472D01*
X143381696Y-126282795D01*
X143198852Y-126020754D01*
X142968399Y-125799419D01*
X142699194Y-125627296D01*
X142401582Y-125511000D01*
X142087000Y-125455000D01*
X141097000Y-125455000D01*
X140843000Y-125455000D01*
X139853000Y-125455000D01*
X139538418Y-125511000D01*
X139240806Y-125627296D01*
X138971601Y-125799419D01*
X138741148Y-126020754D01*
X138558304Y-126282795D01*
X138430095Y-126575472D01*
X138399782Y-126701135D01*
X116967000Y-126701135D01*
X116967000Y-108458000D01*
X121789928Y-108458000D01*
X121789928Y-109982000D01*
X121802188Y-110106482D01*
X121838498Y-110226180D01*
X121897463Y-110336494D01*
X121976815Y-110433185D01*
X122073506Y-110512537D01*
X122183820Y-110571502D01*
X122303518Y-110607812D01*
X122387465Y-110616080D01*
X122299465Y-110674880D01*
X122104880Y-110869465D01*
X121951995Y-111098273D01*
X121846686Y-111352510D01*
X121793000Y-111622408D01*
X121793000Y-111897592D01*
X121846686Y-112167490D01*
X121951995Y-112421727D01*
X122104880Y-112650535D01*
X122299465Y-112845120D01*
X122528273Y-112998005D01*
X122605515Y-113030000D01*
X122528273Y-113061995D01*
X122299465Y-113214880D01*
X122104880Y-113409465D01*
X121951995Y-113638273D01*
X121846686Y-113892510D01*
X121793000Y-114162408D01*
X121793000Y-114437592D01*
X121846686Y-114707490D01*
X121951995Y-114961727D01*
X122104880Y-115190535D01*
X122299465Y-115385120D01*
X122528273Y-115538005D01*
X122605515Y-115570000D01*
X122528273Y-115601995D01*
X122299465Y-115754880D01*
X122104880Y-115949465D01*
X121951995Y-116178273D01*
X121846686Y-116432510D01*
X121793000Y-116702408D01*
X121793000Y-116977592D01*
X121846686Y-117247490D01*
X121951995Y-117501727D01*
X122104880Y-117730535D01*
X122299465Y-117925120D01*
X122528273Y-118078005D01*
X122605515Y-118110000D01*
X122528273Y-118141995D01*
X122299465Y-118294880D01*
X122104880Y-118489465D01*
X121951995Y-118718273D01*
X121846686Y-118972510D01*
X121793000Y-119242408D01*
X121793000Y-119517592D01*
X121846686Y-119787490D01*
X121951995Y-120041727D01*
X122104880Y-120270535D01*
X122299465Y-120465120D01*
X122528273Y-120618005D01*
X122605515Y-120650000D01*
X122528273Y-120681995D01*
X122299465Y-120834880D01*
X122104880Y-121029465D01*
X121951995Y-121258273D01*
X121846686Y-121512510D01*
X121793000Y-121782408D01*
X121793000Y-122057592D01*
X121846686Y-122327490D01*
X121951995Y-122581727D01*
X122104880Y-122810535D01*
X122299465Y-123005120D01*
X122387465Y-123063920D01*
X122303518Y-123072188D01*
X122183820Y-123108498D01*
X122073506Y-123167463D01*
X121976815Y-123246815D01*
X121897463Y-123343506D01*
X121838498Y-123453820D01*
X121802188Y-123573518D01*
X121789928Y-123698000D01*
X121789928Y-125222000D01*
X121802188Y-125346482D01*
X121838498Y-125466180D01*
X121897463Y-125576494D01*
X121976815Y-125673185D01*
X122073506Y-125752537D01*
X122183820Y-125811502D01*
X122303518Y-125847812D01*
X122428000Y-125860072D01*
X123952000Y-125860072D01*
X124076482Y-125847812D01*
X124196180Y-125811502D01*
X124306494Y-125752537D01*
X124403185Y-125673185D01*
X124482537Y-125576494D01*
X124541502Y-125466180D01*
X124577812Y-125346482D01*
X124590072Y-125222000D01*
X124590072Y-123698000D01*
X124577812Y-123573518D01*
X124541502Y-123453820D01*
X124482537Y-123343506D01*
X124403185Y-123246815D01*
X124306494Y-123167463D01*
X124196180Y-123108498D01*
X124076482Y-123072188D01*
X123992535Y-123063920D01*
X124080535Y-123005120D01*
X124275120Y-122810535D01*
X124428005Y-122581727D01*
X124533314Y-122327490D01*
X124587000Y-122057592D01*
X124587000Y-121782408D01*
X124533314Y-121512510D01*
X124428005Y-121258273D01*
X124275120Y-121029465D01*
X124080535Y-120834880D01*
X123851727Y-120681995D01*
X123774485Y-120650000D01*
X123851727Y-120618005D01*
X124080535Y-120465120D01*
X124275120Y-120270535D01*
X124428005Y-120041727D01*
X124533314Y-119787490D01*
X124587000Y-119517592D01*
X124587000Y-119242408D01*
X124533314Y-118972510D01*
X124428005Y-118718273D01*
X124275120Y-118489465D01*
X124080535Y-118294880D01*
X123851727Y-118141995D01*
X123774485Y-118110000D01*
X123851727Y-118078005D01*
X124080535Y-117925120D01*
X124275120Y-117730535D01*
X124428005Y-117501727D01*
X124533314Y-117247490D01*
X124587000Y-116977592D01*
X124587000Y-116702408D01*
X124533314Y-116432510D01*
X124428005Y-116178273D01*
X124275120Y-115949465D01*
X124080535Y-115754880D01*
X123851727Y-115601995D01*
X123774485Y-115570000D01*
X123851727Y-115538005D01*
X124080535Y-115385120D01*
X124275120Y-115190535D01*
X124428005Y-114961727D01*
X124533314Y-114707490D01*
X124587000Y-114437592D01*
X124587000Y-114162408D01*
X124533314Y-113892510D01*
X124428005Y-113638273D01*
X124275120Y-113409465D01*
X124080535Y-113214880D01*
X123851727Y-113061995D01*
X123774485Y-113030000D01*
X123851727Y-112998005D01*
X124080535Y-112845120D01*
X124275120Y-112650535D01*
X124428005Y-112421727D01*
X124533314Y-112167490D01*
X124587000Y-111897592D01*
X124587000Y-111760000D01*
X128047815Y-111760000D01*
X128076487Y-112051111D01*
X128161401Y-112331034D01*
X128299294Y-112589014D01*
X128484866Y-112815134D01*
X128710986Y-113000706D01*
X128765791Y-113030000D01*
X128710986Y-113059294D01*
X128484866Y-113244866D01*
X128299294Y-113470986D01*
X128161401Y-113728966D01*
X128076487Y-114008889D01*
X128047815Y-114300000D01*
X128076487Y-114591111D01*
X128161401Y-114871034D01*
X128299294Y-115129014D01*
X128484866Y-115355134D01*
X128710986Y-115540706D01*
X128765791Y-115570000D01*
X128710986Y-115599294D01*
X128484866Y-115784866D01*
X128299294Y-116010986D01*
X128161401Y-116268966D01*
X128076487Y-116548889D01*
X128047815Y-116840000D01*
X128076487Y-117131111D01*
X128161401Y-117411034D01*
X128299294Y-117669014D01*
X128484866Y-117895134D01*
X128514687Y-117919607D01*
X128445820Y-117940498D01*
X128335506Y-117999463D01*
X128238815Y-118078815D01*
X128159463Y-118175506D01*
X128100498Y-118285820D01*
X128064188Y-118405518D01*
X128051928Y-118530000D01*
X128051928Y-120230000D01*
X128064188Y-120354482D01*
X128100498Y-120474180D01*
X128159463Y-120584494D01*
X128238815Y-120681185D01*
X128335506Y-120760537D01*
X128445820Y-120819502D01*
X128565518Y-120855812D01*
X128690000Y-120868072D01*
X130390000Y-120868072D01*
X130514482Y-120855812D01*
X130634180Y-120819502D01*
X130744494Y-120760537D01*
X130841185Y-120681185D01*
X130920537Y-120584494D01*
X130979502Y-120474180D01*
X131015812Y-120354482D01*
X131028072Y-120230000D01*
X131028072Y-118530000D01*
X131015812Y-118405518D01*
X130979502Y-118285820D01*
X130920537Y-118175506D01*
X130841185Y-118078815D01*
X130744494Y-117999463D01*
X130634180Y-117940498D01*
X130565313Y-117919607D01*
X130595134Y-117895134D01*
X130780706Y-117669014D01*
X130918599Y-117411034D01*
X131003513Y-117131111D01*
X131032185Y-116840000D01*
X131003513Y-116548889D01*
X130918599Y-116268966D01*
X130780706Y-116010986D01*
X130595134Y-115784866D01*
X130369014Y-115599294D01*
X130314209Y-115570000D01*
X130369014Y-115540706D01*
X130595134Y-115355134D01*
X130780706Y-115129014D01*
X130918599Y-114871034D01*
X131003513Y-114591111D01*
X131032185Y-114300000D01*
X131003513Y-114008889D01*
X130918599Y-113728966D01*
X130780706Y-113470986D01*
X130595134Y-113244866D01*
X130369014Y-113059294D01*
X130314209Y-113030000D01*
X130369014Y-113000706D01*
X130595134Y-112815134D01*
X130780706Y-112589014D01*
X130918599Y-112331034D01*
X131003513Y-112051111D01*
X131032185Y-111760000D01*
X131003513Y-111468889D01*
X130918599Y-111188966D01*
X130780706Y-110930986D01*
X130595134Y-110704866D01*
X130369014Y-110519294D01*
X130111034Y-110381401D01*
X129831111Y-110296487D01*
X129612950Y-110275000D01*
X129467050Y-110275000D01*
X129248889Y-110296487D01*
X128968966Y-110381401D01*
X128710986Y-110519294D01*
X128484866Y-110704866D01*
X128299294Y-110930986D01*
X128161401Y-111188966D01*
X128076487Y-111468889D01*
X128047815Y-111760000D01*
X124587000Y-111760000D01*
X124587000Y-111622408D01*
X124533314Y-111352510D01*
X124428005Y-111098273D01*
X124275120Y-110869465D01*
X124080535Y-110674880D01*
X123992535Y-110616080D01*
X124076482Y-110607812D01*
X124196180Y-110571502D01*
X124306494Y-110512537D01*
X124403185Y-110433185D01*
X124482537Y-110336494D01*
X124541502Y-110226180D01*
X124577812Y-110106482D01*
X124590072Y-109982000D01*
X124590072Y-108750000D01*
X133181928Y-108750000D01*
X133194188Y-108874482D01*
X133230498Y-108994180D01*
X133289463Y-109104494D01*
X133368815Y-109201185D01*
X133465506Y-109280537D01*
X133575820Y-109339502D01*
X133695518Y-109375812D01*
X133820000Y-109388072D01*
X134334250Y-109385000D01*
X134493000Y-109226250D01*
X134493000Y-108077000D01*
X133343750Y-108077000D01*
X133185000Y-108235750D01*
X133181928Y-108750000D01*
X124590072Y-108750000D01*
X124590072Y-108458000D01*
X124577812Y-108333518D01*
X124541502Y-108213820D01*
X124482537Y-108103506D01*
X124403185Y-108006815D01*
X124306494Y-107927463D01*
X124196180Y-107868498D01*
X124076482Y-107832188D01*
X123952000Y-107819928D01*
X123927317Y-107819928D01*
X123975960Y-107645565D01*
X123190000Y-106859605D01*
X122404040Y-107645565D01*
X122452683Y-107819928D01*
X122428000Y-107819928D01*
X122303518Y-107832188D01*
X122183820Y-107868498D01*
X122073506Y-107927463D01*
X121976815Y-108006815D01*
X121897463Y-108103506D01*
X121838498Y-108213820D01*
X121802188Y-108333518D01*
X121789928Y-108458000D01*
X116967000Y-108458000D01*
X116967000Y-106752017D01*
X121788090Y-106752017D01*
X121829078Y-107024133D01*
X121922364Y-107283023D01*
X121984344Y-107398980D01*
X122224435Y-107465960D01*
X123010395Y-106680000D01*
X123369605Y-106680000D01*
X124155565Y-107465960D01*
X124395656Y-107398980D01*
X124512733Y-107150000D01*
X133181928Y-107150000D01*
X133185000Y-107664250D01*
X133343750Y-107823000D01*
X134493000Y-107823000D01*
X134493000Y-106673750D01*
X134747000Y-106673750D01*
X134747000Y-107823000D01*
X134767000Y-107823000D01*
X134767000Y-108077000D01*
X134747000Y-108077000D01*
X134747000Y-109226250D01*
X134905750Y-109385000D01*
X135420000Y-109388072D01*
X135544482Y-109375812D01*
X135664180Y-109339502D01*
X135774494Y-109280537D01*
X135871185Y-109201185D01*
X135950537Y-109104494D01*
X136009502Y-108994180D01*
X136038661Y-108898057D01*
X136205241Y-109064637D01*
X136440273Y-109221680D01*
X136701426Y-109329853D01*
X136978665Y-109385000D01*
X137261335Y-109385000D01*
X137538574Y-109329853D01*
X137799727Y-109221680D01*
X138034759Y-109064637D01*
X138234637Y-108864759D01*
X138391680Y-108629727D01*
X138499853Y-108368574D01*
X138555000Y-108091335D01*
X138555000Y-107808665D01*
X138499853Y-107531426D01*
X138391680Y-107270273D01*
X138234637Y-107035241D01*
X138034759Y-106835363D01*
X137799727Y-106678320D01*
X137538574Y-106570147D01*
X137261335Y-106515000D01*
X136978665Y-106515000D01*
X136701426Y-106570147D01*
X136440273Y-106678320D01*
X136205241Y-106835363D01*
X136038661Y-107001943D01*
X136009502Y-106905820D01*
X135950537Y-106795506D01*
X135871185Y-106698815D01*
X135774494Y-106619463D01*
X135664180Y-106560498D01*
X135544482Y-106524188D01*
X135420000Y-106511928D01*
X134905750Y-106515000D01*
X134747000Y-106673750D01*
X134493000Y-106673750D01*
X134334250Y-106515000D01*
X133820000Y-106511928D01*
X133695518Y-106524188D01*
X133575820Y-106560498D01*
X133465506Y-106619463D01*
X133368815Y-106698815D01*
X133289463Y-106795506D01*
X133230498Y-106905820D01*
X133194188Y-107025518D01*
X133181928Y-107150000D01*
X124512733Y-107150000D01*
X124512756Y-107149952D01*
X124579023Y-106882865D01*
X124591910Y-106607983D01*
X124550922Y-106335867D01*
X124457636Y-106076977D01*
X124395656Y-105961020D01*
X124155565Y-105894040D01*
X123369605Y-106680000D01*
X123010395Y-106680000D01*
X122224435Y-105894040D01*
X121984344Y-105961020D01*
X121867244Y-106210048D01*
X121800977Y-106477135D01*
X121788090Y-106752017D01*
X116967000Y-106752017D01*
X116967000Y-105714435D01*
X122404040Y-105714435D01*
X123190000Y-106500395D01*
X123975960Y-105714435D01*
X123908980Y-105474344D01*
X123659952Y-105357244D01*
X123392865Y-105290977D01*
X123117983Y-105278090D01*
X122845867Y-105319078D01*
X122586977Y-105412364D01*
X122471020Y-105474344D01*
X122404040Y-105714435D01*
X116967000Y-105714435D01*
X116967000Y-103530000D01*
X147930001Y-103530000D01*
X147930000Y-151740000D01*
X147930000Y-151740000D01*
G37*
X147930000Y-151740000D02*
X116967000Y-151740000D01*
X116967000Y-150895000D01*
X121853903Y-150895000D01*
X121897463Y-150976494D01*
X121976815Y-151073185D01*
X122073506Y-151152537D01*
X122183820Y-151211502D01*
X122303518Y-151247812D01*
X122428000Y-151260072D01*
X123952000Y-151260072D01*
X124076482Y-151247812D01*
X124196180Y-151211502D01*
X124306494Y-151152537D01*
X124403185Y-151073185D01*
X124482537Y-150976494D01*
X124541502Y-150866180D01*
X124577812Y-150746482D01*
X124590072Y-150622000D01*
X124590072Y-149098000D01*
X124577812Y-148973518D01*
X124541502Y-148853820D01*
X124482537Y-148743506D01*
X124403185Y-148646815D01*
X124306494Y-148567463D01*
X124196180Y-148508498D01*
X124076482Y-148472188D01*
X123992535Y-148463920D01*
X124080535Y-148405120D01*
X124275120Y-148210535D01*
X124335613Y-148120000D01*
X133181928Y-148120000D01*
X133194188Y-148244482D01*
X133230498Y-148364180D01*
X133289463Y-148474494D01*
X133368815Y-148571185D01*
X133465506Y-148650537D01*
X133575820Y-148709502D01*
X133695518Y-148745812D01*
X133820000Y-148758072D01*
X134334250Y-148755000D01*
X134493000Y-148596250D01*
X134493000Y-147447000D01*
X133343750Y-147447000D01*
X133185000Y-147605750D01*
X133181928Y-148120000D01*
X124335613Y-148120000D01*
X124428005Y-147981727D01*
X124533314Y-147727490D01*
X124587000Y-147457592D01*
X124587000Y-147182408D01*
X124533314Y-146912510D01*
X124428005Y-146658273D01*
X124335614Y-146520000D01*
X133181928Y-146520000D01*
X133185000Y-147034250D01*
X133343750Y-147193000D01*
X134493000Y-147193000D01*
X134493000Y-146043750D01*
X134747000Y-146043750D01*
X134747000Y-147193000D01*
X134767000Y-147193000D01*
X134767000Y-147447000D01*
X134747000Y-147447000D01*
X134747000Y-148596250D01*
X134905750Y-148755000D01*
X135420000Y-148758072D01*
X135544482Y-148745812D01*
X135664180Y-148709502D01*
X135774494Y-148650537D01*
X135871185Y-148571185D01*
X135950537Y-148474494D01*
X136009502Y-148364180D01*
X136038661Y-148268057D01*
X136205241Y-148434637D01*
X136440273Y-148591680D01*
X136701426Y-148699853D01*
X136978665Y-148755000D01*
X137261335Y-148755000D01*
X137538574Y-148699853D01*
X137799727Y-148591680D01*
X138034759Y-148434637D01*
X138234637Y-148234759D01*
X138391680Y-147999727D01*
X138499853Y-147738574D01*
X138555000Y-147461335D01*
X138555000Y-147178665D01*
X138499853Y-146901426D01*
X138391680Y-146640273D01*
X138234637Y-146405241D01*
X138034759Y-146205363D01*
X137799727Y-146048320D01*
X137538574Y-145940147D01*
X137261335Y-145885000D01*
X136978665Y-145885000D01*
X136701426Y-145940147D01*
X136440273Y-146048320D01*
X136205241Y-146205363D01*
X136038661Y-146371943D01*
X136009502Y-146275820D01*
X135950537Y-146165506D01*
X135871185Y-146068815D01*
X135774494Y-145989463D01*
X135664180Y-145930498D01*
X135544482Y-145894188D01*
X135420000Y-145881928D01*
X134905750Y-145885000D01*
X134747000Y-146043750D01*
X134493000Y-146043750D01*
X134334250Y-145885000D01*
X133820000Y-145881928D01*
X133695518Y-145894188D01*
X133575820Y-145930498D01*
X133465506Y-145989463D01*
X133368815Y-146068815D01*
X133289463Y-146165506D01*
X133230498Y-146275820D01*
X133194188Y-146395518D01*
X133181928Y-146520000D01*
X124335614Y-146520000D01*
X124275120Y-146429465D01*
X124080535Y-146234880D01*
X123851727Y-146081995D01*
X123774485Y-146050000D01*
X123851727Y-146018005D01*
X124080535Y-145865120D01*
X124275120Y-145670535D01*
X124428005Y-145441727D01*
X124533314Y-145187490D01*
X124587000Y-144917592D01*
X124587000Y-144642408D01*
X124533314Y-144372510D01*
X124428005Y-144118273D01*
X124275120Y-143889465D01*
X124080535Y-143694880D01*
X123851727Y-143541995D01*
X123774485Y-143510000D01*
X123851727Y-143478005D01*
X124080535Y-143325120D01*
X124275120Y-143130535D01*
X124428005Y-142901727D01*
X124533314Y-142647490D01*
X124587000Y-142377592D01*
X124587000Y-142102408D01*
X124533314Y-141832510D01*
X124428005Y-141578273D01*
X124275120Y-141349465D01*
X124080535Y-141154880D01*
X123851727Y-141001995D01*
X123774485Y-140970000D01*
X123851727Y-140938005D01*
X124080535Y-140785120D01*
X124275120Y-140590535D01*
X124428005Y-140361727D01*
X124533314Y-140107490D01*
X124587000Y-139837592D01*
X124587000Y-139562408D01*
X124533314Y-139292510D01*
X124428005Y-139038273D01*
X124275120Y-138809465D01*
X124080535Y-138614880D01*
X123851727Y-138461995D01*
X123774485Y-138430000D01*
X123851727Y-138398005D01*
X124080535Y-138245120D01*
X124275120Y-138050535D01*
X124428005Y-137821727D01*
X124533314Y-137567490D01*
X124587000Y-137297592D01*
X124587000Y-137160000D01*
X128047815Y-137160000D01*
X128076487Y-137451111D01*
X128161401Y-137731034D01*
X128299294Y-137989014D01*
X128484866Y-138215134D01*
X128710986Y-138400706D01*
X128765791Y-138430000D01*
X128710986Y-138459294D01*
X128484866Y-138644866D01*
X128299294Y-138870986D01*
X128161401Y-139128966D01*
X128076487Y-139408889D01*
X128047815Y-139700000D01*
X128076487Y-139991111D01*
X128161401Y-140271034D01*
X128299294Y-140529014D01*
X128484866Y-140755134D01*
X128710986Y-140940706D01*
X128765791Y-140970000D01*
X128710986Y-140999294D01*
X128484866Y-141184866D01*
X128299294Y-141410986D01*
X128161401Y-141668966D01*
X128076487Y-141948889D01*
X128047815Y-142240000D01*
X128076487Y-142531111D01*
X128161401Y-142811034D01*
X128299294Y-143069014D01*
X128484866Y-143295134D01*
X128514687Y-143319607D01*
X128445820Y-143340498D01*
X128335506Y-143399463D01*
X128238815Y-143478815D01*
X128159463Y-143575506D01*
X128100498Y-143685820D01*
X128064188Y-143805518D01*
X128051928Y-143930000D01*
X128051928Y-145630000D01*
X128064188Y-145754482D01*
X128100498Y-145874180D01*
X128159463Y-145984494D01*
X128238815Y-146081185D01*
X128335506Y-146160537D01*
X128445820Y-146219502D01*
X128565518Y-146255812D01*
X128690000Y-146268072D01*
X130390000Y-146268072D01*
X130514482Y-146255812D01*
X130634180Y-146219502D01*
X130744494Y-146160537D01*
X130841185Y-146081185D01*
X130920537Y-145984494D01*
X130979502Y-145874180D01*
X131015812Y-145754482D01*
X131028072Y-145630000D01*
X131028072Y-143930000D01*
X131015812Y-143805518D01*
X130979502Y-143685820D01*
X130920537Y-143575506D01*
X130841185Y-143478815D01*
X130744494Y-143399463D01*
X130634180Y-143340498D01*
X130565313Y-143319607D01*
X130595134Y-143295134D01*
X130780706Y-143069014D01*
X130918599Y-142811034D01*
X131003513Y-142531111D01*
X131032185Y-142240000D01*
X131003513Y-141948889D01*
X130918599Y-141668966D01*
X130780706Y-141410986D01*
X130595134Y-141184866D01*
X130369014Y-140999294D01*
X130314209Y-140970000D01*
X130369014Y-140940706D01*
X130595134Y-140755134D01*
X130780706Y-140529014D01*
X130918599Y-140271034D01*
X131003513Y-139991111D01*
X131032185Y-139700000D01*
X131003513Y-139408889D01*
X130918599Y-139128966D01*
X130780706Y-138870986D01*
X130595134Y-138644866D01*
X130369014Y-138459294D01*
X130314209Y-138430000D01*
X130369014Y-138400706D01*
X130595134Y-138215134D01*
X130780706Y-137989014D01*
X130918599Y-137731034D01*
X131003513Y-137451111D01*
X131032185Y-137160000D01*
X131003513Y-136868889D01*
X130918599Y-136588966D01*
X130780706Y-136330986D01*
X130595134Y-136104866D01*
X130369014Y-135919294D01*
X130111034Y-135781401D01*
X129831111Y-135696487D01*
X129612950Y-135675000D01*
X129467050Y-135675000D01*
X129248889Y-135696487D01*
X128968966Y-135781401D01*
X128710986Y-135919294D01*
X128484866Y-136104866D01*
X128299294Y-136330986D01*
X128161401Y-136588966D01*
X128076487Y-136868889D01*
X128047815Y-137160000D01*
X124587000Y-137160000D01*
X124587000Y-137022408D01*
X124533314Y-136752510D01*
X124428005Y-136498273D01*
X124275120Y-136269465D01*
X124080535Y-136074880D01*
X123992535Y-136016080D01*
X124076482Y-136007812D01*
X124196180Y-135971502D01*
X124306494Y-135912537D01*
X124403185Y-135833185D01*
X124482537Y-135736494D01*
X124541502Y-135626180D01*
X124577812Y-135506482D01*
X124590072Y-135382000D01*
X124590072Y-133858000D01*
X124577812Y-133733518D01*
X124541502Y-133613820D01*
X124482537Y-133503506D01*
X124403185Y-133406815D01*
X124306494Y-133327463D01*
X124196180Y-133268498D01*
X124076482Y-133232188D01*
X123952000Y-133219928D01*
X123927317Y-133219928D01*
X123975960Y-133045565D01*
X123190000Y-132259605D01*
X122404040Y-133045565D01*
X122452683Y-133219928D01*
X122428000Y-133219928D01*
X122303518Y-133232188D01*
X122183820Y-133268498D01*
X122073506Y-133327463D01*
X121976815Y-133406815D01*
X121897463Y-133503506D01*
X121838498Y-133613820D01*
X121802188Y-133733518D01*
X121789928Y-133858000D01*
X121789928Y-135382000D01*
X121802188Y-135506482D01*
X121838498Y-135626180D01*
X121897463Y-135736494D01*
X121976815Y-135833185D01*
X122073506Y-135912537D01*
X122183820Y-135971502D01*
X122303518Y-136007812D01*
X122387465Y-136016080D01*
X122299465Y-136074880D01*
X122104880Y-136269465D01*
X121951995Y-136498273D01*
X121846686Y-136752510D01*
X121793000Y-137022408D01*
X121793000Y-137297592D01*
X121846686Y-137567490D01*
X121951995Y-137821727D01*
X122104880Y-138050535D01*
X122299465Y-138245120D01*
X122528273Y-138398005D01*
X122605515Y-138430000D01*
X122528273Y-138461995D01*
X122299465Y-138614880D01*
X122104880Y-138809465D01*
X121951995Y-139038273D01*
X121846686Y-139292510D01*
X121793000Y-139562408D01*
X121793000Y-139837592D01*
X121846686Y-140107490D01*
X121951995Y-140361727D01*
X122104880Y-140590535D01*
X122299465Y-140785120D01*
X122528273Y-140938005D01*
X122605515Y-140970000D01*
X122528273Y-141001995D01*
X122299465Y-141154880D01*
X122104880Y-141349465D01*
X121951995Y-141578273D01*
X121846686Y-141832510D01*
X121793000Y-142102408D01*
X121793000Y-142377592D01*
X121846686Y-142647490D01*
X121951995Y-142901727D01*
X122104880Y-143130535D01*
X122299465Y-143325120D01*
X122528273Y-143478005D01*
X122605515Y-143510000D01*
X122528273Y-143541995D01*
X122299465Y-143694880D01*
X122104880Y-143889465D01*
X121951995Y-144118273D01*
X121846686Y-144372510D01*
X121793000Y-144642408D01*
X121793000Y-144917592D01*
X121846686Y-145187490D01*
X121951995Y-145441727D01*
X122104880Y-145670535D01*
X122299465Y-145865120D01*
X122528273Y-146018005D01*
X122605515Y-146050000D01*
X122528273Y-146081995D01*
X122299465Y-146234880D01*
X122104880Y-146429465D01*
X121951995Y-146658273D01*
X121846686Y-146912510D01*
X121793000Y-147182408D01*
X121793000Y-147457592D01*
X121846686Y-147727490D01*
X121951995Y-147981727D01*
X122104880Y-148210535D01*
X122299465Y-148405120D01*
X122387465Y-148463920D01*
X122303518Y-148472188D01*
X122183820Y-148508498D01*
X122073506Y-148567463D01*
X121976815Y-148646815D01*
X121897463Y-148743506D01*
X121853903Y-148825000D01*
X116967000Y-148825000D01*
X116967000Y-132152017D01*
X121788090Y-132152017D01*
X121829078Y-132424133D01*
X121922364Y-132683023D01*
X121984344Y-132798980D01*
X122224435Y-132865960D01*
X123010395Y-132080000D01*
X123369605Y-132080000D01*
X124155565Y-132865960D01*
X124395656Y-132798980D01*
X124512756Y-132549952D01*
X124579023Y-132282865D01*
X124591910Y-132007983D01*
X124550922Y-131735867D01*
X124457636Y-131476977D01*
X124395656Y-131361020D01*
X124155565Y-131294040D01*
X123369605Y-132080000D01*
X123010395Y-132080000D01*
X122224435Y-131294040D01*
X121984344Y-131361020D01*
X121867244Y-131610048D01*
X121800977Y-131877135D01*
X121788090Y-132152017D01*
X116967000Y-132152017D01*
X116967000Y-131114435D01*
X122404040Y-131114435D01*
X123190000Y-131900395D01*
X123975960Y-131114435D01*
X123969144Y-131090000D01*
X138351928Y-131090000D01*
X138351928Y-133070000D01*
X138364188Y-133194482D01*
X138400498Y-133314180D01*
X138459463Y-133424494D01*
X138538815Y-133521185D01*
X138635506Y-133600537D01*
X138745820Y-133659502D01*
X138865518Y-133695812D01*
X138990000Y-133708072D01*
X142950000Y-133708072D01*
X143074482Y-133695812D01*
X143194180Y-133659502D01*
X143304494Y-133600537D01*
X143401185Y-133521185D01*
X143480537Y-133424494D01*
X143539502Y-133314180D01*
X143575812Y-133194482D01*
X143588072Y-133070000D01*
X143588072Y-131090000D01*
X143575812Y-130965518D01*
X143539502Y-130845820D01*
X143480537Y-130735506D01*
X143401185Y-130638815D01*
X143304494Y-130559463D01*
X143194180Y-130500498D01*
X143074482Y-130464188D01*
X142950000Y-130451928D01*
X138990000Y-130451928D01*
X138865518Y-130464188D01*
X138745820Y-130500498D01*
X138635506Y-130559463D01*
X138538815Y-130638815D01*
X138459463Y-130735506D01*
X138400498Y-130845820D01*
X138364188Y-130965518D01*
X138351928Y-131090000D01*
X123969144Y-131090000D01*
X123908980Y-130874344D01*
X123659952Y-130757244D01*
X123392865Y-130690977D01*
X123117983Y-130678090D01*
X122845867Y-130719078D01*
X122586977Y-130812364D01*
X122471020Y-130874344D01*
X122404040Y-131114435D01*
X116967000Y-131114435D01*
X116967000Y-127458865D01*
X138399782Y-127458865D01*
X138430095Y-127584528D01*
X138558304Y-127877205D01*
X138741148Y-128139246D01*
X138971601Y-128360581D01*
X139240806Y-128532704D01*
X139538418Y-128649000D01*
X139853000Y-128705000D01*
X140843000Y-128705000D01*
X140843000Y-127207000D01*
X141097000Y-127207000D01*
X141097000Y-128705000D01*
X142087000Y-128705000D01*
X142401582Y-128649000D01*
X142699194Y-128532704D01*
X142968399Y-128360581D01*
X143198852Y-128139246D01*
X143381696Y-127877205D01*
X143509905Y-127584528D01*
X143540218Y-127458865D01*
X143420740Y-127207000D01*
X141097000Y-127207000D01*
X140843000Y-127207000D01*
X138519260Y-127207000D01*
X138399782Y-127458865D01*
X116967000Y-127458865D01*
X116967000Y-126701135D01*
X138399782Y-126701135D01*
X138519260Y-126953000D01*
X140843000Y-126953000D01*
X140843000Y-125455000D01*
X141097000Y-125455000D01*
X141097000Y-126953000D01*
X143420740Y-126953000D01*
X143540218Y-126701135D01*
X143509905Y-126575472D01*
X143381696Y-126282795D01*
X143198852Y-126020754D01*
X142968399Y-125799419D01*
X142699194Y-125627296D01*
X142401582Y-125511000D01*
X142087000Y-125455000D01*
X141097000Y-125455000D01*
X140843000Y-125455000D01*
X139853000Y-125455000D01*
X139538418Y-125511000D01*
X139240806Y-125627296D01*
X138971601Y-125799419D01*
X138741148Y-126020754D01*
X138558304Y-126282795D01*
X138430095Y-126575472D01*
X138399782Y-126701135D01*
X116967000Y-126701135D01*
X116967000Y-108458000D01*
X121789928Y-108458000D01*
X121789928Y-109982000D01*
X121802188Y-110106482D01*
X121838498Y-110226180D01*
X121897463Y-110336494D01*
X121976815Y-110433185D01*
X122073506Y-110512537D01*
X122183820Y-110571502D01*
X122303518Y-110607812D01*
X122387465Y-110616080D01*
X122299465Y-110674880D01*
X122104880Y-110869465D01*
X121951995Y-111098273D01*
X121846686Y-111352510D01*
X121793000Y-111622408D01*
X121793000Y-111897592D01*
X121846686Y-112167490D01*
X121951995Y-112421727D01*
X122104880Y-112650535D01*
X122299465Y-112845120D01*
X122528273Y-112998005D01*
X122605515Y-113030000D01*
X122528273Y-113061995D01*
X122299465Y-113214880D01*
X122104880Y-113409465D01*
X121951995Y-113638273D01*
X121846686Y-113892510D01*
X121793000Y-114162408D01*
X121793000Y-114437592D01*
X121846686Y-114707490D01*
X121951995Y-114961727D01*
X122104880Y-115190535D01*
X122299465Y-115385120D01*
X122528273Y-115538005D01*
X122605515Y-115570000D01*
X122528273Y-115601995D01*
X122299465Y-115754880D01*
X122104880Y-115949465D01*
X121951995Y-116178273D01*
X121846686Y-116432510D01*
X121793000Y-116702408D01*
X121793000Y-116977592D01*
X121846686Y-117247490D01*
X121951995Y-117501727D01*
X122104880Y-117730535D01*
X122299465Y-117925120D01*
X122528273Y-118078005D01*
X122605515Y-118110000D01*
X122528273Y-118141995D01*
X122299465Y-118294880D01*
X122104880Y-118489465D01*
X121951995Y-118718273D01*
X121846686Y-118972510D01*
X121793000Y-119242408D01*
X121793000Y-119517592D01*
X121846686Y-119787490D01*
X121951995Y-120041727D01*
X122104880Y-120270535D01*
X122299465Y-120465120D01*
X122528273Y-120618005D01*
X122605515Y-120650000D01*
X122528273Y-120681995D01*
X122299465Y-120834880D01*
X122104880Y-121029465D01*
X121951995Y-121258273D01*
X121846686Y-121512510D01*
X121793000Y-121782408D01*
X121793000Y-122057592D01*
X121846686Y-122327490D01*
X121951995Y-122581727D01*
X122104880Y-122810535D01*
X122299465Y-123005120D01*
X122387465Y-123063920D01*
X122303518Y-123072188D01*
X122183820Y-123108498D01*
X122073506Y-123167463D01*
X121976815Y-123246815D01*
X121897463Y-123343506D01*
X121838498Y-123453820D01*
X121802188Y-123573518D01*
X121789928Y-123698000D01*
X121789928Y-125222000D01*
X121802188Y-125346482D01*
X121838498Y-125466180D01*
X121897463Y-125576494D01*
X121976815Y-125673185D01*
X122073506Y-125752537D01*
X122183820Y-125811502D01*
X122303518Y-125847812D01*
X122428000Y-125860072D01*
X123952000Y-125860072D01*
X124076482Y-125847812D01*
X124196180Y-125811502D01*
X124306494Y-125752537D01*
X124403185Y-125673185D01*
X124482537Y-125576494D01*
X124541502Y-125466180D01*
X124577812Y-125346482D01*
X124590072Y-125222000D01*
X124590072Y-123698000D01*
X124577812Y-123573518D01*
X124541502Y-123453820D01*
X124482537Y-123343506D01*
X124403185Y-123246815D01*
X124306494Y-123167463D01*
X124196180Y-123108498D01*
X124076482Y-123072188D01*
X123992535Y-123063920D01*
X124080535Y-123005120D01*
X124275120Y-122810535D01*
X124428005Y-122581727D01*
X124533314Y-122327490D01*
X124587000Y-122057592D01*
X124587000Y-121782408D01*
X124533314Y-121512510D01*
X124428005Y-121258273D01*
X124275120Y-121029465D01*
X124080535Y-120834880D01*
X123851727Y-120681995D01*
X123774485Y-120650000D01*
X123851727Y-120618005D01*
X124080535Y-120465120D01*
X124275120Y-120270535D01*
X124428005Y-120041727D01*
X124533314Y-119787490D01*
X124587000Y-119517592D01*
X124587000Y-119242408D01*
X124533314Y-118972510D01*
X124428005Y-118718273D01*
X124275120Y-118489465D01*
X124080535Y-118294880D01*
X123851727Y-118141995D01*
X123774485Y-118110000D01*
X123851727Y-118078005D01*
X124080535Y-117925120D01*
X124275120Y-117730535D01*
X124428005Y-117501727D01*
X124533314Y-117247490D01*
X124587000Y-116977592D01*
X124587000Y-116702408D01*
X124533314Y-116432510D01*
X124428005Y-116178273D01*
X124275120Y-115949465D01*
X124080535Y-115754880D01*
X123851727Y-115601995D01*
X123774485Y-115570000D01*
X123851727Y-115538005D01*
X124080535Y-115385120D01*
X124275120Y-115190535D01*
X124428005Y-114961727D01*
X124533314Y-114707490D01*
X124587000Y-114437592D01*
X124587000Y-114162408D01*
X124533314Y-113892510D01*
X124428005Y-113638273D01*
X124275120Y-113409465D01*
X124080535Y-113214880D01*
X123851727Y-113061995D01*
X123774485Y-113030000D01*
X123851727Y-112998005D01*
X124080535Y-112845120D01*
X124275120Y-112650535D01*
X124428005Y-112421727D01*
X124533314Y-112167490D01*
X124587000Y-111897592D01*
X124587000Y-111760000D01*
X128047815Y-111760000D01*
X128076487Y-112051111D01*
X128161401Y-112331034D01*
X128299294Y-112589014D01*
X128484866Y-112815134D01*
X128710986Y-113000706D01*
X128765791Y-113030000D01*
X128710986Y-113059294D01*
X128484866Y-113244866D01*
X128299294Y-113470986D01*
X128161401Y-113728966D01*
X128076487Y-114008889D01*
X128047815Y-114300000D01*
X128076487Y-114591111D01*
X128161401Y-114871034D01*
X128299294Y-115129014D01*
X128484866Y-115355134D01*
X128710986Y-115540706D01*
X128765791Y-115570000D01*
X128710986Y-115599294D01*
X128484866Y-115784866D01*
X128299294Y-116010986D01*
X128161401Y-116268966D01*
X128076487Y-116548889D01*
X128047815Y-116840000D01*
X128076487Y-117131111D01*
X128161401Y-117411034D01*
X128299294Y-117669014D01*
X128484866Y-117895134D01*
X128514687Y-117919607D01*
X128445820Y-117940498D01*
X128335506Y-117999463D01*
X128238815Y-118078815D01*
X128159463Y-118175506D01*
X128100498Y-118285820D01*
X128064188Y-118405518D01*
X128051928Y-118530000D01*
X128051928Y-120230000D01*
X128064188Y-120354482D01*
X128100498Y-120474180D01*
X128159463Y-120584494D01*
X128238815Y-120681185D01*
X128335506Y-120760537D01*
X128445820Y-120819502D01*
X128565518Y-120855812D01*
X128690000Y-120868072D01*
X130390000Y-120868072D01*
X130514482Y-120855812D01*
X130634180Y-120819502D01*
X130744494Y-120760537D01*
X130841185Y-120681185D01*
X130920537Y-120584494D01*
X130979502Y-120474180D01*
X131015812Y-120354482D01*
X131028072Y-120230000D01*
X131028072Y-118530000D01*
X131015812Y-118405518D01*
X130979502Y-118285820D01*
X130920537Y-118175506D01*
X130841185Y-118078815D01*
X130744494Y-117999463D01*
X130634180Y-117940498D01*
X130565313Y-117919607D01*
X130595134Y-117895134D01*
X130780706Y-117669014D01*
X130918599Y-117411034D01*
X131003513Y-117131111D01*
X131032185Y-116840000D01*
X131003513Y-116548889D01*
X130918599Y-116268966D01*
X130780706Y-116010986D01*
X130595134Y-115784866D01*
X130369014Y-115599294D01*
X130314209Y-115570000D01*
X130369014Y-115540706D01*
X130595134Y-115355134D01*
X130780706Y-115129014D01*
X130918599Y-114871034D01*
X131003513Y-114591111D01*
X131032185Y-114300000D01*
X131003513Y-114008889D01*
X130918599Y-113728966D01*
X130780706Y-113470986D01*
X130595134Y-113244866D01*
X130369014Y-113059294D01*
X130314209Y-113030000D01*
X130369014Y-113000706D01*
X130595134Y-112815134D01*
X130780706Y-112589014D01*
X130918599Y-112331034D01*
X131003513Y-112051111D01*
X131032185Y-111760000D01*
X131003513Y-111468889D01*
X130918599Y-111188966D01*
X130780706Y-110930986D01*
X130595134Y-110704866D01*
X130369014Y-110519294D01*
X130111034Y-110381401D01*
X129831111Y-110296487D01*
X129612950Y-110275000D01*
X129467050Y-110275000D01*
X129248889Y-110296487D01*
X128968966Y-110381401D01*
X128710986Y-110519294D01*
X128484866Y-110704866D01*
X128299294Y-110930986D01*
X128161401Y-111188966D01*
X128076487Y-111468889D01*
X128047815Y-111760000D01*
X124587000Y-111760000D01*
X124587000Y-111622408D01*
X124533314Y-111352510D01*
X124428005Y-111098273D01*
X124275120Y-110869465D01*
X124080535Y-110674880D01*
X123992535Y-110616080D01*
X124076482Y-110607812D01*
X124196180Y-110571502D01*
X124306494Y-110512537D01*
X124403185Y-110433185D01*
X124482537Y-110336494D01*
X124541502Y-110226180D01*
X124577812Y-110106482D01*
X124590072Y-109982000D01*
X124590072Y-108750000D01*
X133181928Y-108750000D01*
X133194188Y-108874482D01*
X133230498Y-108994180D01*
X133289463Y-109104494D01*
X133368815Y-109201185D01*
X133465506Y-109280537D01*
X133575820Y-109339502D01*
X133695518Y-109375812D01*
X133820000Y-109388072D01*
X134334250Y-109385000D01*
X134493000Y-109226250D01*
X134493000Y-108077000D01*
X133343750Y-108077000D01*
X133185000Y-108235750D01*
X133181928Y-108750000D01*
X124590072Y-108750000D01*
X124590072Y-108458000D01*
X124577812Y-108333518D01*
X124541502Y-108213820D01*
X124482537Y-108103506D01*
X124403185Y-108006815D01*
X124306494Y-107927463D01*
X124196180Y-107868498D01*
X124076482Y-107832188D01*
X123952000Y-107819928D01*
X123927317Y-107819928D01*
X123975960Y-107645565D01*
X123190000Y-106859605D01*
X122404040Y-107645565D01*
X122452683Y-107819928D01*
X122428000Y-107819928D01*
X122303518Y-107832188D01*
X122183820Y-107868498D01*
X122073506Y-107927463D01*
X121976815Y-108006815D01*
X121897463Y-108103506D01*
X121838498Y-108213820D01*
X121802188Y-108333518D01*
X121789928Y-108458000D01*
X116967000Y-108458000D01*
X116967000Y-106752017D01*
X121788090Y-106752017D01*
X121829078Y-107024133D01*
X121922364Y-107283023D01*
X121984344Y-107398980D01*
X122224435Y-107465960D01*
X123010395Y-106680000D01*
X123369605Y-106680000D01*
X124155565Y-107465960D01*
X124395656Y-107398980D01*
X124512733Y-107150000D01*
X133181928Y-107150000D01*
X133185000Y-107664250D01*
X133343750Y-107823000D01*
X134493000Y-107823000D01*
X134493000Y-106673750D01*
X134747000Y-106673750D01*
X134747000Y-107823000D01*
X134767000Y-107823000D01*
X134767000Y-108077000D01*
X134747000Y-108077000D01*
X134747000Y-109226250D01*
X134905750Y-109385000D01*
X135420000Y-109388072D01*
X135544482Y-109375812D01*
X135664180Y-109339502D01*
X135774494Y-109280537D01*
X135871185Y-109201185D01*
X135950537Y-109104494D01*
X136009502Y-108994180D01*
X136038661Y-108898057D01*
X136205241Y-109064637D01*
X136440273Y-109221680D01*
X136701426Y-109329853D01*
X136978665Y-109385000D01*
X137261335Y-109385000D01*
X137538574Y-109329853D01*
X137799727Y-109221680D01*
X138034759Y-109064637D01*
X138234637Y-108864759D01*
X138391680Y-108629727D01*
X138499853Y-108368574D01*
X138555000Y-108091335D01*
X138555000Y-107808665D01*
X138499853Y-107531426D01*
X138391680Y-107270273D01*
X138234637Y-107035241D01*
X138034759Y-106835363D01*
X137799727Y-106678320D01*
X137538574Y-106570147D01*
X137261335Y-106515000D01*
X136978665Y-106515000D01*
X136701426Y-106570147D01*
X136440273Y-106678320D01*
X136205241Y-106835363D01*
X136038661Y-107001943D01*
X136009502Y-106905820D01*
X135950537Y-106795506D01*
X135871185Y-106698815D01*
X135774494Y-106619463D01*
X135664180Y-106560498D01*
X135544482Y-106524188D01*
X135420000Y-106511928D01*
X134905750Y-106515000D01*
X134747000Y-106673750D01*
X134493000Y-106673750D01*
X134334250Y-106515000D01*
X133820000Y-106511928D01*
X133695518Y-106524188D01*
X133575820Y-106560498D01*
X133465506Y-106619463D01*
X133368815Y-106698815D01*
X133289463Y-106795506D01*
X133230498Y-106905820D01*
X133194188Y-107025518D01*
X133181928Y-107150000D01*
X124512733Y-107150000D01*
X124512756Y-107149952D01*
X124579023Y-106882865D01*
X124591910Y-106607983D01*
X124550922Y-106335867D01*
X124457636Y-106076977D01*
X124395656Y-105961020D01*
X124155565Y-105894040D01*
X123369605Y-106680000D01*
X123010395Y-106680000D01*
X122224435Y-105894040D01*
X121984344Y-105961020D01*
X121867244Y-106210048D01*
X121800977Y-106477135D01*
X121788090Y-106752017D01*
X116967000Y-106752017D01*
X116967000Y-105714435D01*
X122404040Y-105714435D01*
X123190000Y-106500395D01*
X123975960Y-105714435D01*
X123908980Y-105474344D01*
X123659952Y-105357244D01*
X123392865Y-105290977D01*
X123117983Y-105278090D01*
X122845867Y-105319078D01*
X122586977Y-105412364D01*
X122471020Y-105474344D01*
X122404040Y-105714435D01*
X116967000Y-105714435D01*
X116967000Y-103530000D01*
X147930001Y-103530000D01*
X147930000Y-151740000D01*
G36*
X78924880Y-112650535D02*
G01*
X79119465Y-112845120D01*
X79348273Y-112998005D01*
X79425515Y-113030000D01*
X79348273Y-113061995D01*
X79119465Y-113214880D01*
X78924880Y-113409465D01*
X78771995Y-113638273D01*
X78666686Y-113892510D01*
X78613000Y-114162408D01*
X78613000Y-114437592D01*
X78666686Y-114707490D01*
X78771995Y-114961727D01*
X78924880Y-115190535D01*
X79119465Y-115385120D01*
X79348273Y-115538005D01*
X79425515Y-115570000D01*
X79348273Y-115601995D01*
X79119465Y-115754880D01*
X78924880Y-115949465D01*
X78771995Y-116178273D01*
X78666686Y-116432510D01*
X78613000Y-116702408D01*
X78613000Y-116977592D01*
X78666686Y-117247490D01*
X78771995Y-117501727D01*
X78924880Y-117730535D01*
X79119465Y-117925120D01*
X79348273Y-118078005D01*
X79425515Y-118110000D01*
X79348273Y-118141995D01*
X79119465Y-118294880D01*
X78924880Y-118489465D01*
X78771995Y-118718273D01*
X78666686Y-118972510D01*
X78613000Y-119242408D01*
X78613000Y-119517592D01*
X78666686Y-119787490D01*
X78771995Y-120041727D01*
X78924880Y-120270535D01*
X79119465Y-120465120D01*
X79348273Y-120618005D01*
X79425515Y-120650000D01*
X79348273Y-120681995D01*
X79119465Y-120834880D01*
X78924880Y-121029465D01*
X78771995Y-121258273D01*
X78666686Y-121512510D01*
X78613000Y-121782408D01*
X78613000Y-122057592D01*
X78643628Y-122211571D01*
X78411997Y-122443202D01*
X78382999Y-122467000D01*
X78359201Y-122495998D01*
X78359200Y-122495999D01*
X78288025Y-122582725D01*
X78217453Y-122714755D01*
X78173997Y-122858016D01*
X78159323Y-123007001D01*
X78163000Y-123044333D01*
X78162999Y-124944438D01*
X78159323Y-124981761D01*
X78162999Y-125019083D01*
X78162999Y-125019093D01*
X78173996Y-125130746D01*
X78202186Y-125223676D01*
X78217453Y-125274007D01*
X78288025Y-125406037D01*
X78327870Y-125454587D01*
X78382998Y-125521762D01*
X78412001Y-125545564D01*
X78924439Y-126058003D01*
X78947835Y-126086510D01*
X78924880Y-126109465D01*
X78771995Y-126338273D01*
X78666686Y-126592510D01*
X78613000Y-126862408D01*
X78613000Y-127137592D01*
X78666686Y-127407490D01*
X78771995Y-127661727D01*
X78924880Y-127890535D01*
X79119465Y-128085120D01*
X79348273Y-128238005D01*
X79425515Y-128270000D01*
X79348273Y-128301995D01*
X79119465Y-128454880D01*
X78924880Y-128649465D01*
X78771995Y-128878273D01*
X78666686Y-129132510D01*
X78613000Y-129402408D01*
X78613000Y-129677592D01*
X78666686Y-129947490D01*
X78771995Y-130201727D01*
X78924880Y-130430535D01*
X79119465Y-130625120D01*
X79348273Y-130778005D01*
X79425515Y-130810000D01*
X79348273Y-130841995D01*
X79119465Y-130994880D01*
X78924880Y-131189465D01*
X78771995Y-131418273D01*
X78666686Y-131672510D01*
X78613000Y-131942408D01*
X78613000Y-132217592D01*
X78666686Y-132487490D01*
X78771995Y-132741727D01*
X78924880Y-132970535D01*
X79119465Y-133165120D01*
X79348273Y-133318005D01*
X79425515Y-133350000D01*
X79348273Y-133381995D01*
X79119465Y-133534880D01*
X78924880Y-133729465D01*
X78771995Y-133958273D01*
X78666686Y-134212510D01*
X78613000Y-134482408D01*
X78613000Y-134757592D01*
X78666686Y-135027490D01*
X78771995Y-135281727D01*
X78924880Y-135510535D01*
X79119465Y-135705120D01*
X79348273Y-135858005D01*
X79425515Y-135890000D01*
X79348273Y-135921995D01*
X79119465Y-136074880D01*
X78924880Y-136269465D01*
X78771995Y-136498273D01*
X78666686Y-136752510D01*
X78613000Y-137022408D01*
X78613000Y-137297592D01*
X78666686Y-137567490D01*
X78771995Y-137821727D01*
X78924880Y-138050535D01*
X79119465Y-138245120D01*
X79348273Y-138398005D01*
X79425515Y-138430000D01*
X79348273Y-138461995D01*
X79119465Y-138614880D01*
X78924880Y-138809465D01*
X78771995Y-139038273D01*
X78666686Y-139292510D01*
X78613000Y-139562408D01*
X78613000Y-139837592D01*
X78666686Y-140107490D01*
X78771995Y-140361727D01*
X78924880Y-140590535D01*
X79119465Y-140785120D01*
X79348273Y-140938005D01*
X79425515Y-140970000D01*
X79348273Y-141001995D01*
X79119465Y-141154880D01*
X78924880Y-141349465D01*
X78771995Y-141578273D01*
X78666686Y-141832510D01*
X78613000Y-142102408D01*
X78613000Y-142377592D01*
X78666686Y-142647490D01*
X78771995Y-142901727D01*
X78924880Y-143130535D01*
X79119465Y-143325120D01*
X79348273Y-143478005D01*
X79425515Y-143510000D01*
X79348273Y-143541995D01*
X79119465Y-143694880D01*
X78924880Y-143889465D01*
X78771995Y-144118273D01*
X78666686Y-144372510D01*
X78613000Y-144642408D01*
X78613000Y-144917592D01*
X78666686Y-145187490D01*
X78771995Y-145441727D01*
X78924880Y-145670535D01*
X79119465Y-145865120D01*
X79348273Y-146018005D01*
X79419943Y-146047692D01*
X79406977Y-146052364D01*
X79291020Y-146114344D01*
X79224040Y-146354435D01*
X80010000Y-147140395D01*
X80795960Y-146354435D01*
X80728980Y-146114344D01*
X80593240Y-146050515D01*
X80671727Y-146018005D01*
X80900535Y-145865120D01*
X81095120Y-145670535D01*
X81248005Y-145441727D01*
X81353314Y-145187490D01*
X81407000Y-144917592D01*
X81407000Y-144642408D01*
X81353314Y-144372510D01*
X81248005Y-144118273D01*
X81095120Y-143889465D01*
X80900535Y-143694880D01*
X80671727Y-143541995D01*
X80594485Y-143510000D01*
X80671727Y-143478005D01*
X80900535Y-143325120D01*
X81095120Y-143130535D01*
X81248005Y-142901727D01*
X81353314Y-142647490D01*
X81407000Y-142377592D01*
X81407000Y-142240000D01*
X93757815Y-142240000D01*
X93786487Y-142531111D01*
X93871401Y-142811034D01*
X94009294Y-143069014D01*
X94194866Y-143295134D01*
X94420986Y-143480706D01*
X94475791Y-143510000D01*
X94420986Y-143539294D01*
X94194866Y-143724866D01*
X94009294Y-143950986D01*
X93871401Y-144208966D01*
X93786487Y-144488889D01*
X93757815Y-144780000D01*
X93786487Y-145071111D01*
X93871401Y-145351034D01*
X94009294Y-145609014D01*
X94194866Y-145835134D01*
X94420986Y-146020706D01*
X94475791Y-146050000D01*
X94420986Y-146079294D01*
X94194866Y-146264866D01*
X94009294Y-146490986D01*
X93871401Y-146748966D01*
X93786487Y-147028889D01*
X93757815Y-147320000D01*
X93786487Y-147611111D01*
X93871401Y-147891034D01*
X94009294Y-148149014D01*
X94194866Y-148375134D01*
X94420986Y-148560706D01*
X94678966Y-148698599D01*
X94958889Y-148783513D01*
X95177050Y-148805000D01*
X95322950Y-148805000D01*
X95541111Y-148783513D01*
X95821034Y-148698599D01*
X96079014Y-148560706D01*
X96305134Y-148375134D01*
X96490706Y-148149014D01*
X96628599Y-147891034D01*
X96693559Y-147676890D01*
X97618524Y-147676890D01*
X97663175Y-147824099D01*
X97788359Y-148086920D01*
X97962412Y-148320269D01*
X98178645Y-148515178D01*
X98428748Y-148664157D01*
X98703109Y-148761481D01*
X98933000Y-148640814D01*
X98933000Y-147447000D01*
X99187000Y-147447000D01*
X99187000Y-148640814D01*
X99416891Y-148761481D01*
X99691252Y-148664157D01*
X99941355Y-148515178D01*
X100157588Y-148320269D01*
X100331641Y-148086920D01*
X100456825Y-147824099D01*
X100501476Y-147676890D01*
X100380155Y-147447000D01*
X99187000Y-147447000D01*
X98933000Y-147447000D01*
X97739845Y-147447000D01*
X97618524Y-147676890D01*
X96693559Y-147676890D01*
X96713513Y-147611111D01*
X96742185Y-147320000D01*
X96713513Y-147028889D01*
X96628599Y-146748966D01*
X96490706Y-146490986D01*
X96305134Y-146264866D01*
X96079014Y-146079294D01*
X96024209Y-146050000D01*
X96079014Y-146020706D01*
X96305134Y-145835134D01*
X96490706Y-145609014D01*
X96628599Y-145351034D01*
X96693559Y-145136890D01*
X97618524Y-145136890D01*
X97663175Y-145284099D01*
X97788359Y-145546920D01*
X97962412Y-145780269D01*
X98178645Y-145975178D01*
X98304255Y-146050000D01*
X98178645Y-146124822D01*
X97962412Y-146319731D01*
X97788359Y-146553080D01*
X97663175Y-146815901D01*
X97618524Y-146963110D01*
X97739845Y-147193000D01*
X98933000Y-147193000D01*
X98933000Y-144907000D01*
X99187000Y-144907000D01*
X99187000Y-147193000D01*
X100380155Y-147193000D01*
X100501476Y-146963110D01*
X100456825Y-146815901D01*
X100331641Y-146553080D01*
X100157588Y-146319731D01*
X99941355Y-146124822D01*
X99815745Y-146050000D01*
X99941355Y-145975178D01*
X100157588Y-145780269D01*
X100331641Y-145546920D01*
X100456825Y-145284099D01*
X100501476Y-145136890D01*
X100380155Y-144907000D01*
X99187000Y-144907000D01*
X98933000Y-144907000D01*
X97739845Y-144907000D01*
X97618524Y-145136890D01*
X96693559Y-145136890D01*
X96713513Y-145071111D01*
X96742185Y-144780000D01*
X96713513Y-144488889D01*
X96628599Y-144208966D01*
X96490706Y-143950986D01*
X96305134Y-143724866D01*
X96079014Y-143539294D01*
X96024209Y-143510000D01*
X96079014Y-143480706D01*
X96305134Y-143295134D01*
X96490706Y-143069014D01*
X96628599Y-142811034D01*
X96693559Y-142596890D01*
X97618524Y-142596890D01*
X97663175Y-142744099D01*
X97788359Y-143006920D01*
X97962412Y-143240269D01*
X98178645Y-143435178D01*
X98304255Y-143510000D01*
X98178645Y-143584822D01*
X97962412Y-143779731D01*
X97788359Y-144013080D01*
X97663175Y-144275901D01*
X97618524Y-144423110D01*
X97739845Y-144653000D01*
X98933000Y-144653000D01*
X98933000Y-142367000D01*
X99187000Y-142367000D01*
X99187000Y-144653000D01*
X100380155Y-144653000D01*
X100501476Y-144423110D01*
X100456825Y-144275901D01*
X100331641Y-144013080D01*
X100157588Y-143779731D01*
X99941355Y-143584822D01*
X99815745Y-143510000D01*
X99941355Y-143435178D01*
X100157588Y-143240269D01*
X100331641Y-143006920D01*
X100456825Y-142744099D01*
X100501476Y-142596890D01*
X100380155Y-142367000D01*
X99187000Y-142367000D01*
X98933000Y-142367000D01*
X97739845Y-142367000D01*
X97618524Y-142596890D01*
X96693559Y-142596890D01*
X96713513Y-142531111D01*
X96742185Y-142240000D01*
X96713513Y-141948889D01*
X96628599Y-141668966D01*
X96490706Y-141410986D01*
X96305134Y-141184866D01*
X96275313Y-141160393D01*
X96344180Y-141139502D01*
X96454494Y-141080537D01*
X96551185Y-141001185D01*
X96630537Y-140904494D01*
X96689502Y-140794180D01*
X96725812Y-140674482D01*
X96738072Y-140550000D01*
X97571928Y-140550000D01*
X97584188Y-140674482D01*
X97620498Y-140794180D01*
X97679463Y-140904494D01*
X97758815Y-141001185D01*
X97855506Y-141080537D01*
X97965820Y-141139502D01*
X98046466Y-141163966D01*
X97962412Y-141239731D01*
X97788359Y-141473080D01*
X97663175Y-141735901D01*
X97618524Y-141883110D01*
X97739845Y-142113000D01*
X98933000Y-142113000D01*
X98933000Y-139827000D01*
X99187000Y-139827000D01*
X99187000Y-142113000D01*
X100380155Y-142113000D01*
X100501476Y-141883110D01*
X100456825Y-141735901D01*
X100331641Y-141473080D01*
X100157588Y-141239731D01*
X100073534Y-141163966D01*
X100154180Y-141139502D01*
X100264494Y-141080537D01*
X100361185Y-141001185D01*
X100440537Y-140904494D01*
X100499502Y-140794180D01*
X100535812Y-140674482D01*
X100548072Y-140550000D01*
X100545000Y-139985750D01*
X100386250Y-139827000D01*
X99187000Y-139827000D01*
X98933000Y-139827000D01*
X97733750Y-139827000D01*
X97575000Y-139985750D01*
X97571928Y-140550000D01*
X96738072Y-140550000D01*
X96738072Y-138850000D01*
X97571928Y-138850000D01*
X97575000Y-139414250D01*
X97733750Y-139573000D01*
X98933000Y-139573000D01*
X98933000Y-138373750D01*
X99187000Y-138373750D01*
X99187000Y-139573000D01*
X100386250Y-139573000D01*
X100545000Y-139414250D01*
X100548072Y-138850000D01*
X100535812Y-138725518D01*
X100499502Y-138605820D01*
X100440537Y-138495506D01*
X100361185Y-138398815D01*
X100264494Y-138319463D01*
X100154180Y-138260498D01*
X100034482Y-138224188D01*
X99910000Y-138211928D01*
X99345750Y-138215000D01*
X99187000Y-138373750D01*
X98933000Y-138373750D01*
X98774250Y-138215000D01*
X98210000Y-138211928D01*
X98085518Y-138224188D01*
X97965820Y-138260498D01*
X97855506Y-138319463D01*
X97758815Y-138398815D01*
X97679463Y-138495506D01*
X97620498Y-138605820D01*
X97584188Y-138725518D01*
X97571928Y-138850000D01*
X96738072Y-138850000D01*
X96725812Y-138725518D01*
X96689502Y-138605820D01*
X96630537Y-138495506D01*
X96551185Y-138398815D01*
X96454494Y-138319463D01*
X96344180Y-138260498D01*
X96224482Y-138224188D01*
X96100000Y-138211928D01*
X94400000Y-138211928D01*
X94275518Y-138224188D01*
X94155820Y-138260498D01*
X94045506Y-138319463D01*
X93948815Y-138398815D01*
X93869463Y-138495506D01*
X93810498Y-138605820D01*
X93774188Y-138725518D01*
X93761928Y-138850000D01*
X93761928Y-140550000D01*
X93774188Y-140674482D01*
X93810498Y-140794180D01*
X93869463Y-140904494D01*
X93948815Y-141001185D01*
X94045506Y-141080537D01*
X94155820Y-141139502D01*
X94224687Y-141160393D01*
X94194866Y-141184866D01*
X94009294Y-141410986D01*
X93871401Y-141668966D01*
X93786487Y-141948889D01*
X93757815Y-142240000D01*
X81407000Y-142240000D01*
X81407000Y-142102408D01*
X81376372Y-141948429D01*
X86871003Y-136453799D01*
X86900001Y-136430001D01*
X86926332Y-136397917D01*
X86994974Y-136314277D01*
X87065546Y-136182247D01*
X87088046Y-136108072D01*
X87210000Y-136108072D01*
X87334482Y-136095812D01*
X87454180Y-136059502D01*
X87564494Y-136000537D01*
X87661185Y-135921185D01*
X87740537Y-135824494D01*
X87799502Y-135714180D01*
X87835812Y-135594482D01*
X87848072Y-135470000D01*
X87848072Y-133770000D01*
X87835812Y-133645518D01*
X87799502Y-133525820D01*
X87740537Y-133415506D01*
X87661185Y-133318815D01*
X87564494Y-133239463D01*
X87454180Y-133180498D01*
X87385313Y-133159607D01*
X87415134Y-133135134D01*
X87600706Y-132909014D01*
X87738599Y-132651034D01*
X87823513Y-132371111D01*
X87852185Y-132080000D01*
X87823513Y-131788889D01*
X87738599Y-131508966D01*
X87600706Y-131250986D01*
X87415134Y-131024866D01*
X87189014Y-130839294D01*
X87134209Y-130810000D01*
X87189014Y-130780706D01*
X87415134Y-130595134D01*
X87600706Y-130369014D01*
X87738599Y-130111034D01*
X87823513Y-129831111D01*
X87852185Y-129540000D01*
X87823513Y-129248889D01*
X87738599Y-128968966D01*
X87600706Y-128710986D01*
X87415134Y-128484866D01*
X87189014Y-128299294D01*
X87134209Y-128270000D01*
X87189014Y-128240706D01*
X87415134Y-128055134D01*
X87600706Y-127829014D01*
X87738599Y-127571034D01*
X87823513Y-127291111D01*
X87852185Y-127000000D01*
X87823513Y-126708889D01*
X87785931Y-126584999D01*
X89149200Y-126584999D01*
X99671201Y-137107001D01*
X99695000Y-137136000D01*
X99810725Y-137230973D01*
X99942754Y-137301545D01*
X100086015Y-137345002D01*
X100197668Y-137355999D01*
X100197677Y-137355999D01*
X100235000Y-137359675D01*
X100272323Y-137355999D01*
X100975198Y-137355999D01*
X101473000Y-137853801D01*
X101473000Y-138526306D01*
X101430498Y-138605820D01*
X101394188Y-138725518D01*
X101381928Y-138850000D01*
X101381928Y-140550000D01*
X101394188Y-140674482D01*
X101430498Y-140794180D01*
X101473000Y-140873694D01*
X101473000Y-141729626D01*
X101406487Y-141948889D01*
X101377815Y-142240000D01*
X101406487Y-142531111D01*
X101473000Y-142750374D01*
X101473000Y-144269626D01*
X101406487Y-144488889D01*
X101377815Y-144780000D01*
X101406487Y-145071111D01*
X101473000Y-145290374D01*
X101473000Y-146809626D01*
X101406487Y-147028889D01*
X101377815Y-147320000D01*
X101406487Y-147611111D01*
X101473000Y-147830374D01*
X101473000Y-151740000D01*
X76327000Y-151740000D01*
X76327000Y-149390000D01*
X84921928Y-149390000D01*
X84934188Y-149514482D01*
X84970498Y-149634180D01*
X85029463Y-149744494D01*
X85108815Y-149841185D01*
X85205506Y-149920537D01*
X85315820Y-149979502D01*
X85435518Y-150015812D01*
X85560000Y-150028072D01*
X86074250Y-150025000D01*
X86233000Y-149866250D01*
X86233000Y-148717000D01*
X85083750Y-148717000D01*
X84925000Y-148875750D01*
X84921928Y-149390000D01*
X76327000Y-149390000D01*
X76327000Y-148285565D01*
X79224040Y-148285565D01*
X79291020Y-148525656D01*
X79540048Y-148642756D01*
X79807135Y-148709023D01*
X80082017Y-148721910D01*
X80354133Y-148680922D01*
X80613023Y-148587636D01*
X80728980Y-148525656D01*
X80795960Y-148285565D01*
X80010000Y-147499605D01*
X79224040Y-148285565D01*
X76327000Y-148285565D01*
X76327000Y-147392017D01*
X78608090Y-147392017D01*
X78649078Y-147664133D01*
X78742364Y-147923023D01*
X78804344Y-148038980D01*
X79044435Y-148105960D01*
X79830395Y-147320000D01*
X80189605Y-147320000D01*
X80975565Y-148105960D01*
X81215656Y-148038980D01*
X81332733Y-147790000D01*
X84921928Y-147790000D01*
X84925000Y-148304250D01*
X85083750Y-148463000D01*
X86233000Y-148463000D01*
X86233000Y-147313750D01*
X86487000Y-147313750D01*
X86487000Y-148463000D01*
X86507000Y-148463000D01*
X86507000Y-148717000D01*
X86487000Y-148717000D01*
X86487000Y-149866250D01*
X86645750Y-150025000D01*
X87160000Y-150028072D01*
X87284482Y-150015812D01*
X87404180Y-149979502D01*
X87514494Y-149920537D01*
X87611185Y-149841185D01*
X87690537Y-149744494D01*
X87749502Y-149634180D01*
X87778661Y-149538057D01*
X87945241Y-149704637D01*
X88180273Y-149861680D01*
X88441426Y-149969853D01*
X88718665Y-150025000D01*
X89001335Y-150025000D01*
X89278574Y-149969853D01*
X89539727Y-149861680D01*
X89774759Y-149704637D01*
X89974637Y-149504759D01*
X90131680Y-149269727D01*
X90239853Y-149008574D01*
X90295000Y-148731335D01*
X90295000Y-148448665D01*
X90239853Y-148171426D01*
X90131680Y-147910273D01*
X89974637Y-147675241D01*
X89774759Y-147475363D01*
X89539727Y-147318320D01*
X89278574Y-147210147D01*
X89001335Y-147155000D01*
X88718665Y-147155000D01*
X88441426Y-147210147D01*
X88180273Y-147318320D01*
X87945241Y-147475363D01*
X87778661Y-147641943D01*
X87749502Y-147545820D01*
X87690537Y-147435506D01*
X87611185Y-147338815D01*
X87514494Y-147259463D01*
X87404180Y-147200498D01*
X87284482Y-147164188D01*
X87160000Y-147151928D01*
X86645750Y-147155000D01*
X86487000Y-147313750D01*
X86233000Y-147313750D01*
X86074250Y-147155000D01*
X85560000Y-147151928D01*
X85435518Y-147164188D01*
X85315820Y-147200498D01*
X85205506Y-147259463D01*
X85108815Y-147338815D01*
X85029463Y-147435506D01*
X84970498Y-147545820D01*
X84934188Y-147665518D01*
X84921928Y-147790000D01*
X81332733Y-147790000D01*
X81332756Y-147789952D01*
X81399023Y-147522865D01*
X81411910Y-147247983D01*
X81370922Y-146975867D01*
X81277636Y-146716977D01*
X81215656Y-146601020D01*
X80975565Y-146534040D01*
X80189605Y-147320000D01*
X79830395Y-147320000D01*
X79044435Y-146534040D01*
X78804344Y-146601020D01*
X78687244Y-146850048D01*
X78620977Y-147117135D01*
X78608090Y-147392017D01*
X76327000Y-147392017D01*
X76327000Y-114909040D01*
X78788945Y-112447095D01*
X78924880Y-112650535D01*
X78924880Y-112650535D01*
G37*
X78924880Y-112650535D02*
X79119465Y-112845120D01*
X79348273Y-112998005D01*
X79425515Y-113030000D01*
X79348273Y-113061995D01*
X79119465Y-113214880D01*
X78924880Y-113409465D01*
X78771995Y-113638273D01*
X78666686Y-113892510D01*
X78613000Y-114162408D01*
X78613000Y-114437592D01*
X78666686Y-114707490D01*
X78771995Y-114961727D01*
X78924880Y-115190535D01*
X79119465Y-115385120D01*
X79348273Y-115538005D01*
X79425515Y-115570000D01*
X79348273Y-115601995D01*
X79119465Y-115754880D01*
X78924880Y-115949465D01*
X78771995Y-116178273D01*
X78666686Y-116432510D01*
X78613000Y-116702408D01*
X78613000Y-116977592D01*
X78666686Y-117247490D01*
X78771995Y-117501727D01*
X78924880Y-117730535D01*
X79119465Y-117925120D01*
X79348273Y-118078005D01*
X79425515Y-118110000D01*
X79348273Y-118141995D01*
X79119465Y-118294880D01*
X78924880Y-118489465D01*
X78771995Y-118718273D01*
X78666686Y-118972510D01*
X78613000Y-119242408D01*
X78613000Y-119517592D01*
X78666686Y-119787490D01*
X78771995Y-120041727D01*
X78924880Y-120270535D01*
X79119465Y-120465120D01*
X79348273Y-120618005D01*
X79425515Y-120650000D01*
X79348273Y-120681995D01*
X79119465Y-120834880D01*
X78924880Y-121029465D01*
X78771995Y-121258273D01*
X78666686Y-121512510D01*
X78613000Y-121782408D01*
X78613000Y-122057592D01*
X78643628Y-122211571D01*
X78411997Y-122443202D01*
X78382999Y-122467000D01*
X78359201Y-122495998D01*
X78359200Y-122495999D01*
X78288025Y-122582725D01*
X78217453Y-122714755D01*
X78173997Y-122858016D01*
X78159323Y-123007001D01*
X78163000Y-123044333D01*
X78162999Y-124944438D01*
X78159323Y-124981761D01*
X78162999Y-125019083D01*
X78162999Y-125019093D01*
X78173996Y-125130746D01*
X78202186Y-125223676D01*
X78217453Y-125274007D01*
X78288025Y-125406037D01*
X78327870Y-125454587D01*
X78382998Y-125521762D01*
X78412001Y-125545564D01*
X78924439Y-126058003D01*
X78947835Y-126086510D01*
X78924880Y-126109465D01*
X78771995Y-126338273D01*
X78666686Y-126592510D01*
X78613000Y-126862408D01*
X78613000Y-127137592D01*
X78666686Y-127407490D01*
X78771995Y-127661727D01*
X78924880Y-127890535D01*
X79119465Y-128085120D01*
X79348273Y-128238005D01*
X79425515Y-128270000D01*
X79348273Y-128301995D01*
X79119465Y-128454880D01*
X78924880Y-128649465D01*
X78771995Y-128878273D01*
X78666686Y-129132510D01*
X78613000Y-129402408D01*
X78613000Y-129677592D01*
X78666686Y-129947490D01*
X78771995Y-130201727D01*
X78924880Y-130430535D01*
X79119465Y-130625120D01*
X79348273Y-130778005D01*
X79425515Y-130810000D01*
X79348273Y-130841995D01*
X79119465Y-130994880D01*
X78924880Y-131189465D01*
X78771995Y-131418273D01*
X78666686Y-131672510D01*
X78613000Y-131942408D01*
X78613000Y-132217592D01*
X78666686Y-132487490D01*
X78771995Y-132741727D01*
X78924880Y-132970535D01*
X79119465Y-133165120D01*
X79348273Y-133318005D01*
X79425515Y-133350000D01*
X79348273Y-133381995D01*
X79119465Y-133534880D01*
X78924880Y-133729465D01*
X78771995Y-133958273D01*
X78666686Y-134212510D01*
X78613000Y-134482408D01*
X78613000Y-134757592D01*
X78666686Y-135027490D01*
X78771995Y-135281727D01*
X78924880Y-135510535D01*
X79119465Y-135705120D01*
X79348273Y-135858005D01*
X79425515Y-135890000D01*
X79348273Y-135921995D01*
X79119465Y-136074880D01*
X78924880Y-136269465D01*
X78771995Y-136498273D01*
X78666686Y-136752510D01*
X78613000Y-137022408D01*
X78613000Y-137297592D01*
X78666686Y-137567490D01*
X78771995Y-137821727D01*
X78924880Y-138050535D01*
X79119465Y-138245120D01*
X79348273Y-138398005D01*
X79425515Y-138430000D01*
X79348273Y-138461995D01*
X79119465Y-138614880D01*
X78924880Y-138809465D01*
X78771995Y-139038273D01*
X78666686Y-139292510D01*
X78613000Y-139562408D01*
X78613000Y-139837592D01*
X78666686Y-140107490D01*
X78771995Y-140361727D01*
X78924880Y-140590535D01*
X79119465Y-140785120D01*
X79348273Y-140938005D01*
X79425515Y-140970000D01*
X79348273Y-141001995D01*
X79119465Y-141154880D01*
X78924880Y-141349465D01*
X78771995Y-141578273D01*
X78666686Y-141832510D01*
X78613000Y-142102408D01*
X78613000Y-142377592D01*
X78666686Y-142647490D01*
X78771995Y-142901727D01*
X78924880Y-143130535D01*
X79119465Y-143325120D01*
X79348273Y-143478005D01*
X79425515Y-143510000D01*
X79348273Y-143541995D01*
X79119465Y-143694880D01*
X78924880Y-143889465D01*
X78771995Y-144118273D01*
X78666686Y-144372510D01*
X78613000Y-144642408D01*
X78613000Y-144917592D01*
X78666686Y-145187490D01*
X78771995Y-145441727D01*
X78924880Y-145670535D01*
X79119465Y-145865120D01*
X79348273Y-146018005D01*
X79419943Y-146047692D01*
X79406977Y-146052364D01*
X79291020Y-146114344D01*
X79224040Y-146354435D01*
X80010000Y-147140395D01*
X80795960Y-146354435D01*
X80728980Y-146114344D01*
X80593240Y-146050515D01*
X80671727Y-146018005D01*
X80900535Y-145865120D01*
X81095120Y-145670535D01*
X81248005Y-145441727D01*
X81353314Y-145187490D01*
X81407000Y-144917592D01*
X81407000Y-144642408D01*
X81353314Y-144372510D01*
X81248005Y-144118273D01*
X81095120Y-143889465D01*
X80900535Y-143694880D01*
X80671727Y-143541995D01*
X80594485Y-143510000D01*
X80671727Y-143478005D01*
X80900535Y-143325120D01*
X81095120Y-143130535D01*
X81248005Y-142901727D01*
X81353314Y-142647490D01*
X81407000Y-142377592D01*
X81407000Y-142240000D01*
X93757815Y-142240000D01*
X93786487Y-142531111D01*
X93871401Y-142811034D01*
X94009294Y-143069014D01*
X94194866Y-143295134D01*
X94420986Y-143480706D01*
X94475791Y-143510000D01*
X94420986Y-143539294D01*
X94194866Y-143724866D01*
X94009294Y-143950986D01*
X93871401Y-144208966D01*
X93786487Y-144488889D01*
X93757815Y-144780000D01*
X93786487Y-145071111D01*
X93871401Y-145351034D01*
X94009294Y-145609014D01*
X94194866Y-145835134D01*
X94420986Y-146020706D01*
X94475791Y-146050000D01*
X94420986Y-146079294D01*
X94194866Y-146264866D01*
X94009294Y-146490986D01*
X93871401Y-146748966D01*
X93786487Y-147028889D01*
X93757815Y-147320000D01*
X93786487Y-147611111D01*
X93871401Y-147891034D01*
X94009294Y-148149014D01*
X94194866Y-148375134D01*
X94420986Y-148560706D01*
X94678966Y-148698599D01*
X94958889Y-148783513D01*
X95177050Y-148805000D01*
X95322950Y-148805000D01*
X95541111Y-148783513D01*
X95821034Y-148698599D01*
X96079014Y-148560706D01*
X96305134Y-148375134D01*
X96490706Y-148149014D01*
X96628599Y-147891034D01*
X96693559Y-147676890D01*
X97618524Y-147676890D01*
X97663175Y-147824099D01*
X97788359Y-148086920D01*
X97962412Y-148320269D01*
X98178645Y-148515178D01*
X98428748Y-148664157D01*
X98703109Y-148761481D01*
X98933000Y-148640814D01*
X98933000Y-147447000D01*
X99187000Y-147447000D01*
X99187000Y-148640814D01*
X99416891Y-148761481D01*
X99691252Y-148664157D01*
X99941355Y-148515178D01*
X100157588Y-148320269D01*
X100331641Y-148086920D01*
X100456825Y-147824099D01*
X100501476Y-147676890D01*
X100380155Y-147447000D01*
X99187000Y-147447000D01*
X98933000Y-147447000D01*
X97739845Y-147447000D01*
X97618524Y-147676890D01*
X96693559Y-147676890D01*
X96713513Y-147611111D01*
X96742185Y-147320000D01*
X96713513Y-147028889D01*
X96628599Y-146748966D01*
X96490706Y-146490986D01*
X96305134Y-146264866D01*
X96079014Y-146079294D01*
X96024209Y-146050000D01*
X96079014Y-146020706D01*
X96305134Y-145835134D01*
X96490706Y-145609014D01*
X96628599Y-145351034D01*
X96693559Y-145136890D01*
X97618524Y-145136890D01*
X97663175Y-145284099D01*
X97788359Y-145546920D01*
X97962412Y-145780269D01*
X98178645Y-145975178D01*
X98304255Y-146050000D01*
X98178645Y-146124822D01*
X97962412Y-146319731D01*
X97788359Y-146553080D01*
X97663175Y-146815901D01*
X97618524Y-146963110D01*
X97739845Y-147193000D01*
X98933000Y-147193000D01*
X98933000Y-144907000D01*
X99187000Y-144907000D01*
X99187000Y-147193000D01*
X100380155Y-147193000D01*
X100501476Y-146963110D01*
X100456825Y-146815901D01*
X100331641Y-146553080D01*
X100157588Y-146319731D01*
X99941355Y-146124822D01*
X99815745Y-146050000D01*
X99941355Y-145975178D01*
X100157588Y-145780269D01*
X100331641Y-145546920D01*
X100456825Y-145284099D01*
X100501476Y-145136890D01*
X100380155Y-144907000D01*
X99187000Y-144907000D01*
X98933000Y-144907000D01*
X97739845Y-144907000D01*
X97618524Y-145136890D01*
X96693559Y-145136890D01*
X96713513Y-145071111D01*
X96742185Y-144780000D01*
X96713513Y-144488889D01*
X96628599Y-144208966D01*
X96490706Y-143950986D01*
X96305134Y-143724866D01*
X96079014Y-143539294D01*
X96024209Y-143510000D01*
X96079014Y-143480706D01*
X96305134Y-143295134D01*
X96490706Y-143069014D01*
X96628599Y-142811034D01*
X96693559Y-142596890D01*
X97618524Y-142596890D01*
X97663175Y-142744099D01*
X97788359Y-143006920D01*
X97962412Y-143240269D01*
X98178645Y-143435178D01*
X98304255Y-143510000D01*
X98178645Y-143584822D01*
X97962412Y-143779731D01*
X97788359Y-144013080D01*
X97663175Y-144275901D01*
X97618524Y-144423110D01*
X97739845Y-144653000D01*
X98933000Y-144653000D01*
X98933000Y-142367000D01*
X99187000Y-142367000D01*
X99187000Y-144653000D01*
X100380155Y-144653000D01*
X100501476Y-144423110D01*
X100456825Y-144275901D01*
X100331641Y-144013080D01*
X100157588Y-143779731D01*
X99941355Y-143584822D01*
X99815745Y-143510000D01*
X99941355Y-143435178D01*
X100157588Y-143240269D01*
X100331641Y-143006920D01*
X100456825Y-142744099D01*
X100501476Y-142596890D01*
X100380155Y-142367000D01*
X99187000Y-142367000D01*
X98933000Y-142367000D01*
X97739845Y-142367000D01*
X97618524Y-142596890D01*
X96693559Y-142596890D01*
X96713513Y-142531111D01*
X96742185Y-142240000D01*
X96713513Y-141948889D01*
X96628599Y-141668966D01*
X96490706Y-141410986D01*
X96305134Y-141184866D01*
X96275313Y-141160393D01*
X96344180Y-141139502D01*
X96454494Y-141080537D01*
X96551185Y-141001185D01*
X96630537Y-140904494D01*
X96689502Y-140794180D01*
X96725812Y-140674482D01*
X96738072Y-140550000D01*
X97571928Y-140550000D01*
X97584188Y-140674482D01*
X97620498Y-140794180D01*
X97679463Y-140904494D01*
X97758815Y-141001185D01*
X97855506Y-141080537D01*
X97965820Y-141139502D01*
X98046466Y-141163966D01*
X97962412Y-141239731D01*
X97788359Y-141473080D01*
X97663175Y-141735901D01*
X97618524Y-141883110D01*
X97739845Y-142113000D01*
X98933000Y-142113000D01*
X98933000Y-139827000D01*
X99187000Y-139827000D01*
X99187000Y-142113000D01*
X100380155Y-142113000D01*
X100501476Y-141883110D01*
X100456825Y-141735901D01*
X100331641Y-141473080D01*
X100157588Y-141239731D01*
X100073534Y-141163966D01*
X100154180Y-141139502D01*
X100264494Y-141080537D01*
X100361185Y-141001185D01*
X100440537Y-140904494D01*
X100499502Y-140794180D01*
X100535812Y-140674482D01*
X100548072Y-140550000D01*
X100545000Y-139985750D01*
X100386250Y-139827000D01*
X99187000Y-139827000D01*
X98933000Y-139827000D01*
X97733750Y-139827000D01*
X97575000Y-139985750D01*
X97571928Y-140550000D01*
X96738072Y-140550000D01*
X96738072Y-138850000D01*
X97571928Y-138850000D01*
X97575000Y-139414250D01*
X97733750Y-139573000D01*
X98933000Y-139573000D01*
X98933000Y-138373750D01*
X99187000Y-138373750D01*
X99187000Y-139573000D01*
X100386250Y-139573000D01*
X100545000Y-139414250D01*
X100548072Y-138850000D01*
X100535812Y-138725518D01*
X100499502Y-138605820D01*
X100440537Y-138495506D01*
X100361185Y-138398815D01*
X100264494Y-138319463D01*
X100154180Y-138260498D01*
X100034482Y-138224188D01*
X99910000Y-138211928D01*
X99345750Y-138215000D01*
X99187000Y-138373750D01*
X98933000Y-138373750D01*
X98774250Y-138215000D01*
X98210000Y-138211928D01*
X98085518Y-138224188D01*
X97965820Y-138260498D01*
X97855506Y-138319463D01*
X97758815Y-138398815D01*
X97679463Y-138495506D01*
X97620498Y-138605820D01*
X97584188Y-138725518D01*
X97571928Y-138850000D01*
X96738072Y-138850000D01*
X96725812Y-138725518D01*
X96689502Y-138605820D01*
X96630537Y-138495506D01*
X96551185Y-138398815D01*
X96454494Y-138319463D01*
X96344180Y-138260498D01*
X96224482Y-138224188D01*
X96100000Y-138211928D01*
X94400000Y-138211928D01*
X94275518Y-138224188D01*
X94155820Y-138260498D01*
X94045506Y-138319463D01*
X93948815Y-138398815D01*
X93869463Y-138495506D01*
X93810498Y-138605820D01*
X93774188Y-138725518D01*
X93761928Y-138850000D01*
X93761928Y-140550000D01*
X93774188Y-140674482D01*
X93810498Y-140794180D01*
X93869463Y-140904494D01*
X93948815Y-141001185D01*
X94045506Y-141080537D01*
X94155820Y-141139502D01*
X94224687Y-141160393D01*
X94194866Y-141184866D01*
X94009294Y-141410986D01*
X93871401Y-141668966D01*
X93786487Y-141948889D01*
X93757815Y-142240000D01*
X81407000Y-142240000D01*
X81407000Y-142102408D01*
X81376372Y-141948429D01*
X86871003Y-136453799D01*
X86900001Y-136430001D01*
X86926332Y-136397917D01*
X86994974Y-136314277D01*
X87065546Y-136182247D01*
X87088046Y-136108072D01*
X87210000Y-136108072D01*
X87334482Y-136095812D01*
X87454180Y-136059502D01*
X87564494Y-136000537D01*
X87661185Y-135921185D01*
X87740537Y-135824494D01*
X87799502Y-135714180D01*
X87835812Y-135594482D01*
X87848072Y-135470000D01*
X87848072Y-133770000D01*
X87835812Y-133645518D01*
X87799502Y-133525820D01*
X87740537Y-133415506D01*
X87661185Y-133318815D01*
X87564494Y-133239463D01*
X87454180Y-133180498D01*
X87385313Y-133159607D01*
X87415134Y-133135134D01*
X87600706Y-132909014D01*
X87738599Y-132651034D01*
X87823513Y-132371111D01*
X87852185Y-132080000D01*
X87823513Y-131788889D01*
X87738599Y-131508966D01*
X87600706Y-131250986D01*
X87415134Y-131024866D01*
X87189014Y-130839294D01*
X87134209Y-130810000D01*
X87189014Y-130780706D01*
X87415134Y-130595134D01*
X87600706Y-130369014D01*
X87738599Y-130111034D01*
X87823513Y-129831111D01*
X87852185Y-129540000D01*
X87823513Y-129248889D01*
X87738599Y-128968966D01*
X87600706Y-128710986D01*
X87415134Y-128484866D01*
X87189014Y-128299294D01*
X87134209Y-128270000D01*
X87189014Y-128240706D01*
X87415134Y-128055134D01*
X87600706Y-127829014D01*
X87738599Y-127571034D01*
X87823513Y-127291111D01*
X87852185Y-127000000D01*
X87823513Y-126708889D01*
X87785931Y-126584999D01*
X89149200Y-126584999D01*
X99671201Y-137107001D01*
X99695000Y-137136000D01*
X99810725Y-137230973D01*
X99942754Y-137301545D01*
X100086015Y-137345002D01*
X100197668Y-137355999D01*
X100197677Y-137355999D01*
X100235000Y-137359675D01*
X100272323Y-137355999D01*
X100975198Y-137355999D01*
X101473000Y-137853801D01*
X101473000Y-138526306D01*
X101430498Y-138605820D01*
X101394188Y-138725518D01*
X101381928Y-138850000D01*
X101381928Y-140550000D01*
X101394188Y-140674482D01*
X101430498Y-140794180D01*
X101473000Y-140873694D01*
X101473000Y-141729626D01*
X101406487Y-141948889D01*
X101377815Y-142240000D01*
X101406487Y-142531111D01*
X101473000Y-142750374D01*
X101473000Y-144269626D01*
X101406487Y-144488889D01*
X101377815Y-144780000D01*
X101406487Y-145071111D01*
X101473000Y-145290374D01*
X101473000Y-146809626D01*
X101406487Y-147028889D01*
X101377815Y-147320000D01*
X101406487Y-147611111D01*
X101473000Y-147830374D01*
X101473000Y-151740000D01*
X76327000Y-151740000D01*
X76327000Y-149390000D01*
X84921928Y-149390000D01*
X84934188Y-149514482D01*
X84970498Y-149634180D01*
X85029463Y-149744494D01*
X85108815Y-149841185D01*
X85205506Y-149920537D01*
X85315820Y-149979502D01*
X85435518Y-150015812D01*
X85560000Y-150028072D01*
X86074250Y-150025000D01*
X86233000Y-149866250D01*
X86233000Y-148717000D01*
X85083750Y-148717000D01*
X84925000Y-148875750D01*
X84921928Y-149390000D01*
X76327000Y-149390000D01*
X76327000Y-148285565D01*
X79224040Y-148285565D01*
X79291020Y-148525656D01*
X79540048Y-148642756D01*
X79807135Y-148709023D01*
X80082017Y-148721910D01*
X80354133Y-148680922D01*
X80613023Y-148587636D01*
X80728980Y-148525656D01*
X80795960Y-148285565D01*
X80010000Y-147499605D01*
X79224040Y-148285565D01*
X76327000Y-148285565D01*
X76327000Y-147392017D01*
X78608090Y-147392017D01*
X78649078Y-147664133D01*
X78742364Y-147923023D01*
X78804344Y-148038980D01*
X79044435Y-148105960D01*
X79830395Y-147320000D01*
X80189605Y-147320000D01*
X80975565Y-148105960D01*
X81215656Y-148038980D01*
X81332733Y-147790000D01*
X84921928Y-147790000D01*
X84925000Y-148304250D01*
X85083750Y-148463000D01*
X86233000Y-148463000D01*
X86233000Y-147313750D01*
X86487000Y-147313750D01*
X86487000Y-148463000D01*
X86507000Y-148463000D01*
X86507000Y-148717000D01*
X86487000Y-148717000D01*
X86487000Y-149866250D01*
X86645750Y-150025000D01*
X87160000Y-150028072D01*
X87284482Y-150015812D01*
X87404180Y-149979502D01*
X87514494Y-149920537D01*
X87611185Y-149841185D01*
X87690537Y-149744494D01*
X87749502Y-149634180D01*
X87778661Y-149538057D01*
X87945241Y-149704637D01*
X88180273Y-149861680D01*
X88441426Y-149969853D01*
X88718665Y-150025000D01*
X89001335Y-150025000D01*
X89278574Y-149969853D01*
X89539727Y-149861680D01*
X89774759Y-149704637D01*
X89974637Y-149504759D01*
X90131680Y-149269727D01*
X90239853Y-149008574D01*
X90295000Y-148731335D01*
X90295000Y-148448665D01*
X90239853Y-148171426D01*
X90131680Y-147910273D01*
X89974637Y-147675241D01*
X89774759Y-147475363D01*
X89539727Y-147318320D01*
X89278574Y-147210147D01*
X89001335Y-147155000D01*
X88718665Y-147155000D01*
X88441426Y-147210147D01*
X88180273Y-147318320D01*
X87945241Y-147475363D01*
X87778661Y-147641943D01*
X87749502Y-147545820D01*
X87690537Y-147435506D01*
X87611185Y-147338815D01*
X87514494Y-147259463D01*
X87404180Y-147200498D01*
X87284482Y-147164188D01*
X87160000Y-147151928D01*
X86645750Y-147155000D01*
X86487000Y-147313750D01*
X86233000Y-147313750D01*
X86074250Y-147155000D01*
X85560000Y-147151928D01*
X85435518Y-147164188D01*
X85315820Y-147200498D01*
X85205506Y-147259463D01*
X85108815Y-147338815D01*
X85029463Y-147435506D01*
X84970498Y-147545820D01*
X84934188Y-147665518D01*
X84921928Y-147790000D01*
X81332733Y-147790000D01*
X81332756Y-147789952D01*
X81399023Y-147522865D01*
X81411910Y-147247983D01*
X81370922Y-146975867D01*
X81277636Y-146716977D01*
X81215656Y-146601020D01*
X80975565Y-146534040D01*
X80189605Y-147320000D01*
X79830395Y-147320000D01*
X79044435Y-146534040D01*
X78804344Y-146601020D01*
X78687244Y-146850048D01*
X78620977Y-147117135D01*
X78608090Y-147392017D01*
X76327000Y-147392017D01*
X76327000Y-114909040D01*
X78788945Y-112447095D01*
X78924880Y-112650535D01*
G36*
X101473000Y-107416687D02*
G01*
X99810000Y-107416687D01*
X99685518Y-107428947D01*
X99565820Y-107465257D01*
X99455506Y-107524222D01*
X99358815Y-107603574D01*
X99279463Y-107700265D01*
X99220498Y-107810579D01*
X99199607Y-107879446D01*
X99175134Y-107849625D01*
X98949014Y-107664053D01*
X98691034Y-107526160D01*
X98411111Y-107441246D01*
X98192950Y-107419759D01*
X98047050Y-107419759D01*
X97828889Y-107441246D01*
X97548966Y-107526160D01*
X97290986Y-107664053D01*
X97064866Y-107849625D01*
X96879294Y-108075745D01*
X96844799Y-108140282D01*
X96775178Y-108023404D01*
X96580269Y-107807171D01*
X96346920Y-107633118D01*
X96084099Y-107507934D01*
X95936890Y-107463283D01*
X95707000Y-107584604D01*
X95707000Y-108777759D01*
X95727000Y-108777759D01*
X95727000Y-109031759D01*
X95707000Y-109031759D01*
X95707000Y-110224914D01*
X95936890Y-110346235D01*
X96084099Y-110301584D01*
X96346920Y-110176400D01*
X96580269Y-110002347D01*
X96775178Y-109786114D01*
X96844799Y-109669236D01*
X96879294Y-109733773D01*
X97064866Y-109959893D01*
X97290986Y-110145465D01*
X97548966Y-110283358D01*
X97828889Y-110368272D01*
X98047050Y-110389759D01*
X98192950Y-110389759D01*
X98411111Y-110368272D01*
X98691034Y-110283358D01*
X98949014Y-110145465D01*
X99175134Y-109959893D01*
X99199607Y-109930072D01*
X99220498Y-109998939D01*
X99279463Y-110109253D01*
X99358815Y-110205944D01*
X99455506Y-110285296D01*
X99565820Y-110344261D01*
X99685518Y-110380571D01*
X99810000Y-110392831D01*
X101473000Y-110392831D01*
X101473000Y-112016687D01*
X99810000Y-112016687D01*
X99685518Y-112028947D01*
X99565820Y-112065257D01*
X99455506Y-112124222D01*
X99358815Y-112203574D01*
X99279463Y-112300265D01*
X99220498Y-112410579D01*
X99199607Y-112479446D01*
X99175134Y-112449625D01*
X98949014Y-112264053D01*
X98691034Y-112126160D01*
X98411111Y-112041246D01*
X98192950Y-112019759D01*
X98047050Y-112019759D01*
X97828889Y-112041246D01*
X97548966Y-112126160D01*
X97290986Y-112264053D01*
X97064866Y-112449625D01*
X96879294Y-112675745D01*
X96844799Y-112740282D01*
X96775178Y-112623404D01*
X96580269Y-112407171D01*
X96346920Y-112233118D01*
X96084099Y-112107934D01*
X95936890Y-112063283D01*
X95707000Y-112184604D01*
X95707000Y-113377759D01*
X95727000Y-113377759D01*
X95727000Y-113631759D01*
X95707000Y-113631759D01*
X95707000Y-114824914D01*
X95936890Y-114946235D01*
X96084099Y-114901584D01*
X96346920Y-114776400D01*
X96580269Y-114602347D01*
X96775178Y-114386114D01*
X96844799Y-114269236D01*
X96879294Y-114333773D01*
X97064866Y-114559893D01*
X97290986Y-114745465D01*
X97548966Y-114883358D01*
X97828889Y-114968272D01*
X98047050Y-114989759D01*
X98192950Y-114989759D01*
X98411111Y-114968272D01*
X98691034Y-114883358D01*
X98949014Y-114745465D01*
X99175134Y-114559893D01*
X99199607Y-114530072D01*
X99220498Y-114598939D01*
X99279463Y-114709253D01*
X99358815Y-114805944D01*
X99455506Y-114885296D01*
X99565820Y-114944261D01*
X99685518Y-114980571D01*
X99810000Y-114992831D01*
X101473000Y-114992831D01*
X101473000Y-116616687D01*
X99810000Y-116616687D01*
X99685518Y-116628947D01*
X99565820Y-116665257D01*
X99455506Y-116724222D01*
X99358815Y-116803574D01*
X99279463Y-116900265D01*
X99220498Y-117010579D01*
X99199607Y-117079446D01*
X99175134Y-117049625D01*
X98949014Y-116864053D01*
X98691034Y-116726160D01*
X98411111Y-116641246D01*
X98192950Y-116619759D01*
X98047050Y-116619759D01*
X97828889Y-116641246D01*
X97548966Y-116726160D01*
X97290986Y-116864053D01*
X97064866Y-117049625D01*
X96879294Y-117275745D01*
X96844799Y-117340282D01*
X96775178Y-117223404D01*
X96580269Y-117007171D01*
X96346920Y-116833118D01*
X96084099Y-116707934D01*
X95936890Y-116663283D01*
X95707000Y-116784604D01*
X95707000Y-117977759D01*
X95727000Y-117977759D01*
X95727000Y-118231759D01*
X95707000Y-118231759D01*
X95707000Y-119424914D01*
X95936890Y-119546235D01*
X96084099Y-119501584D01*
X96346920Y-119376400D01*
X96580269Y-119202347D01*
X96775178Y-118986114D01*
X96844799Y-118869236D01*
X96879294Y-118933773D01*
X97064866Y-119159893D01*
X97290986Y-119345465D01*
X97548966Y-119483358D01*
X97828889Y-119568272D01*
X98047050Y-119589759D01*
X98192950Y-119589759D01*
X98411111Y-119568272D01*
X98691034Y-119483358D01*
X98949014Y-119345465D01*
X99175134Y-119159893D01*
X99199607Y-119130072D01*
X99220498Y-119198939D01*
X99279463Y-119309253D01*
X99358815Y-119405944D01*
X99455506Y-119485296D01*
X99565820Y-119544261D01*
X99685518Y-119580571D01*
X99810000Y-119592831D01*
X101473000Y-119592831D01*
X101473000Y-133418198D01*
X90828803Y-122774002D01*
X90805000Y-122744998D01*
X90689275Y-122650025D01*
X90557246Y-122579453D01*
X90413985Y-122535996D01*
X90302332Y-122524999D01*
X90302321Y-122524999D01*
X90264999Y-122521323D01*
X90227677Y-122524999D01*
X87720444Y-122524999D01*
X87738599Y-122491034D01*
X87823513Y-122211111D01*
X87852185Y-121920000D01*
X87823513Y-121628889D01*
X87738599Y-121348966D01*
X87600706Y-121090986D01*
X87415134Y-120864866D01*
X87189014Y-120679294D01*
X87134209Y-120650000D01*
X87189014Y-120620706D01*
X87415134Y-120435134D01*
X87600706Y-120209014D01*
X87738599Y-119951034D01*
X87823513Y-119671111D01*
X87852185Y-119380000D01*
X87823513Y-119088889D01*
X87738599Y-118808966D01*
X87600706Y-118550986D01*
X87527390Y-118461650D01*
X94138519Y-118461650D01*
X94235843Y-118736011D01*
X94384822Y-118986114D01*
X94579731Y-119202347D01*
X94813080Y-119376400D01*
X95075901Y-119501584D01*
X95223110Y-119546235D01*
X95453000Y-119424914D01*
X95453000Y-118231759D01*
X94259186Y-118231759D01*
X94138519Y-118461650D01*
X87527390Y-118461650D01*
X87415134Y-118324866D01*
X87189014Y-118139294D01*
X87134209Y-118110000D01*
X87189014Y-118080706D01*
X87415134Y-117895134D01*
X87535992Y-117747868D01*
X94138519Y-117747868D01*
X94259186Y-117977759D01*
X95453000Y-117977759D01*
X95453000Y-116784604D01*
X95223110Y-116663283D01*
X95075901Y-116707934D01*
X94813080Y-116833118D01*
X94579731Y-117007171D01*
X94384822Y-117223404D01*
X94235843Y-117473507D01*
X94138519Y-117747868D01*
X87535992Y-117747868D01*
X87600706Y-117669014D01*
X87738599Y-117411034D01*
X87823513Y-117131111D01*
X87852185Y-116840000D01*
X87823513Y-116548889D01*
X87738599Y-116268966D01*
X87600706Y-116010986D01*
X87415134Y-115784866D01*
X87189014Y-115599294D01*
X87134209Y-115570000D01*
X87189014Y-115540706D01*
X87415134Y-115355134D01*
X87600706Y-115129014D01*
X87738599Y-114871034D01*
X87823513Y-114591111D01*
X87852185Y-114300000D01*
X87823513Y-114008889D01*
X87778849Y-113861650D01*
X94138519Y-113861650D01*
X94235843Y-114136011D01*
X94384822Y-114386114D01*
X94579731Y-114602347D01*
X94813080Y-114776400D01*
X95075901Y-114901584D01*
X95223110Y-114946235D01*
X95453000Y-114824914D01*
X95453000Y-113631759D01*
X94259186Y-113631759D01*
X94138519Y-113861650D01*
X87778849Y-113861650D01*
X87738599Y-113728966D01*
X87600706Y-113470986D01*
X87415134Y-113244866D01*
X87296942Y-113147868D01*
X94138519Y-113147868D01*
X94259186Y-113377759D01*
X95453000Y-113377759D01*
X95453000Y-112184604D01*
X95223110Y-112063283D01*
X95075901Y-112107934D01*
X94813080Y-112233118D01*
X94579731Y-112407171D01*
X94384822Y-112623404D01*
X94235843Y-112873507D01*
X94138519Y-113147868D01*
X87296942Y-113147868D01*
X87189014Y-113059294D01*
X87134209Y-113030000D01*
X87189014Y-113000706D01*
X87415134Y-112815134D01*
X87600706Y-112589014D01*
X87738599Y-112331034D01*
X87823513Y-112051111D01*
X87852185Y-111760000D01*
X87823513Y-111468889D01*
X87738599Y-111188966D01*
X87600706Y-110930986D01*
X87415134Y-110704866D01*
X87189014Y-110519294D01*
X87134209Y-110490000D01*
X87189014Y-110460706D01*
X87415134Y-110275134D01*
X87600706Y-110049014D01*
X87738599Y-109791034D01*
X87823513Y-109511111D01*
X87848082Y-109261650D01*
X94138519Y-109261650D01*
X94235843Y-109536011D01*
X94384822Y-109786114D01*
X94579731Y-110002347D01*
X94813080Y-110176400D01*
X95075901Y-110301584D01*
X95223110Y-110346235D01*
X95453000Y-110224914D01*
X95453000Y-109031759D01*
X94259186Y-109031759D01*
X94138519Y-109261650D01*
X87848082Y-109261650D01*
X87852185Y-109220000D01*
X87823513Y-108928889D01*
X87738599Y-108648966D01*
X87684562Y-108547868D01*
X94138519Y-108547868D01*
X94259186Y-108777759D01*
X95453000Y-108777759D01*
X95453000Y-107584604D01*
X95223110Y-107463283D01*
X95075901Y-107507934D01*
X94813080Y-107633118D01*
X94579731Y-107807171D01*
X94384822Y-108023404D01*
X94235843Y-108273507D01*
X94138519Y-108547868D01*
X87684562Y-108547868D01*
X87600706Y-108390986D01*
X87415134Y-108164866D01*
X87189014Y-107979294D01*
X87134209Y-107950000D01*
X87189014Y-107920706D01*
X87415134Y-107735134D01*
X87600706Y-107509014D01*
X87738599Y-107251034D01*
X87823513Y-106971111D01*
X87852185Y-106680000D01*
X87823513Y-106388889D01*
X87738599Y-106108966D01*
X87600706Y-105850986D01*
X87415134Y-105624866D01*
X87189014Y-105439294D01*
X86931034Y-105301401D01*
X86651111Y-105216487D01*
X86432950Y-105195000D01*
X86287050Y-105195000D01*
X86068889Y-105216487D01*
X85788966Y-105301401D01*
X85530986Y-105439294D01*
X85304866Y-105624866D01*
X85119294Y-105850986D01*
X84981401Y-106108966D01*
X84896487Y-106388889D01*
X84867815Y-106680000D01*
X84896487Y-106971111D01*
X84981401Y-107251034D01*
X85119294Y-107509014D01*
X85304866Y-107735134D01*
X85530986Y-107920706D01*
X85585791Y-107950000D01*
X85530986Y-107979294D01*
X85304866Y-108164866D01*
X85119294Y-108390986D01*
X84981401Y-108648966D01*
X84896487Y-108928889D01*
X84870010Y-109197714D01*
X84797257Y-109138007D01*
X84665228Y-109067435D01*
X84521967Y-109023978D01*
X84410314Y-109012981D01*
X84410303Y-109012981D01*
X84372981Y-109009305D01*
X84335659Y-109012981D01*
X79152759Y-109012981D01*
X79115436Y-109009305D01*
X79078113Y-109012981D01*
X79078104Y-109012981D01*
X78966451Y-109023978D01*
X78823190Y-109067435D01*
X78691160Y-109138007D01*
X78620655Y-109195870D01*
X78575436Y-109232980D01*
X78551638Y-109261978D01*
X76327000Y-111486616D01*
X76327000Y-103530000D01*
X101473000Y-103530000D01*
X101473000Y-107416687D01*
X101473000Y-107416687D01*
G37*
X101473000Y-107416687D02*
X99810000Y-107416687D01*
X99685518Y-107428947D01*
X99565820Y-107465257D01*
X99455506Y-107524222D01*
X99358815Y-107603574D01*
X99279463Y-107700265D01*
X99220498Y-107810579D01*
X99199607Y-107879446D01*
X99175134Y-107849625D01*
X98949014Y-107664053D01*
X98691034Y-107526160D01*
X98411111Y-107441246D01*
X98192950Y-107419759D01*
X98047050Y-107419759D01*
X97828889Y-107441246D01*
X97548966Y-107526160D01*
X97290986Y-107664053D01*
X97064866Y-107849625D01*
X96879294Y-108075745D01*
X96844799Y-108140282D01*
X96775178Y-108023404D01*
X96580269Y-107807171D01*
X96346920Y-107633118D01*
X96084099Y-107507934D01*
X95936890Y-107463283D01*
X95707000Y-107584604D01*
X95707000Y-108777759D01*
X95727000Y-108777759D01*
X95727000Y-109031759D01*
X95707000Y-109031759D01*
X95707000Y-110224914D01*
X95936890Y-110346235D01*
X96084099Y-110301584D01*
X96346920Y-110176400D01*
X96580269Y-110002347D01*
X96775178Y-109786114D01*
X96844799Y-109669236D01*
X96879294Y-109733773D01*
X97064866Y-109959893D01*
X97290986Y-110145465D01*
X97548966Y-110283358D01*
X97828889Y-110368272D01*
X98047050Y-110389759D01*
X98192950Y-110389759D01*
X98411111Y-110368272D01*
X98691034Y-110283358D01*
X98949014Y-110145465D01*
X99175134Y-109959893D01*
X99199607Y-109930072D01*
X99220498Y-109998939D01*
X99279463Y-110109253D01*
X99358815Y-110205944D01*
X99455506Y-110285296D01*
X99565820Y-110344261D01*
X99685518Y-110380571D01*
X99810000Y-110392831D01*
X101473000Y-110392831D01*
X101473000Y-112016687D01*
X99810000Y-112016687D01*
X99685518Y-112028947D01*
X99565820Y-112065257D01*
X99455506Y-112124222D01*
X99358815Y-112203574D01*
X99279463Y-112300265D01*
X99220498Y-112410579D01*
X99199607Y-112479446D01*
X99175134Y-112449625D01*
X98949014Y-112264053D01*
X98691034Y-112126160D01*
X98411111Y-112041246D01*
X98192950Y-112019759D01*
X98047050Y-112019759D01*
X97828889Y-112041246D01*
X97548966Y-112126160D01*
X97290986Y-112264053D01*
X97064866Y-112449625D01*
X96879294Y-112675745D01*
X96844799Y-112740282D01*
X96775178Y-112623404D01*
X96580269Y-112407171D01*
X96346920Y-112233118D01*
X96084099Y-112107934D01*
X95936890Y-112063283D01*
X95707000Y-112184604D01*
X95707000Y-113377759D01*
X95727000Y-113377759D01*
X95727000Y-113631759D01*
X95707000Y-113631759D01*
X95707000Y-114824914D01*
X95936890Y-114946235D01*
X96084099Y-114901584D01*
X96346920Y-114776400D01*
X96580269Y-114602347D01*
X96775178Y-114386114D01*
X96844799Y-114269236D01*
X96879294Y-114333773D01*
X97064866Y-114559893D01*
X97290986Y-114745465D01*
X97548966Y-114883358D01*
X97828889Y-114968272D01*
X98047050Y-114989759D01*
X98192950Y-114989759D01*
X98411111Y-114968272D01*
X98691034Y-114883358D01*
X98949014Y-114745465D01*
X99175134Y-114559893D01*
X99199607Y-114530072D01*
X99220498Y-114598939D01*
X99279463Y-114709253D01*
X99358815Y-114805944D01*
X99455506Y-114885296D01*
X99565820Y-114944261D01*
X99685518Y-114980571D01*
X99810000Y-114992831D01*
X101473000Y-114992831D01*
X101473000Y-116616687D01*
X99810000Y-116616687D01*
X99685518Y-116628947D01*
X99565820Y-116665257D01*
X99455506Y-116724222D01*
X99358815Y-116803574D01*
X99279463Y-116900265D01*
X99220498Y-117010579D01*
X99199607Y-117079446D01*
X99175134Y-117049625D01*
X98949014Y-116864053D01*
X98691034Y-116726160D01*
X98411111Y-116641246D01*
X98192950Y-116619759D01*
X98047050Y-116619759D01*
X97828889Y-116641246D01*
X97548966Y-116726160D01*
X97290986Y-116864053D01*
X97064866Y-117049625D01*
X96879294Y-117275745D01*
X96844799Y-117340282D01*
X96775178Y-117223404D01*
X96580269Y-117007171D01*
X96346920Y-116833118D01*
X96084099Y-116707934D01*
X95936890Y-116663283D01*
X95707000Y-116784604D01*
X95707000Y-117977759D01*
X95727000Y-117977759D01*
X95727000Y-118231759D01*
X95707000Y-118231759D01*
X95707000Y-119424914D01*
X95936890Y-119546235D01*
X96084099Y-119501584D01*
X96346920Y-119376400D01*
X96580269Y-119202347D01*
X96775178Y-118986114D01*
X96844799Y-118869236D01*
X96879294Y-118933773D01*
X97064866Y-119159893D01*
X97290986Y-119345465D01*
X97548966Y-119483358D01*
X97828889Y-119568272D01*
X98047050Y-119589759D01*
X98192950Y-119589759D01*
X98411111Y-119568272D01*
X98691034Y-119483358D01*
X98949014Y-119345465D01*
X99175134Y-119159893D01*
X99199607Y-119130072D01*
X99220498Y-119198939D01*
X99279463Y-119309253D01*
X99358815Y-119405944D01*
X99455506Y-119485296D01*
X99565820Y-119544261D01*
X99685518Y-119580571D01*
X99810000Y-119592831D01*
X101473000Y-119592831D01*
X101473000Y-133418198D01*
X90828803Y-122774002D01*
X90805000Y-122744998D01*
X90689275Y-122650025D01*
X90557246Y-122579453D01*
X90413985Y-122535996D01*
X90302332Y-122524999D01*
X90302321Y-122524999D01*
X90264999Y-122521323D01*
X90227677Y-122524999D01*
X87720444Y-122524999D01*
X87738599Y-122491034D01*
X87823513Y-122211111D01*
X87852185Y-121920000D01*
X87823513Y-121628889D01*
X87738599Y-121348966D01*
X87600706Y-121090986D01*
X87415134Y-120864866D01*
X87189014Y-120679294D01*
X87134209Y-120650000D01*
X87189014Y-120620706D01*
X87415134Y-120435134D01*
X87600706Y-120209014D01*
X87738599Y-119951034D01*
X87823513Y-119671111D01*
X87852185Y-119380000D01*
X87823513Y-119088889D01*
X87738599Y-118808966D01*
X87600706Y-118550986D01*
X87527390Y-118461650D01*
X94138519Y-118461650D01*
X94235843Y-118736011D01*
X94384822Y-118986114D01*
X94579731Y-119202347D01*
X94813080Y-119376400D01*
X95075901Y-119501584D01*
X95223110Y-119546235D01*
X95453000Y-119424914D01*
X95453000Y-118231759D01*
X94259186Y-118231759D01*
X94138519Y-118461650D01*
X87527390Y-118461650D01*
X87415134Y-118324866D01*
X87189014Y-118139294D01*
X87134209Y-118110000D01*
X87189014Y-118080706D01*
X87415134Y-117895134D01*
X87535992Y-117747868D01*
X94138519Y-117747868D01*
X94259186Y-117977759D01*
X95453000Y-117977759D01*
X95453000Y-116784604D01*
X95223110Y-116663283D01*
X95075901Y-116707934D01*
X94813080Y-116833118D01*
X94579731Y-117007171D01*
X94384822Y-117223404D01*
X94235843Y-117473507D01*
X94138519Y-117747868D01*
X87535992Y-117747868D01*
X87600706Y-117669014D01*
X87738599Y-117411034D01*
X87823513Y-117131111D01*
X87852185Y-116840000D01*
X87823513Y-116548889D01*
X87738599Y-116268966D01*
X87600706Y-116010986D01*
X87415134Y-115784866D01*
X87189014Y-115599294D01*
X87134209Y-115570000D01*
X87189014Y-115540706D01*
X87415134Y-115355134D01*
X87600706Y-115129014D01*
X87738599Y-114871034D01*
X87823513Y-114591111D01*
X87852185Y-114300000D01*
X87823513Y-114008889D01*
X87778849Y-113861650D01*
X94138519Y-113861650D01*
X94235843Y-114136011D01*
X94384822Y-114386114D01*
X94579731Y-114602347D01*
X94813080Y-114776400D01*
X95075901Y-114901584D01*
X95223110Y-114946235D01*
X95453000Y-114824914D01*
X95453000Y-113631759D01*
X94259186Y-113631759D01*
X94138519Y-113861650D01*
X87778849Y-113861650D01*
X87738599Y-113728966D01*
X87600706Y-113470986D01*
X87415134Y-113244866D01*
X87296942Y-113147868D01*
X94138519Y-113147868D01*
X94259186Y-113377759D01*
X95453000Y-113377759D01*
X95453000Y-112184604D01*
X95223110Y-112063283D01*
X95075901Y-112107934D01*
X94813080Y-112233118D01*
X94579731Y-112407171D01*
X94384822Y-112623404D01*
X94235843Y-112873507D01*
X94138519Y-113147868D01*
X87296942Y-113147868D01*
X87189014Y-113059294D01*
X87134209Y-113030000D01*
X87189014Y-113000706D01*
X87415134Y-112815134D01*
X87600706Y-112589014D01*
X87738599Y-112331034D01*
X87823513Y-112051111D01*
X87852185Y-111760000D01*
X87823513Y-111468889D01*
X87738599Y-111188966D01*
X87600706Y-110930986D01*
X87415134Y-110704866D01*
X87189014Y-110519294D01*
X87134209Y-110490000D01*
X87189014Y-110460706D01*
X87415134Y-110275134D01*
X87600706Y-110049014D01*
X87738599Y-109791034D01*
X87823513Y-109511111D01*
X87848082Y-109261650D01*
X94138519Y-109261650D01*
X94235843Y-109536011D01*
X94384822Y-109786114D01*
X94579731Y-110002347D01*
X94813080Y-110176400D01*
X95075901Y-110301584D01*
X95223110Y-110346235D01*
X95453000Y-110224914D01*
X95453000Y-109031759D01*
X94259186Y-109031759D01*
X94138519Y-109261650D01*
X87848082Y-109261650D01*
X87852185Y-109220000D01*
X87823513Y-108928889D01*
X87738599Y-108648966D01*
X87684562Y-108547868D01*
X94138519Y-108547868D01*
X94259186Y-108777759D01*
X95453000Y-108777759D01*
X95453000Y-107584604D01*
X95223110Y-107463283D01*
X95075901Y-107507934D01*
X94813080Y-107633118D01*
X94579731Y-107807171D01*
X94384822Y-108023404D01*
X94235843Y-108273507D01*
X94138519Y-108547868D01*
X87684562Y-108547868D01*
X87600706Y-108390986D01*
X87415134Y-108164866D01*
X87189014Y-107979294D01*
X87134209Y-107950000D01*
X87189014Y-107920706D01*
X87415134Y-107735134D01*
X87600706Y-107509014D01*
X87738599Y-107251034D01*
X87823513Y-106971111D01*
X87852185Y-106680000D01*
X87823513Y-106388889D01*
X87738599Y-106108966D01*
X87600706Y-105850986D01*
X87415134Y-105624866D01*
X87189014Y-105439294D01*
X86931034Y-105301401D01*
X86651111Y-105216487D01*
X86432950Y-105195000D01*
X86287050Y-105195000D01*
X86068889Y-105216487D01*
X85788966Y-105301401D01*
X85530986Y-105439294D01*
X85304866Y-105624866D01*
X85119294Y-105850986D01*
X84981401Y-106108966D01*
X84896487Y-106388889D01*
X84867815Y-106680000D01*
X84896487Y-106971111D01*
X84981401Y-107251034D01*
X85119294Y-107509014D01*
X85304866Y-107735134D01*
X85530986Y-107920706D01*
X85585791Y-107950000D01*
X85530986Y-107979294D01*
X85304866Y-108164866D01*
X85119294Y-108390986D01*
X84981401Y-108648966D01*
X84896487Y-108928889D01*
X84870010Y-109197714D01*
X84797257Y-109138007D01*
X84665228Y-109067435D01*
X84521967Y-109023978D01*
X84410314Y-109012981D01*
X84410303Y-109012981D01*
X84372981Y-109009305D01*
X84335659Y-109012981D01*
X79152759Y-109012981D01*
X79115436Y-109009305D01*
X79078113Y-109012981D01*
X79078104Y-109012981D01*
X78966451Y-109023978D01*
X78823190Y-109067435D01*
X78691160Y-109138007D01*
X78620655Y-109195870D01*
X78575436Y-109232980D01*
X78551638Y-109261978D01*
X76327000Y-111486616D01*
X76327000Y-103530000D01*
X101473000Y-103530000D01*
X101473000Y-107416687D01*
M02*
